0.0 MetaMessage('set_tempo', tempo=495867, time=0)
0.0 MetaMessage('time_signature', numerator=4, denominator=4, clocks_per_click=24, notated_32nd_notes_per_beat=8, time=0)
0.0 MetaMessage('key_signature', key='G', time=0)
0.0 MetaMessage('track_name', name='tk1', time=0)
0.0 MetaMessage('channel_prefix', channel=0, time=0)
0.0 control_change channel=0 control=7 value=100 time=0
0.0 program_change channel=0 program=0 time=0
0.0 MetaMessage('track_name', name='tk2', time=0)
0.0 MetaMessage('channel_prefix', channel=1, time=0)
0.0 control_change channel=1 control=7 value=100 time=0
0.0 program_change channel=1 program=0 time=0
0.0 MetaMessage('track_name', name='tk3', time=0)
0.0 MetaMessage('channel_prefix', channel=2, time=0)
0.0 control_change channel=2 control=7 value=100 time=0
0.0 program_change channel=2 program=0 time=0
0.0 MetaMessage('track_name', name='tk4', time=0)
0.0 MetaMessage('channel_prefix', channel=3, time=0)
0.0 control_change channel=3 control=7 value=100 time=0
0.0 program_change channel=3 program=0 time=0
0.0 MetaMessage('track_name', name='tk5', time=0)
0.0 MetaMessage('channel_prefix', channel=4, time=0)
0.0 control_change channel=4 control=7 value=100 time=0
0.0 program_change channel=4 program=0 time=0
0.0 MetaMessage('track_name', name='tk6', time=0)
0.0 MetaMessage('channel_prefix', channel=5, time=0)
0.0 control_change channel=5 control=7 value=100 time=0
0.0 program_change channel=5 program=0 time=0
0.0 MetaMessage('track_name', name='tk7', time=0)
0.0 MetaMessage('channel_prefix', channel=6, time=0)
0.0 control_change channel=6 control=7 value=100 time=0
0.0 program_change channel=6 program=0 time=0
0.0 MetaMessage('track_name', name='tk8', time=0)
0.0 MetaMessage('channel_prefix', channel=7, time=0)
0.0 control_change channel=7 control=7 value=100 time=0
0.0 program_change channel=7 program=0 time=0
0.0 MetaMessage('track_name', name='tk10', time=0)
0.0 MetaMessage('channel_prefix', channel=9, time=0)
0.0 control_change channel=9 control=7 value=100 time=0
0.0 program_change channel=9 program=0 time=0
0.5061975624999999 program_change channel=0 program=25 time=98
0.51136284375 control_change channel=0 control=7 value=105 time=1
0.51136284375 control_change channel=0 control=10 value=44 time=0
0.51136284375 control_change channel=0 control=11 value=127 time=0
0.516528125 control_change channel=0 control=91 value=70 time=1
0.516528125 control_change channel=0 control=93 value=50 time=0
0.53202396875 program_change channel=1 program=35 time=3
0.53718925 control_change channel=1 control=7 value=105 time=1
0.53718925 control_change channel=1 control=10 value=64 time=0
0.53718925 control_change channel=1 control=11 value=127 time=0
0.54235453125 control_change channel=1 control=91 value=0 time=1
0.54235453125 control_change channel=1 control=93 value=10 time=0
0.557850375 program_change channel=2 program=25 time=3
0.56301565625 control_change channel=2 control=7 value=105 time=1
0.56301565625 control_change channel=2 control=10 value=100 time=0
0.56301565625 control_change channel=2 control=11 value=127 time=0
0.5681809375 control_change channel=2 control=91 value=55 time=1
0.5681809375 control_change channel=2 control=93 value=20 time=0
0.58367678125 program_change channel=3 program=88 time=3
0.5888420625 control_change channel=3 control=7 value=100 time=1
0.5888420625 control_change channel=3 control=10 value=67 time=0
0.5888420625 control_change channel=3 control=11 value=127 time=0
0.5940073437500001 control_change channel=3 control=91 value=35 time=1
0.5940073437500001 control_change channel=3 control=93 value=0 time=0
0.6095031875 program_change channel=4 program=54 time=3
0.6146684687499999 control_change channel=4 control=7 value=100 time=1
0.6146684687499999 control_change channel=4 control=10 value=20 time=0
0.6146684687499999 control_change channel=4 control=11 value=127 time=0
0.61983375 control_change channel=4 control=91 value=55 time=1
0.61983375 control_change channel=4 control=93 value=10 time=0
0.63532959375 program_change channel=5 program=53 time=3
0.640494875 control_change channel=5 control=7 value=100 time=1
0.640494875 control_change channel=5 control=10 value=100 time=0
0.640494875 control_change channel=5 control=11 value=127 time=0
0.64566015625 control_change channel=5 control=91 value=55 time=1
0.64566015625 control_change channel=5 control=93 value=5 time=0
0.661156 program_change channel=6 program=26 time=3
0.66632128125 control_change channel=6 control=7 value=105 time=1
0.66632128125 control_change channel=6 control=10 value=112 time=0
0.66632128125 control_change channel=6 control=11 value=127 time=0
0.6714865625 control_change channel=6 control=91 value=60 time=1
0.6714865625 control_change channel=6 control=93 value=30 time=0
0.6869824062500001 program_change channel=7 program=26 time=3
0.6921476875 control_change channel=7 control=7 value=105 time=1
0.6921476875 control_change channel=7 control=10 value=37 time=0
0.6921476875 control_change channel=7 control=11 value=127 time=0
0.69731296875 control_change channel=7 control=91 value=65 time=1
0.69731296875 control_change channel=7 control=93 value=24 time=0
0.71797409375 control_change channel=9 control=7 value=105 time=4
0.71797409375 control_change channel=9 control=11 value=127 time=0
0.7231393749999999 control_change channel=9 control=91 value=53 time=1
0.7231393749999999 control_change channel=9 control=93 value=0 time=0
1.983468 MetaMessage('time_signature', numerator=4, denominator=4, clocks_per_click=24, notated_32nd_notes_per_beat=8, time=244)
1.983468 note_on channel=9 note=42 velocity=63 time=0
1.98863328125 control_change channel=9 control=1 value=0 time=1
1.98863328125 pitchwheel channel=9 pitch=0 time=0
2.0144596875 note_off channel=9 note=42 velocity=0 time=5
2.479335 note_on channel=9 note=42 velocity=63 time=90
2.5103266875 note_off channel=9 note=42 velocity=0 time=6
3.46590371875 note_on channel=3 note=67 velocity=109 time=185
3.471069 control_change channel=3 control=1 value=0 time=1
3.471069 pitchwheel channel=3 pitch=0 time=0
3.7086719375 note_off channel=3 note=67 velocity=0 time=46
3.7086719375 note_on channel=3 note=69 velocity=103 time=0
3.946274875 note_on channel=0 note=43 velocity=66 time=46
3.946274875 note_on channel=2 note=55 velocity=58 time=0
3.95144015625 control_change channel=0 control=1 value=0 time=1
3.95144015625 pitchwheel channel=0 pitch=0 time=0
3.95144015625 note_on channel=0 note=47 velocity=73 time=0
3.95144015625 control_change channel=2 control=1 value=0 time=0
3.95144015625 pitchwheel channel=2 pitch=0 time=0
3.95144015625 note_on channel=2 note=59 velocity=71 time=0
3.9566054375000004 note_on channel=0 note=50 velocity=60 time=1
3.9566054375000004 note_on channel=2 note=62 velocity=82 time=0
3.96177071875 note_on channel=0 note=55 velocity=68 time=1
3.96177071875 note_on channel=1 note=43 velocity=116 time=0
3.96177071875 note_on channel=2 note=67 velocity=77 time=0
3.96177071875 note_off channel=3 note=69 velocity=0 time=0
3.96177071875 note_on channel=3 note=71 velocity=102 time=0
3.966936 note_on channel=0 note=59 velocity=76 time=1
3.966936 control_change channel=1 control=1 value=0 time=0
3.966936 pitchwheel channel=1 pitch=0 time=0
3.966936 note_on channel=9 note=35 velocity=111 time=0
3.9772665625 note_on channel=0 note=67 velocity=68 time=2
3.9979276875 note_off channel=9 note=35 velocity=0 time=4
4.158051406249999 note_off channel=2 note=59 velocity=0 time=31
4.158051406249999 note_off channel=3 note=71 velocity=0 time=0
4.16838196875 note_off channel=2 note=67 velocity=0 time=2
4.18904309375 note_off channel=2 note=62 velocity=0 time=4
4.19937365625 note_off channel=0 note=67 velocity=0 time=2
4.19937365625 note_on channel=2 note=62 velocity=71 time=0
4.19937365625 note_on channel=2 note=67 velocity=68 time=0
4.19937365625 note_on channel=3 note=71 velocity=97 time=0
4.2045389375 note_on channel=2 note=59 velocity=50 time=1
4.209704218750001 note_on channel=0 note=67 velocity=64 time=1
4.2148695 note_off channel=0 note=59 velocity=0 time=1
4.22003478125 note_on channel=0 note=59 velocity=72 time=1
4.3491668125 note_off channel=3 note=71 velocity=0 time=25
4.42148075 note_off channel=2 note=59 velocity=0 time=14
4.42148075 note_off channel=2 note=55 velocity=0 time=0
4.4318113125 note_off channel=2 note=62 velocity=0 time=2
4.43697659375 note_off channel=2 note=67 velocity=0 time=1
4.43697659375 note_on channel=2 note=55 velocity=41 time=0
4.43697659375 note_on channel=2 note=59 velocity=70 time=0
4.442141875 note_on channel=2 note=62 velocity=81 time=1
4.44730715625 note_on channel=2 note=67 velocity=66 time=1
4.4524724375 note_on channel=3 note=71 velocity=96 time=1
4.62292671875 note_off channel=3 note=71 velocity=0 time=33
4.6384225625 note_off channel=2 note=55 velocity=0 time=3
4.643587843750001 note_off channel=2 note=59 velocity=0 time=1
4.65391840625 note_off channel=0 note=67 velocity=0 time=2
4.66424896875 note_off channel=0 note=59 velocity=0 time=2
4.67457953125 note_off channel=0 note=55 velocity=0 time=2
4.6797448125 note_off channel=2 note=67 velocity=0 time=1
4.68491009375 note_on channel=0 note=59 velocity=79 time=1
4.68491009375 note_off channel=2 note=62 velocity=0 time=0
4.690075375 note_off channel=0 note=50 velocity=0 time=1
4.690075375 note_on channel=0 note=67 velocity=80 time=0
4.690075375 note_on channel=0 note=55 velocity=71 time=0
4.690075375 note_on channel=2 note=62 velocity=82 time=0
4.69524065625 note_on channel=2 note=67 velocity=84 time=1
4.69524065625 note_on channel=2 note=59 velocity=69 time=0
4.69524065625 note_on channel=2 note=55 velocity=52 time=0
4.69524065625 note_on channel=3 note=71 velocity=99 time=0
4.700405937499999 note_off channel=0 note=47 velocity=0 time=1
4.700405937499999 note_on channel=0 note=50 velocity=58 time=0
4.70557121875 note_on channel=0 note=47 velocity=69 time=1
4.7107365 note_on channel=9 note=35 velocity=113 time=1
4.7417281875 note_off channel=9 note=35 velocity=0 time=6
4.8656949375 note_off channel=3 note=71 velocity=0 time=24
4.896686625 note_off channel=0 note=67 velocity=0 time=6
4.896686625 note_off channel=0 note=55 velocity=0 time=0
4.9328435937499995 note_off channel=0 note=59 velocity=0 time=7
4.9328435937499995 note_off channel=0 note=50 velocity=0 time=0
4.938008875 note_on channel=0 note=50 velocity=65 time=1
4.9431741562500005 note_on channel=0 note=55 velocity=66 time=1
4.9483394375 note_on channel=0 note=59 velocity=66 time=1
4.9483394375 note_on channel=0 note=67 velocity=49 time=0
4.9483394375 note_on channel=3 note=71 velocity=104 time=0
5.11879371875 note_off channel=3 note=71 velocity=0 time=33
5.1497854062499995 note_off channel=2 note=55 velocity=0 time=6
5.16528125 note_off channel=0 note=67 velocity=0 time=3
5.18077709375 note_off channel=0 note=59 velocity=0 time=3
5.18077709375 note_on channel=0 note=67 velocity=72 time=0
5.185942375000001 note_on channel=0 note=59 velocity=73 time=1
5.185942375000001 note_off channel=2 note=59 velocity=0 time=0
5.185942375000001 note_off channel=2 note=67 velocity=0 time=0
5.185942375000001 note_off channel=2 note=62 velocity=0 time=0
5.1962729375 note_on channel=3 note=71 velocity=99 time=2
5.21176878125 note_on channel=2 note=67 velocity=86 time=3
5.21176878125 note_on channel=2 note=62 velocity=81 time=0
5.2169340625 note_on channel=2 note=59 velocity=74 time=1
5.2169340625 note_on channel=2 note=55 velocity=49 time=0
5.351231374999999 note_off channel=3 note=71 velocity=0 time=26
5.392553625 note_off channel=0 note=59 velocity=0 time=8
5.392553625 note_off channel=0 note=50 velocity=0 time=0
5.41321475 note_off channel=2 note=67 velocity=0 time=4
5.42871059375 note_off channel=0 note=67 velocity=0 time=3
5.42871059375 note_off channel=2 note=55 velocity=0 time=0
5.433875875 note_off channel=0 note=55 velocity=0 time=1
5.43904115625 note_off channel=2 note=59 velocity=0 time=1
5.4442064375 note_on channel=0 note=50 velocity=57 time=1
5.4442064375 note_on channel=0 note=55 velocity=74 time=0
5.44937171875 note_on channel=0 note=59 velocity=79 time=1
5.44937171875 note_off channel=2 note=62 velocity=0 time=0
5.44937171875 note_on channel=2 note=55 velocity=36 time=0
5.44937171875 note_on channel=3 note=71 velocity=103 time=0
5.454537 note_on channel=0 note=67 velocity=74 time=1
5.454537 note_on channel=2 note=59 velocity=62 time=0
5.454537 note_on channel=2 note=62 velocity=80 time=0
5.459702281249999 note_on channel=2 note=67 velocity=76 time=1
5.61466071875 note_off channel=0 note=47 velocity=0 time=30
5.619826000000001 note_off channel=0 note=43 velocity=0 time=1
5.619826000000001 note_off channel=3 note=71 velocity=0 time=0
5.62499128125 note_off channel=0 note=67 velocity=0 time=1
5.6921399374999995 note_off channel=2 note=67 velocity=0 time=13
5.69730521875 note_off channel=2 note=62 velocity=0 time=1
5.69730521875 note_on channel=3 note=71 velocity=105 time=0
5.7024705 note_off channel=2 note=59 velocity=0 time=1
5.7024705 note_on channel=2 note=67 velocity=84 time=0
5.7024705 note_on channel=2 note=62 velocity=80 time=0
5.70763578125 note_on channel=2 note=59 velocity=72 time=1
5.84193309375 note_off channel=0 note=50 velocity=0 time=26
5.847098375 note_off channel=0 note=55 velocity=0 time=1
5.87292478125 note_off channel=3 note=71 velocity=0 time=5
5.893585906249999 note_off channel=1 note=43 velocity=0 time=4
5.8987511875 note_off channel=2 note=55 velocity=0 time=1
5.90391646875 note_off channel=2 note=67 velocity=0 time=1
5.9090817499999995 note_off channel=2 note=62 velocity=0 time=1
5.9090817499999995 note_off channel=2 note=59 velocity=0 time=0
5.93490815625 note_on channel=0 note=47 velocity=66 time=5
5.9400734375 note_off channel=0 note=59 velocity=0 time=1
5.9400734375 note_on channel=2 note=54 velocity=53 time=0
5.945238718750001 note_on channel=0 note=51 velocity=62 time=1
5.945238718750001 note_on channel=1 note=42 velocity=117 time=0
5.945238718750001 note_on channel=2 note=63 velocity=81 time=0
5.945238718750001 note_on channel=3 note=71 velocity=106 time=0
5.950404 note_on channel=0 note=59 velocity=83 time=1
5.950404 note_on channel=0 note=57 velocity=75 time=0
5.950404 note_on channel=2 note=57 velocity=65 time=0
5.950404 note_on channel=9 note=35 velocity=107 time=0
5.9607345625 note_on channel=2 note=66 velocity=78 time=2
5.96589984375 note_on channel=0 note=66 velocity=78 time=1
5.9813956875 note_off channel=9 note=35 velocity=0 time=3
6.1053624375 note_off channel=3 note=71 velocity=0 time=24
6.1673458125 note_off channel=2 note=66 velocity=0 time=12
6.17251109375 note_off channel=2 note=63 velocity=0 time=1
6.18284165625 note_off channel=0 note=66 velocity=0 time=2
6.1880069375 note_off channel=2 note=57 velocity=0 time=1
6.1880069375 note_on channel=3 note=71 velocity=101 time=0
6.19317221875 note_on channel=0 note=66 velocity=80 time=1
6.1983375 note_off channel=0 note=57 velocity=0 time=1
6.20350278125 note_on channel=2 note=63 velocity=82 time=1
6.20350278125 note_on channel=2 note=66 velocity=87 time=0
6.2086680625 note_on channel=0 note=57 velocity=66 time=1
6.2086680625 note_on channel=2 note=57 velocity=66 time=0
6.34813065625 note_off channel=3 note=71 velocity=0 time=27
6.38945290625 note_off channel=2 note=54 velocity=0 time=8
6.41011403125 note_off channel=2 note=66 velocity=0 time=4
6.43077515625 note_off channel=2 note=57 velocity=0 time=4
6.435940437499999 note_off channel=2 note=63 velocity=0 time=1
6.435940437499999 note_on channel=3 note=71 velocity=102 time=0
6.44110571875 note_on channel=2 note=54 velocity=47 time=1
6.446271 note_on channel=2 note=57 velocity=52 time=1
6.446271 note_on channel=2 note=63 velocity=16 time=0
6.4566015625 note_on channel=2 note=66 velocity=49 time=2
6.6425516875 note_off channel=2 note=54 velocity=0 time=36
6.652882249999999 note_off channel=2 note=63 velocity=0 time=2
6.6632128125 note_off channel=0 note=66 velocity=0 time=2
6.673543375 note_off channel=0 note=59 velocity=0 time=2
6.67870865625 note_off channel=0 note=57 velocity=0 time=1
6.67870865625 note_on channel=0 note=66 velocity=84 time=0
6.67870865625 note_off channel=2 note=66 velocity=0 time=0
6.6838739375 note_on channel=0 note=59 velocity=86 time=1
6.6890392187500005 note_on channel=0 note=57 velocity=69 time=1
6.6890392187500005 note_on channel=2 note=66 velocity=89 time=0
6.6942045 note_off channel=2 note=57 velocity=0 time=1
6.6942045 note_on channel=2 note=63 velocity=82 time=0
6.69936978125 note_on channel=2 note=57 velocity=78 time=1
6.69936978125 note_on channel=2 note=54 velocity=64 time=0
6.69936978125 note_on channel=9 note=35 velocity=108 time=0
6.73036146875 note_off channel=9 note=35 velocity=0 time=6
6.880154625 note_off channel=0 note=47 velocity=0 time=29
6.921476875000001 note_off channel=0 note=66 velocity=0 time=8
6.9318074375 note_off channel=0 note=57 velocity=0 time=2
6.9318074375 note_on channel=0 note=47 velocity=62 time=0
6.936972718750001 note_on channel=0 note=57 velocity=74 time=1
6.9524685625 note_on channel=0 note=66 velocity=66 time=3
7.169410375 note_off channel=0 note=66 velocity=0 time=42
7.1797409375 note_off channel=0 note=51 velocity=0 time=2
7.18490621875 note_off channel=0 note=59 velocity=0 time=1
7.18490621875 note_on channel=0 note=66 velocity=75 time=0
7.18490621875 note_off channel=2 note=66 velocity=0 time=0
7.1900715 note_off channel=0 note=57 velocity=0 time=1
7.1900715 note_on channel=0 note=59 velocity=78 time=0
7.1900715 note_off channel=2 note=63 velocity=0 time=0
7.1900715 note_on channel=2 note=66 velocity=88 time=0
7.195236781249999 note_on channel=0 note=57 velocity=71 time=1
7.195236781249999 note_off channel=2 note=57 velocity=0 time=0
7.195236781249999 note_on channel=2 note=63 velocity=82 time=0
7.20556734375 note_on channel=0 note=51 velocity=43 time=2
7.2107326249999995 note_on channel=2 note=57 velocity=60 time=1
7.39668275 note_off channel=0 note=59 velocity=0 time=36
7.412178593749999 note_off channel=2 note=57 velocity=0 time=3
7.42250915625 note_off channel=0 note=51 velocity=0 time=2
7.4276744374999994 note_off channel=0 note=66 velocity=0 time=1
7.43283971875 note_off channel=2 note=63 velocity=0 time=1
7.43283971875 note_off channel=3 note=71 velocity=0 time=0
7.438005 note_off channel=0 note=57 velocity=0 time=1
7.438005 note_on channel=0 note=51 velocity=50 time=0
7.438005 note_off channel=2 note=66 velocity=0 time=0
7.438005 note_on channel=2 note=57 velocity=60 time=0
7.44317028125 note_on channel=0 note=57 velocity=76 time=1
7.44317028125 note_on channel=2 note=66 velocity=87 time=0
7.4483355625000005 note_on channel=0 note=59 velocity=83 time=1
7.4483355625000005 note_on channel=2 note=63 velocity=80 time=0
7.45350084375 note_on channel=0 note=66 velocity=70 time=1
7.6756079375 note_off channel=2 note=66 velocity=0 time=43
7.680773218750001 note_off channel=2 note=57 velocity=0 time=1
7.680773218750001 note_off channel=2 note=63 velocity=0 time=0
7.6859385 note_on channel=2 note=66 velocity=88 time=1
7.69110378125 note_off channel=2 note=54 velocity=0 time=1
7.69110378125 note_on channel=2 note=63 velocity=83 time=0
7.69110378125 note_on channel=2 note=57 velocity=62 time=0
7.7530871562499994 note_off channel=0 note=51 velocity=0 time=12
7.7737482812500005 note_off channel=2 note=57 velocity=0 time=4
7.7789135625 note_off channel=0 note=47 velocity=0 time=1
7.7789135625 note_off channel=0 note=57 velocity=0 time=0
7.78407884375 note_off channel=0 note=66 velocity=0 time=1
7.804739968750001 note_off channel=2 note=66 velocity=0 time=4
7.804739968750001 note_off channel=2 note=63 velocity=0 time=0
7.87705390625 note_off channel=1 note=42 velocity=0 time=14
7.9235414375 note_on channel=2 note=52 velocity=72 time=9
7.92870671875 note_on channel=0 note=47 velocity=57 time=1
7.92870671875 note_on channel=0 note=55 velocity=73 time=0
7.92870671875 note_on channel=2 note=55 velocity=74 time=0
7.933872 note_off channel=0 note=59 velocity=0 time=1
7.933872 note_on channel=1 note=40 velocity=110 time=0
7.933872 note_on channel=9 note=35 velocity=105 time=0
7.939037281250001 note_on channel=0 note=52 velocity=59 time=1
7.939037281250001 note_on channel=0 note=59 velocity=84 time=0
7.939037281250001 note_on channel=2 note=59 velocity=80 time=0
7.939037281250001 note_on channel=3 note=71 velocity=115 time=0
7.944202562499999 note_on channel=0 note=64 velocity=80 time=1
7.944202562499999 note_on channel=2 note=64 velocity=74 time=0
7.9648636875 note_off channel=9 note=35 velocity=0 time=4
8.07333459375 note_off channel=3 note=71 velocity=0 time=21
8.130152687499999 note_off channel=2 note=55 velocity=0 time=11
8.13531796875 note_off channel=0 note=55 velocity=0 time=1
8.14048325 note_off channel=0 note=52 velocity=0 time=1
8.171474937500001 note_off channel=0 note=64 velocity=0 time=6
8.171474937500001 note_off channel=2 note=64 velocity=0 time=0
8.171474937500001 note_on channel=3 note=71 velocity=99 time=0
8.17664021875 note_on channel=0 note=64 velocity=78 time=1
8.1818055 note_off channel=0 note=59 velocity=0 time=1
8.1818055 note_off channel=2 note=59 velocity=0 time=0
8.1818055 note_on channel=2 note=64 velocity=93 time=0
8.18697078125 note_on channel=0 note=59 velocity=82 time=1
8.18697078125 note_on channel=2 note=59 velocity=88 time=0
8.1921360625 note_on channel=0 note=55 velocity=76 time=1
8.1921360625 note_on channel=2 note=55 velocity=72 time=0
8.19730134375 note_on channel=0 note=52 velocity=61 time=1
8.34192921875 note_off channel=3 note=71 velocity=0 time=28
8.40391259375 note_off channel=2 note=55 velocity=0 time=12
8.41424315625 note_off channel=2 note=59 velocity=0 time=2
8.419408437500001 note_on channel=3 note=71 velocity=99 time=1
8.424573718749999 note_off channel=2 note=64 velocity=0 time=1
8.424573718749999 note_on channel=2 note=55 velocity=68 time=0
8.424573718749999 note_on channel=2 note=59 velocity=82 time=0
8.429739 note_on channel=2 note=64 velocity=78 time=1
8.584697437500001 note_off channel=3 note=71 velocity=0 time=30
8.6466808125 note_off channel=0 note=52 velocity=0 time=12
8.66217665625 note_off channel=0 note=64 velocity=0 time=3
8.66217665625 note_off channel=2 note=52 velocity=0 time=0
8.66217665625 note_on channel=3 note=71 velocity=96 time=0
8.6673419375 note_off channel=0 note=59 velocity=0 time=1
8.6673419375 note_off channel=2 note=55 velocity=0 time=0
8.6673419375 note_off channel=2 note=64 velocity=0 time=0
8.672507218749999 note_on channel=0 note=64 velocity=83 time=1
8.672507218749999 note_off channel=2 note=59 velocity=0 time=0
8.672507218749999 note_on channel=2 note=64 velocity=87 time=0
8.6776725 note_off channel=0 note=55 velocity=0 time=1
8.6776725 note_on channel=0 note=59 velocity=85 time=0
8.6776725 note_on channel=2 note=59 velocity=82 time=0
8.68283778125 note_on channel=2 note=55 velocity=56 time=1
8.68283778125 note_on channel=2 note=52 velocity=36 time=0
8.68283778125 note_on channel=9 note=35 velocity=108 time=0
8.6880030625 note_on channel=0 note=55 velocity=58 time=1
8.6880030625 note_on channel=0 note=52 velocity=44 time=0
8.713829468750001 note_off channel=9 note=35 velocity=0 time=5
8.82746565625 note_off channel=3 note=71 velocity=0 time=22
8.88428375 note_off channel=0 note=59 velocity=0 time=11
8.910110156250001 note_off channel=0 note=47 velocity=0 time=5
8.9152754375 note_off channel=0 note=64 velocity=0 time=1
8.9152754375 note_on channel=3 note=71 velocity=106 time=0
8.92044071875 note_on channel=0 note=47 velocity=53 time=1
8.9359365625 note_on channel=0 note=59 velocity=69 time=3
8.94110184375 note_on channel=0 note=64 velocity=49 time=1
9.070233875000001 note_off channel=3 note=71 velocity=0 time=25
9.13738253125 note_off channel=0 note=55 velocity=0 time=13
9.13738253125 note_off channel=2 note=55 velocity=0 time=0
9.152878375 note_off channel=0 note=64 velocity=0 time=3
9.1632089375 note_on channel=3 note=71 velocity=106 time=2
9.16837421875 note_on channel=0 note=64 velocity=70 time=1
9.1735395 note_off channel=0 note=59 velocity=0 time=1
9.1735395 note_off channel=2 note=64 velocity=0 time=0
9.178704781250001 note_on channel=0 note=59 velocity=74 time=1
9.178704781250001 note_off channel=2 note=59 velocity=0 time=0
9.178704781250001 note_on channel=2 note=64 velocity=86 time=0
9.183870062499999 note_on channel=0 note=55 velocity=56 time=1
9.183870062499999 note_on channel=2 note=59 velocity=83 time=0
9.183870062499999 note_on channel=2 note=55 velocity=65 time=0
9.38015075 note_off channel=2 note=64 velocity=0 time=38
9.38531603125 note_off channel=0 note=59 velocity=0 time=1
9.38531603125 note_off channel=3 note=71 velocity=0 time=0
9.395646593750001 note_off channel=0 note=52 velocity=0 time=2
9.40597715625 note_off channel=0 note=55 velocity=0 time=2
9.40597715625 note_off channel=2 note=55 velocity=0 time=0
9.4111424375 note_on channel=0 note=52 velocity=55 time=1
9.4111424375 note_on channel=3 note=69 velocity=105 time=0
9.41630771875 note_on channel=0 note=55 velocity=74 time=1
9.421473 note_off channel=0 note=64 velocity=0 time=1
9.421473 note_on channel=0 note=59 velocity=78 time=0
9.421473 note_off channel=2 note=59 velocity=0 time=0
9.421473 note_on channel=2 note=55 velocity=60 time=0
9.42663828125 note_on channel=0 note=64 velocity=77 time=1
9.42663828125 note_on channel=2 note=59 velocity=84 time=0
9.431803562499999 note_on channel=2 note=64 velocity=85 time=1
9.6590759375 note_off channel=3 note=69 velocity=0 time=44
9.6590759375 note_on channel=3 note=71 velocity=104 time=0
9.66424121875 note_off channel=0 note=47 velocity=0 time=1
9.669406500000001 note_off channel=2 note=64 velocity=0 time=1
9.67457178125 note_off channel=0 note=52 velocity=0 time=1
9.67457178125 note_off channel=2 note=59 velocity=0 time=0
9.67457178125 note_on channel=2 note=64 velocity=78 time=0
9.6797370625 note_on channel=2 note=59 velocity=74 time=1
9.829530218750001 note_off channel=2 note=59 velocity=0 time=29
9.834695499999999 note_off channel=0 note=55 velocity=0 time=1
9.8450260625 note_off channel=0 note=59 velocity=0 time=2
9.86052190625 note_off channel=3 note=71 velocity=0 time=3
9.865687187499999 note_off channel=1 note=40 velocity=0 time=1
9.865687187499999 note_off channel=2 note=55 velocity=0 time=0
9.88118303125 note_off channel=2 note=64 velocity=0 time=3
9.907009437500001 note_on channel=0 note=45 velocity=62 time=5
9.907009437500001 note_on channel=0 note=52 velocity=60 time=0
9.907009437500001 note_off channel=2 note=52 velocity=0 time=0
9.91217471875 note_on channel=1 note=33 velocity=101 time=1
9.91217471875 note_on channel=3 note=72 velocity=100 time=0
9.91734 note_off channel=0 note=64 velocity=0 time=1
9.91734 note_on channel=0 note=57 velocity=77 time=0
9.91734 note_on channel=2 note=52 velocity=57 time=0
9.91734 note_on channel=9 note=35 velocity=103 time=0
9.92250528125 note_on channel=2 note=57 velocity=72 time=1
9.92250528125 note_on channel=2 note=60 velocity=84 time=0
9.9276705625 note_on channel=0 note=64 velocity=76 time=1
9.9276705625 note_on channel=0 note=60 velocity=82 time=0
9.9276705625 note_on channel=2 note=64 velocity=78 time=0
9.9483316875 note_off channel=9 note=35 velocity=0 time=4
10.11878596875 note_off channel=0 note=57 velocity=0 time=33
10.1342818125 note_off channel=3 note=72 velocity=0 time=3
10.14977765625 note_off channel=0 note=64 velocity=0 time=3
10.154942937500001 note_off channel=0 note=52 velocity=0 time=1
10.154942937500001 note_on channel=3 note=74 velocity=95 time=0
10.160108218749999 note_off channel=0 note=60 velocity=0 time=1
10.160108218749999 note_on channel=0 note=64 velocity=79 time=0
10.160108218749999 note_off channel=2 note=64 velocity=0 time=0
10.1652735 note_off channel=2 note=60 velocity=0 time=1
10.1652735 note_off channel=2 note=57 velocity=0 time=0
10.17043878125 note_on channel=0 note=60 velocity=80 time=1
10.17043878125 note_on channel=2 note=64 velocity=88 time=0
10.17043878125 note_on channel=2 note=60 velocity=84 time=0
10.1756040625 note_on channel=0 note=57 velocity=72 time=1
10.1756040625 note_on channel=2 note=57 velocity=72 time=0
10.18076934375 note_on channel=0 note=52 velocity=48 time=1
10.371884750000001 note_off channel=2 note=64 velocity=0 time=37
10.377050031249999 note_off channel=2 note=60 velocity=0 time=1
10.4028764375 note_off channel=3 note=74 velocity=0 time=5
10.4028764375 note_on channel=3 note=72 velocity=103 time=0
10.413207 note_off channel=2 note=57 velocity=0 time=2
10.41837228125 note_on channel=2 note=57 velocity=63 time=1
10.4235375625 note_on channel=2 note=60 velocity=73 time=1
10.428702843750001 note_on channel=2 note=64 velocity=53 time=1
10.624983531249999 note_off channel=2 note=57 velocity=0 time=38
10.645644656250001 note_off channel=0 note=64 velocity=0 time=4
10.645644656250001 note_off channel=3 note=72 velocity=0 time=0
10.645644656250001 note_on channel=3 note=71 velocity=102 time=0
10.6508099375 note_off channel=0 note=60 velocity=0 time=1
10.6508099375 note_on channel=0 note=64 velocity=83 time=0
10.65597521875 note_on channel=0 note=60 velocity=82 time=1
10.65597521875 note_off channel=2 note=64 velocity=0 time=0
10.6611405 note_off channel=0 note=57 velocity=0 time=1
10.6611405 note_off channel=0 note=52 velocity=0 time=0
10.666305781250001 note_on channel=0 note=57 velocity=74 time=1
10.666305781250001 note_off channel=2 note=60 velocity=0 time=0
10.666305781250001 note_on channel=2 note=64 velocity=90 time=0
10.666305781250001 note_on channel=9 note=35 velocity=108 time=0
10.6714710625 note_on channel=0 note=52 velocity=58 time=1
10.6714710625 note_on channel=2 note=60 velocity=84 time=0
10.6714710625 note_on channel=2 note=57 velocity=72 time=0
10.697297468750001 note_off channel=9 note=35 velocity=0 time=5
10.8987434375 note_off channel=0 note=64 velocity=0 time=39
10.8987434375 note_off channel=3 note=71 velocity=0 time=0
10.8987434375 note_on channel=3 note=69 velocity=98 time=0
10.92456984375 note_on channel=0 note=64 velocity=41 time=5
11.11051996875 note_off channel=2 note=52 velocity=0 time=36
11.12085053125 note_off channel=0 note=64 velocity=0 time=2
11.12085053125 note_off channel=2 note=60 velocity=0 time=0
11.14151165625 note_off channel=0 note=60 velocity=0 time=4
11.1466769375 note_on channel=0 note=64 velocity=71 time=1
11.1466769375 note_off channel=3 note=69 velocity=0 time=0
11.1466769375 note_on channel=3 note=67 velocity=99 time=0
11.15184221875 note_off channel=0 note=57 velocity=0 time=1
11.15184221875 note_on channel=0 note=60 velocity=77 time=0
11.1570075 note_off channel=0 note=52 velocity=0 time=1
11.1570075 note_on channel=0 note=57 velocity=69 time=0
11.1570075 note_off channel=2 note=64 velocity=0 time=0
11.16217278125 note_on channel=2 note=64 velocity=94 time=1
11.167338062499999 note_on channel=0 note=52 velocity=51 time=1
11.167338062499999 note_off channel=2 note=57 velocity=0 time=0
11.167338062499999 note_on channel=2 note=60 velocity=84 time=0
11.17250334375 note_on channel=2 note=57 velocity=81 time=1
11.17250334375 note_on channel=2 note=52 velocity=63 time=0
11.348122906250001 note_off channel=0 note=45 velocity=0 time=34
11.38944515625 note_off channel=0 note=64 velocity=0 time=8
11.38944515625 note_off channel=0 note=52 velocity=0 time=0
11.38944515625 note_off channel=2 note=52 velocity=0 time=0
11.3946104375 note_off channel=0 note=60 velocity=0 time=1
11.3946104375 note_on channel=0 note=45 velocity=48 time=0
11.39977571875 note_off channel=0 note=57 velocity=0 time=1
11.39977571875 note_on channel=0 note=52 velocity=59 time=0
11.39977571875 note_off channel=2 note=57 velocity=0 time=0
11.39977571875 note_off channel=3 note=67 velocity=0 time=0
11.404941 note_on channel=0 note=57 velocity=79 time=1
11.404941 note_on channel=2 note=52 velocity=36 time=0
11.41010628125 note_off channel=2 note=64 velocity=0 time=1
11.41010628125 note_off channel=2 note=60 velocity=0 time=0
11.41010628125 note_on channel=2 note=57 velocity=54 time=0
11.4152715625 note_on channel=0 note=60 velocity=82 time=1
11.4152715625 note_on channel=2 note=60 velocity=68 time=0
11.42043684375 note_on channel=0 note=64 velocity=76 time=1
11.42043684375 note_on channel=2 note=64 velocity=64 time=0
11.51341190625 note_off channel=1 note=33 velocity=0 time=18
11.55473415625 note_on channel=1 note=40 velocity=108 time=8
11.61671753125 note_off channel=2 note=57 velocity=0 time=12
11.642543937500001 note_off channel=2 note=64 velocity=0 time=5
11.642543937500001 note_on channel=3 note=69 velocity=106 time=0
11.65803978125 note_off channel=2 note=60 velocity=0 time=3
11.65803978125 note_on channel=2 note=64 velocity=84 time=0
11.6632050625 note_on channel=2 note=60 velocity=82 time=1
11.66837034375 note_on channel=2 note=57 velocity=61 time=1
11.74068428125 pitchwheel channel=1 pitch=-937 time=14
11.756180125 pitchwheel channel=1 pitch=-2107 time=3
11.77684125 pitchwheel channel=1 pitch=-3043 time=4
11.79233709375 pitchwheel channel=1 pitch=-3745 time=3
11.8078329375 pitchwheel channel=1 pitch=-3979 time=3
11.85432046875 pitchwheel channel=1 pitch=-3277 time=9
11.86465103125 note_off channel=2 note=64 velocity=0 time=2
11.8698163125 note_off channel=1 note=40 velocity=0 time=1
11.8698163125 pitchwheel channel=1 pitch=-1405 time=0
11.880146875 note_off channel=0 note=45 velocity=0 time=2
11.88531215625 note_off channel=0 note=52 velocity=0 time=1
11.88531215625 note_off channel=0 note=57 velocity=0 time=0
11.88531215625 pitchwheel channel=1 pitch=0 time=0
11.890477437500001 note_off channel=0 note=64 velocity=0 time=1
11.890477437500001 note_on channel=0 note=45 velocity=71 time=0
11.890477437500001 note_on channel=0 note=52 velocity=68 time=0
11.890477437500001 note_off channel=2 note=60 velocity=0 time=0
11.895642718749999 note_off channel=0 note=60 velocity=0 time=1
11.895642718749999 note_on channel=0 note=57 velocity=78 time=0
11.895642718749999 note_off channel=2 note=52 velocity=0 time=0
11.895642718749999 note_off channel=2 note=57 velocity=0 time=0
11.900808 note_on channel=0 note=60 velocity=82 time=1
11.900808 note_on channel=1 note=33 velocity=111 time=0
11.900808 note_on channel=2 note=52 velocity=61 time=0
11.900808 note_on channel=9 note=35 velocity=107 time=0
11.900808 note_on channel=9 note=42 velocity=70 time=0
11.90597328125 note_on channel=2 note=60 velocity=36 time=1
11.90597328125 note_on channel=2 note=57 velocity=68 time=0
11.9111385625 note_on channel=0 note=64 velocity=77 time=1
11.9111385625 note_on channel=2 note=64 velocity=75 time=0
11.9317996875 note_off channel=9 note=42 velocity=0 time=4
11.9317996875 note_off channel=9 note=35 velocity=0 time=0
12.04027059375 note_off channel=3 note=69 velocity=0 time=21
12.10225396875 note_off channel=0 note=57 velocity=0 time=12
12.107419250000001 note_off channel=0 note=60 velocity=0 time=1
12.107419250000001 note_off channel=2 note=57 velocity=0 time=0
12.13324565625 note_off channel=2 note=64 velocity=0 time=5
12.143576218749999 note_off channel=0 note=64 velocity=0 time=2
12.143576218749999 note_on channel=3 note=69 velocity=107 time=0
12.1487415 note_on channel=0 note=64 velocity=79 time=1
12.1487415 note_off channel=2 note=60 velocity=0 time=0
12.1487415 note_on channel=2 note=64 velocity=82 time=0
12.15390678125 note_on channel=0 note=60 velocity=79 time=1
12.15390678125 note_on channel=2 note=60 velocity=78 time=0
12.1590720625 note_on channel=0 note=57 velocity=74 time=1
12.1590720625 note_on channel=2 note=57 velocity=62 time=0
12.1590720625 note_on channel=9 note=42 velocity=58 time=0
12.19006375 note_off channel=9 note=42 velocity=0 time=6
12.39150971875 note_off channel=2 note=57 velocity=0 time=39
12.39150971875 note_off channel=2 note=52 velocity=0 time=0
12.39150971875 note_off channel=3 note=69 velocity=0 time=0
12.39150971875 note_on channel=3 note=71 velocity=106 time=0
12.39150971875 note_on channel=9 note=40 velocity=115 time=0
12.396675 note_off channel=2 note=64 velocity=0 time=1
12.396675 note_off channel=2 note=60 velocity=0 time=0
12.396675 note_on channel=2 note=52 velocity=45 time=0
12.401840281250001 note_on channel=2 note=57 velocity=66 time=1
12.401840281250001 note_on channel=2 note=60 velocity=80 time=0
12.4070055625 note_on channel=2 note=64 velocity=78 time=1
12.4070055625 note_on channel=9 note=42 velocity=70 time=0
12.42250140625 note_off channel=9 note=40 velocity=0 time=3
12.437997249999999 note_off channel=9 note=42 velocity=0 time=3
12.4483278125 note_off channel=0 note=52 velocity=0 time=2
12.46382365625 note_off channel=0 note=57 velocity=0 time=3
12.510311187500001 note_off channel=0 note=64 velocity=0 time=9
12.52064175 note_off channel=2 note=57 velocity=0 time=2
12.52580703125 note_off channel=2 note=52 velocity=0 time=1
12.546468156249999 note_off channel=2 note=60 velocity=0 time=4
12.59812096875 note_off channel=0 note=60 velocity=0 time=10
12.60328625 note_off channel=2 note=64 velocity=0 time=1
12.623947375 note_off channel=1 note=33 velocity=0 time=4
12.62911265625 note_off channel=0 note=45 velocity=0 time=1
12.6342779375 note_on channel=0 note=66 velocity=79 time=1
12.6342779375 note_off channel=3 note=71 velocity=0 time=0
12.6342779375 note_on channel=3 note=72 velocity=102 time=0
12.63944321875 note_on channel=0 note=60 velocity=78 time=1
12.63944321875 note_on channel=9 note=42 velocity=55 time=0
12.6446085 note_on channel=1 note=38 velocity=111 time=1
12.649773781250001 note_on channel=2 note=50 velocity=61 time=1
12.649773781250001 note_on channel=9 note=35 velocity=115 time=0
12.654939062499999 note_on channel=0 note=57 velocity=66 time=1
12.654939062499999 note_on channel=0 note=50 velocity=49 time=0
12.66010434375 note_on channel=0 note=45 velocity=45 time=1
12.66010434375 note_on channel=2 note=57 velocity=78 time=0
12.66010434375 note_on channel=2 note=60 velocity=90 time=0
12.665269625 note_on channel=2 note=66 velocity=87 time=1
12.67043490625 note_off channel=9 note=42 velocity=0 time=1
12.68076546875 note_off channel=9 note=35 velocity=0 time=2
12.81506278125 note_off channel=1 note=38 velocity=0 time=26
12.8822114375 note_off channel=3 note=72 velocity=0 time=13
12.8822114375 note_on channel=3 note=74 velocity=98 time=0
12.88737671875 note_on channel=9 note=42 velocity=64 time=1
12.91836840625 note_off channel=9 note=42 velocity=0 time=6
13.10431853125 note_off channel=0 note=57 velocity=0 time=36
13.11464909375 note_off channel=0 note=66 velocity=0 time=2
13.11464909375 note_off channel=2 note=66 velocity=0 time=0
13.12497965625 note_off channel=2 note=60 velocity=0 time=2
13.12497965625 note_off channel=3 note=74 velocity=0 time=0
13.12497965625 note_on channel=3 note=69 velocity=103 time=0
13.1301449375 note_off channel=0 note=60 velocity=0 time=1
13.1301449375 note_on channel=9 note=42 velocity=61 time=0
13.13531021875 note_on channel=0 note=66 velocity=84 time=1
13.13531021875 note_on channel=1 note=40 velocity=111 time=0
13.13531021875 note_off channel=2 note=57 velocity=0 time=0
13.1404755 note_on channel=2 note=66 velocity=87 time=1
13.14564078125 note_on channel=0 note=60 velocity=82 time=1
13.14564078125 note_on channel=2 note=60 velocity=83 time=0
13.14564078125 note_on channel=2 note=57 velocity=59 time=0
13.1508060625 note_on channel=0 note=57 velocity=79 time=1
13.15597134375 note_off channel=0 note=50 velocity=0 time=1
13.161136625000001 note_on channel=0 note=50 velocity=55 time=1
13.161136625000001 note_off channel=9 note=42 velocity=0 time=0
13.3574173125 note_off channel=2 note=50 velocity=0 time=38
13.36258259375 note_off channel=2 note=57 velocity=0 time=1
13.378078437500001 note_off channel=0 note=66 velocity=0 time=3
13.378078437500001 note_off channel=0 note=57 velocity=0 time=0
13.378078437500001 note_off channel=2 note=60 velocity=0 time=0
13.378078437500001 note_on channel=2 note=50 velocity=47 time=0
13.378078437500001 note_on channel=2 note=57 velocity=76 time=0
13.38324371875 note_off channel=2 note=66 velocity=0 time=1
13.38324371875 note_on channel=2 note=60 velocity=85 time=0
13.38324371875 note_on channel=9 note=42 velocity=64 time=0
13.388409 note_off channel=0 note=60 velocity=0 time=1
13.388409 note_on channel=0 note=57 velocity=75 time=0
13.388409 note_off channel=1 note=40 velocity=0 time=0
13.388409 note_on channel=1 note=42 velocity=110 time=0
13.388409 note_on channel=2 note=66 velocity=86 time=0
13.388409 note_on channel=9 note=40 velocity=115 time=0
13.39357428125 note_on channel=0 note=60 velocity=80 time=1
13.3987395625 note_on channel=0 note=66 velocity=78 time=1
13.414235406249999 note_off channel=9 note=42 velocity=0 time=3
13.4194006875 note_off channel=9 note=40 velocity=0 time=1
13.42456596875 note_off channel=3 note=69 velocity=0 time=1
13.61051609375 note_off channel=1 note=42 velocity=0 time=36
13.615681375 note_off channel=0 note=60 velocity=0 time=1
13.62084665625 note_off channel=0 note=66 velocity=0 time=1
13.62084665625 note_on channel=3 note=71 velocity=109 time=0
13.62084665625 note_on channel=9 note=42 velocity=59 time=0
13.626011937500001 note_off channel=2 note=66 velocity=0 time=1
13.631177218749999 note_off channel=2 note=60 velocity=0 time=1
13.631177218749999 note_on channel=2 note=66 velocity=86 time=0
13.6363425 note_on channel=2 note=60 velocity=76 time=1
13.64150778125 note_off channel=0 note=57 velocity=0 time=1
13.65183834375 note_off channel=9 note=42 velocity=0 time=2
13.72415228125 note_off channel=2 note=60 velocity=0 time=14
13.72415228125 note_off channel=2 note=57 velocity=0 time=0
13.72415228125 note_off channel=2 note=66 velocity=0 time=0
13.74481340625 note_off channel=0 note=45 velocity=0 time=4
13.82745790625 note_off channel=0 note=50 velocity=0 time=16
13.848119031249999 note_off channel=2 note=50 velocity=0 time=4
13.863614875 note_on channel=0 note=43 velocity=66 time=3
13.863614875 note_on channel=2 note=55 velocity=58 time=0
13.86878015625 note_on channel=0 note=47 velocity=73 time=1
13.86878015625 note_on channel=2 note=59 velocity=71 time=0
13.873945437500002 note_on channel=0 note=50 velocity=60 time=1
13.873945437500002 note_on channel=2 note=62 velocity=82 time=0
13.873945437500002 note_on channel=9 note=42 velocity=64 time=0
13.879110718749999 note_on channel=0 note=55 velocity=68 time=1
13.879110718749999 note_on channel=2 note=67 velocity=77 time=0
13.884276 note_on channel=0 note=59 velocity=76 time=1
13.884276 note_on channel=1 note=43 velocity=112 time=0
13.884276 note_on channel=9 note=35 velocity=104 time=0
13.8946065625 note_on channel=0 note=67 velocity=68 time=2
13.904937125 note_off channel=9 note=42 velocity=0 time=2
13.9152676875 note_off channel=9 note=35 velocity=0 time=2
14.07539140625 note_off channel=2 note=59 velocity=0 time=31
14.08572196875 note_off channel=2 note=67 velocity=0 time=2
14.10638309375 note_off channel=2 note=62 velocity=0 time=4
14.11671365625 note_off channel=0 note=67 velocity=0 time=2
14.11671365625 note_on channel=2 note=62 velocity=71 time=0
14.11671365625 note_on channel=2 note=67 velocity=68 time=0
14.1218789375 note_on channel=2 note=59 velocity=50 time=1
14.12704421875 note_on channel=0 note=67 velocity=64 time=1
14.12704421875 note_on channel=9 note=42 velocity=58 time=0
14.1322095 note_off channel=0 note=59 velocity=0 time=1
14.137374781250001 note_on channel=0 note=59 velocity=72 time=1
14.15803590625 note_off channel=9 note=42 velocity=0 time=4
14.30266378125 note_off channel=3 note=71 velocity=0 time=28
14.33882075 note_off channel=2 note=59 velocity=0 time=7
14.33882075 note_off channel=2 note=55 velocity=0 time=0
14.3491513125 note_off channel=2 note=62 velocity=0 time=2
14.354316593750001 note_off channel=2 note=67 velocity=0 time=1
14.354316593750001 note_on channel=2 note=55 velocity=41 time=0
14.354316593750001 note_on channel=2 note=59 velocity=70 time=0
14.359481875 note_on channel=2 note=62 velocity=81 time=1
14.36464715625 note_on channel=2 note=67 velocity=66 time=1
14.380143 note_on channel=9 note=40 velocity=121 time=3
14.380143 note_on channel=9 note=42 velocity=64 time=0
14.4111346875 note_off channel=9 note=42 velocity=0 time=6
14.4111346875 note_off channel=9 note=40 velocity=0 time=0
14.5557625625 note_off channel=2 note=55 velocity=0 time=28
14.56092784375 note_off channel=2 note=59 velocity=0 time=1
14.571258406250001 note_off channel=0 note=67 velocity=0 time=2
14.571258406250001 note_off channel=1 note=43 velocity=0 time=0
14.58158896875 note_off channel=0 note=59 velocity=0 time=2
14.59191953125 note_off channel=0 note=55 velocity=0 time=2
14.5970848125 note_off channel=2 note=67 velocity=0 time=1
14.602250093750001 note_on channel=0 note=59 velocity=79 time=1
14.602250093750001 note_off channel=2 note=62 velocity=0 time=0
14.607415374999999 note_off channel=0 note=50 velocity=0 time=1
14.607415374999999 note_on channel=0 note=67 velocity=80 time=0
14.607415374999999 note_on channel=0 note=55 velocity=71 time=0
14.607415374999999 note_on channel=2 note=62 velocity=82 time=0
14.61258065625 note_on channel=2 note=67 velocity=84 time=1
14.61258065625 note_on channel=2 note=59 velocity=69 time=0
14.61258065625 note_on channel=2 note=55 velocity=52 time=0
14.6177459375 note_off channel=0 note=47 velocity=0 time=1
14.6177459375 note_on channel=0 note=50 velocity=58 time=0
14.62291121875 note_on channel=0 note=47 velocity=69 time=1
14.62291121875 note_on channel=9 note=35 velocity=105 time=0
14.6280765 note_on channel=1 note=43 velocity=110 time=1
14.633241781250002 note_on channel=9 note=42 velocity=61 time=1
14.65390290625 note_off channel=9 note=35 velocity=0 time=4
14.66423346875 note_off channel=9 note=42 velocity=0 time=2
14.814026625 note_off channel=0 note=67 velocity=0 time=29
14.814026625 note_off channel=0 note=55 velocity=0 time=0
14.8450183125 note_off channel=1 note=43 velocity=0 time=6
14.850183593750002 note_off channel=0 note=59 velocity=0 time=1
14.850183593750002 note_off channel=0 note=50 velocity=0 time=0
14.855348874999999 note_on channel=0 note=50 velocity=65 time=1
14.86051415625 note_on channel=0 note=55 velocity=66 time=1
14.8656794375 note_on channel=0 note=59 velocity=66 time=1
14.8656794375 note_on channel=0 note=67 velocity=49 time=0
14.88117528125 note_on channel=9 note=42 velocity=61 time=3
14.91216696875 note_off channel=9 note=42 velocity=0 time=6
15.067125406250002 note_off channel=2 note=55 velocity=0 time=30
15.08262125 note_off channel=0 note=67 velocity=0 time=3
15.09811709375 note_off channel=0 note=59 velocity=0 time=3
15.09811709375 note_on channel=0 note=67 velocity=72 time=0
15.103282375 note_on channel=0 note=59 velocity=73 time=1
15.103282375 note_off channel=2 note=59 velocity=0 time=0
15.103282375 note_off channel=2 note=67 velocity=0 time=0
15.103282375 note_off channel=2 note=62 velocity=0 time=0
15.12910878125 note_on channel=2 note=67 velocity=86 time=5
15.12910878125 note_on channel=2 note=62 velocity=81 time=0
15.12910878125 note_on channel=9 note=42 velocity=50 time=0
15.1342740625 note_on channel=2 note=59 velocity=74 time=1
15.1342740625 note_on channel=2 note=55 velocity=49 time=0
15.16010046875 note_off channel=9 note=42 velocity=0 time=5
15.309893625 note_off channel=0 note=59 velocity=0 time=29
15.309893625 note_off channel=0 note=50 velocity=0 time=0
15.330554750000001 note_off channel=2 note=67 velocity=0 time=4
15.34605059375 note_off channel=0 note=67 velocity=0 time=3
15.34605059375 note_off channel=2 note=55 velocity=0 time=0
15.351215875 note_off channel=0 note=55 velocity=0 time=1
15.35638115625 note_off channel=2 note=59 velocity=0 time=1
15.361546437500001 note_on channel=0 note=50 velocity=57 time=1
15.361546437500001 note_on channel=0 note=55 velocity=74 time=0
15.366711718749999 note_on channel=0 note=59 velocity=79 time=1
15.366711718749999 note_off channel=2 note=62 velocity=0 time=0
15.366711718749999 note_on channel=2 note=55 velocity=36 time=0
15.366711718749999 note_on channel=9 note=40 velocity=113 time=0
15.371877 note_on channel=0 note=67 velocity=74 time=1
15.371877 note_on channel=2 note=59 velocity=62 time=0
15.371877 note_on channel=2 note=62 velocity=80 time=0
15.37704228125 note_on channel=2 note=67 velocity=76 time=1
15.37704228125 note_on channel=9 note=42 velocity=66 time=0
15.397703406249999 note_off channel=9 note=40 velocity=0 time=4
15.40803396875 note_off channel=9 note=42 velocity=0 time=2
15.53200071875 note_off channel=0 note=47 velocity=0 time=24
15.537166 note_off channel=0 note=43 velocity=0 time=1
15.54233128125 note_off channel=0 note=67 velocity=0 time=1
15.609479937500002 note_off channel=2 note=67 velocity=0 time=13
15.614645218749999 note_off channel=2 note=62 velocity=0 time=1
15.6198105 note_off channel=2 note=59 velocity=0 time=1
15.6198105 note_on channel=2 note=67 velocity=84 time=0
15.6198105 note_on channel=2 note=62 velocity=80 time=0
15.6198105 note_on channel=9 note=42 velocity=54 time=0
15.62497578125 note_on channel=2 note=59 velocity=72 time=1
15.6508021875 note_off channel=9 note=42 velocity=0 time=5
15.75927309375 note_off channel=0 note=50 velocity=0 time=21
15.764438375000001 note_off channel=0 note=55 velocity=0 time=1
15.7747689375 note_on channel=2 note=48 velocity=66 time=2
15.8160911875 note_off channel=2 note=55 velocity=0 time=8
15.82125646875 note_off channel=2 note=67 velocity=0 time=1
15.826421750000002 note_on channel=0 note=48 velocity=69 time=1
15.826421750000002 note_off channel=2 note=62 velocity=0 time=0
15.826421750000002 note_off channel=2 note=59 velocity=0 time=0
15.831587031249999 note_on channel=0 note=42 velocity=33 time=1
15.831587031249999 note_on channel=4 note=76 velocity=92 time=0
15.8367523125 note_on channel=0 note=52 velocity=61 time=1
15.8367523125 control_change channel=4 control=1 value=0 time=0
15.8367523125 pitchwheel channel=4 pitch=0 time=0
15.84191759375 note_on channel=2 note=52 velocity=64 time=1
15.847082875 note_on channel=2 note=55 velocity=79 time=1
15.85224815625 note_on channel=0 note=55 velocity=71 time=1
15.8574134375 note_off channel=0 note=59 velocity=0 time=1
15.8574134375 note_on channel=0 note=60 velocity=78 time=0
15.8574134375 note_on channel=2 note=60 velocity=86 time=0
15.8574134375 note_on channel=3 note=72 velocity=115 time=0
15.86257871875 note_on channel=1 note=36 velocity=108 time=1
15.86257871875 note_on channel=2 note=67 velocity=86 time=0
15.86257871875 note_on channel=9 note=35 velocity=107 time=0
15.867744 note_on channel=0 note=67 velocity=78 time=1
15.867744 note_on channel=9 note=42 velocity=61 time=0
15.893570406250001 note_off channel=9 note=35 velocity=0 time=5
15.8987356875 note_off channel=9 note=42 velocity=0 time=1
15.94522321875 note_off channel=3 note=72 velocity=0 time=9
15.965884343749998 note_off channel=4 note=76 velocity=0 time=4
15.971049625000001 note_on channel=4 note=76 velocity=81 time=1
15.9813801875 note_on channel=3 note=72 velocity=105 time=2
16.0640246875 note_off channel=3 note=72 velocity=0 time=16
16.0640246875 note_off channel=4 note=76 velocity=0 time=0
16.07435525 note_on channel=4 note=76 velocity=83 time=2
16.084685812500002 note_off channel=2 note=52 velocity=0 time=2
16.08985109375 note_off channel=2 note=55 velocity=0 time=1
16.08985109375 note_off channel=2 note=67 velocity=0 time=0
16.10018165625 note_on channel=3 note=72 velocity=115 time=2
16.1053469375 note_off channel=0 note=60 velocity=0 time=1
16.1053469375 note_off channel=2 note=60 velocity=0 time=0
16.1053469375 note_on channel=2 note=67 velocity=86 time=0
16.110512218750003 note_on channel=2 note=60 velocity=84 time=1
16.110512218750003 note_on channel=9 note=42 velocity=49 time=0
16.1156775 note_off channel=0 note=67 velocity=0 time=1
16.1156775 note_on channel=2 note=55 velocity=63 time=0
16.120842781249998 note_on channel=0 note=67 velocity=82 time=1
16.120842781249998 note_on channel=2 note=52 velocity=31 time=0
16.126008062500002 note_on channel=0 note=60 velocity=81 time=1
16.14150390625 note_off channel=9 note=42 velocity=0 time=3
16.3119581875 note_off channel=2 note=60 velocity=0 time=33
16.327454031250003 note_off channel=2 note=52 velocity=0 time=3
16.327454031250003 note_off channel=4 note=76 velocity=0 time=0
16.327454031250003 note_on channel=4 note=74 velocity=69 time=0
16.342949875000002 note_off channel=2 note=55 velocity=0 time=3
16.34811515625 note_on channel=2 note=52 velocity=49 time=1
16.34811515625 note_off channel=3 note=72 velocity=0 time=0
16.34811515625 note_on channel=3 note=71 velocity=103 time=0
16.3532804375 note_on channel=2 note=55 velocity=58 time=1
16.3532804375 note_on channel=2 note=60 velocity=76 time=0
16.35844571875 note_off channel=2 note=67 velocity=0 time=1
16.363611 note_on channel=9 note=42 velocity=69 time=1
16.36877628125 note_on channel=2 note=67 velocity=49 time=1
16.36877628125 note_on channel=9 note=40 velocity=117 time=0
16.3739415625 note_off channel=0 note=60 velocity=0 time=1
16.3946026875 note_off channel=9 note=42 velocity=0 time=4
16.399767968749998 note_on channel=0 note=60 velocity=48 time=1
16.399767968749998 note_off channel=9 note=40 velocity=0 time=0
16.466916625 note_off channel=0 note=52 velocity=0 time=13
16.47208190625 note_off channel=0 note=48 velocity=0 time=1
16.48757775 note_off channel=0 note=42 velocity=0 time=3
16.549561125 note_off channel=2 note=48 velocity=0 time=12
16.554726406249998 note_off channel=0 note=60 velocity=0 time=1
16.559891687500002 note_off channel=2 note=60 velocity=0 time=1
16.57022225 note_off channel=2 note=52 velocity=0 time=2
16.57538753125 note_off channel=3 note=71 velocity=0 time=1
16.5805528125 note_off channel=4 note=74 velocity=0 time=1
16.5805528125 note_on channel=4 note=76 velocity=66 time=0
16.590883375 note_off channel=0 note=55 velocity=0 time=2
16.590883375 note_off channel=0 note=67 velocity=0 time=0
16.59604865625 note_off channel=2 note=55 velocity=0 time=1
16.6012139375 note_on channel=0 note=67 velocity=82 time=1
16.6012139375 note_off channel=1 note=36 velocity=0 time=0
16.6012139375 note_off channel=2 note=67 velocity=0 time=0
16.6012139375 note_on channel=3 note=72 velocity=104 time=0
16.60637921875 note_on channel=0 note=59 velocity=84 time=1
16.60637921875 note_on channel=1 note=43 velocity=111 time=0
16.60637921875 note_on channel=2 note=67 velocity=87 time=0
16.60637921875 note_on channel=9 note=35 velocity=110 time=0
16.60637921875 note_on channel=9 note=42 velocity=62 time=0
16.6115445 note_on channel=2 note=59 velocity=86 time=1
16.616709781249998 note_on channel=0 note=55 velocity=70 time=1
16.616709781249998 note_on channel=2 note=55 velocity=72 time=0
16.616709781249998 note_on channel=2 note=50 velocity=33 time=0
16.621875062500003 note_on channel=0 note=50 velocity=53 time=1
16.637370906250002 note_off channel=9 note=42 velocity=0 time=3
16.637370906250002 note_off channel=9 note=35 velocity=0 time=0
16.6425361875 note_on channel=0 note=47 velocity=53 time=1
16.64770146875 note_on channel=0 note=43 velocity=51 time=1
16.82332103125 note_off channel=0 note=55 velocity=0 time=34
16.849147437499997 note_off channel=0 note=67 velocity=0 time=5
16.854312718750002 note_off channel=0 note=59 velocity=0 time=1
16.854312718750002 note_on channel=9 note=42 velocity=61 time=0
16.86464328125 note_off channel=0 note=50 velocity=0 time=2
16.8698085625 note_on channel=0 note=50 velocity=56 time=1
16.8698085625 note_off channel=3 note=72 velocity=0 time=0
16.87497384375 note_on channel=3 note=71 velocity=101 time=1
16.880139125 note_on channel=0 note=55 velocity=58 time=1
16.880139125 note_off channel=1 note=43 velocity=0 time=0
16.88530440625 note_on channel=0 note=59 velocity=69 time=1
16.88530440625 note_off channel=9 note=42 velocity=0 time=0
16.8904696875 note_on channel=0 note=67 velocity=55 time=1
17.050593406249998 note_off channel=4 note=76 velocity=0 time=31
17.050593406249998 note_on channel=4 note=74 velocity=60 time=0
17.09191565625 note_off channel=2 note=59 velocity=0 time=8
17.09191565625 note_off channel=2 note=67 velocity=0 time=0
17.0970809375 note_off channel=0 note=67 velocity=0 time=1
17.0970809375 note_off channel=2 note=55 velocity=0 time=0
17.10224621875 note_on channel=2 note=67 velocity=87 time=1
17.10224621875 note_on channel=9 note=42 velocity=58 time=0
17.1074115 note_on channel=2 note=59 velocity=84 time=1
17.11257678125 note_off channel=0 note=59 velocity=0 time=1
17.11257678125 note_on channel=2 note=55 velocity=63 time=0
17.11257678125 note_off channel=3 note=71 velocity=0 time=0
17.1177420625 note_on channel=0 note=67 velocity=78 time=1
17.12290734375 note_on channel=0 note=59 velocity=76 time=1
17.133237906250002 note_off channel=9 note=42 velocity=0 time=2
17.334683875 note_off channel=0 note=47 velocity=0 time=39
17.334683875 note_off channel=2 note=50 velocity=0 time=0
17.345014437499998 note_off channel=2 note=55 velocity=0 time=2
17.350179718750002 note_off channel=2 note=59 velocity=0 time=1
17.350179718750002 note_on channel=2 note=50 velocity=60 time=0
17.350179718750002 note_on channel=2 note=55 velocity=83 time=0
17.355345 note_off channel=2 note=67 velocity=0 time=1
17.355345 note_on channel=2 note=59 velocity=83 time=0
17.355345 note_off channel=4 note=74 velocity=0 time=0
17.355345 note_on channel=9 note=42 velocity=70 time=0
17.360510281249997 note_on channel=2 note=67 velocity=85 time=1
17.360510281249997 note_on channel=9 note=40 velocity=123 time=0
17.3656755625 note_off channel=0 note=50 velocity=0 time=1
17.3656755625 note_off channel=0 note=55 velocity=0 time=0
17.3656755625 note_on channel=0 note=47 velocity=65 time=0
17.37084084375 note_off channel=0 note=59 velocity=0 time=1
17.37084084375 note_on channel=0 note=55 velocity=75 time=0
17.376006125 note_on channel=0 note=50 velocity=51 time=1
17.376006125 note_on channel=0 note=59 velocity=76 time=0
17.386336687500002 note_off channel=9 note=42 velocity=0 time=2
17.39150196875 note_off channel=9 note=40 velocity=0 time=1
17.54646040625 note_off channel=0 note=43 velocity=0 time=30
17.55679096875 note_off channel=0 note=47 velocity=0 time=2
17.582617375 note_off channel=0 note=67 velocity=0 time=5
17.5929479375 note_off channel=2 note=67 velocity=0 time=2
17.603278500000002 note_on channel=0 note=67 velocity=53 time=2
17.603278500000002 note_off channel=2 note=59 velocity=0 time=0
17.603278500000002 note_on channel=2 note=67 velocity=72 time=0
17.603278500000002 note_on channel=9 note=42 velocity=58 time=0
17.60844378125 note_on channel=2 note=59 velocity=71 time=1
17.6342701875 note_off channel=9 note=42 velocity=0 time=5
17.784063343750002 note_off channel=0 note=50 velocity=0 time=29
17.784063343750002 note_off channel=0 note=59 velocity=0 time=0
17.789228625 note_off channel=2 note=50 velocity=0 time=1
17.81505503125 note_on channel=4 note=76 velocity=89 time=5
17.82538559375 note_off channel=2 note=59 velocity=0 time=2
17.830550875 note_off channel=0 note=55 velocity=0 time=1
17.830550875 note_off channel=2 note=55 velocity=0 time=0
17.8408814375 note_on channel=0 note=48 velocity=69 time=2
17.8408814375 note_on channel=1 note=36 velocity=108 time=0
17.8408814375 note_off channel=2 note=67 velocity=0 time=0
17.8408814375 note_on channel=2 note=48 velocity=75 time=0
17.8408814375 note_on channel=2 note=55 velocity=73 time=0
17.8408814375 note_on channel=2 note=52 velocity=64 time=0
17.846046718750003 note_on channel=0 note=52 velocity=59 time=1
17.846046718750003 note_on channel=2 note=60 velocity=82 time=0
17.846046718750003 note_on channel=3 note=72 velocity=115 time=0
17.851212 note_off channel=0 note=67 velocity=0 time=1
17.851212 note_on channel=0 note=55 velocity=78 time=0
17.851212 note_on channel=2 note=67 velocity=78 time=0
17.851212 note_on channel=9 note=42 velocity=61 time=0
17.856377281249998 note_on channel=0 note=60 velocity=80 time=1
17.856377281249998 note_on channel=9 note=35 velocity=110 time=0
17.861542562500002 note_on channel=0 note=67 velocity=75 time=1
17.8822036875 note_off channel=9 note=42 velocity=0 time=4
17.88736896875 note_off channel=9 note=35 velocity=0 time=1
17.9441870625 note_off channel=3 note=72 velocity=0 time=11
17.954517625 note_off channel=4 note=76 velocity=0 time=2
17.95968290625 note_on channel=4 note=76 velocity=81 time=1
17.9648481875 note_on channel=3 note=72 velocity=105 time=1
18.04232740625 note_off channel=0 note=48 velocity=0 time=15
18.04232740625 note_off channel=3 note=72 velocity=0 time=0
18.0474926875 note_off channel=2 note=60 velocity=0 time=1
18.062988531250003 note_off channel=4 note=76 velocity=0 time=3
18.078484375000002 note_off channel=0 note=67 velocity=0 time=3
18.078484375000002 note_on channel=3 note=72 velocity=115 time=0
18.078484375000002 note_on channel=4 note=76 velocity=81 time=0
18.08364965625 note_off channel=0 note=60 velocity=0 time=1
18.08364965625 note_off channel=2 note=55 velocity=0 time=0
18.0888149375 note_on channel=0 note=67 velocity=80 time=1
18.0888149375 note_off channel=2 note=67 velocity=0 time=0
18.09398021875 note_on channel=0 note=60 velocity=72 time=1
18.09398021875 note_on channel=2 note=67 velocity=83 time=0
18.0991455 note_on channel=2 note=60 velocity=83 time=1
18.10431078125 note_on channel=2 note=55 velocity=59 time=1
18.10431078125 note_on channel=9 note=42 velocity=57 time=0
18.1094760625 note_on channel=0 note=48 velocity=62 time=1
18.1094760625 note_off channel=1 note=36 velocity=0 time=0
18.1094760625 note_on channel=1 note=38 velocity=110 time=0
18.135302468749998 note_off channel=9 note=42 velocity=0 time=5
18.290260906249998 note_off channel=1 note=38 velocity=0 time=30
18.326417875 note_off channel=0 note=48 velocity=0 time=7
18.326417875 note_off channel=3 note=72 velocity=0 time=0
18.326417875 note_on channel=3 note=71 velocity=103 time=0
18.33158315625 note_off channel=2 note=55 velocity=0 time=1
18.33158315625 note_off channel=2 note=48 velocity=0 time=0
18.3367484375 note_off channel=0 note=52 velocity=0 time=1
18.3367484375 note_off channel=2 note=52 velocity=0 time=0
18.3367484375 note_on channel=2 note=48 velocity=58 time=0
18.34191371875 note_off channel=0 note=60 velocity=0 time=1
18.34191371875 note_off channel=2 note=60 velocity=0 time=0
18.34191371875 note_on channel=2 note=52 velocity=69 time=0
18.34191371875 note_on channel=2 note=55 velocity=84 time=0
18.347079 note_on channel=2 note=60 velocity=84 time=1
18.347079 note_off channel=4 note=76 velocity=0 time=0
18.347079 note_on channel=4 note=74 velocity=72 time=0
18.347079 note_on channel=9 note=40 velocity=113 time=0
18.347079 note_on channel=9 note=42 velocity=65 time=0
18.3780706875 note_off channel=9 note=42 velocity=0 time=6
18.3780706875 note_off channel=9 note=40 velocity=0 time=0
18.55885553125 note_off channel=2 note=60 velocity=0 time=35
18.5640208125 note_off channel=0 note=67 velocity=0 time=1
18.569186093749998 note_off channel=2 note=52 velocity=0 time=1
18.574351375000003 note_off channel=2 note=48 velocity=0 time=1
18.57951665625 note_off channel=0 note=55 velocity=0 time=1
18.57951665625 note_on channel=0 note=67 velocity=79 time=0
18.584681937499997 note_on channel=0 note=59 velocity=83 time=1
18.584681937499997 note_off channel=3 note=71 velocity=0 time=0
18.584681937499997 note_on channel=3 note=72 velocity=103 time=0
18.589847218750002 note_on channel=0 note=55 velocity=72 time=1
18.589847218750002 note_off channel=2 note=55 velocity=0 time=0
18.5950125 note_off channel=2 note=67 velocity=0 time=1
18.5950125 note_on channel=9 note=42 velocity=62 time=0
18.60017778125 note_on channel=2 note=67 velocity=86 time=1
18.60017778125 note_on channel=2 note=59 velocity=83 time=0
18.6053430625 note_on channel=0 note=47 velocity=66 time=1
18.6053430625 note_on channel=0 note=50 velocity=49 time=0
18.6053430625 note_on channel=2 note=55 velocity=57 time=0
18.6053430625 note_on channel=2 note=50 velocity=34 time=0
18.6053430625 note_off channel=4 note=74 velocity=0 time=0
18.6053430625 note_on channel=4 note=76 velocity=65 time=0
18.6053430625 note_on channel=9 note=35 velocity=105 time=0
18.61050834375 note_on channel=0 note=43 velocity=58 time=1
18.61050834375 note_on channel=1 note=31 velocity=107 time=0
18.6260041875 note_off channel=9 note=42 velocity=0 time=3
18.63633475 note_off channel=9 note=35 velocity=0 time=2
18.842946 note_on channel=9 note=42 velocity=58 time=40
18.8739376875 note_off channel=9 note=42 velocity=0 time=6
19.03406140625 note_off channel=0 note=67 velocity=0 time=31
19.04955725 note_off channel=2 note=67 velocity=0 time=3
19.05472253125 note_off channel=2 note=59 velocity=0 time=1
19.080548937499998 note_off channel=0 note=59 velocity=0 time=5
19.080548937499998 note_on channel=0 note=67 velocity=82 time=0
19.080548937499998 note_off channel=3 note=72 velocity=0 time=0
19.080548937499998 note_on channel=3 note=71 velocity=73 time=0
19.085714218750002 note_off channel=0 note=55 velocity=0 time=1
19.085714218750002 note_on channel=0 note=59 velocity=78 time=0
19.085714218750002 note_off channel=4 note=76 velocity=0 time=0
19.085714218750002 note_on channel=4 note=74 velocity=67 time=0
19.0908795 note_off channel=0 note=50 velocity=0 time=1
19.0908795 note_on channel=0 note=55 velocity=64 time=0
19.096044781249997 note_on channel=2 note=67 velocity=86 time=1
19.096044781249997 note_on channel=9 note=42 velocity=52 time=0
19.1012100625 note_on channel=0 note=50 velocity=41 time=1
19.1012100625 note_on channel=2 note=59 velocity=81 time=0
19.10637534375 note_off channel=2 note=55 velocity=0 time=1
19.111540625 note_on channel=2 note=55 velocity=53 time=1
19.12703646875 note_off channel=9 note=42 velocity=0 time=3
19.297490749999998 note_off channel=0 note=43 velocity=0 time=33
19.297490749999998 note_off channel=0 note=55 velocity=0 time=0
19.302656031250002 note_off channel=2 note=67 velocity=0 time=1
19.318151875 note_off channel=0 note=50 velocity=0 time=3
19.32331715625 note_off channel=0 note=67 velocity=0 time=1
19.32331715625 note_off channel=3 note=71 velocity=0 time=0
19.3284824375 note_on channel=0 note=43 velocity=46 time=1
19.3284824375 note_off channel=2 note=50 velocity=0 time=0
19.33364771875 note_off channel=0 note=59 velocity=0 time=1
19.33364771875 note_on channel=0 note=50 velocity=53 time=0
19.33364771875 note_off channel=2 note=55 velocity=0 time=0
19.338813000000002 note_on channel=0 note=55 velocity=61 time=1
19.338813000000002 note_on channel=0 note=59 velocity=74 time=0
19.338813000000002 note_on channel=2 note=50 velocity=53 time=0
19.338813000000002 note_off channel=4 note=74 velocity=0 time=0
19.338813000000002 note_on channel=9 note=40 velocity=111 time=0
19.338813000000002 note_on channel=9 note=42 velocity=66 time=0
19.34397828125 note_off channel=1 note=31 velocity=0 time=1
19.34397828125 note_off channel=2 note=59 velocity=0 time=0
19.34397828125 note_on channel=2 note=55 velocity=78 time=0
19.3491435625 note_on channel=0 note=67 velocity=69 time=1
19.3491435625 note_on channel=2 note=59 velocity=89 time=0
19.3491435625 note_on channel=2 note=67 velocity=87 time=0
19.3698046875 note_off channel=9 note=42 velocity=0 time=4
19.3698046875 note_off channel=9 note=40 velocity=0 time=0
19.54542425 note_off channel=0 note=59 velocity=0 time=34
19.5764159375 note_off channel=0 note=67 velocity=0 time=6
19.5764159375 note_off channel=2 note=67 velocity=0 time=0
19.581581218750003 note_on channel=0 note=67 velocity=57 time=1
19.5867465 note_on channel=9 note=42 velocity=49 time=1
19.591911781249998 note_off channel=0 note=43 velocity=0 time=1
19.591911781249998 note_on channel=0 note=59 velocity=65 time=0
19.591911781249998 note_off channel=2 note=59 velocity=0 time=0
19.597077062500002 note_off channel=0 note=47 velocity=0 time=1
19.597077062500002 note_on channel=2 note=67 velocity=63 time=0
19.597077062500002 note_on channel=2 note=59 velocity=65 time=0
19.6177381875 note_off channel=9 note=42 velocity=0 time=4
19.79335775 note_off channel=2 note=59 velocity=0 time=34
19.798523031250003 note_off channel=0 note=50 velocity=0 time=1
19.798523031250003 note_off channel=0 note=59 velocity=0 time=0
19.8036883125 note_off channel=2 note=50 velocity=0 time=1
19.8243494375 note_off channel=0 note=55 velocity=0 time=4
19.8243494375 note_on channel=0 note=48 velocity=67 time=0
19.8243494375 note_on channel=1 note=36 velocity=106 time=0
19.8243494375 note_on channel=4 note=76 velocity=92 time=0
19.8243494375 note_on channel=9 note=42 velocity=63 time=0
19.82951471875 note_off channel=0 note=67 velocity=0 time=1
19.82951471875 note_on channel=0 note=52 velocity=62 time=0
19.82951471875 note_on channel=0 note=55 velocity=80 time=0
19.82951471875 note_off channel=2 note=55 velocity=0 time=0
19.82951471875 note_on channel=3 note=72 velocity=115 time=0
19.83468 note_on channel=2 note=48 velocity=64 time=1
19.83468 note_on channel=9 note=35 velocity=107 time=0
19.83984528125 note_on channel=0 note=60 velocity=83 time=1
19.83984528125 note_off channel=2 note=67 velocity=0 time=0
19.83984528125 note_on channel=2 note=55 velocity=82 time=0
19.83984528125 note_on channel=2 note=52 velocity=65 time=0
19.83984528125 note_on channel=2 note=60 velocity=84 time=0
19.8450105625 note_on channel=0 note=67 velocity=76 time=1
19.8450105625 note_on channel=2 note=67 velocity=84 time=0
19.855341125 note_off channel=9 note=42 velocity=0 time=2
19.8656716875 note_off channel=9 note=35 velocity=0 time=2
19.9173245 note_off channel=3 note=72 velocity=0 time=10
19.953481468750002 note_on channel=3 note=72 velocity=110 time=7
19.95864675 note_off channel=4 note=76 velocity=0 time=1
19.963812031249997 note_on channel=4 note=76 velocity=81 time=1
20.020630125 note_off channel=4 note=76 velocity=0 time=11
20.025795406249998 note_off channel=3 note=72 velocity=0 time=1
20.061952375 note_off channel=0 note=67 velocity=0 time=7
20.061952375 note_off channel=2 note=67 velocity=0 time=0
20.0722829375 note_on channel=0 note=67 velocity=79 time=2
20.0722829375 note_on channel=3 note=72 velocity=115 time=0
20.07744821875 note_off channel=0 note=60 velocity=0 time=1
20.07744821875 note_off channel=2 note=60 velocity=0 time=0
20.07744821875 note_off channel=2 note=48 velocity=0 time=0
20.07744821875 note_on channel=4 note=76 velocity=79 time=0
20.0826135 note_on channel=0 note=60 velocity=75 time=1
20.0826135 note_on channel=2 note=60 velocity=78 time=0
20.0826135 note_on channel=2 note=67 velocity=77 time=0
20.0826135 note_on channel=9 note=42 velocity=52 time=0
20.092944062500003 note_on channel=2 note=48 velocity=54 time=2
20.1136051875 note_off channel=9 note=42 velocity=0 time=4
20.2995553125 note_off channel=2 note=52 velocity=0 time=36
20.304720593749998 note_off channel=2 note=55 velocity=0 time=1
20.309885875000003 note_off channel=2 note=60 velocity=0 time=1
20.31505115625 note_off channel=2 note=67 velocity=0 time=1
20.31505115625 note_on channel=2 note=52 velocity=38 time=0
20.31505115625 note_off channel=3 note=72 velocity=0 time=0
20.31505115625 note_on channel=3 note=71 velocity=109 time=0
20.31505115625 note_off channel=4 note=76 velocity=0 time=0
20.31505115625 note_on channel=4 note=74 velocity=79 time=0
20.320216437499997 note_on channel=2 note=55 velocity=83 time=1
20.320216437499997 note_on channel=2 note=60 velocity=85 time=0
20.320216437499997 note_on channel=9 note=40 velocity=113 time=0
20.325381718750002 note_on channel=2 note=67 velocity=85 time=1
20.325381718750002 note_on channel=9 note=42 velocity=66 time=0
20.34604284375 note_off channel=0 note=55 velocity=0 time=4
20.34604284375 note_off channel=0 note=52 velocity=0 time=0
20.351208125 note_on channel=0 note=59 velocity=35 time=1
20.351208125 note_off channel=9 note=40 velocity=0 time=0
20.35637340625 note_off channel=9 note=42 velocity=0 time=1
20.36670396875 note_off channel=0 note=67 velocity=0 time=2
20.36670396875 note_off channel=0 note=60 velocity=0 time=0
20.37186925 note_off channel=0 note=48 velocity=0 time=1
20.51133184375 note_off channel=2 note=48 velocity=0 time=27
20.521662406249998 note_off channel=2 note=55 velocity=0 time=2
20.526827687500003 note_off channel=2 note=60 velocity=0 time=1
20.537158249999997 note_off channel=2 note=52 velocity=0 time=2
20.5474888125 note_off channel=0 note=59 velocity=0 time=2
20.55265409375 note_off channel=4 note=74 velocity=0 time=1
20.55265409375 note_on channel=4 note=76 velocity=75 time=0
20.5681499375 note_on channel=0 note=59 velocity=82 time=3
20.5681499375 note_off channel=1 note=36 velocity=0 time=0
20.5681499375 note_on channel=1 note=43 velocity=113 time=0
20.5681499375 note_off channel=2 note=67 velocity=0 time=0
20.57331521875 note_on channel=0 note=67 velocity=83 time=1
20.57331521875 note_on channel=2 note=67 velocity=85 time=0
20.57331521875 note_on channel=2 note=59 velocity=85 time=0
20.57331521875 note_off channel=3 note=71 velocity=0 time=0
20.57331521875 note_on channel=3 note=72 velocity=108 time=0
20.57331521875 note_on channel=9 note=42 velocity=58 time=0
20.5784805 note_on channel=0 note=55 velocity=82 time=1
20.5784805 note_on channel=2 note=55 velocity=74 time=0
20.5784805 note_on channel=9 note=35 velocity=110 time=0
20.58364578125 note_on channel=0 note=50 velocity=69 time=1
20.58364578125 note_on channel=2 note=50 velocity=41 time=0
20.599141624999998 note_on channel=0 note=43 velocity=63 time=3
20.604306906250002 note_on channel=0 note=47 velocity=69 time=1
20.604306906250002 note_off channel=9 note=42 velocity=0 time=0
20.6094721875 note_off channel=9 note=35 velocity=0 time=1
20.743769500000003 note_off channel=1 note=43 velocity=0 time=26
20.81091815625 note_on channel=3 note=71 velocity=98 time=13
20.821248718750002 note_on channel=9 note=42 velocity=62 time=2
20.84190984375 note_off channel=3 note=72 velocity=0 time=4
20.85224040625 note_off channel=9 note=42 velocity=0 time=2
20.9813724375 note_off channel=2 note=67 velocity=0 time=25
21.033025249999998 note_off channel=2 note=50 velocity=0 time=10
21.033025249999998 note_off channel=4 note=76 velocity=0 time=0
21.033025249999998 note_on channel=4 note=74 velocity=69 time=0
21.053686375 note_off channel=0 note=67 velocity=0 time=4
21.053686375 note_on channel=1 note=42 velocity=111 time=0
21.05885165625 note_off channel=3 note=71 velocity=0 time=1
21.0640169375 note_off channel=0 note=59 velocity=0 time=1
21.0640169375 note_off channel=0 note=47 velocity=0 time=0
21.0640169375 note_on channel=0 note=67 velocity=69 time=0
21.06918221875 note_off channel=0 note=55 velocity=0 time=1
21.06918221875 note_on channel=0 note=59 velocity=76 time=0
21.06918221875 note_on channel=2 note=67 velocity=86 time=0
21.06918221875 note_on channel=9 note=42 velocity=62 time=0
21.074347500000002 note_off channel=2 note=59 velocity=0 time=1
21.07951278125 note_on channel=0 note=55 velocity=68 time=1
21.07951278125 note_on channel=2 note=59 velocity=86 time=0
21.0846780625 note_on channel=0 note=47 velocity=56 time=1
21.0846780625 note_on channel=2 note=50 velocity=42 time=0
21.08984334375 note_on channel=3 note=69 velocity=102 time=1
21.095008625 note_off channel=0 note=43 velocity=0 time=1
21.100173906250003 note_on channel=0 note=43 velocity=46 time=1
21.100173906250003 note_off channel=9 note=42 velocity=0 time=0
21.27579346875 note_off channel=2 note=67 velocity=0 time=34
21.28095875 note_off channel=2 note=59 velocity=0 time=1
21.28612403125 note_off channel=4 note=74 velocity=0 time=1
21.28612403125 note_on channel=4 note=72 velocity=75 time=0
21.301619875 note_off channel=0 note=47 velocity=0 time=3
21.301619875 note_off channel=2 note=50 velocity=0 time=0
21.30678515625 note_off channel=0 note=67 velocity=0 time=1
21.3119504375 note_off channel=1 note=42 velocity=0 time=1
21.3119504375 note_on channel=1 note=43 velocity=108 time=0
21.3119504375 note_off channel=2 note=55 velocity=0 time=0
21.317115718750003 note_off channel=0 note=55 velocity=0 time=1
21.317115718750003 note_on channel=0 note=47 velocity=50 time=0
21.317115718750003 note_on channel=2 note=50 velocity=58 time=0
21.317115718750003 note_on channel=9 note=40 velocity=115 time=0
21.317115718750003 note_on channel=9 note=42 velocity=68 time=0
21.322281 note_on channel=0 note=55 velocity=70 time=1
21.322281 note_on channel=2 note=55 velocity=82 time=0
21.327446281249998 note_off channel=0 note=59 velocity=0 time=1
21.327446281249998 note_on channel=2 note=59 velocity=88 time=0
21.332611562500002 note_on channel=0 note=59 velocity=73 time=1
21.332611562500002 note_on channel=0 note=67 velocity=69 time=0
21.332611562500002 note_on channel=2 note=67 velocity=82 time=0
21.332611562500002 note_off channel=3 note=69 velocity=0 time=0
21.342942125 note_on channel=3 note=67 velocity=99 time=2
21.34810740625 note_off channel=9 note=42 velocity=0 time=1
21.34810740625 note_off channel=9 note=40 velocity=0 time=0
21.508231125000002 note_off channel=4 note=72 velocity=0 time=31
21.508231125000002 note_on channel=4 note=71 velocity=69 time=0
21.52889225 note_off channel=0 note=55 velocity=0 time=4
21.534057531250003 note_off channel=0 note=50 velocity=0 time=1
21.534057531250003 note_off channel=1 note=43 velocity=0 time=0
21.5392228125 note_off channel=0 note=67 velocity=0 time=1
21.5392228125 note_off channel=2 note=67 velocity=0 time=0
21.5598839375 note_off channel=0 note=47 velocity=0 time=4
21.5598839375 note_off channel=0 note=59 velocity=0 time=0
21.5598839375 note_on channel=0 note=67 velocity=56 time=0
21.5598839375 note_off channel=2 note=59 velocity=0 time=0
21.56504921875 note_on channel=0 note=59 velocity=65 time=1
21.56504921875 note_on channel=2 note=67 velocity=75 time=0
21.56504921875 note_on channel=9 note=42 velocity=52 time=0
21.5702145 note_off channel=2 note=55 velocity=0 time=1
21.5702145 note_on channel=2 note=59 velocity=76 time=0
21.57537978125 note_on channel=0 note=55 velocity=52 time=1
21.57537978125 note_on channel=2 note=55 velocity=60 time=0
21.5805450625 note_on channel=0 note=50 velocity=26 time=1
21.590875625 note_on channel=0 note=47 velocity=54 time=2
21.59604090625 note_off channel=3 note=67 velocity=0 time=1
21.59604090625 note_off channel=9 note=42 velocity=0 time=0
21.6631895625 note_off channel=2 note=67 velocity=0 time=13
21.6631895625 note_on channel=3 note=71 velocity=97 time=0
21.683850687499998 note_off channel=2 note=55 velocity=0 time=4
21.7045118125 note_off channel=0 note=43 velocity=0 time=4
21.714842375 note_off channel=2 note=50 velocity=0 time=2
21.756164625 note_off channel=2 note=59 velocity=0 time=8
21.7871563125 note_off channel=0 note=67 velocity=0 time=6
21.797486875 note_off channel=4 note=71 velocity=0 time=2
21.797486875 note_on channel=4 note=74 velocity=65 time=0
21.80265215625 note_on channel=1 note=45 velocity=113 time=1
21.80265215625 note_on channel=9 note=40 velocity=83 time=0
21.81298271875 note_on channel=2 note=45 velocity=80 time=2
21.818148 note_off channel=0 note=47 velocity=0 time=1
21.818148 note_on channel=9 note=35 velocity=94 time=0
21.83364384375 note_off channel=9 note=40 velocity=0 time=3
21.838809124999997 note_off channel=0 note=55 velocity=0 time=1
21.838809124999997 note_on channel=2 note=57 velocity=52 time=0
21.838809124999997 note_on channel=2 note=52 velocity=75 time=0
21.8491396875 note_off channel=0 note=59 velocity=0 time=2
21.8491396875 note_off channel=9 note=35 velocity=0 time=0
21.8698008125 note_off channel=0 note=50 velocity=0 time=4
21.9111230625 note_off channel=3 note=71 velocity=0 time=8
22.02992453125 note_off channel=2 note=57 velocity=0 time=23
22.040255093749998 note_off channel=2 note=45 velocity=0 time=2
22.040255093749998 note_off channel=2 note=52 velocity=0 time=0
22.05058565625 note_on channel=0 note=45 velocity=43 time=2
22.055750937499997 note_on channel=2 note=45 velocity=68 time=1
22.0660815 note_on channel=2 note=52 velocity=69 time=2
22.0660815 note_on channel=3 note=69 velocity=97 time=0
22.07124678125 note_on channel=0 note=52 velocity=24 time=1
22.0764120625 note_on channel=2 note=57 velocity=65 time=1
22.08157734375 note_on channel=0 note=57 velocity=33 time=1
22.08157734375 note_off channel=4 note=74 velocity=0 time=0
22.0970731875 note_on channel=4 note=73 velocity=38 time=3
22.28818859375 note_off channel=2 note=45 velocity=0 time=37
22.29851915625 note_off channel=2 note=52 velocity=0 time=2
22.3036844375 note_off channel=0 note=57 velocity=0 time=1
22.3036844375 note_off channel=0 note=52 velocity=0 time=0
22.3036844375 note_off channel=2 note=57 velocity=0 time=0
22.3036844375 note_on channel=2 note=45 velocity=76 time=0
22.30884971875 note_on channel=0 note=52 velocity=38 time=1
22.30884971875 note_on channel=2 note=52 velocity=78 time=0
22.314015 note_on channel=2 note=57 velocity=81 time=1
22.31918028125 note_on channel=0 note=57 velocity=43 time=1
22.5309568125 note_off channel=2 note=45 velocity=0 time=41
22.541287375 note_off channel=0 note=45 velocity=0 time=2
22.541287375 note_off channel=2 note=57 velocity=0 time=0
22.54645265625 note_off channel=0 note=57 velocity=0 time=1
22.54645265625 note_on channel=0 note=45 velocity=46 time=0
22.54645265625 note_off channel=2 note=52 velocity=0 time=0
22.54645265625 note_on channel=2 note=45 velocity=80 time=0
22.551617937499998 note_on channel=2 note=52 velocity=83 time=1
22.556783218750002 note_on channel=0 note=57 velocity=58 time=1
22.56711378125 note_on channel=2 note=57 velocity=80 time=2
22.5722790625 note_on channel=0 note=61 velocity=45 time=1
22.768559749999998 note_off channel=0 note=45 velocity=0 time=38
22.773725031250002 note_off channel=2 note=57 velocity=0 time=1
22.7788903125 note_off channel=0 note=52 velocity=0 time=1
22.78405559375 note_off channel=2 note=45 velocity=0 time=1
22.789220875 note_off channel=0 note=57 velocity=0 time=1
22.79438615625 note_off channel=0 note=61 velocity=0 time=1
22.79438615625 note_on channel=0 note=52 velocity=41 time=0
22.79438615625 note_off channel=2 note=52 velocity=0 time=0
22.79438615625 note_on channel=2 note=45 velocity=92 time=0
22.7995514375 note_on channel=0 note=57 velocity=65 time=1
22.7995514375 note_on channel=2 note=52 velocity=82 time=0
22.80471671875 note_on channel=0 note=61 velocity=75 time=1
22.80471671875 note_on channel=2 note=57 velocity=86 time=0
22.809882 note_on channel=6 note=57 velocity=47 time=1
22.81504728125 control_change channel=6 control=1 value=0 time=1
22.81504728125 pitchwheel channel=6 pitch=0 time=0
22.89769178125 note_off channel=6 note=57 velocity=0 time=16
22.995832125 note_off channel=0 note=52 velocity=0 time=19
23.03198909375 note_off channel=2 note=57 velocity=0 time=7
23.037154375 note_off channel=2 note=52 velocity=0 time=1
23.037154375 note_off channel=2 note=45 velocity=0 time=0
23.04231965625 note_off channel=0 note=57 velocity=0 time=1
23.04231965625 note_on channel=0 note=52 velocity=45 time=0
23.04231965625 note_on channel=2 note=45 velocity=87 time=0
23.0474849375 note_off channel=0 note=61 velocity=0 time=1
23.0474849375 note_on channel=0 note=57 velocity=57 time=0
23.0474849375 note_on channel=2 note=52 velocity=88 time=0
23.052650218750003 note_on channel=0 note=61 velocity=43 time=1
23.052650218750003 note_on channel=2 note=57 velocity=88 time=0
23.052650218750003 note_on channel=6 note=57 velocity=45 time=0
23.15595584375 note_off channel=6 note=57 velocity=0 time=20
23.243765625 note_off channel=0 note=52 velocity=0 time=17
23.25926146875 note_off channel=0 note=61 velocity=0 time=3
23.2747573125 note_off channel=2 note=57 velocity=0 time=3
23.279922593749998 note_off channel=2 note=45 velocity=0 time=1
23.285087875000002 note_off channel=2 note=52 velocity=0 time=1
23.285087875000002 note_on channel=2 note=45 velocity=100 time=0
23.29025315625 note_on channel=0 note=45 velocity=46 time=1
23.29025315625 note_on channel=0 note=52 velocity=55 time=0
23.29025315625 note_on channel=2 note=52 velocity=95 time=0
23.2954184375 note_off channel=0 note=57 velocity=0 time=1
23.30058371875 note_on channel=0 note=57 velocity=56 time=1
23.30058371875 note_on channel=2 note=57 velocity=92 time=0
23.30058371875 note_on channel=6 note=57 velocity=54 time=0
23.305749 note_on channel=0 note=61 velocity=38 time=1
23.32124484375 note_off channel=3 note=69 velocity=0 time=3
23.419385187499998 note_off channel=4 note=73 velocity=0 time=19
23.419385187499998 note_off channel=6 note=57 velocity=0 time=0
23.52785609375 note_off channel=2 note=45 velocity=0 time=21
23.533021375 note_off channel=2 note=52 velocity=0 time=1
23.533021375 note_on channel=2 note=45 velocity=101 time=0
23.53818665625 note_off channel=0 note=52 velocity=0 time=1
23.53818665625 note_off channel=2 note=57 velocity=0 time=0
23.53818665625 note_on channel=2 note=52 velocity=92 time=0
23.5433519375 note_off channel=0 note=57 velocity=0 time=1
23.5433519375 note_on channel=0 note=52 velocity=51 time=0
23.5433519375 note_on channel=2 note=57 velocity=88 time=0
23.54851721875 note_off channel=0 note=61 velocity=0 time=1
23.54851721875 note_on channel=0 note=57 velocity=58 time=0
23.54851721875 note_on channel=6 note=57 velocity=60 time=0
23.558847781249998 note_on channel=0 note=61 velocity=51 time=2
23.6053353125 note_off channel=1 note=45 velocity=0 time=9
23.6879798125 note_off channel=6 note=57 velocity=0 time=16
23.75512846875 note_off channel=0 note=45 velocity=0 time=13
23.7706243125 note_off channel=2 note=45 velocity=0 time=3
23.775789593749998 note_off channel=0 note=57 velocity=0 time=1
23.775789593749998 note_off channel=2 note=52 velocity=0 time=0
23.775789593749998 note_off channel=2 note=57 velocity=0 time=0
23.780954875000003 note_on channel=0 note=45 velocity=42 time=1
23.780954875000003 note_on channel=2 note=45 velocity=102 time=0
23.780954875000003 note_on channel=2 note=52 velocity=98 time=0
23.78612015625 note_off channel=0 note=61 velocity=0 time=1
23.791285437499997 note_on channel=0 note=57 velocity=64 time=1
23.791285437499997 note_on channel=6 note=57 velocity=68 time=0
23.796450718750002 note_on channel=0 note=61 velocity=67 time=1
23.796450718750002 note_on channel=1 note=45 velocity=97 time=0
23.796450718750002 note_on channel=2 note=57 velocity=102 time=0
23.801616 note_on channel=9 note=40 velocity=75 time=1
23.80678128125 note_on channel=7 note=45 velocity=46 time=1
23.8119465625 control_change channel=7 control=1 value=0 time=1
23.8119465625 pitchwheel channel=7 pitch=0 time=0
23.8326076875 note_off channel=9 note=40 velocity=0 time=4
23.904921625 note_off channel=1 note=45 velocity=0 time=14
23.935913312500002 note_off channel=7 note=45 velocity=0 time=6
23.95140915625 note_off channel=6 note=57 velocity=0 time=3
23.997896687500003 note_off channel=0 note=57 velocity=0 time=9
24.00306196875 note_off channel=2 note=52 velocity=0 time=1
24.02372309375 note_off channel=0 note=45 velocity=0 time=4
24.028888375 note_off channel=2 note=45 velocity=0 time=1
24.03405365625 note_on channel=2 note=45 velocity=94 time=1
24.03405365625 note_on channel=2 note=52 velocity=88 time=0
24.0392189375 note_off channel=2 note=57 velocity=0 time=1
24.04438421875 note_on channel=0 note=57 velocity=46 time=1
24.04438421875 note_on channel=0 note=45 velocity=58 time=0
24.04438421875 note_on channel=1 note=45 velocity=97 time=0
24.04438421875 note_on channel=6 note=57 velocity=81 time=0
24.0495495 note_on channel=2 note=57 velocity=89 time=1
24.0495495 note_on channel=9 note=40 velocity=69 time=0
24.075375906250002 note_on channel=7 note=45 velocity=34 time=5
24.0805411875 note_off channel=9 note=40 velocity=0 time=1
24.147689843749998 note_off channel=1 note=45 velocity=0 time=13
24.209673218749998 note_off channel=6 note=57 velocity=0 time=12
24.214838500000003 note_off channel=7 note=45 velocity=0 time=1
24.2664913125 note_off channel=0 note=45 velocity=0 time=10
24.27165659375 note_off channel=2 note=45 velocity=0 time=1
24.27165659375 note_off channel=2 note=52 velocity=0 time=0
24.276821875 note_off channel=0 note=52 velocity=0 time=1
24.276821875 note_off channel=2 note=57 velocity=0 time=0
24.28198715625 note_off channel=0 note=57 velocity=0 time=1
24.28198715625 note_on channel=0 note=45 velocity=58 time=0
24.28198715625 note_on channel=0 note=52 velocity=69 time=0
24.287152437499998 note_on channel=0 note=57 velocity=72 time=1
24.287152437499998 note_on channel=2 note=45 velocity=95 time=0
24.292317718750002 note_off channel=0 note=61 velocity=0 time=1
24.292317718750002 note_on channel=1 note=45 velocity=99 time=0
24.292317718750002 note_on channel=2 note=52 velocity=90 time=0
24.292317718750002 note_on channel=6 note=57 velocity=81 time=0
24.297483 note_on channel=2 note=57 velocity=92 time=1
24.30264828125 note_on channel=9 note=40 velocity=78 time=1
24.3078135625 note_on channel=7 note=45 velocity=42 time=1
24.31297884375 note_on channel=0 note=61 velocity=51 time=1
24.33363996875 note_off channel=9 note=40 velocity=0 time=4
24.39562334375 note_off channel=1 note=45 velocity=0 time=12
24.42144975 note_off channel=7 note=45 velocity=0 time=5
24.447276156250002 note_off channel=6 note=57 velocity=0 time=5
24.4937636875 note_off channel=2 note=52 velocity=0 time=9
24.524755375 note_off channel=0 note=52 velocity=0 time=6
24.52992065625 note_on channel=7 note=45 velocity=62 time=1
24.5350859375 note_off channel=0 note=57 velocity=0 time=1
24.5350859375 note_on channel=1 note=45 velocity=107 time=0
24.5350859375 note_off channel=2 note=45 velocity=0 time=0
24.54025121875 note_on channel=2 note=45 velocity=79 time=1
24.54025121875 note_on channel=6 note=57 velocity=90 time=0
24.5454165 note_off channel=2 note=57 velocity=0 time=1
24.5454165 note_on channel=2 note=52 velocity=78 time=0
24.55058178125 note_on channel=0 note=52 velocity=45 time=1
24.55058178125 note_on channel=2 note=57 velocity=82 time=0
24.55058178125 note_on channel=9 note=40 velocity=90 time=0
24.5557470625 note_on channel=0 note=57 velocity=62 time=1
24.581573468749998 note_off channel=9 note=40 velocity=0 time=5
24.643556843749998 note_off channel=7 note=45 velocity=0 time=12
24.65388740625 note_off channel=1 note=45 velocity=0 time=2
24.664217968750002 note_off channel=6 note=57 velocity=0 time=2
24.731366625 note_off channel=0 note=45 velocity=0 time=13
24.74686246875 note_off channel=2 note=52 velocity=0 time=3
24.7830194375 note_on channel=7 note=45 velocity=83 time=7
24.788184718750003 note_off channel=0 note=52 velocity=0 time=1
24.788184718750003 note_off channel=0 note=57 velocity=0 time=0
24.788184718750003 note_on channel=0 note=45 velocity=55 time=0
24.79335 note_on channel=0 note=52 velocity=62 time=1
24.79335 note_on channel=1 note=45 velocity=114 time=0
24.79335 note_off channel=2 note=57 velocity=0 time=0
24.79335 note_on channel=6 note=57 velocity=114 time=0
24.79335 note_on channel=9 note=40 velocity=101 time=0
24.798515281249998 note_on channel=0 note=57 velocity=58 time=1
24.798515281249998 note_on channel=2 note=52 velocity=76 time=0
24.80884584375 note_on channel=2 note=57 velocity=84 time=2
24.8243416875 note_off channel=9 note=40 velocity=0 time=3
24.9896306875 note_off channel=2 note=52 velocity=0 time=32
24.99479596875 note_off channel=0 note=61 velocity=0 time=1
25.020622375000002 note_off channel=2 note=57 velocity=0 time=5
25.02578765625 note_on channel=7 note=43 velocity=86 time=1
25.0309529375 note_on channel=0 note=61 velocity=76 time=1
25.03611821875 note_off channel=0 note=45 velocity=0 time=1
25.03611821875 note_off channel=0 note=57 velocity=0 time=0
25.03611821875 note_off channel=1 note=45 velocity=0 time=0
25.03611821875 note_on channel=1 note=43 velocity=113 time=0
25.03611821875 note_off channel=2 note=45 velocity=0 time=0
25.0412835 note_on channel=0 note=57 velocity=72 time=1
25.0412835 note_on channel=6 note=55 velocity=106 time=0
25.04644878125 note_off channel=0 note=52 velocity=0 time=1
25.04644878125 note_on channel=2 note=55 velocity=83 time=0
25.04644878125 note_on channel=9 note=40 velocity=109 time=0
25.0516140625 note_on channel=0 note=52 velocity=57 time=1
25.05677934375 note_on channel=0 note=45 velocity=74 time=1
25.06710990625 note_off channel=7 note=45 velocity=0 time=2
25.077440468749998 note_off channel=9 note=40 velocity=0 time=2
25.103266875 note_off channel=6 note=57 velocity=0 time=5
25.24272946875 note_off channel=2 note=55 velocity=0 time=27
25.25306003125 note_on channel=7 note=42 velocity=68 time=2
25.27372115625 note_off channel=0 note=45 velocity=0 time=4
25.2788864375 note_off channel=0 note=61 velocity=0 time=1
25.2788864375 note_off channel=0 note=52 velocity=0 time=0
25.28405171875 note_off channel=6 note=55 velocity=0 time=1
25.28405171875 note_on channel=6 note=54 velocity=101 time=0
25.289217 note_off channel=0 note=57 velocity=0 time=1
25.289217 note_on channel=0 note=52 velocity=49 time=0
25.289217 note_off channel=1 note=43 velocity=0 time=0
25.289217 note_on channel=1 note=42 velocity=109 time=0
25.289217 note_on channel=2 note=54 velocity=90 time=0
25.294382281249998 note_on channel=0 note=45 velocity=55 time=1
25.294382281249998 note_on channel=9 note=40 velocity=115 time=0
25.299547562500003 note_on channel=0 note=57 velocity=70 time=1
25.299547562500003 note_on channel=0 note=61 velocity=62 time=0
25.30471284375 note_off channel=7 note=43 velocity=0 time=1
25.32537396875 note_off channel=9 note=40 velocity=0 time=4
25.49582825 note_off channel=0 note=61 velocity=0 time=33
25.511324093749998 note_on channel=7 note=40 velocity=83 time=3
25.531985218750002 note_off channel=0 note=57 velocity=0 time=4
25.531985218750002 note_on channel=0 note=61 velocity=74 time=0
25.531985218750002 note_off channel=2 note=54 velocity=0 time=0
25.5371505 note_off channel=0 note=52 velocity=0 time=1
25.5371505 note_off channel=1 note=42 velocity=0 time=0
25.5371505 note_on channel=1 note=40 velocity=112 time=0
25.5371505 note_on channel=6 note=52 velocity=95 time=0
25.54231578125 note_on channel=0 note=57 velocity=66 time=1
25.54231578125 note_on channel=2 note=52 velocity=94 time=0
25.54231578125 note_on channel=9 note=40 velocity=127 time=0
25.5474810625 note_on channel=0 note=52 velocity=54 time=1
25.5474810625 note_off channel=7 note=42 velocity=0 time=0
25.55264634375 note_off channel=0 note=45 velocity=0 time=1
25.5681421875 note_off channel=6 note=54 velocity=0 time=3
25.57330746875 note_off channel=9 note=40 velocity=0 time=1
25.6301255625 note_off channel=0 note=52 velocity=0 time=11
25.666282531249998 note_off channel=2 note=52 velocity=0 time=7
25.67661309375 note_off channel=0 note=57 velocity=0 time=2
25.67661309375 note_off channel=1 note=40 velocity=0 time=0
25.6921089375 note_off channel=0 note=61 velocity=0 time=3
25.77991871875 note_on channel=6 note=50 velocity=94 time=17
25.785084 note_on channel=2 note=60 velocity=80 time=1
25.785084 note_on channel=2 note=50 velocity=51 time=0
25.785084 note_off channel=7 note=40 velocity=0 time=0
25.79024928125 note_on channel=1 note=38 velocity=108 time=1
25.79024928125 note_on channel=9 note=42 velocity=66 time=0
25.7954145625 note_on channel=0 note=50 velocity=51 time=1
25.7954145625 note_on channel=0 note=57 velocity=60 time=0
25.7954145625 note_on channel=9 note=35 velocity=107 time=0
25.80057984375 note_on channel=2 note=57 velocity=72 time=1
25.80057984375 note_off channel=6 note=52 velocity=0 time=0
25.805745124999998 note_on channel=0 note=60 velocity=56 time=1
25.8160756875 note_on channel=2 note=66 velocity=61 time=2
25.82124096875 note_off channel=9 note=42 velocity=0 time=1
25.82640625 note_off channel=9 note=35 velocity=0 time=1
25.99686053125 note_off channel=0 note=50 velocity=0 time=33
26.0020258125 note_off channel=2 note=57 velocity=0 time=1
26.00719109375 note_off channel=2 note=66 velocity=0 time=1
26.012356375 note_off channel=2 note=60 velocity=0 time=1
26.022686937499998 note_off channel=0 note=60 velocity=0 time=2
26.027852218750002 note_on channel=3 note=69 velocity=107 time=1
26.0330175 note_on channel=0 note=66 velocity=79 time=1
26.03818278125 note_off channel=0 note=57 velocity=0 time=1
26.03818278125 note_on channel=0 note=60 velocity=82 time=0
26.03818278125 note_on channel=2 note=66 velocity=86 time=0
26.0433480625 note_on channel=0 note=57 velocity=56 time=1
26.0433480625 note_on channel=9 note=42 velocity=58 time=0
26.04851334375 note_on channel=2 note=57 velocity=60 time=1
26.04851334375 note_on channel=2 note=60 velocity=82 time=0
26.053678625 note_on channel=0 note=50 velocity=47 time=1
26.07433975 note_off channel=9 note=42 velocity=0 time=4
26.239628749999998 note_off channel=2 note=66 velocity=0 time=32
26.2706204375 note_off channel=2 note=57 velocity=0 time=6
26.2706204375 note_off channel=3 note=69 velocity=0 time=0
26.2706204375 note_on channel=3 note=71 velocity=107 time=0
26.280951 note_off channel=0 note=60 velocity=0 time=2
26.280951 note_off channel=2 note=50 velocity=0 time=0
26.280951 note_off channel=2 note=60 velocity=0 time=0
26.280951 note_on channel=9 note=40 velocity=113 time=0
26.28611628125 note_on channel=0 note=60 velocity=58 time=1
26.28611628125 note_on channel=2 note=50 velocity=55 time=0
26.28611628125 note_on channel=9 note=42 velocity=69 time=0
26.2912815625 note_on channel=2 note=60 velocity=81 time=1
26.2912815625 note_on channel=2 note=57 velocity=74 time=0
26.29644684375 note_on channel=2 note=66 velocity=63 time=1
26.3119426875 note_off channel=9 note=40 velocity=0 time=3
26.317107968749998 note_off channel=9 note=42 velocity=0 time=1
26.48239696875 note_off channel=1 note=38 velocity=0 time=32
26.51338865625 note_off channel=0 note=66 velocity=0 time=6
26.51338865625 note_off channel=3 note=71 velocity=0 time=0
26.51338865625 note_on channel=3 note=72 velocity=104 time=0
26.5185539375 note_off channel=0 note=60 velocity=0 time=1
26.5185539375 note_off channel=2 note=66 velocity=0 time=0
26.523719218750003 note_off channel=0 note=57 velocity=0 time=1
26.523719218750003 note_on channel=0 note=66 velocity=84 time=0
26.523719218750003 note_on channel=1 note=38 velocity=111 time=0
26.523719218750003 note_on channel=9 note=42 velocity=58 time=0
26.5288845 note_off channel=0 note=50 velocity=0 time=1
26.5288845 note_on channel=0 note=60 velocity=82 time=0
26.5288845 note_off channel=2 note=60 velocity=0 time=0
26.534049781249998 note_on channel=0 note=57 velocity=74 time=1
26.534049781249998 note_on channel=2 note=60 velocity=80 time=0
26.534049781249998 note_on channel=9 note=35 velocity=105 time=0
26.539215062500002 note_on channel=2 note=66 velocity=86 time=1
26.54438034375 note_on channel=0 note=50 velocity=53 time=1
26.549545625 note_on channel=0 note=45 velocity=58 time=1
26.55471090625 note_off channel=9 note=42 velocity=0 time=1
26.56504146875 note_off channel=9 note=35 velocity=0 time=2
26.6631818125 note_off channel=1 note=38 velocity=0 time=19
26.71999990625 note_off channel=6 note=50 velocity=0 time=11
26.76132215625 note_off channel=3 note=72 velocity=0 time=8
26.76132215625 note_on channel=3 note=74 velocity=98 time=0
26.7664874375 note_on channel=9 note=42 velocity=58 time=1
26.797479125 note_off channel=9 note=42 velocity=0 time=6
26.98342925 note_off channel=2 note=50 velocity=0 time=36
27.004090375 note_off channel=3 note=74 velocity=0 time=4
27.004090375 note_on channel=3 note=69 velocity=105 time=0
27.0144209375 note_off channel=0 note=66 velocity=0 time=2
27.0144209375 note_on channel=1 note=40 velocity=110 time=0
27.0144209375 note_off channel=2 note=66 velocity=0 time=0
27.0144209375 note_on channel=9 note=42 velocity=63 time=0
27.01958621875 note_off channel=0 note=60 velocity=0 time=1
27.01958621875 note_on channel=0 note=66 velocity=84 time=0
27.01958621875 note_off channel=2 note=57 velocity=0 time=0
27.01958621875 note_off channel=2 note=60 velocity=0 time=0
27.0247515 note_off channel=0 note=57 velocity=0 time=1
27.0247515 note_on channel=0 note=60 velocity=82 time=0
27.0247515 note_on channel=2 note=66 velocity=86 time=0
27.029916781249998 note_off channel=0 note=50 velocity=0 time=1
27.029916781249998 note_on channel=0 note=57 velocity=78 time=0
27.029916781249998 note_on channel=2 note=60 velocity=82 time=0
27.029916781249998 note_on channel=2 note=57 velocity=68 time=0
27.035082062500003 note_on channel=2 note=50 velocity=29 time=1
27.04024734375 note_on channel=0 note=50 velocity=58 time=1
27.045412624999997 note_off channel=9 note=42 velocity=0 time=1
27.22619746875 note_off channel=0 note=45 velocity=0 time=35
27.2416933125 note_off channel=1 note=40 velocity=0 time=3
27.246858593749998 note_off channel=0 note=50 velocity=0 time=1
27.252023875000003 note_off channel=2 note=57 velocity=0 time=1
27.25718915625 note_off channel=3 note=69 velocity=0 time=1
27.262354437499997 note_off channel=0 note=66 velocity=0 time=1
27.262354437499997 note_off channel=0 note=57 velocity=0 time=0
27.262354437499997 note_on channel=1 note=42 velocity=111 time=0
27.262354437499997 note_off channel=2 note=60 velocity=0 time=0
27.262354437499997 note_on channel=9 note=40 velocity=115 time=0
27.267519718750002 note_on channel=0 note=50 velocity=57 time=1
27.267519718750002 note_on channel=2 note=57 velocity=62 time=0
27.267519718750002 note_on channel=2 note=60 velocity=83 time=0
27.267519718750002 note_on channel=9 note=42 velocity=64 time=0
27.272685 note_off channel=0 note=60 velocity=0 time=1
27.272685 note_on channel=0 note=57 velocity=71 time=0
27.272685 note_off channel=2 note=66 velocity=0 time=0
27.27785028125 note_on channel=0 note=60 velocity=79 time=1
27.27785028125 note_on channel=2 note=66 velocity=86 time=0
27.2830155625 note_on channel=0 note=66 velocity=75 time=1
27.293346125 note_off channel=9 note=40 velocity=0 time=2
27.29851140625 note_off channel=9 note=42 velocity=0 time=1
27.468965687500003 note_off channel=1 note=42 velocity=0 time=33
27.47413096875 note_off channel=0 note=57 velocity=0 time=1
27.49479209375 note_off channel=2 note=66 velocity=0 time=4
27.499957375 note_off channel=0 note=66 velocity=0 time=1
27.50512265625 note_off channel=2 note=60 velocity=0 time=1
27.5102879375 note_on channel=2 note=66 velocity=84 time=1
27.51545321875 note_on channel=0 note=66 velocity=47 time=1
27.51545321875 note_on channel=2 note=60 velocity=79 time=0
27.51545321875 note_on channel=3 note=71 velocity=106 time=0
27.51545321875 note_on channel=9 note=42 velocity=58 time=0
27.530949062500003 note_on channel=0 note=57 velocity=24 time=3
27.546444906250002 note_off channel=9 note=42 velocity=0 time=3
27.5722713125 note_off channel=0 note=57 velocity=0 time=5
27.582601875 note_off channel=0 note=60 velocity=0 time=2
27.608428281250003 note_off channel=0 note=66 velocity=0 time=5
27.6755769375 note_off channel=2 note=57 velocity=0 time=13
27.696238062499997 note_off channel=2 note=50 velocity=0 time=4
27.71173390625 note_off channel=2 note=66 velocity=0 time=3
27.7168991875 note_off channel=0 note=50 velocity=0 time=1
27.7168991875 note_off channel=2 note=60 velocity=0 time=0
27.75305615625 note_on channel=2 note=43 velocity=38 time=7
27.75305615625 note_on channel=2 note=50 velocity=65 time=0
27.758221437499998 note_on channel=0 note=47 velocity=74 time=1
27.758221437499998 note_on channel=2 note=55 velocity=60 time=0
27.758221437499998 note_on channel=7 note=70 velocity=80 time=0
27.758221437499998 pitchwheel channel=7 pitch=-256 time=0
27.763386718750002 note_on channel=0 note=43 velocity=61 time=1
27.763386718750002 note_on channel=0 note=50 velocity=45 time=0
27.763386718750002 note_on channel=2 note=59 velocity=69 time=0
27.763386718750002 pitchwheel channel=7 pitch=-224 time=0
27.763386718750002 note_on channel=9 note=42 velocity=68 time=0
27.763386718750002 note_on channel=9 note=35 velocity=100 time=0
27.768552 note_on channel=2 note=62 velocity=82 time=1
27.77371728125 note_on channel=0 note=55 velocity=69 time=1
27.77371728125 note_on channel=1 note=43 velocity=122 time=0
27.77371728125 note_on channel=2 note=67 velocity=84 time=0
27.7788825625 note_on channel=0 note=59 velocity=74 time=1
27.7788825625 note_on channel=0 note=67 velocity=66 time=0
27.7788825625 pitchwheel channel=7 pitch=-256 time=0
27.78404784375 note_on channel=6 note=73 velocity=97 time=1
27.789213125 pitchwheel channel=6 pitch=160 time=1
27.79437840625 pitchwheel channel=6 pitch=192 time=1
27.79437840625 note_off channel=9 note=35 velocity=0 time=0
27.79437840625 note_off channel=9 note=42 velocity=0 time=0
27.7995436875 pitchwheel channel=6 pitch=224 time=1
27.80470896875 pitchwheel channel=7 pitch=-128 time=1
27.81503953125 pitchwheel channel=6 pitch=3744 time=2
27.8202048125 pitchwheel channel=7 pitch=3424 time=1
27.830535375 pitchwheel channel=6 pitch=3776 time=2
27.835700656249998 pitchwheel channel=7 pitch=3456 time=1
27.8615270625 pitchwheel channel=6 pitch=3808 time=5
27.86669234375 pitchwheel channel=7 pitch=3520 time=1
27.87702290625 pitchwheel channel=6 pitch=3872 time=2
27.88735346875 pitchwheel channel=6 pitch=3904 time=2
27.88735346875 pitchwheel channel=7 pitch=3616 time=0
27.902849312500003 pitchwheel channel=7 pitch=3712 time=3
27.90801459375 pitchwheel channel=6 pitch=3936 time=1
27.918345156250002 pitchwheel channel=7 pitch=3840 time=2
27.9235104375 pitchwheel channel=6 pitch=3968 time=1
27.933841 pitchwheel channel=7 pitch=3904 time=2
27.93900628125 pitchwheel channel=6 pitch=4032 time=1
27.94933684375 pitchwheel channel=7 pitch=4000 time=2
27.964832687500003 note_off channel=2 note=59 velocity=0 time=3
27.964832687500003 pitchwheel channel=7 pitch=4096 time=0
27.96999796875 pitchwheel channel=6 pitch=3936 time=1
27.980328531250002 note_off channel=0 note=55 velocity=0 time=2
27.980328531250002 note_off channel=2 note=67 velocity=0 time=0
27.980328531250002 note_off channel=6 note=73 velocity=0 time=0
27.980328531250002 pitchwheel channel=7 pitch=4160 time=0
27.995824375 note_off channel=0 note=67 velocity=0 time=3
28.00098965625 note_off channel=2 note=55 velocity=0 time=1
28.00098965625 note_off channel=2 note=62 velocity=0 time=0
28.00098965625 pitchwheel channel=7 pitch=4224 time=0
28.01132021875 note_off channel=0 note=50 velocity=0 time=2
28.01132021875 note_off channel=0 note=59 velocity=0 time=0
28.01132021875 note_on channel=0 note=67 velocity=74 time=0
28.01132021875 note_on channel=2 note=67 velocity=80 time=0
28.01132021875 note_on channel=2 note=62 velocity=80 time=0
28.01132021875 note_on channel=2 note=59 velocity=66 time=0
28.01132021875 pitchwheel channel=6 pitch=0 time=0
28.01132021875 note_off channel=7 note=70 velocity=0 time=0
28.01132021875 pitchwheel channel=7 pitch=4192 time=0
28.0164855 note_on channel=2 note=55 velocity=53 time=1
28.0164855 note_on channel=6 note=76 velocity=99 time=0
28.0164855 note_on channel=9 note=42 velocity=62 time=0
28.02165078125 note_on channel=0 note=59 velocity=76 time=1
28.02165078125 pitchwheel channel=6 pitch=384 time=0
28.0268160625 note_on channel=0 note=55 velocity=67 time=1
28.03198134375 pitchwheel channel=6 pitch=416 time=1
28.037146625 note_on channel=0 note=50 velocity=47 time=1
28.037146625 note_off channel=2 note=50 velocity=0 time=0
28.042311906250003 pitchwheel channel=7 pitch=0 time=1
28.0474771875 note_off channel=9 note=42 velocity=0 time=1
28.052642468749998 note_on channel=7 note=74 velocity=82 time=1
28.057807750000002 pitchwheel channel=7 pitch=512 time=1
28.078468875 pitchwheel channel=6 pitch=480 time=4
28.1094605625 pitchwheel channel=6 pitch=512 time=6
28.130121687499997 pitchwheel channel=6 pitch=480 time=4
28.130121687499997 pitchwheel channel=7 pitch=480 time=0
28.161113375 pitchwheel channel=7 pitch=448 time=6
28.16627865625 note_off channel=3 note=71 velocity=0 time=1
28.17660921875 pitchwheel channel=6 pitch=512 time=2
28.192105062499998 pitchwheel channel=6 pitch=608 time=3
28.197270343750002 pitchwheel channel=7 pitch=384 time=1
28.20760090625 pitchwheel channel=7 pitch=448 time=2
28.2127661875 note_off channel=2 note=62 velocity=0 time=1
28.22309675 note_off channel=2 note=55 velocity=0 time=2
28.23859259375 pitchwheel channel=6 pitch=384 time=3
28.243757875 note_off channel=0 note=43 velocity=0 time=1
28.243757875 note_off channel=6 note=76 velocity=0 time=0
28.243757875 pitchwheel channel=6 pitch=512 time=0
28.243757875 note_off channel=7 note=74 velocity=0 time=0
28.243757875 pitchwheel channel=7 pitch=320 time=0
28.24892315625 pitchwheel channel=7 pitch=480 time=1
28.2540884375 note_off channel=0 note=67 velocity=0 time=1
28.2540884375 note_off channel=2 note=67 velocity=0 time=0
28.2540884375 note_off channel=2 note=59 velocity=0 time=0
28.2540884375 note_on channel=2 note=55 velocity=59 time=0
28.259253718750003 note_on channel=0 note=43 velocity=43 time=1
28.259253718750003 note_on channel=2 note=50 velocity=56 time=0
28.259253718750003 note_on channel=2 note=59 velocity=76 time=0
28.259253718750003 note_on channel=9 note=40 velocity=109 time=0
28.264419 note_on channel=2 note=62 velocity=80 time=1
28.264419 note_on channel=9 note=42 velocity=63 time=0
28.269584281249998 note_off channel=0 note=59 velocity=0 time=1
28.274749562500002 note_on channel=0 note=59 velocity=49 time=1
28.274749562500002 pitchwheel channel=1 pitch=-118 time=0
28.274749562500002 note_on channel=2 note=67 velocity=72 time=0
28.27991484375 note_on channel=0 note=67 velocity=42 time=1
28.27991484375 pitchwheel channel=6 pitch=0 time=0
28.27991484375 note_on channel=6 note=79 velocity=101 time=0
28.285080125 pitchwheel channel=6 pitch=64 time=1
28.285080125 note_on channel=7 note=76 velocity=78 time=0
28.285080125 pitchwheel channel=7 pitch=608 time=0
28.29024540625 pitchwheel channel=1 pitch=-703 time=1
28.29024540625 note_off channel=9 note=40 velocity=0 time=0
28.2954106875 note_off channel=9 note=42 velocity=0 time=1
28.30574125 pitchwheel channel=1 pitch=-1288 time=2
28.31090653125 pitchwheel channel=7 pitch=672 time=1
28.32123709375 pitchwheel channel=1 pitch=-2107 time=2
28.331567656249998 pitchwheel channel=6 pitch=0 time=2
28.336732937500003 pitchwheel channel=1 pitch=-2926 time=1
28.352228781250002 pitchwheel channel=1 pitch=-3979 time=3
28.367724625 pitchwheel channel=1 pitch=-5149 time=3
28.37288990625 pitchwheel channel=7 pitch=608 time=1
28.38322046875 pitchwheel channel=1 pitch=-6436 time=2
28.398716312500003 pitchwheel channel=1 pitch=-7489 time=3
28.40388159375 pitchwheel channel=7 pitch=576 time=1
28.409046874999998 note_off channel=1 note=43 velocity=0 time=1
28.409046874999998 pitchwheel channel=6 pitch=-64 time=0
28.4193774375 pitchwheel channel=1 pitch=-8192 time=2
28.42454271875 pitchwheel channel=7 pitch=512 time=1
28.43487328125 pitchwheel channel=6 pitch=-128 time=2
28.45553440625 pitchwheel channel=6 pitch=-160 time=4
28.45553440625 pitchwheel channel=7 pitch=576 time=0
28.4606996875 note_off channel=2 note=50 velocity=0 time=1
28.46586496875 note_off channel=2 note=59 velocity=0 time=1
28.46586496875 note_off channel=6 note=79 velocity=0 time=0
28.46586496875 pitchwheel channel=6 pitch=0 time=0
28.47103025 note_off channel=0 note=67 velocity=0 time=1
28.47103025 pitchwheel channel=7 pitch=608 time=0
28.486526093749998 note_off channel=0 note=59 velocity=0 time=3
28.486526093749998 note_off channel=2 note=67 velocity=0 time=0
28.486526093749998 pitchwheel channel=7 pitch=672 time=0
28.49685665625 note_on channel=0 note=67 velocity=62 time=2
28.5020219375 note_on channel=0 note=59 velocity=68 time=1
28.5020219375 note_off channel=2 note=62 velocity=0 time=0
28.5020219375 note_off channel=7 note=76 velocity=0 time=0
28.5020219375 pitchwheel channel=7 pitch=512 time=0
28.50718721875 note_on channel=2 note=62 velocity=78 time=1
28.5123525 note_on channel=2 note=67 velocity=85 time=1
28.5123525 note_on channel=2 note=59 velocity=78 time=0
28.5123525 note_on channel=6 note=83 velocity=101 time=0
28.5123525 note_on channel=9 note=35 velocity=104 time=0
28.5123525 note_on channel=9 note=42 velocity=72 time=0
28.51751778125 note_off channel=0 note=47 velocity=0 time=1
28.51751778125 note_on channel=2 note=50 velocity=69 time=0
28.51751778125 pitchwheel channel=6 pitch=224 time=0
28.51751778125 pitchwheel channel=7 pitch=0 time=0
28.5226830625 note_on channel=0 note=47 velocity=56 time=1
28.5226830625 pitchwheel channel=6 pitch=32 time=0
28.5226830625 note_on channel=7 note=78 velocity=81 time=0
28.5226830625 pitchwheel channel=7 pitch=4288 time=0
28.52784834375 pitchwheel channel=1 pitch=-7723 time=1
28.533013625 note_on channel=1 note=31 velocity=101 time=1
28.5433441875 pitchwheel channel=1 pitch=-5851 time=2
28.5433441875 pitchwheel channel=7 pitch=4224 time=0
28.5433441875 note_off channel=9 note=42 velocity=0 time=0
28.5433441875 note_off channel=9 note=35 velocity=0 time=0
28.55884003125 pitchwheel channel=6 pitch=96 time=3
28.564005312499997 pitchwheel channel=1 pitch=-3043 time=1
28.574335875 pitchwheel channel=1 pitch=0 time=2
28.58983171875 pitchwheel channel=6 pitch=160 time=3
28.656980375 pitchwheel channel=7 pitch=4160 time=13
28.71379846875 note_off channel=2 note=50 velocity=0 time=11
28.71896375 pitchwheel channel=6 pitch=96 time=1
28.72412903125 note_off channel=2 note=62 velocity=0 time=1
28.73445959375 pitchwheel channel=6 pitch=0 time=2
28.739624875 note_off channel=2 note=55 velocity=0 time=1
28.739624875 note_off channel=7 note=78 velocity=0 time=0
28.74479015625 note_off channel=2 note=67 velocity=0 time=1
28.74479015625 note_off channel=2 note=59 velocity=0 time=0
28.7499554375 note_off channel=6 note=83 velocity=0 time=1
28.75512071875 note_off channel=2 note=43 velocity=0 time=1
28.82743465625 note_off channel=1 note=31 velocity=0 time=14
28.88425275 pitchwheel channel=7 pitch=0 time=11
28.910079156250003 note_off channel=0 note=55 velocity=0 time=5
28.9152444375 note_off channel=0 note=50 velocity=0 time=1
28.920409718749998 note_off channel=0 note=47 velocity=0 time=1
28.93074028125 note_off channel=0 note=59 velocity=0 time=2
28.9359055625 note_off channel=0 note=43 velocity=0 time=1
28.96173196875 note_off channel=0 note=67 velocity=0 time=5
29.2458224375 note_on channel=3 note=67 velocity=105 time=55
29.48859065625 note_off channel=3 note=67 velocity=0 time=47
29.48859065625 note_on channel=3 note=69 velocity=100 time=0
29.70553246875 note_on channel=0 note=43 velocity=58 time=42
29.715863031250002 note_on channel=0 note=47 velocity=62 time=2
29.72619359375 note_on channel=0 note=50 velocity=54 time=2
29.731358875 note_on channel=5 note=79 velocity=46 time=1
29.731358875 note_on channel=5 note=71 velocity=41 time=0
29.73652415625 control_change channel=5 control=1 value=0 time=1
29.73652415625 pitchwheel channel=5 pitch=0 time=0
29.7416894375 note_on channel=0 note=55 velocity=65 time=1
29.7416894375 note_on channel=2 note=55 velocity=34 time=0
29.74685471875 note_on channel=0 note=59 velocity=80 time=1
29.74685471875 note_on channel=1 note=43 velocity=116 time=0
29.74685471875 note_off channel=3 note=69 velocity=0 time=0
29.74685471875 note_on channel=3 note=71 velocity=106 time=0
29.75202 note_on channel=2 note=62 velocity=49 time=1
29.75202 note_on channel=9 note=42 velocity=73 time=0
29.75718528125 note_on channel=0 note=67 velocity=79 time=1
29.75718528125 note_on channel=2 note=59 velocity=71 time=0
29.7623505625 note_on channel=9 note=35 velocity=107 time=1
29.772681125 note_on channel=2 note=67 velocity=67 time=2
29.7830116875 note_off channel=9 note=42 velocity=0 time=2
29.793342250000002 note_off channel=9 note=35 velocity=0 time=2
29.94313540625 note_off channel=3 note=71 velocity=0 time=29
29.95863125 note_off channel=2 note=59 velocity=0 time=3
29.9689618125 note_off channel=2 note=67 velocity=0 time=2
29.9896229375 note_off channel=2 note=55 velocity=0 time=4
29.9896229375 note_on channel=3 note=71 velocity=98 time=0
29.994788218750003 note_off channel=0 note=59 velocity=0 time=1
29.994788218750003 note_off channel=2 note=62 velocity=0 time=0
29.9999535 note_on channel=2 note=62 velocity=82 time=1
30.005118781249998 note_off channel=0 note=67 velocity=0 time=1
30.005118781249998 note_on channel=2 note=67 velocity=84 time=0
30.005118781249998 note_on channel=2 note=59 velocity=68 time=0
30.005118781249998 note_on channel=9 note=42 velocity=65 time=0
30.010284062500002 note_on channel=0 note=67 velocity=71 time=1
30.010284062500002 note_on channel=0 note=59 velocity=76 time=0
30.010284062500002 note_on channel=2 note=55 velocity=41 time=0
30.03611046875 note_off channel=9 note=42 velocity=0 time=5
30.1549119375 note_off channel=3 note=71 velocity=0 time=23
30.20656475 note_off channel=2 note=67 velocity=0 time=10
30.227225875000002 note_off channel=2 note=55 velocity=0 time=4
30.2375564375 note_on channel=3 note=71 velocity=99 time=2
30.24272171875 note_off channel=2 note=59 velocity=0 time=1
30.24272171875 note_on channel=2 note=55 velocity=55 time=0
30.247887 note_off channel=2 note=62 velocity=0 time=1
30.247887 note_on channel=2 note=59 velocity=72 time=0
30.247887 note_on channel=9 note=42 velocity=70 time=0
30.247887 note_on channel=9 note=40 velocity=106 time=0
30.25305228125 note_on channel=2 note=62 velocity=82 time=1
30.2582175625 note_on channel=2 note=67 velocity=71 time=1
30.26338284375 note_off channel=0 note=47 velocity=0 time=1
30.2788786875 note_off channel=9 note=40 velocity=0 time=3
30.2788786875 note_off channel=9 note=42 velocity=0 time=0
30.428671843750003 note_off channel=3 note=71 velocity=0 time=29
30.45449825 note_off channel=2 note=59 velocity=0 time=5
30.46999409375 note_off channel=0 note=50 velocity=0 time=3
30.46999409375 note_off channel=0 note=67 velocity=0 time=0
30.475159375 note_off channel=0 note=59 velocity=0 time=1
30.4854899375 note_on channel=3 note=71 velocity=95 time=2
30.4854899375 note_on channel=9 note=42 velocity=62 time=0
30.49065521875 note_off channel=0 note=43 velocity=0 time=1
30.49065521875 note_on channel=0 note=67 velocity=75 time=0
30.49065521875 note_on channel=0 note=59 velocity=74 time=0
30.49065521875 note_off channel=1 note=43 velocity=0 time=0
30.49065521875 note_on channel=1 note=31 velocity=110 time=0
30.49065521875 note_off channel=2 note=55 velocity=0 time=0
30.4958205 note_off channel=2 note=62 velocity=0 time=1
30.4958205 note_off channel=2 note=67 velocity=0 time=0
30.4958205 note_on channel=9 note=35 velocity=104 time=0
30.500985781249998 note_on channel=2 note=67 velocity=85 time=1
30.506151062500003 note_on channel=0 note=50 velocity=56 time=1
30.506151062500003 note_on channel=2 note=62 velocity=82 time=0
30.506151062500003 note_on channel=2 note=59 velocity=67 time=0
30.51131634375 note_on channel=0 note=47 velocity=56 time=1
30.51131634375 note_on channel=2 note=55 velocity=49 time=0
30.516481624999997 note_on channel=0 note=43 velocity=26 time=1
30.516481624999997 note_off channel=9 note=42 velocity=0 time=0
30.5268121875 note_off channel=9 note=35 velocity=0 time=2
30.66627478125 note_off channel=3 note=71 velocity=0 time=27
30.733423437499997 note_off channel=0 note=67 velocity=0 time=13
30.733423437499997 note_on channel=9 note=42 velocity=70 time=0
30.73858871875 note_on channel=3 note=71 velocity=102 time=1
30.7540845625 note_on channel=0 note=67 velocity=60 time=3
30.764415125 note_off channel=9 note=42 velocity=0 time=2
30.795406812499998 note_off channel=1 note=31 velocity=0 time=6
30.91420828125 note_off channel=0 note=67 velocity=0 time=23
30.92453884375 note_off channel=3 note=71 velocity=0 time=2
30.950365249999997 note_off channel=0 note=59 velocity=0 time=5
30.96586109375 note_off channel=2 note=67 velocity=0 time=3
30.971026375 note_off channel=2 note=62 velocity=0 time=1
30.97619165625 note_off channel=2 note=59 velocity=0 time=1
30.9813569375 note_off channel=2 note=55 velocity=0 time=1
30.9813569375 note_on channel=2 note=67 velocity=86 time=0
30.98652221875 note_on channel=0 note=67 velocity=65 time=1
30.98652221875 note_on channel=2 note=62 velocity=83 time=0
30.98652221875 note_on channel=3 note=71 velocity=98 time=0
30.98652221875 note_on channel=9 note=42 velocity=63 time=0
30.9916875 note_off channel=0 note=55 velocity=0 time=1
30.9916875 note_on channel=2 note=59 velocity=74 time=0
30.99685278125 note_off channel=0 note=50 velocity=0 time=1
30.99685278125 note_on channel=0 note=59 velocity=74 time=0
30.99685278125 note_on channel=2 note=55 velocity=50 time=0
31.002018062500003 note_off channel=0 note=47 velocity=0 time=1
31.002018062500003 note_on channel=0 note=55 velocity=66 time=0
31.012348624999998 note_off channel=0 note=43 velocity=0 time=2
31.012348624999998 note_on channel=0 note=47 velocity=54 time=0
31.012348624999998 note_on channel=0 note=50 velocity=55 time=0
31.017513906250002 note_on channel=0 note=43 velocity=34 time=1
31.017513906250002 note_off channel=9 note=42 velocity=0 time=0
31.167307062499997 note_off channel=3 note=71 velocity=0 time=29
31.1879681875 note_off channel=2 note=62 velocity=0 time=4
31.1879681875 note_off channel=2 note=67 velocity=0 time=0
31.2086293125 note_off channel=2 note=55 velocity=0 time=4
31.218959875000003 note_off channel=2 note=59 velocity=0 time=2
31.229290437499998 note_on channel=2 note=55 velocity=62 time=2
31.234455718750002 note_on channel=2 note=59 velocity=75 time=1
31.234455718750002 note_on channel=3 note=71 velocity=103 time=0
31.234455718750002 note_on channel=9 note=42 velocity=70 time=0
31.239621 note_on channel=2 note=62 velocity=82 time=1
31.239621 note_on channel=9 note=40 velocity=107 time=0
31.24478628125 note_on channel=2 note=67 velocity=85 time=1
31.26544740625 note_off channel=9 note=42 velocity=0 time=4
31.2706126875 note_off channel=9 note=40 velocity=0 time=1
31.40491 note_off channel=3 note=71 velocity=0 time=26
31.4565628125 note_off channel=0 note=43 velocity=0 time=10
31.46172809375 note_off channel=0 note=47 velocity=0 time=1
31.466893375 note_off channel=0 note=67 velocity=0 time=1
31.47205865625 note_off channel=2 note=67 velocity=0 time=1
31.4772239375 note_off channel=0 note=59 velocity=0 time=1
31.4772239375 note_on channel=0 note=67 velocity=47 time=0
31.4772239375 note_off channel=2 note=59 velocity=0 time=0
31.48238921875 note_on channel=0 note=59 velocity=56 time=1
31.48238921875 note_on channel=2 note=67 velocity=82 time=0
31.48238921875 note_on channel=3 note=71 velocity=97 time=0
31.48238921875 note_on channel=9 note=42 velocity=68 time=0
31.4875545 note_off channel=2 note=62 velocity=0 time=1
31.49271978125 note_on channel=2 note=62 velocity=79 time=1
31.49271978125 note_on channel=2 note=59 velocity=51 time=0
31.513380906250003 note_off channel=9 note=42 velocity=0 time=4
31.57536428125 note_off channel=2 note=59 velocity=0 time=12
31.590860125000003 note_off channel=2 note=55 velocity=0 time=3
31.590860125000003 note_off channel=2 note=62 velocity=0 time=0
31.59602540625 note_off channel=0 note=67 velocity=0 time=1
31.59602540625 note_off channel=2 note=67 velocity=0 time=0
31.64767821875 note_off channel=0 note=55 velocity=0 time=10
31.652843500000003 note_off channel=3 note=71 velocity=0 time=1
31.663174062499998 note_off channel=0 note=50 velocity=0 time=2
31.668339343750002 note_off channel=0 note=59 velocity=0 time=1
31.714826875 note_on channel=2 note=54 velocity=51 time=9
31.71999215625 note_on channel=0 note=47 velocity=66 time=1
31.71999215625 note_on channel=2 note=57 velocity=79 time=0
31.7251574375 note_on channel=0 note=51 velocity=64 time=1
31.7251574375 note_on channel=2 note=63 velocity=84 time=0
31.7251574375 note_on channel=9 note=42 velocity=72 time=0
31.730322718750003 note_on channel=0 note=57 velocity=76 time=1
31.730322718750003 note_on channel=1 note=30 velocity=108 time=0
31.730322718750003 note_on channel=3 note=71 velocity=105 time=0
31.730322718750003 note_on channel=9 note=35 velocity=103 time=0
31.735488 note_on channel=0 note=42 velocity=18 time=1
31.735488 note_on channel=0 note=59 velocity=80 time=0
31.735488 note_on channel=5 note=78 velocity=42 time=0
31.74065328125 note_on channel=5 note=75 velocity=39 time=1
31.7458185625 note_on channel=0 note=66 velocity=78 time=1
31.756149125000004 note_off channel=9 note=42 velocity=0 time=2
31.761314406249998 note_off channel=9 note=35 velocity=0 time=1
31.787140812500002 note_off channel=5 note=79 velocity=0 time=5
31.823297781249998 note_off channel=5 note=71 velocity=0 time=7
31.916272843749997 note_off channel=3 note=71 velocity=0 time=18
31.96792565625 note_off channel=0 note=66 velocity=0 time=10
31.96792565625 note_off channel=2 note=63 velocity=0 time=0
31.96792565625 note_off channel=2 note=57 velocity=0 time=0
31.96792565625 note_on channel=2 note=66 velocity=84 time=0
31.973090937500004 note_off channel=0 note=57 velocity=0 time=1
31.973090937500004 note_on channel=2 note=63 velocity=82 time=0
31.973090937500004 note_on channel=3 note=71 velocity=99 time=0
31.978256218749998 note_on channel=0 note=66 velocity=78 time=1
31.978256218749998 note_on channel=2 note=57 velocity=65 time=0
31.978256218749998 note_on channel=9 note=42 velocity=64 time=0
31.9834215 note_off channel=0 note=59 velocity=0 time=1
31.988586781250003 note_on channel=0 note=59 velocity=82 time=1
31.993752062499997 note_on channel=0 note=57 velocity=71 time=1
32.009247906249996 note_off channel=9 note=42 velocity=0 time=3
32.1590410625 note_off channel=3 note=71 velocity=0 time=29
32.169371625000004 note_off channel=2 note=66 velocity=0 time=2
32.1797021875 note_off channel=2 note=57 velocity=0 time=2
32.210693875 note_off channel=2 note=54 velocity=0 time=6
32.21585915625 note_on channel=2 note=54 velocity=62 time=1
32.221024437500006 note_off channel=2 note=63 velocity=0 time=1
32.221024437500006 note_on channel=2 note=57 velocity=72 time=0
32.221024437500006 note_on channel=9 note=42 velocity=73 time=0
32.22618971875 note_on channel=2 note=63 velocity=78 time=1
32.22618971875 note_on channel=3 note=71 velocity=108 time=0
32.231355 note_on channel=2 note=66 velocity=65 time=1
32.23652028125 note_on channel=9 note=40 velocity=113 time=1
32.252016125000004 note_off channel=9 note=42 velocity=0 time=3
32.26751196875 note_off channel=9 note=40 velocity=0 time=3
32.38114815625 note_off channel=1 note=30 velocity=0 time=22
32.4276356875 note_off channel=2 note=57 velocity=0 time=9
32.43280096875 note_off channel=2 note=63 velocity=0 time=1
32.43280096875 note_off channel=2 note=66 velocity=0 time=0
32.443131531249996 note_off channel=3 note=71 velocity=0 time=2
32.453462093750005 note_off channel=0 note=66 velocity=0 time=2
32.46379265625 note_off channel=0 note=59 velocity=0 time=2
32.4689579375 note_off channel=0 note=57 velocity=0 time=1
32.4689579375 note_on channel=0 note=66 velocity=80 time=0
32.474123218749995 note_on channel=0 note=59 velocity=82 time=1
32.474123218749995 note_on channel=2 note=66 velocity=86 time=0
32.474123218749995 note_on channel=9 note=42 velocity=69 time=0
32.474123218749995 note_on channel=9 note=35 velocity=104 time=0
32.4792885 note_on channel=0 note=57 velocity=75 time=1
32.4792885 note_on channel=2 note=63 velocity=82 time=0
32.484453781250004 note_on channel=2 note=57 velocity=69 time=1
32.4896190625 note_on channel=1 note=30 velocity=114 time=1
32.49478434375 note_off channel=0 note=42 velocity=0 time=1
32.50511490625 note_off channel=9 note=35 velocity=0 time=2
32.50511490625 note_off channel=9 note=42 velocity=0 time=0
32.6445775 note_off channel=1 note=30 velocity=0 time=27
32.732387281250006 note_on channel=9 note=42 velocity=69 time=17
32.763378968750004 note_off channel=9 note=42 velocity=0 time=6
32.918337406250004 note_off channel=0 note=66 velocity=0 time=30
32.918337406250004 note_off channel=2 note=54 velocity=0 time=0
32.93899853125 note_off channel=0 note=51 velocity=0 time=4
32.9441638125 note_off channel=2 note=66 velocity=0 time=1
32.954494374999996 note_off channel=2 note=63 velocity=0 time=2
32.95965965625 note_off channel=2 note=57 velocity=0 time=1
32.95965965625 note_on channel=2 note=66 velocity=86 time=0
32.964824937500005 note_off channel=0 note=59 velocity=0 time=1
32.964824937500005 note_on channel=0 note=66 velocity=83 time=0
32.964824937500005 note_on channel=2 note=63 velocity=80 time=0
32.96999021875 note_off channel=0 note=57 velocity=0 time=1
32.96999021875 note_on channel=0 note=59 velocity=86 time=0
32.96999021875 note_on channel=2 note=57 velocity=74 time=0
32.9751555 note_on channel=2 note=54 velocity=49 time=1
32.98032078125 note_on channel=0 note=57 velocity=75 time=1
32.98032078125 note_on channel=9 note=42 velocity=65 time=0
32.985486062499994 note_on channel=0 note=51 velocity=62 time=1
33.01131246875 note_off channel=9 note=42 velocity=0 time=5
33.202427875 note_off channel=0 note=51 velocity=0 time=37
33.202427875 note_off channel=2 note=54 velocity=0 time=0
33.20759315625 note_off channel=0 note=47 velocity=0 time=1
33.20759315625 note_off channel=2 note=57 velocity=0 time=0
33.20759315625 note_off channel=2 note=66 velocity=0 time=0
33.2127584375 note_off channel=0 note=66 velocity=0 time=1
33.2127584375 note_on channel=0 note=47 velocity=29 time=0
33.2127584375 note_on channel=2 note=54 velocity=67 time=0
33.21792371875 note_off channel=0 note=57 velocity=0 time=1
33.21792371875 note_on channel=0 note=51 velocity=44 time=0
33.21792371875 note_off channel=2 note=63 velocity=0 time=0
33.21792371875 note_on channel=2 note=57 velocity=82 time=0
33.21792371875 note_on channel=9 note=40 velocity=109 time=0
33.223089 note_off channel=0 note=59 velocity=0 time=1
33.223089 note_on channel=0 note=57 velocity=72 time=0
33.223089 note_on channel=2 note=63 velocity=82 time=0
33.22825428125 note_on channel=0 note=59 velocity=75 time=1
33.22825428125 note_on channel=2 note=66 velocity=87 time=0
33.233419562499996 note_on channel=0 note=66 velocity=71 time=1
33.233419562499996 note_on channel=9 note=42 velocity=73 time=0
33.24891540625 note_off channel=9 note=40 velocity=0 time=3
33.264411249999995 note_off channel=9 note=42 velocity=0 time=3
33.42970025 note_off channel=2 note=66 velocity=0 time=32
33.4400308125 note_off channel=0 note=66 velocity=0 time=2
33.4606919375 note_on channel=0 note=66 velocity=66 time=4
33.4606919375 note_off channel=2 note=63 velocity=0 time=0
33.4606919375 note_off channel=2 note=54 velocity=0 time=0
33.4606919375 note_on channel=2 note=66 velocity=84 time=0
33.465857218749996 note_on channel=2 note=63 velocity=82 time=1
33.476187781250005 note_off channel=0 note=57 velocity=0 time=2
33.476187781250005 note_on channel=2 note=54 velocity=38 time=0
33.4813530625 note_on channel=0 note=57 velocity=53 time=1
33.48651834375 note_on channel=9 note=42 velocity=70 time=1
33.51751003125 note_off channel=9 note=42 velocity=0 time=6
33.574328125 note_off channel=0 note=57 velocity=0 time=11
33.57949340625 note_off channel=2 note=57 velocity=0 time=1
33.5846586875 note_off channel=2 note=54 velocity=0 time=1
33.59498925 note_off channel=0 note=66 velocity=0 time=2
33.600154531250006 note_off channel=2 note=66 velocity=0 time=1
33.600154531250006 note_off channel=2 note=63 velocity=0 time=0
33.6466420625 note_off channel=0 note=51 velocity=0 time=9
33.67246846875 note_on channel=5 note=79 velocity=41 time=5
33.677633750000005 note_off channel=5 note=78 velocity=0 time=1
33.68279903125 note_on channel=5 note=76 velocity=38 time=1
33.6879643125 note_off channel=0 note=47 velocity=0 time=1
33.698294874999995 note_on channel=0 note=47 velocity=68 time=2
33.70346015625 note_off channel=0 note=59 velocity=0 time=1
33.70346015625 note_on channel=0 note=52 velocity=67 time=0
33.70346015625 note_on channel=3 note=71 velocity=107 time=0
33.708625437500004 note_on channel=0 note=55 velocity=78 time=1
33.708625437500004 note_on channel=1 note=28 velocity=106 time=0
33.708625437500004 note_on channel=9 note=35 velocity=105 time=0
33.71379071875 note_on channel=0 note=59 velocity=84 time=1
33.71379071875 note_on channel=2 note=52 velocity=75 time=0
33.71379071875 note_off channel=5 note=75 velocity=0 time=0
33.718956 note_on channel=2 note=55 velocity=77 time=1
33.72412128125 note_on channel=0 note=64 velocity=69 time=1
33.72412128125 note_on channel=2 note=59 velocity=88 time=0
33.7292865625 note_on channel=9 note=42 velocity=72 time=1
33.73445184375 note_on channel=2 note=64 velocity=79 time=1
33.739617125 note_off channel=9 note=35 velocity=0 time=1
33.76027825 note_off channel=9 note=42 velocity=0 time=4
33.87907971875 note_off channel=3 note=71 velocity=0 time=23
33.92556725 note_off channel=0 note=64 velocity=0 time=9
33.94106309375 note_off channel=2 note=64 velocity=0 time=3
33.95139365625 note_off channel=0 note=59 velocity=0 time=2
33.95139365625 note_on channel=0 note=64 velocity=78 time=0
33.95139365625 note_on channel=3 note=71 velocity=102 time=0
33.956558937500006 note_on channel=0 note=59 velocity=77 time=1
33.956558937500006 note_off channel=2 note=52 velocity=0 time=0
33.96172421875 note_off channel=2 note=59 velocity=0 time=1
33.96172421875 note_on channel=2 note=64 velocity=80 time=0
33.9668895 note_off channel=2 note=55 velocity=0 time=1
33.97205478125 note_off channel=1 note=28 velocity=0 time=1
33.97205478125 note_on channel=2 note=59 velocity=79 time=0
33.97205478125 note_on channel=2 note=55 velocity=60 time=0
33.977220062499995 note_on channel=2 note=52 velocity=18 time=1
33.977220062499995 note_on channel=9 note=42 velocity=68 time=0
34.00821175 note_off channel=9 note=42 velocity=0 time=6
34.12701321875 note_off channel=3 note=71 velocity=0 time=23
34.16833546875 note_off channel=2 note=64 velocity=0 time=8
34.188996593750005 note_off channel=2 note=52 velocity=0 time=4
34.2044924375 note_off channel=2 note=55 velocity=0 time=3
34.2044924375 note_on channel=3 note=71 velocity=102 time=0
34.209657718749995 note_on channel=2 note=52 velocity=56 time=1
34.209657718749995 note_on channel=9 note=40 velocity=111 time=0
34.214823 note_off channel=2 note=59 velocity=0 time=1
34.214823 note_on channel=2 note=55 velocity=68 time=0
34.219988281250004 note_on channel=2 note=59 velocity=78 time=1
34.219988281250004 note_on channel=2 note=64 velocity=67 time=0
34.2251535625 note_on channel=9 note=42 velocity=73 time=1
34.24064940625 note_off channel=9 note=40 velocity=0 time=3
34.256145249999996 note_off channel=9 note=42 velocity=0 time=3
34.36461615625 note_off channel=3 note=71 velocity=0 time=21
34.43693009375 note_off channel=0 note=64 velocity=0 time=14
34.44726065625 note_on channel=3 note=71 velocity=99 time=2
34.4524259375 note_off channel=0 note=59 velocity=0 time=1
34.4524259375 note_on channel=0 note=64 velocity=76 time=0
34.4524259375 note_off channel=2 note=64 velocity=0 time=0
34.45759121875 note_off channel=0 note=55 velocity=0 time=1
34.45759121875 note_on channel=0 note=59 velocity=81 time=0
34.45759121875 note_on channel=1 note=28 velocity=108 time=0
34.45759121875 note_on channel=9 note=35 velocity=108 time=0
34.4627565 note_on channel=0 note=55 velocity=60 time=1
34.4627565 note_off channel=2 note=59 velocity=0 time=0
34.4627565 note_on channel=2 note=64 velocity=82 time=0
34.4627565 note_on channel=9 note=42 velocity=65 time=0
34.467921781250006 note_on channel=2 note=59 velocity=78 time=1
34.488582906249995 note_off channel=9 note=35 velocity=0 time=4
34.4937481875 note_off channel=9 note=42 velocity=0 time=1
34.622880218750005 note_off channel=3 note=71 velocity=0 time=25
34.66420246875 note_off channel=1 note=28 velocity=0 time=8
34.69519415625 note_off channel=0 note=64 velocity=0 time=6
34.700359437500005 note_off channel=0 note=55 velocity=0 time=1
34.700359437500005 note_on channel=3 note=71 velocity=100 time=0
34.70552471875 note_off channel=0 note=59 velocity=0 time=1
34.70552471875 note_on channel=0 note=55 velocity=55 time=0
34.70552471875 note_on channel=9 note=42 velocity=65 time=0
34.71069 note_on channel=0 note=59 velocity=66 time=1
34.721020562499994 note_on channel=0 note=64 velocity=55 time=2
34.73651640625 note_off channel=9 note=42 velocity=0 time=3
34.86048315625 note_off channel=3 note=71 velocity=0 time=24
34.91730125 note_off channel=0 note=59 velocity=0 time=11
34.932797093750004 note_off channel=0 note=64 velocity=0 time=3
34.937962375 note_off channel=0 note=47 velocity=0 time=1
34.94312765625 note_off channel=2 note=64 velocity=0 time=1
34.9482929375 note_off channel=0 note=55 velocity=0 time=1
34.9482929375 note_off channel=2 note=52 velocity=0 time=0
34.9482929375 note_off channel=2 note=59 velocity=0 time=0
34.9482929375 note_on channel=2 note=64 velocity=83 time=0
34.9482929375 note_on channel=3 note=71 velocity=107 time=0
34.9482929375 note_on channel=9 note=42 velocity=62 time=0
34.95345821875 note_on channel=0 note=64 velocity=76 time=1
34.95345821875 note_on channel=0 note=59 velocity=82 time=0
34.95345821875 note_off channel=2 note=55 velocity=0 time=0
34.95345821875 note_on channel=2 note=59 velocity=84 time=0
34.9586235 note_on channel=2 note=55 velocity=69 time=1
34.96378878125 note_on channel=2 note=52 velocity=48 time=1
34.968954062499996 note_on channel=0 note=55 velocity=70 time=1
34.97411934375 note_on channel=0 note=47 velocity=71 time=1
34.979284625000005 note_off channel=9 note=42 velocity=0 time=1
35.154904187499994 note_off channel=0 note=64 velocity=0 time=34
35.17040003125 note_off channel=2 note=52 velocity=0 time=3
35.18073059375 note_off channel=2 note=55 velocity=0 time=2
35.19106115625 note_on channel=2 note=52 velocity=58 time=2
35.19106115625 note_off channel=3 note=71 velocity=0 time=0
35.1962264375 note_off channel=0 note=52 velocity=0 time=1
35.1962264375 note_off channel=2 note=59 velocity=0 time=0
35.1962264375 note_on channel=2 note=55 velocity=82 time=0
35.1962264375 note_on channel=3 note=69 velocity=104 time=0
35.201391718749996 note_off channel=0 note=59 velocity=0 time=1
35.201391718749996 note_off channel=2 note=64 velocity=0 time=0
35.201391718749996 note_on channel=2 note=59 velocity=86 time=0
35.201391718749996 note_on channel=9 note=42 velocity=69 time=0
35.206557000000004 note_on channel=0 note=52 velocity=59 time=1
35.206557000000004 note_on channel=2 note=64 velocity=84 time=0
35.206557000000004 note_on channel=9 note=40 velocity=115 time=0
35.2168875625 note_on channel=0 note=59 velocity=77 time=2
35.227218125 note_on channel=0 note=64 velocity=59 time=2
35.23238340625 note_off channel=9 note=42 velocity=0 time=1
35.2375486875 note_off channel=9 note=40 velocity=0 time=1
35.402837687499996 note_off channel=2 note=59 velocity=0 time=32
35.4234988125 note_off channel=0 note=47 velocity=0 time=4
35.42866409375 note_off channel=0 note=64 velocity=0 time=1
35.42866409375 note_off channel=2 note=64 velocity=0 time=0
35.43899465625 note_off channel=2 note=55 velocity=0 time=2
35.444159937500004 note_off channel=0 note=59 velocity=0 time=1
35.444159937500004 note_on channel=2 note=64 velocity=71 time=0
35.444159937500004 note_off channel=3 note=69 velocity=0 time=0
35.444159937500004 note_on channel=3 note=71 velocity=105 time=0
35.444159937500004 note_on channel=9 note=42 velocity=66 time=0
35.44932521875 note_on channel=0 note=64 velocity=68 time=1
35.44932521875 note_on channel=2 note=59 velocity=74 time=0
35.4544905 note_on channel=0 note=59 velocity=74 time=1
35.45965578125 note_off channel=0 note=55 velocity=0 time=1
35.45965578125 note_on channel=2 note=55 velocity=56 time=0
35.4648210625 note_on channel=0 note=55 velocity=60 time=1
35.475151625 note_on channel=0 note=47 velocity=52 time=2
35.475151625 note_off channel=9 note=42 velocity=0 time=0
35.55263084375 note_off channel=0 note=52 velocity=0 time=15
35.55263084375 note_off channel=5 note=79 velocity=0 time=0
35.588787812499994 note_off channel=5 note=76 velocity=0 time=7
35.61461421875 note_off channel=0 note=47 velocity=0 time=5
35.635275343749996 note_off channel=2 note=55 velocity=0 time=4
35.640440625000004 note_off channel=0 note=55 velocity=0 time=1
35.645605906250005 note_off channel=3 note=71 velocity=0 time=1
35.6507711875 note_off channel=0 note=64 velocity=0 time=1
35.6507711875 note_off channel=0 note=59 velocity=0 time=0
35.6507711875 note_off channel=2 note=64 velocity=0 time=0
35.66110175 note_off channel=2 note=59 velocity=0 time=2
35.66626703125 note_off channel=2 note=52 velocity=0 time=1
35.67659759375 note_on channel=2 note=52 velocity=56 time=2
35.67659759375 note_on channel=5 note=81 velocity=58 time=0
35.681762875 note_on channel=0 note=45 velocity=54 time=1
35.681762875 note_on channel=5 note=76 velocity=55 time=0
35.68692815625 note_on channel=0 note=52 velocity=53 time=1
35.68692815625 note_on channel=2 note=57 velocity=79 time=0
35.692093437500006 note_on channel=0 note=57 velocity=76 time=1
35.692093437500006 note_on channel=2 note=60 velocity=84 time=0
35.692093437500006 note_on channel=3 note=72 velocity=104 time=0
35.692093437500006 note_on channel=9 note=35 velocity=104 time=0
35.69725871875 note_on channel=0 note=60 velocity=80 time=1
35.69725871875 note_on channel=1 note=33 velocity=106 time=0
35.69725871875 note_on channel=2 note=64 velocity=79 time=0
35.69725871875 note_on channel=9 note=42 velocity=70 time=0
35.70758928125 note_on channel=0 note=64 velocity=72 time=2
35.723085125000004 note_off channel=9 note=35 velocity=0 time=3
35.72825040625 note_off channel=9 note=42 velocity=0 time=1
35.888374125 note_off channel=2 note=57 velocity=0 time=31
35.924531093750005 note_off channel=0 note=64 velocity=0 time=7
35.924531093750005 note_off channel=0 note=45 velocity=0 time=0
35.924531093750005 note_off channel=2 note=52 velocity=0 time=0
35.929696375 note_off channel=1 note=33 velocity=0 time=1
35.929696375 note_off channel=2 note=64 velocity=0 time=0
35.93486165625 note_off channel=0 note=60 velocity=0 time=1
35.93486165625 note_off channel=3 note=72 velocity=0 time=0
35.93486165625 note_on channel=3 note=74 velocity=97 time=0
35.9400269375 note_on channel=0 note=64 velocity=83 time=1
35.9400269375 note_off channel=2 note=60 velocity=0 time=0
35.9400269375 note_on channel=2 note=64 velocity=80 time=0
35.945192218749995 note_on channel=0 note=60 velocity=82 time=1
35.945192218749995 note_on channel=2 note=60 velocity=80 time=0
35.945192218749995 note_on channel=9 note=42 velocity=68 time=0
35.9503575 note_on channel=2 note=57 velocity=65 time=1
35.955522781250004 note_on channel=2 note=52 velocity=36 time=1
35.96585334375 note_on channel=0 note=45 velocity=62 time=2
35.97618390625 note_off channel=9 note=42 velocity=0 time=2
36.156968750000004 note_off channel=2 note=52 velocity=0 time=35
36.1672993125 note_off channel=2 note=57 velocity=0 time=2
36.177629875 note_on channel=2 note=52 velocity=43 time=2
36.177629875 note_off channel=3 note=74 velocity=0 time=0
36.177629875 note_on channel=3 note=72 velocity=99 time=0
36.18279515625 note_off channel=2 note=60 velocity=0 time=1
36.18279515625 note_off channel=2 note=64 velocity=0 time=0
36.1879604375 note_on channel=2 note=57 velocity=78 time=1
36.1879604375 note_on channel=9 note=40 velocity=111 time=0
36.19312571875 note_on channel=2 note=60 velocity=83 time=1
36.19312571875 note_on channel=9 note=42 velocity=72 time=0
36.198291 note_on channel=2 note=64 velocity=71 time=1
36.218952125 note_off channel=9 note=40 velocity=0 time=4
36.224117406249995 note_off channel=9 note=42 velocity=0 time=1
36.389406406250004 note_off channel=0 note=64 velocity=0 time=32
36.3945716875 note_off channel=2 note=60 velocity=0 time=1
36.425563374999996 note_off channel=3 note=72 velocity=0 time=6
36.425563374999996 note_on channel=3 note=71 velocity=102 time=0
36.43072865625 note_off channel=2 note=57 velocity=0 time=1
36.435893937500005 note_off channel=0 note=60 velocity=0 time=1
36.435893937500005 note_on channel=0 note=64 velocity=84 time=0
36.435893937500005 note_off channel=2 note=64 velocity=0 time=0
36.44105921875 note_on channel=0 note=60 velocity=83 time=1
36.44105921875 note_on channel=2 note=64 velocity=90 time=0
36.44105921875 note_on channel=9 note=42 velocity=68 time=0
36.44105921875 note_on channel=9 note=35 velocity=107 time=0
36.44105921875 note_on channel=9 note=62 velocity=65 time=0
36.4462245 note_off channel=0 note=57 velocity=0 time=1
36.4462245 note_on channel=1 note=33 velocity=107 time=0
36.4462245 note_on channel=2 note=60 velocity=84 time=0
36.4462245 control_change channel=9 control=1 value=0 time=0
36.4462245 pitchwheel channel=9 pitch=0 time=0
36.45138978125 note_on channel=0 note=57 velocity=75 time=1
36.45138978125 note_on channel=2 note=57 velocity=66 time=0
36.47205090625 note_off channel=9 note=62 velocity=0 time=4
36.47205090625 note_off channel=9 note=35 velocity=0 time=0
36.47205090625 note_off channel=9 note=42 velocity=0 time=0
36.5185384375 note_off channel=5 note=81 velocity=0 time=9
36.53403428125 pitchwheel channel=5 pitch=-118 time=3
36.549530125 pitchwheel channel=5 pitch=-820 time=3
36.559860687500006 pitchwheel channel=5 pitch=-1522 time=2
36.559860687500006 note_on channel=9 note=62 velocity=70 time=0
36.580521812499995 note_off channel=1 note=33 velocity=0 time=4
36.580521812499995 pitchwheel channel=5 pitch=-2458 time=0
36.590852375000004 note_off channel=9 note=62 velocity=0 time=2
36.59601765625 pitchwheel channel=5 pitch=-3277 time=1
36.6115135 pitchwheel channel=5 pitch=-3628 time=3
36.632174625 note_off channel=0 note=52 velocity=0 time=4
36.6425051875 note_off channel=0 note=64 velocity=0 time=2
36.6425051875 pitchwheel channel=5 pitch=-3277 time=0
36.64767046875 note_on channel=5 note=72 velocity=53 time=1
36.658001031249995 pitchwheel channel=5 pitch=-2458 time=2
36.673496875 note_off channel=2 note=52 velocity=0 time=3
36.673496875 pitchwheel channel=5 pitch=-1054 time=0
36.67866215625 note_off channel=3 note=71 velocity=0 time=1
36.67866215625 note_on channel=3 note=69 velocity=97 time=0
36.6838274375 note_off channel=0 note=57 velocity=0 time=1
36.6838274375 note_on channel=0 note=52 velocity=29 time=0
36.6838274375 note_off channel=2 note=57 velocity=0 time=0
36.6838274375 note_on channel=9 note=62 velocity=70 time=0
36.68899271875 note_on channel=0 note=57 velocity=56 time=1
36.68899271875 note_off channel=2 note=64 velocity=0 time=0
36.68899271875 note_on channel=2 note=52 velocity=45 time=0
36.68899271875 pitchwheel channel=5 pitch=0 time=0
36.694158 note_off channel=2 note=60 velocity=0 time=1
36.694158 note_on channel=2 note=57 velocity=56 time=0
36.694158 note_on channel=9 note=42 velocity=70 time=0
36.69932328125 note_on channel=2 note=60 velocity=72 time=1
36.704488562499996 note_on channel=0 note=64 velocity=38 time=1
36.704488562499996 note_on channel=2 note=64 velocity=34 time=0
36.714819125000005 note_off channel=9 note=62 velocity=0 time=2
36.7251496875 note_off channel=9 note=42 velocity=0 time=2
36.89560396875 note_off channel=0 note=57 velocity=0 time=33
36.89560396875 note_off channel=0 note=60 velocity=0 time=0
36.89560396875 note_off channel=2 note=57 velocity=0 time=0
36.90076925 note_off channel=2 note=60 velocity=0 time=1
36.921430375 note_off channel=0 note=64 velocity=0 time=4
36.921430375 note_off channel=3 note=69 velocity=0 time=0
36.921430375 note_on channel=3 note=67 velocity=101 time=0
36.9317609375 note_off channel=2 note=52 velocity=0 time=2
36.936926218749996 note_on channel=0 note=64 velocity=78 time=1
36.936926218749996 note_off channel=2 note=64 velocity=0 time=0
36.936926218749996 note_on channel=9 note=62 velocity=66 time=0
36.942091500000004 note_on channel=0 note=60 velocity=80 time=1
36.947256781250005 note_on channel=2 note=64 velocity=90 time=1
36.947256781250005 note_on channel=2 note=60 velocity=82 time=0
36.947256781250005 note_on channel=9 note=42 velocity=65 time=0
36.9524220625 note_on channel=0 note=57 velocity=63 time=1
36.9524220625 note_on channel=2 note=57 velocity=75 time=0
36.9524220625 note_on channel=2 note=52 velocity=45 time=0
36.96791790625 note_off channel=9 note=62 velocity=0 time=3
36.97824846875 note_off channel=9 note=42 velocity=0 time=2
37.06089296875 note_on channel=9 note=62 velocity=65 time=16
37.091884656249995 note_off channel=9 note=62 velocity=0 time=6
37.14353746875 note_off channel=3 note=67 velocity=0 time=10
37.17452915625 note_off channel=0 note=57 velocity=0 time=6
37.179694437500004 note_off channel=0 note=64 velocity=0 time=1
37.179694437500004 note_on channel=9 note=40 velocity=113 time=0
37.179694437500004 note_on channel=9 note=62 velocity=75 time=0
37.18485971875 note_off channel=0 note=60 velocity=0 time=1
37.18485971875 note_on channel=0 note=57 velocity=70 time=0
37.190025 note_on channel=0 note=60 velocity=75 time=1
37.19519028125 note_on channel=9 note=42 velocity=69 time=1
37.2003555625 note_on channel=0 note=64 velocity=60 time=1
37.210686125 note_off channel=9 note=62 velocity=0 time=2
37.210686125 note_off channel=9 note=40 velocity=0 time=0
37.226181968750005 note_off channel=9 note=42 velocity=0 time=3
37.4069668125 note_off channel=2 note=64 velocity=0 time=35
37.41213209375 note_off channel=0 note=64 velocity=0 time=1
37.41213209375 note_off channel=2 note=60 velocity=0 time=0
37.417297375 note_off channel=2 note=57 velocity=0 time=1
37.417297375 note_on channel=3 note=69 velocity=106 time=0
37.42246265625 note_off channel=0 note=60 velocity=0 time=1
37.42246265625 note_off channel=2 note=52 velocity=0 time=0
37.42246265625 note_on channel=2 note=64 velocity=84 time=0
37.427627937500006 note_on channel=0 note=64 velocity=82 time=1
37.427627937500006 note_on channel=2 note=60 velocity=84 time=0
37.43279321875 note_off channel=0 note=57 velocity=0 time=1
37.43279321875 note_on channel=0 note=60 velocity=79 time=0
37.43279321875 note_on channel=2 note=57 velocity=67 time=0
37.43279321875 note_on channel=9 note=42 velocity=68 time=0
37.43279321875 note_on channel=9 note=62 velocity=77 time=0
37.4379585 note_off channel=0 note=52 velocity=0 time=1
37.4379585 note_on channel=0 note=57 velocity=62 time=0
37.4379585 note_on channel=2 note=52 velocity=49 time=0
37.44312378125 note_on channel=0 note=52 velocity=51 time=1
37.46378490625 note_off channel=9 note=62 velocity=0 time=4
37.46378490625 note_off channel=9 note=42 velocity=0 time=0
37.49477659375 note_off channel=5 note=76 velocity=0 time=6
37.51543771875 note_off channel=5 note=72 velocity=0 time=4
37.55675996875 note_on channel=9 note=62 velocity=65 time=8
37.58775165625 note_off channel=9 note=62 velocity=0 time=6
37.64456975 note_off channel=0 note=57 velocity=0 time=11
37.6549003125 note_off channel=0 note=45 velocity=0 time=2
37.6549003125 note_off channel=2 note=52 velocity=0 time=0
37.665230875 note_off channel=0 note=52 velocity=0 time=2
37.665230875 note_on channel=1 note=33 velocity=106 time=0
37.665230875 note_off channel=2 note=57 velocity=0 time=0
37.67039615625 note_off channel=0 note=64 velocity=0 time=1
37.67039615625 note_off channel=2 note=64 velocity=0 time=0
37.67039615625 note_on channel=2 note=52 velocity=67 time=0
37.6755614375 note_off channel=0 note=60 velocity=0 time=1
37.6755614375 note_on channel=0 note=45 velocity=55 time=0
37.6755614375 note_on channel=9 note=42 velocity=73 time=0
37.6755614375 note_on channel=9 note=62 velocity=71 time=0
37.680726718749995 note_on channel=0 note=52 velocity=65 time=1
37.680726718749995 note_on channel=0 note=57 velocity=77 time=0
37.680726718749995 note_off channel=2 note=60 velocity=0 time=0
37.680726718749995 note_on channel=9 note=35 velocity=101 time=0
37.685892 note_on channel=2 note=57 velocity=74 time=1
37.69105728125 note_on channel=0 note=60 velocity=80 time=1
37.69105728125 note_on channel=2 note=60 velocity=84 time=0
37.69105728125 note_on channel=2 note=64 velocity=79 time=0
37.6962225625 note_on channel=0 note=64 velocity=73 time=1
37.706553125 note_off channel=9 note=62 velocity=0 time=2
37.706553125 note_off channel=9 note=42 velocity=0 time=0
37.71171840625 note_off channel=9 note=35 velocity=0 time=1
37.83568515625 note_off channel=3 note=69 velocity=0 time=24
37.9028338125 note_on channel=4 note=72 velocity=48 time=13
37.90799909375 note_on channel=4 note=69 velocity=61 time=1
37.90799909375 note_on channel=4 note=74 velocity=55 time=0
37.913164375 note_off channel=0 note=64 velocity=0 time=1
37.913164375 note_on channel=3 note=69 velocity=100 time=0
37.9234949375 note_off channel=0 note=60 velocity=0 time=2
37.9234949375 note_off channel=2 note=64 velocity=0 time=0
37.9234949375 note_on channel=9 note=62 velocity=74 time=0
37.92866021875 note_on channel=0 note=64 velocity=81 time=1
37.92866021875 note_on channel=0 note=60 velocity=83 time=0
37.92866021875 note_off channel=2 note=57 velocity=0 time=0
37.92866021875 note_on channel=9 note=42 velocity=63 time=0
37.9338255 note_off channel=0 note=57 velocity=0 time=1
37.9338255 note_off channel=2 note=60 velocity=0 time=0
37.9338255 note_on channel=2 note=64 velocity=81 time=0
37.938990781250006 note_on channel=0 note=57 velocity=75 time=1
37.938990781250006 note_on channel=2 note=60 velocity=82 time=0
37.9441560625 note_on channel=2 note=57 velocity=65 time=1
37.954486625 note_off channel=9 note=62 velocity=0 time=2
37.959651906249995 note_off channel=9 note=42 velocity=0 time=1
38.047461687500004 note_on channel=9 note=62 velocity=59 time=17
38.078453375 note_off channel=9 note=62 velocity=0 time=6
38.0991145 note_off channel=4 note=74 velocity=0 time=4
38.114610343749995 note_off channel=4 note=72 velocity=0 time=3
38.1301061875 note_off channel=3 note=69 velocity=0 time=3
38.1507673125 note_off channel=4 note=69 velocity=0 time=4
38.1507673125 note_on channel=4 note=74 velocity=52 time=0
38.1507673125 note_on channel=4 note=72 velocity=43 time=0
38.15593259375 note_on channel=3 note=71 velocity=106 time=1
38.16626315625 note_off channel=2 note=57 velocity=0 time=2
38.16626315625 note_on channel=4 note=71 velocity=69 time=0
38.16626315625 note_on channel=9 note=62 velocity=71 time=0
38.171428437500005 note_off channel=2 note=60 velocity=0 time=1
38.171428437500005 note_on channel=9 note=42 velocity=68 time=0
38.17659371875 note_on channel=2 note=57 velocity=71 time=1
38.181759 note_off channel=2 note=64 velocity=0 time=1
38.181759 note_on channel=2 note=60 velocity=84 time=0
38.181759 note_on channel=9 note=40 velocity=111 time=0
38.18692428125 note_on channel=2 note=64 velocity=84 time=1
38.19725484375 note_off channel=9 note=62 velocity=0 time=2
38.202420125 note_off channel=9 note=42 velocity=0 time=1
38.2127506875 note_off channel=9 note=40 velocity=0 time=2
38.21791596875 note_off channel=0 note=52 velocity=0 time=1
38.22308125 note_off channel=0 note=57 velocity=0 time=1
38.33155215625 note_off channel=2 note=57 velocity=0 time=21
38.33155215625 note_off channel=2 note=60 velocity=0 time=0
38.3367174375 note_off channel=2 note=52 velocity=0 time=1
38.347048 note_off channel=0 note=64 velocity=0 time=2
38.35221328125 note_off channel=4 note=71 velocity=0 time=1
38.36254384375 note_off channel=4 note=72 velocity=0 time=2
38.36254384375 note_off channel=4 note=74 velocity=0 time=0
38.393535531249995 note_off channel=2 note=64 velocity=0 time=6
38.409031375 note_off channel=3 note=71 velocity=0 time=3
38.409031375 note_on channel=4 note=72 velocity=54 time=0
38.41419665625 note_on channel=4 note=74 velocity=58 time=1
38.4193619375 note_off channel=0 note=45 velocity=0 time=1
38.4193619375 note_off channel=0 note=60 velocity=0 time=0
38.4193619375 note_on channel=0 note=66 velocity=83 time=0
38.4193619375 note_on channel=9 note=42 velocity=63 time=0
38.4193619375 note_on channel=9 note=62 velocity=73 time=0
38.42452721875 note_on channel=0 note=60 velocity=83 time=1
38.42452721875 note_off channel=1 note=33 velocity=0 time=0
38.42452721875 note_on channel=1 note=38 velocity=108 time=0
38.42452721875 note_on channel=3 note=72 velocity=105 time=0
38.4296925 note_on channel=2 note=66 velocity=87 time=1
38.43485778125 note_on channel=0 note=57 velocity=79 time=1
38.43485778125 note_on channel=2 note=60 velocity=84 time=0
38.440023062499996 note_on channel=0 note=50 velocity=66 time=1
38.440023062499996 note_on channel=2 note=57 velocity=66 time=0
38.440023062499996 note_on channel=9 note=35 velocity=105 time=0
38.44518834375 note_on channel=2 note=50 velocity=44 time=1
38.450353625000005 note_on channel=0 note=45 velocity=60 time=1
38.450353625000005 note_off channel=9 note=62 velocity=0 time=0
38.450353625000005 note_off channel=9 note=42 velocity=0 time=0
38.471014749999995 note_off channel=9 note=35 velocity=0 time=4
38.548493968749995 note_on channel=9 note=62 velocity=70 time=15
38.574320375 note_off channel=1 note=38 velocity=0 time=5
38.57948565625 note_off channel=9 note=62 velocity=0 time=1
38.605312062500005 note_off channel=4 note=74 velocity=0 time=5
38.6466343125 note_off channel=4 note=72 velocity=0 time=8
38.651799593750006 note_on channel=4 note=76 velocity=51 time=1
38.651799593750006 note_on channel=4 note=72 velocity=50 time=0
38.66213015625 note_on channel=3 note=74 velocity=99 time=2
38.66213015625 note_on channel=4 note=74 velocity=45 time=0
38.6672954375 note_on channel=9 note=62 velocity=75 time=1
38.677626000000004 note_off channel=3 note=72 velocity=0 time=2
38.677626000000004 note_on channel=9 note=42 velocity=69 time=0
38.698287125 note_off channel=9 note=62 velocity=0 time=4
38.7086176875 note_off channel=9 note=42 velocity=0 time=2
38.8119233125 note_off channel=4 note=74 velocity=0 time=20
38.84808028125 note_off channel=4 note=76 velocity=0 time=7
38.86874140625 note_off channel=0 note=66 velocity=0 time=4
38.884237250000005 note_off channel=0 note=57 velocity=0 time=3
38.88940253125 note_off channel=4 note=72 velocity=0 time=1
38.89973309375 note_on channel=4 note=72 velocity=55 time=2
38.904898374999995 note_off channel=2 note=66 velocity=0 time=1
38.904898374999995 note_off channel=3 note=74 velocity=0 time=0
38.904898374999995 note_on channel=3 note=69 velocity=99 time=0
38.904898374999995 note_on channel=4 note=78 velocity=52 time=0
38.904898374999995 note_on channel=4 note=74 velocity=61 time=0
38.915228937500004 note_off channel=2 note=60 velocity=0 time=2
38.915228937500004 note_off channel=2 note=57 velocity=0 time=0
38.92039421875 note_on channel=1 note=40 velocity=105 time=1
38.92039421875 note_on channel=9 note=62 velocity=77 time=0
38.9255595 note_off channel=0 note=60 velocity=0 time=1
38.9255595 note_on channel=0 note=66 velocity=82 time=0
38.9255595 note_off channel=2 note=50 velocity=0 time=0
38.9255595 note_on channel=2 note=66 velocity=86 time=0
38.9255595 note_on channel=2 note=60 velocity=83 time=0
38.9255595 note_on channel=9 note=42 velocity=70 time=0
38.93072478125 note_on channel=0 note=60 velocity=81 time=1
38.9358900625 note_on channel=0 note=57 velocity=69 time=1
38.9358900625 note_on channel=2 note=50 velocity=46 time=0
38.9358900625 note_on channel=2 note=57 velocity=64 time=0
38.94105534375 note_off channel=0 note=50 velocity=0 time=1
38.946220625 note_on channel=0 note=50 velocity=51 time=1
38.951385906249996 note_off channel=9 note=62 velocity=0 time=1
38.9565511875 note_off channel=9 note=42 velocity=0 time=1
39.04436096875 note_on channel=9 note=62 velocity=70 time=17
39.07535265625 note_off channel=9 note=62 velocity=0 time=6
39.12700546875 note_off channel=0 note=66 velocity=0 time=10
39.13733603125 note_off channel=0 note=60 velocity=0 time=2
39.13733603125 note_off channel=2 note=50 velocity=0 time=0
39.1425013125 note_off channel=2 note=57 velocity=0 time=1
39.15799715625 note_off channel=0 note=57 velocity=0 time=3
39.15799715625 note_on channel=2 note=50 velocity=34 time=0
39.163162437500006 note_off channel=2 note=60 velocity=0 time=1
39.16832771875 note_on channel=2 note=60 velocity=84 time=1
39.16832771875 note_on channel=9 note=62 velocity=77 time=0
39.173493 note_on channel=0 note=57 velocity=74 time=1
39.173493 note_off channel=1 note=40 velocity=0 time=0
39.173493 note_on channel=1 note=42 velocity=110 time=0
39.173493 note_off channel=2 note=66 velocity=0 time=0
39.173493 note_on channel=2 note=57 velocity=65 time=0
39.173493 note_on channel=9 note=42 velocity=73 time=0
39.17865828125 note_on channel=0 note=60 velocity=78 time=1
39.17865828125 note_on channel=2 note=66 velocity=87 time=0
39.17865828125 note_on channel=9 note=40 velocity=109 time=0
39.183823562499995 note_on channel=0 note=66 velocity=72 time=1
39.19931940625 note_off channel=9 note=62 velocity=0 time=3
39.2044846875 note_off channel=3 note=69 velocity=0 time=1
39.2044846875 note_off channel=9 note=42 velocity=0 time=0
39.20964996875 note_off channel=9 note=40 velocity=0 time=1
39.21998053125 note_off channel=4 note=78 velocity=0 time=2
39.2251458125 note_off channel=4 note=74 velocity=0 time=1
39.240641656250006 note_off channel=4 note=72 velocity=0 time=3
39.36460840625 note_off channel=1 note=42 velocity=0 time=24
39.38010425 note_off channel=0 note=60 velocity=0 time=3
39.40593065625 note_off channel=0 note=66 velocity=0 time=5
39.4110959375 note_on channel=4 note=71 velocity=47 time=1
39.4110959375 note_on channel=4 note=79 velocity=63 time=0
39.4110959375 note_on channel=4 note=74 velocity=59 time=0
39.416261218749995 note_on channel=0 note=66 velocity=69 time=1
39.416261218749995 note_off channel=2 note=60 velocity=0 time=0
39.416261218749995 note_off channel=2 note=57 velocity=0 time=0
39.416261218749995 note_on channel=3 note=71 velocity=104 time=0
39.416261218749995 note_on channel=9 note=42 velocity=68 time=0
39.4214265 note_off channel=2 note=66 velocity=0 time=1
39.42659178125 note_on channel=2 note=66 velocity=81 time=1
39.42659178125 note_on channel=9 note=35 velocity=108 time=0
39.42659178125 note_on channel=9 note=62 velocity=81 time=0
39.4317570625 note_on channel=0 note=60 velocity=69 time=1
39.4317570625 note_on channel=2 note=60 velocity=78 time=0
39.4317570625 note_on channel=2 note=57 velocity=58 time=0
39.44725290625 note_off channel=9 note=42 velocity=0 time=3
39.45758346875 note_off channel=9 note=35 velocity=0 time=2
39.45758346875 note_off channel=9 note=62 velocity=0 time=0
39.49890571875 note_off channel=0 note=66 velocity=0 time=8
39.504071 note_off channel=0 note=57 velocity=0 time=1
39.5144015625 note_off channel=0 note=60 velocity=0 time=2
39.545393250000004 note_on channel=9 note=62 velocity=69 time=6
39.5557238125 note_off channel=2 note=57 velocity=0 time=2
39.56088909375 note_off channel=2 note=60 velocity=0 time=1
39.566054375 note_off channel=2 note=66 velocity=0 time=1
39.5763849375 note_off channel=9 note=62 velocity=0 time=2
39.61254190625 note_off channel=2 note=50 velocity=0 time=7
39.6383683125 note_off channel=0 note=45 velocity=0 time=5
39.6383683125 note_off channel=0 note=50 velocity=0 time=0
39.6590294375 note_on channel=0 note=43 velocity=35 time=4
39.66419471875 note_on channel=0 note=47 velocity=62 time=1
39.66419471875 note_on channel=2 note=45 velocity=56 time=0
39.66419471875 note_on channel=9 note=42 velocity=68 time=0
39.66936 note_on channel=1 note=43 velocity=112 time=1
39.66936 note_on channel=2 note=50 velocity=74 time=0
39.66936 note_on channel=9 note=62 velocity=74 time=0
39.6796905625 note_on channel=0 note=55 velocity=65 time=2
39.6796905625 note_on channel=0 note=50 velocity=37 time=0
39.6796905625 note_on channel=2 note=55 velocity=83 time=0
39.6796905625 note_on channel=9 note=35 velocity=103 time=0
39.68485584375 note_on channel=0 note=59 velocity=69 time=1
39.68485584375 note_on channel=0 note=67 velocity=44 time=0
39.68485584375 note_on channel=2 note=59 velocity=88 time=0
39.690021125 note_on channel=2 note=67 velocity=80 time=1
39.695186406249995 note_off channel=9 note=42 velocity=0 time=1
39.7003516875 note_off channel=9 note=62 velocity=0 time=1
39.71068225 note_off channel=9 note=35 velocity=0 time=2
39.88113653125 note_off channel=0 note=55 velocity=0 time=33
39.896632374999996 note_off channel=0 note=67 velocity=0 time=3
39.906962937500005 note_off channel=0 note=43 velocity=0 time=2
39.91212821875 note_off channel=0 note=47 velocity=0 time=1
39.91212821875 note_on channel=0 note=67 velocity=82 time=0
39.91212821875 note_off channel=2 note=67 velocity=0 time=0
39.9172935 note_off channel=0 note=59 velocity=0 time=1
39.9172935 note_on channel=9 note=42 velocity=63 time=0
39.92245878125 note_on channel=0 note=59 velocity=84 time=1
39.92245878125 note_on channel=9 note=62 velocity=80 time=0
39.927624062499994 note_on channel=0 note=55 velocity=74 time=1
39.927624062499994 note_off channel=2 note=59 velocity=0 time=0
39.927624062499994 note_on channel=2 note=67 velocity=82 time=0
39.93278934375 note_on channel=2 note=59 velocity=80 time=1
39.937954625 note_off channel=0 note=50 velocity=0 time=1
39.94311990625 note_on channel=0 note=50 velocity=57 time=1
39.94311990625 note_on channel=0 note=47 velocity=72 time=0
39.9482851875 note_on channel=0 note=43 velocity=51 time=1
39.9482851875 note_off channel=9 note=42 velocity=0 time=0
39.953450468750006 note_off channel=9 note=62 velocity=0 time=1
40.051590812499995 note_on channel=9 note=62 velocity=51 time=19
40.0825825 note_off channel=9 note=62 velocity=0 time=6
40.11873946875 note_off channel=4 note=74 velocity=0 time=7
40.12390475 note_off channel=2 note=50 velocity=0 time=1
40.12390475 note_off channel=4 note=71 velocity=0 time=0
40.129070031249995 note_off channel=1 note=43 velocity=0 time=1
40.129070031249995 note_off channel=2 note=67 velocity=0 time=0
40.1342353125 note_off channel=3 note=71 velocity=0 time=1
40.144565875 note_off channel=0 note=43 velocity=0 time=2
40.14973115625 note_off channel=4 note=79 velocity=0 time=1
40.1548964375 note_off channel=2 note=55 velocity=0 time=1
40.16006171875 note_on channel=9 note=42 velocity=69 time=1
40.165227 note_off channel=2 note=59 velocity=0 time=1
40.165227 note_on channel=2 note=50 velocity=38 time=0
40.165227 note_on channel=9 note=62 velocity=71 time=0
40.17039228125 note_on channel=0 note=43 velocity=44 time=1
40.17039228125 note_on channel=2 note=55 velocity=59 time=0
40.17039228125 note_on channel=9 note=40 velocity=113 time=0
40.175557562499996 note_on channel=2 note=59 velocity=78 time=1
40.175557562499996 note_on channel=2 note=67 velocity=76 time=0
40.19105340625 note_off channel=9 note=42 velocity=0 time=3
40.1962186875 note_off channel=9 note=62 velocity=0 time=1
40.20138396875 note_off channel=9 note=40 velocity=0 time=1
40.37700353125 note_off channel=0 note=59 velocity=0 time=34
40.407995218749996 note_on channel=1 note=43 velocity=120 time=6
40.407995218749996 note_on channel=9 note=42 velocity=69 time=0
40.413160500000004 note_off channel=0 note=67 velocity=0 time=1
40.413160500000004 note_off channel=2 note=67 velocity=0 time=0
40.418325781250005 note_off channel=0 note=43 velocity=0 time=1
40.418325781250005 note_on channel=0 note=67 velocity=82 time=0
40.418325781250005 note_off channel=2 note=59 velocity=0 time=0
40.418325781250005 note_off channel=2 note=55 velocity=0 time=0
40.418325781250005 note_on channel=9 note=35 velocity=110 time=0
40.418325781250005 note_on channel=9 note=62 velocity=78 time=0
40.4234910625 note_off channel=0 note=55 velocity=0 time=1
40.4234910625 note_on channel=0 note=59 velocity=82 time=0
40.4234910625 note_on channel=2 note=67 velocity=87 time=0
40.4234910625 note_on channel=2 note=59 velocity=86 time=0
40.42865634375 note_off channel=0 note=50 velocity=0 time=1
40.42865634375 note_on channel=0 note=55 velocity=78 time=0
40.42865634375 note_on channel=2 note=55 velocity=62 time=0
40.433821625 note_off channel=0 note=47 velocity=0 time=1
40.43898690625 note_on channel=0 note=50 velocity=62 time=1
40.43898690625 note_on channel=0 note=47 velocity=74 time=0
40.43898690625 note_off channel=9 note=42 velocity=0 time=0
40.44931746875 note_on channel=0 note=43 velocity=31 time=2
40.44931746875 note_off channel=9 note=35 velocity=0 time=0
40.44931746875 note_off channel=9 note=62 velocity=0 time=0
40.53712725 note_on channel=9 note=62 velocity=75 time=17
40.562953656249995 pitchwheel channel=1 pitch=-235 time=5
40.5681189375 note_off channel=9 note=62 velocity=0 time=1
40.5784495 pitchwheel channel=1 pitch=-1171 time=2
40.59394534375 pitchwheel channel=1 pitch=-2341 time=3
40.609441187499996 pitchwheel channel=1 pitch=-3277 time=3
40.62493703125 pitchwheel channel=1 pitch=-3979 time=3
40.64559815625 note_off channel=1 note=43 velocity=0 time=4
40.64559815625 pitchwheel channel=1 pitch=-4564 time=0
40.65592871875 note_on channel=9 note=62 velocity=70 time=2
40.661094 pitchwheel channel=1 pitch=-5149 time=1
40.661094 note_on channel=9 note=42 velocity=72 time=0
40.67658984375 pitchwheel channel=1 pitch=-5617 time=3
40.686920406249996 note_off channel=9 note=62 velocity=0 time=2
40.6920856875 note_off channel=9 note=42 velocity=0 time=1
40.723077375 pitchwheel channel=1 pitch=-5032 time=6
40.73857321875 pitchwheel channel=1 pitch=-3862 time=3
40.7540690625 pitchwheel channel=1 pitch=-1756 time=3
40.774730187500005 pitchwheel channel=1 pitch=0 time=4
40.8780358125 note_off channel=2 note=67 velocity=0 time=20
40.88320109375 note_off channel=2 note=59 velocity=0 time=1
40.888366375 note_off channel=2 note=55 velocity=0 time=1
40.89353165625 note_off channel=0 note=67 velocity=0 time=1
40.89353165625 note_on channel=1 note=31 velocity=108 time=0
40.898696937500006 note_on channel=2 note=67 velocity=88 time=1
40.90386221875 note_on channel=0 note=67 velocity=82 time=1
40.90386221875 note_on channel=2 note=59 velocity=88 time=0
40.90386221875 note_on channel=9 note=42 velocity=64 time=0
40.90386221875 note_on channel=9 note=62 velocity=78 time=0
40.9090275 note_off channel=0 note=59 velocity=0 time=1
40.9090275 note_off channel=2 note=50 velocity=0 time=0
40.9090275 note_on channel=2 note=55 velocity=65 time=0
40.91419278125 note_off channel=0 note=55 velocity=0 time=1
40.91419278125 note_on channel=0 note=59 velocity=84 time=0
40.91419278125 note_on channel=2 note=50 velocity=41 time=0
40.92452334375 note_on channel=0 note=55 velocity=72 time=2
40.929688625000004 note_off channel=0 note=50 velocity=0 time=1
40.93485390625 note_on channel=0 note=50 velocity=42 time=1
40.93485390625 note_off channel=9 note=62 velocity=0 time=0
40.93485390625 note_off channel=9 note=42 velocity=0 time=0
41.02782896875 note_on channel=9 note=62 velocity=70 time=18
41.05882065625 note_off channel=9 note=62 velocity=0 time=6
41.120804031249996 note_off channel=0 note=59 velocity=0 time=12
41.120804031249996 note_off channel=1 note=31 velocity=0 time=0
41.1259693125 note_off channel=0 note=47 velocity=0 time=1
41.1259693125 note_off channel=2 note=55 velocity=0 time=0
41.14146515625 note_off channel=0 note=50 velocity=0 time=3
41.14146515625 note_on channel=1 note=33 velocity=108 time=0
41.1466304375 note_off channel=2 note=59 velocity=0 time=1
41.1466304375 note_on channel=2 note=55 velocity=76 time=0
41.151795718749995 note_off channel=0 note=67 velocity=0 time=1
41.151795718749995 note_on channel=2 note=59 velocity=86 time=0
41.151795718749995 note_on channel=9 note=42 velocity=69 time=0
41.151795718749995 note_on channel=9 note=62 velocity=78 time=0
41.156961 note_on channel=0 note=50 velocity=43 time=1
41.156961 note_off channel=2 note=67 velocity=0 time=0
41.156961 note_on channel=9 note=40 velocity=111 time=0
41.16212628125 note_on channel=2 note=67 velocity=87 time=1
41.17245684375 note_on channel=0 note=59 velocity=65 time=2
41.177622125 note_on channel=0 note=67 velocity=53 time=1
41.18278740625 note_off channel=9 note=62 velocity=0 time=1
41.18278740625 note_off channel=9 note=42 velocity=0 time=0
41.1879526875 note_off channel=9 note=40 velocity=0 time=1
41.32741528125 note_off channel=0 note=43 velocity=0 time=27
41.384233375 note_off channel=0 note=67 velocity=0 time=11
41.38939865625 note_off channel=1 note=33 velocity=0 time=1
41.38939865625 note_on channel=1 note=35 velocity=110 time=0
41.39972921875 note_on channel=9 note=42 velocity=68 time=2
41.39972921875 note_on channel=9 note=62 velocity=78 time=0
41.4048945 note_off channel=0 note=59 velocity=0 time=1
41.4048945 note_on channel=0 note=67 velocity=56 time=0
41.4048945 note_on channel=9 note=35 velocity=105 time=0
41.4152250625 note_on channel=0 note=59 velocity=58 time=2
41.42039034375 note_off channel=0 note=55 velocity=0 time=1
41.425555625 note_on channel=0 note=55 velocity=38 time=1
41.430720906249995 note_off channel=9 note=62 velocity=0 time=1
41.430720906249995 note_off channel=9 note=42 velocity=0 time=0
41.4358861875 note_off channel=9 note=35 velocity=0 time=1
41.52369596875 note_on channel=9 note=62 velocity=70 time=17
41.554687656249996 note_off channel=9 note=62 velocity=0 time=6
41.5701835 note_off channel=0 note=59 velocity=0 time=3
41.57534878125 note_off channel=0 note=50 velocity=0 time=1
41.57534878125 note_off channel=0 note=67 velocity=0 time=0
41.57534878125 note_off channel=2 note=67 velocity=0 time=0
41.5805140625 note_off channel=1 note=35 velocity=0 time=1
41.59600990625 note_off channel=2 note=50 velocity=0 time=3
41.6011751875 note_off channel=2 note=45 velocity=0 time=1
41.60634046875 note_off channel=2 note=59 velocity=0 time=1
41.63733215625 note_off channel=0 note=55 velocity=0 time=6
41.642497437500005 note_on channel=0 note=48 velocity=62 time=1
41.642497437500005 note_on channel=9 note=62 velocity=74 time=0
41.64766271875 note_on channel=2 note=48 velocity=76 time=1
41.64766271875 note_on channel=9 note=42 velocity=75 time=0
41.64766271875 note_on channel=9 note=35 velocity=107 time=0
41.652828 note_on channel=0 note=52 velocity=54 time=1
41.652828 note_on channel=0 note=55 velocity=63 time=0
41.652828 note_on channel=1 note=36 velocity=109 time=0
41.652828 note_on channel=2 note=60 velocity=84 time=0
41.65799328125 note_on channel=2 note=52 velocity=59 time=1
41.65799328125 note_on channel=2 note=64 velocity=79 time=0
41.6631585625 note_on channel=0 note=60 velocity=65 time=1
41.66832384375 note_on channel=0 note=64 velocity=43 time=1
41.673489125 note_off channel=9 note=62 velocity=0 time=1
41.67865440625 note_off channel=9 note=42 velocity=0 time=1
41.67865440625 note_off channel=9 note=35 velocity=0 time=0
41.8697698125 note_off channel=0 note=64 velocity=0 time=37
41.88526565625 note_off channel=1 note=36 velocity=0 time=3
41.88526565625 note_on channel=1 note=38 velocity=108 time=0
41.8904309375 note_off channel=2 note=64 velocity=0 time=1
41.8904309375 note_on channel=3 note=67 velocity=99 time=0
41.8904309375 note_on channel=4 note=67 velocity=66 time=0
41.89559621875 note_off channel=0 note=60 velocity=0 time=1
41.89559621875 note_on channel=0 note=64 velocity=83 time=0
41.89559621875 note_off channel=2 note=55 velocity=0 time=0
41.89559621875 note_on channel=9 note=42 velocity=62 time=0
41.89559621875 note_on channel=9 note=62 velocity=81 time=0
41.9007615 note_on channel=0 note=60 velocity=82 time=1
41.9007615 note_off channel=2 note=60 velocity=0 time=0
41.9007615 note_on channel=2 note=64 velocity=80 time=0
41.90592678125 note_off channel=0 note=55 velocity=0 time=1
41.90592678125 note_on channel=2 note=60 velocity=80 time=0
41.911092062499996 note_on channel=0 note=55 velocity=67 time=1
41.911092062499996 note_on channel=2 note=55 velocity=62 time=0
41.92658790625 note_off channel=9 note=62 velocity=0 time=3
41.92658790625 note_off channel=9 note=42 velocity=0 time=0
41.942083749999995 note_off channel=2 note=48 velocity=0 time=3
42.00923240625 note_off channel=3 note=67 velocity=0 time=13
42.019562968749995 note_on channel=9 note=62 velocity=69 time=2
42.05055465625 note_off channel=9 note=62 velocity=0 time=6
42.1177033125 note_off channel=2 note=52 velocity=0 time=13
42.1177033125 note_off channel=2 note=55 velocity=0 time=0
42.128033875 note_off channel=4 note=67 velocity=0 time=2
42.128033875 note_on channel=4 note=69 velocity=65 time=0
42.13319915625 note_off channel=2 note=60 velocity=0 time=1
42.13319915625 note_on channel=2 note=52 velocity=47 time=0
42.13319915625 note_on channel=3 note=69 velocity=97 time=0
42.1383644375 note_off channel=1 note=38 velocity=0 time=1
42.1383644375 note_on channel=1 note=40 velocity=106 time=0
42.1383644375 note_on channel=2 note=55 velocity=61 time=0
42.143529718749996 note_off channel=2 note=64 velocity=0 time=1
42.143529718749996 note_on channel=2 note=60 velocity=76 time=0
42.143529718749996 note_on channel=9 note=42 velocity=75 time=0
42.143529718749996 note_on channel=9 note=40 velocity=113 time=0
42.143529718749996 note_on channel=9 note=62 velocity=73 time=0
42.148695000000004 note_on channel=2 note=64 velocity=63 time=1
42.17452140625 note_off channel=9 note=62 velocity=0 time=5
42.17452140625 note_off channel=9 note=40 velocity=0 time=0
42.17452140625 note_off channel=9 note=42 velocity=0 time=0
42.2829923125 note_off channel=3 note=69 velocity=0 time=21
42.344975687499996 note_off channel=2 note=60 velocity=0 time=12
42.35014096875 note_off channel=0 note=52 velocity=0 time=1
42.35014096875 note_off channel=4 note=69 velocity=0 time=0
42.35014096875 note_on channel=4 note=71 velocity=77 time=0
42.375967374999995 note_off channel=0 note=64 velocity=0 time=5
42.38113265625 note_off channel=0 note=48 velocity=0 time=1
42.38113265625 note_off channel=2 note=52 velocity=0 time=0
42.38113265625 note_off channel=2 note=64 velocity=0 time=0
42.38113265625 note_on channel=3 note=71 velocity=103 time=0
42.386297937500004 note_off channel=0 note=60 velocity=0 time=1
42.386297937500004 note_on channel=0 note=64 velocity=80 time=0
42.386297937500004 note_off channel=1 note=40 velocity=0 time=0
42.386297937500004 note_on channel=1 note=43 velocity=110 time=0
42.39146321875 note_off channel=0 note=55 velocity=0 time=1
42.39146321875 note_on channel=0 note=60 velocity=83 time=0
42.39146321875 note_on channel=2 note=64 velocity=86 time=0
42.39146321875 note_on channel=9 note=42 velocity=72 time=0
42.3966285 note_on channel=2 note=60 velocity=84 time=1
42.3966285 note_on channel=9 note=62 velocity=78 time=0
42.40179378125 note_on channel=0 note=55 velocity=71 time=1
42.40179378125 note_on channel=2 note=52 velocity=40 time=0
42.40179378125 note_on channel=9 note=35 velocity=104 time=0
42.4069590625 note_on channel=0 note=52 velocity=49 time=1
42.41212434375 note_on channel=0 note=48 velocity=51 time=1
42.422454906249996 note_off channel=9 note=42 velocity=0 time=2
42.4276201875 note_off channel=9 note=62 velocity=0 time=1
42.432785468750005 note_off channel=9 note=35 velocity=0 time=1
42.510264687500005 note_off channel=3 note=71 velocity=0 time=15
42.51542996875 note_on channel=9 note=62 velocity=75 time=1
42.54642165625 note_off channel=9 note=62 velocity=0 time=6
42.60840503125 note_off channel=4 note=71 velocity=0 time=12
42.60840503125 note_on channel=4 note=72 velocity=87 time=0
42.61873559375 note_off channel=1 note=43 velocity=0 time=2
42.62906615625 note_off channel=2 note=55 velocity=0 time=2
42.634231437500006 note_on channel=3 note=72 velocity=106 time=1
42.63939671875 note_on channel=1 note=36 velocity=108 time=1
42.63939671875 note_on channel=2 note=55 velocity=41 time=0
42.63939671875 note_on channel=9 note=42 velocity=68 time=0
42.63939671875 note_on channel=9 note=62 velocity=78 time=0
42.644562 note_off channel=2 note=60 velocity=0 time=1
42.67038840625 note_off channel=9 note=62 velocity=0 time=5
42.67038840625 note_off channel=9 note=42 velocity=0 time=0
42.77369403125 note_off channel=3 note=72 velocity=0 time=20
42.8408426875 note_off channel=0 note=64 velocity=0 time=13
42.8408426875 note_off channel=2 note=64 velocity=0 time=0
42.8408426875 note_off channel=4 note=72 velocity=0 time=0
42.8408426875 note_on channel=4 note=71 velocity=97 time=0
42.856338531249996 note_off channel=1 note=36 velocity=0 time=3
42.871834375 note_on channel=1 note=38 velocity=100 time=3
42.87699965625 note_on channel=3 note=71 velocity=108 time=1
42.8821649375 note_off channel=0 note=60 velocity=0 time=1
42.8821649375 note_on channel=0 note=64 velocity=84 time=0
42.887330218749995 note_on channel=0 note=60 velocity=80 time=1
42.887330218749995 note_on channel=2 note=64 velocity=90 time=0
42.887330218749995 note_on channel=9 note=42 velocity=62 time=0
42.887330218749995 note_on channel=9 note=62 velocity=81 time=0
42.8924955 note_off channel=2 note=52 velocity=0 time=1
42.8924955 note_on channel=2 note=60 velocity=86 time=0
42.89766078125 note_off channel=0 note=55 velocity=0 time=1
42.89766078125 note_on channel=2 note=52 velocity=57 time=0
42.9028260625 note_off channel=0 note=52 velocity=0 time=1
42.9028260625 note_on channel=0 note=55 velocity=74 time=0
42.90799134375 note_on channel=0 note=52 velocity=51 time=1
42.90799134375 note_on channel=2 note=48 velocity=43 time=0
42.91832190625 note_off channel=9 note=62 velocity=0 time=2
42.91832190625 note_off channel=9 note=42 velocity=0 time=0
43.011296968749996 note_on channel=9 note=62 velocity=71 time=18
43.04228865625 note_off channel=9 note=62 velocity=0 time=6
43.1094373125 note_off channel=0 note=48 velocity=0 time=13
43.11460259375 note_off channel=0 note=52 velocity=0 time=1
43.119767875 note_off channel=2 note=55 velocity=0 time=1
43.12493315625 note_off channel=1 note=38 velocity=0 time=1
43.12493315625 note_on channel=1 note=35 velocity=104 time=0
43.12493315625 note_off channel=2 note=60 velocity=0 time=0
43.1300984375 note_on channel=0 note=48 velocity=62 time=1
43.1300984375 note_off channel=2 note=64 velocity=0 time=0
43.1300984375 note_on channel=2 note=55 velocity=74 time=0
43.13526371875 note_off channel=0 note=55 velocity=0 time=1
43.13526371875 note_on channel=0 note=52 velocity=62 time=0
43.13526371875 note_on channel=2 note=60 velocity=84 time=0
43.13526371875 note_on channel=9 note=42 velocity=72 time=0
43.13526371875 note_on channel=9 note=62 velocity=73 time=0
43.140429 note_off channel=0 note=60 velocity=0 time=1
43.140429 note_on channel=0 note=55 velocity=78 time=0
43.140429 note_on channel=2 note=64 velocity=90 time=0
43.140429 note_on channel=9 note=40 velocity=109 time=0
43.145594281250006 note_on channel=0 note=60 velocity=81 time=1
43.166255406249995 note_off channel=9 note=62 velocity=0 time=4
43.166255406249995 note_off channel=9 note=42 velocity=0 time=0
43.1714206875 note_off channel=9 note=40 velocity=0 time=1
43.31088328125 note_off channel=3 note=71 velocity=0 time=27
43.326379125 note_off channel=0 note=48 velocity=0 time=3
43.36253609375 note_off channel=2 note=64 velocity=0 time=7
43.367701374999996 note_off channel=0 note=64 velocity=0 time=1
43.367701374999996 note_off channel=1 note=35 velocity=0 time=0
43.367701374999996 note_on channel=1 note=36 velocity=108 time=0
43.367701374999996 note_off channel=4 note=71 velocity=0 time=0
43.367701374999996 note_on channel=4 note=69 velocity=77 time=0
43.378031937500005 note_off channel=2 note=60 velocity=0 time=2
43.378031937500005 note_on channel=2 note=64 velocity=76 time=0
43.378031937500005 note_on channel=9 note=35 velocity=101 time=0
43.38319721875 note_on channel=0 note=64 velocity=80 time=1
43.38319721875 note_off channel=2 note=52 velocity=0 time=0
43.38319721875 note_off channel=2 note=55 velocity=0 time=0
43.38319721875 note_on channel=2 note=60 velocity=78 time=0
43.38319721875 note_on channel=3 note=69 velocity=102 time=0
43.38319721875 note_on channel=9 note=42 velocity=72 time=0
43.38319721875 note_on channel=9 note=62 velocity=78 time=0
43.3883625 note_off channel=0 note=55 velocity=0 time=1
43.3883625 note_off channel=0 note=60 velocity=0 time=0
43.3883625 note_on channel=2 note=55 velocity=60 time=0
43.3883625 note_on channel=2 note=52 velocity=38 time=0
43.39352778125 note_on channel=0 note=60 velocity=82 time=1
43.3986930625 note_on channel=0 note=55 velocity=60 time=1
43.409023625 note_off channel=9 note=35 velocity=0 time=2
43.41418890625 note_off channel=9 note=42 velocity=0 time=1
43.41418890625 note_off channel=9 note=62 velocity=0 time=0
43.48650284375 note_off channel=2 note=48 velocity=0 time=14
43.501998687500006 note_on channel=9 note=62 velocity=76 time=3
43.50716396875 note_off channel=0 note=52 velocity=0 time=1
43.532990375000004 note_off channel=9 note=62 velocity=0 time=5
43.5536515 note_off channel=3 note=69 velocity=0 time=4
43.55881678125 note_off channel=2 note=52 velocity=0 time=1
43.56914734375 note_off channel=0 note=55 velocity=0 time=2
43.579477906250006 note_off channel=2 note=60 velocity=0 time=2
43.579477906250006 note_off channel=2 note=55 velocity=0 time=0
43.5846431875 note_off channel=0 note=64 velocity=0 time=1
43.59497375 note_off channel=1 note=36 velocity=0 time=2
43.62080015625 note_on channel=0 note=45 velocity=60 time=5
43.62080015625 note_on channel=2 note=45 velocity=62 time=0
43.6259654375 note_off channel=0 note=60 velocity=0 time=1
43.6259654375 note_on channel=9 note=62 velocity=74 time=0
43.63113071875 note_on channel=0 note=60 velocity=78 time=1
43.63113071875 note_on channel=2 note=52 velocity=76 time=0
43.63113071875 note_off channel=4 note=69 velocity=0 time=0
43.63113071875 note_on channel=9 note=35 velocity=108 time=0
43.636296 note_on channel=0 note=64 velocity=72 time=1
43.636296 note_on channel=1 note=33 velocity=108 time=0
43.636296 note_on channel=2 note=57 velocity=78 time=0
43.636296 note_on channel=9 note=42 velocity=75 time=0
43.64146128125 note_on channel=0 note=52 velocity=61 time=1
43.64146128125 note_on channel=2 note=60 velocity=82 time=0
43.646626562499996 note_on channel=0 note=57 velocity=76 time=1
43.656957125000005 note_off channel=9 note=62 velocity=0 time=2
43.66212240625 note_off channel=9 note=35 velocity=0 time=1
43.6672876875 note_off channel=9 note=42 velocity=0 time=1
43.83774196875 note_off channel=0 note=60 velocity=0 time=33
43.863568375 note_off channel=2 note=64 velocity=0 time=5
43.863568375 note_on channel=3 note=69 velocity=103 time=0
43.86873365625 note_off channel=0 note=64 velocity=0 time=1
43.8738989375 note_off channel=2 note=60 velocity=0 time=1
43.8738989375 note_on channel=2 note=64 velocity=86 time=0
43.879064218749996 note_on channel=2 note=60 velocity=84 time=1
43.884229500000004 note_on channel=0 note=64 velocity=84 time=1
43.884229500000004 note_off channel=1 note=33 velocity=0 time=0
43.884229500000004 note_on channel=1 note=35 velocity=108 time=0
43.884229500000004 note_off channel=2 note=57 velocity=0 time=0
43.884229500000004 note_on channel=9 note=42 velocity=68 time=0
43.884229500000004 note_on channel=9 note=62 velocity=80 time=0
43.889394781250004 note_on channel=2 note=57 velocity=67 time=1
43.8945600625 note_on channel=0 note=60 velocity=82 time=1
43.9152211875 note_off channel=9 note=62 velocity=0 time=4
43.9152211875 note_off channel=9 note=42 velocity=0 time=0
44.00303096875 note_on channel=9 note=62 velocity=70 time=17
44.034022656249995 note_off channel=9 note=62 velocity=0 time=6
44.0598490625 note_off channel=3 note=69 velocity=0 time=5
44.111501874999995 note_on channel=3 note=71 velocity=106 time=10
44.11666715625 note_off channel=2 note=52 velocity=0 time=1
44.11666715625 note_off channel=2 note=57 velocity=0 time=0
44.121832437500004 note_off channel=2 note=60 velocity=0 time=1
44.121832437500004 note_on channel=2 note=52 velocity=41 time=0
44.12699771875 note_on channel=2 note=57 velocity=68 time=1
44.12699771875 note_on channel=2 note=60 velocity=83 time=0
44.12699771875 note_on channel=9 note=40 velocity=111 time=0
44.12699771875 note_on channel=9 note=62 velocity=69 time=0
44.13732828125 note_on channel=9 note=42 velocity=72 time=2
44.1424935625 note_off channel=1 note=35 velocity=0 time=1
44.1424935625 note_on channel=1 note=36 velocity=109 time=0
44.157989406249996 note_off channel=9 note=62 velocity=0 time=3
44.157989406249996 note_off channel=9 note=40 velocity=0 time=0
44.168319968750005 note_off channel=9 note=42 velocity=0 time=2
44.17348525 note_off channel=0 note=57 velocity=0 time=1
44.2044769375 note_off channel=0 note=52 velocity=0 time=6
44.27162559375 note_off channel=1 note=36 velocity=0 time=13
44.30261728125 note_off channel=2 note=57 velocity=0 time=6
44.3077825625 note_off channel=3 note=71 velocity=0 time=1
44.312947843749996 note_off channel=2 note=52 velocity=0 time=1
44.318113125 note_off channel=0 note=64 velocity=0 time=1
44.323278406250004 note_off channel=2 note=64 velocity=0 time=1
44.35427009375 note_on channel=3 note=72 velocity=106 time=6
44.369765937500006 note_off channel=0 note=60 velocity=0 time=3
44.37493121875 note_on channel=1 note=33 velocity=103 time=1
44.37493121875 note_on channel=2 note=50 velocity=62 time=0
44.37493121875 note_on channel=9 note=35 velocity=105 time=0
44.3800965 note_on channel=0 note=66 velocity=84 time=1
44.3800965 note_on channel=9 note=62 velocity=78 time=0
44.38526178125 note_on channel=0 note=60 velocity=82 time=1
44.38526178125 note_off channel=2 note=60 velocity=0 time=0
44.38526178125 note_on channel=9 note=42 velocity=69 time=0
44.390427062499995 note_on channel=2 note=57 velocity=79 time=1
44.390427062499995 note_on channel=2 note=60 velocity=81 time=0
44.39559234375 note_on channel=0 note=50 velocity=53 time=1
44.400757625000004 note_on channel=0 note=57 velocity=76 time=1
44.400757625000004 note_on channel=2 note=66 velocity=86 time=0
44.40592290625 note_off channel=9 note=35 velocity=0 time=1
44.4110881875 note_off channel=9 note=62 velocity=0 time=1
44.41625346875 note_off channel=9 note=42 velocity=0 time=1
44.49889796875 note_on channel=9 note=62 velocity=70 time=16
44.51955909375 note_off channel=1 note=33 velocity=0 time=4
44.51955909375 note_on channel=1 note=38 velocity=111 time=0
44.52988965625 note_off channel=9 note=62 velocity=0 time=2
44.566046625 note_off channel=3 note=72 velocity=0 time=7
44.58670775 note_off channel=0 note=60 velocity=0 time=4
44.58670775 note_off channel=0 note=66 velocity=0 time=0
44.5970383125 note_off channel=0 note=50 velocity=0 time=2
44.602203593750005 note_off channel=0 note=57 velocity=0 time=1
44.61253415625 note_on channel=3 note=74 velocity=104 time=2
44.6176994375 note_on channel=0 note=50 velocity=49 time=1
44.622864718749994 note_on channel=0 note=57 velocity=71 time=1
44.622864718749994 note_on channel=9 note=62 velocity=74 time=0
44.62803 note_on channel=0 note=60 velocity=82 time=1
44.62803 note_on channel=9 note=42 velocity=73 time=0
44.6383605625 note_on channel=0 note=66 velocity=78 time=2
44.648691125 note_off channel=1 note=38 velocity=0 time=2
44.65385640625 note_off channel=9 note=62 velocity=0 time=1
44.6590216875 note_off channel=9 note=42 velocity=0 time=1
44.7623273125 note_on channel=1 note=33 velocity=111 time=20
44.824310687499995 note_off channel=0 note=57 velocity=0 time=12
44.82947596875 note_off channel=2 note=66 velocity=0 time=1
44.82947596875 note_off channel=3 note=74 velocity=0 time=0
44.85013709375 note_off channel=2 note=60 velocity=0 time=4
44.8656329375 note_off channel=2 note=57 velocity=0 time=3
44.8656329375 note_on channel=3 note=69 velocity=107 time=0
44.87079821875 note_off channel=0 note=60 velocity=0 time=1
44.87079821875 note_off channel=0 note=66 velocity=0 time=0
44.87079821875 note_on channel=2 note=66 velocity=88 time=0
44.87079821875 note_on channel=2 note=60 velocity=85 time=0
44.8759635 note_off channel=2 note=50 velocity=0 time=1
44.8759635 note_on channel=2 note=57 velocity=72 time=0
44.8759635 note_on channel=9 note=62 velocity=78 time=0
44.881128781250005 note_on channel=0 note=66 velocity=83 time=1
44.881128781250005 note_off channel=1 note=33 velocity=0 time=0
44.881128781250005 note_on channel=1 note=36 velocity=102 time=0
44.881128781250005 note_on channel=2 note=50 velocity=53 time=0
44.881128781250005 note_on channel=9 note=42 velocity=69 time=0
44.8862940625 note_on channel=0 note=60 velocity=82 time=1
44.89145934375 note_on channel=0 note=57 velocity=69 time=1
44.9069551875 note_off channel=9 note=62 velocity=0 time=3
44.912120468750004 note_off channel=9 note=42 velocity=0 time=1
44.99476496875 note_on channel=9 note=62 velocity=70 time=16
45.025756656249996 note_off channel=9 note=62 velocity=0 time=6
45.0722441875 note_off channel=2 note=66 velocity=0 time=9
45.0929053125 note_off channel=2 note=50 velocity=0 time=4
45.09807059375 note_off channel=2 note=45 velocity=0 time=1
45.103235874999996 note_off channel=2 note=57 velocity=0 time=1
45.103235874999996 note_on channel=2 note=45 velocity=49 time=0
45.10840115625 note_on channel=2 note=50 velocity=62 time=1
45.113566437500005 note_off channel=2 note=60 velocity=0 time=1
45.113566437500005 note_on channel=2 note=57 velocity=77 time=0
45.11873171875 note_on channel=2 note=60 velocity=83 time=1
45.11873171875 note_on channel=9 note=42 velocity=73 time=0
45.11873171875 note_on channel=9 note=62 velocity=78 time=0
45.123897 note_on channel=2 note=66 velocity=88 time=1
45.123897 note_on channel=9 note=40 velocity=106 time=0
45.1342275625 note_off channel=1 note=36 velocity=0 time=2
45.1342275625 note_on channel=1 note=35 velocity=108 time=0
45.14972340625 note_off channel=9 note=62 velocity=0 time=3
45.14972340625 note_off channel=9 note=42 velocity=0 time=0
45.1548886875 note_off channel=9 note=40 velocity=0 time=1
45.185880375 note_off channel=3 note=69 velocity=0 time=6
45.3201776875 note_off channel=2 note=57 velocity=0 time=26
45.32534296875 note_off channel=2 note=60 velocity=0 time=1
45.3408388125 note_off channel=0 note=60 velocity=0 time=3
45.346004093750004 note_off channel=0 note=57 velocity=0 time=1
45.35633465625 note_off channel=0 note=45 velocity=0 time=2
45.35633465625 note_off channel=0 note=66 velocity=0 time=0
45.35633465625 note_on channel=3 note=71 velocity=108 time=0
45.36666521875 note_off channel=2 note=66 velocity=0 time=2
45.3718305 note_on channel=2 note=66 velocity=86 time=1
45.3718305 note_on channel=9 note=42 velocity=66 time=0
45.3718305 note_on channel=9 note=62 velocity=82 time=0
45.37699578125 note_on channel=0 note=59 velocity=77 time=1
45.37699578125 note_off channel=1 note=35 velocity=0 time=0
45.37699578125 note_on channel=1 note=33 velocity=107 time=0
45.37699578125 note_on channel=2 note=60 velocity=84 time=0
45.37699578125 note_on channel=9 note=35 velocity=104 time=0
45.382161062499996 note_off channel=0 note=50 velocity=0 time=1
45.382161062499996 note_on channel=0 note=55 velocity=57 time=0
45.382161062499996 note_on channel=2 note=57 velocity=63 time=0
45.392491625000005 note_on channel=0 note=50 velocity=42 time=2
45.39765690625 note_on channel=0 note=45 velocity=36 time=1
45.4028221875 note_off channel=9 note=62 velocity=0 time=1
45.4028221875 note_off channel=9 note=42 velocity=0 time=0
45.40798746875 note_off channel=9 note=35 velocity=0 time=1
45.49579725 note_on channel=9 note=62 velocity=73 time=17
45.5267889375 note_off channel=0 note=45 velocity=0 time=6
45.5267889375 note_off channel=9 note=62 velocity=0 time=0
45.53195421875 note_off channel=2 note=57 velocity=0 time=1
45.53195421875 note_off channel=2 note=60 velocity=0 time=0
45.53195421875 note_off channel=2 note=66 velocity=0 time=0
45.56294590625 note_off channel=2 note=50 velocity=0 time=6
45.57844175 note_off channel=1 note=33 velocity=0 time=3
45.593937593750006 note_off channel=0 note=50 velocity=0 time=3
45.599102875 note_off channel=2 note=45 velocity=0 time=1
45.60426815625 note_off channel=0 note=55 velocity=0 time=1
45.60426815625 note_on channel=0 note=43 velocity=56 time=0
45.60426815625 note_on channel=2 note=45 velocity=41 time=0
45.6094334375 note_on channel=2 note=50 velocity=63 time=1
45.614598718749995 note_on channel=0 note=50 velocity=56 time=1
45.614598718749995 note_on channel=0 note=55 velocity=72 time=0
45.614598718749995 note_on channel=2 note=55 velocity=83 time=0
45.614598718749995 note_on channel=9 note=62 velocity=78 time=0
45.619764 note_off channel=0 note=59 velocity=0 time=1
45.619764 note_on channel=0 note=47 velocity=55 time=0
45.619764 note_on channel=1 note=31 velocity=102 time=0
45.619764 note_on channel=2 note=59 velocity=86 time=0
45.619764 note_on channel=9 note=42 velocity=75 time=0
45.624929281250004 note_on channel=0 note=59 velocity=80 time=1
45.6300945625 note_on channel=0 note=67 velocity=71 time=1
45.6300945625 note_on channel=2 note=67 velocity=86 time=0
45.6300945625 note_on channel=9 note=35 velocity=105 time=0
45.64559040625 note_off channel=9 note=62 velocity=0 time=3
45.6507556875 note_off channel=9 note=42 velocity=0 time=1
45.66108625 note_off channel=9 note=35 velocity=0 time=2
45.67658209375 note_off channel=3 note=71 velocity=0 time=3
45.826375250000005 note_off channel=2 note=59 velocity=0 time=29
45.847036374999995 note_on channel=4 note=67 velocity=60 time=4
45.847036374999995 note_on channel=4 note=71 velocity=72 time=0
45.85220165625 note_off channel=2 note=67 velocity=0 time=1
45.857366937500004 note_off channel=0 note=67 velocity=0 time=1
45.857366937500004 note_off channel=0 note=50 velocity=0 time=0
45.857366937500004 note_off channel=2 note=50 velocity=0 time=0
45.857366937500004 note_on channel=3 note=71 velocity=104 time=0
45.86253221875 note_off channel=0 note=55 velocity=0 time=1
45.86253221875 note_off channel=0 note=47 velocity=0 time=0
45.86253221875 note_on channel=0 note=67 velocity=82 time=0
45.86253221875 note_off channel=1 note=31 velocity=0 time=0
45.86253221875 note_on channel=1 note=35 velocity=108 time=0
45.86253221875 note_off channel=2 note=55 velocity=0 time=0
45.86253221875 note_on channel=9 note=62 velocity=81 time=0
45.8676975 note_off channel=0 note=59 velocity=0 time=1
45.87286278125 note_on channel=0 note=59 velocity=83 time=1
45.87286278125 note_on channel=2 note=67 velocity=82 time=0
45.87286278125 note_on channel=2 note=59 velocity=80 time=0
45.87286278125 note_on channel=9 note=42 velocity=68 time=0
45.8780280625 note_on channel=2 note=55 velocity=60 time=1
45.88319334375 note_on channel=0 note=55 velocity=80 time=1
45.88319334375 note_on channel=2 note=50 velocity=47 time=0
45.888358625 note_on channel=0 note=50 velocity=69 time=1
45.893523906249996 note_on channel=0 note=47 velocity=71 time=1
45.893523906249996 note_off channel=9 note=62 velocity=0 time=0
45.903854468750005 note_off channel=9 note=42 velocity=0 time=2
45.981333687500005 note_off channel=3 note=71 velocity=0 time=15
45.98649896875 note_on channel=9 note=62 velocity=71 time=1
46.01749065625 note_off channel=9 note=62 velocity=0 time=6
46.0329865 note_off channel=4 note=67 velocity=0 time=3
46.053647625 note_off channel=4 note=71 velocity=0 time=4
46.06914346875 note_on channel=4 note=69 velocity=69 time=3
46.07430875 note_off channel=2 note=67 velocity=0 time=1
46.07947403125 note_off channel=2 note=59 velocity=0 time=1
46.08980459375 note_on channel=4 note=72 velocity=73 time=2
46.094969875 note_off channel=2 note=50 velocity=0 time=1
46.10013515625 note_off channel=0 note=47 velocity=0 time=1
46.10013515625 note_off channel=1 note=35 velocity=0 time=0
46.10013515625 note_on channel=1 note=38 velocity=112 time=0
46.10013515625 note_on channel=3 note=72 velocity=103 time=0
46.105300437500006 note_on channel=9 note=62 velocity=75 time=1
46.11046571875 note_off channel=2 note=55 velocity=0 time=1
46.115631 note_on channel=2 note=50 velocity=63 time=1
46.115631 note_on channel=9 note=40 velocity=111 time=0
46.115631 note_on channel=9 note=42 velocity=80 time=0
46.12079628125 note_on channel=2 note=55 velocity=80 time=1
46.12079628125 note_on channel=2 note=59 velocity=91 time=0
46.125961562499995 note_on channel=2 note=67 velocity=84 time=1
46.136292125000004 note_off channel=9 note=62 velocity=0 time=2
46.1466226875 note_off channel=9 note=40 velocity=0 time=2
46.1466226875 note_off channel=9 note=42 velocity=0 time=0
46.2292671875 note_off channel=3 note=72 velocity=0 time=16
46.23959775 note_off channel=0 note=43 velocity=0 time=2
46.280919999999995 pitchwheel channel=1 pitch=-352 time=8
46.291250562500004 note_off channel=4 note=72 velocity=0 time=2
46.291250562500004 note_off channel=4 note=69 velocity=0 time=0
46.29641584375 pitchwheel channel=1 pitch=-1756 time=1
46.301581125 note_off channel=0 note=67 velocity=0 time=1
46.30674640625 note_on channel=4 note=71 velocity=75 time=1
46.3119116875 pitchwheel channel=1 pitch=-3277 time=1
46.3119116875 note_off channel=2 note=59 velocity=0 time=0
46.32224225 note_off channel=2 note=45 velocity=0 time=2
46.32224225 note_off channel=2 note=67 velocity=0 time=0
46.327407531249996 pitchwheel channel=1 pitch=-4447 time=1
46.327407531249996 note_on channel=4 note=74 velocity=72 time=0
46.3325728125 note_off channel=0 note=50 velocity=0 time=1
46.337738093750005 note_off channel=0 note=59 velocity=0 time=1
46.337738093750005 note_off channel=0 note=55 velocity=0 time=0
46.337738093750005 note_off channel=1 note=38 velocity=0 time=0
46.34806865625 pitchwheel channel=1 pitch=-5149 time=2
46.34806865625 note_on channel=1 note=40 velocity=112 time=0
46.358399218749994 pitchwheel channel=1 pitch=-5500 time=2
46.358399218749994 note_off channel=2 note=50 velocity=0 time=0
46.358399218749994 note_on channel=2 note=64 velocity=84 time=0
46.3635645 note_on channel=0 note=64 velocity=78 time=1
46.3635645 note_off channel=2 note=55 velocity=0 time=0
46.3635645 note_on channel=2 note=59 velocity=86 time=0
46.3635645 note_on channel=9 note=62 velocity=82 time=0
46.36872978125 note_on channel=2 note=56 velocity=72 time=1
46.36872978125 note_on channel=3 note=74 velocity=98 time=0
46.36872978125 note_on channel=9 note=42 velocity=69 time=0
46.36872978125 note_on channel=9 note=35 velocity=107 time=0
46.3738950625 pitchwheel channel=1 pitch=-5266 time=1
46.3738950625 note_on channel=2 note=52 velocity=57 time=0
46.37906034375 note_on channel=2 note=47 velocity=54 time=1
46.384225625 note_on channel=0 note=56 velocity=58 time=1
46.384225625 note_on channel=0 note=52 velocity=51 time=0
46.38939090625 note_on channel=0 note=47 velocity=56 time=1
46.3945561875 pitchwheel channel=1 pitch=-4681 time=1
46.3945561875 note_off channel=9 note=62 velocity=0 time=0
46.39972146875 note_off channel=9 note=42 velocity=0 time=1
46.39972146875 note_off channel=9 note=35 velocity=0 time=0
46.41005203125 pitchwheel channel=1 pitch=-3511 time=2
46.425547875 note_on channel=0 note=40 velocity=34 time=3
46.425547875 pitchwheel channel=1 pitch=-1639 time=0
46.44104371875 pitchwheel channel=1 pitch=0 time=3
46.482365968749995 note_on channel=9 note=62 velocity=69 time=8
46.48753125 note_off channel=3 note=74 velocity=0 time=1
46.51335765625 note_off channel=9 note=62 velocity=0 time=5
46.539184062500006 note_off channel=4 note=71 velocity=0 time=5
46.549514625 note_off channel=4 note=74 velocity=0 time=2
46.56501046875 note_on channel=4 note=72 velocity=56 time=3
46.570175750000004 note_on channel=4 note=74 velocity=55 time=1
46.570175750000004 note_on channel=4 note=76 velocity=69 time=0
46.6011674375 note_on channel=3 note=76 velocity=105 time=6
46.60633271875 note_on channel=9 note=62 velocity=80 time=1
46.611498 note_on channel=9 note=42 velocity=70 time=1
46.6218285625 note_off channel=0 note=56 velocity=0 time=2
46.62699384375 note_on channel=0 note=56 velocity=46 time=1
46.632159125 note_on channel=0 note=59 velocity=51 time=1
46.637324406249995 note_off channel=9 note=62 velocity=0 time=1
46.6424896875 note_off channel=9 note=42 velocity=0 time=1
46.756125875 note_off channel=1 note=40 velocity=0 time=22
46.756125875 note_off channel=3 note=76 velocity=0 time=0
46.797448125 note_off channel=4 note=74 velocity=0 time=8
46.80261340625 note_off channel=4 note=72 velocity=0 time=1
46.80261340625 note_off channel=4 note=76 velocity=0 time=0
46.8077786875 note_on channel=4 note=71 velocity=77 time=1
46.81810925 note_off channel=0 note=64 velocity=0 time=2
46.81810925 note_on channel=4 note=74 velocity=83 time=0
46.83360509375 note_off channel=2 note=64 velocity=0 time=3
46.83360509375 note_off channel=2 note=59 velocity=0 time=0
46.838770374999996 note_off channel=0 note=59 velocity=0 time=1
46.838770374999996 note_on channel=1 note=44 velocity=118 time=0
46.838770374999996 note_off channel=2 note=56 velocity=0 time=0
46.84393565625 note_off channel=0 note=40 velocity=0 time=1
46.84393565625 note_off channel=2 note=52 velocity=0 time=0
46.84393565625 note_on channel=2 note=64 velocity=78 time=0
46.849100937500005 note_off channel=0 note=56 velocity=0 time=1
46.849100937500005 note_on channel=0 note=64 velocity=84 time=0
46.849100937500005 note_off channel=2 note=47 velocity=0 time=0
46.849100937500005 note_on channel=2 note=59 velocity=78 time=0
46.85426621875 note_off channel=0 note=52 velocity=0 time=1
46.85426621875 note_on channel=2 note=56 velocity=61 time=0
46.85426621875 note_on channel=3 note=74 velocity=105 time=0
46.85426621875 note_on channel=9 note=62 velocity=85 time=0
46.8594315 note_on channel=0 note=59 velocity=82 time=1
46.8594315 note_on channel=2 note=52 velocity=47 time=0
46.8594315 note_on channel=9 note=42 velocity=69 time=0
46.86459678125 note_on channel=0 note=56 velocity=69 time=1
46.86459678125 note_on channel=2 note=47 velocity=47 time=0
46.8697620625 note_on channel=0 note=52 velocity=58 time=1
46.88525790625 note_on channel=0 note=40 velocity=38 time=3
46.88525790625 note_off channel=9 note=62 velocity=0 time=0
46.8904231875 note_off channel=9 note=42 velocity=0 time=1
46.97823296875 note_on channel=9 note=62 velocity=76 time=17
47.00922465625 note_off channel=9 note=62 velocity=0 time=6
47.050546906250005 note_off channel=2 note=59 velocity=0 time=8
47.0557121875 note_off channel=0 note=64 velocity=0 time=1
47.0557121875 note_off channel=2 note=56 velocity=0 time=0
47.06087746875 note_off channel=0 note=47 velocity=0 time=1
47.071208031249995 note_off channel=2 note=52 velocity=0 time=2
47.081538593750004 note_off channel=0 note=52 velocity=0 time=2
47.086703875 note_off channel=2 note=64 velocity=0 time=1
47.09186915625 note_on channel=2 note=52 velocity=43 time=1
47.0970344375 note_off channel=0 note=56 velocity=0 time=1
47.0970344375 note_on channel=0 note=47 velocity=55 time=0
47.0970344375 note_on channel=2 note=56 velocity=69 time=0
47.0970344375 note_on channel=2 note=59 velocity=84 time=0
47.10219971875 note_on channel=0 note=52 velocity=56 time=1
47.10219971875 note_on channel=0 note=56 velocity=76 time=0
47.10219971875 note_on channel=2 note=64 velocity=84 time=0
47.10219971875 note_on channel=9 note=42 velocity=75 time=0
47.10219971875 note_on channel=9 note=40 velocity=109 time=0
47.10219971875 note_on channel=9 note=62 velocity=82 time=0
47.107365 note_off channel=0 note=59 velocity=0 time=1
47.11253028125 note_on channel=0 note=59 velocity=75 time=1
47.117695562499996 note_on channel=0 note=64 velocity=54 time=1
47.13319140625 note_off channel=9 note=62 velocity=0 time=3
47.13319140625 note_off channel=9 note=40 velocity=0 time=0
47.13319140625 note_off channel=9 note=42 velocity=0 time=0
47.23133175 note_off channel=3 note=74 velocity=0 time=19
47.293315125 note_off channel=4 note=71 velocity=0 time=12
47.3036456875 note_off channel=1 note=44 velocity=0 time=2
47.3036456875 note_on channel=4 note=69 velocity=66 time=0
47.30881096875 note_off channel=4 note=74 velocity=0 time=1
47.30881096875 note_on channel=4 note=72 velocity=77 time=0
47.3243068125 note_off channel=2 note=59 velocity=0 time=3
47.33980265625 note_off channel=0 note=64 velocity=0 time=3
47.33980265625 note_on channel=1 note=47 velocity=100 time=0
47.33980265625 note_off channel=2 note=56 velocity=0 time=0
47.33980265625 note_off channel=2 note=64 velocity=0 time=0
47.33980265625 note_on channel=3 note=72 velocity=106 time=0
47.3449679375 note_on channel=9 note=42 velocity=69 time=1
47.350133218749995 note_on channel=0 note=64 velocity=74 time=1
47.350133218749995 note_on channel=2 note=64 velocity=72 time=0
47.350133218749995 note_on channel=9 note=62 velocity=82 time=0
47.3552985 note_off channel=0 note=59 velocity=0 time=1
47.3552985 note_on channel=2 note=59 velocity=76 time=0
47.360463781250004 note_on channel=0 note=59 velocity=77 time=1
47.360463781250004 note_on channel=2 note=56 velocity=56 time=0
47.360463781250004 note_on channel=9 note=35 velocity=105 time=0
47.375959625 note_off channel=9 note=42 velocity=0 time=3
47.38112490625 note_off channel=9 note=62 velocity=0 time=1
47.39145546875 note_off channel=9 note=35 velocity=0 time=2
47.42244715625 note_off channel=1 note=47 velocity=0 time=6
47.437943000000004 note_off channel=0 note=52 velocity=0 time=3
47.44310828125 note_off channel=0 note=47 velocity=0 time=1
47.46376940625 note_off channel=0 note=40 velocity=0 time=4
47.4689346875 note_off channel=0 note=56 velocity=0 time=1
47.47409996875 note_on channel=9 note=62 velocity=74 time=1
47.4895958125 note_off channel=2 note=56 velocity=0 time=3
47.49476109375 note_off channel=2 note=47 velocity=0 time=1
47.505091656249995 note_off channel=9 note=62 velocity=0 time=2
47.5102569375 note_off channel=0 note=59 velocity=0 time=1
47.5205875 note_off channel=2 note=52 velocity=0 time=2
47.551579187499996 note_off channel=3 note=72 velocity=0 time=6
47.582570874999995 note_off channel=4 note=69 velocity=0 time=6
47.582570874999995 note_off channel=4 note=72 velocity=0 time=0
47.58773615625 note_on channel=2 note=45 velocity=56 time=1
47.592901437500004 note_on channel=9 note=42 velocity=72 time=1
47.59806671875 note_off channel=0 note=64 velocity=0 time=1
47.59806671875 note_on channel=2 note=52 velocity=74 time=0
47.59806671875 note_on channel=9 note=62 velocity=78 time=0
47.603232 note_on channel=0 note=52 velocity=58 time=1
47.603232 note_on channel=1 note=45 velocity=110 time=0
47.603232 note_off channel=2 note=64 velocity=0 time=0
47.603232 note_on channel=2 note=60 velocity=86 time=0
47.603232 note_on channel=2 note=57 velocity=80 time=0
47.603232 note_on channel=9 note=35 velocity=108 time=0
47.60839728125 note_off channel=2 note=59 velocity=0 time=1
47.60839728125 note_on channel=2 note=64 velocity=85 time=0
47.6135625625 note_on channel=0 note=60 velocity=79 time=1
47.6135625625 note_on channel=0 note=64 velocity=61 time=0
47.6135625625 note_on channel=0 note=57 velocity=76 time=0
47.623893125 note_off channel=9 note=42 velocity=0 time=2
47.629058406249996 note_off channel=9 note=62 velocity=0 time=1
47.6342236875 note_off channel=9 note=35 velocity=0 time=1
47.830504375 note_off channel=2 note=64 velocity=0 time=38
47.830504375 note_on channel=3 note=72 velocity=107 time=0
47.840834937500006 note_off channel=2 note=52 velocity=0 time=2
47.840834937500006 note_on channel=9 note=42 velocity=62 time=0
47.84600021875 note_off channel=0 note=64 velocity=0 time=1
47.84600021875 note_off channel=1 note=45 velocity=0 time=0
47.84600021875 note_on channel=1 note=43 velocity=110 time=0
47.84600021875 note_off channel=2 note=60 velocity=0 time=0
47.84600021875 note_on channel=2 note=64 velocity=87 time=0
47.84600021875 note_on channel=9 note=62 velocity=84 time=0
47.8511655 note_off channel=0 note=52 velocity=0 time=1
47.8511655 note_off channel=2 note=57 velocity=0 time=0
47.8511655 note_on channel=2 note=60 velocity=84 time=0
47.85633078125 note_off channel=0 note=60 velocity=0 time=1
47.85633078125 note_on channel=0 note=64 velocity=82 time=0
47.85633078125 note_on channel=2 note=57 velocity=62 time=0
47.861496062499995 note_on channel=0 note=60 velocity=80 time=1
47.861496062499995 note_on channel=2 note=52 velocity=26 time=0
47.86666134375 note_off channel=0 note=57 velocity=0 time=1
47.871826625000004 note_on channel=0 note=57 velocity=69 time=1
47.871826625000004 note_off channel=9 note=42 velocity=0 time=0
47.87699190625 note_on channel=0 note=52 velocity=45 time=1
47.87699190625 note_off channel=9 note=62 velocity=0 time=0
47.96996696875 note_on channel=9 note=62 velocity=73 time=18
48.00095865625 note_off channel=9 note=62 velocity=0 time=6
48.01128921875 note_off channel=3 note=72 velocity=0 time=2
48.0474461875 note_off channel=2 note=64 velocity=0 time=7
48.05777675 note_off channel=2 note=52 velocity=0 time=2
48.073272593750005 note_off channel=2 note=57 velocity=0 time=3
48.078437875 note_off channel=2 note=45 velocity=0 time=1
48.08360315625 note_off channel=2 note=60 velocity=0 time=1
48.08360315625 note_on channel=2 note=52 velocity=46 time=0
48.0887684375 note_on channel=2 note=57 velocity=65 time=1
48.093933718749994 note_on channel=2 note=60 velocity=81 time=1
48.093933718749994 note_on channel=2 note=64 velocity=74 time=0
48.093933718749994 note_on channel=9 note=40 velocity=109 time=0
48.093933718749994 note_on channel=9 note=42 velocity=65 time=0
48.093933718749994 note_on channel=9 note=62 velocity=77 time=0
48.10426428125 note_on channel=3 note=74 velocity=105 time=2
48.11459484375 note_off channel=1 note=43 velocity=0 time=2
48.11459484375 note_on channel=1 note=42 velocity=109 time=0
48.12492540625 note_off channel=9 note=62 velocity=0 time=2
48.12492540625 note_off channel=9 note=42 velocity=0 time=0
48.12492540625 note_off channel=9 note=40 velocity=0 time=0
48.140421249999996 note_off channel=0 note=52 velocity=0 time=3
48.150751812500005 note_off channel=0 note=57 velocity=0 time=2
48.16624765625 note_off channel=0 note=60 velocity=0 time=3
48.20756990625 note_off channel=2 note=64 velocity=0 time=8
48.23856159375 note_off channel=2 note=57 velocity=0 time=6
48.23856159375 note_off channel=2 note=52 velocity=0 time=0
48.24889215625 note_off channel=2 note=60 velocity=0 time=2
48.25922271875 note_off channel=0 note=64 velocity=0 time=2
48.25922271875 note_off channel=3 note=74 velocity=0 time=0
48.305710250000004 note_on channel=3 note=76 velocity=103 time=9
48.3367019375 note_on channel=0 note=66 velocity=83 time=6
48.34186721875 note_on channel=0 note=60 velocity=82 time=1
48.34186721875 note_on channel=2 note=50 velocity=68 time=0
48.34186721875 note_on channel=9 note=35 velocity=107 time=0
48.34186721875 note_on channel=9 note=42 velocity=65 time=0
48.3470325 note_off channel=1 note=42 velocity=0 time=1
48.3470325 note_on channel=9 note=62 velocity=82 time=0
48.352197781250005 note_on channel=1 note=40 velocity=109 time=1
48.352197781250005 note_on channel=2 note=57 velocity=80 time=0
48.3573630625 note_on channel=0 note=57 velocity=76 time=1
48.3573630625 note_on channel=2 note=60 velocity=86 time=0
48.36252834375 note_on channel=0 note=50 velocity=55 time=1
48.36252834375 note_on channel=2 note=66 velocity=87 time=0
48.367693625 note_on channel=0 note=45 velocity=45 time=1
48.372858906249995 note_off channel=9 note=42 velocity=0 time=1
48.372858906249995 note_off channel=9 note=35 velocity=0 time=0
48.3780241875 note_off channel=9 note=62 velocity=0 time=1
48.46583396875 note_on channel=9 note=62 velocity=64 time=17
48.47099925 note_off channel=3 note=76 velocity=0 time=1
48.491660375 note_off channel=1 note=40 velocity=0 time=4
48.491660375 note_on channel=1 note=38 velocity=112 time=0
48.496825656249996 note_off channel=9 note=62 velocity=0 time=1
48.579470156250004 note_on channel=3 note=78 velocity=101 time=16
48.58980071875 note_on channel=9 note=42 velocity=68 time=2
48.58980071875 note_on channel=9 note=62 velocity=78 time=0
48.60013128125 note_off channel=1 note=38 velocity=0 time=2
48.62079240625 note_off channel=9 note=62 velocity=0 time=4
48.62079240625 note_off channel=9 note=42 velocity=0 time=0
48.739593875000004 note_on channel=1 note=38 velocity=115 time=23
48.7912466875 note_off channel=2 note=66 velocity=0 time=10
48.8119078125 note_off channel=2 note=60 velocity=0 time=4
48.817073093750004 note_off channel=2 note=57 velocity=0 time=1
48.817073093750004 note_off channel=3 note=78 velocity=0 time=0
48.82740365625 note_off channel=0 note=66 velocity=0 time=2
48.82740365625 note_on channel=3 note=74 velocity=106 time=0
48.8325689375 note_off channel=0 note=60 velocity=0 time=1
48.8325689375 note_on channel=0 note=66 velocity=82 time=0
48.8325689375 note_on channel=2 note=66 velocity=88 time=0
48.8325689375 note_on channel=2 note=60 velocity=85 time=0
48.8325689375 note_on channel=2 note=57 velocity=67 time=0
48.83773421875 note_on channel=0 note=60 velocity=84 time=1
48.83773421875 note_on channel=9 note=42 velocity=66 time=0
48.83773421875 note_on channel=9 note=62 velocity=82 time=0
48.8428995 note_off channel=0 note=57 velocity=0 time=1
48.84806478125 note_off channel=0 note=50 velocity=0 time=1
48.84806478125 note_on channel=0 note=57 velocity=68 time=0
48.85839534375 note_off channel=1 note=38 velocity=0 time=2
48.85839534375 note_on channel=1 note=36 velocity=102 time=0
48.863560625000005 note_on channel=0 note=50 velocity=37 time=1
48.86872590625 note_off channel=9 note=62 velocity=0 time=1
48.86872590625 note_off channel=9 note=42 velocity=0 time=0
48.961700968749994 note_on channel=9 note=62 velocity=70 time=18
48.99269265625 note_off channel=9 note=62 velocity=0 time=6
49.04434546875 note_off channel=2 note=50 velocity=0 time=10
49.0598413125 note_off channel=2 note=57 velocity=0 time=3
49.065006593750006 note_on channel=2 note=50 velocity=54 time=1
49.065006593750006 note_off channel=3 note=74 velocity=0 time=0
49.07533715625 note_off channel=1 note=36 velocity=0 time=2
49.07533715625 note_off channel=2 note=60 velocity=0 time=0
49.07533715625 note_on channel=2 note=57 velocity=78 time=0
49.0805024375 note_off channel=0 note=66 velocity=0 time=1
49.0805024375 note_off channel=0 note=57 velocity=0 time=0
49.0805024375 note_off channel=2 note=66 velocity=0 time=0
49.0805024375 note_on channel=2 note=60 velocity=84 time=0
49.085667718749995 note_on channel=0 note=57 velocity=62 time=1
49.085667718749995 note_on channel=2 note=66 velocity=87 time=0
49.085667718749995 note_on channel=9 note=42 velocity=68 time=0
49.085667718749995 note_on channel=9 note=40 velocity=111 time=0
49.085667718749995 note_on channel=9 note=62 velocity=81 time=0
49.090833 note_off channel=0 note=60 velocity=0 time=1
49.090833 note_on channel=1 note=35 velocity=114 time=0
49.095998281250004 note_on channel=0 note=60 velocity=75 time=1
49.1011635625 note_on channel=0 note=66 velocity=47 time=1
49.11665940625 note_off channel=9 note=62 velocity=0 time=3
49.11665940625 note_off channel=9 note=40 velocity=0 time=0
49.11665940625 note_off channel=9 note=42 velocity=0 time=0
49.3077748125 note_off channel=0 note=66 velocity=0 time=37
49.32327065625 note_off channel=0 note=57 velocity=0 time=3
49.32327065625 note_off channel=2 note=60 velocity=0 time=0
49.32327065625 note_on channel=3 note=79 velocity=106 time=0
49.328435937500004 note_off channel=2 note=66 velocity=0 time=1
49.33360121875 note_off channel=0 note=60 velocity=0 time=1
49.33360121875 note_on channel=2 note=66 velocity=84 time=0
49.33360121875 note_on channel=9 note=42 velocity=63 time=0
49.33360121875 note_on channel=9 note=35 velocity=100 time=0
49.33360121875 note_on channel=9 note=62 velocity=82 time=0
49.3387665 note_on channel=0 note=60 velocity=47 time=1
49.3387665 note_on channel=0 note=66 velocity=41 time=0
49.3387665 note_off channel=1 note=35 velocity=0 time=0
49.3387665 note_on channel=1 note=33 velocity=110 time=0
49.3387665 note_on channel=2 note=60 velocity=80 time=0
49.3490970625 note_on channel=0 note=57 velocity=28 time=2
49.364592906249996 note_off channel=9 note=62 velocity=0 time=3
49.364592906249996 note_off channel=9 note=35 velocity=0 time=0
49.364592906249996 note_off channel=9 note=42 velocity=0 time=0
49.43690684375 note_off channel=2 note=60 velocity=0 time=14
49.442072124999996 note_off channel=2 note=66 velocity=0 time=1
49.447237406250004 note_off channel=2 note=57 velocity=0 time=1
49.45756796875 note_on channel=9 note=62 velocity=69 time=2
49.48855965625 note_off channel=9 note=62 velocity=0 time=6
49.4937249375 note_off channel=2 note=50 velocity=0 time=1
49.5040555 note_off channel=0 note=66 velocity=0 time=2
49.50922078125 note_off channel=0 note=45 velocity=0 time=1
49.519551343749995 note_off channel=1 note=33 velocity=0 time=2
49.56087359375 note_off channel=0 note=50 velocity=0 time=8
49.576369437500006 note_on channel=2 note=43 velocity=26 time=3
49.576369437500006 note_on channel=9 note=62 velocity=74 time=0
49.58153471875 note_on channel=0 note=43 velocity=60 time=1
49.58153471875 note_on channel=2 note=47 velocity=78 time=0
49.58153471875 note_on channel=9 note=42 velocity=63 time=0
49.5867 note_on channel=0 note=50 velocity=36 time=1
49.5867 note_on channel=1 note=31 velocity=103 time=0
49.5867 note_on channel=2 note=50 velocity=74 time=0
49.5867 note_on channel=2 note=55 velocity=79 time=0
49.59186528125 note_off channel=0 note=57 velocity=0 time=1
49.59186528125 note_on channel=0 note=47 velocity=57 time=0
49.59186528125 note_on channel=2 note=59 velocity=84 time=0
49.59186528125 note_on channel=9 note=35 velocity=107 time=0
49.597030562499995 note_off channel=0 note=60 velocity=0 time=1
49.597030562499995 note_on channel=0 note=55 velocity=40 time=0
49.597030562499995 note_on channel=2 note=67 velocity=76 time=0
49.607361125000004 note_off channel=9 note=62 velocity=0 time=2
49.61252640625 note_off channel=9 note=42 velocity=0 time=1
49.62285696875 note_off channel=9 note=35 velocity=0 time=2
49.798476531249996 note_off channel=0 note=47 velocity=0 time=34
49.813972375 note_off channel=2 note=67 velocity=0 time=3
49.8243029375 note_off channel=1 note=31 velocity=0 time=2
49.8243029375 note_on channel=1 note=35 velocity=104 time=0
49.829468218749994 note_on channel=0 note=67 velocity=82 time=1
49.829468218749994 note_on channel=0 note=59 velocity=83 time=0
49.829468218749994 note_on channel=9 note=42 velocity=68 time=0
49.829468218749994 note_on channel=9 note=62 velocity=80 time=0
49.8346335 note_off channel=0 note=50 velocity=0 time=1
49.8346335 note_off channel=2 note=59 velocity=0 time=0
49.8346335 note_on channel=2 note=67 velocity=86 time=0
49.83979878125 note_off channel=0 note=55 velocity=0 time=1
49.83979878125 note_on channel=2 note=59 velocity=84 time=0
49.8449640625 note_on channel=0 note=55 velocity=74 time=1
49.855294625 note_on channel=0 note=50 velocity=52 time=2
49.86045990625 note_on channel=0 note=47 velocity=67 time=1
49.86045990625 note_off channel=9 note=62 velocity=0 time=0
49.86045990625 note_off channel=9 note=42 velocity=0 time=0
49.953434968749995 note_on channel=9 note=62 velocity=76 time=18
49.98442665625 note_off channel=9 note=62 velocity=0 time=6
50.041244750000004 note_off channel=2 note=50 velocity=0 time=11
50.061905875 note_off channel=2 note=55 velocity=0 time=4
50.0722364375 note_off channel=1 note=35 velocity=0 time=2
50.0722364375 note_on channel=1 note=38 velocity=108 time=0
50.0722364375 note_off channel=2 note=59 velocity=0 time=0
50.0722364375 note_on channel=2 note=50 velocity=49 time=0
50.07740171875 note_off channel=2 note=67 velocity=0 time=1
50.07740171875 note_on channel=2 note=55 velocity=62 time=0
50.07740171875 note_on channel=2 note=59 velocity=63 time=0
50.07740171875 note_on channel=9 note=42 velocity=66 time=0
50.07740171875 note_on channel=9 note=62 velocity=78 time=0
50.082567 note_on channel=2 note=67 velocity=36 time=1
50.087732281250005 note_on channel=9 note=40 velocity=113 time=1
50.108393406249995 note_off channel=9 note=62 velocity=0 time=4
50.108393406249995 note_off channel=9 note=42 velocity=0 time=0
50.118723968750004 note_off channel=9 note=40 velocity=0 time=2
50.27368240625 note_off channel=2 note=50 velocity=0 time=30
50.2788476875 note_off channel=2 note=55 velocity=0 time=1
50.28401296875 note_off channel=2 note=67 velocity=0 time=1
50.315004656250004 note_off channel=2 note=43 velocity=0 time=6
50.315004656250004 note_off channel=2 note=59 velocity=0 time=0
50.320169937500005 note_off channel=1 note=38 velocity=0 time=1
50.320169937500005 note_on channel=1 note=43 velocity=103 time=0
50.320169937500005 note_on channel=2 note=67 velocity=86 time=0
50.32533521875 note_off channel=0 note=43 velocity=0 time=1
50.32533521875 note_off channel=0 note=59 velocity=0 time=0
50.32533521875 note_on channel=2 note=59 velocity=88 time=0
50.32533521875 note_on channel=2 note=55 velocity=79 time=0
50.32533521875 note_on channel=9 note=42 velocity=72 time=0
50.3305005 note_off channel=0 note=67 velocity=0 time=1
50.3305005 note_off channel=2 note=47 velocity=0 time=0
50.3305005 note_on channel=2 note=50 velocity=69 time=0
50.3305005 note_on channel=9 note=62 velocity=87 time=0
50.33566578125 note_on channel=0 note=67 velocity=78 time=1
50.33566578125 note_on channel=2 note=43 velocity=57 time=0
50.33566578125 note_on channel=2 note=47 velocity=74 time=0
50.33566578125 note_on channel=9 note=35 velocity=107 time=0
50.3408310625 note_on channel=0 note=59 velocity=82 time=1
50.35632690625 note_on channel=0 note=43 velocity=60 time=3
50.35632690625 note_off channel=9 note=42 velocity=0 time=0
50.3614921875 note_off channel=9 note=62 velocity=0 time=1
50.366657468750006 note_off channel=9 note=35 velocity=0 time=1
50.44930196875 note_on channel=9 note=62 velocity=66 time=16
50.48029365625 note_off channel=9 note=62 velocity=0 time=6
50.5681034375 note_on channel=9 note=62 velocity=84 time=17
50.599095125000005 note_off channel=9 note=62 velocity=0 time=6
50.8160369375 note_on channel=6 note=79 velocity=108 time=42
50.8263675 note_on channel=0 note=71 velocity=82 time=2
50.8366980625 note_on channel=7 note=59 velocity=77 time=2
50.898681437499995 note_off channel=6 note=79 velocity=0 time=12
50.92450784375 note_off channel=7 note=59 velocity=0 time=5
50.929673125 note_off channel=0 note=71 velocity=0 time=1
50.970995375 note_off channel=3 note=79 velocity=0 time=8
51.06913571875 note_on channel=7 note=59 velocity=77 time=19
51.074301 note_on channel=0 note=71 velocity=83 time=1
51.07946628125 note_on channel=6 note=79 velocity=104 time=1
51.100127406249996 note_off channel=0 note=43 velocity=0 time=4
51.100127406249996 note_off channel=0 note=47 velocity=0 time=0
51.131119093749994 note_off channel=0 note=55 velocity=0 time=6
51.136284375 note_off channel=0 note=59 velocity=0 time=1
51.14144965625 note_off channel=6 note=79 velocity=0 time=1
51.1466149375 note_off channel=0 note=67 velocity=0 time=1
51.15178021875 note_off channel=0 note=50 velocity=0 time=1
51.15178021875 note_off channel=7 note=59 velocity=0 time=0
51.187937187500005 note_off channel=0 note=71 velocity=0 time=7
51.218928875 note_off channel=1 note=43 velocity=0 time=6
51.3222345 note_on channel=0 note=71 velocity=83 time=20
51.32739978125 note_on channel=6 note=79 velocity=102 time=1
51.32739978125 note_on channel=7 note=59 velocity=80 time=0
51.384217875 note_off channel=2 note=43 velocity=0 time=11
51.384217875 note_off channel=6 note=79 velocity=0 time=0
51.3945484375 note_off channel=7 note=59 velocity=0 time=2
51.39971371875 note_off channel=2 note=47 velocity=0 time=1
51.404879 note_off channel=0 note=71 velocity=0 time=1
51.51334990625 note_off channel=2 note=67 velocity=0 time=21
51.534011031249996 note_off channel=2 note=50 velocity=0 time=4
51.544341593750005 note_off channel=2 note=55 velocity=0 time=2
51.549506875 note_on channel=2 note=47 velocity=66 time=1
51.55467215625 note_on channel=2 note=50 velocity=74 time=1
51.5598374375 note_off channel=2 note=59 velocity=0 time=1
51.5598374375 note_on channel=2 note=55 velocity=82 time=0
51.565002718749994 note_on channel=2 note=59 velocity=86 time=1
51.565002718749994 note_on channel=2 note=67 velocity=85 time=0
51.565002718749994 note_on channel=7 note=59 velocity=90 time=0
51.570168 note_on channel=1 note=43 velocity=111 time=1
51.57533328125 note_on channel=6 note=79 velocity=108 time=1
51.57533328125 note_on channel=9 note=35 velocity=108 time=0
51.59599440625 note_on channel=0 note=67 velocity=77 time=4
51.60632496875 note_off channel=9 note=35 velocity=0 time=2
51.611490249999996 note_on channel=0 note=71 velocity=82 time=1
51.79227509375 note_off channel=2 note=67 velocity=0 time=35
51.812936218749996 note_off channel=2 note=59 velocity=0 time=4
51.812936218749996 note_on channel=2 note=67 velocity=79 time=0
51.823266781250005 note_on channel=2 note=62 velocity=73 time=2
51.8284320625 note_on channel=2 note=59 velocity=34 time=1
51.91624184375 note_off channel=2 note=47 velocity=0 time=17
51.92657240625 note_off channel=2 note=50 velocity=0 time=2
51.92657240625 note_off channel=2 note=55 velocity=0 time=0
52.055704437500005 note_on channel=2 note=50 velocity=51 time=25
52.066035 note_on channel=2 note=55 velocity=35 time=2
52.0763655625 note_off channel=2 note=59 velocity=0 time=2
52.179671187500006 note_off channel=1 note=43 velocity=0 time=20
52.27264625 note_off channel=2 note=62 velocity=0 time=18
52.3036379375 note_off channel=2 note=67 velocity=0 time=6
52.30880321875 note_on channel=1 note=42 velocity=116 time=1
52.30880321875 note_on channel=9 note=35 velocity=93 time=0
52.3139685 note_on channel=2 note=59 velocity=73 time=1
52.31913378125 note_on channel=2 note=62 velocity=80 time=1
52.31913378125 note_on channel=9 note=41 velocity=66 time=0
52.324299062499996 note_on channel=2 note=67 velocity=81 time=1
52.32946434375 note_off channel=0 note=71 velocity=0 time=1
52.33979490625 note_off channel=9 note=35 velocity=0 time=2
52.35012546875 note_off channel=0 note=67 velocity=0 time=2
52.35012546875 note_off channel=9 note=41 velocity=0 time=0
52.484422781250004 note_off channel=6 note=79 velocity=0 time=26
52.51541446875 note_off channel=7 note=59 velocity=0 time=6
52.541240875 note_on channel=0 note=66 velocity=82 time=5
52.561902 note_on channel=0 note=69 velocity=88 time=4
52.567067281250004 note_on channel=6 note=78 velocity=104 time=1
52.567067281250004 note_on channel=7 note=57 velocity=81 time=0
52.567067281250004 note_on channel=9 note=35 velocity=110 time=0
52.567067281250004 note_on channel=9 note=41 velocity=73 time=0
52.59805896875 note_off channel=9 note=41 velocity=0 time=6
52.59805896875 note_off channel=9 note=35 velocity=0 time=0
52.768513250000005 note_off channel=2 note=55 velocity=0 time=33
52.79433965625 note_off channel=2 note=67 velocity=0 time=5
52.80467021875 note_off channel=1 note=42 velocity=0 time=2
52.80467021875 note_on channel=1 note=43 velocity=108 time=0
52.8098355 note_on channel=2 note=55 velocity=80 time=1
52.8098355 note_on channel=2 note=67 velocity=80 time=0
53.047438437500006 note_off channel=2 note=50 velocity=0 time=46
53.057769 note_on channel=2 note=50 velocity=49 time=2
53.06293428125 note_off channel=1 note=43 velocity=0 time=1
53.06293428125 note_on channel=1 note=42 velocity=113 time=0
53.068099562499995 note_on channel=9 note=35 velocity=107 time=1
53.09909125 note_off channel=9 note=35 velocity=0 time=6
53.269545531249996 note_off channel=0 note=66 velocity=0 time=33
53.269545531249996 note_off channel=1 note=42 velocity=0 time=0
53.2747108125 note_off channel=0 note=69 velocity=0 time=1
53.300537218749994 note_off channel=2 note=55 velocity=0 time=5
53.300537218749994 note_off channel=2 note=67 velocity=0 time=0
53.3057025 note_off channel=2 note=59 velocity=0 time=1
53.3057025 note_off channel=2 note=62 velocity=0 time=0
53.3057025 note_on channel=2 note=67 velocity=83 time=0
53.31086778125 note_on channel=2 note=62 velocity=80 time=1
53.3160330625 note_on channel=2 note=59 velocity=71 time=1
53.3160330625 note_on channel=2 note=55 velocity=56 time=0
53.4606609375 note_off channel=6 note=78 velocity=0 time=28
53.512313750000004 note_off channel=2 note=67 velocity=0 time=10
53.5226443125 note_off channel=2 note=55 velocity=0 time=2
53.52780959375 note_off channel=2 note=62 velocity=0 time=1
53.532974875 note_off channel=7 note=57 velocity=0 time=1
53.53814015625 note_off channel=2 note=59 velocity=0 time=1
53.53814015625 note_on channel=2 note=47 velocity=62 time=0
53.5433054375 note_off channel=2 note=50 velocity=0 time=1
53.5433054375 note_on channel=2 note=59 velocity=51 time=0
53.548470718749996 note_on channel=2 note=52 velocity=70 time=1
53.553636 note_on channel=1 note=40 velocity=111 time=1
53.553636 note_on channel=2 note=55 velocity=77 time=0
53.558801281250005 note_on channel=0 note=64 velocity=84 time=1
53.558801281250005 note_on channel=7 note=55 velocity=78 time=0
53.5639665625 note_on channel=6 note=76 velocity=104 time=1
53.5639665625 note_on channel=9 note=35 velocity=98 time=0
53.579462406249995 note_on channel=0 note=67 velocity=88 time=3
53.59495825 note_off channel=9 note=35 velocity=0 time=3
53.79640421875 note_off channel=2 note=59 velocity=0 time=39
53.79640421875 note_on channel=2 note=64 velocity=87 time=0
53.8015695 note_on channel=2 note=59 velocity=84 time=1
53.8119000625 note_on channel=9 note=41 velocity=69 time=2
53.84289175 note_off channel=9 note=41 velocity=0 time=6
54.04433771875 note_on channel=9 note=40 velocity=62 time=39
54.059833562499996 note_on channel=9 note=35 velocity=107 time=3
54.07532940625 note_off channel=9 note=40 velocity=0 time=3
54.090825249999995 note_off channel=9 note=35 velocity=0 time=3
54.2044614375 note_off channel=1 note=40 velocity=0 time=22
54.276775375 note_on channel=1 note=35 velocity=113 time=14
54.2871059375 note_off channel=2 note=55 velocity=0 time=2
54.292271218749995 note_on channel=9 note=40 velocity=52 time=1
54.2974365 note_on channel=2 note=55 velocity=56 time=1
54.32326290625 note_off channel=9 note=40 velocity=0 time=5
54.493717187499996 note_off channel=2 note=64 velocity=0 time=33
54.52987415625 note_off channel=2 note=59 velocity=0 time=7
54.535039437500004 note_off channel=2 note=52 velocity=0 time=1
54.54020471875 note_off channel=2 note=55 velocity=0 time=1
54.54020471875 note_on channel=2 note=59 velocity=72 time=0
54.54537 note_on channel=2 note=52 velocity=72 time=1
54.54537 note_on channel=2 note=64 velocity=77 time=0
54.54537 note_on channel=2 note=55 velocity=84 time=0
54.77780765625 note_off channel=2 note=47 velocity=0 time=45
54.78813821875 note_off channel=2 note=52 velocity=0 time=2
54.79846878125 note_on channel=2 note=47 velocity=62 time=2
54.79846878125 note_on channel=2 note=52 velocity=72 time=0
55.015410593750005 note_off channel=2 note=47 velocity=0 time=42
55.020575875 note_off channel=2 note=52 velocity=0 time=1
55.0309064375 note_off channel=2 note=59 velocity=0 time=2
55.0309064375 note_on channel=2 note=47 velocity=71 time=0
55.036071718749994 note_off channel=1 note=35 velocity=0 time=1
55.036071718749994 note_on channel=1 note=31 velocity=109 time=0
55.036071718749994 note_off channel=2 note=64 velocity=0 time=0
55.036071718749994 note_off channel=2 note=55 velocity=0 time=0
55.036071718749994 note_on channel=2 note=59 velocity=79 time=0
55.036071718749994 note_on channel=2 note=52 velocity=75 time=0
55.041237 note_on channel=2 note=64 velocity=50 time=1
55.041237 note_on channel=2 note=55 velocity=85 time=0
55.14970790625 note_off channel=0 note=67 velocity=0 time=21
55.14970790625 note_off channel=0 note=64 velocity=0 time=0
55.237517687499995 note_off channel=2 note=64 velocity=0 time=17
55.2581788125 note_off channel=2 note=59 velocity=0 time=4
55.268509375 note_off channel=1 note=31 velocity=0 time=2
55.268509375 note_on channel=2 note=64 velocity=66 time=0
55.2788399375 note_off channel=2 note=55 velocity=0 time=2
55.284005218749996 note_off channel=2 note=52 velocity=0 time=1
55.284005218749996 note_on channel=2 note=59 velocity=82 time=0
55.284005218749996 note_on channel=2 note=55 velocity=77 time=0
55.2891705 note_on channel=2 note=52 velocity=69 time=1
55.2995010625 note_off channel=7 note=55 velocity=0 time=2
55.309831625 note_off channel=6 note=76 velocity=0 time=2
55.495781750000006 note_off channel=2 note=52 velocity=0 time=36
55.495781750000006 note_off channel=2 note=47 velocity=0 time=0
55.495781750000006 note_off channel=2 note=64 velocity=0 time=0
55.5061123125 note_off channel=2 note=55 velocity=0 time=2
55.51127759375 note_off channel=2 note=59 velocity=0 time=1
55.516442874999996 note_on channel=7 note=47 velocity=66 time=1
55.521608156250004 note_on channel=0 note=52 velocity=85 time=1
55.53193871875 note_on channel=1 note=28 velocity=106 time=2
55.53193871875 note_on channel=6 note=67 velocity=83 time=0
55.537104 note_on channel=2 note=52 velocity=79 time=1
55.54226928125 note_on channel=9 note=35 velocity=98 time=1
55.55259984375 note_on channel=9 note=40 velocity=85 time=2
55.573260968750006 note_off channel=9 note=35 velocity=0 time=4
55.58359153125 note_off channel=9 note=40 velocity=0 time=2
55.723054125 note_off channel=0 note=52 velocity=0 time=27
55.77987221875 note_off channel=1 note=28 velocity=0 time=11
55.77987221875 note_on channel=1 note=31 velocity=106 time=0
55.77987221875 note_on channel=6 note=71 velocity=97 time=0
55.7850375 note_on channel=7 note=52 velocity=67 time=1
55.79020278125 note_on channel=2 note=55 velocity=76 time=1
55.805698625000005 note_off channel=6 note=67 velocity=0 time=3
55.81086390625 note_on channel=0 note=55 velocity=74 time=1
55.86251671875 note_off channel=7 note=47 velocity=0 time=10
55.970987625 note_off channel=0 note=55 velocity=0 time=21
56.01747515625 note_on channel=2 note=59 velocity=82 time=9
56.0226404375 note_off channel=1 note=31 velocity=0 time=1
56.0226404375 note_on channel=1 note=35 velocity=110 time=0
56.0226404375 note_on channel=7 note=55 velocity=78 time=0
56.027805718749995 note_on channel=6 note=76 velocity=80 time=1
56.038136281250004 note_off channel=6 note=71 velocity=0 time=2
56.04846684375 note_on channel=0 note=59 velocity=75 time=2
56.06912796875 note_off channel=7 note=52 velocity=0 time=4
56.229251687499996 note_off channel=0 note=59 velocity=0 time=31
56.25507809375 note_off channel=2 note=52 velocity=0 time=5
56.260243374999995 note_on channel=7 note=59 velocity=73 time=1
56.26540865625 note_on channel=2 note=64 velocity=75 time=1
56.27573921875 note_on channel=0 note=64 velocity=83 time=2
56.27573921875 note_off channel=1 note=35 velocity=0 time=0
56.27573921875 note_on channel=1 note=40 velocity=108 time=0
56.27573921875 note_on channel=6 note=79 velocity=88 time=0
56.301565625 note_off channel=7 note=55 velocity=0 time=5
56.3325573125 note_off channel=6 note=76 velocity=0 time=6
56.466854625 note_off channel=2 note=64 velocity=0 time=26
56.472019906250004 note_off channel=2 note=59 velocity=0 time=1
56.508176875 note_off channel=0 note=64 velocity=0 time=7
56.51334215625 note_on channel=7 note=64 velocity=66 time=1
56.518507437500006 note_on channel=2 note=59 velocity=87 time=1
56.518507437500006 note_on channel=2 note=67 velocity=88 time=0
56.518507437500006 note_on channel=6 note=83 velocity=102 time=0
56.52367271875 note_on channel=0 note=67 velocity=88 time=1
56.528838 note_off channel=1 note=40 velocity=0 time=1
56.528838 note_on channel=1 note=43 velocity=103 time=0
56.53400328125 note_off channel=6 note=79 velocity=0 time=1
56.5804908125 note_off channel=7 note=59 velocity=0 time=9
56.65280475 note_off channel=2 note=55 velocity=0 time=14
56.66830059375 note_off channel=2 note=59 velocity=0 time=3
56.67863115625 note_off channel=2 note=67 velocity=0 time=2
56.73028396875 note_off channel=6 note=83 velocity=0 time=10
56.740614531249996 note_off channel=0 note=67 velocity=0 time=2
56.750945093750005 note_off channel=7 note=64 velocity=0 time=2
56.86458128125 note_off channel=1 note=43 velocity=0 time=22
57.024705 note_on channel=3 note=59 velocity=105 time=31
57.41210109375 note_off channel=3 note=59 velocity=0 time=75
57.51540671875 note_on channel=6 note=47 velocity=94 time=20
57.520572 MetaMessage('time_signature', numerator=3, denominator=4, clocks_per_click=24, notated_32nd_notes_per_beat=8, time=1)
57.520572 note_on channel=2 note=47 velocity=76 time=0
57.520572 note_on channel=2 note=52 velocity=74 time=0
57.520572 note_on channel=2 note=55 velocity=84 time=0
57.520572 note_on channel=9 note=35 velocity=104 time=0
57.520572 note_on channel=9 note=42 velocity=64 time=0
57.52573728125 note_on channel=1 note=40 velocity=111 time=1
57.52573728125 note_on channel=2 note=59 velocity=86 time=0
57.52573728125 note_on channel=3 note=71 velocity=103 time=0
57.530902562499996 note_on channel=2 note=64 velocity=82 time=1
57.5515636875 note_off channel=9 note=42 velocity=0 time=4
57.5515636875 note_off channel=9 note=35 velocity=0 time=0
57.7581749375 note_on channel=9 note=42 velocity=61 time=40
57.789166625 note_off channel=9 note=42 velocity=0 time=6
57.81499303125 note_off channel=2 note=47 velocity=0 time=5
57.830488875 note_off channel=2 note=52 velocity=0 time=3
57.851150000000004 note_off channel=2 note=59 velocity=0 time=4
57.8614805625 note_off channel=2 note=55 velocity=0 time=2
57.871811125 note_on channel=2 note=52 velocity=59 time=2
57.87697640625 note_on channel=2 note=47 velocity=56 time=1
57.887306968749996 note_on channel=2 note=55 velocity=74 time=2
57.9028028125 note_off channel=2 note=64 velocity=0 time=3
57.9028028125 note_on channel=2 note=59 velocity=86 time=0
57.9234639375 note_on channel=2 note=64 velocity=78 time=4
57.954455625 note_on channel=0 note=62 velocity=46 time=6
57.995777874999995 note_on channel=0 note=67 velocity=48 time=8
58.00094315625 note_on channel=9 note=42 velocity=59 time=1
58.006108437500004 note_on channel=9 note=37 velocity=105 time=1
58.03193484375 note_on channel=0 note=71 velocity=65 time=5
58.03193484375 control_change channel=7 control=11 value=122 time=0
58.03193484375 note_off channel=9 note=42 velocity=0 time=0
58.037100125 note_off channel=9 note=37 velocity=0 time=1
58.0474306875 control_change channel=7 control=11 value=114 time=2
58.052595968750005 note_off channel=1 note=40 velocity=0 time=1
58.06292653125 note_on channel=0 note=76 velocity=66 time=2
58.0680918125 control_change channel=7 control=11 value=106 time=1
58.08358765625 control_change channel=7 control=11 value=97 time=3
58.099083500000006 control_change channel=7 control=11 value=87 time=3
58.11457934375 control_change channel=7 control=11 value=76 time=3
58.130075187500005 control_change channel=7 control=11 value=66 time=3
58.14557103125 control_change channel=7 control=11 value=55 time=3
58.161066875 control_change channel=7 control=11 value=45 time=3
58.176562718750006 control_change channel=7 control=11 value=36 time=3
58.1920585625 control_change channel=7 control=11 value=28 time=3
58.197223843749995 note_off channel=2 note=64 velocity=0 time=1
58.207554406250004 control_change channel=7 control=11 value=22 time=2
58.207554406250004 note_on channel=7 note=81 velocity=118 time=0
58.22305025 control_change channel=7 control=11 value=19 time=3
58.22305025 note_on channel=9 note=46 velocity=59 time=0
58.23854609375 note_off channel=2 note=59 velocity=0 time=3
58.24887665625 note_on channel=2 note=64 velocity=64 time=2
58.254041937500006 note_on channel=1 note=35 velocity=111 time=1
58.254041937500006 note_on channel=2 note=59 velocity=69 time=0
58.254041937500006 note_off channel=9 note=46 velocity=0 time=0
58.25920721875 note_on channel=9 note=35 velocity=97 time=1
58.29019890625 note_off channel=9 note=35 velocity=0 time=6
58.3366864375 control_change channel=7 control=11 value=23 time=9
58.352182281249995 control_change channel=7 control=11 value=25 time=3
58.367678125 control_change channel=7 control=11 value=27 time=3
58.38317396875 control_change channel=7 control=11 value=30 time=3
58.398669812499996 control_change channel=7 control=11 value=33 time=3
58.41416565625 control_change channel=7 control=11 value=37 time=3
58.429661499999995 control_change channel=7 control=11 value=41 time=3
58.44515734375 control_change channel=7 control=11 value=46 time=3
58.4606531875 control_change channel=7 control=11 value=51 time=3
58.476149031249996 control_change channel=7 control=11 value=56 time=3
58.491644875 note_off channel=1 note=35 velocity=0 time=3
58.491644875 control_change channel=7 control=11 value=61 time=0
58.49681015625 note_off channel=2 note=59 velocity=0 time=1
58.5019754375 note_on channel=2 note=59 velocity=51 time=1
58.50714071875 control_change channel=7 control=11 value=67 time=1
58.50714071875 note_on channel=9 note=42 velocity=66 time=0
58.5226365625 control_change channel=7 control=11 value=73 time=3
58.53813240625 control_change channel=7 control=11 value=78 time=3
58.53813240625 note_off channel=9 note=42 velocity=0 time=0
58.553628249999996 control_change channel=7 control=11 value=83 time=3
58.56912409375 control_change channel=7 control=11 value=88 time=3
58.58978521875 control_change channel=7 control=11 value=93 time=4
58.6052810625 control_change channel=7 control=11 value=98 time=3
58.62077690625 control_change channel=7 control=11 value=102 time=3
58.63627275 control_change channel=7 control=11 value=106 time=3
58.65176859375 control_change channel=7 control=11 value=110 time=3
58.6672644375 control_change channel=7 control=11 value=114 time=3
58.68276028125 control_change channel=7 control=11 value=120 time=3
58.698256125 control_change channel=7 control=11 value=126 time=3
58.71375196875 control_change channel=7 control=11 value=127 time=3
58.72408253125 note_off channel=2 note=64 velocity=0 time=2
58.73441309375 note_off channel=2 note=59 velocity=0 time=2
58.739578375 note_on channel=1 note=31 velocity=103 time=1
58.739578375 note_on channel=2 note=64 velocity=71 time=0
58.74474365625 note_off channel=2 note=55 velocity=0 time=1
58.74474365625 note_on channel=2 note=59 velocity=72 time=0
58.7499089375 note_on channel=2 note=55 velocity=55 time=1
58.7499089375 note_on channel=9 note=37 velocity=112 time=0
58.7602395 note_on channel=9 note=42 velocity=66 time=2
58.780900625 note_off channel=9 note=37 velocity=0 time=4
58.7912311875 note_off channel=9 note=42 velocity=0 time=2
58.8738756875 control_change channel=7 control=11 value=126 time=16
58.88937153125 control_change channel=7 control=11 value=118 time=3
58.904867375 control_change channel=7 control=11 value=107 time=3
58.920363218750005 control_change channel=7 control=11 value=93 time=3
58.9358590625 note_off channel=1 note=31 velocity=0 time=3
58.9358590625 control_change channel=7 control=11 value=78 time=0
58.95135490625 control_change channel=7 control=11 value=63 time=3
58.966850750000006 control_change channel=7 control=11 value=51 time=3
58.97201603125 note_off channel=2 note=47 velocity=0 time=1
58.98234659375 note_off channel=2 note=64 velocity=0 time=2
58.98234659375 note_on channel=7 note=76 velocity=108 time=0
58.98234659375 control_change channel=7 control=11 value=43 time=0
58.987511874999996 note_on channel=1 note=28 velocity=107 time=1
58.987511874999996 note_off channel=2 note=52 velocity=0 time=0
58.987511874999996 note_off channel=2 note=55 velocity=0 time=0
58.987511874999996 note_on channel=2 note=47 velocity=58 time=0
58.992677156250004 note_off channel=2 note=59 velocity=0 time=1
58.992677156250004 note_on channel=2 note=52 velocity=62 time=0
58.997842437500005 note_on channel=2 note=55 velocity=75 time=1
58.997842437500005 note_on channel=2 note=59 velocity=84 time=0
58.997842437500005 control_change channel=7 control=11 value=39 time=0
58.997842437500005 note_on channel=9 note=35 velocity=97 time=0
59.00300771875 note_on channel=2 note=64 velocity=75 time=1
59.008173 note_on channel=9 note=42 velocity=65 time=1
59.01333828125 control_change channel=7 control=11 value=37 time=1
59.028834125 note_off channel=9 note=35 velocity=0 time=3
59.0391646875 note_off channel=9 note=42 velocity=0 time=2
59.0598258125 control_change channel=7 control=11 value=43 time=4
59.075321656250004 note_off channel=7 note=81 velocity=0 time=3
59.075321656250004 control_change channel=7 control=11 value=47 time=0
59.09598278125 control_change channel=7 control=11 value=52 time=4
59.111478625 control_change channel=7 control=11 value=57 time=3
59.12697446875 control_change channel=7 control=11 value=62 time=3
59.142470312499995 control_change channel=7 control=11 value=67 time=3
59.15796615625 control_change channel=7 control=11 value=72 time=3
59.173462 control_change channel=7 control=11 value=76 time=3
59.188957843749996 control_change channel=7 control=11 value=80 time=3
59.2044536875 control_change channel=7 control=11 value=84 time=3
59.219949531249995 control_change channel=7 control=11 value=87 time=3
59.2251148125 note_off channel=2 note=64 velocity=0 time=1
59.235445375 control_change channel=7 control=11 value=91 time=2
59.2457759375 note_on channel=2 note=64 velocity=36 time=2
59.25094121875 note_on channel=9 note=42 velocity=64 time=1
59.2561065 control_change channel=7 control=11 value=94 time=1
59.266437062499996 note_off channel=1 note=28 velocity=0 time=2
59.266437062499996 control_change channel=7 control=11 value=97 time=0
59.28193290625 control_change channel=7 control=11 value=101 time=3
59.28193290625 note_off channel=9 note=42 velocity=0 time=0
59.297428749999995 control_change channel=7 control=11 value=104 time=3
59.318089875 control_change channel=7 control=11 value=107 time=4
59.33358571875 control_change channel=7 control=11 value=111 time=3
59.343916281249996 control_change channel=7 control=11 value=115 time=2
59.359412125 control_change channel=7 control=11 value=120 time=3
59.37490796875 control_change channel=7 control=11 value=124 time=3
59.3904038125 control_change channel=7 control=11 value=126 time=3
59.442056625 note_off channel=2 note=52 velocity=0 time=10
59.44722190625 note_off channel=2 note=55 velocity=0 time=1
59.4937094375 note_on channel=1 note=31 velocity=104 time=9
59.4937094375 note_off channel=2 note=64 velocity=0 time=0
59.4937094375 note_on channel=2 note=52 velocity=47 time=0
59.4937094375 note_on channel=9 note=37 velocity=100 time=0
59.4937094375 note_on channel=9 note=42 velocity=68 time=0
59.50404 note_off channel=2 note=59 velocity=0 time=2
59.50404 note_on channel=2 note=55 velocity=63 time=0
59.509205281250004 note_on channel=2 note=59 velocity=77 time=1
59.5143705625 note_on channel=2 note=64 velocity=54 time=1
59.524701125 note_off channel=9 note=42 velocity=0 time=2
59.524701125 note_off channel=9 note=37 velocity=0 time=0
59.700320687499996 note_off channel=2 note=52 velocity=0 time=34
59.71581653125 note_off channel=2 note=64 velocity=0 time=3
59.72614709375 note_off channel=2 note=47 velocity=0 time=2
59.731312374999995 note_off channel=2 note=55 velocity=0 time=1
59.73647765625 note_off channel=2 note=59 velocity=0 time=1
59.7416429375 note_off channel=1 note=31 velocity=0 time=1
59.7416429375 note_on channel=2 note=64 velocity=70 time=0
59.7416429375 note_on channel=9 note=46 velocity=64 time=0
59.74680821875 note_on channel=2 note=59 velocity=79 time=1
59.74680821875 note_on channel=9 note=35 velocity=98 time=0
59.75713878125 note_on channel=2 note=55 velocity=69 time=2
59.7623040625 note_on channel=2 note=52 velocity=51 time=1
59.76746934375 note_on channel=2 note=47 velocity=70 time=1
59.772634625 note_off channel=9 note=46 velocity=0 time=1
59.777799906249996 note_off channel=9 note=35 velocity=0 time=1
59.80879159375 note_off channel=3 note=71 velocity=0 time=6
59.97408059375 note_off channel=2 note=52 velocity=0 time=32
59.98441115625 note_off channel=2 note=55 velocity=0 time=2
59.98441115625 note_off channel=2 note=64 velocity=0 time=0
59.98441115625 note_on channel=3 note=69 velocity=100 time=0
59.989576437500006 note_on channel=1 note=35 velocity=107 time=1
59.99474171875 note_off channel=2 note=59 velocity=0 time=1
59.99474171875 note_on channel=2 note=52 velocity=65 time=0
59.99474171875 note_on channel=2 note=55 velocity=83 time=0
59.99474171875 note_on channel=9 note=42 velocity=76 time=0
59.999907 note_on channel=2 note=59 velocity=84 time=1
60.010237562499995 note_on channel=2 note=64 velocity=75 time=2
60.02573340625 note_off channel=9 note=42 velocity=0 time=3
60.11870846875 note_off channel=6 note=47 velocity=0 time=18
60.20651825 note_off channel=1 note=35 velocity=0 time=17
60.2168488125 note_off channel=2 note=64 velocity=0 time=2
60.2375099375 note_on channel=2 note=64 velocity=60 time=4
60.24267521875 note_on channel=9 note=37 velocity=116 time=1
60.24267521875 note_on channel=9 note=42 velocity=66 time=0
60.2581710625 note_off channel=2 note=47 velocity=0 time=3
60.27366690625 note_off channel=9 note=42 velocity=0 time=3
60.27366690625 note_off channel=9 note=37 velocity=0 time=0
60.43895590625 note_off channel=2 note=64 velocity=0 time=32
60.454451750000004 note_off channel=0 note=71 velocity=0 time=3
60.45961703125 note_off channel=0 note=67 velocity=0 time=1
60.46994759375 note_off channel=2 note=52 velocity=0 time=2
60.475112875 note_off channel=0 note=76 velocity=0 time=1
60.475112875 note_off channel=2 note=55 velocity=0 time=0
60.48027815625 note_on channel=1 note=36 velocity=101 time=1
60.48027815625 note_on channel=2 note=52 velocity=58 time=0
60.4854434375 note_off channel=2 note=59 velocity=0 time=1
60.4854434375 note_on channel=2 note=48 velocity=48 time=0
60.4854434375 note_on channel=2 note=55 velocity=78 time=0
60.490608718749996 note_off channel=0 note=62 velocity=0 time=1
60.495774 note_on channel=2 note=59 velocity=82 time=1
60.495774 note_off channel=3 note=69 velocity=0 time=0
60.495774 note_on channel=3 note=64 velocity=104 time=0
60.495774 note_on channel=6 note=48 velocity=102 time=0
60.495774 note_on channel=9 note=42 velocity=68 time=0
60.500939281250005 note_on channel=2 note=64 velocity=66 time=1
60.500939281250005 note_on channel=9 note=35 velocity=99 time=0
60.5267656875 note_off channel=9 note=42 velocity=0 time=5
60.531930968750004 note_off channel=9 note=35 velocity=0 time=1
60.59391434375 note_off channel=7 note=76 velocity=0 time=12
60.70755053125 control_change channel=7 control=11 value=121 time=22
60.723046374999996 control_change channel=7 control=11 value=118 time=3
60.728211656250004 note_off channel=2 note=64 velocity=0 time=1
60.733376937500005 control_change channel=7 control=11 value=114 time=1
60.73854221875 note_on channel=2 note=64 velocity=58 time=1
60.7437075 note_on channel=9 note=42 velocity=65 time=1
60.7540380625 control_change channel=7 control=11 value=109 time=2
60.76953390625 control_change channel=7 control=11 value=105 time=3
60.7746991875 note_off channel=9 note=42 velocity=0 time=1
60.78502975 control_change channel=7 control=11 value=99 time=2
60.800525593749995 control_change channel=7 control=11 value=94 time=3
60.8160214375 control_change channel=7 control=11 value=87 time=3
60.83151728125 control_change channel=7 control=11 value=80 time=3
60.847013125 control_change channel=7 control=11 value=73 time=3
60.85217840625 note_on channel=0 note=62 velocity=38 time=1
60.86250896875 control_change channel=7 control=11 value=65 time=2
60.878004812499995 control_change channel=7 control=11 value=56 time=3
60.89350065625 control_change channel=7 control=11 value=48 time=3
60.8986659375 note_on channel=0 note=67 velocity=42 time=1
60.9089965 control_change channel=7 control=11 value=41 time=2
60.924492343749996 control_change channel=7 control=11 value=37 time=3
60.9399881875 control_change channel=7 control=11 value=34 time=3
60.94515346875 note_on channel=7 note=74 velocity=116 time=1
60.9606493125 note_on channel=0 note=71 velocity=65 time=3
60.97614515625 note_off channel=2 note=52 velocity=0 time=3
60.9813104375 note_on channel=2 note=52 velocity=41 time=1
60.98647571875 note_off channel=2 note=55 velocity=0 time=1
60.991641 note_off channel=2 note=59 velocity=0 time=1
60.991641 note_on channel=2 note=55 velocity=53 time=0
60.99680628125 note_on channel=0 note=76 velocity=64 time=1
60.99680628125 note_on channel=2 note=59 velocity=52 time=0
60.99680628125 note_on channel=9 note=37 velocity=98 time=0
60.99680628125 note_on channel=9 note=42 velocity=68 time=0
61.02779796875 note_off channel=9 note=42 velocity=0 time=6
61.02779796875 note_off channel=9 note=37 velocity=0 time=0
61.03812853125 control_change channel=7 control=11 value=37 time=2
61.053624375 control_change channel=7 control=11 value=40 time=3
61.06912021875 control_change channel=7 control=11 value=43 time=3
61.0846160625 control_change channel=7 control=11 value=47 time=3
61.10011190625 control_change channel=7 control=11 value=51 time=3
61.11560775 control_change channel=7 control=11 value=55 time=3
61.13110359375 control_change channel=7 control=11 value=59 time=3
61.1465994375 control_change channel=7 control=11 value=64 time=3
61.162095281250004 control_change channel=7 control=11 value=69 time=3
61.177591125 control_change channel=7 control=11 value=74 time=3
61.19825225 control_change channel=7 control=11 value=80 time=4
61.213748093750006 control_change channel=7 control=11 value=85 time=3
61.2292439375 note_off channel=2 note=64 velocity=0 time=3
61.2292439375 control_change channel=7 control=11 value=91 time=0
61.234409218749995 note_off channel=2 note=59 velocity=0 time=1
61.234409218749995 note_on channel=2 note=64 velocity=72 time=0
61.234409218749995 note_on channel=9 note=46 velocity=68 time=0
61.2395745 note_on channel=2 note=59 velocity=80 time=1
61.244739781250004 note_off channel=2 note=55 velocity=0 time=1
61.244739781250004 control_change channel=7 control=11 value=97 time=0
61.244739781250004 note_on channel=9 note=35 velocity=99 time=0
61.2499050625 note_on channel=2 note=55 velocity=65 time=1
61.25507034375 note_off channel=2 note=48 velocity=0 time=1
61.260235625 control_change channel=7 control=11 value=104 time=1
61.26540090625 note_off channel=9 note=46 velocity=0 time=1
61.27573146875 control_change channel=7 control=11 value=110 time=2
61.27573146875 note_off channel=9 note=35 velocity=0 time=0
61.291227312500006 control_change channel=7 control=11 value=116 time=3
61.30672315625 control_change channel=7 control=11 value=122 time=3
61.322219000000004 control_change channel=7 control=11 value=126 time=3
61.487508 note_on channel=9 note=42 velocity=73 time=32
61.5184996875 note_off channel=9 note=42 velocity=0 time=6
61.70961509375 note_off channel=2 note=64 velocity=0 time=37
61.73027621875 note_off channel=2 note=59 velocity=0 time=4
61.73027621875 note_off channel=2 note=55 velocity=0 time=0
61.73027621875 note_on channel=2 note=64 velocity=86 time=0
61.73027621875 note_on channel=9 note=42 velocity=69 time=0
61.73027621875 note_on channel=9 note=37 velocity=116 time=0
61.7354415 note_on channel=2 note=59 velocity=83 time=1
61.74060678125 note_off channel=2 note=52 velocity=0 time=1
61.74060678125 note_on channel=2 note=55 velocity=72 time=0
61.745772062499995 note_on channel=2 note=52 velocity=56 time=1
61.75093734375 note_on channel=2 note=48 velocity=54 time=1
61.76126790625 note_off channel=9 note=37 velocity=0 time=2
61.76126790625 note_off channel=9 note=42 velocity=0 time=0
61.87490409375 note_off channel=1 note=36 velocity=0 time=22
61.96787915625 note_off channel=2 note=52 velocity=0 time=18
61.9730444375 note_off channel=2 note=55 velocity=0 time=1
61.9730444375 note_on channel=9 note=42 velocity=69 time=0
61.97820971875 note_on channel=9 note=35 velocity=90 time=1
61.983375 note_on channel=1 note=31 velocity=110 time=1
61.983375 note_off channel=2 note=64 velocity=0 time=0
61.983375 note_on channel=2 note=52 velocity=66 time=0
61.983375 control_change channel=7 control=11 value=122 time=0
61.98854028125 note_on channel=2 note=55 velocity=83 time=1
61.9937055625 note_on channel=2 note=64 velocity=85 time=1
62.004036125000006 control_change channel=7 control=11 value=121 time=2
62.004036125000006 note_off channel=9 note=42 velocity=0 time=0
62.00920140625 note_off channel=9 note=35 velocity=0 time=1
62.01953196875 control_change channel=7 control=11 value=119 time=2
62.05052365625 control_change channel=7 control=11 value=117 time=6
62.06085421875 control_change channel=7 control=11 value=115 time=2
62.081515343750006 control_change channel=7 control=11 value=113 time=4
62.0970111875 control_change channel=7 control=11 value=111 time=3
62.112507031250004 control_change channel=7 control=11 value=110 time=3
62.128002875 control_change channel=7 control=11 value=108 time=3
62.19515153125 note_off channel=2 note=64 velocity=0 time=13
62.21581265625 note_on channel=9 note=42 velocity=64 time=4
62.2209779375 control_change channel=7 control=11 value=112 time=1
62.2313085 note_on channel=2 note=64 velocity=71 time=2
62.236473781250005 note_off channel=2 note=59 velocity=0 time=1
62.236473781250005 control_change channel=7 control=11 value=116 time=0
62.2416390625 note_on channel=2 note=59 velocity=71 time=1
62.24680434375 note_off channel=9 note=42 velocity=0 time=1
62.257134906249995 control_change channel=7 control=11 value=123 time=2
62.27263075 control_change channel=7 control=11 value=126 time=3
62.4482503125 note_off channel=2 note=52 velocity=0 time=34
62.458580874999996 note_off channel=2 note=55 velocity=0 time=2
62.463746156250004 note_off channel=2 note=59 velocity=0 time=1
62.463746156250004 note_on channel=2 note=52 velocity=54 time=0
62.47407671875 note_on channel=2 note=55 velocity=71 time=2
62.47407671875 note_on channel=2 note=59 velocity=79 time=0
62.47407671875 note_on channel=9 note=42 velocity=44 time=0
62.479242 note_on channel=9 note=37 velocity=120 time=1
62.50506840625 note_off channel=9 note=42 velocity=0 time=5
62.5102336875 note_off channel=9 note=37 velocity=0 time=1
62.6755226875 note_off channel=2 note=55 velocity=0 time=32
62.6961838125 note_off channel=2 note=64 velocity=0 time=4
62.6961838125 control_change channel=7 control=11 value=123 time=0
62.71167965625 note_off channel=2 note=59 velocity=0 time=3
62.71167965625 control_change channel=7 control=11 value=121 time=0
62.7168449375 note_on channel=2 note=64 velocity=78 time=1
62.72201021875 note_on channel=2 note=59 velocity=81 time=1
62.72201021875 note_on channel=9 note=46 velocity=78 time=0
62.7271755 note_on channel=2 note=55 velocity=78 time=1
62.7271755 control_change channel=7 control=11 value=119 time=0
62.7271755 note_on channel=9 note=35 velocity=104 time=0
62.73234078125 note_off channel=2 note=48 velocity=0 time=1
62.74267134375 note_on channel=2 note=48 velocity=61 time=2
62.74267134375 control_change channel=7 control=11 value=117 time=0
62.75300190625 note_off channel=9 note=46 velocity=0 time=2
62.7581671875 note_off channel=9 note=35 velocity=0 time=1
62.76333246875 control_change channel=7 control=11 value=115 time=1
62.7788283125 control_change channel=7 control=11 value=113 time=3
62.78399359375 note_off channel=3 note=64 velocity=0 time=1
62.79432415625 control_change channel=7 control=11 value=112 time=2
62.80982 control_change channel=7 control=11 value=110 time=3
62.825315843750005 control_change channel=7 control=11 value=109 time=3
62.8408116875 control_change channel=7 control=11 value=107 time=3
62.88729921875 control_change channel=7 control=11 value=105 time=9
62.9854395625 note_on channel=9 note=42 velocity=78 time=19
63.01643125 note_off channel=9 note=42 velocity=0 time=6
63.026761812500006 note_off channel=7 note=74 velocity=0 time=2
63.15589384375 note_off channel=6 note=48 velocity=0 time=25
63.202381374999995 note_off channel=2 note=64 velocity=0 time=9
63.20754665625 note_on channel=2 note=64 velocity=62 time=1
63.2127119375 note_off channel=2 note=59 velocity=0 time=1
63.21787721875 note_on channel=2 note=59 velocity=64 time=1
63.2230425 note_on channel=9 note=42 velocity=72 time=1
63.22820778125 note_on channel=9 note=37 velocity=110 time=1
63.2540341875 note_off channel=9 note=42 velocity=0 time=5
63.259199468750005 note_off channel=9 note=37 velocity=0 time=1
63.26953003125 note_off channel=2 note=52 velocity=0 time=2
63.34184396875 control_change channel=7 control=11 value=125 time=14
63.35217453125 note_off channel=2 note=48 velocity=0 time=2
63.3573398125 control_change channel=7 control=11 value=120 time=1
63.37283565625 note_off channel=2 note=55 velocity=0 time=3
63.37283565625 control_change channel=7 control=11 value=114 time=0
63.3883315 control_change channel=7 control=11 value=108 time=3
63.403827343749995 control_change channel=7 control=11 value=100 time=3
63.4193231875 control_change channel=7 control=11 value=90 time=3
63.43481903125 note_off channel=0 note=67 velocity=0 time=3
63.43481903125 control_change channel=7 control=11 value=79 time=0
63.4399843125 note_off channel=0 note=71 velocity=0 time=1
63.44514959375 note_off channel=0 note=76 velocity=0 time=1
63.450314875 note_on channel=6 note=49 velocity=97 time=1
63.450314875 control_change channel=7 control=11 value=66 time=0
63.45548015625 note_off channel=1 note=31 velocity=0 time=1
63.45548015625 note_off channel=2 note=64 velocity=0 time=0
63.460645437500006 note_off channel=2 note=59 velocity=0 time=1
63.46581071875 note_on channel=1 note=37 velocity=106 time=1
63.46581071875 control_change channel=7 control=11 value=50 time=0
63.470976 note_off channel=0 note=62 velocity=0 time=1
63.470976 note_on channel=2 note=49 velocity=75 time=0
63.470976 note_on channel=7 note=69 velocity=110 time=0
63.470976 note_on channel=9 note=42 velocity=72 time=0
63.476141281249994 note_on channel=2 note=55 velocity=82 time=1
63.476141281249994 note_on channel=3 note=69 velocity=106 time=0
63.476141281249994 note_on channel=9 note=35 velocity=98 time=0
63.4813065625 note_on channel=2 note=52 velocity=69 time=1
63.4813065625 control_change channel=7 control=11 value=31 time=0
63.48647184375 note_on channel=2 note=59 velocity=86 time=1
63.48647184375 note_on channel=2 note=64 velocity=84 time=0
63.496802406250005 control_change channel=7 control=11 value=14 time=2
63.5019676875 note_off channel=9 note=42 velocity=0 time=1
63.50713296874999 note_off channel=9 note=35 velocity=0 time=1
63.51229825000001 control_change channel=7 control=11 value=5 time=1
63.52779409375 control_change channel=7 control=11 value=3 time=3
63.58977746875001 control_change channel=7 control=11 value=7 time=12
63.6052733125 control_change channel=7 control=11 value=10 time=3
63.6259344375 control_change channel=7 control=11 value=14 time=4
63.64143028125 control_change channel=7 control=11 value=18 time=3
63.656926125 control_change channel=7 control=11 value=22 time=3
63.67242196875 control_change channel=7 control=11 value=25 time=3
63.687917812500004 control_change channel=7 control=11 value=28 time=3
63.70341365625 control_change channel=7 control=11 value=31 time=3
63.7189095 control_change channel=7 control=11 value=34 time=3
63.7189095 note_on channel=9 note=42 velocity=64 time=0
63.73440534375 control_change channel=7 control=11 value=37 time=3
63.7499011875 control_change channel=7 control=11 value=40 time=3
63.7499011875 note_off channel=9 note=42 velocity=0 time=0
63.765397031250004 control_change channel=7 control=11 value=44 time=3
63.780892875 control_change channel=7 control=11 value=47 time=3
63.79638871875 control_change channel=7 control=11 value=50 time=3
63.8118845625 control_change channel=7 control=11 value=54 time=3
63.832545687499994 control_change channel=7 control=11 value=57 time=4
63.84804153125 control_change channel=7 control=11 value=61 time=3
63.85837209375 note_on channel=0 note=67 velocity=49 time=2
63.86353737499999 control_change channel=7 control=11 value=64 time=1
63.879033218749996 control_change channel=7 control=11 value=67 time=3
63.88936378125 control_change channel=7 control=11 value=71 time=2
63.904859625 note_on channel=0 note=71 velocity=64 time=3
63.904859625 control_change channel=7 control=11 value=74 time=0
63.92035546875 note_off channel=2 note=52 velocity=0 time=3
63.92552075 control_change channel=7 control=11 value=77 time=1
63.94101659374999 control_change channel=7 control=11 value=81 time=3
63.95134715625 note_on channel=2 note=52 velocity=28 time=2
63.956512437499995 note_on channel=3 note=71 velocity=102 time=1
63.956512437499995 control_change channel=7 control=11 value=84 time=0
63.966843 note_on channel=0 note=76 velocity=62 time=2
63.966843 note_on channel=9 note=37 velocity=101 time=0
63.966843 note_on channel=9 note=42 velocity=65 time=0
63.97200828125 note_off channel=3 note=69 velocity=0 time=1
63.97200828125 control_change channel=7 control=11 value=88 time=0
63.987504124999994 control_change channel=7 control=11 value=91 time=3
63.9978346875 note_off channel=9 note=42 velocity=0 time=2
63.9978346875 note_off channel=9 note=37 velocity=0 time=0
64.00299996874999 control_change channel=7 control=11 value=94 time=1
64.01849581249999 control_change channel=7 control=11 value=97 time=3
64.03399165625 control_change channel=7 control=11 value=100 time=3
64.0494875 control_change channel=7 control=11 value=102 time=3
64.06498334375 control_change channel=7 control=11 value=104 time=3
64.08047918749999 control_change channel=7 control=11 value=106 time=3
64.09597503124999 control_change channel=7 control=11 value=108 time=3
64.111470875 control_change channel=7 control=11 value=110 time=3
64.12696671875 control_change channel=7 control=11 value=111 time=3
64.14762784375 control_change channel=7 control=11 value=113 time=4
64.1631236875 control_change channel=7 control=11 value=115 time=3
64.16828896875 note_off channel=2 note=64 velocity=0 time=1
64.17861953125 control_change channel=7 control=11 value=117 time=2
64.18895009375 note_off channel=2 note=59 velocity=0 time=2
64.19411537500001 control_change channel=7 control=11 value=120 time=1
64.19928065625 note_off channel=2 note=52 velocity=0 time=1
64.2044459375 note_off channel=2 note=55 velocity=0 time=1
64.2044459375 note_on channel=2 note=64 velocity=86 time=0
64.20961121875 note_on channel=2 note=59 velocity=86 time=1
64.20961121875 control_change channel=7 control=11 value=122 time=0
64.2147765 note_on channel=2 note=55 velocity=82 time=1
64.2147765 note_on channel=9 note=35 velocity=105 time=0
64.21994178125 note_off channel=2 note=49 velocity=0 time=1
64.21994178125 note_on channel=2 note=52 velocity=59 time=0
64.21994178125 note_on channel=9 note=46 velocity=58 time=0
64.2251070625 note_on channel=2 note=49 velocity=69 time=1
64.2251070625 control_change channel=7 control=11 value=125 time=0
64.2457681875 note_off channel=9 note=35 velocity=0 time=4
64.25093346874999 note_off channel=9 note=46 velocity=0 time=1
64.27159459375001 control_change channel=7 control=11 value=127 time=4
64.43688359375 note_off channel=2 note=52 velocity=0 time=32
64.4523794375 note_off channel=3 note=71 velocity=0 time=3
64.4523794375 note_on channel=3 note=74 velocity=95 time=0
64.45754471875 note_on channel=2 note=52 velocity=44 time=1
64.46271 note_on channel=9 note=42 velocity=72 time=1
64.4937016875 note_off channel=9 note=42 velocity=0 time=6
64.68481709375 note_off channel=2 note=64 velocity=0 time=37
64.689982375 note_off channel=2 note=59 velocity=0 time=1
64.69514765625 note_on channel=2 note=64 velocity=56 time=1
64.70547821875 note_off channel=2 note=55 velocity=0 time=2
64.70547821875 note_on channel=2 note=59 velocity=64 time=0
64.70547821875 note_off channel=3 note=74 velocity=0 time=0
64.7106435 control_change channel=7 control=11 value=126 time=1
64.7106435 note_on channel=9 note=37 velocity=112 time=0
64.7106435 note_on channel=9 note=42 velocity=68 time=0
64.71580878124999 note_on channel=2 note=55 velocity=42 time=1
64.7209740625 note_on channel=3 note=76 velocity=101 time=1
64.73130462499999 control_change channel=7 control=11 value=123 time=2
64.7416351875 note_off channel=9 note=42 velocity=0 time=2
64.7416351875 note_off channel=9 note=37 velocity=0 time=0
64.74680046875 control_change channel=7 control=11 value=119 time=1
64.7622963125 control_change channel=7 control=11 value=114 time=3
64.77779215625 control_change channel=7 control=11 value=109 time=3
64.7829574375 note_off channel=1 note=37 velocity=0 time=1
64.79328799999999 control_change channel=7 control=11 value=103 time=2
64.79845328125 note_off channel=7 note=69 velocity=0 time=1
64.80878384374999 control_change channel=7 control=11 value=97 time=2
64.81394912500001 note_off channel=2 note=49 velocity=0 time=1
64.8242796875 control_change channel=7 control=11 value=90 time=2
64.82944496875001 note_off channel=2 note=52 velocity=0 time=1
64.83977553125 control_change channel=7 control=11 value=82 time=2
64.855271375 note_off channel=6 note=49 velocity=0 time=3
64.855271375 control_change channel=7 control=11 value=74 time=0
64.87076721874999 control_change channel=7 control=11 value=64 time=3
64.88109778125 note_on channel=7 note=67 velocity=107 time=2
64.89142834375001 control_change channel=7 control=11 value=54 time=2
64.90175890625 control_change channel=7 control=11 value=44 time=2
64.91725475 control_change channel=7 control=11 value=37 time=3
64.93275059375 note_off channel=2 note=59 velocity=0 time=3
64.93275059375 control_change channel=7 control=11 value=33 time=0
64.937915875 note_off channel=2 note=64 velocity=0 time=1
64.94308115625 note_on channel=1 note=36 velocity=103 time=1
64.94824643749999 note_on channel=6 note=48 velocity=94 time=1
64.94824643749999 control_change channel=7 control=11 value=31 time=0
64.95341171875 note_on channel=2 note=48 velocity=77 time=1
64.95341171875 note_on channel=9 note=42 velocity=69 time=0
64.958577 note_off channel=2 note=55 velocity=0 time=1
64.96374228124999 note_on channel=2 note=55 velocity=83 time=1
64.96374228124999 note_on channel=9 note=35 velocity=98 time=0
64.96890756250001 note_on channel=2 note=52 velocity=75 time=1
64.96890756250001 note_on channel=2 note=59 velocity=84 time=0
64.97407284375 note_on channel=2 note=64 velocity=72 time=1
64.98440340625001 note_off channel=9 note=42 velocity=0 time=2
64.99473396875 note_off channel=9 note=35 velocity=0 time=2
64.99989925 control_change channel=7 control=11 value=36 time=1
65.01539509375 control_change channel=7 control=11 value=40 time=3
65.0308909375 control_change channel=7 control=11 value=44 time=3
65.04638678125 control_change channel=7 control=11 value=48 time=3
65.06188262500001 control_change channel=7 control=11 value=52 time=3
65.07737846875 control_change channel=7 control=11 value=55 time=3
65.0928743125 control_change channel=7 control=11 value=58 time=3
65.10837015625 control_change channel=7 control=11 value=61 time=3
65.123866 control_change channel=7 control=11 value=64 time=3
65.13936184375001 control_change channel=7 control=11 value=67 time=3
65.1548576875 control_change channel=7 control=11 value=70 time=3
65.16518825 note_off channel=2 note=64 velocity=0 time=2
65.1755188125 control_change channel=7 control=11 value=72 time=2
65.19101465625 control_change channel=7 control=11 value=75 time=3
65.19617993749999 note_on channel=2 note=64 velocity=56 time=1
65.20651050000001 control_change channel=7 control=11 value=79 time=2
65.20651050000001 note_on channel=9 note=42 velocity=66 time=0
65.22200634375 control_change channel=7 control=11 value=82 time=3
65.2375021875 control_change channel=7 control=11 value=86 time=3
65.2375021875 note_off channel=9 note=42 velocity=0 time=0
65.25299803125 control_change channel=7 control=11 value=89 time=3
65.268493875 control_change channel=7 control=11 value=91 time=3
65.27365915624999 note_off channel=0 note=67 velocity=0 time=1
65.28398971875001 control_change channel=7 control=11 value=94 time=2
65.289155 note_off channel=0 note=71 velocity=0 time=1
65.2994855625 control_change channel=7 control=11 value=95 time=2
65.31498140625 control_change channel=7 control=11 value=97 time=3
65.33047725 control_change channel=7 control=11 value=99 time=3
65.34597309375 control_change channel=7 control=11 value=100 time=3
65.35113837499999 note_on channel=0 note=67 velocity=44 time=1
65.35630365625 note_off channel=0 note=76 velocity=0 time=1
65.3614689375 control_change channel=7 control=11 value=102 time=1
65.37696478125 control_change channel=7 control=11 value=103 time=3
65.392460625 control_change channel=7 control=11 value=105 time=3
65.4027911875 note_on channel=0 note=71 velocity=62 time=2
65.4234523125 note_off channel=2 note=52 velocity=0 time=4
65.4234523125 note_off channel=2 note=48 velocity=0 time=0
65.4234523125 control_change channel=7 control=11 value=107 time=0
65.433782875 note_off channel=2 note=55 velocity=0 time=2
65.43894815625 control_change channel=7 control=11 value=109 time=1
65.4441134375 note_on channel=2 note=48 velocity=34 time=1
65.4441134375 note_on channel=2 note=52 velocity=37 time=0
65.4441134375 note_on channel=9 note=37 velocity=104 time=0
65.44927871875001 note_on channel=9 note=42 velocity=70 time=1
65.454444 note_on channel=2 note=55 velocity=31 time=1
65.454444 control_change channel=7 control=11 value=110 time=0
65.46993984375 note_on channel=0 note=76 velocity=56 time=3
65.46993984375 control_change channel=7 control=11 value=112 time=0
65.475105125 note_off channel=9 note=37 velocity=0 time=1
65.48027040625 note_off channel=9 note=42 velocity=0 time=1
65.49060096875 control_change channel=7 control=11 value=114 time=2
65.50609681249999 control_change channel=7 control=11 value=116 time=3
65.52159265625 control_change channel=7 control=11 value=118 time=3
65.53192321875 control_change channel=7 control=11 value=119 time=2
65.55258434375 control_change channel=7 control=11 value=121 time=4
65.5680801875 control_change channel=7 control=11 value=123 time=3
65.58357603124999 control_change channel=7 control=11 value=125 time=3
65.6300635625 control_change channel=7 control=11 value=127 time=9
65.6507246875 note_off channel=2 note=59 velocity=0 time=4
65.6713858125 note_off channel=2 note=64 velocity=0 time=4
65.68688165625 note_on channel=2 note=64 velocity=88 time=3
65.6920469375 note_off channel=2 note=55 velocity=0 time=1
65.6920469375 note_on channel=2 note=59 velocity=84 time=0
65.69721221875001 note_off channel=2 note=52 velocity=0 time=1
65.69721221875001 note_on channel=9 note=46 velocity=63 time=0
65.69721221875001 note_on channel=9 note=35 velocity=98 time=0
65.7023775 note_on channel=2 note=55 velocity=82 time=1
65.70754278125 note_on channel=2 note=52 velocity=68 time=1
65.723038625 note_off channel=2 note=48 velocity=0 time=3
65.72820390625 note_on channel=2 note=48 velocity=49 time=1
65.72820390625 note_off channel=9 note=35 velocity=0 time=0
65.72820390625 note_off channel=9 note=46 velocity=0 time=0
65.85217065625001 control_change channel=7 control=11 value=126 time=24
65.888327625 note_off channel=3 note=76 velocity=0 time=7
65.8986581875 control_change channel=7 control=11 value=123 time=2
65.93481515625 note_on channel=3 note=79 velocity=100 time=7
65.94514571875 control_change channel=7 control=11 value=125 time=2
65.94514571875 note_on channel=9 note=42 velocity=70 time=0
65.9606415625 control_change channel=7 control=11 value=127 time=3
65.97613740625 note_off channel=9 note=42 velocity=0 time=3
66.12076528125 control_change channel=7 control=11 value=126 time=28
66.136261125 control_change channel=7 control=11 value=124 time=3
66.15175696875 control_change channel=7 control=11 value=119 time=3
66.16208753125001 note_off channel=2 note=64 velocity=0 time=2
66.16208753125001 note_off channel=2 note=52 velocity=0 time=0
66.1672528125 control_change channel=7 control=11 value=115 time=1
66.17758337500001 note_off channel=2 note=59 velocity=0 time=2
66.17758337500001 note_on channel=2 note=64 velocity=79 time=0
66.18274865625 control_change channel=7 control=11 value=111 time=1
66.1879139375 note_on channel=2 note=59 velocity=79 time=1
66.19307921875 note_on channel=9 note=42 velocity=65 time=1
66.1982445 control_change channel=7 control=11 value=107 time=1
66.20340978125 note_on channel=9 note=37 velocity=101 time=1
66.2085750625 note_on channel=2 note=52 velocity=38 time=1
66.21374034375 control_change channel=7 control=11 value=103 time=1
66.22407090625 note_off channel=9 note=42 velocity=0 time=2
66.23440146875 control_change channel=7 control=11 value=98 time=2
66.23440146875 note_off channel=9 note=37 velocity=0 time=0
66.2498973125 control_change channel=7 control=11 value=94 time=3
66.26539315625 control_change channel=7 control=11 value=90 time=3
66.280889 control_change channel=7 control=11 value=85 time=3
66.29638484374999 control_change channel=7 control=11 value=80 time=3
66.3118806875 note_off channel=7 note=67 velocity=0 time=3
66.3118806875 control_change channel=7 control=11 value=75 time=0
66.32737653125 control_change channel=7 control=11 value=70 time=3
66.33254181250001 note_off channel=1 note=36 velocity=0 time=1
66.33254181250001 note_off channel=6 note=48 velocity=0 time=0
66.342872375 note_off channel=2 note=48 velocity=0 time=2
66.342872375 control_change channel=7 control=11 value=64 time=0
66.35836821875 control_change channel=7 control=11 value=59 time=3
66.37386406249999 control_change channel=7 control=11 value=55 time=3
66.384194625 note_on channel=7 note=64 velocity=109 time=2
66.384194625 control_change channel=7 control=11 value=53 time=0
66.4151863125 note_off channel=2 note=59 velocity=0 time=6
66.42035159375 note_off channel=2 note=52 velocity=0 time=1
66.425516875 note_off channel=2 note=64 velocity=0 time=1
66.4358474375 note_off channel=2 note=55 velocity=0 time=2
66.4358474375 note_on channel=2 note=47 velocity=56 time=0
66.4358474375 note_off channel=3 note=79 velocity=0 time=0
66.4358474375 note_on channel=9 note=42 velocity=66 time=0
66.44101271875 note_on channel=2 note=52 velocity=71 time=1
66.44101271875 note_on channel=2 note=55 velocity=81 time=0
66.44101271875 note_on channel=6 note=47 velocity=92 time=0
66.44101271875 note_on channel=9 note=35 velocity=100 time=0
66.446178 note_on channel=2 note=59 velocity=84 time=1
66.45134328124999 note_on channel=1 note=35 velocity=111 time=1
66.45134328124999 note_on channel=3 note=76 velocity=95 time=0
66.4565085625 note_on channel=2 note=64 velocity=65 time=1
66.4565085625 control_change channel=7 control=11 value=56 time=0
66.46683912499999 control_change channel=7 control=11 value=60 time=2
66.46683912499999 note_off channel=9 note=42 velocity=0 time=0
66.47200440625001 note_off channel=9 note=35 velocity=0 time=1
66.48750025000001 control_change channel=7 control=11 value=64 time=3
66.4978308125 control_change channel=7 control=11 value=68 time=2
66.51332665625 control_change channel=7 control=11 value=72 time=3
66.52882249999999 control_change channel=7 control=11 value=76 time=3
66.54948362500001 control_change channel=7 control=11 value=80 time=4
66.56497946875001 control_change channel=7 control=11 value=83 time=3
66.5804753125 control_change channel=7 control=11 value=87 time=3
66.590805875 control_change channel=7 control=11 value=90 time=2
66.60630171874999 note_off channel=0 note=76 velocity=0 time=3
66.60630171874999 control_change channel=7 control=11 value=94 time=0
66.62696284375001 control_change channel=7 control=11 value=99 time=4
66.64245868750001 control_change channel=7 control=11 value=103 time=3
66.65795453125 control_change channel=7 control=11 value=108 time=3
66.673450375 control_change channel=7 control=11 value=111 time=3
66.68894621875 note_on channel=9 note=42 velocity=65 time=3
66.6941115 control_change channel=7 control=11 value=115 time=1
66.70444206250001 control_change channel=7 control=11 value=117 time=2
66.71993790625001 control_change channel=7 control=11 value=120 time=3
66.71993790625001 note_off channel=9 note=42 velocity=0 time=0
66.73543375 control_change channel=7 control=11 value=122 time=3
66.756094875 control_change channel=7 control=11 value=124 time=4
66.7664254375 note_off channel=2 note=47 velocity=0 time=2
66.77159071875 note_off channel=0 note=67 velocity=0 time=1
66.7870865625 note_off channel=2 note=52 velocity=0 time=3
66.7870865625 note_off channel=2 note=59 velocity=0 time=0
66.79225184375 note_on channel=2 note=47 velocity=87 time=1
66.80258240625 note_off channel=2 note=55 velocity=0 time=2
66.80258240625 note_on channel=2 note=52 velocity=79 time=0
66.81291296875 note_off channel=0 note=71 velocity=0 time=2
66.81291296875 note_on channel=0 note=62 velocity=37 time=0
66.81807825 control_change channel=7 control=11 value=127 time=1
66.82324353125 note_on channel=2 note=55 velocity=88 time=1
66.84390465625 note_on channel=2 note=59 velocity=97 time=4
66.85423521874999 note_on channel=0 note=67 velocity=43 time=2
66.8697310625 note_off channel=2 note=64 velocity=0 time=3
66.90588803125 note_on channel=0 note=71 velocity=61 time=7
66.93171443749999 note_on channel=9 note=42 velocity=64 time=5
66.93687971875 note_on channel=2 note=64 velocity=91 time=1
66.93687971875 note_on channel=9 note=37 velocity=107 time=0
66.962706125 note_off channel=9 note=42 velocity=0 time=5
66.96787140625001 note_on channel=0 note=76 velocity=55 time=1
66.96787140625001 note_off channel=9 note=37 velocity=0 time=0
67.1589868125 note_off channel=2 note=59 velocity=0 time=37
67.169317375 note_off channel=2 note=64 velocity=0 time=2
67.17448265625 control_change channel=7 control=11 value=125 time=1
67.17448265625 note_on channel=9 note=46 velocity=66 time=0
67.1796479375 note_on channel=2 note=64 velocity=79 time=1
67.18481321875001 note_on channel=2 note=59 velocity=86 time=1
67.18481321875001 note_on channel=9 note=35 velocity=96 time=0
67.19514378125 control_change channel=7 control=11 value=122 time=2
67.20547434375 note_off channel=9 note=46 velocity=0 time=2
67.210639625 control_change channel=7 control=11 value=117 time=1
67.21580490625 note_off channel=9 note=35 velocity=0 time=1
67.22613546875 control_change channel=7 control=11 value=114 time=2
67.24163131249999 control_change channel=7 control=11 value=110 time=3
67.25712715625 control_change channel=7 control=11 value=106 time=3
67.27778828125001 control_change channel=7 control=11 value=103 time=4
67.293284125 control_change channel=7 control=11 value=100 time=3
67.30877996875 control_change channel=7 control=11 value=98 time=3
67.3242758125 control_change channel=7 control=11 value=96 time=3
67.375928625 note_off channel=7 note=64 velocity=0 time=10
67.42241615625 note_off channel=2 note=52 velocity=0 time=9
67.4275814375 note_on channel=9 note=42 velocity=72 time=1
67.43274671875001 note_off channel=2 note=59 velocity=0 time=1
67.43274671875001 note_on channel=7 note=71 velocity=101 time=0
67.437912 note_off channel=2 note=55 velocity=0 time=1
67.437912 note_on channel=2 note=52 velocity=38 time=0
67.4482425625 note_on channel=2 note=55 velocity=52 time=2
67.45340784375 note_on channel=2 note=59 velocity=40 time=1
67.458573125 note_off channel=9 note=42 velocity=0 time=1
67.6548538125 note_on channel=7 note=74 velocity=94 time=38
67.66518437500001 note_off channel=2 note=59 velocity=0 time=2
67.67034965625 note_off channel=2 note=64 velocity=0 time=1
67.67034965625 note_on channel=9 note=37 velocity=105 time=0
67.6755149375 note_on channel=2 note=64 velocity=64 time=1
67.68068021875 note_off channel=2 note=55 velocity=0 time=1
67.68068021875 note_on channel=2 note=59 velocity=75 time=0
67.68068021875 note_off channel=7 note=71 velocity=0 time=0
67.68068021875 note_on channel=9 note=42 velocity=64 time=0
67.69101078125 note_on channel=2 note=55 velocity=54 time=2
67.6961760625 note_off channel=1 note=35 velocity=0 time=1
67.70134134375 note_off channel=9 note=37 velocity=0 time=1
67.71167190625 note_off channel=9 note=42 velocity=0 time=2
67.76332471875 control_change channel=7 control=11 value=93 time=10
67.7788205625 control_change channel=7 control=11 value=90 time=3
67.79948168749999 control_change channel=7 control=11 value=86 time=4
67.81497753125 control_change channel=7 control=11 value=82 time=3
67.830473375 note_off channel=7 note=74 velocity=0 time=3
67.830473375 control_change channel=7 control=11 value=79 time=0
67.84596921875 control_change channel=7 control=11 value=76 time=3
67.8614650625 control_change channel=7 control=11 value=74 time=3
67.87696090624999 control_change channel=7 control=11 value=72 time=3
67.9027873125 note_off channel=2 note=47 velocity=0 time=5
67.90795259375 note_off channel=2 note=59 velocity=0 time=1
67.91828315625 note_on channel=1 note=28 velocity=109 time=2
67.91828315625 note_off channel=2 note=52 velocity=0 time=0
67.91828315625 note_off channel=2 note=55 velocity=0 time=0
67.91828315625 note_on channel=7 note=76 velocity=99 time=0
67.9234484375 note_off channel=2 note=64 velocity=0 time=1
67.9234484375 note_on channel=2 note=47 velocity=71 time=0
67.92861371875 note_on channel=2 note=55 velocity=75 time=1
67.92861371875 note_on channel=9 note=42 velocity=64 time=0
67.933779 note_on channel=2 note=52 velocity=36 time=1
67.933779 note_on channel=2 note=59 velocity=65 time=0
67.933779 note_on channel=9 note=35 velocity=99 time=0
67.9441095625 note_on channel=2 note=64 velocity=47 time=2
67.95960540625 control_change channel=7 control=11 value=75 time=3
67.95960540625 note_off channel=9 note=42 velocity=0 time=0
67.9647706875 note_off channel=9 note=35 velocity=0 time=1
67.96993596875 control_change channel=7 control=11 value=77 time=1
67.9854318125 control_change channel=7 control=11 value=79 time=3
68.00092765625 control_change channel=7 control=11 value=80 time=3
68.0164235 control_change channel=7 control=11 value=82 time=3
68.03191934374999 control_change channel=7 control=11 value=83 time=3
68.0474151875 control_change channel=7 control=11 value=85 time=3
68.06291103125 control_change channel=7 control=11 value=87 time=3
68.078406875 control_change channel=7 control=11 value=90 time=3
68.09390271875 control_change channel=7 control=11 value=92 time=3
68.11456384375 control_change channel=7 control=11 value=94 time=4
68.12489440625 control_change channel=7 control=11 value=96 time=2
68.13005968750001 note_off channel=2 note=64 velocity=0 time=1
68.13522496875 note_off channel=2 note=59 velocity=0 time=1
68.14039025 control_change channel=7 control=11 value=97 time=1
68.161051375 control_change channel=7 control=11 value=99 time=4
68.16621665625 note_on channel=2 note=64 velocity=57 time=1
68.1713819375 note_on channel=2 note=59 velocity=57 time=1
68.1713819375 note_on channel=9 note=42 velocity=66 time=0
68.17654721875 control_change channel=7 control=11 value=100 time=1
68.1920430625 control_change channel=7 control=11 value=102 time=3
68.20237362499999 note_off channel=9 note=42 velocity=0 time=2
68.20753890625001 control_change channel=7 control=11 value=103 time=1
68.21786946875 note_off channel=1 note=28 velocity=0 time=2
68.22303475000001 control_change channel=7 control=11 value=105 time=1
68.23853059375 control_change channel=7 control=11 value=107 time=3
68.2540264375 control_change channel=7 control=11 value=109 time=3
68.26952228125 control_change channel=7 control=11 value=112 time=3
68.28501812500001 control_change channel=7 control=11 value=115 time=3
68.30051396875001 control_change channel=7 control=11 value=119 time=3
68.3160098125 note_off channel=3 note=76 velocity=0 time=3
68.3160098125 control_change channel=7 control=11 value=123 time=0
68.3366709375 control_change channel=7 control=11 value=126 time=4
68.3986543125 note_off channel=2 note=52 velocity=0 time=12
68.408984875 note_off channel=2 note=64 velocity=0 time=2
68.408984875 note_on channel=2 note=52 velocity=49 time=0
68.41415015625 note_off channel=2 note=59 velocity=0 time=1
68.41415015625 note_on channel=9 note=37 velocity=102 time=0
68.41931543749999 note_on channel=1 note=31 velocity=108 time=1
68.41931543749999 note_on channel=2 note=59 velocity=75 time=0
68.42448071875 note_on channel=2 note=64 velocity=60 time=1
68.42448071875 note_on channel=9 note=42 velocity=70 time=0
68.43481128124999 note_on channel=9 note=35 velocity=93 time=2
68.44514184375 note_off channel=9 note=37 velocity=0 time=2
68.45547240625001 note_off channel=9 note=42 velocity=0 time=2
68.46580296875 note_off channel=9 note=35 velocity=0 time=2
68.5019599375 note_off channel=7 note=76 velocity=0 time=7
68.63625725 note_off channel=2 note=64 velocity=0 time=26
68.66208365625 note_off channel=2 note=59 velocity=0 time=5
68.66208365625 note_on channel=2 note=64 velocity=69 time=0
68.66724893749999 note_on channel=2 note=59 velocity=76 time=1
68.67241421875 note_on channel=9 note=46 velocity=75 time=1
68.67757950000001 note_on channel=9 note=35 velocity=104 time=1
68.68791006250001 note_off channel=1 note=31 velocity=0 time=2
68.70340590625001 note_off channel=2 note=47 velocity=0 time=3
68.70340590625001 note_off channel=9 note=46 velocity=0 time=0
68.7085711875 note_off channel=9 note=35 velocity=0 time=1
68.904851875 note_off channel=2 note=64 velocity=0 time=38
68.9151824375 note_on channel=3 note=59 velocity=105 time=2
68.92034771875001 note_on channel=1 note=35 velocity=108 time=1
68.92034771875001 note_on channel=9 note=42 velocity=75 time=0
68.925513 note_on channel=2 note=64 velocity=41 time=1
68.95133940625 note_off channel=9 note=42 velocity=0 time=5
68.96683525 note_off channel=6 note=47 velocity=0 time=3
69.13212424999999 note_off channel=2 note=64 velocity=0 time=32
69.15795065625 note_off channel=2 note=59 velocity=0 time=5
69.15795065625 note_on channel=2 note=64 velocity=84 time=0
69.1631159375 note_off channel=2 note=55 velocity=0 time=1
69.1631159375 note_on channel=2 note=59 velocity=84 time=0
69.1631159375 note_on channel=9 note=37 velocity=104 time=0
69.16828121875001 note_on channel=2 note=55 velocity=74 time=1
69.16828121875001 note_on channel=9 note=42 velocity=73 time=0
69.194107625 note_off channel=9 note=37 velocity=0 time=5
69.19927290625 note_off channel=9 note=42 velocity=0 time=1
69.23026459375001 note_off channel=1 note=35 velocity=0 time=6
69.38522303125 note_off channel=3 note=59 velocity=0 time=30
69.39555359375 note_off channel=2 note=52 velocity=0 time=2
69.4110494375 note_on channel=1 note=40 velocity=109 time=3
69.4110494375 note_off channel=2 note=55 velocity=0 time=0
69.41621471875 note_on channel=2 note=47 velocity=64 time=1
69.41621471875 note_on channel=2 note=52 velocity=76 time=0
69.41621471875 note_on channel=9 note=42 velocity=70 time=0
69.42138 note_off channel=2 note=59 velocity=0 time=1
69.42138 note_on channel=2 note=55 velocity=80 time=0
69.42138 note_on channel=9 note=35 velocity=96 time=0
69.42654528125 note_on channel=2 note=59 velocity=76 time=1
69.42654528125 note_on channel=3 note=71 velocity=103 time=0
69.4317105625 note_on channel=6 note=47 velocity=102 time=1
69.44720640625 note_off channel=9 note=42 velocity=0 time=3
69.4523716875 note_off channel=9 note=35 velocity=0 time=1
69.66414821875 note_off channel=0 note=76 velocity=0 time=41
69.66414821875 note_on channel=9 note=42 velocity=59 time=0
69.69513990625 note_off channel=9 note=42 velocity=0 time=6
69.71580103125 note_off channel=2 note=47 velocity=0 time=4
69.7209663125 note_off channel=2 note=52 velocity=0 time=1
69.731296875 note_off channel=2 note=55 velocity=0 time=2
69.7622885625 note_on channel=2 note=47 velocity=79 time=6
69.76745384374999 note_off channel=0 note=67 velocity=0 time=1
69.7829496875 note_on channel=2 note=52 velocity=75 time=3
69.80877609375 note_on channel=2 note=55 velocity=80 time=5
69.8242719375 note_off channel=2 note=64 velocity=0 time=3
69.8242719375 note_off channel=2 note=59 velocity=0 time=0
69.82943721875 note_off channel=0 note=71 velocity=0 time=1
69.83976778125 note_on channel=0 note=67 velocity=43 time=2
69.8862553125 note_on channel=0 note=71 velocity=66 time=9
69.896585875 note_on channel=2 note=59 velocity=86 time=2
69.9069164375 note_on channel=9 note=37 velocity=96 time=2
69.91208171875 note_on channel=9 note=42 velocity=68 time=1
69.9275775625 note_on channel=2 note=64 velocity=84 time=3
69.93274284375 note_on channel=0 note=76 velocity=62 time=1
69.93790812499999 note_off channel=9 note=37 velocity=0 time=1
69.94307340625001 note_off channel=9 note=42 velocity=0 time=1
70.0722054375 control_change channel=7 control=11 value=124 time=25
70.08770128125 note_off channel=3 note=71 velocity=0 time=3
70.08770128125 control_change channel=7 control=11 value=118 time=0
70.103197125 control_change channel=7 control=11 value=111 time=3
70.11869296875 control_change channel=7 control=11 value=103 time=3
70.1341888125 control_change channel=7 control=11 value=93 time=3
70.144519375 note_off channel=2 note=59 velocity=0 time=2
70.14968465625 note_off channel=2 note=52 velocity=0 time=1
70.14968465625 control_change channel=7 control=11 value=82 time=0
70.14968465625 note_on channel=7 note=83 velocity=121 time=0
70.14968465625 note_on channel=9 note=46 velocity=66 time=0
70.15484993749999 note_off channel=2 note=64 velocity=0 time=1
70.15484993749999 note_on channel=3 note=71 velocity=99 time=0
70.1651805 note_on channel=2 note=64 velocity=87 time=2
70.1651805 note_on channel=9 note=35 velocity=96 time=0
70.17034578124999 note_on channel=2 note=59 velocity=85 time=1
70.17034578124999 control_change channel=7 control=11 value=70 time=0
70.18067634375 control_change channel=7 control=11 value=58 time=2
70.18067634375 note_off channel=9 note=46 velocity=0 time=0
70.185841625 note_on channel=2 note=52 velocity=58 time=1
70.1961721875 note_off channel=9 note=35 velocity=0 time=2
70.20133746875 control_change channel=7 control=11 value=47 time=1
70.2168333125 control_change channel=7 control=11 value=40 time=3
70.23232915624999 control_change channel=7 control=11 value=36 time=3
70.24782499999999 control_change channel=7 control=11 value=34 time=3
70.2788166875 control_change channel=7 control=11 value=37 time=6
70.29431253125 control_change channel=7 control=11 value=41 time=3
70.30980837499999 control_change channel=7 control=11 value=47 time=3
70.32530421874999 control_change channel=7 control=11 value=53 time=3
70.3304695 note_off channel=3 note=71 velocity=0 time=1
70.3408000625 control_change channel=7 control=11 value=59 time=2
70.35629590625 control_change channel=7 control=11 value=64 time=3
70.37179175 control_change channel=7 control=11 value=70 time=3
70.38728759375 control_change channel=7 control=11 value=75 time=3
70.40278343749999 control_change channel=7 control=11 value=81 time=3
70.40794871875 note_on channel=3 note=71 velocity=103 time=1
70.40794871875 note_on channel=9 note=42 velocity=76 time=0
70.41827928125 control_change channel=7 control=11 value=86 time=2
70.433775125 control_change channel=7 control=11 value=92 time=3
70.43894040625001 note_off channel=9 note=42 velocity=0 time=1
70.44927096875 control_change channel=7 control=11 value=96 time=2
70.4647668125 control_change channel=7 control=11 value=101 time=3
70.48026265624999 control_change channel=7 control=11 value=105 time=3
70.4957585 control_change channel=7 control=11 value=109 time=3
70.51125434375 control_change channel=7 control=11 value=113 time=3
70.5267501875 control_change channel=7 control=11 value=117 time=3
70.5474113125 control_change channel=7 control=11 value=120 time=4
70.56290715625 control_change channel=7 control=11 value=124 time=3
70.57840300000001 note_off channel=3 note=71 velocity=0 time=3
70.57840300000001 control_change channel=7 control=11 value=126 time=0
70.62489053125 note_off channel=1 note=40 velocity=0 time=9
70.64555165625 note_off channel=2 note=64 velocity=0 time=4
70.6507169375 note_off channel=2 note=55 velocity=0 time=1
70.6507169375 note_off channel=2 note=59 velocity=0 time=0
70.6507169375 note_on channel=3 note=71 velocity=95 time=0
70.6507169375 note_on channel=9 note=37 velocity=108 time=0
70.65588221875001 note_on channel=2 note=64 velocity=80 time=1
70.65588221875001 note_on channel=9 note=42 velocity=59 time=0
70.6610475 note_on channel=2 note=59 velocity=80 time=1
70.66621278125 note_on channel=2 note=55 velocity=73 time=1
70.681708625 note_off channel=9 note=37 velocity=0 time=3
70.68687390625 note_off channel=9 note=42 velocity=0 time=1
70.74885728125001 note_off channel=7 note=83 velocity=0 time=12
70.78501425 note_off channel=3 note=71 velocity=0 time=7
70.8160059375 control_change channel=7 control=11 value=124 time=6
70.83150178125 control_change channel=7 control=11 value=116 time=3
70.8366670625 note_off channel=2 note=47 velocity=0 time=1
70.846997625 control_change channel=7 control=11 value=108 time=2
70.86249346875 control_change channel=7 control=11 value=99 time=3
70.87282403125 note_off channel=2 note=52 velocity=0 time=2
70.8779893125 control_change channel=7 control=11 value=89 time=1
70.89348515625 note_on channel=1 note=28 velocity=107 time=3
70.89348515625 control_change channel=7 control=11 value=80 time=0
70.8986504375 note_off channel=2 note=55 velocity=0 time=1
70.8986504375 note_on channel=3 note=71 velocity=108 time=0
70.90381571875001 note_on channel=9 note=42 velocity=70 time=1
70.908981 note_on channel=2 note=47 velocity=26 time=1
70.908981 note_on channel=2 note=52 velocity=48 time=0
70.908981 note_on channel=7 note=79 velocity=111 time=0
70.91414628125 note_on channel=2 note=55 velocity=71 time=1
70.91414628125 control_change channel=7 control=11 value=71 time=0
70.91414628125 note_on channel=9 note=35 velocity=96 time=0
70.92447684375 control_change channel=7 control=11 value=66 time=2
70.93480740625 note_off channel=9 note=42 velocity=0 time=2
70.9399726875 control_change channel=7 control=11 value=62 time=1
70.94513796874999 note_off channel=9 note=35 velocity=0 time=1
70.95546853125 control_change channel=7 control=11 value=60 time=2
71.02261718749999 control_change channel=7 control=11 value=63 time=13
71.03811303124999 control_change channel=7 control=11 value=66 time=3
71.053608875 control_change channel=7 control=11 value=69 time=3
71.06910471875 control_change channel=7 control=11 value=73 time=3
71.0846005625 control_change channel=7 control=11 value=77 time=3
71.10009640624999 control_change channel=7 control=11 value=81 time=3
71.11559224999999 control_change channel=7 control=11 value=85 time=3
71.13108809375 note_off channel=2 note=64 velocity=0 time=3
71.13108809375 control_change channel=7 control=11 value=90 time=0
71.1465839375 note_on channel=2 note=64 velocity=54 time=3
71.1465839375 control_change channel=7 control=11 value=94 time=0
71.1465839375 note_on channel=9 note=42 velocity=66 time=0
71.16207978125 control_change channel=7 control=11 value=99 time=3
71.17757562499999 control_change channel=7 control=11 value=103 time=3
71.17757562499999 note_off channel=9 note=42 velocity=0 time=0
71.19307146874999 control_change channel=7 control=11 value=107 time=3
71.2085673125 note_off channel=1 note=28 velocity=0 time=3
71.2085673125 control_change channel=7 control=11 value=111 time=0
71.22406315625 control_change channel=7 control=11 value=115 time=3
71.24472428125 control_change channel=7 control=11 value=119 time=4
71.260220125 control_change channel=7 control=11 value=122 time=3
71.27571596875 control_change channel=7 control=11 value=125 time=3
71.36869103125001 note_off channel=2 note=47 velocity=0 time=18
71.3738563125 note_off channel=2 note=52 velocity=0 time=1
71.38935215625 note_off channel=2 note=55 velocity=0 time=3
71.38935215625 note_off channel=2 note=64 velocity=0 time=0
71.38935215625 note_on channel=2 note=47 velocity=53 time=0
71.3945174375 note_on channel=2 note=52 velocity=59 time=1
71.3945174375 note_on channel=9 note=37 velocity=96 time=0
71.3945174375 note_on channel=9 note=42 velocity=72 time=0
71.39968271875 note_on channel=1 note=31 velocity=105 time=1
71.39968271875 note_off channel=2 note=59 velocity=0 time=0
71.39968271875 note_on channel=2 note=55 velocity=74 time=0
71.41001328125 note_on channel=2 note=59 velocity=80 time=2
71.41001328125 note_on channel=2 note=64 velocity=68 time=0
71.4151785625 note_off channel=3 note=71 velocity=0 time=1
71.4151785625 note_on channel=3 note=69 velocity=98 time=0
71.42550912499999 note_off channel=9 note=42 velocity=0 time=2
71.42550912499999 note_off channel=9 note=37 velocity=0 time=0
71.61662453125001 note_off channel=2 note=64 velocity=0 time=37
71.632120375 note_off channel=2 note=59 velocity=0 time=3
71.63728565625 note_on channel=2 note=64 velocity=62 time=1
71.63728565625 note_on channel=9 note=46 velocity=62 time=0
71.6424509375 note_on channel=2 note=59 velocity=66 time=1
71.64761621875 note_on channel=9 note=35 velocity=98 time=1
71.66827734375 note_off channel=9 note=46 velocity=0 time=4
71.67860790625001 note_off channel=1 note=31 velocity=0 time=2
71.67860790625001 note_off channel=9 note=35 velocity=0 time=0
71.85422746875 note_off channel=3 note=69 velocity=0 time=34
71.8697233125 note_off channel=2 note=47 velocity=0 time=3
71.8697233125 note_off channel=2 note=52 velocity=0 time=0
71.87488859375 note_off channel=2 note=55 velocity=0 time=1
71.880053875 note_on channel=2 note=47 velocity=49 time=1
71.880053875 note_on channel=2 note=52 velocity=69 time=0
71.88521915625 note_on channel=1 note=35 velocity=106 time=1
71.88521915625 note_off channel=2 note=64 velocity=0 time=0
71.88521915625 note_off channel=2 note=59 velocity=0 time=0
71.89038443749999 note_on channel=2 note=55 velocity=69 time=1
71.89038443749999 note_on channel=2 note=59 velocity=79 time=0
71.89554971875 note_on channel=9 note=42 velocity=75 time=1
71.900715 note_on channel=2 note=64 velocity=55 time=1
71.91104556250001 note_on channel=3 note=67 velocity=102 time=2
71.92654140625001 note_off channel=9 note=42 velocity=0 time=3
72.09183040625 note_off channel=2 note=64 velocity=0 time=32
72.12282209375 note_on channel=2 note=64 velocity=51 time=6
72.13831793749999 note_on channel=9 note=37 velocity=102 time=3
72.13831793749999 note_on channel=9 note=42 velocity=69 time=0
72.14864850000001 note_off channel=3 note=67 velocity=0 time=2
72.14864850000001 note_on channel=3 note=69 velocity=92 time=0
72.14864850000001 note_off channel=7 note=79 velocity=0 time=0
72.16414434375 note_off channel=1 note=35 velocity=0 time=3
72.169309625 note_off channel=6 note=47 velocity=0 time=1
72.169309625 note_off channel=9 note=42 velocity=0 time=0
72.169309625 note_off channel=9 note=37 velocity=0 time=0
72.22612771875 note_off channel=2 note=47 velocity=0 time=11
72.37075559374999 note_off channel=2 note=55 velocity=0 time=28
72.38108615625 note_off channel=2 note=52 velocity=0 time=2
72.3862514375 note_on channel=1 note=36 velocity=104 time=1
72.3862514375 note_on channel=2 note=52 velocity=56 time=0
72.3862514375 note_on channel=9 note=42 velocity=68 time=0
72.39141671875001 note_on channel=2 note=48 velocity=65 time=1
72.39141671875001 note_on channel=2 note=55 velocity=65 time=0
72.39141671875001 note_off channel=3 note=69 velocity=0 time=0
72.396582 note_on channel=3 note=64 velocity=104 time=1
72.396582 note_on channel=6 note=48 velocity=92 time=0
72.40174728125 note_on channel=9 note=35 velocity=94 time=1
72.40691256250001 note_off channel=2 note=59 velocity=0 time=1
72.417243125 note_off channel=9 note=42 velocity=0 time=2
72.43273896875 note_off channel=9 note=35 velocity=0 time=3
72.4895570625 control_change channel=7 control=11 value=121 time=11
72.50505290625 control_change channel=7 control=11 value=116 time=3
72.52054875 control_change channel=7 control=11 value=110 time=3
72.53604459375 control_change channel=7 control=11 value=104 time=3
72.5515404375 control_change channel=7 control=11 value=96 time=3
72.56703628125 control_change channel=7 control=11 value=87 time=3
72.57736684375 note_off channel=0 note=76 velocity=0 time=2
72.582532125 control_change channel=7 control=11 value=77 time=1
72.60319324999999 control_change channel=7 control=11 value=68 time=4
72.60319324999999 note_on channel=7 note=81 velocity=115 time=0
72.61868909374999 control_change channel=7 control=11 value=58 time=3
72.62901965625 note_on channel=9 note=42 velocity=59 time=2
72.6341849375 control_change channel=7 control=11 value=52 time=1
72.64968078125 control_change channel=7 control=11 value=47 time=3
72.66001134375 note_off channel=2 note=48 velocity=0 time=2
72.66001134375 note_off channel=9 note=42 velocity=0 time=0
72.665176625 control_change channel=7 control=11 value=45 time=1
72.67034190625 note_off channel=2 note=52 velocity=0 time=1
72.6755071875 note_on channel=2 note=52 velocity=68 time=1
72.69100303125 note_off channel=0 note=71 velocity=0 time=3
72.69616831249999 note_off channel=0 note=67 velocity=0 time=1
72.706498875 note_off channel=2 note=55 velocity=0 time=2
72.71166415625 control_change channel=7 control=11 value=51 time=1
72.72716 control_change channel=7 control=11 value=56 time=3
72.74265584375 control_change channel=7 control=11 value=63 time=3
72.747821125 note_on channel=2 note=55 velocity=75 time=1
72.75298640625 note_on channel=2 note=48 velocity=67 time=1
72.75815168749999 control_change channel=7 control=11 value=71 time=1
72.76331696875 note_on channel=0 note=67 velocity=47 time=1
72.76848225 note_on channel=2 note=59 velocity=76 time=1
72.77364753124999 control_change channel=7 control=11 value=78 time=1
72.77881281250001 note_off channel=2 note=64 velocity=0 time=1
72.789143375 control_change channel=7 control=11 value=86 time=2
72.79430865625001 note_on channel=2 note=64 velocity=69 time=1
72.7994739375 note_on channel=0 note=71 velocity=66 time=1
72.80463921875 control_change channel=7 control=11 value=94 time=1
72.82530034375 control_change channel=7 control=11 value=101 time=4
72.83563090624999 control_change channel=7 control=11 value=108 time=2
72.85112674999999 control_change channel=7 control=11 value=114 time=3
72.86662259375 control_change channel=7 control=11 value=120 time=3
72.87695315625 note_on channel=9 note=42 velocity=65 time=2
72.8821184375 control_change channel=7 control=11 value=125 time=1
72.88728371875 note_on channel=9 note=37 velocity=96 time=1
72.9027795625 control_change channel=7 control=11 value=127 time=3
72.90794484375 note_off channel=9 note=42 velocity=0 time=1
72.91827540625 note_off channel=9 note=37 velocity=0 time=2
73.0680685625 note_off channel=2 note=64 velocity=0 time=29
73.09906025 note_off channel=2 note=59 velocity=0 time=6
73.11455609375 note_off channel=3 note=64 velocity=0 time=3
73.11972137500001 note_off channel=2 note=55 velocity=0 time=1
73.11972137500001 note_on channel=2 note=64 velocity=76 time=0
73.11972137500001 note_on channel=9 note=46 velocity=65 time=0
73.12488665625 note_on channel=2 note=59 velocity=78 time=1
73.1300519375 note_on channel=2 note=55 velocity=73 time=1
73.13521721875 note_on channel=9 note=35 velocity=98 time=1
73.1507130625 note_off channel=9 note=46 velocity=0 time=3
73.16620890625 note_off channel=9 note=35 velocity=0 time=3
73.3779854375 note_on channel=9 note=42 velocity=75 time=41
73.38315071875 note_on channel=3 note=76 velocity=103 time=1
73.40381184375 control_change channel=7 control=11 value=125 time=4
73.40897712499999 note_off channel=9 note=42 velocity=0 time=1
73.42447296875 control_change channel=7 control=11 value=121 time=3
73.4399688125 control_change channel=7 control=11 value=117 time=3
73.45546465625 control_change channel=7 control=11 value=113 time=3
73.47096049999999 control_change channel=7 control=11 value=108 time=3
73.48645634374999 control_change channel=7 control=11 value=103 time=3
73.5019521875 control_change channel=7 control=11 value=97 time=3
73.51744803125 control_change channel=7 control=11 value=92 time=3
73.532943875 control_change channel=7 control=11 value=86 time=3
73.5432744375 note_off channel=3 note=76 velocity=0 time=2
73.54843971874999 control_change channel=7 control=11 value=80 time=1
73.56393556249999 control_change channel=7 control=11 value=73 time=3
73.57943140625 control_change channel=7 control=11 value=66 time=3
73.58459668750001 control_change channel=7 control=11 value=62 time=1
73.59492725 note_off channel=2 note=52 velocity=0 time=2
73.6052578125 note_off channel=2 note=64 velocity=0 time=2
73.6052578125 control_change channel=7 control=11 value=61 time=0
73.61042309375 note_off channel=2 note=59 velocity=0 time=1
73.61042309375 note_on channel=2 note=64 velocity=82 time=0
73.615588375 control_change channel=7 control=11 value=60 time=1
73.62075365625 note_off channel=2 note=55 velocity=0 time=1
73.62075365625 note_on channel=2 note=59 velocity=81 time=0
73.62591893749999 note_on channel=2 note=55 velocity=67 time=1
73.62591893749999 note_on channel=3 note=76 velocity=99 time=0
73.62591893749999 control_change channel=7 control=11 value=59 time=0
73.62591893749999 note_on channel=9 note=42 velocity=63 time=0
73.62591893749999 note_on channel=9 note=37 velocity=107 time=0
73.63108421875 note_on channel=2 note=52 velocity=49 time=1
73.6465800625 control_change channel=7 control=11 value=58 time=3
73.656910625 note_off channel=9 note=37 velocity=0 time=2
73.656910625 note_off channel=9 note=42 velocity=0 time=0
73.71372871875 note_off channel=7 note=81 velocity=0 time=11
73.72405928125 note_on channel=7 note=76 velocity=111 time=2
73.7292245625 control_change channel=7 control=11 value=48 time=1
73.7498856875 control_change channel=7 control=11 value=49 time=4
73.75505096875 note_off channel=3 note=76 velocity=0 time=1
73.7705468125 control_change channel=7 control=11 value=50 time=3
73.7912079375 control_change channel=7 control=11 value=52 time=4
73.8118690625 control_change channel=7 control=11 value=54 time=4
73.822199625 control_change channel=7 control=11 value=55 time=2
73.82736490625 note_off channel=1 note=36 velocity=0 time=1
73.8325301875 control_change channel=7 control=11 value=56 time=1
73.84286075 control_change channel=7 control=11 value=73 time=2
73.8531913125 control_change channel=7 control=11 value=81 time=2
73.85835659375 note_off channel=2 note=52 velocity=0 time=1
73.85835659375 note_off channel=2 note=64 velocity=0 time=0
73.863521875 note_off channel=2 note=48 velocity=0 time=1
73.863521875 note_off channel=2 note=59 velocity=0 time=0
73.863521875 control_change channel=7 control=11 value=84 time=0
73.86868715625 note_on channel=2 note=48 velocity=78 time=1
73.87385243749999 note_off channel=2 note=55 velocity=0 time=1
73.87385243749999 note_on channel=2 note=52 velocity=58 time=0
73.87385243749999 note_on channel=3 note=76 velocity=109 time=0
73.87385243749999 control_change channel=7 control=11 value=86 time=0
73.87385243749999 note_on channel=9 note=42 velocity=61 time=0
73.87901771875 note_on channel=1 note=31 velocity=105 time=1
73.87901771875 note_on channel=2 note=55 velocity=74 time=0
73.88418300000001 note_on channel=2 note=59 velocity=72 time=1
73.88418300000001 control_change channel=7 control=11 value=89 time=0
73.88934828125 note_on channel=2 note=64 velocity=52 time=1
73.88934828125 note_on channel=9 note=35 velocity=93 time=0
73.89451356250001 control_change channel=7 control=11 value=97 time=1
73.904844125 control_change channel=7 control=11 value=94 time=2
73.904844125 note_off channel=9 note=42 velocity=0 time=0
73.9151746875 control_change channel=7 control=11 value=100 time=2
73.92033996875 note_off channel=9 note=35 velocity=0 time=1
73.92550525 control_change channel=7 control=11 value=101 time=1
73.9358358125 control_change channel=7 control=11 value=106 time=2
73.946166375 control_change channel=7 control=11 value=116 time=2
73.9564969375 control_change channel=7 control=11 value=127 time=2
74.08562896875 note_off channel=2 note=64 velocity=0 time=25
74.111455375 note_off channel=2 note=59 velocity=0 time=5
74.11662065625 note_on channel=2 note=64 velocity=57 time=1
74.1217859375 note_on channel=2 note=59 velocity=56 time=1
74.1217859375 note_on channel=9 note=42 velocity=58 time=0
74.152777625 note_off channel=9 note=42 velocity=0 time=6
74.34389303125 note_off channel=2 note=48 velocity=0 time=37
74.35422359374999 note_off channel=2 note=52 velocity=0 time=2
74.35422359374999 note_off channel=2 note=55 velocity=0 time=0
74.35938887500001 note_on channel=2 note=48 velocity=74 time=1
74.36455415625 note_off channel=2 note=64 velocity=0 time=1
74.36455415625 note_on channel=2 note=52 velocity=62 time=0
74.36455415625 note_on channel=9 note=37 velocity=96 time=0
74.3697194375 note_off channel=2 note=59 velocity=0 time=1
74.3697194375 note_on channel=2 note=55 velocity=79 time=0
74.3697194375 note_on channel=9 note=42 velocity=66 time=0
74.37488471875001 note_on channel=2 note=59 velocity=82 time=1
74.37488471875001 note_off channel=3 note=76 velocity=0 time=0
74.37488471875001 note_on channel=3 note=74 velocity=103 time=0
74.38005 note_on channel=2 note=64 velocity=75 time=1
74.39554584375 note_off channel=9 note=37 velocity=0 time=3
74.400711125 note_off channel=9 note=42 velocity=0 time=1
74.58666124999999 note_off channel=2 note=64 velocity=0 time=36
74.61248765625 note_off channel=2 note=59 velocity=0 time=5
74.61248765625 note_on channel=2 note=64 velocity=66 time=0
74.61248765625 note_on channel=9 note=46 velocity=68 time=0
74.6176529375 note_on channel=2 note=59 velocity=67 time=1
74.6279835 note_on channel=9 note=35 velocity=103 time=2
74.64347934375 note_off channel=9 note=46 velocity=0 time=3
74.6589751875 note_off channel=9 note=35 velocity=0 time=3
74.68480159375001 note_off channel=7 note=76 velocity=0 time=5
74.83459475 note_off channel=2 note=48 velocity=0 time=29
74.83976003125001 note_off channel=2 note=52 velocity=0 time=1
74.85009059375 note_on channel=2 note=48 velocity=66 time=2
74.85525587500001 note_off channel=2 note=55 velocity=0 time=1
74.85525587500001 note_off channel=2 note=64 velocity=0 time=0
74.85525587500001 note_on channel=2 note=52 velocity=57 time=0
74.86042115625 note_off channel=2 note=59 velocity=0 time=1
74.86042115625 note_off channel=3 note=74 velocity=0 time=0
74.86042115625 note_on channel=3 note=72 velocity=100 time=0
74.86042115625 note_on channel=9 note=42 velocity=66 time=0
74.8655864375 note_on channel=2 note=55 velocity=76 time=1
74.8655864375 note_on channel=2 note=59 velocity=84 time=0
74.87075171875 note_on channel=2 note=64 velocity=68 time=1
74.89141284375 note_off channel=9 note=42 velocity=0 time=4
74.9069086875 control_change channel=7 control=11 value=126 time=3
74.92240453125 control_change channel=7 control=11 value=124 time=3
74.937900375 control_change channel=7 control=11 value=120 time=3
74.95339621875 control_change channel=7 control=11 value=116 time=3
74.9688920625 control_change channel=7 control=11 value=113 time=3
74.9895531875 control_change channel=7 control=11 value=109 time=4
75.00504903125 control_change channel=7 control=11 value=105 time=3
75.01537959375 control_change channel=7 control=11 value=100 time=2
75.0308754375 note_off channel=6 note=48 velocity=0 time=3
75.0308754375 control_change channel=7 control=11 value=96 time=0
75.04637128125 control_change channel=7 control=11 value=91 time=3
75.061867125 control_change channel=7 control=11 value=86 time=3
75.07219768750001 note_off channel=2 note=64 velocity=0 time=2
75.08252825 control_change channel=7 control=11 value=81 time=2
75.09802409375 note_off channel=2 note=52 velocity=0 time=3
75.09802409375 control_change channel=7 control=11 value=75 time=0
75.103189375 note_on channel=2 note=64 velocity=56 time=1
75.1135199375 control_change channel=7 control=11 value=70 time=2
75.1135199375 note_on channel=9 note=42 velocity=68 time=0
75.11868521875 note_on channel=9 note=37 velocity=101 time=1
75.12901578124999 control_change channel=7 control=11 value=63 time=2
75.14451162499999 control_change channel=7 control=11 value=55 time=3
75.14451162499999 note_off channel=9 note=42 velocity=0 time=0
75.14967690625001 note_off channel=9 note=37 velocity=0 time=1
75.16000746875 control_change channel=7 control=11 value=47 time=2
75.1755033125 control_change channel=7 control=11 value=38 time=3
75.19099915625 control_change channel=7 control=11 value=29 time=3
75.21166028125 control_change channel=7 control=11 value=21 time=4
75.22715612500001 note_off channel=2 note=48 velocity=0 time=3
75.22715612500001 control_change channel=7 control=11 value=16 time=0
75.2374866875 note_on channel=7 note=69 velocity=113 time=2
75.24265196875001 control_change channel=7 control=11 value=13 time=1
75.24781725 note_off channel=1 note=31 velocity=0 time=1
75.2891395 note_off channel=3 note=72 velocity=0 time=8
75.2891395 control_change channel=7 control=11 value=18 time=0
75.30463534375001 control_change channel=7 control=11 value=22 time=3
75.32013118750001 note_off channel=2 note=59 velocity=0 time=3
75.32013118750001 control_change channel=7 control=11 value=27 time=0
75.33562703125 control_change channel=7 control=11 value=34 time=3
75.34595759375 note_off channel=2 note=64 velocity=0 time=2
75.351122875 control_change channel=7 control=11 value=41 time=1
75.35628815625 note_on channel=2 note=49 velocity=76 time=1
75.35628815625 note_on channel=6 note=49 velocity=99 time=0
75.36145343749999 note_off channel=2 note=55 velocity=0 time=1
75.36145343749999 note_on channel=2 note=52 velocity=76 time=0
75.36661871875 note_off channel=0 note=71 velocity=0 time=1
75.36661871875 note_on channel=2 note=55 velocity=79 time=0
75.36661871875 control_change channel=7 control=11 value=50 time=0
75.36661871875 note_on channel=9 note=42 velocity=62 time=0
75.371784 note_on channel=1 note=37 velocity=107 time=1
75.371784 note_on channel=2 note=59 velocity=85 time=0
75.371784 note_on channel=9 note=35 velocity=97 time=0
75.37694928124999 note_on channel=2 note=64 velocity=66 time=1
75.37694928124999 note_on channel=3 note=69 velocity=98 time=0
75.3821145625 control_change channel=7 control=11 value=59 time=1
75.39761040625001 control_change channel=7 control=11 value=69 time=3
75.39761040625001 note_off channel=9 note=42 velocity=0 time=0
75.4027756875 note_off channel=9 note=35 velocity=0 time=1
75.41310625 control_change channel=7 control=11 value=77 time=2
75.42860209375 control_change channel=7 control=11 value=85 time=3
75.4440979375 control_change channel=7 control=11 value=92 time=3
75.45959378125 control_change channel=7 control=11 value=98 time=3
75.47508962500001 control_change channel=7 control=11 value=104 time=3
75.49058546875 control_change channel=7 control=11 value=110 time=3
75.5060813125 control_change channel=7 control=11 value=116 time=3
75.5267424375 control_change channel=7 control=11 value=122 time=4
75.537073 control_change channel=7 control=11 value=126 time=2
75.557734125 control_change channel=7 control=11 value=127 time=4
75.61971750000001 note_on channel=9 note=42 velocity=62 time=12
75.63004806250001 note_off channel=0 note=62 velocity=0 time=2
75.6507091875 note_off channel=9 note=42 velocity=0 time=4
75.68686615624999 note_off channel=0 note=67 velocity=0 time=7
75.7540148125 note_on channel=0 note=67 velocity=51 time=13
75.805667625 note_on channel=0 note=71 velocity=64 time=10
75.82116346875 note_off channel=2 note=52 velocity=0 time=3
75.83149403125 note_off channel=2 note=55 velocity=0 time=2
75.83149403125 note_off channel=2 note=64 velocity=0 time=0
75.84182459374999 note_off channel=2 note=59 velocity=0 time=2
75.84182459374999 note_on channel=2 note=52 velocity=45 time=0
75.846989875 note_on channel=3 note=71 velocity=95 time=1
75.85215515625 note_on channel=0 note=76 velocity=59 time=1
75.85215515625 note_on channel=2 note=55 velocity=62 time=0
75.8573204375 note_on channel=2 note=59 velocity=80 time=1
75.86248571875001 note_on channel=2 note=64 velocity=62 time=1
75.86248571875001 note_off channel=3 note=69 velocity=0 time=0
75.86248571875001 note_on channel=9 note=37 velocity=96 time=0
75.87281628125 note_on channel=9 note=42 velocity=70 time=2
75.89347740625 note_off channel=9 note=37 velocity=0 time=4
75.90380796875 note_off channel=9 note=42 velocity=0 time=2
76.07942753125 note_off channel=2 note=55 velocity=0 time=34
76.08975809374999 note_off channel=2 note=52 velocity=0 time=2
76.08975809374999 note_off channel=2 note=64 velocity=0 time=0
76.1052539375 note_off channel=2 note=59 velocity=0 time=3
76.1052539375 note_on channel=2 note=64 velocity=90 time=0
76.11041921875001 note_on channel=2 note=59 velocity=86 time=1
76.11041921875001 note_on channel=9 note=35 velocity=107 time=0
76.11041921875001 note_on channel=9 note=46 velocity=66 time=0
76.12074978125 note_on channel=2 note=55 velocity=76 time=2
76.1259150625 note_on channel=2 note=52 velocity=67 time=1
76.14141090625 note_off channel=9 note=46 velocity=0 time=3
76.14141090625 note_off channel=9 note=35 velocity=0 time=0
76.34802215625 note_off channel=3 note=71 velocity=0 time=40
76.34802215625 note_on channel=3 note=74 velocity=99 time=0
76.36868328125 note_on channel=9 note=42 velocity=66 time=4
76.39967496874999 note_off channel=9 note=42 velocity=0 time=6
76.57529453125001 note_off channel=2 note=55 velocity=0 time=34
76.5804598125 note_off channel=2 note=64 velocity=0 time=1
76.58562509375 note_off channel=3 note=74 velocity=0 time=1
76.59595565625 note_off channel=2 note=59 velocity=0 time=2
76.59595565625 note_on channel=2 note=64 velocity=72 time=0
76.6011209375 control_change channel=7 control=11 value=125 time=1
76.6011209375 note_on channel=9 note=37 velocity=104 time=0
76.60628621875 note_on channel=2 note=59 velocity=78 time=1
76.60628621875 note_on channel=3 note=76 velocity=99 time=0
76.6114515 note_off channel=2 note=52 velocity=0 time=1
76.61661678125 note_on channel=2 note=55 velocity=69 time=1
76.61661678125 control_change channel=7 control=11 value=121 time=0
76.61661678125 note_on channel=9 note=42 velocity=65 time=0
76.6217820625 note_on channel=2 note=52 velocity=41 time=1
76.63211262499999 control_change channel=7 control=11 value=116 time=2
76.63211262499999 note_off channel=9 note=37 velocity=0 time=0
76.64760846875 control_change channel=7 control=11 value=109 time=3
76.64760846875 note_off channel=9 note=42 velocity=0 time=0
76.6631043125 control_change channel=7 control=11 value=101 time=3
76.67860015625 control_change channel=7 control=11 value=92 time=3
76.694096 control_change channel=7 control=11 value=81 time=3
76.70959184374999 control_change channel=7 control=11 value=70 time=3
76.7250876875 note_off channel=2 note=49 velocity=0 time=3
76.7250876875 control_change channel=7 control=11 value=56 time=0
76.74058353125 note_off channel=7 note=69 velocity=0 time=3
76.74058353125 control_change channel=7 control=11 value=40 time=0
76.756079375 note_off channel=1 note=37 velocity=0 time=3
76.756079375 note_on channel=7 note=67 velocity=95 time=0
76.756079375 control_change channel=7 control=11 value=23 time=0
76.77157521875 control_change channel=7 control=11 value=8 time=3
76.7767405 note_off channel=6 note=49 velocity=0 time=1
76.79223634375 control_change channel=7 control=11 value=3 time=3
76.80773218750001 note_off channel=0 note=76 velocity=0 time=3
76.81806275 note_on channel=1 note=36 velocity=105 time=2
76.83355859375 note_on channel=6 note=48 velocity=92 time=3
76.83355859375 control_change channel=7 control=11 value=9 time=0
76.84388915625 note_off channel=2 note=64 velocity=0 time=2
76.8490544375 note_off channel=2 note=52 velocity=0 time=1
76.85421971875 note_on channel=2 note=48 velocity=74 time=1
76.85421971875 control_change channel=7 control=11 value=17 time=0
76.85421971875 note_on channel=9 note=35 velocity=98 time=0
76.859385 note_off channel=2 note=59 velocity=0 time=1
76.859385 note_off channel=2 note=55 velocity=0 time=0
76.859385 note_on channel=2 note=52 velocity=76 time=0
76.859385 note_on channel=9 note=42 velocity=69 time=0
76.86455028124999 note_on channel=2 note=55 velocity=82 time=1
76.8697155625 note_on channel=2 note=59 velocity=82 time=1
76.8697155625 control_change channel=7 control=11 value=26 time=0
76.87488084375 note_on channel=2 note=64 velocity=62 time=1
76.88521140625001 control_change channel=7 control=11 value=37 time=2
76.88521140625001 note_off channel=9 note=35 velocity=0 time=0
76.8903766875 note_off channel=9 note=42 velocity=0 time=1
76.90070725000001 control_change channel=7 control=11 value=51 time=2
76.91620309375 control_change channel=7 control=11 value=65 time=3
76.9316989375 control_change channel=7 control=11 value=81 time=3
76.94719478125 control_change channel=7 control=11 value=96 time=3
76.96269062500001 control_change channel=7 control=11 value=108 time=3
76.97818646875001 control_change channel=7 control=11 value=117 time=3
76.9936823125 control_change channel=7 control=11 value=124 time=3
77.00917815625 control_change channel=7 control=11 value=127 time=3
77.07116153125 note_off channel=2 note=64 velocity=0 time=12
77.10215321875 note_on channel=2 note=64 velocity=49 time=6
77.1073185 note_on channel=9 note=42 velocity=66 time=1
77.13314490625001 note_off channel=0 note=67 velocity=0 time=5
77.1383101875 note_off channel=9 note=42 velocity=0 time=1
77.16413659375 note_off channel=0 note=71 velocity=0 time=5
77.2209546875 note_on channel=0 note=67 velocity=24 time=11
77.2726075 note_on channel=0 note=71 velocity=63 time=10
77.32942559375 note_on channel=0 note=76 velocity=57 time=11
77.334590875 note_off channel=2 note=48 velocity=0 time=1
77.33975615625 note_off channel=2 note=52 velocity=0 time=1
77.34492143749999 note_on channel=9 note=37 velocity=96 time=1
77.35525200000001 note_on channel=2 note=52 velocity=30 time=2
77.36041728125 note_on channel=9 note=42 velocity=70 time=1
77.375913125 note_off channel=9 note=37 velocity=0 time=3
77.39140896875 note_off channel=9 note=42 velocity=0 time=3
77.52570628125 note_off channel=2 note=59 velocity=0 time=26
77.58768965625 note_off channel=2 note=64 velocity=0 time=12
77.5928549375 note_on channel=2 note=64 velocity=88 time=1
77.59802021875001 note_on channel=9 note=46 velocity=65 time=1
77.59802021875001 note_on channel=9 note=35 velocity=104 time=0
77.6031855 note_off channel=2 note=55 velocity=0 time=1
77.6031855 note_on channel=2 note=59 velocity=88 time=0
77.60835078125 note_off channel=2 note=52 velocity=0 time=1
77.60835078125 note_on channel=2 note=55 velocity=78 time=0
77.61351606250001 note_on channel=2 note=52 velocity=64 time=1
77.623846625 note_on channel=2 note=48 velocity=37 time=2
77.62901190625 note_off channel=9 note=35 velocity=0 time=1
77.62901190625 note_off channel=9 note=46 velocity=0 time=0
77.64450775 control_change channel=7 control=11 value=126 time=3
77.7994661875 note_off channel=3 note=76 velocity=0 time=30
77.83045787500001 note_on channel=3 note=79 velocity=99 time=6
77.851119 note_on channel=9 note=42 velocity=72 time=4
77.8821106875 note_off channel=9 note=42 velocity=0 time=6
77.99058159375 note_off channel=1 note=36 velocity=0 time=21
78.06289553125 note_off channel=2 note=64 velocity=0 time=14
78.07322609375 note_off channel=2 note=59 velocity=0 time=2
78.08355665625 note_on channel=2 note=64 velocity=65 time=2
78.0887219375 note_on channel=2 note=59 velocity=68 time=1
78.09388721875 note_on channel=9 note=37 velocity=101 time=1
78.09388721875 note_on channel=9 note=42 velocity=69 time=0
78.12487890625 note_off channel=9 note=42 velocity=0 time=6
78.12487890625 note_off channel=9 note=37 velocity=0 time=0
78.13520946874999 control_change channel=7 control=11 value=120 time=2
78.1507053125 control_change channel=7 control=11 value=113 time=3
78.16620115625 control_change channel=7 control=11 value=104 time=3
78.17653171875 note_off channel=7 note=67 velocity=0 time=2
78.181697 control_change channel=7 control=11 value=94 time=1
78.19719284375 control_change channel=7 control=11 value=83 time=3
78.21268868749999 control_change channel=7 control=11 value=70 time=3
78.22818453125 control_change channel=7 control=11 value=55 time=3
78.243680375 control_change channel=7 control=11 value=38 time=3
78.24884565625001 note_off channel=2 note=48 velocity=0 time=1
78.2540109375 note_off channel=6 note=48 velocity=0 time=1
78.25917621875 control_change channel=7 control=11 value=21 time=1
78.2746720625 control_change channel=7 control=11 value=7 time=3
78.285002625 note_on channel=7 note=64 velocity=109 time=2
78.29016790624999 control_change channel=7 control=11 value=3 time=1
78.32115959375 note_off channel=2 note=52 velocity=0 time=6
78.32632487500001 note_on channel=1 note=40 velocity=106 time=1
78.3366554375 note_off channel=2 note=55 velocity=0 time=2
78.3366554375 note_off channel=2 note=64 velocity=0 time=0
78.3366554375 control_change channel=7 control=11 value=5 time=0
78.34182071875 note_on channel=2 note=52 velocity=79 time=1
78.34182071875 note_off channel=3 note=79 velocity=0 time=0
78.34182071875 note_on channel=3 note=76 velocity=92 time=0
78.34182071875 note_on channel=6 note=47 velocity=110 time=0
78.346986 note_off channel=2 note=59 velocity=0 time=1
78.346986 note_on channel=2 note=55 velocity=84 time=0
78.346986 note_on channel=9 note=35 velocity=97 time=0
78.346986 note_on channel=9 note=42 velocity=69 time=0
78.35215128125 note_on channel=2 note=59 velocity=86 time=1
78.3573165625 note_on channel=2 note=64 velocity=86 time=1
78.3573165625 control_change channel=7 control=11 value=9 time=0
78.36248184375 note_on channel=2 note=47 velocity=74 time=1
78.36764712499999 control_change channel=7 control=11 value=14 time=1
78.37281240625 note_off channel=0 note=76 velocity=0 time=1
78.3779776875 note_off channel=9 note=42 velocity=0 time=1
78.3779776875 note_off channel=9 note=35 velocity=0 time=0
78.38830825000001 control_change channel=7 control=11 value=19 time=2
78.3986388125 control_change channel=7 control=11 value=25 time=2
78.41413465625 control_change channel=7 control=11 value=32 time=3
78.43479578125 control_change channel=7 control=11 value=39 time=4
78.450291625 control_change channel=7 control=11 value=47 time=3
78.46578746875001 control_change channel=7 control=11 value=54 time=3
78.48128331250001 control_change channel=7 control=11 value=61 time=3
78.49677915625 control_change channel=7 control=11 value=68 time=3
78.512275 control_change channel=7 control=11 value=75 time=3
78.52777084375 control_change channel=7 control=11 value=82 time=3
78.54326668750001 control_change channel=7 control=11 value=89 time=3
78.55876253125001 control_change channel=7 control=11 value=96 time=3
78.574258375 control_change channel=7 control=11 value=103 time=3
78.58975421875 control_change channel=7 control=11 value=110 time=3
78.58975421875 note_on channel=9 note=42 velocity=59 time=0
78.6052500625 control_change channel=7 control=11 value=116 time=3
78.62074590625001 control_change channel=7 control=11 value=123 time=3
78.62074590625001 note_off channel=9 note=42 velocity=0 time=0
78.63624175000001 control_change channel=7 control=11 value=126 time=3
78.739547375 note_off channel=0 note=67 velocity=0 time=20
78.78603490625 note_off channel=0 note=71 velocity=0 time=9
78.822191875 note_on channel=0 note=71 velocity=42 time=7
78.83768771875 note_off channel=2 note=59 velocity=0 time=3
78.83768771875 note_on channel=9 note=42 velocity=58 time=0
78.84801828124999 note_on channel=2 note=59 velocity=54 time=2
78.85834884375 control_change channel=7 control=11 value=122 time=2
78.86867940625001 note_off channel=9 note=42 velocity=0 time=2
78.8738446875 control_change channel=7 control=11 value=117 time=1
78.88934053125 control_change channel=7 control=11 value=112 time=3
78.904836375 control_change channel=7 control=11 value=109 time=3
78.92033221875 control_change channel=7 control=11 value=107 time=3
78.97198503125 control_change channel=7 control=11 value=111 time=10
78.98748087499999 control_change channel=7 control=11 value=119 time=3
78.9978114375 note_off channel=1 note=40 velocity=0 time=2
79.00297671874999 control_change channel=7 control=11 value=126 time=1
79.06496009375 note_off channel=2 note=59 velocity=0 time=12
79.070125375 note_off channel=2 note=64 velocity=0 time=1
79.07529065625 note_on channel=2 note=64 velocity=89 time=1
79.07529065625 note_on channel=9 note=42 velocity=57 time=0
79.08045593749999 note_off channel=2 note=52 velocity=0 time=1
79.08045593749999 note_off channel=2 note=55 velocity=0 time=0
79.08045593749999 note_on channel=2 note=59 velocity=86 time=0
79.08562121875 note_on channel=1 note=35 velocity=113 time=1
79.08562121875 note_off channel=2 note=47 velocity=0 time=0
79.08562121875 note_on channel=9 note=35 velocity=100 time=0
79.09078650000001 note_on channel=2 note=55 velocity=77 time=1
79.09595178125 note_on channel=2 note=52 velocity=56 time=1
79.10111706250001 note_on channel=2 note=47 velocity=72 time=1
79.10628234375 note_off channel=9 note=42 velocity=0 time=1
79.11661290625001 note_off channel=9 note=35 velocity=0 time=2
79.17859628125001 control_change channel=7 control=11 value=120 time=12
79.19409212500001 control_change channel=7 control=11 value=116 time=3
79.20958796875 control_change channel=7 control=11 value=114 time=3
79.25607550000001 control_change channel=7 control=11 value=117 time=9
79.27157134375001 control_change channel=7 control=11 value=124 time=3
79.2870671875 control_change channel=7 control=11 value=127 time=3
79.32322415625 note_on channel=9 note=42 velocity=59 time=7
79.35421584375 note_off channel=9 note=42 velocity=0 time=6
79.42652978125001 control_change channel=7 control=11 value=126 time=14
79.442025625 control_change channel=7 control=11 value=124 time=3
79.45752146875 control_change channel=7 control=11 value=121 time=3
79.4730173125 control_change channel=7 control=11 value=119 time=3
79.54016596875 control_change channel=7 control=11 value=124 time=13
79.54533124999999 note_off channel=2 note=64 velocity=0 time=1
79.5556618125 note_off channel=2 note=59 velocity=0 time=2
79.5556618125 control_change channel=7 control=11 value=126 time=0
79.56082709374999 note_on channel=2 note=64 velocity=78 time=1
79.56599237500001 note_off channel=2 note=55 velocity=0 time=1
79.57115765625 note_on channel=2 note=59 velocity=81 time=1
79.5763229375 note_off channel=1 note=35 velocity=0 time=1
79.5763229375 note_on channel=2 note=55 velocity=68 time=0
79.5763229375 note_on channel=9 note=42 velocity=65 time=0
79.58148821875001 note_on channel=1 note=31 velocity=106 time=1
79.607314625 note_off channel=9 note=42 velocity=0 time=5
79.65380215625 note_off channel=6 note=47 velocity=0 time=9
79.7416119375 note_off channel=0 note=71 velocity=0 time=17
79.772603625 note_off channel=2 note=59 velocity=0 time=6
79.7829341875 note_off channel=2 note=47 velocity=0 time=2
79.80876059375 note_off channel=2 note=52 velocity=0 time=5
79.80876059375 note_off channel=2 note=64 velocity=0 time=0
79.81909115625 note_off channel=2 note=55 velocity=0 time=2
79.81909115625 note_on channel=2 note=47 velocity=68 time=0
79.8242564375 note_on channel=2 note=52 velocity=64 time=1
79.8242564375 note_on channel=9 note=42 velocity=69 time=0
79.82942171875 note_on channel=0 note=40 velocity=102 time=1
79.82942171875 note_off channel=1 note=31 velocity=0 time=0
79.82942171875 note_on channel=1 note=28 velocity=108 time=0
79.82942171875 note_on channel=2 note=55 velocity=81 time=0
79.82942171875 note_on channel=6 note=40 velocity=98 time=0
79.82942171875 note_on channel=9 note=35 velocity=103 time=0
79.834587 note_on channel=2 note=59 velocity=80 time=1
79.834587 note_on channel=2 note=64 velocity=78 time=0
79.834587 note_off channel=3 note=76 velocity=0 time=0
79.85524812499999 note_off channel=9 note=42 velocity=0 time=4
79.86041340625 note_off channel=9 note=35 velocity=0 time=1
79.91206621875 note_off channel=7 note=64 velocity=0 time=10
80.05669409375 note_off channel=0 note=40 velocity=0 time=28
80.06702465625 note_on channel=9 note=42 velocity=52 time=2
80.0721899375 note_on channel=0 note=43 velocity=102 time=1
80.07735521875 note_off channel=1 note=28 velocity=0 time=1
80.0825205 note_on channel=6 note=43 velocity=99 time=1
80.09801634375 note_off channel=9 note=42 velocity=0 time=3
80.13933859375001 note_off channel=6 note=40 velocity=0 time=8
80.18066084374999 note_off channel=2 note=47 velocity=0 time=8
80.185826125 note_off channel=2 note=64 velocity=0 time=1
80.20648725 note_off channel=2 note=52 velocity=0 time=4
80.20648725 note_off channel=2 note=59 velocity=0 time=0
80.21681781250001 note_off channel=2 note=55 velocity=0 time=2
80.2994623125 note_off channel=0 note=43 velocity=0 time=16
80.31495815625 note_on channel=0 note=45 velocity=102 time=3
80.31495815625 note_on channel=9 note=42 velocity=68 time=0
80.330454 note_on channel=6 note=45 velocity=109 time=3
80.34594984375 note_off channel=9 note=42 velocity=0 time=3
80.35628040625001 note_off channel=6 note=43 velocity=0 time=2
80.52673468750001 note_off channel=0 note=45 velocity=0 time=33
80.56289165625 note_on channel=0 note=47 velocity=102 time=7
80.56289165625 note_on channel=9 note=42 velocity=54 time=0
80.56805693749999 note_on channel=6 note=47 velocity=109 time=1
80.58355278124999 note_off channel=6 note=45 velocity=0 time=3
80.59388334375 note_off channel=9 note=42 velocity=0 time=2
80.7953293125 note_off channel=0 note=47 velocity=0 time=39
80.81599043749999 note_on channel=9 note=42 velocity=78 time=4
80.82115571875 note_on channel=0 note=50 velocity=98 time=1
80.82115571875 note_on channel=6 note=50 velocity=113 time=0
80.846982125 note_off channel=9 note=42 velocity=0 time=5
80.85214740625001 note_off channel=6 note=47 velocity=0 time=1
81.0432628125 note_off channel=0 note=50 velocity=0 time=37
81.05875865625 note_on channel=0 note=52 velocity=95 time=3
81.05875865625 note_on channel=6 note=52 velocity=119 time=0
81.0742545 note_on channel=9 note=35 velocity=93 time=3
81.08975034375 note_off channel=6 note=50 velocity=0 time=3
81.1052461875 note_off channel=9 note=35 velocity=0 time=3
81.28086574999999 note_off channel=6 note=52 velocity=0 time=34
81.29636159374999 note_on channel=9 note=49 velocity=59 time=3
81.3118574375 note_on channel=5 note=76 velocity=118 time=3
81.31702271875001 note_on channel=3 note=76 velocity=108 time=1
81.31702271875001 note_on channel=9 note=35 velocity=108 time=0
81.322188 note_off channel=0 note=52 velocity=0 time=1
81.322188 note_on channel=1 note=40 velocity=102 time=0
81.322188 note_on channel=5 note=80 velocity=117 time=0
81.32735328125 note_off channel=9 note=49 velocity=0 time=1
81.3325185625 note_on channel=0 note=47 velocity=51 time=1
81.3325185625 note_on channel=0 note=52 velocity=56 time=0
81.33768384375 note_on channel=2 note=56 velocity=46 time=1
81.342849125 note_on channel=0 note=59 velocity=71 time=1
81.342849125 note_on channel=2 note=59 velocity=78 time=0
81.34801440625 note_off channel=9 note=35 velocity=0 time=1
81.3531796875 note_on channel=2 note=68 velocity=83 time=1
81.3531796875 note_on channel=2 note=64 velocity=80 time=0
81.35834496874999 note_on channel=0 note=56 velocity=73 time=1
81.54946037500001 note_off channel=2 note=68 velocity=0 time=37
81.56495621875 note_off channel=1 note=40 velocity=0 time=3
81.5701215 note_on channel=1 note=40 velocity=98 time=1
81.5701215 note_on channel=9 note=62 velocity=84 time=0
81.57528678125 note_off channel=0 note=52 velocity=0 time=1
81.5804520625 note_on channel=0 note=52 velocity=48 time=1
81.58561734375 note_off channel=0 note=59 velocity=0 time=1
81.58561734375 note_off channel=0 note=56 velocity=0 time=0
81.59078262499999 note_on channel=2 note=68 velocity=52 time=1
81.59594790625 note_on channel=0 note=56 velocity=69 time=1
81.6011131875 note_on channel=0 note=59 velocity=77 time=1
81.6011131875 note_off channel=9 note=62 velocity=0 time=0
81.61144375 note_on channel=0 note=64 velocity=60 time=2
81.69408825000001 note_on channel=9 note=62 velocity=71 time=16
81.7250799375 note_off channel=9 note=62 velocity=0 time=6
81.80255915625 note_off channel=2 note=59 velocity=0 time=15
81.80255915625 note_off channel=2 note=56 velocity=0 time=0
81.80255915625 note_off channel=2 note=64 velocity=0 time=0
81.8077244375 note_off channel=1 note=40 velocity=0 time=1
81.81288971875 note_on channel=1 note=40 velocity=101 time=1
81.81288971875 note_on channel=9 note=40 velocity=84 time=0
81.81288971875 note_on channel=9 note=62 velocity=78 time=0
81.818055 note_off channel=2 note=68 velocity=0 time=1
81.818055 note_on channel=2 note=56 velocity=56 time=0
81.82322028125 note_on channel=2 note=59 velocity=72 time=1
81.8283855625 note_on channel=2 note=64 velocity=76 time=1
81.8283855625 note_on channel=9 note=42 velocity=59 time=0
81.83355084375 note_on channel=2 note=68 velocity=81 time=1
81.84388140625 note_off channel=9 note=62 velocity=0 time=2
81.84388140625 note_off channel=9 note=40 velocity=0 time=0
81.85937725000001 note_off channel=9 note=42 velocity=0 time=3
82.045327375 note_off channel=0 note=64 velocity=0 time=36
82.05049265625 note_on channel=0 note=64 velocity=83 time=1
82.05049265625 note_off channel=2 note=68 velocity=0 time=0
82.06082321875 note_off channel=0 note=59 velocity=0 time=2
82.06082321875 note_off channel=2 note=64 velocity=0 time=0
82.06082321875 note_on channel=9 note=62 velocity=80 time=0
82.0659885 note_on channel=0 note=59 velocity=84 time=1
82.0659885 note_off channel=1 note=40 velocity=0 time=0
82.07115378124999 note_on channel=1 note=40 velocity=102 time=1
82.07115378124999 note_off channel=2 note=59 velocity=0 time=0
82.07115378124999 note_on channel=2 note=68 velocity=88 time=0
82.07115378124999 note_on channel=2 note=64 velocity=79 time=0
82.0763190625 note_on channel=2 note=59 velocity=80 time=1
82.08664962499999 note_off channel=0 note=47 velocity=0 time=2
82.09181490625001 note_on channel=0 note=47 velocity=68 time=1
82.09181490625001 note_off channel=9 note=62 velocity=0 time=0
82.11247603125 note_on channel=0 note=40 velocity=51 time=4
82.18478996875001 note_on channel=9 note=62 velocity=67 time=14
82.21578165625 note_off channel=9 note=62 velocity=0 time=6
82.29842615625 note_off channel=1 note=40 velocity=0 time=16
82.29842615625 note_off channel=2 note=56 velocity=0 time=0
82.30359143749999 note_on channel=2 note=52 velocity=62 time=1
82.30875671875 note_on channel=1 note=40 velocity=110 time=1
82.30875671875 note_on channel=2 note=56 velocity=57 time=0
82.30875671875 note_on channel=9 note=42 velocity=70 time=0
82.30875671875 note_on channel=9 note=62 velocity=78 time=0
82.313922 note_off channel=2 note=64 velocity=0 time=1
82.31908728124999 note_on channel=2 note=64 velocity=74 time=1
82.3242525625 note_on channel=9 note=40 velocity=86 time=1
82.33974840625001 note_off channel=9 note=62 velocity=0 time=3
82.33974840625001 note_off channel=9 note=42 velocity=0 time=0
82.35524425 note_off channel=9 note=40 velocity=0 time=3
82.4895415625 note_off channel=2 note=59 velocity=0 time=26
82.5308638125 note_off channel=0 note=64 velocity=0 time=8
82.53602909375 note_on channel=0 note=64 velocity=76 time=1
82.53602909375 note_off channel=1 note=40 velocity=0 time=0
82.53602909375 note_off channel=2 note=68 velocity=0 time=0
82.54635965625 note_off channel=0 note=59 velocity=0 time=2
82.54635965625 note_off channel=2 note=64 velocity=0 time=0
82.55152493749999 note_on channel=2 note=68 velocity=78 time=1
82.55669021875 note_on channel=0 note=59 velocity=76 time=1
82.55669021875 note_on channel=1 note=35 velocity=109 time=0
82.55669021875 note_off channel=2 note=52 velocity=0 time=0
82.55669021875 note_on channel=2 note=64 velocity=78 time=0
82.56185550000001 note_on channel=2 note=59 velocity=62 time=1
82.56185550000001 note_on channel=9 note=62 velocity=80 time=0
82.57735134375 note_on channel=2 note=52 velocity=56 time=3
82.5928471875 note_off channel=9 note=62 velocity=0 time=3
82.68582225 note_on channel=9 note=62 velocity=70 time=18
82.69098753125 note_off channel=1 note=35 velocity=0 time=1
82.7168139375 note_off channel=9 note=62 velocity=0 time=5
82.7581361875 note_off channel=0 note=40 velocity=0 time=8
82.76846675 note_off channel=2 note=59 velocity=0 time=2
82.7787973125 note_off channel=0 note=47 velocity=0 time=2
82.7787973125 note_on channel=0 note=40 velocity=53 time=0
82.78396259374999 note_off channel=0 note=52 velocity=0 time=1
82.79429315625 note_off channel=2 note=68 velocity=0 time=2
82.7994584375 note_on channel=0 note=52 velocity=56 time=1
82.7994584375 note_on channel=0 note=47 velocity=49 time=0
82.7994584375 note_off channel=2 note=56 velocity=0 time=0
82.7994584375 note_on channel=7 note=68 velocity=96 time=0
82.80462371875001 note_on channel=2 note=56 velocity=52 time=1
82.80462371875001 note_on channel=2 note=59 velocity=79 time=0
82.80462371875001 note_on channel=9 note=35 velocity=97 time=0
82.80462371875001 note_on channel=9 note=62 velocity=81 time=0
82.81495428125 note_on channel=1 note=28 velocity=111 time=2
82.81495428125 note_on channel=2 note=68 velocity=83 time=0
82.81495428125 note_on channel=9 note=49 velocity=59 time=0
82.82011956250001 note_off channel=0 note=59 velocity=0 time=1
82.82528484375 note_on channel=0 note=59 velocity=56 time=1
82.83561540625 note_off channel=9 note=62 velocity=0 time=2
82.83561540625 note_off channel=9 note=35 velocity=0 time=0
82.84594596875 note_off channel=9 note=49 velocity=0 time=2
83.0267308125 note_off channel=2 note=68 velocity=0 time=35
83.04222665625 note_on channel=2 note=68 velocity=76 time=3
83.0577225 note_on channel=9 note=62 velocity=71 time=3
83.07321834375 note_off channel=0 note=47 velocity=0 time=3
83.0887141875 note_off channel=9 note=62 velocity=0 time=3
83.09387946874999 note_off channel=1 note=28 velocity=0 time=1
83.11454059375001 note_off channel=0 note=52 velocity=0 time=4
83.12487115625 note_on channel=0 note=47 velocity=47 time=2
83.1506975625 note_off channel=0 note=56 velocity=0 time=5
83.1506975625 note_on channel=0 note=52 velocity=43 time=0
83.161028125 note_on channel=0 note=56 velocity=62 time=2
83.17135868749999 note_off channel=0 note=59 velocity=0 time=2
83.17652396875 note_on channel=9 note=62 velocity=63 time=1
83.1920198125 note_on channel=0 note=59 velocity=71 time=3
83.20751565625001 note_off channel=0 note=64 velocity=0 time=3
83.20751565625001 note_off channel=9 note=62 velocity=0 time=0
83.2333420625 note_on channel=0 note=64 velocity=67 time=5
83.2746643125 note_off channel=2 note=56 velocity=0 time=8
83.28499487500001 note_off channel=2 note=59 velocity=0 time=2
83.29016015625 note_off channel=2 note=68 velocity=0 time=1
83.29016015625 note_on channel=2 note=56 velocity=55 time=0
83.2953254375 note_off channel=2 note=64 velocity=0 time=1
83.2953254375 note_on channel=2 note=59 velocity=70 time=0
83.2953254375 note_on channel=9 note=62 velocity=70 time=0
83.30049071875 note_on channel=1 note=30 velocity=108 time=1
83.30049071875 note_on channel=2 note=64 velocity=76 time=0
83.30049071875 note_on channel=9 note=40 velocity=75 time=0
83.305656 note_on channel=2 note=68 velocity=56 time=1
83.305656 note_on channel=9 note=42 velocity=59 time=0
83.326317125 note_off channel=9 note=62 velocity=0 time=4
83.33148240625 note_off channel=9 note=40 velocity=0 time=1
83.3366476875 note_off channel=9 note=42 velocity=0 time=1
83.50710196875 note_off channel=0 note=64 velocity=0 time=33
83.51226725 note_on channel=0 note=64 velocity=87 time=1
83.51743253125001 note_off channel=0 note=59 velocity=0 time=1
83.5225978125 note_on channel=0 note=59 velocity=84 time=1
83.52776309375 note_off channel=0 note=56 velocity=0 time=1
83.52776309375 note_off channel=2 note=68 velocity=0 time=0
83.53292837500001 note_off channel=0 note=52 velocity=0 time=1
83.53809365625 note_off channel=0 note=47 velocity=0 time=1
83.53809365625 note_on channel=0 note=56 velocity=72 time=0
83.53809365625 note_on channel=0 note=52 velocity=64 time=0
83.5432589375 note_off channel=2 note=64 velocity=0 time=1
83.5432589375 note_on channel=2 note=68 velocity=81 time=0
83.54842421875 note_on channel=2 note=64 velocity=79 time=1
83.54842421875 note_on channel=9 note=62 velocity=77 time=0
83.5535895 note_on channel=0 note=47 velocity=63 time=1
83.5535895 note_off channel=1 note=30 velocity=0 time=0
83.56908534375 note_off channel=0 note=40 velocity=0 time=3
83.57941590625 note_off channel=9 note=62 velocity=0 time=2
83.5845811875 note_on channel=0 note=40 velocity=36 time=1
83.67239096875001 note_on channel=9 note=62 velocity=69 time=17
83.70338265625 note_off channel=9 note=62 velocity=0 time=6
83.780861875 note_off channel=2 note=56 velocity=0 time=15
83.78602715625 note_off channel=2 note=59 velocity=0 time=1
83.78602715625 note_on channel=2 note=56 velocity=65 time=0
83.7911924375 note_off channel=2 note=68 velocity=0 time=1
83.7911924375 note_off channel=2 note=64 velocity=0 time=0
83.7911924375 note_on channel=2 note=59 velocity=77 time=0
83.79635771875 note_on channel=2 note=64 velocity=79 time=1
83.79635771875 note_on channel=2 note=68 velocity=80 time=0
83.79635771875 note_on channel=9 note=40 velocity=85 time=0
83.79635771875 note_on channel=9 note=62 velocity=75 time=0
83.80668828124999 note_on channel=1 note=32 velocity=111 time=2
83.80668828124999 note_on channel=9 note=42 velocity=73 time=0
83.82734940625001 note_off channel=9 note=62 velocity=0 time=4
83.82734940625001 note_off channel=9 note=40 velocity=0 time=0
83.83767996875 note_off channel=9 note=42 velocity=0 time=2
83.99780368750001 note_off channel=2 note=64 velocity=0 time=31
84.00813425 note_off channel=0 note=64 velocity=0 time=2
84.01329953125 note_on channel=0 note=64 velocity=70 time=1
84.02363009375 note_off channel=0 note=59 velocity=0 time=2
84.03396065625 note_on channel=0 note=59 velocity=69 time=2
84.03912593749999 note_on channel=9 note=35 velocity=62 time=1
84.04429121875 note_off channel=0 note=56 velocity=0 time=1
84.0494565 note_on channel=0 note=56 velocity=51 time=1
84.0494565 note_off channel=1 note=32 velocity=0 time=0
84.0494565 note_on channel=9 note=62 velocity=78 time=0
84.05462178124999 note_off channel=2 note=68 velocity=0 time=1
84.070117625 note_off channel=9 note=35 velocity=0 time=3
84.0804481875 note_off channel=2 note=59 velocity=0 time=2
84.0804481875 note_off channel=9 note=62 velocity=0 time=0
84.1011093125 note_off channel=2 note=56 velocity=0 time=4
84.111439875 note_off channel=2 note=52 velocity=0 time=2
84.11660515624999 note_off channel=0 note=47 velocity=0 time=1
84.13726628125 note_off channel=0 note=52 velocity=0 time=4
84.15792740625 note_off channel=3 note=76 velocity=0 time=4
84.16825796875 note_on channel=9 note=62 velocity=70 time=2
84.19924965625 note_off channel=9 note=62 velocity=0 time=6
84.21991078125001 note_off channel=0 note=56 velocity=0 time=4
84.21991078125001 note_off channel=5 note=76 velocity=0 time=0
84.23024134375001 note_off channel=0 note=40 velocity=0 time=2
84.23024134375001 note_off channel=0 note=59 velocity=0 time=0
84.27156359375 note_on channel=0 note=45 velocity=52 time=8
84.276728875 note_on channel=2 note=52 velocity=18 time=1
84.276728875 note_off channel=7 note=68 velocity=0 time=0
84.276728875 note_on channel=9 note=49 velocity=55 time=0
84.28189415625 note_on channel=2 note=45 velocity=66 time=1
84.28705943749999 note_on channel=2 note=57 velocity=59 time=1
84.28705943749999 note_on channel=5 note=76 velocity=100 time=0
84.29222471875 note_on channel=0 note=55 velocity=71 time=1
84.29222471875 note_on channel=2 note=60 velocity=76 time=0
84.29222471875 note_on channel=3 note=76 velocity=105 time=0
84.29222471875 note_on channel=5 note=79 velocity=91 time=0
84.29222471875 note_on channel=7 note=67 velocity=66 time=0
84.29222471875 note_on channel=9 note=35 velocity=100 time=0
84.29222471875 note_on channel=9 note=62 velocity=84 time=0
84.29739000000001 note_on channel=0 note=52 velocity=62 time=1
84.29739000000001 note_on channel=1 note=33 velocity=108 time=0
84.29739000000001 note_on channel=2 note=64 velocity=76 time=0
84.30255528125 note_on channel=0 note=60 velocity=71 time=1
84.30255528125 note_on channel=2 note=69 velocity=69 time=0
84.30255528125 note_off channel=5 note=80 velocity=0 time=0
84.30772056250001 note_off channel=9 note=49 velocity=0 time=1
84.32321640625001 note_off channel=9 note=35 velocity=0 time=3
84.32321640625001 note_off channel=9 note=62 velocity=0 time=0
84.48850540625 note_off channel=1 note=33 velocity=0 time=32
84.51949709374999 note_off channel=0 note=60 velocity=0 time=6
84.51949709374999 note_off channel=0 note=52 velocity=0 time=0
84.51949709374999 note_off channel=2 note=69 velocity=0 time=0
84.52982765625 note_off channel=0 note=55 velocity=0 time=2
84.5349929375 note_off channel=0 note=64 velocity=0 time=1
84.5349929375 note_on channel=0 note=52 velocity=46 time=0
84.5349929375 note_on channel=2 note=69 velocity=57 time=0
84.54015821875001 note_on channel=0 note=55 velocity=80 time=1
84.5453235 note_on channel=9 note=62 velocity=82 time=1
84.55048878125 note_on channel=0 note=60 velocity=83 time=1
84.55048878125 note_on channel=0 note=64 velocity=87 time=0
84.55048878125 note_on channel=1 note=33 velocity=104 time=0
84.5763151875 note_off channel=9 note=62 velocity=0 time=5
84.66929025 note_on channel=9 note=62 velocity=56 time=18
84.7002819375 note_off channel=9 note=62 velocity=0 time=6
84.73643890625 note_off channel=2 note=69 velocity=0 time=7
84.75710003125 note_off channel=2 note=57 velocity=0 time=4
84.77259587500001 note_off channel=2 note=64 velocity=0 time=3
84.77259587500001 note_on channel=2 note=57 velocity=51 time=0
84.7829264375 note_on channel=9 note=40 velocity=77 time=2
84.78809171875001 note_on channel=2 note=64 velocity=68 time=1
84.78809171875001 note_on channel=9 note=62 velocity=76 time=0
84.793257 note_on channel=2 note=69 velocity=34 time=1
84.79842228125 note_on channel=9 note=42 velocity=66 time=1
84.813918125 note_off channel=9 note=40 velocity=0 time=3
84.81908340625 note_off channel=9 note=62 velocity=0 time=1
84.82941396874999 note_off channel=9 note=42 velocity=0 time=2
84.9275543125 note_off channel=1 note=33 velocity=0 time=19
84.9895376875 note_off channel=2 note=64 velocity=0 time=12
85.0101988125 note_off channel=2 note=69 velocity=0 time=4
85.01536409375 note_off channel=2 note=52 velocity=0 time=1
85.02052937500001 note_off channel=0 note=64 velocity=0 time=1
85.02052937500001 note_off channel=2 note=57 velocity=0 time=0
85.02569465625 note_on channel=2 note=69 velocity=79 time=1
85.0308599375 note_off channel=0 note=60 velocity=0 time=1
85.0308599375 note_on channel=0 note=64 velocity=84 time=0
85.0308599375 note_on channel=2 note=64 velocity=80 time=0
85.03602521875 note_on channel=0 note=60 velocity=82 time=1
85.0411905 note_off channel=0 note=55 velocity=0 time=1
85.0411905 note_on channel=2 note=57 velocity=74 time=0
85.0411905 note_on channel=9 note=62 velocity=76 time=0
85.04635578125 note_on channel=0 note=55 velocity=77 time=1
85.04635578125 note_on channel=2 note=52 velocity=62 time=0
85.0515210625 note_on channel=1 note=40 velocity=111 time=1
85.0515210625 note_off channel=7 note=67 velocity=0 time=0
85.0721821875 note_off channel=9 note=62 velocity=0 time=4
85.15999196875 note_on channel=9 note=62 velocity=69 time=17
85.19098365625001 note_off channel=9 note=62 velocity=0 time=6
85.26846287500001 note_off channel=5 note=76 velocity=0 time=15
85.28395871875 note_on channel=9 note=40 velocity=89 time=3
85.28395871875 note_on channel=9 note=62 velocity=74 time=0
85.2994545625 note_on channel=9 note=42 velocity=66 time=3
85.31495040625 note_off channel=9 note=62 velocity=0 time=3
85.31495040625 note_off channel=9 note=40 velocity=0 time=0
85.32528096875 note_off channel=5 note=79 velocity=0 time=2
85.33044625000001 note_off channel=9 note=42 velocity=0 time=1
85.46990884375 note_off channel=1 note=40 velocity=0 time=27
85.48023940624999 note_off channel=0 note=64 velocity=0 time=2
85.50090053125001 note_off channel=2 note=52 velocity=0 time=4
85.51123109375 note_off channel=2 note=69 velocity=0 time=2
85.516396375 note_off channel=0 note=60 velocity=0 time=1
85.516396375 note_on channel=0 note=64 velocity=91 time=0
85.516396375 note_off channel=2 note=64 velocity=0 time=0
85.5267269375 note_on channel=0 note=60 velocity=81 time=2
85.53189221875 note_on channel=1 note=36 velocity=102 time=1
85.53189221875 note_on channel=2 note=69 velocity=80 time=0
85.5370575 note_off channel=2 note=60 velocity=0 time=1
85.5370575 note_on channel=2 note=64 velocity=75 time=0
85.5370575 note_on channel=9 note=62 velocity=85 time=0
85.54222278124999 note_off channel=2 note=57 velocity=0 time=1
85.54222278124999 note_on channel=2 note=60 velocity=75 time=0
85.5473880625 note_on channel=0 note=67 velocity=80 time=1
85.5473880625 note_on channel=2 note=57 velocity=62 time=0
85.55255334375 note_on channel=2 note=52 velocity=69 time=1
85.55771862499999 note_off channel=2 note=45 velocity=0 time=1
85.56288390625001 note_on channel=2 note=45 velocity=63 time=1
85.56288390625001 note_off channel=3 note=76 velocity=0 time=0
85.5680491875 note_off channel=9 note=62 velocity=0 time=1
85.65585896875001 note_on channel=9 note=62 velocity=74 time=17
85.68685065625 note_off channel=9 note=62 velocity=0 time=6
85.73333818750001 note_off channel=0 note=52 velocity=0 time=9
85.74366875 note_off channel=0 note=55 velocity=0 time=2
85.7539993125 note_off channel=0 note=67 velocity=0 time=2
85.7539993125 note_off channel=2 note=52 velocity=0 time=0
85.75916459375 note_off channel=0 note=60 velocity=0 time=1
85.75916459375 note_on channel=0 note=67 velocity=89 time=0
85.75916459375 note_off channel=2 note=69 velocity=0 time=0
85.764329875 note_on channel=0 note=52 velocity=53 time=1
85.764329875 note_on channel=0 note=55 velocity=78 time=0
85.764329875 note_off channel=1 note=36 velocity=0 time=0
85.764329875 note_off channel=2 note=64 velocity=0 time=0
85.76949515625 note_off channel=0 note=64 velocity=0 time=1
85.76949515625 note_on channel=0 note=60 velocity=83 time=0
85.76949515625 note_on channel=5 note=76 velocity=98 time=0
85.77466043749999 note_on channel=0 note=64 velocity=91 time=1
85.77466043749999 note_on channel=3 note=76 velocity=105 time=0
85.77466043749999 note_on channel=5 note=79 velocity=112 time=0
85.77982571875 note_on channel=1 note=33 velocity=105 time=1
85.77982571875 note_off channel=2 note=60 velocity=0 time=0
85.77982571875 note_on channel=2 note=52 velocity=65 time=0
85.77982571875 note_on channel=7 note=67 velocity=81 time=0
85.77982571875 note_on channel=9 note=62 velocity=80 time=0
85.79015628124999 note_on channel=2 note=60 velocity=78 time=2
85.79015628124999 note_on channel=9 note=49 velocity=62 time=0
85.7953215625 note_on channel=2 note=64 velocity=76 time=1
85.7953215625 note_on channel=2 note=69 velocity=79 time=0
85.7953215625 note_on channel=9 note=35 velocity=99 time=0
85.81081740625001 note_off channel=9 note=62 velocity=0 time=3
85.82114796875 note_off channel=9 note=49 velocity=0 time=2
85.82631325 note_off channel=9 note=35 velocity=0 time=1
86.03808978125 note_off channel=0 note=60 velocity=0 time=41
86.04325506250001 note_off channel=0 note=45 velocity=0 time=1
86.04325506250001 note_off channel=0 note=64 velocity=0 time=0
86.04325506250001 note_off channel=1 note=33 velocity=0 time=0
86.053585625 note_off channel=2 note=45 velocity=0 time=2
86.05875090625001 note_off channel=0 note=67 velocity=0 time=1
86.05875090625001 note_off channel=0 note=55 velocity=0 time=0
86.07424675 note_off channel=0 note=52 velocity=0 time=3
86.0845773125 note_off channel=2 note=60 velocity=0 time=2
86.0845773125 note_off channel=2 note=69 velocity=0 time=0
86.08974259375 note_off channel=2 note=52 velocity=0 time=1
86.094907875 note_off channel=2 note=57 velocity=0 time=1
86.11040371875 note_off channel=2 note=64 velocity=0 time=3
86.260196875 note_on channel=5 note=78 velocity=103 time=29
86.26536215625 note_off channel=3 note=76 velocity=0 time=1
86.26536215625 note_on channel=3 note=78 velocity=101 time=0
86.26536215625 note_on channel=7 note=69 velocity=74 time=0
86.2705274375 note_on channel=0 note=69 velocity=86 time=1
86.2705274375 note_on channel=5 note=81 velocity=107 time=0
86.29635384375 note_off channel=7 note=67 velocity=0 time=5
86.301519125 note_off channel=5 note=79 velocity=0 time=1
86.3118496875 note_off channel=5 note=76 velocity=0 time=2
86.64242768749999 note_off channel=0 note=69 velocity=0 time=64
86.74056803125 note_on channel=0 note=71 velocity=82 time=19
86.7457333125 note_off channel=3 note=78 velocity=0 time=1
86.75606387500001 note_on channel=7 note=71 velocity=72 time=2
86.76122915625 note_on channel=3 note=79 velocity=99 time=1
86.7663944375 note_on channel=5 note=79 velocity=100 time=1
86.776725 note_on channel=5 note=83 velocity=107 time=2
86.7870555625 note_off channel=7 note=69 velocity=0 time=2
86.80255140625 note_off channel=5 note=78 velocity=0 time=3
86.81288196874999 note_off channel=5 note=81 velocity=0 time=2
87.0556501875 note_off channel=7 note=71 velocity=0 time=47
87.09180715625 note_off channel=0 note=71 velocity=0 time=7
87.24676559375 note_on channel=0 note=54 velocity=35 time=30
87.25709615625 note_on channel=0 note=57 velocity=24 time=2
87.25709615625 note_off channel=3 note=79 velocity=0 time=0
87.25709615625 note_on channel=5 note=74 velocity=95 time=0
87.25709615625 note_on channel=7 note=69 velocity=66 time=0
87.2622614375 note_on channel=3 note=74 velocity=100 time=1
87.2622614375 note_off channel=5 note=79 velocity=0 time=0
87.2622614375 note_off channel=5 note=83 velocity=0 time=0
87.2622614375 note_on channel=5 note=78 velocity=97 time=0
87.2622614375 note_on channel=9 note=42 velocity=59 time=0
87.272592 note_on channel=1 note=38 velocity=104 time=2
87.27775728124999 note_on channel=9 note=35 velocity=101 time=1
87.29325312499999 note_off channel=9 note=42 velocity=0 time=3
87.30874896875 note_off channel=9 note=35 velocity=0 time=3
87.48436853125 note_off channel=0 note=54 velocity=0 time=34
87.49469909375 note_off channel=0 note=57 velocity=0 time=2
87.499864375 note_on channel=0 note=54 velocity=24 time=1
87.50502965625 note_on channel=2 note=54 velocity=44 time=1
87.50502965625 note_on channel=2 note=57 velocity=38 time=0
87.50502965625 note_on channel=7 note=66 velocity=25 time=0
87.51019493749999 note_on channel=0 note=57 velocity=46 time=1
87.51536021875 note_on channel=9 note=42 velocity=58 time=1
87.52569078124999 note_on channel=0 note=62 velocity=43 time=2
87.5308560625 note_on channel=2 note=62 velocity=33 time=1
87.54635190625001 note_off channel=9 note=42 velocity=0 time=3
87.60316999999999 note_off channel=7 note=69 velocity=0 time=11
87.73230203125 note_off channel=2 note=62 velocity=0 time=25
87.75296315625 note_off channel=0 note=54 velocity=0 time=4
87.75296315625 note_off channel=2 note=57 velocity=0 time=0
87.75812843749999 note_off channel=0 note=57 velocity=0 time=1
87.77362428125 note_on channel=0 note=57 velocity=58 time=3
87.77362428125 note_on channel=0 note=54 velocity=26 time=0
87.77362428125 note_on channel=2 note=57 velocity=42 time=0
87.77362428125 note_on channel=9 note=37 velocity=96 time=0
87.77362428125 note_on channel=9 note=42 velocity=61 time=0
87.77878956250001 note_off channel=0 note=62 velocity=0 time=1
87.77878956250001 note_on channel=2 note=62 velocity=57 time=0
87.78395484375 note_on channel=0 note=62 velocity=62 time=1
87.80461596875 note_off channel=9 note=42 velocity=0 time=4
87.80461596875 note_off channel=9 note=37 velocity=0 time=0
87.84593821875 note_off channel=1 note=38 velocity=0 time=8
87.96990496875 note_off channel=5 note=78 velocity=0 time=24
87.99056609374999 note_on channel=7 note=69 velocity=54 time=4
87.995731375 note_off channel=0 note=54 velocity=0 time=1
88.0060619375 note_off channel=0 note=57 velocity=0 time=2
88.0060619375 note_on channel=0 note=54 velocity=28 time=0
88.0060619375 note_on channel=9 note=46 velocity=58 time=0
88.01122721875001 note_off channel=2 note=57 velocity=0 time=1
88.0163925 note_off channel=2 note=62 velocity=0 time=1
88.0163925 note_on channel=2 note=57 velocity=51 time=0
88.02155778125 note_off channel=0 note=62 velocity=0 time=1
88.02155778125 note_on channel=1 note=38 velocity=103 time=0
88.02155778125 note_on channel=2 note=62 velocity=63 time=0
88.02672306250001 note_on channel=9 note=35 velocity=97 time=1
88.03188834375 note_on channel=0 note=62 velocity=69 time=1
88.037053625 note_off channel=9 note=46 velocity=0 time=1
88.04221890625 note_on channel=0 note=57 velocity=63 time=1
88.05771475 note_off channel=7 note=66 velocity=0 time=3
88.05771475 note_off channel=9 note=35 velocity=0 time=0
88.06804531249999 note_off channel=5 note=74 velocity=0 time=2
88.12486340625 note_off channel=3 note=74 velocity=0 time=11
88.21783846875 note_off channel=1 note=38 velocity=0 time=18
88.24366487500001 note_off channel=0 note=57 velocity=0 time=5
88.24883015625 note_off channel=2 note=54 velocity=0 time=1
88.2539954375 note_off channel=0 note=54 velocity=0 time=1
88.2539954375 note_off channel=2 note=57 velocity=0 time=0
88.2539954375 note_on channel=3 note=74 velocity=103 time=0
88.25916071875001 note_on channel=0 note=54 velocity=29 time=1
88.25916071875001 note_on channel=7 note=66 velocity=45 time=0
88.264326 note_off channel=2 note=62 velocity=0 time=1
88.264326 note_on channel=2 note=54 velocity=70 time=0
88.264326 note_on channel=5 note=78 velocity=111 time=0
88.264326 note_on channel=5 note=74 velocity=120 time=0
88.26949128125 note_off channel=0 note=62 velocity=0 time=1
88.26949128125 note_on channel=2 note=57 velocity=80 time=0
88.26949128125 note_on channel=9 note=42 velocity=68 time=0
88.2746565625 note_on channel=2 note=62 velocity=79 time=1
88.284987125 note_on channel=0 note=57 velocity=56 time=2
88.284987125 note_on channel=0 note=62 velocity=54 time=0
88.30048296874999 note_off channel=9 note=42 velocity=0 time=3
88.3469705 note_off channel=7 note=69 velocity=0 time=9
88.408953875 note_off channel=3 note=74 velocity=0 time=12
88.41411915625001 note_off channel=5 note=74 velocity=0 time=1
88.46577196875 note_off channel=5 note=78 velocity=0 time=10
88.4812678125 note_off channel=0 note=54 velocity=0 time=3
88.4812678125 note_off channel=0 note=57 velocity=0 time=0
88.49676365625 note_on channel=3 note=74 velocity=97 time=3
88.5019289375 note_on channel=5 note=74 velocity=75 time=1
88.5122595 note_off channel=0 note=62 velocity=0 time=2
88.5122595 note_on channel=0 note=54 velocity=51 time=0
88.5122595 note_on channel=0 note=57 velocity=58 time=0
88.5122595 note_off channel=2 note=57 velocity=0 time=0
88.5122595 note_on channel=9 note=37 velocity=97 time=0
88.51742478125 note_off channel=2 note=62 velocity=0 time=1
88.51742478125 note_on channel=2 note=57 velocity=80 time=0
88.51742478125 note_on channel=5 note=78 velocity=81 time=0
88.51742478125 note_on channel=9 note=42 velocity=58 time=0
88.5225900625 note_on channel=0 note=62 velocity=51 time=1
88.5225900625 note_on channel=2 note=62 velocity=83 time=0
88.53808590625 note_off channel=7 note=66 velocity=0 time=3
88.5432511875 note_off channel=9 note=37 velocity=0 time=1
88.54841646874999 note_off channel=9 note=42 velocity=0 time=1
88.6672179375 note_off channel=5 note=74 velocity=0 time=23
88.6775485 note_off channel=2 note=57 velocity=0 time=2
88.6775485 note_off channel=3 note=74 velocity=0 time=0
88.68271378125 note_off channel=0 note=57 velocity=0 time=1
88.68271378125 note_off channel=2 note=62 velocity=0 time=0
88.6878790625 note_off channel=5 note=78 velocity=0 time=1
88.7292013125 note_off channel=2 note=54 velocity=0 time=8
88.73436659375 note_off channel=0 note=54 velocity=0 time=1
88.73436659375 note_on channel=1 note=38 velocity=103 time=0
88.74469715625 note_on channel=3 note=74 velocity=101 time=2
88.75502771875 note_on channel=5 note=74 velocity=89 time=2
88.75502771875 note_on channel=9 note=35 velocity=100 time=0
88.760193 note_on channel=0 note=54 velocity=42 time=1
88.760193 note_on channel=5 note=78 velocity=99 time=0
88.76535828125 note_on channel=9 note=42 velocity=65 time=1
88.7705235625 note_on channel=0 note=58 velocity=45 time=1
88.7705235625 note_on channel=7 note=70 velocity=60 time=0
88.78085412499999 note_off channel=0 note=62 velocity=0 time=2
88.78601940625 note_off channel=9 note=35 velocity=0 time=1
88.79634996875 note_off channel=9 note=42 velocity=0 time=2
88.80151525000001 note_on channel=0 note=62 velocity=47 time=1
88.98230009375 note_off channel=0 note=58 velocity=0 time=35
89.00296121875 note_off channel=0 note=62 velocity=0 time=4
89.0081265 note_on channel=7 note=66 velocity=39 time=1
89.0081265 note_on channel=9 note=42 velocity=66 time=0
89.01329178124999 note_on channel=2 note=54 velocity=26 time=1
89.02362234375 note_on channel=0 note=58 velocity=54 time=2
89.02362234375 note_on channel=0 note=62 velocity=64 time=0
89.02878762499999 note_on channel=2 note=58 velocity=31 time=1
89.0391181875 note_off channel=9 note=42 velocity=0 time=2
89.05461403125 note_off channel=7 note=70 velocity=0 time=3
89.09077099999999 note_off channel=2 note=58 velocity=0 time=7
89.152754375 note_off channel=2 note=54 velocity=0 time=12
89.21990303125 note_off channel=0 note=54 velocity=0 time=13
89.2250683125 note_off channel=0 note=58 velocity=0 time=1
89.24056415625 note_on channel=0 note=54 velocity=34 time=3
89.24572943749999 note_off channel=0 note=62 velocity=0 time=1
89.25089471875 note_on channel=9 note=37 velocity=98 time=1
89.25606 note_on channel=9 note=42 velocity=66 time=1
89.26122528124999 note_on channel=2 note=54 velocity=52 time=1
89.26122528124999 note_off channel=5 note=78 velocity=0 time=0
89.2663905625 note_on channel=0 note=58 velocity=58 time=1
89.27155584375 note_on channel=2 note=58 velocity=56 time=1
89.276721125 note_on channel=0 note=62 velocity=67 time=1
89.28188640625001 note_off channel=9 note=37 velocity=0 time=1
89.2870516875 note_off channel=9 note=42 velocity=0 time=1
89.3696961875 note_off channel=1 note=38 velocity=0 time=16
89.38002675 note_off channel=5 note=74 velocity=0 time=2
89.39552259375 note_off channel=2 note=58 velocity=0 time=3
89.4110184375 note_off channel=2 note=54 velocity=0 time=3
89.46783653125 note_off channel=0 note=58 velocity=0 time=11
89.47816709375 note_off channel=0 note=54 velocity=0 time=2
89.47816709375 note_off channel=0 note=62 velocity=0 time=0
89.483332375 note_on channel=0 note=54 velocity=42 time=1
89.49366293749999 note_on channel=7 note=70 velocity=77 time=2
89.49366293749999 note_on channel=9 note=46 velocity=61 time=0
89.49882821875 note_off channel=7 note=66 velocity=0 time=1
89.5039935 note_on channel=1 note=38 velocity=105 time=1
89.5039935 note_on channel=2 note=54 velocity=74 time=0
89.50915878125 note_on channel=0 note=62 velocity=82 time=1
89.50915878125 note_on channel=9 note=35 velocity=99 time=0
89.51432406250001 note_on channel=0 note=58 velocity=68 time=1
89.51432406250001 note_on channel=2 note=58 velocity=80 time=0
89.524654625 note_on channel=2 note=62 velocity=69 time=2
89.524654625 note_off channel=9 note=46 velocity=0 time=0
89.54015046875 note_off channel=9 note=35 velocity=0 time=3
89.62796025 note_off channel=3 note=74 velocity=0 time=17
89.64862137499999 note_off channel=2 note=62 velocity=0 time=4
89.6589519375 note_off channel=2 note=58 velocity=0 time=2
89.66411721875 note_off channel=2 note=54 velocity=0 time=1
89.7002741875 note_off channel=1 note=38 velocity=0 time=7
89.71577003125 note_off channel=0 note=58 velocity=0 time=3
89.72610059374999 note_off channel=0 note=54 velocity=0 time=2
89.731265875 note_on channel=0 note=54 velocity=56 time=1
89.73643115625 note_on channel=5 note=78 velocity=92 time=1
89.73643115625 note_on channel=7 note=66 velocity=61 time=0
89.7415964375 note_on channel=0 note=58 velocity=74 time=1
89.7415964375 note_on channel=5 note=74 velocity=112 time=0
89.74676171875001 note_on channel=3 note=74 velocity=103 time=1
89.751927 note_off channel=0 note=62 velocity=0 time=1
89.751927 note_on channel=2 note=54 velocity=76 time=0
89.75709228125 note_on channel=0 note=62 velocity=82 time=1
89.75709228125 note_on channel=2 note=58 velocity=82 time=0
89.75709228125 note_on channel=9 note=42 velocity=73 time=0
89.76742284375 note_off channel=7 note=70 velocity=0 time=2
89.772588125 note_on channel=2 note=62 velocity=31 time=1
89.78808396875 note_off channel=9 note=42 velocity=0 time=3
89.80357981249999 note_on channel=7 note=70 velocity=43 time=3
89.8655631875 note_off channel=2 note=62 velocity=0 time=12
89.8655631875 note_off channel=7 note=70 velocity=0 time=0
89.87072846875 note_off channel=3 note=74 velocity=0 time=1
89.90172015625001 note_off channel=2 note=58 velocity=0 time=6
89.91205071875 note_off channel=2 note=54 velocity=0 time=2
89.94304240625 note_off channel=5 note=74 velocity=0 time=6
89.94304240625 note_off channel=5 note=78 velocity=0 time=0
89.96370353125 note_off channel=0 note=54 velocity=0 time=4
89.97919937500001 note_off channel=0 note=58 velocity=0 time=3
89.97919937500001 note_off channel=0 note=62 velocity=0 time=0
89.97919937500001 note_on channel=0 note=54 velocity=61 time=0
89.98436465625 note_on channel=3 note=74 velocity=99 time=1
89.9895299375 note_on channel=0 note=58 velocity=78 time=1
89.9895299375 note_on channel=2 note=54 velocity=68 time=0
89.99469521875001 note_on channel=5 note=78 velocity=92 time=1
89.99469521875001 note_on channel=9 note=37 velocity=101 time=0
89.9998605 note_on channel=0 note=62 velocity=78 time=1
89.9998605 note_on channel=2 note=58 velocity=83 time=0
89.9998605 note_on channel=5 note=74 velocity=86 time=0
90.0101910625 note_on channel=2 note=62 velocity=77 time=2
90.0101910625 note_on channel=9 note=42 velocity=68 time=0
90.02568690625 note_off channel=9 note=37 velocity=0 time=3
90.03601746874999 note_off channel=7 note=66 velocity=0 time=2
90.04118275 note_off channel=9 note=42 velocity=0 time=1
90.13932309375 note_off channel=0 note=58 velocity=0 time=19
90.144488375 note_off channel=2 note=62 velocity=0 time=1
90.144488375 note_off channel=2 note=58 velocity=0 time=0
90.144488375 note_off channel=2 note=54 velocity=0 time=0
90.15998421875 note_off channel=3 note=74 velocity=0 time=3
90.15998421875 note_off channel=5 note=74 velocity=0 time=0
90.17031478125 note_off channel=5 note=78 velocity=0 time=2
90.22196759375 note_off channel=0 note=54 velocity=0 time=10
90.23229815625 note_on channel=0 note=54 velocity=57 time=2
90.2374634375 note_on channel=1 note=38 velocity=104 time=1
90.2374634375 note_on channel=3 note=74 velocity=105 time=0
90.24262871875 note_off channel=0 note=62 velocity=0 time=1
90.24262871875 note_on channel=0 note=59 velocity=75 time=0
90.24262871875 note_on channel=5 note=74 velocity=95 time=0
90.24262871875 note_on channel=5 note=78 velocity=103 time=0
90.24262871875 note_on channel=7 note=71 velocity=74 time=0
90.24262871875 note_on channel=9 note=35 velocity=104 time=0
90.25295928125 note_on channel=9 note=42 velocity=78 time=2
90.26328984375 note_on channel=0 note=62 velocity=62 time=2
90.27362040625 note_off channel=9 note=35 velocity=0 time=2
90.28395096874999 note_off channel=9 note=42 velocity=0 time=2
90.46990109375 note_off channel=0 note=54 velocity=0 time=36
90.48023165625 note_off channel=0 note=59 velocity=0 time=2
90.4853969375 note_on channel=0 note=54 velocity=54 time=1
90.4853969375 note_on channel=2 note=54 velocity=51 time=0
90.49056221875 note_off channel=0 note=62 velocity=0 time=1
90.49056221875 note_on channel=7 note=66 velocity=60 time=0
90.4957275 note_on channel=2 note=59 velocity=62 time=1
90.50089278125 note_on channel=0 note=59 velocity=66 time=1
90.50089278125 note_on channel=9 note=42 velocity=72 time=0
90.53188446875 note_off channel=9 note=42 velocity=0 time=6
90.557710875 note_off channel=7 note=71 velocity=0 time=5
90.61452896875001 note_off channel=2 note=59 velocity=0 time=11
90.61969425 note_off channel=2 note=54 velocity=0 time=1
90.722999875 note_off channel=0 note=54 velocity=0 time=20
90.7333304375 note_on channel=0 note=54 velocity=56 time=2
90.7333304375 note_on channel=2 note=54 velocity=66 time=0
90.743661 note_off channel=0 note=59 velocity=0 time=2
90.74882628124999 note_on channel=0 note=59 velocity=67 time=1
90.74882628124999 note_on channel=2 note=59 velocity=61 time=0
90.74882628124999 note_on channel=9 note=42 velocity=75 time=0
90.77981796875 note_off channel=9 note=42 velocity=0 time=6
90.81080965625 note_off channel=1 note=38 velocity=0 time=6
90.82114021875 note_off channel=5 note=78 velocity=0 time=2
90.8779583125 note_off channel=2 note=59 velocity=0 time=11
90.888288875 note_off channel=2 note=54 velocity=0 time=2
90.929611125 note_off channel=5 note=74 velocity=0 time=8
90.96576809375 note_off channel=0 note=54 velocity=0 time=7
90.97609865625 note_off channel=0 note=59 velocity=0 time=2
90.97609865625 note_on channel=0 note=54 velocity=63 time=0
90.98126393749999 note_on channel=0 note=59 velocity=72 time=1
90.98126393749999 note_on channel=2 note=54 velocity=78 time=0
90.98126393749999 note_off channel=3 note=74 velocity=0 time=0
90.98126393749999 note_on channel=7 note=71 velocity=80 time=0
90.98642921875 note_on channel=2 note=59 velocity=81 time=1
90.98642921875 note_on channel=9 note=42 velocity=68 time=0
90.98642921875 note_on channel=9 note=35 velocity=107 time=0
90.99675978124999 note_on channel=1 note=38 velocity=108 time=2
91.0019250625 note_on channel=2 note=62 velocity=84 time=1
91.0019250625 note_off channel=7 note=66 velocity=0 time=0
91.01742090625001 note_off channel=9 note=35 velocity=0 time=3
91.01742090625001 note_off channel=9 note=42 velocity=0 time=0
91.14138765625 note_off channel=2 note=59 velocity=0 time=24
91.14138765625 note_off channel=2 note=54 velocity=0 time=0
91.1465529375 note_off channel=2 note=62 velocity=0 time=1
91.18787518750001 note_off channel=1 note=38 velocity=0 time=8
91.20337103125 note_off channel=0 note=54 velocity=0 time=3
91.218866875 note_off channel=0 note=59 velocity=0 time=3
91.218866875 note_on channel=0 note=54 velocity=71 time=0
91.22403215625 note_on channel=3 note=74 velocity=102 time=1
91.22919743749999 note_on channel=0 note=59 velocity=80 time=1
91.22919743749999 note_on channel=5 note=74 velocity=108 time=0
91.22919743749999 note_on channel=7 note=66 velocity=71 time=0
91.23436271875 note_on channel=2 note=54 velocity=78 time=1
91.23436271875 note_on channel=5 note=78 velocity=95 time=0
91.239528 note_on channel=0 note=62 velocity=84 time=1
91.239528 note_on channel=2 note=59 velocity=84 time=0
91.239528 note_on channel=9 note=42 velocity=70 time=0
91.24985856250001 note_on channel=2 note=62 velocity=90 time=2
91.2705196875 note_off channel=9 note=42 velocity=0 time=4
91.27568496875 note_off channel=7 note=71 velocity=0 time=1
91.36349475 note_off channel=5 note=74 velocity=0 time=17
91.3738253125 note_off channel=5 note=78 velocity=0 time=2
91.4151475625 note_off channel=2 note=62 velocity=0 time=8
91.42031284375001 note_off channel=2 note=59 velocity=0 time=1
91.45130453125 note_off channel=2 note=54 velocity=0 time=6
91.46163509374999 note_off channel=0 note=54 velocity=0 time=2
91.466800375 note_off channel=0 note=59 velocity=0 time=1
91.466800375 note_on channel=0 note=54 velocity=72 time=0
91.466800375 note_on channel=5 note=74 velocity=100 time=0
91.47196565625 note_off channel=0 note=62 velocity=0 time=1
91.47196565625 note_off channel=3 note=74 velocity=0 time=0
91.47196565625 note_on channel=3 note=71 velocity=93 time=0
91.4771309375 note_on channel=0 note=59 velocity=82 time=1
91.4771309375 note_on channel=5 note=78 velocity=99 time=0
91.4874615 note_on channel=9 note=35 velocity=92 time=2
91.49262678125 note_on channel=0 note=62 velocity=78 time=1
91.49262678125 note_on channel=9 note=42 velocity=69 time=0
91.5184531875 note_off channel=9 note=35 velocity=0 time=5
91.52361846875 note_off channel=7 note=66 velocity=0 time=1
91.52361846875 note_off channel=9 note=42 velocity=0 time=0
91.59593240625 note_off channel=0 note=62 velocity=0 time=14
91.61659353124999 note_off channel=5 note=78 velocity=0 time=4
91.71473387500001 note_off channel=0 note=59 velocity=0 time=19
91.7250644375 note_on channel=1 note=35 velocity=110 time=2
91.73022971875001 note_on channel=5 note=78 velocity=123 time=1
91.73022971875001 note_on channel=5 note=75 velocity=105 time=0
91.735395 note_on channel=2 note=54 velocity=62 time=1
91.735395 note_on channel=2 note=57 velocity=82 time=0
91.735395 note_off channel=3 note=71 velocity=0 time=0
91.735395 note_on channel=3 note=75 velocity=104 time=0
91.735395 note_on channel=9 note=35 velocity=67 time=0
91.735395 note_on channel=9 note=40 velocity=75 time=0
91.74056028125 note_on channel=2 note=63 velocity=80 time=1
91.74056028125 note_on channel=9 note=42 velocity=78 time=0
91.7457255625 note_on channel=0 note=59 velocity=66 time=1
91.7457255625 note_on channel=0 note=47 velocity=56 time=0
91.7457255625 note_on channel=2 note=66 velocity=80 time=0
91.76122140625 note_off channel=5 note=74 velocity=0 time=3
91.7663866875 note_off channel=9 note=40 velocity=0 time=1
91.7663866875 note_off channel=9 note=35 velocity=0 time=0
91.77155196874999 note_off channel=9 note=42 velocity=0 time=1
91.96266737500001 note_off channel=2 note=66 velocity=0 time=37
91.96783265625 note_off channel=0 note=47 velocity=0 time=1
91.9729979375 note_off channel=0 note=54 velocity=0 time=1
91.97816321875 note_on channel=2 note=66 velocity=74 time=1
91.97816321875 note_on channel=9 note=35 velocity=71 time=0
91.97816321875 note_on channel=9 note=42 velocity=72 time=0
91.9833285 note_on channel=0 note=47 velocity=47 time=1
91.9936590625 note_on channel=0 note=54 velocity=61 time=2
91.99882434375 note_off channel=0 note=59 velocity=0 time=1
92.003989625 note_on channel=0 note=59 velocity=69 time=1
92.003989625 note_off channel=1 note=35 velocity=0 time=0
92.00915490625 note_off channel=9 note=42 velocity=0 time=1
92.00915490625 note_off channel=9 note=35 velocity=0 time=0
92.18993975 note_off channel=2 note=54 velocity=0 time=35
92.2002703125 note_off channel=2 note=63 velocity=0 time=2
92.21060087500001 note_off channel=5 note=75 velocity=0 time=2
92.21576615625 note_off channel=0 note=47 velocity=0 time=1
92.21576615625 note_on channel=5 note=76 velocity=93 time=0
92.2209314375 note_off channel=2 note=57 velocity=0 time=1
92.2209314375 note_off channel=3 note=75 velocity=0 time=0
92.22609671875 note_off channel=0 note=54 velocity=0 time=1
92.22609671875 note_on channel=0 note=47 velocity=59 time=0
92.22609671875 note_off channel=2 note=66 velocity=0 time=0
92.22609671875 note_on channel=2 note=57 velocity=78 time=0
92.22609671875 note_on channel=5 note=79 velocity=108 time=0
92.22609671875 note_on channel=9 note=35 velocity=86 time=0
92.22609671875 note_on channel=9 note=42 velocity=75 time=0
92.231262 note_off channel=0 note=59 velocity=0 time=1
92.231262 note_on channel=1 note=37 velocity=107 time=0
92.231262 note_on channel=2 note=66 velocity=38 time=0
92.231262 note_on channel=3 note=76 velocity=97 time=0
92.231262 note_off channel=5 note=78 velocity=0 time=0
92.231262 note_on channel=9 note=40 velocity=75 time=0
92.23642728125 note_on channel=0 note=54 velocity=74 time=1
92.23642728125 note_on channel=2 note=52 velocity=44 time=0
92.2415925625 note_on channel=2 note=61 velocity=78 time=1
92.25708840625 note_on channel=0 note=59 velocity=75 time=3
92.25708840625 note_off channel=9 note=42 velocity=0 time=0
92.25708840625 note_off channel=9 note=35 velocity=0 time=0
92.2622536875 note_off channel=9 note=40 velocity=0 time=1
92.4482038125 note_off channel=0 note=59 velocity=0 time=36
92.45336909375 note_off channel=2 note=66 velocity=0 time=1
92.458534375 note_off channel=0 note=47 velocity=0 time=1
92.4688649375 note_off channel=0 note=54 velocity=0 time=2
92.4688649375 note_off channel=1 note=37 velocity=0 time=0
92.4688649375 note_off channel=2 note=61 velocity=0 time=0
92.47403021875 note_on channel=0 note=47 velocity=84 time=1
92.47403021875 note_on channel=0 note=54 velocity=81 time=0
92.47403021875 note_on channel=2 note=66 velocity=82 time=0
92.47403021875 note_on channel=9 note=35 velocity=103 time=0
92.47403021875 note_on channel=9 note=42 velocity=68 time=0
92.4791955 note_on channel=2 note=61 velocity=78 time=1
92.4895260625 note_on channel=0 note=59 velocity=79 time=2
92.50502190625001 note_off channel=9 note=42 velocity=0 time=3
92.50502190625001 note_off channel=9 note=35 velocity=0 time=0
92.67031090625 note_off channel=2 note=52 velocity=0 time=32
92.6961373125 note_off channel=2 note=61 velocity=0 time=5
92.706467875 note_off channel=3 note=76 velocity=0 time=2
92.71163315625 note_off channel=0 note=54 velocity=0 time=1
92.71163315625 note_off channel=2 note=57 velocity=0 time=0
92.71163315625 note_off channel=2 note=66 velocity=0 time=0
92.71163315625 note_on channel=3 note=78 velocity=98 time=0
92.71679843749999 note_on channel=2 note=54 velocity=66 time=1
92.72196371875 note_off channel=0 note=59 velocity=0 time=1
92.72196371875 note_on channel=0 note=54 velocity=81 time=0
92.72196371875 note_on channel=2 note=57 velocity=84 time=0
92.72196371875 note_on channel=5 note=81 velocity=114 time=0
92.72196371875 note_on channel=5 note=78 velocity=107 time=0
92.72196371875 note_on channel=9 note=35 velocity=105 time=0
92.72196371875 note_on channel=9 note=42 velocity=68 time=0
92.727129 note_on channel=1 note=39 velocity=112 time=1
92.727129 note_on channel=2 note=63 velocity=83 time=0
92.73229428124999 note_on channel=0 note=59 velocity=80 time=1
92.7374595625 note_on channel=2 note=66 velocity=83 time=1
92.7374595625 note_off channel=5 note=79 velocity=0 time=0
92.75295540625001 note_off channel=9 note=42 velocity=0 time=3
92.75295540625001 note_off channel=9 note=35 velocity=0 time=0
92.81493878125 note_off channel=5 note=76 velocity=0 time=12
92.93890553125 note_off channel=2 note=66 velocity=0 time=24
92.94923609375 note_off channel=1 note=39 velocity=0 time=2
92.95956665625 note_off channel=0 note=59 velocity=0 time=2
92.96473193749999 note_off channel=0 note=54 velocity=0 time=1
92.96473193749999 note_on channel=2 note=66 velocity=82 time=0
92.96473193749999 note_on channel=9 note=35 velocity=111 time=0
92.96989721875 note_on channel=0 note=54 velocity=72 time=1
92.96989721875 note_on channel=0 note=59 velocity=35 time=0
92.96989721875 note_off channel=2 note=57 velocity=0 time=0
92.96989721875 note_on channel=9 note=42 velocity=68 time=0
92.9750625 note_on channel=2 note=57 velocity=49 time=1
92.995723625 note_off channel=9 note=35 velocity=0 time=4
93.00088890625001 note_off channel=9 note=42 velocity=0 time=1
93.02155003125 note_off channel=0 note=54 velocity=0 time=4
93.0267153125 note_off channel=0 note=47 velocity=0 time=1
93.05254171875 note_off channel=0 note=59 velocity=0 time=5
93.1093598125 note_off channel=2 note=57 velocity=0 time=11
93.14551678125 note_off channel=2 note=54 velocity=0 time=7
93.15584734375001 note_off channel=2 note=63 velocity=0 time=2
93.15584734375001 note_off channel=5 note=81 velocity=0 time=0
93.1713431875 note_off channel=2 note=66 velocity=0 time=3
93.18683903125 note_off channel=5 note=78 velocity=0 time=3
93.20750015625 note_on channel=0 note=40 velocity=37 time=4
93.2126654375 note_on channel=1 note=40 velocity=103 time=1
93.2126654375 note_off channel=3 note=78 velocity=0 time=0
93.2126654375 note_on channel=3 note=79 velocity=98 time=0
93.2126654375 note_on channel=5 note=79 velocity=107 time=0
93.2126654375 note_on channel=5 note=83 velocity=114 time=0
93.2126654375 note_on channel=7 note=70 velocity=95 time=0
93.2126654375 pitchwheel channel=7 pitch=-192 time=0
93.2126654375 note_on channel=9 note=42 velocity=70 time=0
93.21783071875001 note_on channel=9 note=40 velocity=80 time=1
93.222996 note_on channel=0 note=47 velocity=65 time=1
93.222996 pitchwheel channel=7 pitch=-128 time=0
93.222996 note_on channel=9 note=35 velocity=117 time=0
93.22816128125 note_on channel=0 note=55 velocity=61 time=1
93.22816128125 note_on channel=2 note=55 velocity=77 time=0
93.23332656250001 note_on channel=0 note=52 velocity=66 time=1
93.23332656250001 note_on channel=2 note=59 velocity=85 time=0
93.23332656250001 note_on channel=2 note=64 velocity=91 time=0
93.23849184375 note_on channel=0 note=59 velocity=76 time=1
93.243657125 note_off channel=9 note=42 velocity=0 time=1
93.24882240625 note_on channel=0 note=64 velocity=53 time=1
93.24882240625 pitchwheel channel=7 pitch=352 time=0
93.24882240625 note_off channel=9 note=40 velocity=0 time=0
93.2539876875 note_off channel=9 note=35 velocity=0 time=1
93.26431825 pitchwheel channel=7 pitch=3712 time=2
93.27981409375 pitchwheel channel=7 pitch=3744 time=3
93.29530993750001 pitchwheel channel=7 pitch=3776 time=3
93.31080578125001 pitchwheel channel=7 pitch=3840 time=3
93.3779544375 pitchwheel channel=7 pitch=3872 time=13
93.39345028125 pitchwheel channel=7 pitch=3840 time=3
93.408946125 note_off channel=1 note=40 velocity=0 time=3
93.408946125 pitchwheel channel=7 pitch=3872 time=0
93.42960724999999 note_off channel=0 note=64 velocity=0 time=4
93.45543365625 note_off channel=7 note=70 velocity=0 time=5
93.45543365625 pitchwheel channel=7 pitch=3904 time=0
93.4605989375 note_off channel=0 note=59 velocity=0 time=1
93.4605989375 note_on channel=0 note=64 velocity=68 time=0
93.4605989375 pitchwheel channel=7 pitch=3968 time=0
93.4605989375 note_on channel=9 note=42 velocity=69 time=0
93.46576421875001 note_on channel=1 note=40 velocity=104 time=1
93.4709295 note_on channel=0 note=59 velocity=65 time=1
93.4709295 pitchwheel channel=7 pitch=3904 time=0
93.47609478125 note_off channel=2 note=64 velocity=0 time=1
93.47609478125 note_on channel=9 note=62 velocity=92 time=0
93.4812600625 note_on channel=2 note=64 velocity=58 time=1
93.491590625 pitchwheel channel=7 pitch=3936 time=2
93.491590625 note_off channel=9 note=42 velocity=0 time=0
93.5019211875 pitchwheel channel=7 pitch=0 time=2
93.5019211875 note_on channel=7 note=69 velocity=80 time=0
93.50708646874999 note_off channel=9 note=62 velocity=0 time=1
93.59489625 note_on channel=9 note=62 velocity=64 time=17
93.6258879375 note_off channel=9 note=62 velocity=0 time=6
93.6672101875 note_off channel=7 note=69 velocity=0 time=8
93.67754074999999 note_off channel=0 note=59 velocity=0 time=2
93.67754074999999 note_off channel=2 note=55 velocity=0 time=0
93.68270603125 note_off channel=2 note=59 velocity=0 time=1
93.69820187500001 note_off channel=0 note=47 velocity=0 time=3
93.7085324375 note_on channel=9 note=42 velocity=73 time=2
93.7085324375 note_on channel=9 note=62 velocity=77 time=0
93.71369771875001 note_on channel=0 note=47 velocity=51 time=1
93.71369771875001 note_off channel=1 note=40 velocity=0 time=0
93.718863 note_off channel=0 note=55 velocity=0 time=1
93.718863 note_on channel=2 note=59 velocity=78 time=0
93.718863 note_on channel=7 note=67 velocity=85 time=0
93.718863 pitchwheel channel=7 pitch=160 time=0
93.72402828125 note_on channel=0 note=55 velocity=63 time=1
93.72402828125 note_on channel=2 note=52 velocity=48 time=0
93.72402828125 note_on channel=2 note=55 velocity=72 time=0
93.72402828125 note_on channel=6 note=47 velocity=97 time=0
93.72402828125 pitchwheel channel=7 pitch=128 time=0
93.7291935625 note_on channel=0 note=59 velocity=67 time=1
93.739524125 note_off channel=9 note=62 velocity=0 time=2
93.739524125 note_off channel=9 note=42 velocity=0 time=0
93.76018525 pitchwheel channel=7 pitch=160 time=4
93.77568109375001 pitchwheel channel=7 pitch=224 time=3
93.79117693750001 pitchwheel channel=7 pitch=256 time=3
93.884152 pitchwheel channel=7 pitch=224 time=18
93.89964784375 pitchwheel channel=7 pitch=128 time=3
93.904813125 note_off channel=7 note=67 velocity=0 time=1
93.904813125 pitchwheel channel=7 pitch=224 time=0
93.93063953125001 note_off channel=2 note=55 velocity=0 time=5
93.94097009375 note_off channel=0 note=52 velocity=0 time=2
93.94097009375 note_off channel=0 note=55 velocity=0 time=0
93.94097009375 note_off channel=2 note=64 velocity=0 time=0
93.94613537500001 note_off channel=0 note=47 velocity=0 time=1
93.94613537500001 note_off channel=0 note=59 velocity=0 time=0
93.94613537500001 note_off channel=2 note=59 velocity=0 time=0
93.95130065625 note_on channel=1 note=40 velocity=100 time=1
93.9564659375 note_off channel=0 note=64 velocity=0 time=1
93.9564659375 note_on channel=0 note=47 velocity=72 time=0
93.9564659375 note_on channel=0 note=52 velocity=76 time=0
93.9564659375 pitchwheel channel=7 pitch=0 time=0
93.9564659375 note_on channel=9 note=46 velocity=75 time=0
93.9564659375 note_on channel=9 note=62 velocity=82 time=0
93.96163121875 note_on channel=2 note=64 velocity=87 time=1
93.9667965 note_on channel=0 note=55 velocity=77 time=1
93.9667965 note_on channel=7 note=66 velocity=87 time=0
93.9667965 pitchwheel channel=7 pitch=288 time=0
93.9667965 note_on channel=9 note=35 velocity=101 time=0
93.97196178125 note_on channel=0 note=59 velocity=84 time=1
93.97196178125 note_on channel=2 note=59 velocity=84 time=0
93.97196178125 pitchwheel channel=7 pitch=256 time=0
93.9771270625 note_on channel=0 note=64 velocity=84 time=1
93.9771270625 note_on channel=2 note=55 velocity=83 time=0
93.98745762499999 note_on channel=2 note=47 velocity=26 time=2
93.98745762499999 note_off channel=9 note=62 velocity=0 time=0
93.98745762499999 note_off channel=9 note=46 velocity=0 time=0
93.9977881875 note_off channel=9 note=35 velocity=0 time=2
94.0184493125 pitchwheel channel=7 pitch=224 time=4
94.03394515625 pitchwheel channel=7 pitch=160 time=3
94.049441 pitchwheel channel=7 pitch=128 time=3
94.06493684374999 pitchwheel channel=7 pitch=96 time=3
94.10109381250001 note_off channel=1 note=40 velocity=0 time=7
94.111424375 pitchwheel channel=7 pitch=64 time=2
94.111424375 note_on channel=9 note=62 velocity=78 time=0
94.12692021875 pitchwheel channel=7 pitch=32 time=3
94.14241606249999 note_off channel=9 note=62 velocity=0 time=3
94.15791190624999 pitchwheel channel=7 pitch=64 time=3
94.17340775 pitchwheel channel=7 pitch=160 time=3
94.18890359375 pitchwheel channel=7 pitch=320 time=3
94.194068875 note_off channel=0 note=64 velocity=0 time=1
94.19923415625 note_on channel=1 note=40 velocity=108 time=1
94.19923415625 pitchwheel channel=7 pitch=384 time=0
94.2043994375 note_off channel=0 note=59 velocity=0 time=1
94.2043994375 note_off channel=0 note=47 velocity=0 time=0
94.2043994375 pitchwheel channel=7 pitch=0 time=0
94.2043994375 note_on channel=7 note=64 velocity=77 time=0
94.2043994375 note_on channel=9 note=42 velocity=78 time=0
94.20956471875 note_on channel=0 note=64 velocity=90 time=1
94.21473 note_off channel=7 note=66 velocity=0 time=1
94.21473 pitchwheel channel=7 pitch=-32 time=0
94.21473 note_on channel=9 note=62 velocity=69 time=0
94.21989528124999 note_on channel=0 note=59 velocity=88 time=1
94.23022584375 note_on channel=0 note=47 velocity=62 time=2
94.23539112499999 note_off channel=9 note=42 velocity=0 time=1
94.24055640625001 pitchwheel channel=7 pitch=-64 time=1
94.2457216875 note_off channel=9 note=62 velocity=0 time=1
94.29220921875 pitchwheel channel=7 pitch=-96 time=9
94.3077050625 pitchwheel channel=7 pitch=-128 time=3
94.35419259375 pitchwheel channel=7 pitch=-96 time=9
94.3696884375 pitchwheel channel=7 pitch=-64 time=3
94.38518428125 note_off channel=7 note=64 velocity=0 time=3
94.40584540625 note_off channel=0 note=40 velocity=0 time=4
94.42650653125 note_off channel=2 note=64 velocity=0 time=4
94.43683709375 pitchwheel channel=7 pitch=0 time=2
94.442002375 note_off channel=0 note=47 velocity=0 time=1
94.442002375 note_off channel=2 note=59 velocity=0 time=0
94.44716765625 note_on channel=7 note=62 velocity=73 time=1
94.44716765625 pitchwheel channel=7 pitch=640 time=0
94.44716765625 note_on channel=9 note=35 velocity=81 time=0
94.44716765625 note_on channel=9 note=62 velocity=75 time=0
94.45233293749999 note_on channel=0 note=40 velocity=73 time=1
94.45233293749999 note_on channel=0 note=47 velocity=75 time=0
94.45233293749999 note_off channel=1 note=40 velocity=0 time=0
94.45233293749999 note_on channel=1 note=35 velocity=106 time=0
94.45233293749999 note_on channel=2 note=64 velocity=67 time=0
94.45233293749999 pitchwheel channel=7 pitch=256 time=0
94.45233293749999 note_on channel=9 note=42 velocity=65 time=0
94.45749821875 note_on channel=2 note=59 velocity=75 time=1
94.45749821875 pitchwheel channel=7 pitch=96 time=0
94.4626635 note_off channel=0 note=55 velocity=0 time=1
94.46782878124999 note_on channel=0 note=55 velocity=65 time=1
94.47815934375 note_off channel=9 note=62 velocity=0 time=2
94.47815934375 note_off channel=9 note=35 velocity=0 time=0
94.483324625 note_off channel=9 note=42 velocity=0 time=1
94.4936551875 pitchwheel channel=7 pitch=64 time=2
94.524646875 pitchwheel channel=7 pitch=32 time=6
94.54014271875 pitchwheel channel=7 pitch=64 time=3
94.5556385625 pitchwheel channel=7 pitch=32 time=3
94.5762996875 note_off channel=7 note=62 velocity=0 time=4
94.5762996875 pitchwheel channel=7 pitch=64 time=0
94.60212609375 note_on channel=9 note=62 velocity=84 time=5
94.63311778125001 note_off channel=9 note=62 velocity=0 time=6
94.65894418750001 note_off channel=2 note=59 velocity=0 time=5
94.66927475 note_off channel=1 note=35 velocity=0 time=2
94.6796053125 note_off channel=2 note=52 velocity=0 time=2
94.68477059375 note_off channel=2 note=55 velocity=0 time=1
94.68477059375 pitchwheel channel=7 pitch=0 time=0
94.689935875 note_off channel=0 note=52 velocity=0 time=1
94.689935875 note_off channel=0 note=47 velocity=0 time=0
94.689935875 note_on channel=7 note=58 velocity=82 time=0
94.69510115625 note_off channel=0 note=55 velocity=0 time=1
94.69510115625 pitchwheel channel=7 pitch=32 time=0
94.70026643749999 note_off channel=0 note=64 velocity=0 time=1
94.70026643749999 note_off channel=0 note=59 velocity=0 time=0
94.70026643749999 note_on channel=0 note=52 velocity=76 time=0
94.70026643749999 note_on channel=0 note=47 velocity=80 time=0
94.70026643749999 note_on channel=2 note=52 velocity=52 time=0
94.70026643749999 note_on channel=9 note=35 velocity=105 time=0
94.70026643749999 note_on channel=9 note=42 velocity=63 time=0
94.70543171875 note_on channel=0 note=55 velocity=85 time=1
94.70543171875 note_on channel=0 note=59 velocity=83 time=0
94.70543171875 note_on channel=1 note=40 velocity=111 time=0
94.70543171875 note_on channel=2 note=55 velocity=79 time=0
94.70543171875 note_on channel=2 note=59 velocity=88 time=0
94.70543171875 pitchwheel channel=7 pitch=0 time=0
94.710597 pitchwheel channel=7 pitch=-128 time=1
94.710597 note_on channel=9 note=62 velocity=63 time=0
94.71576228125 note_on channel=0 note=64 velocity=88 time=1
94.731258125 note_off channel=9 note=42 velocity=0 time=3
94.731258125 note_off channel=9 note=35 velocity=0 time=0
94.7415886875 pitchwheel channel=7 pitch=224 time=2
94.7415886875 note_off channel=9 note=62 velocity=0 time=0
94.75191925 pitchwheel channel=7 pitch=3744 time=2
94.8035720625 pitchwheel channel=7 pitch=3776 time=10
94.81390262500001 pitchwheel channel=7 pitch=3808 time=2
94.87072071875 pitchwheel channel=7 pitch=3840 time=11
94.89138184375001 pitchwheel channel=7 pitch=3872 time=4
94.9068776875 pitchwheel channel=7 pitch=3936 time=3
94.91720825 note_off channel=2 note=64 velocity=0 time=2
94.92237353125 pitchwheel channel=7 pitch=4096 time=1
94.9275388125 note_off channel=0 note=64 velocity=0 time=1
94.93270409374999 pitchwheel channel=7 pitch=4256 time=1
94.94303465625 note_on channel=0 note=64 velocity=82 time=2
94.94303465625 note_off channel=7 note=58 velocity=0 time=0
94.9481999375 note_on channel=9 note=42 velocity=65 time=1
94.95336521875001 note_on channel=9 note=62 velocity=67 time=1
94.96369578125 note_on channel=2 note=64 velocity=51 time=2
94.96886106250001 pitchwheel channel=7 pitch=0 time=1
94.97402634375 note_on channel=7 note=57 velocity=62 time=1
94.97402634375 pitchwheel channel=7 pitch=224 time=0
94.979191625 note_off channel=9 note=42 velocity=0 time=1
94.98435690625 pitchwheel channel=7 pitch=192 time=1
94.98435690625 note_off channel=9 note=62 velocity=0 time=0
94.99985275 note_off channel=1 note=40 velocity=0 time=3
95.03600971875 pitchwheel channel=7 pitch=160 time=7
95.0515055625 pitchwheel channel=7 pitch=96 time=3
95.06700140625 note_on channel=9 note=62 velocity=69 time=3
95.0721666875 pitchwheel channel=7 pitch=0 time=1
95.08249725 pitchwheel channel=7 pitch=-64 time=2
95.09799309375 pitchwheel channel=7 pitch=-96 time=3
95.09799309375 note_off channel=9 note=62 velocity=0 time=0
95.1134889375 pitchwheel channel=7 pitch=-160 time=3
95.12898478125 pitchwheel channel=7 pitch=-192 time=3
95.1341500625 note_off channel=7 note=57 velocity=0 time=1
95.1341500625 pitchwheel channel=7 pitch=0 time=0
95.14964590625 note_off channel=2 note=52 velocity=0 time=3
95.17030703125 note_off channel=0 note=47 velocity=0 time=4
95.1754723125 note_off channel=2 note=47 velocity=0 time=1
95.19096815625 note_on channel=0 note=47 velocity=66 time=3
95.19096815625 note_on channel=9 note=62 velocity=75 time=0
95.1961334375 note_off channel=0 note=52 velocity=0 time=1
95.1961334375 note_on channel=7 note=55 velocity=83 time=0
95.1961334375 pitchwheel channel=7 pitch=544 time=0
95.1961334375 note_on channel=9 note=40 velocity=89 time=0
95.1961334375 note_on channel=9 note=42 velocity=68 time=0
95.20129871875001 note_on channel=0 note=52 velocity=38 time=1
95.20129871875001 note_off channel=2 note=59 velocity=0 time=0
95.20129871875001 note_on channel=2 note=47 velocity=47 time=0
95.20129871875001 note_on channel=2 note=52 velocity=69 time=0
95.20129871875001 note_on channel=9 note=35 velocity=110 time=0
95.206464 note_on channel=1 note=40 velocity=105 time=1
95.206464 pitchwheel channel=7 pitch=512 time=0
95.2167945625 note_on channel=2 note=59 velocity=74 time=2
95.22195984375 note_off channel=9 note=62 velocity=0 time=1
95.227125125 note_off channel=9 note=40 velocity=0 time=1
95.227125125 note_off channel=9 note=42 velocity=0 time=0
95.23229040625 note_off channel=9 note=35 velocity=0 time=1
95.2374556875 pitchwheel channel=7 pitch=544 time=1
95.25295153125 pitchwheel channel=7 pitch=512 time=3
95.28394321875 pitchwheel channel=7 pitch=480 time=6
95.2994390625 pitchwheel channel=7 pitch=448 time=3
95.31493490625 pitchwheel channel=7 pitch=416 time=3
95.33559603124999 pitchwheel channel=7 pitch=352 time=4
95.351091875 pitchwheel channel=7 pitch=256 time=3
95.36658771875 pitchwheel channel=7 pitch=160 time=3
95.3820835625 pitchwheel channel=7 pitch=64 time=3
95.392414125 note_off channel=7 note=55 velocity=0 time=2
95.392414125 pitchwheel channel=7 pitch=416 time=0
95.39757940624999 note_off channel=0 note=64 velocity=0 time=1
95.40790996875 note_off channel=0 note=52 velocity=0 time=2
95.41307524999999 note_off channel=0 note=55 velocity=0 time=1
95.42340581250001 note_off channel=0 note=59 velocity=0 time=2
95.42340581250001 note_off channel=2 note=47 velocity=0 time=0
95.42857109375 note_on channel=0 note=52 velocity=74 time=1
95.42857109375 note_off channel=1 note=40 velocity=0 time=0
95.42857109375 pitchwheel channel=7 pitch=0 time=0
95.43373637500001 note_on channel=0 note=55 velocity=84 time=1
95.43890165625 note_on channel=0 note=59 velocity=90 time=1
95.43890165625 note_off channel=2 note=55 velocity=0 time=0
95.43890165625 note_off channel=2 note=52 velocity=0 time=0
95.43890165625 note_off channel=2 note=59 velocity=0 time=0
95.43890165625 note_on channel=7 note=54 velocity=85 time=0
95.43890165625 pitchwheel channel=7 pitch=320 time=0
95.4440669375 note_on channel=0 note=64 velocity=93 time=1
95.4440669375 note_on channel=2 note=47 velocity=81 time=0
95.4440669375 note_on channel=2 note=52 velocity=72 time=0
95.4440669375 note_on channel=9 note=46 velocity=68 time=0
95.44923221875001 note_on channel=2 note=55 velocity=85 time=1
95.44923221875001 note_on channel=9 note=62 velocity=76 time=0
95.4543975 note_off channel=2 note=64 velocity=0 time=1
95.4543975 note_on channel=2 note=59 velocity=79 time=0
95.45956278125 note_on channel=1 note=40 velocity=95 time=1
95.45956278125 note_on channel=2 note=64 velocity=83 time=0
95.475058625 note_off channel=9 note=46 velocity=0 time=3
95.48022390625 note_off channel=9 note=62 velocity=0 time=1
95.4853891875 pitchwheel channel=7 pitch=448 time=1
95.50088503125001 pitchwheel channel=7 pitch=512 time=3
95.516380875 pitchwheel channel=7 pitch=544 time=3
95.52154615625 note_off channel=2 note=64 velocity=0 time=1
95.5473725625 pitchwheel channel=7 pitch=448 time=5
95.55253784375 note_on channel=2 note=64 velocity=89 time=1
95.56803368749999 pitchwheel channel=7 pitch=352 time=3
95.56803368749999 note_on channel=9 note=62 velocity=74 time=0
95.58352953125 pitchwheel channel=7 pitch=320 time=3
95.599025375 pitchwheel channel=7 pitch=160 time=3
95.599025375 note_off channel=9 note=62 velocity=0 time=0
95.6093559375 pitchwheel channel=7 pitch=-320 time=2
95.61452121875 note_off channel=7 note=54 velocity=0 time=1
95.61452121875 pitchwheel channel=7 pitch=448 time=0
95.63518234375 note_off channel=2 note=64 velocity=0 time=4
95.64551290624999 note_off channel=0 note=64 velocity=0 time=2
95.65584346875 note_off channel=2 note=52 velocity=0 time=2
95.66100875 note_off channel=0 note=59 velocity=0 time=1
95.66100875 note_off channel=2 note=59 velocity=0 time=0
95.66617403125001 note_on channel=0 note=64 velocity=82 time=1
95.67650459375 note_on channel=0 note=59 velocity=83 time=2
95.68166987500001 note_on channel=2 note=52 velocity=68 time=1
95.68166987500001 note_on channel=5 note=78 velocity=94 time=0
95.68166987500001 pitchwheel channel=7 pitch=0 time=0
95.68683515625 note_on channel=2 note=59 velocity=89 time=1
95.68683515625 note_on channel=5 note=81 velocity=102 time=0
95.68683515625 note_on channel=7 note=52 velocity=82 time=0
95.68683515625 pitchwheel channel=7 pitch=128 time=0
95.6920004375 note_on channel=2 note=64 velocity=89 time=1
95.6920004375 pitchwheel channel=7 pitch=96 time=0
95.6920004375 note_on channel=9 note=62 velocity=77 time=0
95.69716571875 note_on channel=9 note=42 velocity=78 time=1
95.702331 note_off channel=3 note=79 velocity=0 time=1
95.702331 note_on channel=3 note=78 velocity=102 time=0
95.702331 note_off channel=5 note=83 velocity=0 time=0
95.72299212499999 note_off channel=9 note=62 velocity=0 time=4
95.72815740625 note_off channel=5 note=79 velocity=0 time=1
95.72815740625 pitchwheel channel=7 pitch=64 time=0
95.72815740625 note_off channel=9 note=42 velocity=0 time=0
95.74365325000001 pitchwheel channel=7 pitch=192 time=3
95.764314375 note_off channel=1 note=40 velocity=0 time=4
95.764314375 pitchwheel channel=7 pitch=288 time=0
95.77981021875 pitchwheel channel=7 pitch=384 time=3
95.7953060625 pitchwheel channel=7 pitch=480 time=3
95.81080190625 pitchwheel channel=7 pitch=384 time=3
95.82629775 pitchwheel channel=7 pitch=288 time=3
95.84179359375 pitchwheel channel=7 pitch=224 time=3
95.8572894375 note_off channel=7 note=52 velocity=0 time=3
95.8572894375 pitchwheel channel=7 pitch=384 time=0
95.929603375 note_off channel=2 note=59 velocity=0 time=14
95.929603375 note_off channel=2 note=52 velocity=0 time=0
95.9399339375 pitchwheel channel=7 pitch=0 time=2
95.9399339375 note_on channel=9 note=40 velocity=86 time=0
95.94509921875 note_on channel=9 note=42 velocity=68 time=1
95.9502645 note_on channel=2 note=59 velocity=85 time=1
95.9502645 note_off channel=5 note=81 velocity=0 time=0
95.9502645 note_on channel=9 note=62 velocity=78 time=0
95.9605950625 note_on channel=2 note=52 velocity=52 time=2
95.96576034375 note_off channel=0 note=47 velocity=0 time=1
95.96576034375 note_on channel=7 note=50 velocity=73 time=0
95.97092562499999 pitchwheel channel=7 pitch=832 time=1
95.97092562499999 note_off channel=9 note=40 velocity=0 time=0
95.97609090625001 note_off channel=9 note=42 velocity=0 time=1
95.9812561875 pitchwheel channel=7 pitch=768 time=1
95.9812561875 note_off channel=9 note=62 velocity=0 time=0
95.99158675000001 note_off channel=0 note=52 velocity=0 time=2
96.0019173125 pitchwheel channel=7 pitch=736 time=2
96.01741315625 pitchwheel channel=7 pitch=704 time=3
96.0225784375 note_off channel=3 note=78 velocity=0 time=1
96.03807428125 pitchwheel channel=7 pitch=672 time=3
96.0432395625 note_off channel=5 note=78 velocity=0 time=1
96.04840484374999 note_off channel=2 note=47 velocity=0 time=1
96.04840484374999 note_off channel=6 note=47 velocity=0 time=0
96.04840484374999 pitchwheel channel=7 pitch=640 time=0
96.0639006875 pitchwheel channel=7 pitch=544 time=3
96.06906596875001 note_on channel=9 note=62 velocity=80 time=1
96.07939653125 pitchwheel channel=7 pitch=416 time=2
96.08972709375 pitchwheel channel=7 pitch=704 time=2
96.094892375 note_off channel=7 note=50 velocity=0 time=1
96.10005765625 note_off channel=9 note=62 velocity=0 time=1
96.13104934375 note_off channel=0 note=59 velocity=0 time=6
96.14654518750001 note_off channel=2 note=59 velocity=0 time=3
96.15171046875 note_off channel=2 note=55 velocity=0 time=1
96.16204103125 note_off channel=0 note=64 velocity=0 time=2
96.16204103125 note_off channel=2 note=52 velocity=0 time=0
96.1672063125 note_off channel=0 note=40 velocity=0 time=1
96.17237159375 note_off channel=0 note=55 velocity=0 time=1
96.17237159375 note_on channel=0 note=48 velocity=66 time=0
96.17237159375 note_on channel=0 note=52 velocity=67 time=0
96.177536875 note_on channel=0 note=55 velocity=79 time=1
96.18270215625 note_on channel=0 note=60 velocity=87 time=1
96.18270215625 note_on channel=5 note=78 velocity=105 time=0
96.18270215625 note_on channel=5 note=81 velocity=110 time=0
96.18786743749999 note_on channel=0 note=64 velocity=84 time=1
96.18786743749999 note_off channel=2 note=64 velocity=0 time=0
96.19303271875 note_on channel=9 note=42 velocity=68 time=1
96.19303271875 note_on channel=9 note=62 velocity=81 time=0
96.198198 note_on channel=1 note=36 velocity=106 time=1
96.198198 note_on channel=2 note=55 velocity=83 time=0
96.198198 note_on channel=2 note=48 velocity=86 time=0
96.198198 note_on channel=7 note=48 velocity=88 time=0
96.198198 note_on channel=7 note=55 velocity=89 time=0
96.198198 note_on channel=9 note=35 velocity=91 time=0
96.20336328124999 note_on channel=2 note=60 velocity=82 time=1
96.20336328124999 note_on channel=3 note=78 velocity=104 time=0
96.2085285625 note_on channel=2 note=64 velocity=79 time=1
96.21369384375 note_on channel=2 note=52 velocity=57 time=1
96.22402440625001 note_off channel=9 note=62 velocity=0 time=2
96.22402440625001 note_off channel=9 note=42 velocity=0 time=0
96.2291896875 note_off channel=9 note=35 velocity=0 time=1
96.38931340625 note_off channel=0 note=64 velocity=0 time=31
96.40480925 note_off channel=0 note=60 velocity=0 time=3
96.40997453125 note_on channel=0 note=64 velocity=78 time=1
96.42030509375 note_on channel=0 note=60 velocity=78 time=2
96.42030509375 note_off channel=2 note=64 velocity=0 time=0
96.425470375 note_off channel=0 note=52 velocity=0 time=1
96.43063565625 note_on channel=0 note=52 velocity=51 time=1
96.43580093749999 note_off channel=2 note=60 velocity=0 time=1
96.43580093749999 note_on channel=2 note=64 velocity=70 time=0
96.44096621875 note_on channel=2 note=60 velocity=65 time=1
96.44096621875 note_on channel=9 note=42 velocity=66 time=0
96.44096621875 note_on channel=9 note=62 velocity=84 time=0
96.47195790625001 note_off channel=9 note=62 velocity=0 time=6
96.47195790625001 note_off channel=9 note=42 velocity=0 time=0
96.5597676875 note_on channel=9 note=62 velocity=74 time=17
96.59075937499999 note_off channel=9 note=62 velocity=0 time=6
96.6424121875 note_off channel=2 note=52 velocity=0 time=10
96.65790803125 note_off channel=0 note=48 velocity=0 time=3
96.6630733125 note_off channel=0 note=52 velocity=0 time=1
96.66823859374999 note_on channel=0 note=48 velocity=71 time=1
96.66823859374999 note_off channel=1 note=36 velocity=0 time=0
96.673403875 note_off channel=0 note=55 velocity=0 time=1
96.673403875 note_on channel=0 note=52 velocity=60 time=0
96.673403875 note_on channel=5 note=79 velocity=104 time=0
96.673403875 note_on channel=6 note=48 velocity=91 time=0
96.67856915625 note_on channel=2 note=52 velocity=44 time=1
96.67856915625 note_on channel=3 note=76 velocity=99 time=0
96.67856915625 note_on channel=5 note=76 velocity=95 time=0
96.67856915625 note_on channel=9 note=62 velocity=75 time=0
96.6837344375 note_on channel=0 note=55 velocity=66 time=1
96.6837344375 note_off channel=3 note=78 velocity=0 time=0
96.68889971875001 note_off channel=5 note=78 velocity=0 time=1
96.68889971875001 note_on channel=9 note=40 velocity=85 time=0
96.68889971875001 note_on channel=9 note=42 velocity=65 time=0
96.69923028125 note_off channel=0 note=60 velocity=0 time=2
96.70956084375 note_off channel=5 note=81 velocity=0 time=2
96.70956084375 note_off channel=9 note=62 velocity=0 time=0
96.71989140625 note_off channel=9 note=40 velocity=0 time=2
96.71989140625 note_off channel=9 note=42 velocity=0 time=0
96.90584153125 note_off channel=0 note=64 velocity=0 time=36
96.90584153125 note_off channel=7 note=48 velocity=0 time=0
96.9110068125 note_off channel=2 note=64 velocity=0 time=1
96.91617209374999 note_off channel=0 note=52 velocity=0 time=1
96.92133737500001 note_off channel=0 note=55 velocity=0 time=1
96.92133737500001 note_on channel=0 note=52 velocity=62 time=0
96.92133737500001 note_off channel=2 note=60 velocity=0 time=0
96.92133737500001 note_off channel=2 note=52 velocity=0 time=0
96.92650265625 note_on channel=0 note=55 velocity=85 time=1
96.92650265625 note_on channel=1 note=40 velocity=109 time=0
96.92650265625 note_off channel=2 note=55 velocity=0 time=0
96.92650265625 note_on channel=2 note=64 velocity=83 time=0
96.92650265625 note_on channel=7 note=48 velocity=94 time=0
96.92650265625 note_on channel=9 note=46 velocity=63 time=0
96.9316679375 note_on channel=0 note=64 velocity=90 time=1
96.9316679375 note_on channel=9 note=62 velocity=68 time=0
96.93683321875001 note_on channel=2 note=60 velocity=82 time=1
96.93683321875001 note_on channel=9 note=35 velocity=98 time=0
96.9419985 note_on channel=2 note=55 velocity=76 time=1
96.9419985 note_off channel=7 note=55 velocity=0 time=0
96.94716378125 note_on channel=0 note=60 velocity=90 time=1
96.94716378125 note_on channel=2 note=52 velocity=34 time=0
96.94716378125 note_on channel=7 note=55 velocity=89 time=0
96.95749434375 note_off channel=9 note=46 velocity=0 time=2
96.962659625 note_off channel=9 note=62 velocity=0 time=1
96.96782490625 note_off channel=9 note=35 velocity=0 time=1
97.05046940625 note_on channel=9 note=62 velocity=75 time=16
97.08146109375 note_off channel=9 note=62 velocity=0 time=6
97.127948625 note_off channel=2 note=52 velocity=0 time=9
97.14344446875 note_off channel=0 note=64 velocity=0 time=3
97.14860974999999 note_off channel=2 note=55 velocity=0 time=1
97.16410559375 note_on channel=0 note=64 velocity=77 time=3
97.16410559375 note_on channel=2 note=52 velocity=53 time=0
97.16927087500001 note_on channel=2 note=55 velocity=75 time=1
97.17443615625 note_on channel=9 note=62 velocity=77 time=1
97.18476671875001 note_on channel=9 note=42 velocity=73 time=2
97.20542784375 note_off channel=9 note=62 velocity=0 time=4
97.21575840625 note_off channel=9 note=42 velocity=0 time=2
97.39137796875 note_off channel=2 note=64 velocity=0 time=34
97.39654325 note_off channel=2 note=60 velocity=0 time=1
97.40170853125001 note_off channel=0 note=52 velocity=0 time=1
97.40170853125001 note_off channel=1 note=40 velocity=0 time=0
97.41203909375 note_on channel=0 note=52 velocity=38 time=2
97.41203909375 note_on channel=2 note=64 velocity=74 time=0
97.41720437500001 note_on channel=2 note=60 velocity=79 time=1
97.42236965625 note_on channel=9 note=40 velocity=86 time=1
97.4275349375 note_on channel=1 note=43 velocity=105 time=1
97.4275349375 note_on channel=9 note=42 velocity=63 time=0
97.4275349375 note_on channel=9 note=62 velocity=76 time=0
97.4378655 note_off channel=7 note=55 velocity=0 time=2
97.44303078125 note_on channel=7 note=55 velocity=89 time=1
97.45336134375 note_off channel=9 note=40 velocity=0 time=2
97.45852662499999 note_off channel=9 note=42 velocity=0 time=1
97.45852662499999 note_off channel=9 note=62 velocity=0 time=0
97.55666696875001 note_on channel=9 note=62 velocity=70 time=19
97.58765865625 note_off channel=9 note=62 velocity=0 time=6
97.61348506249999 note_off channel=0 note=48 velocity=0 time=5
97.61865034375 note_off channel=0 note=64 velocity=0 time=1
97.623815625 note_off channel=0 note=55 velocity=0 time=1
97.62898090624999 note_off channel=1 note=43 velocity=0 time=1
97.64447675 note_off channel=2 note=52 velocity=0 time=3
97.64447675 note_off channel=2 note=55 velocity=0 time=0
97.6548073125 note_off channel=0 note=60 velocity=0 time=2
97.6548073125 note_off channel=0 note=52 velocity=0 time=0
97.6548073125 note_on channel=2 note=52 velocity=69 time=0
97.65997259375 note_on channel=0 note=48 velocity=53 time=1
97.65997259375 note_off channel=2 note=64 velocity=0 time=0
97.65997259375 note_off channel=2 note=60 velocity=0 time=0
97.65997259375 note_on channel=2 note=55 velocity=83 time=0
97.665137875 note_on channel=0 note=52 velocity=62 time=1
97.665137875 note_on channel=0 note=55 velocity=76 time=0
97.665137875 note_on channel=0 note=60 velocity=82 time=0
97.665137875 note_on channel=2 note=60 velocity=82 time=0
97.665137875 note_on channel=2 note=64 velocity=86 time=0
97.67030315625 note_on channel=9 note=42 velocity=66 time=1
97.67030315625 note_on channel=9 note=62 velocity=80 time=0
97.6754684375 note_on channel=0 note=64 velocity=88 time=1
97.68063371875 note_on channel=1 note=36 velocity=105 time=1
97.685799 note_off channel=7 note=48 velocity=0 time=1
97.685799 note_on channel=9 note=35 velocity=93 time=0
97.69096428124999 note_off channel=5 note=76 velocity=0 time=1
97.70129484375 note_off channel=9 note=62 velocity=0 time=2
97.70129484375 note_off channel=9 note=42 velocity=0 time=0
97.70646012499999 note_off channel=7 note=55 velocity=0 time=1
97.70646012499999 note_on channel=7 note=48 velocity=93 time=0
97.71162540625001 note_on channel=7 note=55 velocity=89 time=1
97.7167906875 note_off channel=9 note=35 velocity=0 time=1
97.75294765625 note_off channel=3 note=76 velocity=0 time=7
97.76844349999999 note_off channel=5 note=79 velocity=0 time=3
97.871749125 note_off channel=2 note=48 velocity=0 time=20
97.89241025 note_off channel=0 note=64 velocity=0 time=4
97.9027408125 note_off channel=1 note=36 velocity=0 time=2
97.9027408125 note_off channel=2 note=55 velocity=0 time=0
97.90790609375 note_on channel=0 note=64 velocity=78 time=1
97.90790609375 note_on channel=2 note=48 velocity=82 time=0
97.913071375 note_off channel=0 note=55 velocity=0 time=1
97.913071375 note_off channel=2 note=64 velocity=0 time=0
97.91823665625 note_on channel=2 note=55 velocity=83 time=1
97.91823665625 note_on channel=9 note=42 velocity=64 time=0
97.92340193749999 note_on channel=0 note=55 velocity=55 time=1
97.92340193749999 note_on channel=2 note=64 velocity=84 time=0
97.92856721875 note_on channel=9 note=62 velocity=74 time=1
97.94922834375 note_off channel=9 note=42 velocity=0 time=4
97.95955890625001 note_off channel=9 note=62 velocity=0 time=2
98.0060464375 note_off channel=2 note=64 velocity=0 time=9
98.02154228125 note_off channel=2 note=60 velocity=0 time=3
98.02670756250001 note_on channel=2 note=64 velocity=88 time=1
98.03703812500001 note_on channel=2 note=60 velocity=78 time=2
98.05253396875001 note_on channel=9 note=62 velocity=66 time=3
98.08352565625 note_off channel=9 note=62 velocity=0 time=6
98.1506743125 note_off channel=2 note=60 velocity=0 time=13
98.15583959375 note_off channel=0 note=55 velocity=0 time=1
98.15583959375 note_on channel=2 note=60 velocity=81 time=0
98.16617015625 note_on channel=0 note=55 velocity=41 time=2
98.16617015625 note_on channel=9 note=42 velocity=62 time=0
98.16617015625 note_on channel=9 note=62 velocity=81 time=0
98.17133543749999 note_on channel=9 note=40 velocity=82 time=1
98.181666 note_on channel=1 note=36 velocity=105 time=2
98.19716184375 note_off channel=9 note=62 velocity=0 time=3
98.19716184375 note_off channel=9 note=42 velocity=0 time=0
98.202327125 note_off channel=9 note=40 velocity=0 time=1
98.35212028125 note_off channel=1 note=36 velocity=0 time=29
98.39344253125 note_off channel=0 note=52 velocity=0 time=8
98.39344253125 note_off channel=0 note=48 velocity=0 time=0
98.39344253125 note_off channel=0 note=55 velocity=0 time=0
98.3986078125 note_off channel=0 note=60 velocity=0 time=1
98.3986078125 note_off channel=2 note=52 velocity=0 time=0
98.40377309374999 note_on channel=0 note=48 velocity=71 time=1
98.40377309374999 note_off channel=2 note=60 velocity=0 time=0
98.408938375 note_on channel=0 note=52 velocity=76 time=1
98.408938375 note_on channel=0 note=55 velocity=80 time=0
98.408938375 note_on channel=9 note=46 velocity=59 time=0
98.41410365625 note_off channel=0 note=64 velocity=0 time=1
98.41410365625 note_on channel=0 note=60 velocity=86 time=0
98.4192689375 note_on channel=0 note=64 velocity=93 time=1
98.4192689375 note_on channel=2 note=60 velocity=82 time=0
98.42443421875001 note_on channel=2 note=52 velocity=79 time=1
98.42443421875001 note_on channel=9 note=35 velocity=93 time=0
98.42443421875001 note_on channel=9 note=62 velocity=85 time=0
98.4295995 note_on channel=1 note=36 velocity=105 time=1
98.43993006250001 note_off channel=9 note=46 velocity=0 time=2
98.45542590625 note_off channel=9 note=35 velocity=0 time=3
98.45542590625 note_off channel=9 note=62 velocity=0 time=0
98.54840096875 note_on channel=9 note=62 velocity=70 time=18
98.56906209375 note_off channel=1 note=36 velocity=0 time=4
98.57939265625001 note_off channel=9 note=62 velocity=0 time=2
98.615549625 note_off channel=2 note=64 velocity=0 time=7
98.62071490625 note_off channel=0 note=64 velocity=0 time=1
98.63621074999999 note_off channel=7 note=55 velocity=0 time=3
98.6465413125 note_on channel=0 note=64 velocity=76 time=2
98.6465413125 note_off channel=2 note=52 velocity=0 time=0
98.65170659374999 note_off channel=7 note=48 velocity=0 time=1
98.66203715625 note_on channel=2 note=52 velocity=69 time=2
98.66203715625 note_on channel=9 note=62 velocity=70 time=0
98.6672024375 note_off channel=2 note=60 velocity=0 time=1
98.67236771875001 note_on channel=1 note=36 velocity=112 time=1
98.67236771875001 note_on channel=2 note=60 velocity=82 time=0
98.67236771875001 note_on channel=2 note=64 velocity=89 time=0
98.67236771875001 note_on channel=9 note=42 velocity=69 time=0
98.69302884375 note_off channel=9 note=62 velocity=0 time=4
98.70335940625 note_off channel=9 note=42 velocity=0 time=2
98.84798728125 note_off channel=0 note=64 velocity=0 time=28
98.89447481250001 note_off channel=0 note=60 velocity=0 time=9
98.89447481250001 note_off channel=1 note=36 velocity=0 time=0
98.89964009375 note_off channel=2 note=64 velocity=0 time=1
98.89964009375 note_off channel=2 note=48 velocity=0 time=0
98.90480537500001 note_on channel=0 note=60 velocity=65 time=1
98.90997065625 note_on channel=0 note=64 velocity=66 time=1
98.90997065625 note_off channel=2 note=60 velocity=0 time=0
98.9151359375 note_on channel=2 note=64 velocity=86 time=1
98.9151359375 note_on channel=2 note=60 velocity=82 time=0
98.9151359375 note_on channel=9 note=62 velocity=75 time=0
98.92030121875001 note_on channel=9 note=40 velocity=94 time=1
98.92030121875001 note_on channel=9 note=42 velocity=65 time=0
98.93063178125 note_on channel=2 note=48 velocity=59 time=2
98.946127625 note_off channel=9 note=62 velocity=0 time=3
98.95129290625 note_off channel=9 note=40 velocity=0 time=1
98.95129290625 note_off channel=9 note=42 velocity=0 time=0
98.9771193125 note_off channel=6 note=48 velocity=0 time=5
98.99261515625 note_off channel=0 note=48 velocity=0 time=3
98.99778043750001 note_off channel=0 note=52 velocity=0 time=1
99.0184415625 note_off channel=0 note=60 velocity=0 time=4
99.03910268749999 note_on channel=9 note=62 velocity=70 time=4
99.070094375 note_off channel=9 note=62 velocity=0 time=6
99.08559021875 note_off channel=0 note=55 velocity=0 time=3
99.10625134375 note_off channel=0 note=64 velocity=0 time=4
99.1217471875 note_off channel=2 note=55 velocity=0 time=3
99.12691246875 note_off channel=2 note=48 velocity=0 time=1
99.1424083125 note_off channel=2 note=60 velocity=0 time=3
99.15273887500001 note_on channel=2 note=49 velocity=77 time=2
99.15790415625 note_off channel=2 note=52 velocity=0 time=1
99.15790415625 note_on channel=9 note=62 velocity=73 time=0
99.1630694375 note_on channel=2 note=52 velocity=69 time=1
99.1630694375 note_on channel=2 note=55 velocity=80 time=0
99.16823471875 note_on channel=3 note=69 velocity=106 time=1
99.16823471875 note_on channel=6 note=49 velocity=110 time=0
99.16823471875 note_on channel=9 note=42 velocity=68 time=0
99.1734 note_on channel=2 note=59 velocity=85 time=1
99.1734 note_on channel=9 note=35 velocity=92 time=0
99.18889584375 note_off channel=9 note=62 velocity=0 time=3
99.19406112499999 note_on channel=1 note=37 velocity=103 time=1
99.19922640625 note_off channel=9 note=42 velocity=0 time=1
99.2043916875 note_off channel=9 note=35 velocity=0 time=1
99.40583765625 note_off channel=2 note=64 velocity=0 time=39
99.4110029375 note_on channel=9 note=62 velocity=75 time=1
99.4213335 note_on channel=2 note=64 velocity=49 time=2
99.4213335 note_on channel=9 note=42 velocity=65 time=0
99.44199462499999 note_off channel=9 note=62 velocity=0 time=4
99.4523251875 note_off channel=9 note=42 velocity=0 time=2
99.46782103125 note_on channel=0 note=67 velocity=35 time=3
99.50914328125 note_on channel=0 note=71 velocity=62 time=8
99.5349696875 note_on channel=9 note=62 velocity=71 time=5
99.565961375 note_off channel=9 note=62 velocity=0 time=6
99.60211834375 note_on channel=0 note=76 velocity=64 time=7
99.62794475 note_off channel=2 note=59 velocity=0 time=5
99.62794475 note_off channel=3 note=69 velocity=0 time=0
99.65893643749999 note_on channel=3 note=71 velocity=100 time=6
99.65893643749999 note_on channel=9 note=62 velocity=75 time=0
99.669267 note_on channel=9 note=42 velocity=64 time=2
99.67443228124999 note_on channel=2 note=59 velocity=60 time=1
99.6795975625 note_on channel=9 note=37 velocity=101 time=1
99.689928125 note_off channel=9 note=62 velocity=0 time=2
99.7002586875 note_off channel=9 note=42 velocity=0 time=2
99.71058925 note_off channel=9 note=37 velocity=0 time=2
99.89137409375 note_off channel=2 note=49 velocity=0 time=35
99.89137409375 note_off channel=2 note=64 velocity=0 time=0
99.89137409375 note_off channel=2 note=59 velocity=0 time=0
99.90686993749999 note_on channel=2 note=64 velocity=88 time=3
99.91203521875 note_off channel=2 note=52 velocity=0 time=1
99.91203521875 note_on channel=2 note=59 velocity=90 time=0
99.91203521875 note_on channel=9 note=35 velocity=100 time=0
99.91203521875 note_on channel=9 note=62 velocity=77 time=0
99.9172005 note_on channel=2 note=52 velocity=72 time=1
99.9172005 note_on channel=9 note=46 velocity=64 time=0
99.92236578125 note_on channel=2 note=49 velocity=58 time=1
99.94302690625001 note_off channel=9 note=62 velocity=0 time=4
99.94302690625001 note_off channel=9 note=35 velocity=0 time=0
99.9481921875 note_off channel=9 note=46 velocity=0 time=1
100.0308366875 note_on channel=9 note=62 velocity=75 time=16
100.06182837499999 note_off channel=9 note=62 velocity=0 time=6
100.1548034375 note_off channel=3 note=71 velocity=0 time=18
100.1548034375 note_on channel=3 note=74 velocity=107 time=0
100.15996871875001 note_on channel=9 note=62 velocity=82 time=1
100.17029928125 note_on channel=9 note=42 velocity=75 time=2
100.19096040625 note_off channel=9 note=62 velocity=0 time=4
100.20129096875 note_off channel=9 note=42 velocity=0 time=2
100.39240637500001 note_off channel=2 note=64 velocity=0 time=37
100.39240637500001 note_off channel=2 note=59 velocity=0 time=0
100.39757165625 note_on channel=2 note=64 velocity=82 time=1
100.40790221875001 note_on channel=2 note=59 velocity=83 time=2
100.40790221875001 note_off channel=3 note=74 velocity=0 time=0
100.40790221875001 note_on channel=3 note=76 velocity=99 time=0
100.40790221875001 note_on channel=9 note=37 velocity=102 time=0
100.4130675 note_on channel=9 note=42 velocity=64 time=1
100.4130675 note_on channel=9 note=62 velocity=81 time=0
100.41823278125 note_off channel=2 note=52 velocity=0 time=1
100.4233980625 note_on channel=2 note=52 velocity=47 time=1
100.43889390625 note_off channel=9 note=37 velocity=0 time=3
100.4440591875 note_off channel=9 note=42 velocity=0 time=1
100.4440591875 note_off channel=9 note=62 velocity=0 time=0
100.53186896875 note_on channel=9 note=62 velocity=70 time=17
100.56286065625001 note_off channel=2 note=49 velocity=0 time=6
100.56286065625001 note_off channel=9 note=62 velocity=0 time=0
100.5886870625 note_off channel=1 note=37 velocity=0 time=5
100.6093481875 note_off channel=6 note=49 velocity=0 time=4
100.63000931250001 note_off channel=2 note=52 velocity=0 time=4
100.64550515625 note_on channel=1 note=36 velocity=102 time=3
100.64550515625 note_off channel=2 note=55 velocity=0 time=0
100.64550515625 note_off channel=2 note=64 velocity=0 time=0
100.6506704375 note_on channel=2 note=52 velocity=76 time=1
100.6506704375 note_on channel=6 note=48 velocity=94 time=0
100.65583571875001 note_on channel=2 note=55 velocity=82 time=1
100.65583571875001 note_on channel=9 note=35 velocity=97 time=0
100.65583571875001 note_on channel=9 note=42 velocity=63 time=0
100.65583571875001 note_on channel=9 note=62 velocity=71 time=0
100.661001 note_off channel=2 note=59 velocity=0 time=1
100.661001 note_on channel=2 note=48 velocity=76 time=0
100.66616628125 note_off channel=0 note=71 velocity=0 time=1
100.66616628125 note_on channel=2 note=59 velocity=88 time=0
100.6713315625 note_off channel=0 note=76 velocity=0 time=1
100.6713315625 note_on channel=2 note=64 velocity=78 time=0
100.68682740625 note_off channel=9 note=62 velocity=0 time=3
100.68682740625 note_off channel=9 note=42 velocity=0 time=0
100.68682740625 note_off channel=9 note=35 velocity=0 time=0
100.70232325 note_off channel=0 note=67 velocity=0 time=3
100.89343865625 note_off channel=2 note=64 velocity=0 time=37
100.8986039375 note_on channel=9 note=42 velocity=62 time=1
100.90376921875 note_on channel=2 note=64 velocity=45 time=1
100.90376921875 note_on channel=9 note=62 velocity=81 time=0
100.92959562499999 note_off channel=9 note=42 velocity=0 time=5
100.93476090625 note_off channel=9 note=62 velocity=0 time=1
101.012240125 note_on channel=0 note=67 velocity=44 time=15
101.0225706875 note_on channel=9 note=62 velocity=75 time=2
101.053562375 note_off channel=9 note=62 velocity=0 time=6
101.06905821875 note_on channel=0 note=71 velocity=63 time=3
101.136206875 note_off channel=2 note=59 velocity=0 time=13
101.136206875 note_off channel=2 note=55 velocity=0 time=0
101.1465374375 note_on channel=0 note=76 velocity=56 time=2
101.1465374375 note_on channel=2 note=55 velocity=53 time=0
101.1465374375 note_on channel=9 note=37 velocity=93 time=0
101.1465374375 note_on channel=9 note=42 velocity=68 time=0
101.1465374375 note_on channel=9 note=62 velocity=76 time=0
101.15170271875 note_off channel=2 note=64 velocity=0 time=1
101.156868 note_on channel=2 note=59 velocity=66 time=1
101.156868 note_on channel=2 note=64 velocity=31 time=0
101.17752912499999 note_off channel=9 note=62 velocity=0 time=4
101.17752912499999 note_off channel=9 note=42 velocity=0 time=0
101.17752912499999 note_off channel=9 note=37 velocity=0 time=0
101.3738098125 note_off channel=2 note=64 velocity=0 time=38
101.384140375 note_off channel=2 note=59 velocity=0 time=2
101.38930565625 note_on channel=2 note=64 velocity=90 time=1
101.38930565625 note_on channel=9 note=35 velocity=104 time=0
101.39447093749999 note_off channel=2 note=55 velocity=0 time=1
101.39447093749999 note_on channel=9 note=46 velocity=61 time=0
101.39963621875 note_on channel=2 note=59 velocity=86 time=1
101.39963621875 note_on channel=2 note=55 velocity=83 time=0
101.39963621875 note_on channel=9 note=62 velocity=81 time=0
101.4048015 note_off channel=2 note=52 velocity=0 time=1
101.40996678124999 note_on channel=2 note=52 velocity=70 time=1
101.42029734375 note_off channel=9 note=35 velocity=0 time=2
101.425462625 note_off channel=9 note=46 velocity=0 time=1
101.43062790625001 note_off channel=9 note=62 velocity=0 time=1
101.5184376875 note_on channel=9 note=62 velocity=71 time=17
101.549429375 note_off channel=9 note=62 velocity=0 time=6
101.58558634375001 note_off channel=3 note=76 velocity=0 time=7
101.632073875 note_on channel=3 note=79 velocity=101 time=9
101.64756971875 note_on channel=9 note=42 velocity=75 time=3
101.64756971875 note_on channel=9 note=62 velocity=74 time=0
101.67856140625001 note_off channel=9 note=62 velocity=0 time=6
101.67856140625001 note_off channel=9 note=42 velocity=0 time=0
101.8490156875 note_off channel=2 note=59 velocity=0 time=33
101.86451153125 note_off channel=2 note=48 velocity=0 time=3
101.8696768125 note_off channel=2 note=52 velocity=0 time=1
101.88517265625 note_on channel=9 note=37 velocity=98 time=3
101.8903379375 note_off channel=2 note=64 velocity=0 time=1
101.8903379375 note_on channel=9 note=42 velocity=65 time=0
101.89550321875001 note_on channel=2 note=64 velocity=78 time=1
101.89550321875001 note_on channel=9 note=62 velocity=77 time=0
101.90583378125 note_on channel=2 note=59 velocity=73 time=2
101.91616434375 note_off channel=9 note=37 velocity=0 time=2
101.921329625 note_off channel=9 note=42 velocity=0 time=1
101.92649490625 note_off channel=9 note=62 velocity=0 time=1
101.96781715624999 note_off channel=1 note=36 velocity=0 time=8
102.0143046875 note_on channel=9 note=62 velocity=77 time=9
102.02980053124999 note_off channel=6 note=48 velocity=0 time=3
102.04529637499999 note_off channel=9 note=62 velocity=0 time=3
102.13310615625 note_on channel=1 note=35 velocity=109 time=17
102.13310615625 note_off channel=3 note=79 velocity=0 time=0
102.1382714375 note_off channel=2 note=64 velocity=0 time=1
102.1382714375 note_on channel=6 note=47 velocity=97 time=0
102.1382714375 note_on channel=9 note=42 velocity=68 time=0
102.1382714375 note_on channel=9 note=62 velocity=80 time=0
102.14343671875001 note_off channel=2 note=55 velocity=0 time=1
102.148602 note_off channel=2 note=59 velocity=0 time=1
102.148602 note_on channel=2 note=55 velocity=80 time=0
102.148602 note_on channel=2 note=47 velocity=63 time=0
102.148602 note_on channel=9 note=35 velocity=94 time=0
102.15376728125 note_off channel=0 note=76 velocity=0 time=1
102.15376728125 note_on channel=2 note=52 velocity=67 time=0
102.15376728125 note_on channel=3 note=76 velocity=93 time=0
102.1589325625 note_on channel=2 note=59 velocity=87 time=1
102.16409784375 note_on channel=2 note=64 velocity=73 time=1
102.169263125 note_off channel=9 note=62 velocity=0 time=1
102.169263125 note_off channel=9 note=42 velocity=0 time=0
102.1795936875 note_off channel=9 note=35 velocity=0 time=2
102.23641178125 note_off channel=0 note=71 velocity=0 time=11
102.334552125 note_off channel=0 note=67 velocity=0 time=19
102.3862049375 note_on channel=9 note=42 velocity=68 time=10
102.3862049375 note_on channel=9 note=62 velocity=80 time=0
102.417196625 note_off channel=9 note=62 velocity=0 time=6
102.417196625 note_off channel=9 note=42 velocity=0 time=0
102.51017168749999 note_on channel=9 note=62 velocity=63 time=18
102.541163375 note_off channel=9 note=62 velocity=0 time=6
102.62897315625 note_on channel=9 note=37 velocity=89 time=17
102.62897315625 note_on channel=9 note=42 velocity=70 time=0
102.62897315625 note_on channel=9 note=62 velocity=74 time=0
102.65996484375 note_off channel=9 note=62 velocity=0 time=6
102.65996484375 note_off channel=9 note=42 velocity=0 time=0
102.65996484375 note_off channel=9 note=37 velocity=0 time=0
102.69095653125 note_off channel=1 note=35 velocity=0 time=6
102.789096875 note_on channel=9 note=46 velocity=65 time=19
102.82008856249999 note_off channel=9 note=46 velocity=0 time=6
102.830419125 note_off channel=2 note=64 velocity=0 time=2
102.84591496875 note_off channel=2 note=59 velocity=0 time=3
102.871741375 note_off channel=2 note=52 velocity=0 time=5
102.871741375 note_off channel=2 note=55 velocity=0 time=0
102.871741375 note_on channel=2 note=64 velocity=80 time=0
102.87690665625 note_on channel=1 note=35 velocity=108 time=1
102.87690665625 note_on channel=2 note=59 velocity=86 time=0
102.88723721875 note_off channel=2 note=47 velocity=0 time=2
102.88723721875 note_on channel=2 note=55 velocity=79 time=0
102.88723721875 note_on channel=9 note=35 velocity=107 time=0
102.88723721875 note_on channel=9 note=62 velocity=82 time=0
102.8924025 note_on channel=2 note=52 velocity=65 time=1
102.89756778124999 note_on channel=2 note=47 velocity=77 time=1
102.90789834375 note_on channel=2 note=40 velocity=47 time=2
102.91822890625001 note_off channel=9 note=62 velocity=0 time=2
102.91822890625001 note_off channel=9 note=35 velocity=0 time=0
103.00087340625 note_on channel=9 note=62 velocity=74 time=16
103.03186509375 note_off channel=9 note=62 velocity=0 time=6
103.12484015625 note_on channel=9 note=42 velocity=75 time=18
103.13000543749999 note_on channel=9 note=62 velocity=82 time=1
103.13517071875 note_off channel=1 note=35 velocity=0 time=1
103.13517071875 note_on channel=1 note=31 velocity=102 time=0
103.15583184375 note_off channel=9 note=42 velocity=0 time=4
103.160997125 note_off channel=9 note=62 velocity=0 time=1
103.33661668750001 note_off channel=6 note=47 velocity=0 time=34
103.34694725 note_on channel=9 note=37 velocity=105 time=2
103.36244309375 note_off channel=2 note=64 velocity=0 time=3
103.37277365625 note_on channel=9 note=42 velocity=69 time=2
103.37793893749999 note_off channel=9 note=37 velocity=0 time=1
103.38310421875 note_on channel=9 note=62 velocity=82 time=1
103.40376534375 note_on channel=2 note=64 velocity=95 time=4
103.40376534375 note_off channel=9 note=42 velocity=0 time=0
103.41409590625001 note_off channel=9 note=62 velocity=0 time=2
103.42959175 note_off channel=2 note=59 velocity=0 time=3
103.4399223125 note_off channel=2 note=55 velocity=0 time=2
103.45541815624999 note_on channel=0 note=64 velocity=69 time=3
103.46574871875 note_off channel=2 note=52 velocity=0 time=2
103.470914 note_off channel=1 note=31 velocity=0 time=1
103.4812445625 note_on channel=2 note=59 velocity=94 time=2
103.48640984375 note_on channel=0 note=59 velocity=69 time=1
103.5019056875 note_off channel=2 note=47 velocity=0 time=3
103.5019056875 note_on channel=2 note=55 velocity=90 time=0
103.50707096875 note_on channel=9 note=62 velocity=66 time=1
103.51223625 note_on channel=0 note=55 velocity=58 time=1
103.51740153125 note_on channel=2 note=52 velocity=86 time=1
103.52773209375 note_off channel=2 note=40 velocity=0 time=2
103.53289737499999 note_on channel=2 note=47 velocity=90 time=1
103.53806265625 note_off channel=9 note=62 velocity=0 time=1
103.5432279375 note_on channel=2 note=40 velocity=88 time=1
103.55355850000001 note_on channel=0 note=52 velocity=61 time=2
103.58971546875 note_on channel=0 note=47 velocity=78 time=7
103.6052113125 note_off channel=2 note=52 velocity=0 time=3
103.615541875 note_on channel=6 note=47 velocity=95 time=2
103.62070715625 note_off channel=0 note=52 velocity=0 time=1
103.62070715625 note_off channel=2 note=64 velocity=0 time=0
103.62070715625 note_on channel=6 note=40 velocity=104 time=0
103.62587243749999 note_off channel=2 note=59 velocity=0 time=1
103.62587243749999 note_off channel=2 note=55 velocity=0 time=0
103.62587243749999 note_on channel=2 note=52 velocity=87 time=0
103.62587243749999 note_on channel=9 note=42 velocity=66 time=0
103.63103771875001 note_off channel=0 note=59 velocity=0 time=1
103.63103771875001 note_on channel=0 note=52 velocity=67 time=0
103.63103771875001 note_on channel=1 note=28 velocity=106 time=0
103.63103771875001 note_on channel=2 note=55 velocity=89 time=0
103.63103771875001 note_on channel=2 note=59 velocity=102 time=0
103.63103771875001 note_on channel=9 note=35 velocity=101 time=0
103.63103771875001 note_on channel=9 note=62 velocity=90 time=0
103.64136828125 note_off channel=0 note=55 velocity=0 time=2
103.64136828125 note_on channel=2 note=64 velocity=93 time=0
103.64653356250001 note_off channel=0 note=64 velocity=0 time=1
103.64653356250001 note_on channel=0 note=59 velocity=83 time=0
103.64653356250001 note_on channel=0 note=55 velocity=72 time=0
103.64653356250001 note_off channel=2 note=40 velocity=0 time=0
103.656864125 note_off channel=9 note=42 velocity=0 time=2
103.66202940625 note_on channel=0 note=64 velocity=80 time=1
103.66202940625 note_off channel=9 note=35 velocity=0 time=0
103.66202940625 note_off channel=9 note=62 velocity=0 time=0
103.698186375 note_off channel=3 note=76 velocity=0 time=7
103.77566559375 note_off channel=2 note=64 velocity=0 time=15
103.78599615625001 note_off channel=2 note=55 velocity=0 time=2
103.79632671875 note_off channel=2 note=47 velocity=0 time=2
103.80149200000001 note_off channel=2 note=52 velocity=0 time=1
103.80149200000001 note_off channel=2 note=59 velocity=0 time=0
103.82731840625 note_off channel=0 note=64 velocity=0 time=5
103.82731840625 note_off channel=0 note=59 velocity=0 time=0
103.83764896875 note_off channel=0 note=47 velocity=0 time=2
103.84797953125 note_off channel=0 note=52 velocity=0 time=2
103.85831009374999 note_off channel=0 note=55 velocity=0 time=2
103.86864065625 note_off channel=6 note=47 velocity=0 time=2
103.88930178125 note_off channel=1 note=28 velocity=0 time=4
103.89963234375 note_off channel=6 note=40 velocity=0 time=2
104.12690471875001 note_on channel=1 note=28 velocity=119 time=44
104.13207 note_on channel=9 note=35 velocity=110 time=1
104.1630616875 note_off channel=9 note=35 velocity=0 time=6
104.36450765625 note_off channel=1 note=28 velocity=0 time=39
104.6176064375 note_on channel=3 note=67 velocity=104 time=49
104.86553993749999 note_off channel=3 note=67 velocity=0 time=48
104.86553993749999 note_on channel=3 note=69 velocity=97 time=0
105.07731646875 note_on channel=0 note=43 velocity=58 time=41
105.08764703125 note_on channel=0 note=47 velocity=62 time=2
105.09797759375 note_on channel=0 note=50 velocity=54 time=2
105.103142875 note_on channel=5 note=79 velocity=46 time=1
105.103142875 note_on channel=5 note=71 velocity=41 time=0
105.11347343749999 note_on channel=0 note=55 velocity=65 time=2
105.11863871875 note_on channel=0 note=59 velocity=80 time=1
105.11863871875 note_off channel=3 note=69 velocity=0 time=0
105.11863871875 note_on channel=3 note=71 velocity=102 time=0
105.123804 MetaMessage('time_signature', numerator=4, denominator=4, clocks_per_click=24, notated_32nd_notes_per_beat=8, time=1)
105.123804 note_on channel=1 note=31 velocity=105 time=0
105.12896928125 note_on channel=0 note=67 velocity=79 time=1
105.12896928125 note_on channel=2 note=59 velocity=71 time=0
105.12896928125 note_on channel=9 note=35 velocity=108 time=0
105.13413456250001 note_on channel=2 note=62 velocity=79 time=1
105.13413456250001 note_on channel=9 note=42 velocity=75 time=0
105.144465125 note_on channel=2 note=67 velocity=67 time=2
105.15996096875 note_off channel=9 note=35 velocity=0 time=3
105.16512625 note_off channel=9 note=42 velocity=0 time=1
105.2994235625 note_off channel=3 note=71 velocity=0 time=26
105.33041525 note_off channel=2 note=59 velocity=0 time=6
105.3407458125 note_off channel=2 note=67 velocity=0 time=2
105.36657221875001 note_off channel=0 note=59 velocity=0 time=5
105.36657221875001 note_off channel=2 note=62 velocity=0 time=0
105.36657221875001 note_on channel=3 note=71 velocity=99 time=0
105.3717375 note_on channel=2 note=62 velocity=82 time=1
105.37690278125 note_off channel=0 note=67 velocity=0 time=1
105.37690278125 note_on channel=2 note=67 velocity=84 time=0
105.37690278125 note_on channel=2 note=59 velocity=68 time=0
105.38206806250001 note_on channel=0 note=67 velocity=71 time=1
105.38206806250001 note_on channel=0 note=59 velocity=76 time=0
105.38206806250001 note_on channel=2 note=55 velocity=41 time=0
105.38206806250001 note_on channel=9 note=42 velocity=59 time=0
105.41305975 note_off channel=9 note=42 velocity=0 time=6
105.4647125625 note_off channel=1 note=31 velocity=0 time=10
105.53702650000001 note_off channel=3 note=71 velocity=0 time=14
105.57834874999999 note_off channel=2 note=67 velocity=0 time=8
105.59900987500001 note_off channel=2 note=55 velocity=0 time=4
105.61450571875001 note_off channel=2 note=59 velocity=0 time=3
105.61450571875001 note_on channel=2 note=55 velocity=55 time=0
105.61450571875001 note_on channel=3 note=71 velocity=92 time=0
105.619671 note_off channel=2 note=62 velocity=0 time=1
105.619671 note_on channel=2 note=59 velocity=72 time=0
105.619671 note_on channel=9 note=40 velocity=99 time=0
105.62483628125 note_on channel=2 note=62 velocity=82 time=1
105.6300015625 note_on channel=2 note=67 velocity=71 time=1
105.6300015625 note_on channel=9 note=42 velocity=68 time=0
105.63516684375 note_off channel=0 note=47 velocity=0 time=1
105.6506626875 note_off channel=9 note=40 velocity=0 time=3
105.66099325 note_off channel=9 note=42 velocity=0 time=2
105.79012528125 note_off channel=3 note=71 velocity=0 time=25
105.82628224999999 note_off channel=2 note=59 velocity=0 time=7
105.84177809375 note_off channel=0 note=50 velocity=0 time=3
105.84177809375 note_off channel=0 note=67 velocity=0 time=0
105.84694337500001 note_off channel=0 note=59 velocity=0 time=1
105.86243921875001 note_off channel=0 note=43 velocity=0 time=3
105.86243921875001 note_on channel=0 note=67 velocity=75 time=0
105.86243921875001 note_on channel=0 note=59 velocity=74 time=0
105.86243921875001 note_off channel=2 note=55 velocity=0 time=0
105.86243921875001 note_on channel=3 note=71 velocity=92 time=0
105.8676045 note_on channel=1 note=31 velocity=101 time=1
105.8676045 note_off channel=2 note=62 velocity=0 time=0
105.8676045 note_off channel=2 note=67 velocity=0 time=0
105.87276978125 note_on channel=2 note=67 velocity=85 time=1
105.87276978125 note_on channel=9 note=42 velocity=58 time=0
105.8779350625 note_on channel=0 note=50 velocity=56 time=1
105.8779350625 note_on channel=2 note=62 velocity=82 time=0
105.8779350625 note_on channel=2 note=59 velocity=67 time=0
105.8779350625 note_on channel=9 note=35 velocity=101 time=0
105.88310034375 note_on channel=0 note=47 velocity=56 time=1
105.88310034375 note_on channel=2 note=55 velocity=49 time=0
105.888265625 note_on channel=0 note=43 velocity=26 time=1
105.90376146874999 note_off channel=9 note=42 velocity=0 time=3
105.90892675 note_off channel=9 note=35 velocity=0 time=1
106.0225629375 note_off channel=1 note=31 velocity=0 time=22
106.04838934375 note_off channel=3 note=71 velocity=0 time=5
106.1052074375 note_off channel=0 note=67 velocity=0 time=11
106.115538 note_on channel=1 note=31 velocity=108 time=2
106.115538 note_on channel=3 note=71 velocity=96 time=0
106.12070328125 note_on channel=9 note=42 velocity=52 time=1
106.1258685625 note_on channel=0 note=67 velocity=60 time=1
106.15169496875 note_off channel=9 note=42 velocity=0 time=5
106.280827 note_off channel=3 note=71 velocity=0 time=25
106.28599228125 note_off channel=0 note=67 velocity=0 time=1
106.32214925 note_off channel=0 note=59 velocity=0 time=7
106.33764509375 note_off channel=2 note=67 velocity=0 time=3
106.342810375 note_off channel=2 note=62 velocity=0 time=1
106.34797565625 note_off channel=2 note=59 velocity=0 time=1
106.3531409375 note_off channel=2 note=55 velocity=0 time=1
106.3531409375 note_on channel=2 note=67 velocity=86 time=0
106.35830621875 note_on channel=0 note=67 velocity=65 time=1
106.35830621875 note_on channel=2 note=62 velocity=83 time=0
106.35830621875 note_on channel=3 note=71 velocity=97 time=0
106.3634715 note_off channel=0 note=55 velocity=0 time=1
106.3634715 note_on channel=2 note=59 velocity=74 time=0
106.3634715 note_on channel=9 note=42 velocity=49 time=0
106.36863678124999 note_off channel=0 note=50 velocity=0 time=1
106.36863678124999 note_on channel=0 note=59 velocity=74 time=0
106.36863678124999 note_on channel=2 note=55 velocity=50 time=0
106.3738020625 note_off channel=0 note=47 velocity=0 time=1
106.3738020625 note_on channel=0 note=55 velocity=66 time=0
106.3738020625 note_off channel=1 note=31 velocity=0 time=0
106.38413262499999 note_off channel=0 note=43 velocity=0 time=2
106.38413262499999 note_on channel=0 note=47 velocity=54 time=0
106.38413262499999 note_on channel=0 note=50 velocity=55 time=0
106.38929790625001 note_on channel=0 note=43 velocity=34 time=1
106.3944631875 note_off channel=9 note=42 velocity=0 time=1
106.5287605 note_off channel=3 note=71 velocity=0 time=26
106.55975218750001 note_off channel=2 note=62 velocity=0 time=6
106.55975218750001 note_off channel=2 note=67 velocity=0 time=0
106.5804133125 note_off channel=2 note=55 velocity=0 time=4
106.590743875 note_off channel=2 note=59 velocity=0 time=2
106.60107443749999 note_on channel=2 note=55 velocity=62 time=2
106.60107443749999 note_on channel=3 note=71 velocity=96 time=0
106.60623971875 note_on channel=2 note=59 velocity=75 time=1
106.611405 note_on channel=2 note=62 velocity=82 time=1
106.61657028124999 note_on channel=2 note=67 velocity=85 time=1
106.61657028124999 note_on channel=9 note=42 velocity=65 time=0
106.6217355625 note_on channel=9 note=40 velocity=97 time=1
106.64756196875 note_off channel=9 note=42 velocity=0 time=5
106.65272725 note_off channel=9 note=40 velocity=0 time=1
106.776694 note_off channel=3 note=71 velocity=0 time=24
106.8283468125 note_off channel=0 note=43 velocity=0 time=10
106.83351209375 note_off channel=0 note=47 velocity=0 time=1
106.838677375 note_off channel=0 note=67 velocity=0 time=1
106.84384265625 note_off channel=2 note=67 velocity=0 time=1
106.84900793749999 note_off channel=0 note=59 velocity=0 time=1
106.84900793749999 note_on channel=0 note=67 velocity=47 time=0
106.84900793749999 note_off channel=2 note=59 velocity=0 time=0
106.84900793749999 note_on channel=3 note=71 velocity=92 time=0
106.85417321875 note_on channel=0 note=59 velocity=56 time=1
106.85417321875 note_on channel=2 note=67 velocity=82 time=0
106.8593385 note_off channel=2 note=62 velocity=0 time=1
106.8593385 note_on channel=9 note=42 velocity=52 time=0
106.86450378125 note_on channel=2 note=62 velocity=79 time=1
106.86450378125 note_on channel=2 note=59 velocity=51 time=0
106.8903301875 note_off channel=9 note=42 velocity=0 time=5
106.94714828125001 note_off channel=2 note=59 velocity=0 time=11
106.96264412500001 note_off channel=2 note=55 velocity=0 time=3
106.96264412500001 note_off channel=2 note=62 velocity=0 time=0
106.96780940625 note_off channel=0 note=67 velocity=0 time=1
106.96780940625 note_off channel=2 note=67 velocity=0 time=0
107.01946221875 note_off channel=0 note=55 velocity=0 time=10
107.0349580625 note_off channel=0 note=50 velocity=0 time=3
107.0349580625 note_off channel=3 note=71 velocity=0 time=0
107.04012334375001 note_off channel=0 note=59 velocity=0 time=1
107.086610875 note_on channel=2 note=54 velocity=51 time=9
107.09177615625 note_on channel=0 note=47 velocity=66 time=1
107.09177615625 note_on channel=1 note=30 velocity=107 time=0
107.09177615625 note_on channel=2 note=57 velocity=79 time=0
107.09694143749999 note_on channel=0 note=51 velocity=64 time=1
107.09694143749999 note_on channel=2 note=63 velocity=84 time=0
107.09694143749999 note_on channel=3 note=71 velocity=97 time=0
107.10210671875001 note_on channel=0 note=57 velocity=76 time=1
107.107272 note_on channel=0 note=59 velocity=80 time=1
107.107272 note_on channel=5 note=78 velocity=42 time=0
107.107272 note_on channel=9 note=42 velocity=58 time=0
107.107272 note_on channel=9 note=35 velocity=111 time=0
107.11243728125 note_on channel=5 note=75 velocity=39 time=1
107.11760256250001 note_on channel=0 note=66 velocity=78 time=1
107.1382636875 note_off channel=9 note=35 velocity=0 time=4
107.1382636875 note_off channel=9 note=42 velocity=0 time=0
107.15892481249999 note_off channel=5 note=79 velocity=0 time=4
107.19508178125001 note_off channel=5 note=71 velocity=0 time=7
107.27772628125 note_off channel=3 note=71 velocity=0 time=16
107.33970965625 note_off channel=0 note=66 velocity=0 time=12
107.33970965625 note_off channel=2 note=63 velocity=0 time=0
107.33970965625 note_off channel=2 note=57 velocity=0 time=0
107.33970965625 note_on channel=2 note=66 velocity=84 time=0
107.3448749375 note_off channel=0 note=57 velocity=0 time=1
107.3448749375 note_on channel=2 note=63 velocity=82 time=0
107.3448749375 note_on channel=3 note=71 velocity=92 time=0
107.35004021875001 note_on channel=0 note=66 velocity=78 time=1
107.35004021875001 note_on channel=2 note=57 velocity=65 time=0
107.35004021875001 note_on channel=9 note=42 velocity=52 time=0
107.3552055 note_off channel=0 note=59 velocity=0 time=1
107.36037078125 note_on channel=0 note=59 velocity=82 time=1
107.3655360625 note_on channel=0 note=57 velocity=71 time=1
107.38103190625 note_off channel=9 note=42 velocity=0 time=3
107.41202359375 note_off channel=1 note=30 velocity=0 time=6
107.52565978125 note_off channel=3 note=71 velocity=0 time=22
107.541155625 note_off channel=2 note=66 velocity=0 time=3
107.5514861875 note_off channel=2 note=57 velocity=0 time=2
107.58247787500001 note_off channel=2 note=54 velocity=0 time=6
107.58764315625 note_on channel=2 note=54 velocity=62 time=1
107.5928084375 note_off channel=2 note=63 velocity=0 time=1
107.5928084375 note_on channel=2 note=57 velocity=72 time=0
107.5928084375 note_on channel=3 note=71 velocity=98 time=0
107.59797371875001 note_on channel=2 note=63 velocity=78 time=1
107.59797371875001 note_on channel=9 note=42 velocity=63 time=0
107.603139 note_on channel=2 note=66 velocity=65 time=1
107.60830428125 note_on channel=9 note=40 velocity=96 time=1
107.62896540625 note_off channel=9 note=42 velocity=0 time=4
107.63929596874999 note_off channel=9 note=40 velocity=0 time=2
107.7994196875 note_off channel=2 note=57 velocity=0 time=31
107.7994196875 note_off channel=3 note=71 velocity=0 time=0
107.80458496875 note_off channel=2 note=63 velocity=0 time=1
107.80458496875 note_off channel=2 note=66 velocity=0 time=0
107.82524609375 note_off channel=0 note=66 velocity=0 time=4
107.83557665625 note_off channel=0 note=59 velocity=0 time=2
107.8407419375 note_off channel=0 note=57 velocity=0 time=1
107.8407419375 note_on channel=0 note=66 velocity=80 time=0
107.8407419375 note_on channel=1 note=30 velocity=105 time=0
107.84590721875 note_on channel=0 note=59 velocity=82 time=1
107.84590721875 note_on channel=2 note=66 velocity=86 time=0
107.84590721875 note_on channel=9 note=35 velocity=88 time=0
107.84590721875 note_on channel=9 note=42 velocity=58 time=0
107.8510725 note_on channel=0 note=57 velocity=75 time=1
107.8510725 note_on channel=2 note=63 velocity=82 time=0
107.85623778125 note_on channel=2 note=57 velocity=69 time=1
107.87689890625 note_off channel=9 note=42 velocity=0 time=4
107.87689890625 note_off channel=9 note=35 velocity=0 time=0
108.02669206249999 note_off channel=1 note=30 velocity=0 time=29
108.09384071875 note_on channel=1 note=30 velocity=108 time=13
108.09384071875 note_on channel=9 note=42 velocity=58 time=0
108.12483240625001 note_off channel=9 note=42 velocity=0 time=6
108.29012140625 note_off channel=0 note=66 velocity=0 time=32
108.29012140625 note_off channel=2 note=54 velocity=0 time=0
108.31078253125 note_off channel=0 note=51 velocity=0 time=4
108.3159478125 note_off channel=1 note=30 velocity=0 time=1
108.3159478125 note_off channel=2 note=66 velocity=0 time=0
108.326278375 note_off channel=2 note=63 velocity=0 time=2
108.33144365625 note_off channel=2 note=57 velocity=0 time=1
108.33144365625 note_on channel=2 note=66 velocity=86 time=0
108.33660893749999 note_off channel=0 note=59 velocity=0 time=1
108.33660893749999 note_on channel=0 note=66 velocity=83 time=0
108.33660893749999 note_on channel=2 note=63 velocity=80 time=0
108.33660893749999 note_on channel=9 note=42 velocity=55 time=0
108.34177421875 note_off channel=0 note=57 velocity=0 time=1
108.34177421875 note_on channel=0 note=59 velocity=86 time=0
108.34177421875 note_on channel=2 note=57 velocity=74 time=0
108.3469395 note_on channel=2 note=54 velocity=49 time=1
108.35210478124999 note_on channel=0 note=57 velocity=75 time=1
108.3572700625 note_on channel=0 note=51 velocity=62 time=1
108.367600625 note_off channel=9 note=42 velocity=0 time=2
108.574211875 note_off channel=0 note=51 velocity=0 time=40
108.574211875 note_off channel=2 note=54 velocity=0 time=0
108.57937715625 note_off channel=0 note=47 velocity=0 time=1
108.57937715625 note_off channel=2 note=57 velocity=0 time=0
108.57937715625 note_off channel=2 note=66 velocity=0 time=0
108.58454243749999 note_off channel=0 note=66 velocity=0 time=1
108.58454243749999 note_on channel=0 note=47 velocity=29 time=0
108.58454243749999 note_on channel=2 note=54 velocity=67 time=0
108.58970771875 note_off channel=0 note=57 velocity=0 time=1
108.58970771875 note_on channel=0 note=51 velocity=44 time=0
108.58970771875 note_off channel=2 note=63 velocity=0 time=0
108.58970771875 note_on channel=2 note=57 velocity=82 time=0
108.58970771875 note_on channel=9 note=42 velocity=69 time=0
108.594873 note_off channel=0 note=59 velocity=0 time=1
108.594873 note_on channel=0 note=57 velocity=72 time=0
108.594873 note_on channel=2 note=63 velocity=82 time=0
108.60003828125 note_on channel=0 note=59 velocity=75 time=1
108.60003828125 note_on channel=2 note=66 velocity=87 time=0
108.60520356250001 note_on channel=0 note=66 velocity=71 time=1
108.60520356250001 note_on channel=9 note=40 velocity=101 time=0
108.62069940625001 note_off channel=9 note=42 velocity=0 time=3
108.63619525 note_off channel=9 note=40 velocity=0 time=3
108.80148425 note_off channel=2 note=66 velocity=0 time=32
108.8118148125 note_off channel=0 note=66 velocity=0 time=2
108.83247593749999 note_on channel=0 note=66 velocity=66 time=4
108.83247593749999 note_off channel=2 note=63 velocity=0 time=0
108.83247593749999 note_off channel=2 note=54 velocity=0 time=0
108.83247593749999 note_on channel=2 note=66 velocity=84 time=0
108.83764121875001 note_on channel=2 note=63 velocity=82 time=1
108.83764121875001 note_on channel=9 note=42 velocity=57 time=0
108.84797178125 note_off channel=0 note=57 velocity=0 time=2
108.84797178125 note_on channel=2 note=54 velocity=38 time=0
108.85313706250001 note_on channel=0 note=57 velocity=53 time=1
108.86863290625 note_off channel=9 note=42 velocity=0 time=3
108.946112125 note_off channel=0 note=57 velocity=0 time=15
108.95127740625 note_off channel=2 note=57 velocity=0 time=1
108.9564426875 note_off channel=2 note=54 velocity=0 time=1
108.96677325 note_off channel=0 note=66 velocity=0 time=2
108.97193853124999 note_off channel=2 note=66 velocity=0 time=1
108.97193853124999 note_off channel=2 note=63 velocity=0 time=0
109.0184260625 note_off channel=0 note=51 velocity=0 time=9
109.04425246875 note_on channel=5 note=79 velocity=41 time=5
109.04941774999999 note_off channel=5 note=78 velocity=0 time=1
109.05458303125 note_on channel=5 note=76 velocity=38 time=1
109.0597483125 note_off channel=0 note=47 velocity=0 time=1
109.07007887500001 note_on channel=0 note=47 velocity=68 time=2
109.07524415625 note_off channel=0 note=59 velocity=0 time=1
109.07524415625 note_on channel=0 note=52 velocity=67 time=0
109.07524415625 note_on channel=3 note=71 velocity=109 time=0
109.0804094375 note_on channel=0 note=55 velocity=78 time=1
109.0804094375 note_on channel=1 note=28 velocity=106 time=0
109.08557471875001 note_on channel=0 note=59 velocity=84 time=1
109.08557471875001 note_on channel=2 note=52 velocity=75 time=0
109.08557471875001 note_off channel=5 note=75 velocity=0 time=0
109.08557471875001 note_on channel=9 note=35 velocity=110 time=0
109.08557471875001 note_on channel=9 note=42 velocity=61 time=0
109.09074 note_on channel=2 note=55 velocity=77 time=1
109.09590528125 note_on channel=0 note=64 velocity=69 time=1
109.09590528125 note_on channel=2 note=59 velocity=88 time=0
109.10623584375 note_on channel=2 note=64 velocity=79 time=2
109.11656640625 note_off channel=9 note=42 velocity=0 time=2
109.11656640625 note_off channel=9 note=35 velocity=0 time=0
109.2663595625 note_off channel=3 note=71 velocity=0 time=29
109.29735124999999 note_off channel=0 note=64 velocity=0 time=6
109.31284709375 note_off channel=2 note=64 velocity=0 time=3
109.32317765625 note_off channel=0 note=59 velocity=0 time=2
109.32317765625 note_on channel=0 note=64 velocity=78 time=0
109.3283429375 note_on channel=0 note=59 velocity=77 time=1
109.3283429375 note_off channel=2 note=52 velocity=0 time=0
109.3283429375 note_on channel=3 note=71 velocity=98 time=0
109.33350821875001 note_off channel=2 note=59 velocity=0 time=1
109.33350821875001 note_on channel=2 note=64 velocity=80 time=0
109.33350821875001 note_on channel=9 note=42 velocity=63 time=0
109.3386735 note_off channel=2 note=55 velocity=0 time=1
109.34383878125 note_on channel=2 note=59 velocity=79 time=1
109.34383878125 note_on channel=2 note=55 velocity=60 time=0
109.3490040625 note_on channel=2 note=52 velocity=18 time=1
109.359334625 note_off channel=1 note=28 velocity=0 time=2
109.36449990625 note_off channel=9 note=42 velocity=0 time=1
109.48846665625001 note_off channel=3 note=71 velocity=0 time=24
109.54011946875 note_off channel=2 note=64 velocity=0 time=10
109.56078059375 note_off channel=2 note=52 velocity=0 time=4
109.57111115625 note_on channel=3 note=71 velocity=95 time=2
109.5762764375 note_off channel=2 note=55 velocity=0 time=1
109.58144171875 note_on channel=2 note=52 velocity=56 time=1
109.586607 note_off channel=2 note=59 velocity=0 time=1
109.586607 note_on channel=2 note=55 velocity=68 time=0
109.586607 note_on channel=9 note=40 velocity=99 time=0
109.586607 note_on channel=9 note=42 velocity=65 time=0
109.59177228125 note_on channel=2 note=59 velocity=78 time=1
109.59177228125 note_on channel=2 note=64 velocity=67 time=0
109.6175986875 note_off channel=9 note=42 velocity=0 time=5
109.6175986875 note_off channel=9 note=40 velocity=0 time=0
109.73640015625 note_off channel=3 note=71 velocity=0 time=23
109.80871409375 note_off channel=0 note=64 velocity=0 time=14
109.8242099375 note_off channel=0 note=59 velocity=0 time=3
109.8242099375 note_on channel=0 note=64 velocity=76 time=0
109.8242099375 note_on channel=1 note=28 velocity=108 time=0
109.8242099375 note_off channel=2 note=64 velocity=0 time=0
109.8242099375 note_on channel=3 note=71 velocity=99 time=0
109.82937521875 note_off channel=0 note=55 velocity=0 time=1
109.82937521875 note_on channel=0 note=59 velocity=81 time=0
109.82937521875 note_on channel=9 note=42 velocity=69 time=0
109.8345405 note_on channel=0 note=55 velocity=60 time=1
109.8345405 note_off channel=2 note=59 velocity=0 time=0
109.8345405 note_on channel=2 note=64 velocity=82 time=0
109.8345405 note_on channel=9 note=35 velocity=105 time=0
109.83970578124999 note_on channel=2 note=59 velocity=78 time=1
109.86036690625001 note_off channel=9 note=42 velocity=0 time=4
109.8655321875 note_off channel=9 note=35 velocity=0 time=1
109.99466421874999 note_off channel=1 note=28 velocity=0 time=25
109.99466421874999 note_off channel=3 note=71 velocity=0 time=0
110.06697815625 note_off channel=0 note=64 velocity=0 time=14
110.07214343749999 note_off channel=0 note=55 velocity=0 time=1
110.07214343749999 note_on channel=3 note=71 velocity=95 time=0
110.07730871875 note_off channel=0 note=59 velocity=0 time=1
110.07730871875 note_on channel=0 note=55 velocity=55 time=0
110.082474 note_on channel=0 note=59 velocity=66 time=1
110.082474 note_on channel=1 note=28 velocity=108 time=0
110.082474 note_on channel=9 note=42 velocity=66 time=0
110.0928045625 note_on channel=0 note=64 velocity=55 time=2
110.1134656875 note_off channel=9 note=42 velocity=0 time=4
110.22193659375 note_off channel=3 note=71 velocity=0 time=21
110.27358940625 note_off channel=1 note=28 velocity=0 time=10
110.28908525 note_off channel=0 note=59 velocity=0 time=3
110.30458109375 note_off channel=0 note=64 velocity=0 time=3
110.309746375 note_off channel=0 note=47 velocity=0 time=1
110.31491165625 note_off channel=2 note=64 velocity=0 time=1
110.32007693749999 note_off channel=0 note=55 velocity=0 time=1
110.32007693749999 note_off channel=2 note=52 velocity=0 time=0
110.32007693749999 note_off channel=2 note=59 velocity=0 time=0
110.32007693749999 note_on channel=2 note=64 velocity=83 time=0
110.32524221875 note_on channel=0 note=64 velocity=76 time=1
110.32524221875 note_on channel=0 note=59 velocity=82 time=0
110.32524221875 note_off channel=2 note=55 velocity=0 time=0
110.32524221875 note_on channel=2 note=59 velocity=84 time=0
110.32524221875 note_on channel=3 note=71 velocity=103 time=0
110.3304075 note_on channel=2 note=55 velocity=69 time=1
110.3304075 note_on channel=9 note=42 velocity=58 time=0
110.33557278125 note_on channel=2 note=52 velocity=48 time=1
110.34073806250001 note_on channel=0 note=55 velocity=70 time=1
110.34590334375 note_on channel=0 note=47 velocity=71 time=1
110.3613991875 note_off channel=9 note=42 velocity=0 time=3
110.50086178125 note_off channel=3 note=71 velocity=0 time=27
110.5266881875 note_off channel=0 note=64 velocity=0 time=5
110.54218403125 note_off channel=2 note=52 velocity=0 time=3
110.55251459374999 note_off channel=2 note=55 velocity=0 time=2
110.56284515625 note_on channel=2 note=52 velocity=58 time=2
110.56801043749999 note_off channel=0 note=52 velocity=0 time=1
110.56801043749999 note_off channel=2 note=59 velocity=0 time=0
110.56801043749999 note_on channel=2 note=55 velocity=82 time=0
110.57317571875001 note_off channel=0 note=59 velocity=0 time=1
110.57317571875001 note_off channel=2 note=64 velocity=0 time=0
110.57317571875001 note_on channel=2 note=59 velocity=86 time=0
110.57317571875001 note_on channel=3 note=69 velocity=101 time=0
110.578341 note_on channel=0 note=52 velocity=59 time=1
110.578341 note_on channel=2 note=64 velocity=84 time=0
110.58350628125 note_on channel=9 note=42 velocity=65 time=1
110.58350628125 note_on channel=9 note=40 velocity=101 time=0
110.58867156250001 note_on channel=0 note=59 velocity=77 time=1
110.599002125 note_on channel=0 note=64 velocity=59 time=2
110.61449796875 note_off channel=9 note=40 velocity=0 time=3
110.61449796875 note_off channel=9 note=42 velocity=0 time=0
110.7746216875 note_off channel=2 note=59 velocity=0 time=31
110.7952828125 note_off channel=0 note=47 velocity=0 time=4
110.80044809374999 note_off channel=0 note=64 velocity=0 time=1
110.80044809374999 note_off channel=2 note=64 velocity=0 time=0
110.81077865625 note_off channel=2 note=55 velocity=0 time=2
110.8159439375 note_off channel=0 note=59 velocity=0 time=1
110.8159439375 note_on channel=2 note=64 velocity=71 time=0
110.8159439375 note_off channel=3 note=69 velocity=0 time=0
110.8159439375 note_on channel=3 note=71 velocity=103 time=0
110.82110921875001 note_on channel=0 note=64 velocity=68 time=1
110.82110921875001 note_on channel=2 note=59 velocity=74 time=0
110.8262745 note_on channel=0 note=59 velocity=74 time=1
110.83143978125 note_off channel=0 note=55 velocity=0 time=1
110.83143978125 note_on channel=2 note=55 velocity=56 time=0
110.83143978125 note_on channel=9 note=42 velocity=70 time=0
110.8366050625 note_on channel=0 note=55 velocity=60 time=1
110.846935625 note_on channel=0 note=47 velocity=52 time=2
110.86243146874999 note_off channel=9 note=42 velocity=0 time=3
110.92441484375 note_off channel=0 note=52 velocity=0 time=12
110.92441484375 note_off channel=5 note=79 velocity=0 time=0
110.9605718125 note_off channel=5 note=76 velocity=0 time=7
110.97606765625001 note_off channel=3 note=71 velocity=0 time=3
111.00705934375 note_off channel=2 note=55 velocity=0 time=6
111.012224625 note_off channel=0 note=55 velocity=0 time=1
111.01738990625 note_off channel=0 note=47 velocity=0 time=1
111.0225551875 note_off channel=0 note=64 velocity=0 time=1
111.0225551875 note_off channel=0 note=59 velocity=0 time=0
111.0225551875 note_off channel=2 note=64 velocity=0 time=0
111.03288574999999 note_off channel=2 note=59 velocity=0 time=2
111.03805103125 note_off channel=2 note=52 velocity=0 time=1
111.04838159375 note_on channel=2 note=52 velocity=56 time=2
111.04838159375 note_on channel=5 note=81 velocity=58 time=0
111.05354687500001 note_on channel=0 note=45 velocity=54 time=1
111.05354687500001 note_on channel=5 note=76 velocity=55 time=0
111.05871215625 note_on channel=0 note=52 velocity=53 time=1
111.05871215625 note_on channel=2 note=57 velocity=79 time=0
111.0638774375 note_on channel=0 note=57 velocity=76 time=1
111.0638774375 note_on channel=2 note=60 velocity=84 time=0
111.0638774375 note_on channel=3 note=72 velocity=105 time=0
111.06904271875001 note_on channel=0 note=60 velocity=80 time=1
111.06904271875001 note_on channel=2 note=64 velocity=79 time=0
111.06904271875001 note_on channel=9 note=35 velocity=107 time=0
111.074208 note_on channel=1 note=33 velocity=107 time=1
111.074208 note_on channel=9 note=42 velocity=65 time=0
111.07937328125 note_on channel=0 note=64 velocity=72 time=1
111.10003440625 note_off channel=9 note=35 velocity=0 time=4
111.1051996875 note_off channel=9 note=42 velocity=0 time=1
111.260158125 note_off channel=2 note=57 velocity=0 time=30
111.29631509375 note_off channel=0 note=64 velocity=0 time=7
111.29631509375 note_off channel=0 note=45 velocity=0 time=0
111.29631509375 note_off channel=2 note=52 velocity=0 time=0
111.30148037500001 note_off channel=2 note=64 velocity=0 time=1
111.30664565625 note_off channel=0 note=60 velocity=0 time=1
111.30664565625 note_off channel=3 note=72 velocity=0 time=0
111.30664565625 note_on channel=3 note=74 velocity=100 time=0
111.3118109375 note_on channel=0 note=64 velocity=83 time=1
111.3118109375 note_off channel=2 note=60 velocity=0 time=0
111.3118109375 note_on channel=2 note=64 velocity=80 time=0
111.31697621875 note_on channel=0 note=60 velocity=82 time=1
111.31697621875 note_on channel=2 note=60 velocity=80 time=0
111.3221415 note_on channel=2 note=57 velocity=65 time=1
111.32730678125 note_on channel=2 note=52 velocity=36 time=1
111.3324720625 note_on channel=9 note=42 velocity=59 time=1
111.33763734375 note_on channel=0 note=45 velocity=62 time=1
111.34796790625 note_off channel=1 note=33 velocity=0 time=2
111.36346375000001 note_off channel=9 note=42 velocity=0 time=3
111.52875275 note_off channel=2 note=52 velocity=0 time=32
111.5390833125 note_off channel=2 note=57 velocity=0 time=2
111.549413875 note_on channel=2 note=52 velocity=43 time=2
111.549413875 note_off channel=3 note=74 velocity=0 time=0
111.549413875 note_on channel=3 note=72 velocity=97 time=0
111.55457915625 note_off channel=2 note=60 velocity=0 time=1
111.55457915625 note_off channel=2 note=64 velocity=0 time=0
111.5597444375 note_on channel=2 note=57 velocity=78 time=1
111.56490971875 note_on channel=2 note=60 velocity=83 time=1
111.570075 note_on channel=2 note=64 velocity=71 time=1
111.570075 note_on channel=9 note=40 velocity=99 time=0
111.58557084375 note_on channel=9 note=42 velocity=68 time=3
111.6010666875 note_off channel=9 note=40 velocity=0 time=3
111.61656253125 note_off channel=9 note=42 velocity=0 time=3
111.76119040625 note_off channel=0 note=64 velocity=0 time=28
111.76635568750001 note_off channel=2 note=60 velocity=0 time=1
111.797347375 note_off channel=3 note=72 velocity=0 time=6
111.797347375 note_on channel=3 note=71 velocity=103 time=0
111.80251265625 note_off channel=2 note=57 velocity=0 time=1
111.80251265625 note_on channel=9 note=35 velocity=93 time=0
111.80767793749999 note_off channel=0 note=60 velocity=0 time=1
111.80767793749999 note_on channel=0 note=64 velocity=84 time=0
111.80767793749999 note_on channel=1 note=33 velocity=104 time=0
111.80767793749999 note_off channel=2 note=64 velocity=0 time=0
111.81284321875 note_on channel=0 note=60 velocity=83 time=1
111.81284321875 note_on channel=2 note=64 velocity=90 time=0
111.8180085 note_off channel=0 note=57 velocity=0 time=1
111.8180085 note_on channel=2 note=60 velocity=84 time=0
111.82317378124999 note_on channel=0 note=57 velocity=75 time=1
111.82317378124999 note_on channel=2 note=57 velocity=66 time=0
111.8283390625 note_on channel=9 note=42 velocity=65 time=1
111.83350434375001 note_off channel=9 note=35 velocity=0 time=1
111.85933075000001 note_off channel=9 note=42 velocity=0 time=5
111.8903224375 note_off channel=5 note=81 velocity=0 time=6
111.90581828125 pitchwheel channel=5 pitch=-118 time=3
111.92131412500001 pitchwheel channel=5 pitch=-820 time=3
111.9316446875 pitchwheel channel=5 pitch=-1522 time=2
111.9523058125 pitchwheel channel=5 pitch=-2458 time=4
111.96780165625 note_off channel=1 note=33 velocity=0 time=3
111.96780165625 pitchwheel channel=5 pitch=-3277 time=0
111.9832975 pitchwheel channel=5 pitch=-3628 time=3
112.003958625 note_off channel=0 note=52 velocity=0 time=4
112.01428918750001 note_off channel=0 note=64 velocity=0 time=2
112.01428918750001 pitchwheel channel=5 pitch=-3277 time=0
112.01945446875 note_on channel=5 note=72 velocity=53 time=1
112.02978503125 pitchwheel channel=5 pitch=-2458 time=2
112.045280875 note_off channel=2 note=52 velocity=0 time=3
112.045280875 note_off channel=3 note=71 velocity=0 time=0
112.045280875 note_on channel=3 note=69 velocity=96 time=0
112.045280875 pitchwheel channel=5 pitch=-1054 time=0
112.05044615625 note_on channel=1 note=33 velocity=104 time=1
112.05561143749999 note_off channel=0 note=57 velocity=0 time=1
112.05561143749999 note_on channel=0 note=52 velocity=29 time=0
112.05561143749999 note_off channel=2 note=57 velocity=0 time=0
112.06077671875 note_on channel=0 note=57 velocity=56 time=1
112.06077671875 note_off channel=2 note=64 velocity=0 time=0
112.06077671875 note_on channel=2 note=52 velocity=45 time=0
112.06077671875 pitchwheel channel=5 pitch=0 time=0
112.065942 note_off channel=2 note=60 velocity=0 time=1
112.065942 note_on channel=2 note=57 velocity=56 time=0
112.07110728125 note_on channel=2 note=60 velocity=72 time=1
112.07110728125 note_on channel=9 note=42 velocity=70 time=0
112.07627256250001 note_on channel=0 note=64 velocity=38 time=1
112.07627256250001 note_on channel=2 note=64 velocity=34 time=0
112.10209896875 note_off channel=9 note=42 velocity=0 time=5
112.26738796875 note_off channel=0 note=57 velocity=0 time=32
112.26738796875 note_off channel=0 note=60 velocity=0 time=0
112.26738796875 note_off channel=2 note=57 velocity=0 time=0
112.27255325 note_off channel=2 note=60 velocity=0 time=1
112.27771853125 note_off channel=1 note=33 velocity=0 time=1
112.293214375 note_off channel=0 note=64 velocity=0 time=3
112.293214375 note_off channel=3 note=69 velocity=0 time=0
112.293214375 note_on channel=3 note=67 velocity=94 time=0
112.30354493749999 note_off channel=2 note=52 velocity=0 time=2
112.30871021875001 note_on channel=0 note=64 velocity=78 time=1
112.30871021875001 note_off channel=2 note=64 velocity=0 time=0
112.3138755 note_on channel=0 note=60 velocity=80 time=1
112.31904078125 note_on channel=2 note=64 velocity=90 time=1
112.31904078125 note_on channel=2 note=60 velocity=82 time=0
112.31904078125 note_on channel=9 note=42 velocity=66 time=0
112.32420606250001 note_on channel=0 note=57 velocity=63 time=1
112.32420606250001 note_on channel=2 note=57 velocity=75 time=0
112.32420606250001 note_on channel=2 note=52 velocity=45 time=0
112.35003246875 note_off channel=9 note=42 velocity=0 time=5
112.54631315625 note_off channel=0 note=57 velocity=0 time=38
112.5514784375 note_off channel=0 note=64 velocity=0 time=1
112.55664371875001 note_off channel=0 note=60 velocity=0 time=1
112.55664371875001 note_on channel=0 note=57 velocity=70 time=0
112.561809 note_on channel=0 note=60 velocity=75 time=1
112.561809 note_on channel=9 note=40 velocity=94 time=0
112.56697428125 note_on channel=9 note=42 velocity=72 time=1
112.5721395625 note_on channel=0 note=64 velocity=60 time=1
112.5928006875 note_off channel=9 note=40 velocity=0 time=4
112.59796596874999 note_off channel=9 note=42 velocity=0 time=1
112.623792375 note_off channel=3 note=67 velocity=0 time=5
112.77875081250001 note_off channel=2 note=64 velocity=0 time=30
112.78391609375 note_off channel=0 note=64 velocity=0 time=1
112.78391609375 note_off channel=2 note=60 velocity=0 time=0
112.78908137500001 note_off channel=2 note=57 velocity=0 time=1
112.79424665625 note_off channel=0 note=60 velocity=0 time=1
112.79424665625 note_off channel=2 note=52 velocity=0 time=0
112.79424665625 note_on channel=2 note=64 velocity=84 time=0
112.79424665625 note_on channel=3 note=69 velocity=100 time=0
112.7994119375 note_on channel=0 note=64 velocity=82 time=1
112.7994119375 note_on channel=2 note=60 velocity=84 time=0
112.80457721875001 note_off channel=0 note=57 velocity=0 time=1
112.80457721875001 note_on channel=0 note=60 velocity=79 time=0
112.80457721875001 note_on channel=2 note=57 velocity=67 time=0
112.80457721875001 note_on channel=9 note=42 velocity=64 time=0
112.8097425 note_off channel=0 note=52 velocity=0 time=1
112.8097425 note_on channel=0 note=57 velocity=62 time=0
112.8097425 note_on channel=2 note=52 velocity=49 time=0
112.81490778125 note_on channel=0 note=52 velocity=51 time=1
112.83556890625 note_off channel=9 note=42 velocity=0 time=4
112.86656059375001 note_off channel=5 note=76 velocity=0 time=6
112.88722171875 note_off channel=5 note=72 velocity=0 time=4
113.01635375 note_off channel=0 note=57 velocity=0 time=25
113.0266843125 note_off channel=0 note=45 velocity=0 time=2
113.0266843125 note_off channel=2 note=52 velocity=0 time=0
113.03701487500001 note_off channel=0 note=52 velocity=0 time=2
113.03701487500001 note_off channel=2 note=57 velocity=0 time=0
113.04218015625 note_off channel=0 note=64 velocity=0 time=1
113.04218015625 note_off channel=2 note=64 velocity=0 time=0
113.04218015625 note_on channel=2 note=52 velocity=67 time=0
113.0473454375 note_off channel=0 note=60 velocity=0 time=1
113.0473454375 note_on channel=0 note=45 velocity=55 time=0
113.05251071875 note_on channel=0 note=52 velocity=65 time=1
113.05251071875 note_on channel=0 note=57 velocity=77 time=0
113.05251071875 note_on channel=1 note=33 velocity=109 time=0
113.05251071875 note_off channel=2 note=60 velocity=0 time=0
113.05251071875 note_on channel=9 note=42 velocity=64 time=0
113.057676 note_on channel=2 note=57 velocity=74 time=1
113.057676 note_on channel=9 note=35 velocity=101 time=0
113.06284128125 note_on channel=0 note=60 velocity=80 time=1
113.06284128125 note_on channel=2 note=60 velocity=84 time=0
113.06284128125 note_on channel=2 note=64 velocity=79 time=0
113.0680065625 note_on channel=0 note=64 velocity=73 time=1
113.08350240625 note_off channel=9 note=42 velocity=0 time=3
113.0886676875 note_off channel=9 note=35 velocity=0 time=1
113.09899825000001 note_off channel=3 note=69 velocity=0 time=2
113.2746178125 note_on channel=4 note=72 velocity=48 time=34
113.27978309375 note_on channel=4 note=69 velocity=61 time=1
113.27978309375 note_on channel=4 note=74 velocity=55 time=0
113.284948375 note_off channel=0 note=64 velocity=0 time=1
113.29011365625 note_on channel=3 note=69 velocity=107 time=1
113.2952789375 note_off channel=0 note=60 velocity=0 time=1
113.2952789375 note_off channel=2 note=64 velocity=0 time=0
113.30044421875 note_on channel=0 note=64 velocity=81 time=1
113.30044421875 note_on channel=0 note=60 velocity=83 time=0
113.30044421875 note_off channel=2 note=57 velocity=0 time=0
113.30044421875 note_on channel=9 note=42 velocity=61 time=0
113.3056095 note_off channel=0 note=57 velocity=0 time=1
113.3056095 note_off channel=2 note=60 velocity=0 time=0
113.3056095 note_on channel=2 note=64 velocity=81 time=0
113.31077478124999 note_on channel=0 note=57 velocity=75 time=1
113.31077478124999 note_on channel=2 note=60 velocity=82 time=0
113.3159400625 note_on channel=2 note=57 velocity=65 time=1
113.33143590625001 note_off channel=9 note=42 velocity=0 time=3
113.4708985 note_off channel=1 note=33 velocity=0 time=27
113.491559625 note_off channel=4 note=69 velocity=0 time=4
113.50705546875 note_off channel=4 note=72 velocity=0 time=3
113.50705546875 note_off channel=4 note=74 velocity=0 time=0
113.5225513125 note_on channel=4 note=74 velocity=52 time=3
113.5225513125 note_on channel=4 note=72 velocity=43 time=0
113.52771659375 note_off channel=3 note=69 velocity=0 time=1
113.53804715625 note_off channel=2 note=57 velocity=0 time=2
113.53804715625 note_on channel=3 note=71 velocity=101 time=0
113.53804715625 note_on channel=4 note=71 velocity=69 time=0
113.54321243749999 note_off channel=2 note=60 velocity=0 time=1
113.54837771875 note_on channel=2 note=57 velocity=71 time=1
113.54837771875 note_on channel=9 note=40 velocity=94 time=0
113.54837771875 note_on channel=9 note=42 velocity=68 time=0
113.553543 note_off channel=2 note=64 velocity=0 time=1
113.553543 note_on channel=2 note=60 velocity=84 time=0
113.55870828124999 note_on channel=2 note=64 velocity=84 time=1
113.57936940625001 note_off channel=9 note=42 velocity=0 time=4
113.57936940625001 note_off channel=9 note=40 velocity=0 time=0
113.58969996875 note_off channel=0 note=52 velocity=0 time=2
113.59486525000001 note_off channel=0 note=57 velocity=0 time=1
113.70333615625 note_off channel=2 note=57 velocity=0 time=21
113.70333615625 note_off channel=2 note=60 velocity=0 time=0
113.7085014375 note_off channel=2 note=52 velocity=0 time=1
113.718832 note_off channel=0 note=64 velocity=0 time=2
113.76531953125 note_off channel=2 note=64 velocity=0 time=9
113.7704848125 note_off channel=4 note=71 velocity=0 time=1
113.7704848125 note_off channel=4 note=72 velocity=0 time=0
113.7704848125 note_off channel=4 note=74 velocity=0 time=0
113.780815375 note_off channel=3 note=71 velocity=0 time=2
113.780815375 note_on channel=4 note=72 velocity=54 time=0
113.78598065625 note_on channel=4 note=74 velocity=58 time=1
113.79114593749999 note_off channel=0 note=45 velocity=0 time=1
113.79114593749999 note_off channel=0 note=60 velocity=0 time=0
113.79114593749999 note_on channel=0 note=66 velocity=83 time=0
113.79631121875 note_on channel=0 note=60 velocity=83 time=1
113.79631121875 note_on channel=9 note=42 velocity=62 time=0
113.8014765 note_on channel=2 note=66 velocity=87 time=1
113.80664178125 note_on channel=0 note=57 velocity=79 time=1
113.80664178125 note_on channel=1 note=38 velocity=112 time=0
113.80664178125 note_on channel=2 note=60 velocity=84 time=0
113.80664178125 note_on channel=3 note=72 velocity=101 time=0
113.80664178125 note_on channel=9 note=35 velocity=110 time=0
113.81180706250001 note_on channel=0 note=50 velocity=66 time=1
113.81180706250001 note_on channel=2 note=57 velocity=66 time=0
113.81697234375 note_on channel=2 note=50 velocity=44 time=1
113.822137625 note_on channel=0 note=45 velocity=60 time=1
113.82730290625001 note_off channel=9 note=42 velocity=0 time=1
113.83763346875 note_off channel=9 note=35 velocity=0 time=2
114.00292246875 note_off channel=1 note=38 velocity=0 time=32
114.0184183125 note_off channel=4 note=74 velocity=0 time=3
114.0184183125 note_off channel=4 note=72 velocity=0 time=0
114.02358359374999 note_on channel=4 note=76 velocity=51 time=1
114.02358359374999 note_on channel=4 note=72 velocity=50 time=0
114.028748875 note_on channel=3 note=74 velocity=99 time=1
114.03391415625 note_on channel=4 note=74 velocity=45 time=1
114.03907943749999 note_off channel=3 note=72 velocity=0 time=1
114.04424471875001 note_on channel=9 note=42 velocity=63 time=1
114.07523640625 note_off channel=9 note=42 velocity=0 time=6
114.24052540625 note_off channel=0 note=66 velocity=0 time=32
114.25602124999999 note_off channel=0 note=57 velocity=0 time=3
114.25602124999999 note_off channel=4 note=76 velocity=0 time=0
114.26118653125 note_off channel=4 note=72 velocity=0 time=1
114.2663518125 note_off channel=4 note=74 velocity=0 time=1
114.27151709374999 note_on channel=4 note=72 velocity=55 time=1
114.27668237500001 note_off channel=2 note=66 velocity=0 time=1
114.27668237500001 note_on channel=4 note=78 velocity=52 time=0
114.27668237500001 note_on channel=4 note=74 velocity=61 time=0
114.28184765625 note_off channel=3 note=74 velocity=0 time=1
114.28184765625 note_on channel=3 note=69 velocity=99 time=0
114.2870129375 note_on channel=1 note=40 velocity=105 time=1
114.2870129375 note_off channel=2 note=60 velocity=0 time=0
114.2870129375 note_off channel=2 note=57 velocity=0 time=0
114.29217821875001 note_on channel=9 note=42 velocity=61 time=1
114.2973435 note_off channel=0 note=60 velocity=0 time=1
114.2973435 note_on channel=0 note=66 velocity=82 time=0
114.2973435 note_off channel=2 note=50 velocity=0 time=0
114.2973435 note_on channel=2 note=66 velocity=86 time=0
114.2973435 note_on channel=2 note=60 velocity=83 time=0
114.30250878125 note_on channel=0 note=60 velocity=81 time=1
114.3076740625 note_on channel=0 note=57 velocity=69 time=1
114.3076740625 note_on channel=2 note=50 velocity=46 time=0
114.3076740625 note_on channel=2 note=57 velocity=64 time=0
114.31283934375 note_off channel=0 note=50 velocity=0 time=1
114.318004625 note_on channel=0 note=50 velocity=51 time=1
114.32316990625 note_off channel=9 note=42 velocity=0 time=1
114.49878946875 note_off channel=0 note=66 velocity=0 time=34
114.50912003125 note_off channel=0 note=60 velocity=0 time=2
114.50912003125 note_off channel=2 note=50 velocity=0 time=0
114.51428531250001 note_off channel=2 note=57 velocity=0 time=1
114.52978115625 note_off channel=0 note=57 velocity=0 time=3
114.52978115625 note_on channel=2 note=50 velocity=34 time=0
114.5349464375 note_off channel=1 note=40 velocity=0 time=1
114.5349464375 note_on channel=1 note=42 velocity=106 time=0
114.5349464375 note_off channel=2 note=60 velocity=0 time=0
114.54011171875001 note_on channel=2 note=60 velocity=84 time=1
114.54011171875001 note_on channel=9 note=42 velocity=64 time=0
114.545277 note_on channel=0 note=57 velocity=74 time=1
114.545277 note_off channel=2 note=66 velocity=0 time=0
114.545277 note_on channel=2 note=57 velocity=65 time=0
114.55044228125 note_on channel=0 note=60 velocity=78 time=1
114.55044228125 note_on channel=2 note=66 velocity=87 time=0
114.55044228125 note_on channel=9 note=40 velocity=97 time=0
114.5556075625 note_on channel=0 note=66 velocity=72 time=1
114.57110340625 note_off channel=9 note=42 velocity=0 time=3
114.58143396874999 note_off channel=9 note=40 velocity=0 time=2
114.61242565625 note_off channel=3 note=69 velocity=0 time=6
114.75188825 note_off channel=0 note=60 velocity=0 time=27
114.75188825 note_off channel=1 note=42 velocity=0 time=0
114.75188825 note_off channel=4 note=74 velocity=0 time=0
114.75188825 note_off channel=4 note=78 velocity=0 time=0
114.75188825 note_off channel=4 note=72 velocity=0 time=0
114.77771465625 note_off channel=0 note=66 velocity=0 time=5
114.7828799375 note_on channel=4 note=74 velocity=59 time=1
114.7828799375 note_on channel=4 note=79 velocity=63 time=0
114.7828799375 note_on channel=4 note=71 velocity=47 time=0
114.7828799375 note_on channel=9 note=42 velocity=59 time=0
114.78804521875 note_on channel=0 note=66 velocity=69 time=1
114.78804521875 note_off channel=2 note=60 velocity=0 time=0
114.78804521875 note_off channel=2 note=57 velocity=0 time=0
114.78804521875 note_on channel=3 note=71 velocity=99 time=0
114.7932105 note_off channel=2 note=66 velocity=0 time=1
114.79837578125 note_on channel=2 note=66 velocity=81 time=1
114.8035410625 note_on channel=0 note=60 velocity=69 time=1
114.8035410625 note_on channel=2 note=60 velocity=78 time=0
114.8035410625 note_on channel=2 note=57 velocity=58 time=0
114.81387162499999 note_off channel=9 note=42 velocity=0 time=2
114.87068971875 note_off channel=0 note=66 velocity=0 time=11
114.875855 note_off channel=0 note=57 velocity=0 time=1
114.8861855625 note_off channel=0 note=60 velocity=0 time=2
114.92750781250001 note_off channel=2 note=57 velocity=0 time=8
114.93267309375 note_off channel=2 note=60 velocity=0 time=1
114.937838375 note_off channel=2 note=66 velocity=0 time=1
114.98432590624999 note_off channel=2 note=50 velocity=0 time=9
115.0101523125 note_off channel=0 note=45 velocity=0 time=5
115.0101523125 note_off channel=0 note=50 velocity=0 time=0
115.0308134375 note_on channel=0 note=43 velocity=35 time=4
115.0308134375 note_on channel=9 note=35 velocity=103 time=0
115.0308134375 note_on channel=9 note=42 velocity=70 time=0
115.03597871875 note_on channel=0 note=47 velocity=62 time=1
115.041144 note_on channel=1 note=43 velocity=113 time=1
115.041144 note_on channel=2 note=50 velocity=74 time=0
115.0514745625 note_on channel=0 note=55 velocity=65 time=2
115.0514745625 note_on channel=0 note=50 velocity=37 time=0
115.0514745625 note_on channel=2 note=55 velocity=83 time=0
115.05663984375 note_on channel=0 note=59 velocity=69 time=1
115.05663984375 note_on channel=0 note=67 velocity=44 time=0
115.05663984375 note_on channel=2 note=59 velocity=88 time=0
115.06180512499999 note_on channel=2 note=67 velocity=80 time=1
115.06180512499999 note_off channel=9 note=42 velocity=0 time=0
115.06180512499999 note_off channel=9 note=35 velocity=0 time=0
115.25292053125 note_off channel=0 note=55 velocity=0 time=37
115.268416375 note_off channel=0 note=67 velocity=0 time=3
115.2787469375 note_off channel=0 note=43 velocity=0 time=2
115.28391221875 note_off channel=0 note=47 velocity=0 time=1
115.28391221875 note_on channel=0 note=67 velocity=82 time=0
115.28391221875 note_off channel=2 note=67 velocity=0 time=0
115.28391221875 note_on channel=9 note=42 velocity=58 time=0
115.2890775 note_off channel=0 note=59 velocity=0 time=1
115.29424278124999 note_on channel=0 note=59 velocity=84 time=1
115.2994080625 note_on channel=0 note=55 velocity=74 time=1
115.2994080625 note_off channel=2 note=59 velocity=0 time=0
115.2994080625 note_on channel=2 note=67 velocity=82 time=0
115.30457334375001 note_on channel=2 note=59 velocity=80 time=1
115.309738625 note_off channel=0 note=50 velocity=0 time=1
115.31490390625001 note_on channel=0 note=50 velocity=57 time=1
115.31490390625001 note_on channel=0 note=47 velocity=72 time=0
115.31490390625001 note_off channel=9 note=42 velocity=0 time=0
115.3200691875 note_on channel=0 note=43 velocity=51 time=1
115.40787896875001 note_off channel=3 note=71 velocity=0 time=17
115.49568875 note_off channel=2 note=50 velocity=0 time=17
115.50085403125 note_off channel=2 note=67 velocity=0 time=1
115.516349875 note_off channel=0 note=43 velocity=0 time=3
115.52668043749999 note_off channel=2 note=55 velocity=0 time=2
115.53184571875 note_on channel=9 note=42 velocity=68 time=1
115.537011 note_off channel=2 note=59 velocity=0 time=1
115.537011 note_on channel=2 note=50 velocity=38 time=0
115.537011 note_off channel=4 note=71 velocity=0 time=0
115.537011 note_on channel=9 note=40 velocity=96 time=0
115.54217628125 note_on channel=0 note=43 velocity=44 time=1
115.54217628125 note_on channel=2 note=55 velocity=59 time=0
115.54734156250001 note_on channel=2 note=59 velocity=78 time=1
115.54734156250001 note_on channel=2 note=67 velocity=76 time=0
115.54734156250001 note_off channel=4 note=79 velocity=0 time=0
115.54734156250001 note_off channel=4 note=74 velocity=0 time=0
115.56283740625001 note_off channel=9 note=42 velocity=0 time=3
115.5680026875 note_off channel=9 note=40 velocity=0 time=1
115.60415965624999 note_off channel=1 note=43 velocity=0 time=7
115.74878753125 note_off channel=0 note=59 velocity=0 time=28
115.77461393749999 note_on channel=1 note=31 velocity=100 time=5
115.77461393749999 note_on channel=9 note=35 velocity=105 time=0
115.77461393749999 note_on channel=9 note=42 velocity=63 time=0
115.7849445 note_off channel=0 note=67 velocity=0 time=2
115.7849445 note_off channel=2 note=67 velocity=0 time=0
115.79010978125 note_off channel=0 note=43 velocity=0 time=1
115.79010978125 note_on channel=0 note=67 velocity=82 time=0
115.79010978125 note_off channel=2 note=59 velocity=0 time=0
115.79010978125 note_off channel=2 note=55 velocity=0 time=0
115.79527506250001 note_off channel=0 note=55 velocity=0 time=1
115.79527506250001 note_on channel=0 note=59 velocity=82 time=0
115.79527506250001 note_on channel=2 note=67 velocity=87 time=0
115.79527506250001 note_on channel=2 note=59 velocity=86 time=0
115.80044034375 note_off channel=0 note=50 velocity=0 time=1
115.80044034375 note_on channel=0 note=55 velocity=78 time=0
115.80044034375 note_on channel=2 note=55 velocity=62 time=0
115.805605625 note_off channel=0 note=47 velocity=0 time=1
115.805605625 note_off channel=9 note=42 velocity=0 time=0
115.805605625 note_off channel=9 note=35 velocity=0 time=0
115.81077090625 note_on channel=0 note=50 velocity=62 time=1
115.81077090625 note_on channel=0 note=47 velocity=74 time=0
115.82110146875 note_on channel=0 note=43 velocity=31 time=2
116.02771271875001 note_on channel=9 note=42 velocity=63 time=40
116.05870440625 note_off channel=9 note=42 velocity=0 time=6
116.2084975625 note_off channel=1 note=31 velocity=0 time=29
116.24981981250001 note_off channel=2 note=67 velocity=0 time=8
116.25498509375 note_off channel=2 note=59 velocity=0 time=1
116.26015037500001 note_off channel=2 note=55 velocity=0 time=1
116.26531565625 note_off channel=0 note=67 velocity=0 time=1
116.2704809375 note_on channel=2 note=67 velocity=88 time=1
116.27564621875001 note_on channel=0 note=67 velocity=82 time=1
116.27564621875001 note_on channel=1 note=33 velocity=108 time=0
116.27564621875001 note_on channel=2 note=59 velocity=88 time=0
116.27564621875001 note_on channel=9 note=42 velocity=61 time=0
116.2808115 note_off channel=0 note=59 velocity=0 time=1
116.2808115 note_off channel=2 note=50 velocity=0 time=0
116.2808115 note_on channel=2 note=55 velocity=65 time=0
116.28597678125 note_off channel=0 note=55 velocity=0 time=1
116.28597678125 note_on channel=0 note=59 velocity=84 time=0
116.28597678125 note_on channel=2 note=50 velocity=41 time=0
116.29630734375 note_on channel=0 note=55 velocity=72 time=2
116.301472625 note_off channel=0 note=50 velocity=0 time=1
116.30663790625 note_on channel=0 note=50 velocity=42 time=1
116.30663790625 note_off channel=9 note=42 velocity=0 time=0
116.49258803125001 note_off channel=0 note=59 velocity=0 time=36
116.4977533125 note_off channel=0 note=47 velocity=0 time=1
116.4977533125 note_off channel=2 note=55 velocity=0 time=0
116.51324915625 note_off channel=0 note=50 velocity=0 time=3
116.5184144375 note_off channel=1 note=33 velocity=0 time=1
116.5184144375 note_on channel=1 note=35 velocity=113 time=0
116.5184144375 note_off channel=2 note=59 velocity=0 time=0
116.5184144375 note_on channel=2 note=55 velocity=76 time=0
116.52357971875 note_off channel=0 note=67 velocity=0 time=1
116.52357971875 note_on channel=2 note=59 velocity=86 time=0
116.52357971875 note_on channel=9 note=40 velocity=96 time=0
116.52357971875 note_on channel=9 note=42 velocity=59 time=0
116.528745 note_on channel=0 note=50 velocity=43 time=1
116.528745 note_off channel=2 note=67 velocity=0 time=0
116.53391028125 note_on channel=2 note=67 velocity=87 time=1
116.54424084375 note_on channel=0 note=59 velocity=65 time=2
116.54940612499999 note_on channel=0 note=67 velocity=53 time=1
116.55457140625 note_off channel=9 note=42 velocity=0 time=1
116.55457140625 note_off channel=9 note=40 velocity=0 time=0
116.67853815625 note_off channel=1 note=35 velocity=0 time=24
116.69919928125 note_off channel=0 note=43 velocity=0 time=4
116.756017375 note_off channel=0 note=67 velocity=0 time=11
116.7766785 note_off channel=0 note=59 velocity=0 time=4
116.7766785 note_on channel=0 note=67 velocity=56 time=0
116.7766785 note_on channel=9 note=42 velocity=58 time=0
116.7870090625 note_on channel=0 note=59 velocity=58 time=2
116.79217434375 note_off channel=0 note=55 velocity=0 time=1
116.79733962499999 note_on channel=0 note=55 velocity=38 time=1
116.8076701875 note_off channel=9 note=42 velocity=0 time=2
116.921306375 note_off channel=0 note=67 velocity=0 time=22
116.9419675 note_off channel=0 note=59 velocity=0 time=4
116.94713278125 note_off channel=0 note=50 velocity=0 time=1
116.94713278125 note_off channel=2 note=67 velocity=0 time=0
116.96779390625 note_off channel=2 note=50 velocity=0 time=4
116.97812446875 note_off channel=2 note=59 velocity=0 time=2
117.00911615625 note_off channel=0 note=55 velocity=0 time=6
117.0142814375 note_on channel=0 note=48 velocity=62 time=1
117.01944671875 note_on channel=2 note=48 velocity=76 time=1
117.01944671875 note_on channel=9 note=35 velocity=104 time=0
117.01944671875 note_on channel=9 note=42 velocity=69 time=0
117.024612 note_on channel=0 note=52 velocity=54 time=1
117.024612 note_on channel=0 note=55 velocity=63 time=0
117.024612 note_on channel=1 note=36 velocity=106 time=0
117.024612 note_on channel=2 note=60 velocity=84 time=0
117.02977728124999 note_on channel=2 note=52 velocity=59 time=1
117.02977728124999 note_on channel=2 note=64 velocity=79 time=0
117.0349425625 note_on channel=0 note=60 velocity=65 time=1
117.04010784375001 note_on channel=0 note=64 velocity=43 time=1
117.05043840625001 note_off channel=9 note=42 velocity=0 time=2
117.05043840625001 note_off channel=9 note=35 velocity=0 time=0
117.2415538125 note_off channel=0 note=64 velocity=0 time=37
117.26221493749999 note_off channel=2 note=64 velocity=0 time=4
117.26221493749999 note_on channel=4 note=67 velocity=66 time=0
117.26738021875 note_off channel=0 note=60 velocity=0 time=1
117.26738021875 note_on channel=0 note=64 velocity=83 time=0
117.26738021875 note_off channel=2 note=55 velocity=0 time=0
117.26738021875 note_on channel=3 note=67 velocity=95 time=0
117.26738021875 note_on channel=9 note=62 velocity=60 time=0
117.2725455 note_on channel=0 note=60 velocity=82 time=1
117.2725455 note_off channel=1 note=36 velocity=0 time=0
117.2725455 note_on channel=1 note=38 velocity=108 time=0
117.2725455 note_off channel=2 note=60 velocity=0 time=0
117.2725455 note_on channel=2 note=64 velocity=80 time=0
117.2725455 note_on channel=9 note=42 velocity=61 time=0
117.27771078125 note_off channel=0 note=55 velocity=0 time=1
117.27771078125 note_on channel=2 note=60 velocity=80 time=0
117.28287606250001 note_on channel=0 note=55 velocity=67 time=1
117.28287606250001 note_on channel=2 note=55 velocity=62 time=0
117.29837190625001 note_off channel=9 note=62 velocity=0 time=3
117.3035371875 note_off channel=9 note=42 velocity=0 time=1
117.31386775 note_off channel=2 note=48 velocity=0 time=2
117.36035528125001 note_off channel=3 note=67 velocity=0 time=9
117.40167753125 note_on channel=9 note=62 velocity=57 time=8
117.43266921875 note_off channel=9 note=62 velocity=0 time=6
117.4894873125 note_off channel=2 note=52 velocity=0 time=11
117.4894873125 note_off channel=2 note=55 velocity=0 time=0
117.499817875 note_off channel=4 note=67 velocity=0 time=2
117.499817875 note_on channel=4 note=69 velocity=65 time=0
117.50498315625 note_off channel=2 note=60 velocity=0 time=1
117.50498315625 note_on channel=2 note=52 velocity=47 time=0
117.50498315625 note_on channel=3 note=69 velocity=96 time=0
117.51014843749999 note_off channel=1 note=38 velocity=0 time=1
117.51014843749999 note_on channel=1 note=40 velocity=104 time=0
117.51014843749999 note_on channel=2 note=55 velocity=61 time=0
117.51014843749999 note_on channel=9 note=40 velocity=104 time=0
117.51014843749999 note_on channel=9 note=62 velocity=71 time=0
117.51531371875001 note_off channel=2 note=64 velocity=0 time=1
117.51531371875001 note_on channel=2 note=60 velocity=76 time=0
117.51531371875001 note_on channel=9 note=42 velocity=69 time=0
117.520479 note_on channel=2 note=64 velocity=63 time=1
117.541140125 note_off channel=9 note=62 velocity=0 time=4
117.541140125 note_off channel=9 note=40 velocity=0 time=0
117.54630540625 note_off channel=9 note=42 velocity=0 time=1
117.6341151875 note_off channel=3 note=69 velocity=0 time=17
117.7167596875 note_off channel=2 note=60 velocity=0 time=16
117.72192496875 note_off channel=0 note=52 velocity=0 time=1
117.72192496875 note_off channel=4 note=69 velocity=0 time=0
117.72192496875 note_on channel=4 note=71 velocity=77 time=0
117.747751375 note_off channel=0 note=64 velocity=0 time=5
117.747751375 note_on channel=3 note=71 velocity=101 time=0
117.75291665625 note_off channel=0 note=48 velocity=0 time=1
117.75291665625 note_off channel=2 note=52 velocity=0 time=0
117.75291665625 note_off channel=2 note=64 velocity=0 time=0
117.7580819375 note_off channel=0 note=60 velocity=0 time=1
117.7580819375 note_on channel=0 note=64 velocity=80 time=0
117.7580819375 note_on channel=9 note=62 velocity=70 time=0
117.76324721875001 note_off channel=0 note=55 velocity=0 time=1
117.76324721875001 note_on channel=0 note=60 velocity=83 time=0
117.76324721875001 note_off channel=1 note=40 velocity=0 time=0
117.76324721875001 note_on channel=1 note=43 velocity=108 time=0
117.76324721875001 note_on channel=2 note=64 velocity=86 time=0
117.76324721875001 note_on channel=9 note=35 velocity=110 time=0
117.76324721875001 note_on channel=9 note=42 velocity=62 time=0
117.7684125 note_on channel=2 note=60 velocity=84 time=1
117.77357778125 note_on channel=0 note=55 velocity=71 time=1
117.77357778125 note_on channel=2 note=52 velocity=40 time=0
117.7787430625 note_on channel=0 note=52 velocity=49 time=1
117.78390834375 note_on channel=0 note=48 velocity=51 time=1
117.789073625 note_off channel=9 note=62 velocity=0 time=1
117.79423890625 note_off channel=9 note=35 velocity=0 time=1
117.79423890625 note_off channel=9 note=42 velocity=0 time=0
117.871718125 note_off channel=1 note=43 velocity=0 time=15
117.8820486875 note_on channel=9 note=62 velocity=58 time=2
117.88721396875 note_off channel=3 note=71 velocity=0 time=1
117.913040375 note_off channel=9 note=62 velocity=0 time=5
117.98018903125 note_off channel=4 note=71 velocity=0 time=13
117.98018903125 note_on channel=4 note=72 velocity=87 time=0
118.00085015625 note_off channel=2 note=55 velocity=0 time=4
118.00085015625 note_on channel=3 note=72 velocity=100 time=0
118.00085015625 note_on channel=9 note=62 velocity=75 time=0
118.01118071875001 note_on channel=2 note=55 velocity=41 time=2
118.01118071875001 note_on channel=9 note=42 velocity=58 time=0
118.016346 note_on channel=1 note=36 velocity=108 time=1
118.016346 note_off channel=2 note=60 velocity=0 time=0
118.03184184375 note_off channel=9 note=62 velocity=0 time=3
118.04217240625 note_off channel=9 note=42 velocity=0 time=2
118.13514746875 note_off channel=3 note=72 velocity=0 time=18
118.2126266875 note_off channel=0 note=64 velocity=0 time=15
118.2126266875 note_off channel=2 note=64 velocity=0 time=0
118.2126266875 note_off channel=4 note=72 velocity=0 time=0
118.2126266875 note_on channel=4 note=71 velocity=97 time=0
118.24878365625 note_on channel=3 note=71 velocity=106 time=7
118.2539489375 note_off channel=0 note=60 velocity=0 time=1
118.2539489375 note_on channel=0 note=64 velocity=84 time=0
118.2539489375 note_off channel=1 note=36 velocity=0 time=0
118.2539489375 note_on channel=1 note=38 velocity=102 time=0
118.2539489375 note_on channel=9 note=62 velocity=76 time=0
118.25911421875 note_on channel=0 note=60 velocity=80 time=1
118.25911421875 note_on channel=2 note=64 velocity=90 time=0
118.25911421875 note_on channel=9 note=42 velocity=58 time=0
118.2642795 note_off channel=2 note=52 velocity=0 time=1
118.2642795 note_on channel=2 note=60 velocity=86 time=0
118.26944478125 note_off channel=0 note=55 velocity=0 time=1
118.26944478125 note_on channel=2 note=52 velocity=57 time=0
118.2746100625 note_off channel=0 note=52 velocity=0 time=1
118.2746100625 note_on channel=0 note=55 velocity=74 time=0
118.27977534375 note_on channel=0 note=52 velocity=51 time=1
118.27977534375 note_on channel=2 note=48 velocity=43 time=0
118.28494062499999 note_off channel=9 note=62 velocity=0 time=1
118.29010590625 note_off channel=9 note=42 velocity=0 time=1
118.37791568749999 note_on channel=9 note=62 velocity=65 time=17
118.408907375 note_off channel=9 note=62 velocity=0 time=6
118.4812213125 note_off channel=0 note=48 velocity=0 time=14
118.48638659375 note_off channel=0 note=52 velocity=0 time=1
118.491551875 note_off channel=2 note=55 velocity=0 time=1
118.49671715625 note_off channel=1 note=38 velocity=0 time=1
118.49671715625 note_on channel=1 note=36 velocity=107 time=0
118.49671715625 note_off channel=2 note=60 velocity=0 time=0
118.49671715625 note_on channel=9 note=62 velocity=78 time=0
118.5018824375 note_on channel=0 note=48 velocity=62 time=1
118.5018824375 note_off channel=2 note=64 velocity=0 time=0
118.5018824375 note_on channel=2 note=55 velocity=74 time=0
118.50704771875 note_off channel=0 note=55 velocity=0 time=1
118.50704771875 note_on channel=0 note=52 velocity=62 time=0
118.50704771875 note_on channel=2 note=60 velocity=84 time=0
118.50704771875 note_on channel=9 note=42 velocity=64 time=0
118.512213 note_off channel=0 note=60 velocity=0 time=1
118.512213 note_on channel=0 note=55 velocity=78 time=0
118.512213 note_on channel=2 note=64 velocity=90 time=0
118.51737828124999 note_on channel=0 note=60 velocity=81 time=1
118.51737828124999 note_on channel=9 note=40 velocity=95 time=0
118.52770884375 note_off channel=9 note=62 velocity=0 time=2
118.53803940625001 note_off channel=9 note=42 velocity=0 time=2
118.54836996875 note_off channel=9 note=40 velocity=0 time=2
118.58969221875 note_off channel=3 note=71 velocity=0 time=8
118.69299784375 note_off channel=1 note=36 velocity=0 time=20
118.698163125 note_off channel=0 note=48 velocity=0 time=1
118.73432009375 note_off channel=2 note=64 velocity=0 time=7
118.739485375 note_off channel=0 note=64 velocity=0 time=1
118.739485375 note_off channel=4 note=71 velocity=0 time=0
118.739485375 note_on channel=4 note=69 velocity=77 time=0
118.7498159375 note_on channel=1 note=33 velocity=106 time=2
118.7498159375 note_off channel=2 note=60 velocity=0 time=0
118.7498159375 note_on channel=2 note=64 velocity=76 time=0
118.7498159375 note_on channel=3 note=69 velocity=101 time=0
118.75498121875 note_on channel=0 note=64 velocity=80 time=1
118.75498121875 note_off channel=2 note=52 velocity=0 time=0
118.75498121875 note_off channel=2 note=55 velocity=0 time=0
118.75498121875 note_on channel=2 note=60 velocity=78 time=0
118.75498121875 note_on channel=9 note=42 velocity=58 time=0
118.75498121875 note_on channel=9 note=62 velocity=73 time=0
118.7601465 note_off channel=0 note=55 velocity=0 time=1
118.7601465 note_off channel=0 note=60 velocity=0 time=0
118.7601465 note_on channel=2 note=55 velocity=60 time=0
118.7601465 note_on channel=2 note=52 velocity=38 time=0
118.7601465 note_on channel=9 note=35 velocity=105 time=0
118.76531178124999 note_on channel=0 note=60 velocity=82 time=1
118.7704770625 note_on channel=0 note=55 velocity=60 time=1
118.78597290625001 note_off channel=9 note=62 velocity=0 time=3
118.78597290625001 note_off channel=9 note=42 velocity=0 time=0
118.7911381875 note_off channel=9 note=35 velocity=0 time=1
118.85828684375 note_off channel=2 note=48 velocity=0 time=13
118.86345212500001 note_off channel=1 note=33 velocity=0 time=1
118.87894796875001 note_off channel=0 note=52 velocity=0 time=3
118.87894796875001 note_on channel=9 note=62 velocity=61 time=0
118.90993965625 note_off channel=9 note=62 velocity=0 time=6
118.94093134375001 note_off channel=0 note=55 velocity=0 time=6
118.95126190625 note_off channel=2 note=60 velocity=0 time=2
118.95126190625 note_off channel=2 note=55 velocity=0 time=0
118.95642718750001 note_off channel=0 note=64 velocity=0 time=1
118.96159246875 note_off channel=2 note=52 velocity=0 time=1
118.98225359375 note_off channel=3 note=69 velocity=0 time=4
118.99258415625 note_on channel=0 note=45 velocity=60 time=2
118.99258415625 note_on channel=2 note=45 velocity=62 time=0
118.99774943749999 note_off channel=0 note=60 velocity=0 time=1
118.99774943749999 note_on channel=9 note=62 velocity=81 time=0
119.00291471875 note_on channel=0 note=60 velocity=78 time=1
119.00291471875 note_on channel=2 note=52 velocity=76 time=0
119.00291471875 note_off channel=4 note=69 velocity=0 time=0
119.00291471875 note_on channel=9 note=42 velocity=59 time=0
119.00808 note_on channel=0 note=64 velocity=72 time=1
119.00808 note_on channel=1 note=33 velocity=109 time=0
119.00808 note_on channel=2 note=57 velocity=78 time=0
119.01324528125 note_on channel=0 note=52 velocity=61 time=1
119.01324528125 note_on channel=2 note=60 velocity=82 time=0
119.01324528125 note_on channel=9 note=35 velocity=104 time=0
119.01841056250001 note_on channel=0 note=57 velocity=76 time=1
119.028741125 note_off channel=9 note=62 velocity=0 time=2
119.03390640625001 note_off channel=9 note=42 velocity=0 time=1
119.04423696875 note_off channel=9 note=35 velocity=0 time=2
119.20952596875 note_off channel=0 note=60 velocity=0 time=32
119.2250218125 note_off channel=1 note=33 velocity=0 time=3
119.235352375 note_off channel=2 note=64 velocity=0 time=2
119.24051765625 note_off channel=0 note=64 velocity=0 time=1
119.24051765625 note_on channel=1 note=35 velocity=103 time=0
119.24051765625 note_on channel=3 note=69 velocity=107 time=0
119.24568293749999 note_off channel=2 note=60 velocity=0 time=1
119.24568293749999 note_on channel=2 note=64 velocity=86 time=0
119.25084821875001 note_on channel=2 note=60 velocity=84 time=1
119.25084821875001 note_on channel=9 note=42 velocity=58 time=0
119.25084821875001 note_on channel=9 note=62 velocity=81 time=0
119.2560135 note_on channel=0 note=64 velocity=84 time=1
119.2560135 note_off channel=2 note=57 velocity=0 time=0
119.26117878125 note_on channel=2 note=57 velocity=67 time=1
119.26634406250001 note_on channel=0 note=60 velocity=82 time=1
119.28183990625 note_off channel=9 note=62 velocity=0 time=3
119.28183990625 note_off channel=9 note=42 velocity=0 time=0
119.37481496875 note_on channel=9 note=62 velocity=68 time=18
119.40580665625001 note_off channel=9 note=62 velocity=0 time=6
119.46779003125 note_off channel=3 note=69 velocity=0 time=12
119.483285875 note_on channel=3 note=71 velocity=104 time=3
119.48845115625 note_off channel=2 note=52 velocity=0 time=1
119.48845115625 note_off channel=2 note=57 velocity=0 time=0
119.4936164375 note_off channel=1 note=35 velocity=0 time=1
119.4936164375 note_on channel=1 note=36 velocity=104 time=0
119.4936164375 note_off channel=2 note=60 velocity=0 time=0
119.4936164375 note_on channel=2 note=52 velocity=41 time=0
119.49878171875001 note_on channel=2 note=57 velocity=68 time=1
119.49878171875001 note_on channel=2 note=60 velocity=83 time=0
119.49878171875001 note_on channel=9 note=42 velocity=65 time=0
119.49878171875001 note_on channel=9 note=62 velocity=78 time=0
119.5142775625 note_on channel=9 note=40 velocity=96 time=3
119.52977340625 note_off channel=9 note=62 velocity=0 time=3
119.52977340625 note_off channel=9 note=42 velocity=0 time=0
119.54526925 note_off channel=0 note=57 velocity=0 time=3
119.54526925 note_off channel=9 note=40 velocity=0 time=0
119.57626093750001 note_off channel=0 note=52 velocity=0 time=6
119.67440128125 note_off channel=2 note=57 velocity=0 time=19
119.68473184375 note_off channel=2 note=52 velocity=0 time=2
119.689897125 note_off channel=0 note=64 velocity=0 time=1
119.69506240625 note_off channel=2 note=64 velocity=0 time=1
119.72605409375 note_off channel=3 note=71 velocity=0 time=6
119.72605409375 note_on channel=3 note=72 velocity=104 time=0
119.73121937500001 note_off channel=1 note=36 velocity=0 time=1
119.73121937500001 note_on channel=1 note=37 velocity=99 time=0
119.7415499375 note_off channel=0 note=60 velocity=0 time=2
119.74671521875001 note_on channel=2 note=50 velocity=62 time=1
119.74671521875001 note_on channel=9 note=42 velocity=59 time=0
119.74671521875001 note_on channel=9 note=62 velocity=76 time=0
119.7518805 note_on channel=0 note=66 velocity=84 time=1
119.7518805 note_on channel=9 note=35 velocity=110 time=0
119.75704578125 note_on channel=0 note=60 velocity=82 time=1
119.75704578125 note_off channel=2 note=60 velocity=0 time=0
119.7622110625 note_on channel=2 note=57 velocity=79 time=1
119.7622110625 note_on channel=2 note=60 velocity=81 time=0
119.76737634375 note_on channel=0 note=50 velocity=53 time=1
119.772541625 note_on channel=0 note=57 velocity=76 time=1
119.772541625 note_on channel=2 note=66 velocity=86 time=0
119.77770690625 note_off channel=9 note=62 velocity=0 time=1
119.77770690625 note_off channel=9 note=42 velocity=0 time=0
119.7828721875 note_off channel=9 note=35 velocity=0 time=1
119.87068196875 note_off channel=1 note=37 velocity=0 time=17
119.87068196875 note_on channel=1 note=38 velocity=108 time=0
119.87584725 note_on channel=9 note=62 velocity=67 time=1
119.9068389375 note_off channel=9 note=62 velocity=0 time=6
119.95849175 note_off channel=0 note=60 velocity=0 time=10
119.95849175 note_off channel=0 note=66 velocity=0 time=0
119.9688223125 note_off channel=0 note=50 velocity=0 time=2
119.9688223125 note_off channel=1 note=38 velocity=0 time=0
119.97398759375 note_off channel=0 note=57 velocity=0 time=1
119.97915287500001 note_off channel=3 note=72 velocity=0 time=1
119.97915287500001 note_on channel=3 note=74 velocity=101 time=0
119.9894834375 note_on channel=0 note=50 velocity=49 time=2
119.9894834375 note_on channel=9 note=42 velocity=63 time=0
119.99464871875 note_on channel=0 note=57 velocity=71 time=1
119.99464871875 note_on channel=9 note=62 velocity=77 time=0
119.999814 note_on channel=0 note=60 velocity=82 time=1
120.0101445625 note_on channel=0 note=66 velocity=78 time=2
120.02047512499999 note_off channel=9 note=42 velocity=0 time=2
120.02564040625 note_off channel=9 note=62 velocity=0 time=1
120.10828490625 note_on channel=1 note=38 velocity=114 time=16
120.19609468750001 note_off channel=0 note=57 velocity=0 time=17
120.20125996875 note_off channel=2 note=66 velocity=0 time=1
120.22192109375 note_off channel=2 note=60 velocity=0 time=4
120.23225165625 note_off channel=3 note=74 velocity=0 time=2
120.23225165625 note_on channel=3 note=69 velocity=97 time=0
120.23225165625 note_on channel=9 note=42 velocity=58 time=0
120.2374169375 note_off channel=1 note=38 velocity=0 time=1
120.2374169375 note_on channel=1 note=36 velocity=106 time=0
120.2374169375 note_off channel=2 note=57 velocity=0 time=0
120.24258221875 note_off channel=0 note=60 velocity=0 time=1
120.24258221875 note_off channel=0 note=66 velocity=0 time=0
120.24258221875 note_on channel=2 note=66 velocity=88 time=0
120.24258221875 note_on channel=2 note=60 velocity=85 time=0
120.24258221875 note_on channel=9 note=62 velocity=71 time=0
120.2477475 note_off channel=2 note=50 velocity=0 time=1
120.2477475 note_on channel=2 note=57 velocity=72 time=0
120.25291278124999 note_on channel=0 note=66 velocity=83 time=1
120.25291278124999 note_on channel=2 note=50 velocity=53 time=0
120.2580780625 note_on channel=0 note=60 velocity=82 time=1
120.26324334375 note_on channel=0 note=57 velocity=69 time=1
120.26324334375 note_off channel=9 note=42 velocity=0 time=0
120.27357390625001 note_off channel=9 note=62 velocity=0 time=2
120.3613836875 note_on channel=9 note=62 velocity=60 time=17
120.392375375 note_off channel=9 note=62 velocity=0 time=6
120.44402818750001 note_off channel=2 note=66 velocity=0 time=10
120.4646893125 note_off channel=2 note=50 velocity=0 time=4
120.46985459375 note_off channel=2 note=45 velocity=0 time=1
120.475019875 note_off channel=2 note=57 velocity=0 time=1
120.475019875 note_on channel=2 note=45 velocity=49 time=0
120.48018515625 note_on channel=2 note=50 velocity=62 time=1
120.48018515625 note_on channel=9 note=42 velocity=61 time=0
120.4853504375 note_off channel=2 note=60 velocity=0 time=1
120.4853504375 note_on channel=2 note=57 velocity=77 time=0
120.4853504375 note_on channel=9 note=62 velocity=78 time=0
120.49051571875 note_off channel=1 note=36 velocity=0 time=1
120.49051571875 note_on channel=1 note=35 velocity=109 time=0
120.49051571875 note_on channel=2 note=60 velocity=83 time=0
120.495681 note_on channel=2 note=66 velocity=88 time=1
120.495681 note_on channel=9 note=40 velocity=100 time=0
120.51117684375001 note_off channel=9 note=42 velocity=0 time=3
120.516342125 note_off channel=9 note=62 velocity=0 time=1
120.5266726875 note_off channel=9 note=40 velocity=0 time=2
120.6506394375 note_off channel=3 note=69 velocity=0 time=24
120.69196168750001 note_off channel=2 note=57 velocity=0 time=8
120.69712696875 note_off channel=2 note=60 velocity=0 time=1
120.7126228125 note_off channel=0 note=60 velocity=0 time=3
120.71778809375 note_off channel=0 note=57 velocity=0 time=1
120.72811865625 note_off channel=0 note=45 velocity=0 time=2
120.72811865625 note_off channel=0 note=66 velocity=0 time=0
120.72811865625 note_on channel=9 note=42 velocity=62 time=0
120.73328393749999 note_on channel=3 note=71 velocity=106 time=1
120.73328393749999 note_on channel=9 note=62 velocity=78 time=0
120.73844921875 note_off channel=1 note=35 velocity=0 time=1
120.73844921875 note_on channel=1 note=33 velocity=110 time=0
120.73844921875 note_off channel=2 note=66 velocity=0 time=0
120.73844921875 note_on channel=9 note=35 velocity=108 time=0
120.7436145 note_on channel=2 note=66 velocity=86 time=1
120.74877978125 note_on channel=0 note=59 velocity=77 time=1
120.74877978125 note_on channel=2 note=60 velocity=84 time=0
120.75394506250001 note_off channel=0 note=50 velocity=0 time=1
120.75394506250001 note_on channel=0 note=55 velocity=57 time=0
120.75394506250001 note_on channel=2 note=57 velocity=63 time=0
120.75911034375 note_off channel=9 note=42 velocity=0 time=1
120.764275625 note_on channel=0 note=50 velocity=42 time=1
120.764275625 note_off channel=9 note=62 velocity=0 time=0
120.76944090625001 note_on channel=0 note=45 velocity=36 time=1
120.76944090625001 note_off channel=9 note=35 velocity=0 time=0
120.8572506875 note_on channel=9 note=62 velocity=68 time=17
120.88824237499999 note_off channel=9 note=62 velocity=0 time=6
120.8985729375 note_off channel=0 note=45 velocity=0 time=2
120.90373821875 note_off channel=2 note=57 velocity=0 time=1
120.90373821875 note_off channel=2 note=60 velocity=0 time=0
120.90373821875 note_off channel=2 note=66 velocity=0 time=0
120.91406878125 note_off channel=1 note=33 velocity=0 time=2
120.93472990625 note_off channel=2 note=50 velocity=0 time=4
120.94506046875 note_off channel=3 note=71 velocity=0 time=2
120.96572159374999 note_off channel=0 note=50 velocity=0 time=4
120.970886875 note_off channel=2 note=45 velocity=0 time=1
120.97605215625 note_off channel=0 note=55 velocity=0 time=1
120.97605215625 note_on channel=0 note=43 velocity=56 time=0
120.97605215625 note_on channel=2 note=45 velocity=41 time=0
120.98121743749999 note_on channel=2 note=50 velocity=63 time=1
120.98121743749999 note_on channel=9 note=42 velocity=62 time=0
120.98121743749999 note_on channel=9 note=62 velocity=80 time=0
120.98638271875001 note_on channel=0 note=50 velocity=56 time=1
120.98638271875001 note_on channel=0 note=55 velocity=72 time=0
120.98638271875001 note_on channel=2 note=55 velocity=83 time=0
120.98638271875001 note_on channel=9 note=35 velocity=103 time=0
120.991548 note_off channel=0 note=59 velocity=0 time=1
120.991548 note_on channel=0 note=47 velocity=55 time=0
120.991548 note_on channel=1 note=31 velocity=108 time=0
120.991548 note_on channel=2 note=59 velocity=86 time=0
120.99671328125 note_on channel=0 note=59 velocity=80 time=1
121.00187856250001 note_on channel=0 note=67 velocity=71 time=1
121.00187856250001 note_on channel=2 note=67 velocity=86 time=0
121.012209125 note_off channel=9 note=62 velocity=0 time=2
121.012209125 note_off channel=9 note=42 velocity=0 time=0
121.01737440625 note_off channel=9 note=35 velocity=0 time=1
121.19815924999999 note_off channel=2 note=59 velocity=0 time=35
121.218820375 note_on channel=3 note=71 velocity=109 time=4
121.218820375 note_on channel=4 note=71 velocity=72 time=0
121.218820375 note_on channel=4 note=67 velocity=60 time=0
121.22398565625 note_off channel=2 note=67 velocity=0 time=1
121.2291509375 note_off channel=0 note=67 velocity=0 time=1
121.2291509375 note_off channel=0 note=50 velocity=0 time=0
121.2291509375 note_off channel=1 note=31 velocity=0 time=0
121.2291509375 note_on channel=1 note=35 velocity=106 time=0
121.2291509375 note_off channel=2 note=50 velocity=0 time=0
121.2291509375 note_on channel=9 note=42 velocity=54 time=0
121.2291509375 note_on channel=9 note=62 velocity=75 time=0
121.23431621875001 note_off channel=0 note=55 velocity=0 time=1
121.23431621875001 note_off channel=0 note=47 velocity=0 time=0
121.23431621875001 note_on channel=0 note=67 velocity=82 time=0
121.23431621875001 note_off channel=2 note=55 velocity=0 time=0
121.2394815 note_off channel=0 note=59 velocity=0 time=1
121.24464678125 note_on channel=0 note=59 velocity=83 time=1
121.24464678125 note_on channel=2 note=67 velocity=82 time=0
121.24464678125 note_on channel=2 note=59 velocity=80 time=0
121.2498120625 note_on channel=2 note=55 velocity=60 time=1
121.25497734375 note_on channel=0 note=55 velocity=80 time=1
121.25497734375 note_on channel=2 note=50 velocity=47 time=0
121.260142625 note_on channel=0 note=50 velocity=69 time=1
121.260142625 note_off channel=9 note=62 velocity=0 time=0
121.260142625 note_off channel=9 note=42 velocity=0 time=0
121.26530790625 note_on channel=0 note=47 velocity=71 time=1
121.35828296875 note_on channel=9 note=62 velocity=65 time=18
121.37894409375001 note_off channel=3 note=71 velocity=0 time=4
121.38927465625001 note_off channel=9 note=62 velocity=0 time=2
121.425431625 note_off channel=4 note=67 velocity=0 time=7
121.44092746875 note_off channel=4 note=71 velocity=0 time=3
121.44092746875 note_on channel=4 note=69 velocity=69 time=0
121.44609274999999 note_off channel=2 note=67 velocity=0 time=1
121.45125803125 note_off channel=2 note=59 velocity=0 time=1
121.46158859375 note_on channel=4 note=72 velocity=73 time=2
121.46675387500001 note_off channel=2 note=50 velocity=0 time=1
121.46675387500001 note_on channel=3 note=72 velocity=101 time=0
121.47191915625 note_off channel=0 note=47 velocity=0 time=1
121.4770844375 note_on channel=9 note=62 velocity=80 time=1
121.48224971875001 note_off channel=2 note=55 velocity=0 time=1
121.48224971875001 note_on channel=9 note=40 velocity=93 time=0
121.48224971875001 note_on channel=9 note=42 velocity=61 time=0
121.487415 note_off channel=1 note=35 velocity=0 time=1
121.487415 note_on channel=1 note=38 velocity=108 time=0
121.487415 note_on channel=2 note=50 velocity=63 time=0
121.49258028125 note_on channel=2 note=55 velocity=80 time=1
121.49258028125 note_on channel=2 note=59 velocity=91 time=0
121.4977455625 note_on channel=2 note=67 velocity=84 time=1
121.508076125 note_off channel=9 note=62 velocity=0 time=2
121.51324140625 note_off channel=9 note=40 velocity=0 time=1
121.51324140625 note_off channel=9 note=42 velocity=0 time=0
121.5803900625 note_off channel=2 note=67 velocity=0 time=13
121.61138175 note_off channel=0 note=43 velocity=0 time=6
121.632042875 note_off channel=1 note=38 velocity=0 time=4
121.652704 note_off channel=3 note=72 velocity=0 time=4
121.6630345625 note_off channel=4 note=72 velocity=0 time=2
121.6630345625 note_off channel=4 note=69 velocity=0 time=0
121.673365125 note_off channel=0 note=67 velocity=0 time=2
121.67853040624999 note_on channel=4 note=71 velocity=75 time=1
121.6836956875 note_off channel=2 note=59 velocity=0 time=1
121.69402625 note_off channel=2 note=45 velocity=0 time=2
121.69919153125001 note_on channel=4 note=74 velocity=72 time=1
121.7043568125 note_off channel=0 note=50 velocity=0 time=1
121.70952209375 note_off channel=0 note=59 velocity=0 time=1
121.70952209375 note_off channel=0 note=55 velocity=0 time=0
121.7250179375 note_on channel=9 note=42 velocity=59 time=3
121.73018321875 note_on channel=1 note=38 velocity=107 time=1
121.73018321875 note_off channel=2 note=50 velocity=0 time=0
121.73018321875 note_on channel=2 note=64 velocity=84 time=0
121.73018321875 note_on channel=9 note=35 velocity=108 time=0
121.73018321875 note_on channel=9 note=62 velocity=76 time=0
121.7353485 note_on channel=0 note=64 velocity=78 time=1
121.7353485 note_off channel=2 note=55 velocity=0 time=0
121.7353485 note_on channel=2 note=59 velocity=86 time=0
121.74051378125 note_on channel=2 note=56 velocity=72 time=1
121.74051378125 note_on channel=3 note=74 velocity=103 time=0
121.7456790625 note_on channel=2 note=52 velocity=57 time=1
121.75084434375 note_on channel=2 note=47 velocity=54 time=1
121.75600962499999 note_on channel=0 note=56 velocity=58 time=1
121.75600962499999 note_on channel=0 note=52 velocity=51 time=0
121.75600962499999 note_on channel=2 note=40 velocity=18 time=0
121.75600962499999 note_off channel=9 note=42 velocity=0 time=0
121.76117490625 note_on channel=0 note=47 velocity=56 time=1
121.76117490625 note_off channel=9 note=35 velocity=0 time=0
121.76117490625 note_off channel=9 note=62 velocity=0 time=0
121.797331875 note_on channel=0 note=40 velocity=34 time=7
121.85414996875001 note_on channel=9 note=62 velocity=56 time=11
121.86448053125 note_off channel=1 note=38 velocity=0 time=2
121.86448053125 note_on channel=1 note=40 velocity=108 time=0
121.88514165625 note_off channel=9 note=62 velocity=0 time=4
121.91096806249999 note_off channel=4 note=74 velocity=0 time=5
121.91096806249999 note_off channel=4 note=71 velocity=0 time=0
121.921298625 note_off channel=3 note=74 velocity=0 time=2
121.93679446875 note_on channel=4 note=72 velocity=56 time=3
121.94195975 note_on channel=4 note=76 velocity=69 time=1
121.94195975 note_on channel=4 note=74 velocity=55 time=0
121.96778615625 note_on channel=3 note=76 velocity=97 time=5
121.9729514375 note_on channel=9 note=62 velocity=78 time=1
121.97811671875 note_on channel=9 note=42 velocity=59 time=1
121.9936125625 note_off channel=0 note=56 velocity=0 time=3
121.99877784375 note_on channel=0 note=56 velocity=46 time=1
122.00394312499999 note_on channel=0 note=59 velocity=51 time=1
122.00394312499999 note_off channel=9 note=62 velocity=0 time=0
122.00910840625001 note_off channel=1 note=40 velocity=0 time=1
122.00910840625001 note_off channel=9 note=42 velocity=0 time=0
122.12274459375 note_on channel=1 note=40 velocity=105 time=22
122.15890156249999 note_off channel=4 note=76 velocity=0 time=7
122.169232125 note_off channel=4 note=72 velocity=0 time=2
122.169232125 note_off channel=4 note=74 velocity=0 time=0
122.17956268750001 note_on channel=4 note=71 velocity=77 time=2
122.18472796875 note_off channel=3 note=76 velocity=0 time=1
122.18989325 note_off channel=0 note=64 velocity=0 time=1
122.18989325 note_on channel=4 note=74 velocity=83 time=0
122.20538909375 note_off channel=2 note=64 velocity=0 time=3
122.20538909375 note_off channel=2 note=59 velocity=0 time=0
122.210554375 note_off channel=0 note=59 velocity=0 time=1
122.210554375 note_off channel=2 note=56 velocity=0 time=0
122.21571965625 note_off channel=0 note=40 velocity=0 time=1
122.21571965625 note_off channel=2 note=52 velocity=0 time=0
122.21571965625 note_on channel=2 note=64 velocity=78 time=0
122.21571965625 note_on channel=3 note=74 velocity=103 time=0
122.2208849375 note_off channel=0 note=56 velocity=0 time=1
122.2208849375 note_on channel=0 note=64 velocity=84 time=0
122.2208849375 note_off channel=2 note=47 velocity=0 time=0
122.2208849375 note_on channel=2 note=59 velocity=78 time=0
122.22605021875 note_off channel=0 note=52 velocity=0 time=1
122.22605021875 note_on channel=2 note=56 velocity=61 time=0
122.22605021875 note_on channel=9 note=42 velocity=61 time=0
122.22605021875 note_on channel=9 note=62 velocity=70 time=0
122.2312155 note_on channel=0 note=59 velocity=82 time=1
122.2312155 note_on channel=2 note=52 velocity=47 time=0
122.23638078124999 note_on channel=0 note=56 velocity=69 time=1
122.23638078124999 note_off channel=1 note=40 velocity=0 time=0
122.23638078124999 note_on channel=1 note=44 velocity=112 time=0
122.23638078124999 note_on channel=2 note=47 velocity=47 time=0
122.2415460625 note_on channel=0 note=52 velocity=58 time=1
122.25704190625001 note_on channel=0 note=40 velocity=38 time=3
122.25704190625001 note_off channel=9 note=62 velocity=0 time=0
122.25704190625001 note_off channel=9 note=42 velocity=0 time=0
122.3448516875 note_on channel=9 note=62 velocity=64 time=17
122.375843375 note_off channel=9 note=62 velocity=0 time=6
122.41200034375001 note_off channel=1 note=44 velocity=0 time=7
122.42233090625 note_off channel=2 note=59 velocity=0 time=2
122.42749618750001 note_off channel=0 note=64 velocity=0 time=1
122.42749618750001 note_off channel=2 note=56 velocity=0 time=0
122.43266146875 note_off channel=0 note=47 velocity=0 time=1
122.44299203125 note_off channel=2 note=52 velocity=0 time=2
122.45332259375 note_off channel=0 note=52 velocity=0 time=2
122.458487875 note_off channel=2 note=64 velocity=0 time=1
122.46365315625 note_on channel=2 note=52 velocity=43 time=1
122.46881843749999 note_off channel=0 note=56 velocity=0 time=1
122.46881843749999 note_on channel=0 note=47 velocity=55 time=0
122.46881843749999 note_on channel=2 note=56 velocity=69 time=0
122.46881843749999 note_on channel=2 note=59 velocity=84 time=0
122.47398371875 note_on channel=0 note=52 velocity=56 time=1
122.47398371875 note_on channel=0 note=56 velocity=76 time=0
122.47398371875 note_on channel=2 note=64 velocity=84 time=0
122.47398371875 note_on channel=9 note=40 velocity=99 time=0
122.47398371875 note_on channel=9 note=42 velocity=58 time=0
122.47398371875 note_on channel=9 note=62 velocity=74 time=0
122.479149 note_off channel=0 note=59 velocity=0 time=1
122.48431428125 note_on channel=0 note=59 velocity=75 time=1
122.48947956250001 note_on channel=0 note=64 velocity=54 time=1
122.48947956250001 note_on channel=1 note=47 velocity=115 time=0
122.50497540625001 note_off channel=9 note=62 velocity=0 time=3
122.50497540625001 note_off channel=9 note=42 velocity=0 time=0
122.50497540625001 note_off channel=9 note=40 velocity=0 time=0
122.59795046875 note_off channel=3 note=74 velocity=0 time=18
122.64960328125 note_off channel=4 note=74 velocity=0 time=10
122.6547685625 note_off channel=4 note=71 velocity=0 time=1
122.6754296875 note_on channel=4 note=69 velocity=66 time=4
122.69092553125 note_on channel=4 note=72 velocity=77 time=3
122.71158665625 note_off channel=0 note=64 velocity=0 time=4
122.71158665625 note_off channel=2 note=64 velocity=0 time=0
122.71158665625 note_off channel=2 note=56 velocity=0 time=0
122.72191721875001 note_on channel=0 note=64 velocity=74 time=2
122.72191721875001 note_on channel=2 note=64 velocity=72 time=0
122.72191721875001 note_on channel=3 note=72 velocity=107 time=0
122.72191721875001 note_on channel=9 note=42 velocity=59 time=0
122.7270825 note_off channel=0 note=59 velocity=0 time=1
122.7270825 note_on channel=9 note=35 velocity=104 time=0
122.7270825 note_on channel=9 note=62 velocity=80 time=0
122.73224778125 note_on channel=0 note=59 velocity=77 time=1
122.73224778125 note_on channel=2 note=56 velocity=56 time=0
122.75290890625 note_off channel=9 note=42 velocity=0 time=4
122.7580741875 note_off channel=9 note=35 velocity=0 time=1
122.7580741875 note_off channel=9 note=62 velocity=0 time=0
122.77873531249999 note_off channel=1 note=47 velocity=0 time=4
122.809727 note_off channel=0 note=52 velocity=0 time=6
122.81489228125001 note_off channel=0 note=47 velocity=0 time=1
122.83555340625 note_off channel=0 note=40 velocity=0 time=4
122.8407186875 note_off channel=0 note=56 velocity=0 time=1
122.85104925 note_on channel=9 note=62 velocity=65 time=2
122.8613798125 note_on channel=1 note=40 velocity=110 time=2
122.8613798125 note_off channel=2 note=56 velocity=0 time=0
122.86654509375 note_off channel=2 note=47 velocity=0 time=1
122.8820409375 note_off channel=0 note=59 velocity=0 time=3
122.8820409375 note_off channel=9 note=62 velocity=0 time=0
122.89237150000001 note_off channel=2 note=40 velocity=0 time=2
122.89237150000001 note_off channel=2 note=52 velocity=0 time=0
122.913032625 note_off channel=2 note=59 velocity=0 time=4
122.93885903125 note_off channel=3 note=72 velocity=0 time=5
122.95952015625 note_off channel=1 note=40 velocity=0 time=4
122.95952015625 note_on channel=2 note=45 velocity=56 time=0
122.96985071875001 note_off channel=0 note=64 velocity=0 time=2
122.96985071875001 note_on channel=2 note=52 velocity=74 time=0
122.96985071875001 note_on channel=9 note=42 velocity=61 time=0
122.96985071875001 note_on channel=9 note=62 velocity=81 time=0
122.975016 note_on channel=0 note=52 velocity=58 time=1
122.975016 note_on channel=1 note=45 velocity=112 time=0
122.975016 note_off channel=2 note=64 velocity=0 time=0
122.975016 note_on channel=2 note=60 velocity=86 time=0
122.975016 note_on channel=2 note=57 velocity=80 time=0
122.98018128125 note_on channel=2 note=64 velocity=85 time=1
122.98018128125 note_off channel=4 note=72 velocity=0 time=0
122.98018128125 note_on channel=9 note=35 velocity=107 time=0
122.9853465625 note_on channel=0 note=60 velocity=79 time=1
122.9853465625 note_on channel=0 note=64 velocity=61 time=0
122.9853465625 note_on channel=0 note=57 velocity=76 time=0
122.9853465625 note_off channel=4 note=69 velocity=0 time=0
123.00084240625 note_off channel=9 note=62 velocity=0 time=3
123.00084240625 note_off channel=9 note=42 velocity=0 time=0
123.01117296874999 note_off channel=9 note=35 velocity=0 time=2
123.20228837500001 note_off channel=2 note=64 velocity=0 time=37
123.2126189375 note_off channel=2 note=52 velocity=0 time=2
123.2126189375 note_on channel=3 note=72 velocity=104 time=0
123.21778421875001 note_off channel=0 note=64 velocity=0 time=1
123.21778421875001 note_off channel=2 note=60 velocity=0 time=0
123.21778421875001 note_on channel=2 note=64 velocity=87 time=0
123.21778421875001 note_on channel=9 note=42 velocity=58 time=0
123.21778421875001 note_on channel=9 note=62 velocity=80 time=0
123.2229495 note_off channel=0 note=52 velocity=0 time=1
123.2229495 note_off channel=2 note=57 velocity=0 time=0
123.2229495 note_on channel=2 note=60 velocity=84 time=0
123.22811478125 note_off channel=0 note=60 velocity=0 time=1
123.22811478125 note_on channel=0 note=64 velocity=82 time=0
123.22811478125 note_off channel=1 note=45 velocity=0 time=0
123.22811478125 note_on channel=1 note=43 velocity=113 time=0
123.22811478125 note_on channel=2 note=57 velocity=62 time=0
123.2332800625 note_on channel=0 note=60 velocity=80 time=1
123.2332800625 note_on channel=2 note=52 velocity=26 time=0
123.23844534375 note_off channel=0 note=57 velocity=0 time=1
123.243610625 note_on channel=0 note=57 velocity=69 time=1
123.24877590625 note_on channel=0 note=52 velocity=45 time=1
123.24877590625 note_off channel=9 note=62 velocity=0 time=0
123.24877590625 note_off channel=9 note=42 velocity=0 time=0
123.34175096875 note_on channel=9 note=62 velocity=77 time=18
123.37274265625001 note_off channel=9 note=62 velocity=0 time=6
123.4192301875 note_off channel=2 note=64 velocity=0 time=9
123.4192301875 note_off channel=3 note=72 velocity=0 time=0
123.42956075 note_off channel=2 note=52 velocity=0 time=2
123.44505659375 note_off channel=2 note=57 velocity=0 time=3
123.45022187500001 note_off channel=2 note=45 velocity=0 time=1
123.45538715625 note_off channel=2 note=60 velocity=0 time=1
123.45538715625 note_on channel=2 note=52 velocity=46 time=0
123.45538715625 note_on channel=3 note=74 velocity=103 time=0
123.4605524375 note_on channel=2 note=57 velocity=65 time=1
123.4605524375 note_on channel=9 note=62 velocity=77 time=0
123.46571771875 note_off channel=1 note=43 velocity=0 time=1
123.46571771875 note_on channel=1 note=42 velocity=106 time=0
123.46571771875 note_on channel=2 note=60 velocity=81 time=0
123.46571771875 note_on channel=2 note=64 velocity=74 time=0
123.470883 note_on channel=9 note=42 velocity=63 time=1
123.470883 note_on channel=9 note=40 velocity=97 time=0
123.49154412499999 note_off channel=9 note=62 velocity=0 time=4
123.5018746875 note_off channel=9 note=42 velocity=0 time=2
123.5018746875 note_off channel=9 note=40 velocity=0 time=0
123.51220525000001 note_off channel=0 note=52 velocity=0 time=2
123.5225358125 note_off channel=0 note=57 velocity=0 time=2
123.53803165625 note_off channel=0 note=60 velocity=0 time=3
123.57935390625 note_off channel=2 note=64 velocity=0 time=8
123.61034559375 note_off channel=2 note=57 velocity=0 time=6
123.61034559375 note_off channel=2 note=52 velocity=0 time=0
123.62067615625 note_off channel=2 note=60 velocity=0 time=2
123.63100671875 note_off channel=0 note=64 velocity=0 time=2
123.66716368750001 note_off channel=1 note=42 velocity=0 time=7
123.698155375 note_off channel=3 note=74 velocity=0 time=6
123.698155375 note_on channel=3 note=76 velocity=98 time=0
123.7084859375 note_on channel=0 note=66 velocity=83 time=2
123.7084859375 note_on channel=1 note=40 velocity=107 time=0
123.71365121875 note_on channel=0 note=60 velocity=82 time=1
123.71365121875 note_on channel=2 note=50 velocity=68 time=0
123.71365121875 note_on channel=9 note=42 velocity=59 time=0
123.71365121875 note_on channel=9 note=62 velocity=78 time=0
123.72398178124999 note_on channel=2 note=57 velocity=80 time=2
123.7291470625 note_on channel=0 note=57 velocity=76 time=1
123.7291470625 note_on channel=2 note=60 velocity=86 time=0
123.7291470625 note_on channel=9 note=35 velocity=108 time=0
123.73431234375 note_on channel=0 note=50 velocity=55 time=1
123.73431234375 note_on channel=2 note=66 velocity=87 time=0
123.73947762499999 note_on channel=0 note=45 velocity=45 time=1
123.74464290625001 note_off channel=9 note=62 velocity=0 time=1
123.74464290625001 note_off channel=9 note=42 velocity=0 time=0
123.76013875000001 note_off channel=9 note=35 velocity=0 time=3
123.83761796875001 note_on channel=9 note=62 velocity=67 time=15
123.84278325 note_off channel=1 note=40 velocity=0 time=1
123.84278325 note_on channel=1 note=38 velocity=111 time=0
123.86860965625 note_off channel=9 note=62 velocity=0 time=5
123.946088875 note_off channel=3 note=76 velocity=0 time=15
123.946088875 note_on channel=3 note=78 velocity=96 time=0
123.96158471875 note_on channel=9 note=62 velocity=76 time=3
123.96675 note_on channel=9 note=42 velocity=64 time=1
123.97191528124999 note_off channel=1 note=38 velocity=0 time=1
123.99257640625001 note_off channel=9 note=62 velocity=0 time=4
123.9977416875 note_off channel=9 note=42 velocity=0 time=1
124.09071675 note_on channel=1 note=38 velocity=114 time=18
124.16303068750001 note_off channel=2 note=66 velocity=0 time=14
124.1836918125 note_off channel=2 note=60 velocity=0 time=4
124.18885709375 note_off channel=2 note=57 velocity=0 time=1
124.18885709375 note_off channel=3 note=78 velocity=0 time=0
124.19918765625 note_off channel=0 note=66 velocity=0 time=2
124.19918765625 note_on channel=3 note=74 velocity=104 time=0
124.20435293749999 note_off channel=0 note=60 velocity=0 time=1
124.20435293749999 note_on channel=0 note=66 velocity=82 time=0
124.20435293749999 note_on channel=2 note=66 velocity=88 time=0
124.20435293749999 note_on channel=2 note=60 velocity=85 time=0
124.20435293749999 note_on channel=2 note=57 velocity=67 time=0
124.20951821875 note_on channel=0 note=60 velocity=84 time=1
124.20951821875 note_on channel=9 note=62 velocity=80 time=0
124.2146835 note_off channel=0 note=57 velocity=0 time=1
124.2146835 note_on channel=9 note=42 velocity=61 time=0
124.21984878125 note_off channel=0 note=50 velocity=0 time=1
124.21984878125 note_on channel=0 note=57 velocity=68 time=0
124.21984878125 note_off channel=1 note=38 velocity=0 time=0
124.21984878125 note_on channel=1 note=36 velocity=107 time=0
124.235344625 note_on channel=0 note=50 velocity=37 time=3
124.24050990625001 note_off channel=9 note=62 velocity=0 time=1
124.2456751875 note_off channel=9 note=42 velocity=0 time=1
124.33348496875 note_on channel=9 note=62 velocity=65 time=17
124.36447665625 note_off channel=9 note=62 velocity=0 time=6
124.41612946875 note_off channel=2 note=50 velocity=0 time=10
124.4316253125 note_off channel=2 note=57 velocity=0 time=3
124.43679059374999 note_on channel=2 note=50 velocity=54 time=1
124.44712115625 note_off channel=2 note=60 velocity=0 time=2
124.44712115625 note_on channel=2 note=57 velocity=78 time=0
124.45228643749999 note_off channel=0 note=66 velocity=0 time=1
124.45228643749999 note_off channel=0 note=57 velocity=0 time=0
124.45228643749999 note_off channel=2 note=66 velocity=0 time=0
124.45228643749999 note_on channel=2 note=60 velocity=84 time=0
124.45745171875001 note_on channel=0 note=57 velocity=62 time=1
124.45745171875001 note_on channel=2 note=66 velocity=87 time=0
124.45745171875001 note_on channel=9 note=62 velocity=77 time=0
124.462617 note_off channel=0 note=60 velocity=0 time=1
124.462617 note_on channel=9 note=40 velocity=95 time=0
124.462617 note_on channel=9 note=42 velocity=63 time=0
124.46778228125 note_on channel=0 note=60 velocity=75 time=1
124.46778228125 note_off channel=1 note=36 velocity=0 time=0
124.46778228125 note_on channel=1 note=35 velocity=110 time=0
124.47294756250001 note_on channel=0 note=66 velocity=47 time=1
124.48844340625 note_off channel=9 note=62 velocity=0 time=3
124.4936086875 note_off channel=9 note=40 velocity=0 time=1
124.4936086875 note_off channel=9 note=42 velocity=0 time=0
124.61241015625001 note_off channel=3 note=74 velocity=0 time=23
124.6795588125 note_off channel=0 note=66 velocity=0 time=13
124.69505465625 note_off channel=0 note=57 velocity=0 time=3
124.69505465625 note_off channel=2 note=60 velocity=0 time=0
124.7002199375 note_off channel=2 note=66 velocity=0 time=1
124.7002199375 note_on channel=9 note=35 velocity=107 time=0
124.70538521875001 note_off channel=0 note=60 velocity=0 time=1
124.70538521875001 note_off channel=1 note=35 velocity=0 time=0
124.70538521875001 note_on channel=1 note=33 velocity=110 time=0
124.70538521875001 note_on channel=2 note=66 velocity=84 time=0
124.70538521875001 note_on channel=3 note=79 velocity=101 time=0
124.7105505 note_on channel=0 note=60 velocity=47 time=1
124.7105505 note_on channel=0 note=66 velocity=41 time=0
124.7105505 note_on channel=2 note=60 velocity=80 time=0
124.7105505 note_on channel=9 note=42 velocity=56 time=0
124.7105505 note_on channel=9 note=62 velocity=77 time=0
124.7208810625 note_on channel=0 note=57 velocity=28 time=2
124.731211625 note_off channel=9 note=35 velocity=0 time=2
124.7415421875 note_off channel=9 note=42 velocity=0 time=2
124.7415421875 note_off channel=9 note=62 velocity=0 time=0
124.80869084375 note_off channel=2 note=60 velocity=0 time=13
124.813856125 note_off channel=2 note=66 velocity=0 time=1
124.81902140625 note_off channel=2 note=57 velocity=0 time=1
124.83451725 note_on channel=9 note=62 velocity=63 time=3
124.8655089375 note_off channel=9 note=62 velocity=0 time=6
124.87583950000001 note_off channel=0 note=66 velocity=0 time=2
124.88100478125 note_off channel=0 note=45 velocity=0 time=1
124.90166590625 note_off channel=1 note=33 velocity=0 time=4
124.93265759375 note_off channel=0 note=50 velocity=0 time=6
124.93782287500001 note_off channel=0 note=60 velocity=0 time=1
124.9481534375 note_on channel=1 note=31 velocity=104 time=2
124.9481534375 note_on channel=2 note=43 velocity=26 time=0
124.95331871875001 note_on channel=0 note=43 velocity=60 time=1
124.95331871875001 note_on channel=2 note=47 velocity=78 time=0
124.95331871875001 note_on channel=9 note=42 velocity=61 time=0
124.95331871875001 note_on channel=9 note=62 velocity=81 time=0
124.958484 note_on channel=0 note=50 velocity=36 time=1
124.958484 note_on channel=2 note=55 velocity=79 time=0
124.958484 note_on channel=9 note=35 velocity=100 time=0
124.96364928125 note_off channel=0 note=57 velocity=0 time=1
124.96364928125 note_on channel=0 note=47 velocity=57 time=0
124.96364928125 note_on channel=2 note=59 velocity=84 time=0
124.9688145625 note_on channel=0 note=55 velocity=40 time=1
124.9688145625 note_on channel=2 note=67 velocity=76 time=0
124.98431040625 note_off channel=9 note=62 velocity=0 time=3
124.98431040625 note_off channel=9 note=42 velocity=0 time=0
124.9894756875 note_off channel=9 note=35 velocity=0 time=1
125.14959940624999 note_off channel=1 note=31 velocity=0 time=31
125.17026053125001 note_off channel=0 note=47 velocity=0 time=4
125.18575637500001 note_off channel=2 note=67 velocity=0 time=3
125.20125221875 note_on channel=0 note=67 velocity=82 time=3
125.20125221875 note_on channel=0 note=59 velocity=83 time=0
125.20125221875 note_on channel=9 note=42 velocity=56 time=0
125.20125221875 note_on channel=9 note=62 velocity=81 time=0
125.2064175 note_off channel=0 note=50 velocity=0 time=1
125.2064175 note_off channel=2 note=59 velocity=0 time=0
125.2064175 note_on channel=2 note=67 velocity=86 time=0
125.21158278125 note_off channel=0 note=55 velocity=0 time=1
125.21158278125 note_on channel=1 note=31 velocity=104 time=0
125.21158278125 note_on channel=2 note=59 velocity=84 time=0
125.2167480625 note_on channel=0 note=55 velocity=74 time=1
125.22707862499999 note_on channel=0 note=50 velocity=52 time=2
125.23224390625 note_on channel=0 note=47 velocity=67 time=1
125.23224390625 note_off channel=9 note=62 velocity=0 time=0
125.23224390625 note_off channel=9 note=42 velocity=0 time=0
125.32521896875001 note_on channel=9 note=62 velocity=60 time=18
125.35621065625 note_off channel=9 note=62 velocity=0 time=6
125.42852459375 note_off channel=2 note=50 velocity=0 time=14
125.433689875 note_off channel=2 note=55 velocity=0 time=1
125.4440204375 note_off channel=2 note=59 velocity=0 time=2
125.4440204375 note_on channel=2 note=50 velocity=49 time=0
125.44918571875 note_on channel=2 note=55 velocity=62 time=1
125.44918571875 note_on channel=2 note=59 velocity=63 time=0
125.44918571875 note_on channel=9 note=42 velocity=62 time=0
125.44918571875 note_on channel=9 note=62 velocity=78 time=0
125.45951628124999 note_on channel=9 note=40 velocity=94 time=2
125.48017740625001 note_off channel=9 note=62 velocity=0 time=4
125.48017740625001 note_off channel=9 note=42 velocity=0 time=0
125.49050796875 note_off channel=9 note=40 velocity=0 time=2
125.64546640625 note_off channel=2 note=50 velocity=0 time=30
125.65063168750001 note_off channel=2 note=55 velocity=0 time=1
125.67645809375 note_off channel=2 note=67 velocity=0 time=5
125.681623375 note_off channel=1 note=31 velocity=0 time=1
125.68678865625 note_off channel=2 note=43 velocity=0 time=1
125.68678865625 note_off channel=2 note=59 velocity=0 time=0
125.6919539375 note_on channel=2 note=67 velocity=86 time=1
125.69711921875 note_off channel=0 note=43 velocity=0 time=1
125.69711921875 note_off channel=0 note=59 velocity=0 time=0
125.69711921875 note_on channel=1 note=43 velocity=103 time=0
125.69711921875 note_on channel=2 note=59 velocity=88 time=0
125.69711921875 note_on channel=2 note=55 velocity=79 time=0
125.69711921875 note_on channel=9 note=42 velocity=58 time=0
125.7022845 note_off channel=0 note=67 velocity=0 time=1
125.7022845 note_off channel=2 note=47 velocity=0 time=0
125.7022845 note_on channel=2 note=50 velocity=69 time=0
125.7022845 note_on channel=9 note=62 velocity=81 time=0
125.70744978124999 note_on channel=0 note=67 velocity=78 time=1
125.70744978124999 note_on channel=2 note=47 velocity=74 time=0
125.70744978124999 note_on channel=2 note=43 velocity=57 time=0
125.7126150625 note_on channel=0 note=59 velocity=82 time=1
125.7126150625 note_on channel=9 note=35 velocity=110 time=0
125.72811090625001 note_on channel=0 note=43 velocity=60 time=3
125.72811090625001 note_off channel=9 note=42 velocity=0 time=0
125.7332761875 note_off channel=9 note=62 velocity=0 time=1
125.74360675000001 note_off channel=9 note=35 velocity=0 time=2
125.82108596875001 note_on channel=9 note=62 velocity=58 time=15
125.8365818125 note_off channel=1 note=43 velocity=0 time=3
125.85207765625 note_off channel=9 note=62 velocity=0 time=3
125.93988743749999 note_on channel=1 note=43 velocity=104 time=17
125.94505271875 note_on channel=9 note=42 velocity=65 time=1
125.94505271875 note_on channel=9 note=62 velocity=77 time=0
125.97604440625001 note_off channel=9 note=62 velocity=0 time=6
125.97604440625001 note_off channel=9 note=42 velocity=0 time=0
126.07418475 note_off channel=3 note=79 velocity=0 time=19
126.19298621875001 note_on channel=6 note=59 velocity=66 time=23
126.19298621875001 note_on channel=6 note=55 velocity=76 time=0
126.19298621875001 note_on channel=9 note=42 velocity=59 time=0
126.1981515 note_on channel=0 note=71 velocity=82 time=1
126.1981515 note_on channel=9 note=62 velocity=71 time=0
126.22397790625 note_off channel=9 note=42 velocity=0 time=5
126.2291431875 note_off channel=9 note=62 velocity=0 time=1
126.301457125 note_off channel=0 note=71 velocity=0 time=14
126.30662240625 note_off channel=6 note=59 velocity=0 time=1
126.3117876875 note_off channel=6 note=55 velocity=0 time=1
126.31695296875 note_on channel=9 note=62 velocity=60 time=1
126.34794465625001 note_off channel=9 note=62 velocity=0 time=6
126.44091971875001 note_on channel=6 note=55 velocity=80 time=18
126.44091971875001 note_on channel=6 note=59 velocity=63 time=0
126.44091971875001 note_on channel=9 note=42 velocity=65 time=0
126.44091971875001 note_on channel=9 note=62 velocity=75 time=0
126.446085 note_on channel=0 note=71 velocity=83 time=1
126.45125028125 note_on channel=9 note=40 velocity=97 time=1
126.47191140625 note_off channel=0 note=43 velocity=0 time=4
126.47191140625 note_off channel=0 note=47 velocity=0 time=0
126.47191140625 note_off channel=9 note=62 velocity=0 time=0
126.47191140625 note_off channel=9 note=42 velocity=0 time=0
126.48224196874999 note_off channel=9 note=40 velocity=0 time=2
126.50290309375 note_off channel=0 note=55 velocity=0 time=4
126.508068375 note_off channel=0 note=59 velocity=0 time=1
126.51839893750001 note_off channel=0 note=67 velocity=0 time=2
126.52356421875 note_off channel=0 note=50 velocity=0 time=1
126.52356421875 note_off channel=6 note=59 velocity=0 time=0
126.5390600625 note_off channel=6 note=55 velocity=0 time=3
126.5597211875 note_off channel=0 note=71 velocity=0 time=4
126.6836879375 note_off channel=1 note=43 velocity=0 time=24
126.6836879375 note_on channel=9 note=42 velocity=62 time=0
126.6940185 note_on channel=0 note=71 velocity=83 time=2
126.6940185 note_on channel=6 note=55 velocity=96 time=0
126.6940185 note_on channel=6 note=59 velocity=86 time=0
126.6940185 note_on channel=9 note=62 velocity=74 time=0
126.69918378125 note_on channel=9 note=35 velocity=105 time=1
126.714679625 note_off channel=9 note=42 velocity=0 time=3
126.7250101875 note_off channel=9 note=62 velocity=0 time=2
126.73017546874999 note_off channel=9 note=35 velocity=0 time=1
126.756001875 note_off channel=2 note=43 velocity=0 time=5
126.77149771875 note_off channel=2 note=47 velocity=0 time=3
126.776663 note_off channel=0 note=71 velocity=0 time=1
126.78182828125 note_off channel=6 note=59 velocity=0 time=1
126.7869935625 note_off channel=6 note=55 velocity=0 time=1
126.81281996875 note_on channel=9 note=62 velocity=60 time=5
126.84381165625001 note_off channel=9 note=62 velocity=0 time=6
126.88513390624999 note_off channel=2 note=67 velocity=0 time=8
126.90579503125001 note_off channel=2 note=50 velocity=0 time=4
126.91612559375 note_off channel=2 note=55 velocity=0 time=2
126.92129087500001 note_on channel=2 note=47 velocity=66 time=1
126.92645615625 note_on channel=1 note=43 velocity=106 time=1
126.92645615625 note_on channel=2 note=50 velocity=74 time=0
126.9316214375 note_off channel=2 note=59 velocity=0 time=1
126.9316214375 note_on channel=2 note=55 velocity=82 time=0
126.9316214375 note_on channel=9 note=42 velocity=73 time=0
126.93678671875 note_on channel=2 note=59 velocity=86 time=1
126.93678671875 note_on channel=2 note=67 velocity=85 time=0
126.93678671875 note_on channel=9 note=62 velocity=77 time=0
126.941952 note_on channel=6 note=59 velocity=83 time=1
126.941952 note_on channel=9 note=35 velocity=107 time=0
126.94711728125002 note_on channel=3 note=79 velocity=103 time=1
126.94711728125002 note_on channel=6 note=55 velocity=93 time=0
126.962613125 note_off channel=9 note=42 velocity=0 time=3
126.96777840624999 note_on channel=0 note=67 velocity=77 time=1
126.96777840624999 note_off channel=9 note=62 velocity=0 time=0
126.9729436875 note_off channel=9 note=35 velocity=0 time=1
126.98327425 note_on channel=0 note=71 velocity=82 time=2
127.04009234375 note_off channel=1 note=43 velocity=0 time=11
127.16405909375001 note_off channel=2 note=67 velocity=0 time=24
127.17955493750001 note_on channel=9 note=42 velocity=66 time=3
127.18472021874999 note_on channel=1 note=43 velocity=110 time=1
127.18472021874999 note_off channel=2 note=59 velocity=0 time=0
127.18472021874999 note_on channel=2 note=67 velocity=79 time=0
127.18472021874999 note_on channel=9 note=62 velocity=75 time=0
127.19505078125 note_on channel=2 note=62 velocity=73 time=2
127.20021606249999 note_on channel=2 note=59 velocity=34 time=1
127.210546625 note_off channel=9 note=42 velocity=0 time=2
127.21571190625 note_off channel=9 note=62 velocity=0 time=1
127.28802584375 note_off channel=2 note=47 velocity=0 time=14
127.29835640625 note_off channel=2 note=50 velocity=0 time=2
127.29835640625 note_off channel=2 note=55 velocity=0 time=0
127.30868696875 note_on channel=9 note=62 velocity=64 time=2
127.33967865624999 note_off channel=9 note=62 velocity=0 time=6
127.42748843750002 note_on channel=2 note=50 velocity=51 time=17
127.42748843750002 note_on channel=9 note=42 velocity=66 time=0
127.43265371874999 note_on channel=9 note=40 velocity=106 time=1
127.43265371874999 note_on channel=9 note=62 velocity=78 time=0
127.437819 note_on channel=2 note=55 velocity=35 time=1
127.44298428125 note_off channel=1 note=43 velocity=0 time=1
127.44814956249999 note_off channel=2 note=59 velocity=0 time=1
127.45848012500001 note_off channel=9 note=42 velocity=0 time=2
127.46364540625 note_off channel=9 note=40 velocity=0 time=1
127.46364540625 note_off channel=9 note=62 velocity=0 time=0
127.64443025000001 note_off channel=2 note=62 velocity=0 time=35
127.64959553124999 note_off channel=3 note=79 velocity=0 time=1
127.6754219375 note_off channel=2 note=67 velocity=0 time=5
127.6754219375 note_on channel=9 note=42 velocity=64 time=0
127.68058721874999 note_on channel=3 note=81 velocity=90 time=1
127.68058721874999 note_on channel=9 note=62 velocity=76 time=0
127.6857525 note_on channel=1 note=42 velocity=116 time=1
127.6857525 note_on channel=2 note=59 velocity=73 time=0
127.69091778125001 note_on channel=2 note=62 velocity=80 time=1
127.69091778125001 note_on channel=9 note=35 velocity=110 time=0
127.6960830625 note_on channel=2 note=67 velocity=81 time=1
127.70124834375 note_off channel=0 note=71 velocity=0 time=1
127.70641362500001 note_off channel=9 note=42 velocity=0 time=1
127.71157890625 note_off channel=9 note=62 velocity=0 time=1
127.72190946875001 note_off channel=0 note=67 velocity=0 time=2
127.72190946875001 note_off channel=9 note=35 velocity=0 time=0
127.79422340625 note_off channel=3 note=81 velocity=0 time=14
127.79422340625 note_on channel=3 note=79 velocity=88 time=0
127.79938868750001 note_on channel=9 note=62 velocity=60 time=1
127.80455396874999 note_off channel=6 note=59 velocity=0 time=1
127.830380375 note_off channel=6 note=55 velocity=0 time=5
127.830380375 note_off channel=9 note=62 velocity=0 time=0
127.91302487499999 note_on channel=0 note=66 velocity=82 time=16
127.91819015625 note_off channel=3 note=79 velocity=0 time=1
127.91819015625 note_on channel=3 note=78 velocity=91 time=0
127.9233554375 note_on channel=9 note=62 velocity=77 time=1
127.92852071875 note_on channel=6 note=54 velocity=74 time=1
127.92852071875 note_on channel=9 note=42 velocity=72 time=0
127.933686 note_on channel=0 note=69 velocity=88 time=1
127.933686 note_on channel=6 note=57 velocity=78 time=0
127.95434712500001 note_off channel=9 note=62 velocity=0 time=4
127.95951240624998 note_off channel=9 note=42 velocity=0 time=1
128.14029725 note_off channel=2 note=55 velocity=0 time=35
128.1506278125 note_off channel=1 note=42 velocity=0 time=2
128.16612365625 note_off channel=2 note=67 velocity=0 time=3
128.17645421875 note_on channel=1 note=43 velocity=106 time=2
128.17645421875 note_on channel=9 note=42 velocity=72 time=0
128.17645421875 note_on channel=9 note=62 velocity=77 time=0
128.1816195 note_on channel=2 note=55 velocity=80 time=1
128.1816195 note_on channel=2 note=67 velocity=80 time=0
128.20744590625 note_off channel=9 note=62 velocity=0 time=5
128.20744590625 note_off channel=9 note=42 velocity=0 time=0
128.30042096875 note_on channel=9 note=62 velocity=63 time=18
128.33141265625 note_off channel=9 note=62 velocity=0 time=6
128.3572390625 note_off channel=1 note=43 velocity=0 time=5
128.42438771874998 note_on channel=1 note=42 velocity=120 time=13
128.42438771874998 note_on channel=9 note=46 velocity=69 time=0
128.42438771874998 note_on channel=9 note=62 velocity=75 time=0
128.43471828125 note_on channel=9 note=40 velocity=103 time=2
128.45537940625 note_off channel=9 note=62 velocity=0 time=4
128.45537940625 note_off channel=9 note=46 velocity=0 time=0
128.46570996875002 note_off channel=9 note=40 velocity=0 time=2
128.63099896875 note_off channel=1 note=42 velocity=0 time=32
128.64132953125 note_off channel=0 note=66 velocity=0 time=2
128.6464948125 note_off channel=0 note=69 velocity=0 time=1
128.67232121875 note_off channel=2 note=67 velocity=0 time=5
128.67232121875 note_off channel=2 note=55 velocity=0 time=0
128.67748650000001 note_off channel=2 note=59 velocity=0 time=1
128.67748650000001 note_off channel=2 note=62 velocity=0 time=0
128.67748650000001 note_on channel=2 note=67 velocity=83 time=0
128.67748650000001 note_off channel=3 note=78 velocity=0 time=0
128.68265178125 note_on channel=2 note=62 velocity=80 time=1
128.68265178125 note_on channel=3 note=79 velocity=94 time=0
128.68265178125 note_on channel=9 note=35 velocity=98 time=0
128.68265178125 note_on channel=9 note=62 velocity=70 time=0
128.6878170625 note_on channel=2 note=59 velocity=71 time=1
128.6878170625 note_on channel=2 note=55 velocity=56 time=0
128.71364346875 note_off channel=9 note=62 velocity=0 time=5
128.71364346875 note_off channel=9 note=35 velocity=0 time=0
128.760131 note_off channel=6 note=54 velocity=0 time=9
128.7911226875 note_off channel=3 note=79 velocity=0 time=6
128.7911226875 note_on channel=3 note=78 velocity=95 time=0
128.7911226875 note_off channel=6 note=57 velocity=0 time=0
128.79628796875 note_on channel=9 note=62 velocity=60 time=1
128.82727965625 note_off channel=9 note=62 velocity=0 time=6
128.8737671875 note_off channel=2 note=50 velocity=0 time=9
128.88409775000002 note_off channel=2 note=67 velocity=0 time=2
128.8944283125 note_off channel=2 note=55 velocity=0 time=2
128.89959359375 note_off channel=2 note=62 velocity=0 time=1
128.90992415625 note_off channel=2 note=59 velocity=0 time=2
128.90992415625 note_on channel=2 note=47 velocity=62 time=0
128.9150894375 note_on channel=2 note=59 velocity=51 time=1
128.92025471875 note_on channel=2 note=52 velocity=70 time=1
128.92025471875 note_off channel=3 note=78 velocity=0 time=0
128.92025471875 note_on channel=3 note=76 velocity=93 time=0
128.92025471875 note_on channel=9 note=42 velocity=68 time=0
128.92542 note_on channel=1 note=40 velocity=116 time=1
128.92542 note_on channel=2 note=55 velocity=77 time=0
128.92542 note_on channel=9 note=62 velocity=78 time=0
128.93058528125002 note_on channel=0 note=64 velocity=84 time=1
128.93058528125002 note_on channel=6 note=55 velocity=88 time=0
128.93058528125002 note_on channel=9 note=35 velocity=105 time=0
128.9357505625 note_on channel=6 note=52 velocity=83 time=1
128.95124640625 note_on channel=0 note=67 velocity=88 time=3
128.95124640625 note_off channel=9 note=42 velocity=0 time=0
128.9564116875 note_off channel=9 note=62 velocity=0 time=1
128.96157696875002 note_off channel=9 note=35 velocity=0 time=1
129.16302293750002 note_on channel=9 note=42 velocity=61 time=39
129.16818821875 note_off channel=2 note=59 velocity=0 time=1
129.16818821875 note_on channel=2 note=64 velocity=87 time=0
129.1733535 note_on channel=2 note=59 velocity=84 time=1
129.17851878125 note_on channel=9 note=62 velocity=75 time=1
129.19401462500002 note_off channel=9 note=42 velocity=0 time=3
129.20951046875 note_off channel=9 note=62 velocity=0 time=3
129.3076508125 note_on channel=9 note=62 velocity=60 time=19
129.3386425 note_off channel=9 note=62 velocity=0 time=6
129.4109564375 note_on channel=9 note=42 velocity=66 time=14
129.41612171875 note_on channel=9 note=62 velocity=77 time=1
129.43161756249998 note_on channel=9 note=40 velocity=103 time=3
129.441948125 note_off channel=9 note=42 velocity=0 time=2
129.44711340625 note_off channel=9 note=62 velocity=0 time=1
129.46260924999999 note_off channel=9 note=40 velocity=0 time=3
129.5762454375 note_off channel=1 note=40 velocity=0 time=22
129.65888993750002 note_off channel=2 note=55 velocity=0 time=16
129.66405521874998 note_on channel=1 note=35 velocity=113 time=1
129.66405521874998 note_on channel=9 note=62 velocity=66 time=0
129.6692205 note_on channel=2 note=55 velocity=56 time=1
129.6692205 note_on channel=9 note=42 velocity=66 time=0
129.67438578125 note_on channel=9 note=35 velocity=110 time=1
129.69504690624998 note_off channel=9 note=62 velocity=0 time=4
129.7002121875 note_off channel=9 note=42 velocity=0 time=1
129.70537746875002 note_off channel=9 note=35 velocity=0 time=1
129.78802196875 note_on channel=9 note=62 velocity=60 time=16
129.81901365624998 note_off channel=9 note=62 velocity=0 time=6
129.8655011875 note_off channel=2 note=64 velocity=0 time=9
129.90165815625 note_off channel=2 note=59 velocity=0 time=7
129.9068234375 note_off channel=2 note=52 velocity=0 time=1
129.9068234375 note_on channel=9 note=62 velocity=75 time=0
129.91198871875 note_off channel=2 note=55 velocity=0 time=1
129.91198871875 note_on channel=2 note=59 velocity=72 time=0
129.917154 note_on channel=2 note=52 velocity=72 time=1
129.917154 note_on channel=2 note=64 velocity=77 time=0
129.917154 note_on channel=2 note=55 velocity=84 time=0
129.917154 note_on channel=9 note=42 velocity=68 time=0
129.92231928125 note_off channel=3 note=76 velocity=0 time=1
129.93781512500001 note_off channel=9 note=62 velocity=0 time=3
129.9481456875 note_off channel=9 note=42 velocity=0 time=2
129.97397209374998 note_off channel=6 note=52 velocity=0 time=5
130.0101290625 note_off channel=6 note=55 velocity=0 time=7
130.14959165625 note_off channel=2 note=47 velocity=0 time=27
130.15992221874998 note_off channel=2 note=52 velocity=0 time=2
130.15992221874998 note_on channel=9 note=42 velocity=66 time=0
130.15992221874998 note_on channel=9 note=62 velocity=78 time=0
130.17025278125 note_on channel=2 note=47 velocity=62 time=2
130.17025278125 note_on channel=2 note=52 velocity=72 time=0
130.19091390625 note_off channel=9 note=62 velocity=0 time=4
130.19091390625 note_off channel=9 note=42 velocity=0 time=0
130.27872368750002 note_on channel=9 note=62 velocity=64 time=17
130.309715375 note_off channel=9 note=62 velocity=0 time=6
130.36136818749998 note_off channel=1 note=35 velocity=0 time=10
130.38719459375 note_off channel=2 note=47 velocity=0 time=5
130.39235987499998 note_off channel=2 note=52 velocity=0 time=1
130.4026904375 note_off channel=2 note=59 velocity=0 time=2
130.4026904375 note_on channel=2 note=47 velocity=71 time=0
130.4026904375 note_on channel=9 note=62 velocity=81 time=0
130.40785571875 note_on channel=1 note=31 velocity=104 time=1
130.40785571875 note_off channel=2 note=64 velocity=0 time=0
130.40785571875 note_off channel=2 note=55 velocity=0 time=0
130.40785571875 note_on channel=2 note=59 velocity=79 time=0
130.40785571875 note_on channel=2 note=52 velocity=75 time=0
130.41302100000001 note_on channel=2 note=64 velocity=50 time=1
130.41302100000001 note_on channel=2 note=55 velocity=85 time=0
130.41302100000001 note_on channel=9 note=42 velocity=66 time=0
130.4233515625 note_on channel=9 note=40 velocity=95 time=2
130.43368212500002 note_off channel=9 note=62 velocity=0 time=2
130.4440126875 note_off channel=9 note=42 velocity=0 time=2
130.45434325 note_off channel=9 note=40 velocity=0 time=2
130.52149190625 note_off channel=0 note=67 velocity=0 time=13
130.52149190625 note_off channel=0 note=64 velocity=0 time=0
130.6093016875 note_off channel=2 note=64 velocity=0 time=17
130.6299628125 note_off channel=2 note=59 velocity=0 time=4
130.640293375 note_on channel=2 note=64 velocity=66 time=2
130.6506239375 note_off channel=2 note=55 velocity=0 time=2
130.65578921875 note_off channel=2 note=52 velocity=0 time=1
130.65578921875 note_on channel=2 note=59 velocity=82 time=0
130.65578921875 note_on channel=2 note=55 velocity=77 time=0
130.65578921875 note_on channel=9 note=42 velocity=65 time=0
130.6609545 note_on channel=2 note=52 velocity=69 time=1
130.66611978125002 note_on channel=9 note=35 velocity=91 time=1
130.66611978125002 note_on channel=9 note=62 velocity=59 time=0
130.68678090625 note_off channel=9 note=42 velocity=0 time=4
130.69711146875002 note_off channel=9 note=35 velocity=0 time=2
130.69711146875002 note_off channel=9 note=62 velocity=0 time=0
130.722937875 note_off channel=1 note=31 velocity=0 time=5
130.86756575 note_off channel=2 note=52 velocity=0 time=28
130.86756575 note_off channel=2 note=47 velocity=0 time=0
130.86756575 note_off channel=2 note=64 velocity=0 time=0
130.8778963125 note_off channel=2 note=55 velocity=0 time=2
130.88306159375 note_off channel=2 note=59 velocity=0 time=1
130.89339215625 note_on channel=0 note=52 velocity=85 time=2
130.89855743750002 note_on channel=9 note=46 velocity=64 time=1
130.90372271875 note_on channel=6 note=67 velocity=83 time=1
130.90372271875 note_on channel=7 note=47 velocity=71 time=0
130.908888 note_on channel=2 note=52 velocity=79 time=1
130.908888 note_on channel=9 note=62 velocity=70 time=0
130.9192185625 note_on channel=1 note=28 velocity=113 time=2
130.9192185625 note_on channel=9 note=35 velocity=111 time=0
130.92954912500002 note_off channel=9 note=46 velocity=0 time=2
130.9398796875 note_off channel=9 note=62 velocity=0 time=2
130.95021025 note_off channel=9 note=35 velocity=0 time=2
131.094838125 note_off channel=0 note=52 velocity=0 time=28
131.13099509375002 note_on channel=7 note=52 velocity=63 time=7
131.136160375 note_off channel=6 note=67 velocity=0 time=1
131.15165621875 note_off channel=1 note=28 velocity=0 time=3
131.15165621875 note_on channel=1 note=31 velocity=104 time=0
131.15165621875 note_on channel=6 note=71 velocity=64 time=0
131.1568215 note_on channel=9 note=62 velocity=64 time=1
131.16198678125002 note_on channel=2 note=55 velocity=76 time=1
131.18264790625 note_on channel=0 note=55 velocity=74 time=4
131.1878131875 note_off channel=9 note=62 velocity=0 time=1
131.21363959375 note_off channel=7 note=47 velocity=0 time=5
131.32727578125 note_off channel=1 note=31 velocity=0 time=22
131.342771625 note_off channel=0 note=55 velocity=0 time=3
131.38925915625 note_on channel=2 note=59 velocity=82 time=9
131.39442443750002 note_on channel=6 note=76 velocity=67 time=1
131.39958971874998 note_on channel=1 note=35 velocity=111 time=1
131.39958971874998 note_off channel=6 note=71 velocity=0 time=0
131.404755 note_on channel=7 note=55 velocity=72 time=1
131.404755 note_on channel=9 note=42 velocity=66 time=0
131.40992028125 note_on channel=9 note=62 velocity=73 time=1
131.42025084375 note_on channel=0 note=59 velocity=75 time=2
131.4357466875 note_off channel=9 note=42 velocity=0 time=3
131.44091196875002 note_off channel=7 note=52 velocity=0 time=1
131.44091196875002 note_off channel=9 note=62 velocity=0 time=0
131.6010356875 note_off channel=0 note=59 velocity=0 time=31
131.62686209375002 note_off channel=2 note=52 velocity=0 time=5
131.63719265625 note_on channel=2 note=64 velocity=75 time=2
131.6423579375 note_on channel=6 note=79 velocity=72 time=1
131.6423579375 note_on channel=9 note=40 velocity=89 time=0
131.64752321875 note_on channel=0 note=64 velocity=83 time=1
131.64752321875 note_off channel=1 note=35 velocity=0 time=0
131.64752321875 note_on channel=1 note=40 velocity=108 time=0
131.64752321875 note_on channel=9 note=42 velocity=53 time=0
131.6526885 note_on channel=7 note=59 velocity=69 time=1
131.6526885 note_on channel=9 note=62 velocity=81 time=0
131.67334962500001 note_off channel=9 note=40 velocity=0 time=4
131.67851490625 note_off channel=9 note=42 velocity=0 time=1
131.6836801875 note_off channel=9 note=62 velocity=0 time=1
131.68884546875 note_off channel=7 note=55 velocity=0 time=1
131.69917603125 note_off channel=6 note=76 velocity=0 time=2
131.838638625 note_off channel=2 note=64 velocity=0 time=27
131.84380390625 note_off channel=2 note=59 velocity=0 time=1
131.879960875 note_off channel=0 note=64 velocity=0 time=7
131.8902914375 note_on channel=2 note=59 velocity=87 time=2
131.8902914375 note_on channel=2 note=67 velocity=88 time=0
131.89545671874998 note_on channel=0 note=67 velocity=88 time=1
131.89545671874998 note_on channel=6 note=83 velocity=83 time=0
131.89545671874998 note_on channel=9 note=42 velocity=66 time=0
131.900622 note_off channel=1 note=40 velocity=0 time=1
131.900622 note_on channel=1 note=43 velocity=112 time=0
131.900622 note_on channel=7 note=64 velocity=73 time=0
131.900622 note_on channel=9 note=40 velocity=106 time=0
131.90578728125 note_on channel=9 note=62 velocity=96 time=1
131.9109525625 note_on channel=9 note=35 velocity=108 time=1
131.921283125 note_off channel=6 note=79 velocity=0 time=2
131.92644840625 note_off channel=9 note=42 velocity=0 time=1
131.9316136875 note_off channel=9 note=40 velocity=0 time=1
131.93677896875002 note_off channel=9 note=62 velocity=0 time=1
131.94194424999998 note_off channel=9 note=35 velocity=0 time=1
131.94710953125 note_off channel=7 note=59 velocity=0 time=1
132.01942346874998 note_off channel=7 note=64 velocity=0 time=14
132.02458875 note_off channel=2 note=55 velocity=0 time=1
132.04008459375 note_off channel=2 note=59 velocity=0 time=3
132.05041515624998 note_off channel=2 note=67 velocity=0 time=2
132.086572125 note_off channel=6 note=83 velocity=0 time=7
132.11239853125 note_off channel=0 note=67 velocity=0 time=5
132.16405134375 note_off channel=1 note=43 velocity=0 time=10
132.39132371875 note_on channel=3 note=59 velocity=95 time=44
132.8820254375 note_on channel=1 note=40 velocity=111 time=95
132.88719071875 note_off channel=3 note=59 velocity=0 time=1
132.88719071875 note_on channel=3 note=71 velocity=96 time=0
132.88719071875 note_on channel=6 note=47 velocity=75 time=0
132.892356 MetaMessage('time_signature', numerator=3, denominator=4, clocks_per_click=24, notated_32nd_notes_per_beat=8, time=1)
132.892356 note_on channel=2 note=47 velocity=76 time=0
132.892356 note_on channel=2 note=52 velocity=74 time=0
132.892356 note_on channel=2 note=55 velocity=84 time=0
132.892356 note_on channel=9 note=42 velocity=72 time=0
132.89752128125002 note_on channel=2 note=59 velocity=86 time=1
132.89752128125002 note_on channel=9 note=35 velocity=104 time=0
132.90268656249998 note_on channel=2 note=64 velocity=82 time=1
132.9233476875 note_off channel=9 note=42 velocity=0 time=4
132.92851296875 note_off channel=9 note=35 velocity=0 time=1
133.13512421874998 note_on channel=9 note=42 velocity=62 time=40
133.16611590624998 note_off channel=9 note=42 velocity=0 time=6
133.18677703125 note_off channel=2 note=47 velocity=0 time=4
133.202272875 note_off channel=2 note=52 velocity=0 time=3
133.222934 note_off channel=2 note=59 velocity=0 time=4
133.2332645625 note_off channel=2 note=55 velocity=0 time=2
133.2332645625 control_change channel=7 control=11 value=125 time=0
133.24359512499998 note_on channel=2 note=52 velocity=59 time=2
133.24876040625 note_on channel=2 note=47 velocity=56 time=1
133.24876040625 control_change channel=7 control=11 value=118 time=0
133.25909096875 note_on channel=2 note=55 velocity=74 time=2
133.26425625 control_change channel=7 control=11 value=109 time=1
133.2745868125 note_off channel=2 note=64 velocity=0 time=2
133.2745868125 note_on channel=2 note=59 velocity=86 time=0
133.27975209375 control_change channel=7 control=11 value=98 time=1
133.2952479375 note_on channel=2 note=64 velocity=78 time=3
133.2952479375 control_change channel=7 control=11 value=84 time=0
133.31074378125 control_change channel=7 control=11 value=68 time=3
133.326239625 note_on channel=0 note=62 velocity=46 time=3
133.326239625 control_change channel=7 control=11 value=48 time=0
133.34173546875 control_change channel=7 control=11 value=23 time=3
133.36239659375002 control_change channel=7 control=11 value=1 time=4
133.36239659375002 note_on channel=7 note=83 velocity=108 time=0
133.36756187499998 note_on channel=0 note=67 velocity=48 time=1
133.3778924375 note_on channel=9 note=37 velocity=105 time=2
133.38305771875 note_on channel=9 note=42 velocity=58 time=1
133.40371884375 note_on channel=0 note=71 velocity=65 time=4
133.40888412500001 note_off channel=9 note=37 velocity=0 time=1
133.41404940625 note_off channel=9 note=42 velocity=0 time=1
133.42437996875 note_off channel=1 note=40 velocity=0 time=2
133.43471053125 note_on channel=0 note=76 velocity=66 time=2
133.45537165625 control_change channel=7 control=11 value=6 time=4
133.4708675 control_change channel=7 control=11 value=14 time=3
133.48636334375 control_change channel=7 control=11 value=22 time=3
133.5018591875 control_change channel=7 control=11 value=29 time=3
133.51735503125002 control_change channel=7 control=11 value=35 time=3
133.532850875 control_change channel=7 control=11 value=40 time=3
133.54834671875 control_change channel=7 control=11 value=46 time=3
133.56900784375 note_off channel=2 note=64 velocity=0 time=4
133.56900784375 control_change channel=7 control=11 value=52 time=0
133.5845036875 control_change channel=7 control=11 value=60 time=3
133.59999953124998 control_change channel=7 control=11 value=67 time=3
133.61033009375 note_off channel=2 note=59 velocity=0 time=2
133.61033009375 control_change channel=7 control=11 value=73 time=0
133.62066065625 note_on channel=2 note=64 velocity=64 time=2
133.6258259375 note_on channel=1 note=40 velocity=108 time=1
133.6258259375 note_on channel=2 note=59 velocity=69 time=0
133.6258259375 control_change channel=7 control=11 value=78 time=0
133.6258259375 note_on channel=9 note=46 velocity=59 time=0
133.64132178125 control_change channel=7 control=11 value=83 time=3
133.64132178125 note_on channel=9 note=35 velocity=107 time=0
133.656817625 note_off channel=9 note=46 velocity=0 time=3
133.66198290625 control_change channel=7 control=11 value=87 time=1
133.67231346875002 note_off channel=9 note=35 velocity=0 time=2
133.67747874999998 control_change channel=7 control=11 value=91 time=1
133.69297459375 control_change channel=7 control=11 value=95 time=3
133.70847043749998 control_change channel=7 control=11 value=99 time=3
133.72396628125 control_change channel=7 control=11 value=103 time=3
133.739462125 control_change channel=7 control=11 value=106 time=3
133.75495796874998 control_change channel=7 control=11 value=108 time=3
133.7704538125 control_change channel=7 control=11 value=111 time=3
133.78594965624998 control_change channel=7 control=11 value=114 time=3
133.8014455 control_change channel=7 control=11 value=118 time=3
133.81694134375 control_change channel=7 control=11 value=123 time=3
133.8324371875 control_change channel=7 control=11 value=126 time=3
133.86859415625 note_off channel=2 note=59 velocity=0 time=7
133.8737594375 note_on channel=2 note=59 velocity=51 time=1
133.87892471875 note_on channel=9 note=42 velocity=64 time=1
133.90991640625 note_off channel=9 note=42 velocity=0 time=6
134.0390484375 note_off channel=1 note=40 velocity=0 time=25
134.09586653124998 note_off channel=2 note=64 velocity=0 time=11
134.10619709375 note_off channel=2 note=59 velocity=0 time=2
134.111362375 note_on channel=2 note=64 velocity=71 time=1
134.11652765625 note_on channel=1 note=35 velocity=101 time=1
134.11652765625 note_off channel=2 note=55 velocity=0 time=0
134.11652765625 note_on channel=2 note=59 velocity=72 time=0
134.1216929375 note_on channel=2 note=55 velocity=55 time=1
134.12685821875 note_on channel=9 note=42 velocity=63 time=1
134.12685821875 note_on channel=9 note=37 velocity=104 time=0
134.15784990625 note_off channel=9 note=37 velocity=0 time=6
134.15784990625 note_off channel=9 note=42 velocity=0 time=0
134.27148609375 note_off channel=1 note=35 velocity=0 time=22
134.34380003125 note_off channel=2 note=47 velocity=0 time=14
134.35413059375 note_off channel=2 note=64 velocity=0 time=2
134.359295875 note_off channel=2 note=52 velocity=0 time=1
134.359295875 note_off channel=2 note=55 velocity=0 time=0
134.359295875 note_on channel=2 note=47 velocity=58 time=0
134.36446115625 note_off channel=2 note=59 velocity=0 time=1
134.36446115625 note_on channel=2 note=52 velocity=62 time=0
134.36962643750002 note_on channel=1 note=28 velocity=106 time=1
134.36962643750002 note_on channel=2 note=55 velocity=75 time=0
134.36962643750002 note_on channel=2 note=59 velocity=84 time=0
134.37479171875 note_on channel=2 note=64 velocity=75 time=1
134.379957 note_on channel=9 note=42 velocity=73 time=1
134.38512228125 note_on channel=9 note=35 velocity=105 time=1
134.4109486875 note_off channel=9 note=42 velocity=0 time=5
134.41611396875 note_off channel=9 note=35 velocity=0 time=1
134.5968988125 note_off channel=2 note=64 velocity=0 time=35
134.6175599375 note_on channel=2 note=64 velocity=36 time=4
134.6278905 note_on channel=9 note=42 velocity=58 time=2
134.6588821875 note_off channel=9 note=42 velocity=0 time=6
134.71570028124998 note_off channel=1 note=28 velocity=0 time=11
134.7208655625 control_change channel=7 control=11 value=123 time=1
134.7828489375 control_change channel=7 control=11 value=125 time=12
134.79834478125 control_change channel=7 control=11 value=127 time=3
134.813840625 note_off channel=2 note=52 velocity=0 time=3
134.81900590625 note_off channel=2 note=55 velocity=0 time=1
134.86549343750002 note_on channel=1 note=31 velocity=105 time=9
134.86549343750002 note_off channel=2 note=64 velocity=0 time=0
134.86549343750002 note_on channel=2 note=52 velocity=47 time=0
134.87065871874998 note_on channel=9 note=42 velocity=61 time=1
134.87065871874998 note_on channel=9 note=37 velocity=108 time=0
134.875824 note_off channel=2 note=59 velocity=0 time=1
134.875824 note_on channel=2 note=55 velocity=63 time=0
134.88098928125 note_on channel=2 note=59 velocity=77 time=1
134.8861545625 note_on channel=2 note=64 velocity=54 time=1
134.90165040624998 note_off channel=9 note=37 velocity=0 time=3
134.90165040624998 note_off channel=9 note=42 velocity=0 time=0
134.9274768125 control_change channel=7 control=11 value=126 time=5
134.94297265625002 control_change channel=7 control=11 value=123 time=3
134.9584685 control_change channel=7 control=11 value=120 time=3
135.03594771875 control_change channel=7 control=11 value=126 time=15
135.0514435625 control_change channel=7 control=11 value=127 time=3
135.0721046875 note_off channel=2 note=52 velocity=0 time=4
135.08760053125 note_off channel=2 note=64 velocity=0 time=3
135.09793109375002 note_off channel=2 note=47 velocity=0 time=2
135.10826165625 note_off channel=2 note=59 velocity=0 time=2
135.1134269375 note_on channel=2 note=64 velocity=70 time=1
135.11859221875 note_on channel=2 note=59 velocity=79 time=1
135.11859221875 note_on channel=9 note=46 velocity=59 time=0
135.13408806249998 note_on channel=2 note=52 velocity=51 time=3
135.13408806249998 note_on channel=9 note=35 velocity=97 time=0
135.13925334375 note_on channel=2 note=47 velocity=70 time=1
135.14958390625 control_change channel=7 control=11 value=125 time=2
135.14958390625 note_off channel=9 note=46 velocity=0 time=0
135.1547491875 note_off channel=1 note=31 velocity=0 time=1
135.16507975 note_off channel=9 note=35 velocity=0 time=2
135.19090615625 note_off channel=3 note=71 velocity=0 time=5
135.24255896875 control_change channel=7 control=11 value=127 time=10
135.34586459375 note_off channel=2 note=52 velocity=0 time=20
135.35619515625 note_off channel=2 note=55 velocity=0 time=2
135.35619515625 note_off channel=2 note=64 velocity=0 time=0
135.36652571874998 note_on channel=1 note=35 velocity=108 time=2
135.36652571874998 note_off channel=2 note=59 velocity=0 time=0
135.36652571874998 note_on channel=2 note=52 velocity=65 time=0
135.36652571874998 note_on channel=2 note=55 velocity=83 time=0
135.36652571874998 note_on channel=9 note=42 velocity=69 time=0
135.371691 note_on channel=2 note=59 velocity=84 time=1
135.37685628125 note_on channel=3 note=69 velocity=98 time=1
135.3820215625 note_on channel=2 note=64 velocity=75 time=1
135.39751740625 note_off channel=9 note=42 velocity=0 time=3
135.5059883125 note_off channel=7 note=83 velocity=0 time=21
135.5886328125 note_off channel=2 note=64 velocity=0 time=16
135.6092939375 note_on channel=2 note=64 velocity=60 time=4
135.6092939375 note_on channel=9 note=42 velocity=63 time=0
135.62478978125 note_on channel=9 note=37 velocity=107 time=3
135.6299550625 note_off channel=2 note=47 velocity=0 time=1
135.63512034375 note_off channel=1 note=35 velocity=0 time=1
135.64028562500002 note_off channel=9 note=42 velocity=0 time=1
135.65578146875 note_off channel=9 note=37 velocity=0 time=3
135.681607875 note_off channel=6 note=47 velocity=0 time=5
135.81073990625 note_off channel=2 note=64 velocity=0 time=25
135.82623575000002 note_off channel=0 note=71 velocity=0 time=3
135.83140103124998 note_off channel=0 note=67 velocity=0 time=1
135.84173159375 note_off channel=2 note=52 velocity=0 time=2
135.846896875 note_off channel=0 note=76 velocity=0 time=1
135.846896875 note_off channel=2 note=55 velocity=0 time=0
135.85206215625 note_on channel=2 note=52 velocity=58 time=1
135.8572274375 note_on channel=1 note=36 velocity=106 time=1
135.8572274375 note_off channel=2 note=59 velocity=0 time=0
135.8572274375 note_on channel=2 note=48 velocity=48 time=0
135.8572274375 note_on channel=2 note=55 velocity=78 time=0
135.86239271875 note_off channel=0 note=62 velocity=0 time=1
135.86239271875 note_on channel=9 note=42 velocity=72 time=0
135.867558 note_on channel=2 note=59 velocity=82 time=1
135.87272328125002 note_on channel=2 note=64 velocity=66 time=1
135.87272328125002 note_off channel=3 note=69 velocity=0 time=0
135.87272328125002 note_on channel=3 note=64 velocity=103 time=0
135.87272328125002 note_on channel=6 note=48 velocity=91 time=0
135.87272328125002 note_on channel=9 note=35 velocity=105 time=0
135.89338440625 note_off channel=9 note=42 velocity=0 time=4
135.90371496875002 note_off channel=9 note=35 velocity=0 time=2
135.970863625 control_change channel=7 control=11 value=125 time=13
135.98635946874998 control_change channel=7 control=11 value=122 time=3
136.0018553125 control_change channel=7 control=11 value=118 time=3
136.01735115625 control_change channel=7 control=11 value=112 time=3
136.032847 control_change channel=7 control=11 value=106 time=3
136.04834284375 control_change channel=7 control=11 value=99 time=3
136.06383868749998 control_change channel=7 control=11 value=91 time=3
136.07933453125 control_change channel=7 control=11 value=83 time=3
136.094830375 control_change channel=7 control=11 value=74 time=3
136.09999565625 note_off channel=2 note=64 velocity=0 time=1
136.10516093750002 note_on channel=9 note=42 velocity=64 time=1
136.11032621875 note_on channel=2 note=64 velocity=58 time=1
136.11032621875 control_change channel=7 control=11 value=63 time=0
136.1258220625 control_change channel=7 control=11 value=52 time=3
136.13615262500002 note_off channel=9 note=42 velocity=0 time=2
136.14131790624998 control_change channel=7 control=11 value=40 time=1
136.15681375 control_change channel=7 control=11 value=29 time=3
136.17230959375 control_change channel=7 control=11 value=16 time=3
136.1878054375 control_change channel=7 control=11 value=5 time=3
136.20330128125 control_change channel=7 control=11 value=1 time=3
136.22396240625 note_on channel=0 note=62 velocity=38 time=4
136.2704499375 note_on channel=0 note=67 velocity=42 time=9
136.2807805 note_on channel=7 note=81 velocity=122 time=2
136.3324333125 note_on channel=0 note=71 velocity=65 time=10
136.34792915625 note_off channel=2 note=52 velocity=0 time=3
136.34792915625 control_change channel=7 control=11 value=4 time=0
136.3530944375 note_on channel=2 note=52 velocity=41 time=1
136.3530944375 note_on channel=9 note=42 velocity=65 time=0
136.35825971875 note_off channel=2 note=55 velocity=0 time=1
136.35825971875 note_on channel=9 note=37 velocity=110 time=0
136.363425 note_off channel=2 note=59 velocity=0 time=1
136.363425 note_on channel=2 note=55 velocity=53 time=0
136.363425 control_change channel=7 control=11 value=8 time=0
136.36859028125002 note_on channel=0 note=76 velocity=64 time=1
136.36859028125002 note_on channel=2 note=59 velocity=52 time=0
136.37892084375 control_change channel=7 control=11 value=14 time=2
136.384086125 note_off channel=9 note=42 velocity=0 time=1
136.38925140625 note_off channel=9 note=37 velocity=0 time=1
136.39958196875 control_change channel=7 control=11 value=19 time=2
136.40991253125 control_change channel=7 control=11 value=25 time=2
136.425408375 control_change channel=7 control=11 value=30 time=3
136.44090421875 control_change channel=7 control=11 value=35 time=3
136.4564000625 control_change channel=7 control=11 value=40 time=3
136.4770611875 control_change channel=7 control=11 value=45 time=4
136.49255703125002 control_change channel=7 control=11 value=50 time=3
136.508052875 control_change channel=7 control=11 value=55 time=3
136.52354871875002 control_change channel=7 control=11 value=59 time=3
136.5390445625 control_change channel=7 control=11 value=63 time=3
136.55454040625 control_change channel=7 control=11 value=67 time=3
136.57003625000002 control_change channel=7 control=11 value=71 time=3
136.57003625000002 note_on channel=9 note=46 velocity=65 time=0
136.58553209375 control_change channel=7 control=11 value=76 time=3
136.60102793750002 note_off channel=2 note=64 velocity=0 time=3
136.60102793750002 control_change channel=7 control=11 value=81 time=0
136.60102793750002 note_off channel=9 note=46 velocity=0 time=0
136.60619321874998 note_off channel=2 note=59 velocity=0 time=1
136.60619321874998 note_on channel=2 note=64 velocity=72 time=0
136.6113585 note_on channel=2 note=59 velocity=80 time=1
136.61652378125 note_off channel=2 note=55 velocity=0 time=1
136.61652378125 control_change channel=7 control=11 value=86 time=0
136.61652378125 note_on channel=9 note=35 velocity=105 time=0
136.6216890625 note_on channel=2 note=55 velocity=65 time=1
136.62685434375 note_off channel=2 note=48 velocity=0 time=1
136.632019625 control_change channel=7 control=11 value=91 time=1
136.64751546875002 control_change channel=7 control=11 value=96 time=3
136.64751546875002 note_off channel=9 note=35 velocity=0 time=0
136.6630113125 control_change channel=7 control=11 value=102 time=3
136.67850715625002 control_change channel=7 control=11 value=107 time=3
136.694003 control_change channel=7 control=11 value=113 time=3
136.70949884375 control_change channel=7 control=11 value=121 time=3
136.72499468750001 control_change channel=7 control=11 value=126 time=3
136.8489614375 note_on channel=9 note=42 velocity=69 time=24
136.87995312500001 note_off channel=9 note=42 velocity=0 time=6
137.045242125 control_change channel=7 control=11 value=121 time=32
137.06073796875 control_change channel=7 control=11 value=116 time=3
137.0762338125 control_change channel=7 control=11 value=111 time=3
137.08139909375 note_off channel=2 note=64 velocity=0 time=1
137.086564375 control_change channel=7 control=11 value=106 time=1
137.09172965625 note_on channel=9 note=42 velocity=64 time=1
137.0968949375 note_on channel=9 note=37 velocity=104 time=1
137.10206021874998 note_off channel=2 note=59 velocity=0 time=1
137.10206021874998 note_off channel=2 note=55 velocity=0 time=0
137.10206021874998 note_on channel=2 note=64 velocity=86 time=0
137.1072255 note_on channel=2 note=59 velocity=83 time=1
137.1072255 control_change channel=7 control=11 value=101 time=0
137.11239078125 note_off channel=2 note=52 velocity=0 time=1
137.11239078125 note_on channel=2 note=55 velocity=72 time=0
137.1175560625 note_on channel=2 note=52 velocity=56 time=1
137.1175560625 control_change channel=7 control=11 value=95 time=0
137.12272134375 note_on channel=2 note=48 velocity=54 time=1
137.12272134375 note_off channel=9 note=42 velocity=0 time=0
137.127886625 note_off channel=9 note=37 velocity=0 time=1
137.1382171875 control_change channel=7 control=11 value=89 time=2
137.15371303125 control_change channel=7 control=11 value=83 time=3
137.169208875 control_change channel=7 control=11 value=76 time=3
137.18470471875 control_change channel=7 control=11 value=69 time=3
137.2002005625 control_change channel=7 control=11 value=62 time=3
137.21569640625 control_change channel=7 control=11 value=55 time=3
137.23119225 control_change channel=7 control=11 value=48 time=3
137.24668809375 control_change channel=7 control=11 value=44 time=3
137.2621839375 control_change channel=7 control=11 value=41 time=3
137.27767978125 control_change channel=7 control=11 value=39 time=3
137.31383675 note_off channel=7 note=81 velocity=0 time=7
137.31383675 control_change channel=7 control=11 value=42 time=0
137.3241673125 note_off channel=1 note=36 velocity=0 time=2
137.3241673125 control_change channel=7 control=11 value=45 time=0
137.33966315625 note_off channel=2 note=52 velocity=0 time=3
137.3448284375 note_off channel=2 note=55 velocity=0 time=1
137.3448284375 control_change channel=7 control=11 value=48 time=0
137.3448284375 note_on channel=9 note=42 velocity=68 time=0
137.34999371875 note_on channel=1 note=31 velocity=108 time=1
137.35515900000001 note_on channel=2 note=52 velocity=66 time=1
137.35515900000001 note_on channel=7 note=76 velocity=108 time=0
137.35515900000001 control_change channel=7 control=11 value=52 time=0
137.36032428125 note_on channel=2 note=55 velocity=83 time=1
137.36032428125 note_on channel=9 note=35 velocity=103 time=0
137.37065484375 control_change channel=7 control=11 value=57 time=2
137.37582012500002 note_off channel=9 note=42 velocity=0 time=1
137.39131596875 control_change channel=7 control=11 value=63 time=3
137.39131596875 note_off channel=9 note=35 velocity=0 time=0
137.40681181250002 control_change channel=7 control=11 value=70 time=3
137.42230765625 control_change channel=7 control=11 value=77 time=3
137.44296878125 control_change channel=7 control=11 value=85 time=4
137.45329934375002 control_change channel=7 control=11 value=92 time=2
137.4687951875 control_change channel=7 control=11 value=99 time=3
137.48429103125002 control_change channel=7 control=11 value=104 time=3
137.499786875 control_change channel=7 control=11 value=108 time=3
137.51528271875 control_change channel=7 control=11 value=111 time=3
137.53594384375 control_change channel=7 control=11 value=113 time=4
137.5514396875 control_change channel=7 control=11 value=115 time=3
137.56693553124998 control_change channel=7 control=11 value=117 time=3
137.582431375 control_change channel=7 control=11 value=119 time=3
137.58759665625 note_off channel=2 note=64 velocity=0 time=1
137.5927619375 control_change channel=7 control=11 value=121 time=1
137.5927619375 note_on channel=9 note=42 velocity=62 time=0
137.6030925 note_on channel=2 note=64 velocity=71 time=2
137.60825778125002 note_off channel=2 note=59 velocity=0 time=1
137.6134230625 note_on channel=2 note=59 velocity=71 time=1
137.623753625 note_off channel=9 note=42 velocity=0 time=2
137.64441474999998 control_change channel=7 control=11 value=124 time=4
137.69090228125 control_change channel=7 control=11 value=127 time=9
137.8200343125 note_off channel=2 note=52 velocity=0 time=25
137.830364875 note_off channel=2 note=55 velocity=0 time=2
137.83553015625 note_off channel=2 note=59 velocity=0 time=1
137.83553015625 note_on channel=2 note=52 velocity=54 time=0
137.84069543750002 note_on channel=9 note=42 velocity=63 time=1
137.84586071875 note_on channel=2 note=55 velocity=71 time=1
137.84586071875 note_on channel=2 note=59 velocity=79 time=0
137.8613565625 note_on channel=9 note=37 velocity=104 time=3
137.87168712500002 note_off channel=9 note=42 velocity=0 time=2
137.89234825 note_off channel=9 note=37 velocity=0 time=4
138.0473066875 note_off channel=2 note=55 velocity=0 time=30
138.0679678125 note_off channel=2 note=64 velocity=0 time=4
138.07313309375002 control_change channel=7 control=11 value=126 time=1
138.08346365625 note_off channel=2 note=59 velocity=0 time=2
138.08346365625 note_on channel=9 note=46 velocity=64 time=0
138.0886289375 note_on channel=2 note=64 velocity=78 time=1
138.0886289375 control_change channel=7 control=11 value=123 time=0
138.09379421875 note_on channel=2 note=59 velocity=81 time=1
138.0989595 note_on channel=2 note=55 velocity=78 time=1
138.10412478125002 note_off channel=2 note=48 velocity=0 time=1
138.10412478125002 control_change channel=7 control=11 value=119 time=0
138.10412478125002 note_on channel=9 note=35 velocity=101 time=0
138.11445534375 note_on channel=2 note=48 velocity=61 time=2
138.11445534375 note_off channel=9 note=46 velocity=0 time=0
138.119620625 control_change channel=7 control=11 value=115 time=1
138.13511646875 control_change channel=7 control=11 value=111 time=3
138.13511646875 note_off channel=9 note=35 velocity=0 time=0
138.15061231250002 control_change channel=7 control=11 value=108 time=3
138.16610815625 control_change channel=7 control=11 value=104 time=3
138.18160400000002 control_change channel=7 control=11 value=101 time=3
138.19709984375 control_change channel=7 control=11 value=98 time=3
138.2125956875 control_change channel=7 control=11 value=96 time=3
138.22809153125002 control_change channel=7 control=11 value=94 time=3
138.243587375 control_change channel=7 control=11 value=92 time=3
138.25908321875002 control_change channel=7 control=11 value=91 time=3
138.2745790625 control_change channel=7 control=11 value=89 time=3
138.29007490625 control_change channel=7 control=11 value=88 time=3
138.3159013125 note_off channel=3 note=64 velocity=0 time=5
138.346893 note_on channel=9 note=42 velocity=68 time=6
138.367554125 control_change channel=7 control=11 value=90 time=4
138.3778846875 note_off channel=9 note=42 velocity=0 time=2
138.38304996875002 control_change channel=7 control=11 value=93 time=1
138.40371109375 control_change channel=7 control=11 value=98 time=4
138.41920693749998 control_change channel=7 control=11 value=104 time=3
138.43470278125 control_change channel=7 control=11 value=111 time=3
138.44503334375 note_off channel=7 note=76 velocity=0 time=2
138.45019862499998 control_change channel=7 control=11 value=118 time=1
138.46569446875 control_change channel=7 control=11 value=124 time=3
138.4811903125 control_change channel=7 control=11 value=126 time=3
138.57416537499998 note_off channel=2 note=64 velocity=0 time=18
138.57933065625 note_on channel=2 note=64 velocity=62 time=1
138.5844959375 note_off channel=2 note=59 velocity=0 time=1
138.58966121875 note_on channel=2 note=59 velocity=64 time=1
138.58966121875 note_on channel=9 note=37 velocity=110 time=0
138.5948265 note_on channel=9 note=42 velocity=65 time=1
138.61032234375 control_change channel=7 control=11 value=123 time=3
138.62065290625 note_off channel=9 note=37 velocity=0 time=2
138.6258181875 control_change channel=7 control=11 value=117 time=1
138.6258181875 note_off channel=9 note=42 velocity=0 time=0
138.63098346875 note_off channel=1 note=31 velocity=0 time=1
138.64131403125 note_off channel=2 note=52 velocity=0 time=2
138.64131403125 control_change channel=7 control=11 value=111 time=0
138.65164459374998 note_off channel=6 note=48 velocity=0 time=2
138.65164459374998 control_change channel=7 control=11 value=105 time=0
138.67230571875 control_change channel=7 control=11 value=99 time=4
138.6878015625 control_change channel=7 control=11 value=94 time=3
138.70329740625 control_change channel=7 control=11 value=88 time=3
138.71879325 control_change channel=7 control=11 value=81 time=3
138.72395853125002 note_off channel=2 note=48 velocity=0 time=1
138.73428909375 control_change channel=7 control=11 value=73 time=2
138.74461965625 note_off channel=2 note=55 velocity=0 time=2
138.7497849375 control_change channel=7 control=11 value=65 time=1
138.76528078125 control_change channel=7 control=11 value=56 time=3
138.780776625 control_change channel=7 control=11 value=50 time=3
138.79627246875 control_change channel=7 control=11 value=45 time=3
138.80143775000002 note_on channel=7 note=69 velocity=98 time=1
138.80660303124998 note_off channel=0 note=67 velocity=0 time=1
138.8117683125 note_off channel=0 note=71 velocity=0 time=1
138.8117683125 control_change channel=7 control=11 value=43 time=0
138.81693359375 note_off channel=0 note=76 velocity=0 time=1
138.82726415625 note_off channel=2 note=64 velocity=0 time=2
138.82726415625 note_on channel=6 note=49 velocity=99 time=0
138.8324294375 note_off channel=2 note=59 velocity=0 time=1
138.83759471874998 note_on channel=1 note=37 velocity=102 time=1
138.83759471874998 note_on channel=9 note=35 velocity=101 time=0
138.83759471874998 note_on channel=9 note=42 velocity=68 time=0
138.84276 note_off channel=0 note=62 velocity=0 time=1
138.84276 note_on channel=2 note=49 velocity=75 time=0
138.84792528125 note_on channel=2 note=55 velocity=82 time=1
138.84792528125 note_on channel=3 note=69 velocity=101 time=0
138.8530905625 note_on channel=2 note=52 velocity=69 time=1
138.85825584375 note_on channel=2 note=59 velocity=86 time=1
138.85825584375 note_on channel=2 note=64 velocity=84 time=0
138.85825584375 control_change channel=7 control=11 value=48 time=0
138.86858640625 note_off channel=9 note=42 velocity=0 time=2
138.86858640625 note_off channel=9 note=35 velocity=0 time=0
138.8737516875 control_change channel=7 control=11 value=52 time=1
138.88924753125 control_change channel=7 control=11 value=56 time=3
138.90990865625 control_change channel=7 control=11 value=60 time=4
138.92023921875 control_change channel=7 control=11 value=65 time=2
138.94090034375 control_change channel=7 control=11 value=69 time=4
138.95639618750002 control_change channel=7 control=11 value=74 time=3
138.97189203125 control_change channel=7 control=11 value=79 time=3
138.987387875 control_change channel=7 control=11 value=85 time=3
139.00288371875 control_change channel=7 control=11 value=90 time=3
139.0183795625 control_change channel=7 control=11 value=95 time=3
139.03387540625002 control_change channel=7 control=11 value=100 time=3
139.04937125 control_change channel=7 control=11 value=104 time=3
139.06486709375002 control_change channel=7 control=11 value=108 time=3
139.0803629375 control_change channel=7 control=11 value=111 time=3
139.08552821875 note_on channel=9 note=42 velocity=65 time=1
139.1010240625 control_change channel=7 control=11 value=115 time=3
139.11651990625 control_change channel=7 control=11 value=119 time=3
139.11651990625 note_off channel=9 note=42 velocity=0 time=0
139.12685046875 control_change channel=7 control=11 value=124 time=2
139.14751159374998 control_change channel=7 control=11 value=126 time=4
139.23015609375 note_on channel=0 note=67 velocity=49 time=16
139.276643625 note_on channel=0 note=71 velocity=64 time=9
139.29213946875 note_off channel=2 note=52 velocity=0 time=3
139.31280059375 note_off channel=3 note=69 velocity=0 time=4
139.32313115625 note_on channel=2 note=52 velocity=28 time=2
139.32313115625 note_on channel=3 note=71 velocity=100 time=0
139.3282964375 note_on channel=9 note=37 velocity=101 time=1
139.3282964375 note_on channel=9 note=42 velocity=66 time=0
139.338627 note_on channel=0 note=76 velocity=62 time=2
139.359288125 note_off channel=9 note=42 velocity=0 time=4
139.359288125 note_off channel=9 note=37 velocity=0 time=0
139.54007296875 note_off channel=2 note=64 velocity=0 time=35
139.56073409375 note_off channel=2 note=59 velocity=0 time=4
139.57106465625 note_off channel=2 note=52 velocity=0 time=2
139.57622993750002 note_off channel=2 note=55 velocity=0 time=1
139.57622993750002 note_on channel=2 note=64 velocity=86 time=0
139.57622993750002 note_on channel=9 note=35 velocity=110 time=0
139.57622993750002 note_on channel=9 note=46 velocity=61 time=0
139.58139521875 note_on channel=2 note=59 velocity=86 time=1
139.5865605 note_on channel=2 note=55 velocity=82 time=1
139.59172578125 note_off channel=2 note=49 velocity=0 time=1
139.59172578125 note_on channel=2 note=52 velocity=59 time=0
139.5968910625 note_on channel=2 note=49 velocity=69 time=1
139.60722162500002 note_off channel=9 note=46 velocity=0 time=2
139.60722162500002 note_off channel=9 note=35 velocity=0 time=0
139.76218006250002 control_change channel=7 control=11 value=122 time=30
139.77767590625 control_change channel=7 control=11 value=120 time=3
139.79317175 control_change channel=7 control=11 value=117 time=3
139.80866759375002 note_off channel=2 note=52 velocity=0 time=3
139.80866759375002 control_change channel=7 control=11 value=114 time=0
139.81899815625 note_off channel=3 note=71 velocity=0 time=2
139.81899815625 note_on channel=3 note=74 velocity=97 time=0
139.8241634375 control_change channel=7 control=11 value=111 time=1
139.82932871875 note_on channel=2 note=52 velocity=44 time=1
139.82932871875 note_on channel=9 note=42 velocity=70 time=0
139.83965928125002 control_change channel=7 control=11 value=109 time=2
139.855155125 control_change channel=7 control=11 value=105 time=3
139.86032040625 note_off channel=9 note=42 velocity=0 time=1
139.87065096875 control_change channel=7 control=11 value=102 time=2
139.88614681250002 control_change channel=7 control=11 value=99 time=3
139.90164265625 control_change channel=7 control=11 value=96 time=3
139.92230378124998 control_change channel=7 control=11 value=93 time=4
139.93263434375 control_change channel=7 control=11 value=90 time=2
139.95329546874999 control_change channel=7 control=11 value=87 time=4
139.9687913125 control_change channel=7 control=11 value=83 time=3
139.98428715625 control_change channel=7 control=11 value=79 time=3
139.99978299999998 control_change channel=7 control=11 value=74 time=3
140.01527884375 control_change channel=7 control=11 value=70 time=3
140.03077468749999 control_change channel=7 control=11 value=65 time=3
140.04627053125 control_change channel=7 control=11 value=59 time=3
140.05660109375 note_off channel=2 note=64 velocity=0 time=2
140.061766375 note_off channel=2 note=59 velocity=0 time=1
140.061766375 note_off channel=3 note=74 velocity=0 time=0
140.061766375 control_change channel=7 control=11 value=54 time=0
140.06693165625 note_on channel=2 note=64 velocity=56 time=1
140.07726221874998 note_off channel=2 note=55 velocity=0 time=2
140.07726221874998 note_on channel=2 note=59 velocity=64 time=0
140.07726221874998 control_change channel=7 control=11 value=48 time=0
140.07726221874998 note_on channel=9 note=37 velocity=107 time=0
140.07726221874998 note_on channel=9 note=42 velocity=68 time=0
140.08759278125 note_on channel=2 note=55 velocity=42 time=2
140.08759278125 note_on channel=3 note=76 velocity=97 time=0
140.0927580625 note_off channel=7 note=69 velocity=0 time=1
140.0927580625 control_change channel=7 control=11 value=43 time=0
140.10825390624998 control_change channel=7 control=11 value=39 time=3
140.10825390624998 note_off channel=9 note=42 velocity=0 time=0
140.10825390624998 note_off channel=9 note=37 velocity=0 time=0
140.12374975 control_change channel=7 control=11 value=35 time=3
140.13924559375 control_change channel=7 control=11 value=31 time=3
140.15990671875 control_change channel=7 control=11 value=28 time=4
140.1754025625 control_change channel=7 control=11 value=26 time=3
140.18573312499998 note_off channel=2 note=49 velocity=0 time=2
140.20122896875 note_off channel=2 note=52 velocity=0 time=3
140.22705537500002 note_off channel=1 note=37 velocity=0 time=5
140.22705537500002 note_on channel=7 note=67 velocity=101 time=0
140.25288178125 control_change channel=7 control=11 value=31 time=5
140.26321234374998 note_off channel=6 note=49 velocity=0 time=2
140.26321234374998 control_change channel=7 control=11 value=34 time=0
140.28387346875 control_change channel=7 control=11 value=39 time=4
140.2993693125 control_change channel=7 control=11 value=43 time=3
140.30969987499998 note_off channel=2 note=64 velocity=0 time=2
140.31486515625 note_on channel=1 note=36 velocity=102 time=1
140.31486515625 note_on channel=6 note=48 velocity=87 time=0
140.31486515625 control_change channel=7 control=11 value=49 time=0
140.3200304375 note_on channel=9 note=42 velocity=68 time=1
140.32519571875 note_on channel=2 note=48 velocity=77 time=1
140.330361 note_off channel=2 note=55 velocity=0 time=1
140.330361 control_change channel=7 control=11 value=54 time=0
140.330361 note_on channel=9 note=35 velocity=104 time=0
140.33552628125 note_on channel=2 note=55 velocity=83 time=1
140.34069156249998 note_on channel=2 note=52 velocity=75 time=1
140.34585684375 note_on channel=2 note=64 velocity=72 time=1
140.34585684375 control_change channel=7 control=11 value=60 time=0
140.35102212500001 note_off channel=9 note=42 velocity=0 time=1
140.3613526875 control_change channel=7 control=11 value=66 time=2
140.3613526875 note_off channel=9 note=35 velocity=0 time=0
140.37684853125 control_change channel=7 control=11 value=72 time=3
140.392344375 control_change channel=7 control=11 value=78 time=3
140.40784021875 control_change channel=7 control=11 value=83 time=3
140.4233360625 control_change channel=7 control=11 value=89 time=3
140.43883190625 control_change channel=7 control=11 value=96 time=3
140.45949303125002 control_change channel=7 control=11 value=104 time=4
140.474988875 control_change channel=7 control=11 value=112 time=3
140.49048471875 control_change channel=7 control=11 value=122 time=3
140.5059805625 control_change channel=7 control=11 value=127 time=3
140.53697225000002 note_off channel=2 note=64 velocity=0 time=6
140.56279865625 note_on channel=9 note=42 velocity=68 time=5
140.5679639375 note_on channel=2 note=64 velocity=56 time=1
140.59379034375 note_off channel=9 note=42 velocity=0 time=5
140.64544315625 note_off channel=0 note=67 velocity=0 time=10
140.660939 note_off channel=0 note=71 velocity=0 time=3
140.722922375 note_on channel=0 note=67 velocity=44 time=12
140.72808765624998 note_off channel=0 note=76 velocity=0 time=1
140.7745751875 note_on channel=0 note=71 velocity=62 time=9
140.7952363125 note_off channel=2 note=52 velocity=0 time=4
140.7952363125 note_off channel=2 note=48 velocity=0 time=0
140.80556687499998 note_off channel=2 note=55 velocity=0 time=2
140.8158974375 note_on channel=2 note=48 velocity=34 time=2
140.8158974375 note_on channel=2 note=52 velocity=37 time=0
140.8158974375 note_on channel=9 note=42 velocity=65 time=0
140.8158974375 note_on channel=9 note=37 velocity=105 time=0
140.82622800000001 note_on channel=2 note=55 velocity=31 time=2
140.84172384375 note_on channel=0 note=76 velocity=56 time=3
140.84688912500002 note_off channel=9 note=37 velocity=0 time=1
140.84688912500002 note_off channel=9 note=42 velocity=0 time=0
141.0431698125 note_off channel=2 note=59 velocity=0 time=38
141.0431698125 note_off channel=2 note=64 velocity=0 time=0
141.05866565625 note_on channel=2 note=64 velocity=88 time=3
141.05866565625 note_on channel=9 note=46 velocity=58 time=0
141.0638309375 note_off channel=2 note=55 velocity=0 time=1
141.0638309375 note_on channel=2 note=59 velocity=84 time=0
141.0741615 note_on channel=2 note=55 velocity=82 time=2
141.0741615 note_on channel=9 note=35 velocity=101 time=0
141.08965734375 note_off channel=9 note=46 velocity=0 time=3
141.094822625 note_off channel=2 note=48 velocity=0 time=1
141.09998790625 note_on channel=2 note=48 velocity=49 time=1
141.1051531875 note_off channel=9 note=35 velocity=0 time=1
141.2911033125 note_off channel=3 note=76 velocity=0 time=36
141.29626859375 note_on channel=3 note=79 velocity=97 time=1
141.32726028125 control_change channel=7 control=11 value=126 time=6
141.32726028125 note_on channel=9 note=42 velocity=65 time=0
141.35825196875 note_off channel=9 note=42 velocity=0 time=6
141.4357311875 control_change channel=7 control=11 value=123 time=15
141.48221871875 control_change channel=7 control=11 value=121 time=9
141.487384 note_off channel=7 note=67 velocity=0 time=1
141.52870625 note_off channel=2 note=52 velocity=0 time=8
141.53387153124999 note_off channel=2 note=64 velocity=0 time=1
141.54420209375002 note_off channel=1 note=36 velocity=0 time=2
141.549367375 note_off channel=2 note=59 velocity=0 time=1
141.549367375 note_on channel=2 note=64 velocity=79 time=0
141.5596979375 note_on channel=2 note=59 velocity=79 time=2
141.56486321875 note_on channel=9 note=37 velocity=101 time=1
141.58035906249998 note_on channel=2 note=52 velocity=38 time=3
141.58035906249998 note_on channel=9 note=42 velocity=69 time=0
141.59585490625 note_off channel=9 note=37 velocity=0 time=3
141.61135074999999 note_off channel=9 note=42 velocity=0 time=3
141.63717715625 note_off channel=6 note=48 velocity=0 time=5
141.714656375 note_off channel=2 note=48 velocity=0 time=15
141.79213559375 note_off channel=2 note=52 velocity=0 time=15
141.797300875 note_off channel=2 note=64 velocity=0 time=1
141.80246615625 note_off channel=3 note=79 velocity=0 time=1
141.80246615625 note_on channel=3 note=76 velocity=97 time=0
141.80246615625 note_on channel=6 note=47 velocity=97 time=0
141.80763143750002 note_off channel=2 note=55 velocity=0 time=1
141.80763143750002 note_on channel=2 note=47 velocity=56 time=0
141.81279671874998 note_on channel=1 note=35 velocity=106 time=1
141.81279671874998 note_on channel=2 note=52 velocity=71 time=0
141.81279671874998 note_on channel=2 note=55 velocity=81 time=0
141.81279671874998 note_on channel=9 note=35 velocity=108 time=0
141.82312728125 note_on channel=9 note=42 velocity=76 time=2
141.8282925625 note_on channel=2 note=64 velocity=65 time=1
141.84378840624998 note_off channel=9 note=35 velocity=0 time=3
141.85411896875002 note_off channel=9 note=42 velocity=0 time=2
141.97808571875 note_off channel=0 note=76 velocity=0 time=24
142.07106078125 note_on channel=9 note=42 velocity=68 time=18
142.08655662500001 control_change channel=7 control=11 value=118 time=3
142.10205246875 control_change channel=7 control=11 value=116 time=3
142.10205246875 note_off channel=9 note=42 velocity=0 time=0
142.11754831250002 control_change channel=7 control=11 value=114 time=3
142.13304415625 control_change channel=7 control=11 value=111 time=3
142.1382094375 note_off channel=2 note=47 velocity=0 time=1
142.14337471875 note_off channel=0 note=67 velocity=0 time=1
142.14854 control_change channel=7 control=11 value=108 time=1
142.1588705625 note_off channel=2 note=52 velocity=0 time=2
142.16403584375 note_on channel=2 note=47 velocity=87 time=1
142.16403584375 control_change channel=7 control=11 value=105 time=0
142.17436640625 note_off channel=2 note=55 velocity=0 time=2
142.17436640625 note_on channel=2 note=52 velocity=79 time=0
142.1795316875 control_change channel=7 control=11 value=102 time=1
142.18469696875 note_off channel=0 note=71 velocity=0 time=1
142.18469696875 note_on channel=0 note=62 velocity=37 time=0
142.18986225 note_off channel=2 note=59 velocity=0 time=1
142.19502753125002 note_on channel=2 note=55 velocity=88 time=1
142.19502753125002 control_change channel=7 control=11 value=98 time=0
142.210523375 control_change channel=7 control=11 value=93 time=3
142.21568865625 note_on channel=2 note=59 velocity=97 time=1
142.22601921875 note_on channel=0 note=67 velocity=43 time=2
142.22601921875 control_change channel=7 control=11 value=89 time=0
142.2415150625 note_off channel=2 note=64 velocity=0 time=3
142.2415150625 control_change channel=7 control=11 value=85 time=0
142.25701090625 control_change channel=7 control=11 value=81 time=3
142.27250675000002 control_change channel=7 control=11 value=80 time=3
142.27767203124998 note_on channel=0 note=71 velocity=61 time=1
142.293167875 note_on channel=7 note=67 velocity=97 time=3
142.3034984375 note_on channel=9 note=37 velocity=101 time=2
142.30866371874998 note_on channel=2 note=64 velocity=91 time=1
142.30866371874998 note_on channel=9 note=42 velocity=66 time=0
142.334490125 note_off channel=9 note=37 velocity=0 time=5
142.33965540625 note_on channel=0 note=76 velocity=55 time=1
142.33965540625 note_off channel=9 note=42 velocity=0 time=0
142.38614293749998 control_change channel=7 control=11 value=85 time=9
142.40163878125 control_change channel=7 control=11 value=88 time=3
142.417134625 control_change channel=7 control=11 value=92 time=3
142.43263046874998 control_change channel=7 control=11 value=97 time=3
142.4481263125 control_change channel=7 control=11 value=103 time=3
142.46362215624998 control_change channel=7 control=11 value=109 time=3
142.479118 control_change channel=7 control=11 value=115 time=3
142.49461384375 control_change channel=7 control=11 value=121 time=3
142.5101096875 control_change channel=7 control=11 value=125 time=3
142.52560553125 control_change channel=7 control=11 value=127 time=3
142.5307708125 note_off channel=2 note=59 velocity=0 time=1
142.54110137499998 note_off channel=2 note=64 velocity=0 time=2
142.5514319375 note_on channel=2 note=64 velocity=79 time=2
142.55659721875 note_on channel=2 note=59 velocity=86 time=1
142.55659721875 note_on channel=9 note=46 velocity=63 time=0
142.56692778125 note_on channel=9 note=35 velocity=108 time=2
142.58758890625 note_off channel=9 note=46 velocity=0 time=4
142.59791946875 note_off channel=9 note=35 velocity=0 time=2
142.64957228125 control_change channel=7 control=11 value=126 time=10
142.67023340625 control_change channel=7 control=11 value=124 time=4
142.68572925 control_change channel=7 control=11 value=120 time=3
142.70122509375 control_change channel=7 control=11 value=116 time=3
142.7167209375 control_change channel=7 control=11 value=113 time=3
142.73221678125 control_change channel=7 control=11 value=111 time=3
142.747712625 control_change channel=7 control=11 value=109 time=3
142.78386959375 note_on channel=7 note=69 velocity=93 time=7
142.79420015625 note_off channel=2 note=52 velocity=0 time=2
142.80453071875 note_off channel=2 note=59 velocity=0 time=2
142.809696 note_off channel=2 note=55 velocity=0 time=1
142.809696 note_on channel=2 note=52 velocity=38 time=0
142.809696 control_change channel=7 control=11 value=113 time=0
142.81486128125002 note_on channel=9 note=42 velocity=64 time=1
142.8200265625 note_on channel=2 note=55 velocity=52 time=1
142.82519184375 note_on channel=2 note=59 velocity=40 time=1
142.82519184375 control_change channel=7 control=11 value=116 time=0
142.84585296875002 control_change channel=7 control=11 value=120 time=4
142.84585296875002 note_off channel=9 note=42 velocity=0 time=0
142.8613488125 control_change channel=7 control=11 value=125 time=3
142.86651409375 note_off channel=1 note=35 velocity=0 time=1
142.87684465625 control_change channel=7 control=11 value=126 time=2
142.9026710625 note_off channel=7 note=67 velocity=0 time=5
143.036968375 note_off channel=2 note=59 velocity=0 time=26
143.04213365625 note_off channel=2 note=64 velocity=0 time=1
143.04729893750002 note_on channel=2 note=64 velocity=64 time=1
143.05246421875 note_off channel=2 note=55 velocity=0 time=1
143.05246421875 note_on channel=2 note=59 velocity=75 time=0
143.0576295 note_on channel=9 note=42 velocity=65 time=1
143.0576295 note_on channel=9 note=77 velocity=83 time=0
143.06279478125 note_on channel=2 note=55 velocity=54 time=1
143.06279478125 note_on channel=9 note=37 velocity=116 time=0
143.0679600625 control_change channel=7 control=11 value=122 time=1
143.08345590624998 control_change channel=7 control=11 value=118 time=3
143.0886211875 note_off channel=9 note=77 velocity=0 time=1
143.0886211875 note_off channel=9 note=42 velocity=0 time=0
143.09378646875 note_off channel=9 note=37 velocity=0 time=1
143.09895175 control_change channel=7 control=11 value=114 time=1
143.11444759375 control_change channel=7 control=11 value=109 time=3
143.1299434375 control_change channel=7 control=11 value=103 time=3
143.14543928125 control_change channel=7 control=11 value=98 time=3
143.16093512499998 control_change channel=7 control=11 value=93 time=3
143.17643096875 control_change channel=7 control=11 value=90 time=3
143.1919268125 control_change channel=7 control=11 value=87 time=3
143.20742265625 control_change channel=7 control=11 value=85 time=3
143.2745713125 note_off channel=2 note=47 velocity=0 time=13
143.284901875 note_on channel=1 note=40 velocity=108 time=2
143.29006715625 note_off channel=2 note=52 velocity=0 time=1
143.29006715625 note_off channel=2 note=55 velocity=0 time=0
143.2952324375 note_off channel=2 note=64 velocity=0 time=1
143.2952324375 note_on channel=2 note=47 velocity=71 time=0
143.2952324375 note_on channel=7 note=64 velocity=92 time=0
143.30039771875 note_on channel=2 note=55 velocity=75 time=1
143.30039771875 note_on channel=9 note=76 velocity=88 time=0
143.305563 note_on channel=2 note=52 velocity=36 time=1
143.305563 note_on channel=9 note=42 velocity=69 time=0
143.31072828125002 note_on channel=9 note=35 velocity=108 time=1
143.31589356249998 note_on channel=2 note=64 velocity=47 time=1
143.33138940625 control_change channel=7 control=11 value=90 time=3
143.33138940625 note_off channel=9 note=76 velocity=0 time=0
143.3365546875 note_off channel=9 note=42 velocity=0 time=1
143.34171996875 note_off channel=9 note=35 velocity=0 time=1
143.34688524999999 control_change channel=7 control=11 value=93 time=1
143.367546375 note_off channel=7 note=69 velocity=0 time=4
143.367546375 control_change channel=7 control=11 value=98 time=0
143.38304221875 control_change channel=7 control=11 value=102 time=3
143.3985380625 control_change channel=7 control=11 value=106 time=3
143.408868625 control_change channel=7 control=11 value=109 time=2
143.42952975 control_change channel=7 control=11 value=114 time=4
143.4398603125 control_change channel=7 control=11 value=118 time=2
143.4605214375 control_change channel=7 control=11 value=124 time=4
143.47601728125 control_change channel=7 control=11 value=126 time=3
143.50184368749998 note_off channel=2 note=64 velocity=0 time=5
143.5225048125 note_off channel=2 note=59 velocity=0 time=4
143.532835375 note_off channel=1 note=40 velocity=0 time=2
143.53800065625 note_on channel=2 note=64 velocity=57 time=1
143.54316593750002 note_on channel=2 note=59 velocity=57 time=1
143.54833121874998 note_on channel=9 note=40 velocity=87 time=1
143.57932290624998 note_off channel=9 note=40 velocity=0 time=6
143.7704383125 note_off channel=2 note=52 velocity=0 time=37
143.78076887499998 note_off channel=2 note=64 velocity=0 time=2
143.78076887499998 note_on channel=2 note=52 velocity=49 time=0
143.78593415625 note_off channel=2 note=59 velocity=0 time=1
143.78593415625 note_on channel=9 note=77 velocity=80 time=0
143.7910994375 note_on channel=1 note=35 velocity=107 time=1
143.7910994375 note_on channel=2 note=59 velocity=75 time=0
143.79626471875 note_on channel=2 note=64 velocity=60 time=1
143.79626471875 note_off channel=3 note=76 velocity=0 time=0
143.81692584375 note_off channel=9 note=77 velocity=0 time=4
143.9977106875 note_off channel=1 note=35 velocity=0 time=35
144.00804125000002 note_off channel=2 note=64 velocity=0 time=2
144.03386765625 note_off channel=2 note=59 velocity=0 time=5
144.03386765625 note_on channel=2 note=64 velocity=69 time=0
144.0390329375 note_on channel=2 note=59 velocity=76 time=1
144.04419821874998 note_on channel=9 note=45 velocity=59 time=1
144.05452878125 note_on channel=9 note=35 velocity=96 time=2
144.07518990625 note_off channel=2 note=47 velocity=0 time=4
144.07518990625 note_off channel=9 note=45 velocity=0 time=0
144.08552046875002 note_off channel=9 note=35 velocity=0 time=2
144.27663587499998 note_off channel=2 note=64 velocity=0 time=37
144.2869664375 note_on channel=1 note=31 velocity=106 time=2
144.29729700000001 note_on channel=2 note=64 velocity=41 time=2
144.29729700000001 note_on channel=9 note=43 velocity=76 time=0
144.30246228125 note_on channel=3 note=59 velocity=100 time=1
144.3282886875 note_off channel=6 note=47 velocity=0 time=5
144.3282886875 note_off channel=9 note=43 velocity=0 time=0
144.42126375 note_off channel=7 note=64 velocity=0 time=18
144.44709015625 note_off channel=1 note=31 velocity=0 time=5
144.50390825000002 note_off channel=2 note=64 velocity=0 time=11
144.52973465625 note_off channel=2 note=59 velocity=0 time=5
144.52973465625 note_on channel=2 note=64 velocity=84 time=0
144.5348999375 note_off channel=2 note=55 velocity=0 time=1
144.5348999375 note_on channel=2 note=59 velocity=84 time=0
144.54006521875 note_on channel=2 note=55 velocity=74 time=1
144.54006521875 note_on channel=9 note=41 velocity=82 time=0
144.57105690625 note_off channel=9 note=41 velocity=0 time=6
144.76733759375 note_off channel=2 note=52 velocity=0 time=38
144.77766815625 note_off channel=3 note=59 velocity=0 time=2
144.78283343750002 note_off channel=2 note=55 velocity=0 time=1
144.78799871875 note_on channel=1 note=28 velocity=108 time=1
144.78799871875 note_on channel=2 note=47 velocity=64 time=0
144.78799871875 note_on channel=2 note=52 velocity=76 time=0
144.78799871875 note_on channel=9 note=49 velocity=70 time=0
144.793164 note_on channel=2 note=55 velocity=80 time=1
144.793164 note_on channel=6 note=47 velocity=100 time=0
144.79832928125 note_on channel=3 note=71 velocity=100 time=1
144.79832928125 note_on channel=9 note=35 velocity=100 time=0
144.81899040624998 note_off channel=9 note=49 velocity=0 time=4
144.82932096875 note_off channel=9 note=35 velocity=0 time=2
145.02560165625 note_on channel=9 note=42 velocity=52 time=38
145.03593221875 note_off channel=0 note=76 velocity=0 time=2
145.05659334375 note_off channel=9 note=42 velocity=0 time=4
145.08758503125 note_off channel=2 note=47 velocity=0 time=6
145.09275031250002 note_off channel=2 note=52 velocity=0 time=1
145.103080875 note_off channel=2 note=55 velocity=0 time=2
145.1340725625 note_on channel=2 note=47 velocity=79 time=6
145.13923784375 note_off channel=0 note=67 velocity=0 time=1
145.144403125 note_off channel=2 note=59 velocity=0 time=1
145.1547336875 note_on channel=2 note=52 velocity=75 time=2
145.18056009375 note_on channel=2 note=55 velocity=80 time=5
145.1960559375 note_off channel=2 note=64 velocity=0 time=3
145.20122121875002 note_off channel=0 note=71 velocity=0 time=1
145.21155178125 note_on channel=0 note=67 velocity=43 time=2
145.2580393125 note_on channel=0 note=71 velocity=66 time=9
145.268369875 note_on channel=2 note=59 velocity=86 time=2
145.28386571874998 note_on channel=9 note=42 velocity=53 time=3
145.2993615625 note_on channel=2 note=64 velocity=84 time=3
145.30452684375 note_on channel=0 note=76 velocity=62 time=1
145.31485740624998 note_off channel=9 note=42 velocity=0 time=2
145.4233283125 note_off channel=3 note=71 velocity=0 time=21
145.51630337499998 note_off channel=2 note=59 velocity=0 time=18
145.52146865625 note_off channel=2 note=52 velocity=0 time=1
145.5266339375 note_off channel=2 note=64 velocity=0 time=1
145.53179921875 note_on channel=3 note=71 velocity=107 time=1
145.53179921875 note_on channel=9 note=37 velocity=104 time=0
145.5369645 note_on channel=2 note=64 velocity=87 time=1
145.5369645 note_on channel=9 note=35 velocity=107 time=0
145.54212978125 note_on channel=2 note=59 velocity=85 time=1
145.54212978125 note_on channel=9 note=42 velocity=54 time=0
145.55762562500001 note_on channel=2 note=52 velocity=58 time=3
145.55762562500001 control_change channel=7 control=11 value=122 time=0
145.56279090625 note_off channel=9 note=37 velocity=0 time=1
145.5679561875 note_off channel=9 note=35 velocity=0 time=1
145.57312146875 control_change channel=7 control=11 value=116 time=1
145.57312146875 note_off channel=9 note=42 velocity=0 time=0
145.58861731250002 control_change channel=7 control=11 value=110 time=3
145.60411315625 control_change channel=7 control=11 value=103 time=3
145.62477428124998 control_change channel=7 control=11 value=96 time=4
145.640270125 control_change channel=7 control=11 value=89 time=3
145.65576596875 control_change channel=7 control=11 value=81 time=3
145.67126181249998 control_change channel=7 control=11 value=73 time=3
145.68675765625 control_change channel=7 control=11 value=65 time=3
145.70225349999998 control_change channel=7 control=11 value=55 time=3
145.7125840625 note_off channel=3 note=71 velocity=0 time=2
145.7125840625 control_change channel=7 control=11 value=46 time=0
145.7332451875 control_change channel=7 control=11 value=37 time=4
145.74874103124998 control_change channel=7 control=11 value=29 time=3
145.7539063125 note_on channel=7 note=83 velocity=112 time=1
145.764236875 control_change channel=7 control=11 value=23 time=2
145.7745674375 note_on channel=3 note=71 velocity=94 time=2
145.77973271874998 control_change channel=7 control=11 value=19 time=1
145.79006328125 note_on channel=9 note=42 velocity=64 time=2
145.82105496875002 note_off channel=9 note=42 velocity=0 time=6
145.87270778125 control_change channel=7 control=11 value=24 time=10
145.888203625 control_change channel=7 control=11 value=27 time=3
145.90369946874998 control_change channel=7 control=11 value=31 time=3
145.9191953125 control_change channel=7 control=11 value=35 time=3
145.93469115624998 control_change channel=7 control=11 value=39 time=3
145.9398564375 note_off channel=3 note=71 velocity=0 time=1
145.95535228125001 control_change channel=7 control=11 value=42 time=3
145.970848125 control_change channel=7 control=11 value=47 time=3
145.98634396875 control_change channel=7 control=11 value=51 time=3
146.0018398125 note_off channel=1 note=28 velocity=0 time=3
146.0018398125 control_change channel=7 control=11 value=55 time=0
146.01733565625 note_off channel=2 note=64 velocity=0 time=3
146.01733565625 control_change channel=7 control=11 value=60 time=0
146.0225009375 note_off channel=2 note=55 velocity=0 time=1
146.0225009375 note_off channel=2 note=59 velocity=0 time=0
146.0225009375 note_on channel=3 note=71 velocity=95 time=0
146.02766621875 note_on channel=2 note=64 velocity=80 time=1
146.03283150000001 note_on channel=2 note=59 velocity=80 time=1
146.03283150000001 control_change channel=7 control=11 value=64 time=0
146.03283150000001 note_on channel=9 note=46 velocity=61 time=0
146.03799678125 note_on channel=2 note=55 velocity=73 time=1
146.04832734375 control_change channel=7 control=11 value=69 time=2
146.0638231875 control_change channel=7 control=11 value=74 time=3
146.0638231875 note_off channel=9 note=46 velocity=0 time=0
146.07931903125 control_change channel=7 control=11 value=79 time=3
146.094814875 control_change channel=7 control=11 value=84 time=3
146.11031071875001 control_change channel=7 control=11 value=90 time=3
146.1258065625 control_change channel=7 control=11 value=95 time=3
146.1464676875 control_change channel=7 control=11 value=101 time=4
146.16196353125002 control_change channel=7 control=11 value=106 time=3
146.177459375 control_change channel=7 control=11 value=111 time=3
146.19295521875 note_off channel=3 note=71 velocity=0 time=3
146.19295521875 control_change channel=7 control=11 value=115 time=0
146.20845106250002 note_off channel=2 note=47 velocity=0 time=3
146.20845106250002 control_change channel=7 control=11 value=119 time=0
146.218781625 control_change channel=7 control=11 value=124 time=2
146.23944275000002 control_change channel=7 control=11 value=126 time=4
146.24460803124998 note_off channel=2 note=52 velocity=0 time=1
146.2704344375 note_off channel=2 note=55 velocity=0 time=5
146.2704344375 note_on channel=3 note=71 velocity=104 time=0
146.27559971875 note_on channel=1 note=35 velocity=110 time=1
146.27559971875 note_on channel=9 note=42 velocity=72 time=0
146.280765 note_on channel=2 note=47 velocity=26 time=1
146.280765 note_on channel=2 note=52 velocity=48 time=0
146.28593028125002 note_on channel=2 note=55 velocity=71 time=1
146.2910955625 note_on channel=9 note=35 velocity=99 time=1
146.30659140625 note_off channel=9 note=42 velocity=0 time=3
146.32208724999998 note_off channel=9 note=35 velocity=0 time=3
146.50287209375 note_off channel=2 note=64 velocity=0 time=35
146.51836793750002 note_on channel=2 note=64 velocity=54 time=3
146.51836793750002 note_on channel=9 note=42 velocity=66 time=0
146.54935962500002 note_off channel=9 note=42 velocity=0 time=6
146.74047503124999 note_off channel=2 note=47 velocity=0 time=37
146.7456403125 note_off channel=2 note=52 velocity=0 time=1
146.76113615625 note_off channel=2 note=55 velocity=0 time=3
146.76113615625 note_off channel=2 note=64 velocity=0 time=0
146.76113615625 note_on channel=2 note=47 velocity=53 time=0
146.7663014375 note_on channel=2 note=52 velocity=59 time=1
146.7663014375 note_on channel=9 note=42 velocity=66 time=0
146.77146671875 note_off channel=2 note=59 velocity=0 time=1
146.77146671875 note_on channel=2 note=55 velocity=74 time=0
146.77146671875 note_off channel=3 note=71 velocity=0 time=0
146.77146671875 note_on channel=3 note=69 velocity=99 time=0
146.77146671875 note_on channel=9 note=37 velocity=96 time=0
146.78179728125002 note_on channel=2 note=59 velocity=80 time=2
146.78179728125002 note_on channel=2 note=64 velocity=68 time=0
146.797293125 note_off channel=9 note=42 velocity=0 time=3
146.80245840625 note_off channel=9 note=37 velocity=0 time=1
146.98324325000002 control_change channel=7 control=11 value=122 time=35
146.98840853125 note_off channel=2 note=64 velocity=0 time=1
146.99873909375 control_change channel=7 control=11 value=120 time=2
147.003904375 note_off channel=2 note=59 velocity=0 time=1
147.00906965625 note_on channel=2 note=64 velocity=62 time=1
147.01423493750002 note_on channel=2 note=59 velocity=66 time=1
147.01423493750002 control_change channel=7 control=11 value=117 time=0
147.01423493750002 note_on channel=9 note=46 velocity=57 time=0
147.0245655 note_on channel=9 note=35 velocity=105 time=2
147.02973078125 control_change channel=7 control=11 value=114 time=1
147.045226625 control_change channel=7 control=11 value=111 time=3
147.045226625 note_off channel=9 note=46 velocity=0 time=0
147.0555571875 note_off channel=9 note=35 velocity=0 time=2
147.06072246875001 control_change channel=7 control=11 value=107 time=1
147.0762183125 control_change channel=7 control=11 value=102 time=3
147.09171415625002 control_change channel=7 control=11 value=97 time=3
147.10721 control_change channel=7 control=11 value=93 time=3
147.12270584375 control_change channel=7 control=11 value=89 time=3
147.13820168750001 control_change channel=7 control=11 value=85 time=3
147.15369753125 control_change channel=7 control=11 value=82 time=3
147.16919337500002 control_change channel=7 control=11 value=81 time=3
147.23117675 note_off channel=3 note=69 velocity=0 time=12
147.23634203125 control_change channel=7 control=11 value=86 time=1
147.2415073125 note_off channel=2 note=47 velocity=0 time=1
147.2415073125 note_off channel=2 note=52 velocity=0 time=0
147.24667259375002 note_off channel=2 note=55 velocity=0 time=1
147.24667259375002 control_change channel=7 control=11 value=91 time=0
147.25183787499998 note_on channel=2 note=47 velocity=49 time=1
147.25183787499998 note_on channel=2 note=52 velocity=69 time=0
147.25183787499998 note_off channel=7 note=83 velocity=0 time=0
147.25700315625 note_off channel=2 note=64 velocity=0 time=1
147.25700315625 note_off channel=2 note=59 velocity=0 time=0
147.25700315625 note_on channel=7 note=79 velocity=101 time=0
147.2621684375 note_on channel=2 note=55 velocity=69 time=1
147.2621684375 note_on channel=2 note=59 velocity=79 time=0
147.2621684375 note_on channel=3 note=67 velocity=95 time=0
147.2621684375 control_change channel=7 control=11 value=98 time=0
147.26733371875 note_on channel=9 note=42 velocity=69 time=1
147.272499 note_on channel=2 note=64 velocity=55 time=1
147.28282956249998 control_change channel=7 control=11 value=107 time=2
147.293160125 control_change channel=7 control=11 value=118 time=2
147.29832540625 note_off channel=9 note=42 velocity=0 time=1
147.31382125 control_change channel=7 control=11 value=127 time=3
147.46361440625 note_off channel=2 note=64 velocity=0 time=29
147.47911025000002 note_off channel=3 note=67 velocity=0 time=3
147.49460609375 note_on channel=2 note=64 velocity=51 time=3
147.499771375 note_on channel=3 note=69 velocity=90 time=1
147.499771375 note_off channel=7 note=79 velocity=0 time=0
147.51526721874998 note_on channel=9 note=37 velocity=102 time=3
147.51526721874998 note_on channel=9 note=42 velocity=69 time=0
147.53592834375 control_change channel=7 control=11 value=122 time=4
147.54625890625 note_off channel=9 note=42 velocity=0 time=2
147.54625890625 note_off channel=9 note=37 velocity=0 time=0
147.5514241875 control_change channel=7 control=11 value=114 time=1
147.56692003125 control_change channel=7 control=11 value=107 time=3
147.5720853125 note_off channel=6 note=47 velocity=0 time=1
147.582415875 control_change channel=7 control=11 value=99 time=2
147.59791171875 note_off channel=2 note=47 velocity=0 time=3
147.59791171875 control_change channel=7 control=11 value=92 time=0
147.6134075625 control_change channel=7 control=11 value=85 time=3
147.62890340625 control_change channel=7 control=11 value=77 time=3
147.64439925 note_off channel=1 note=35 velocity=0 time=3
147.64439925 control_change channel=7 control=11 value=67 time=0
147.65989509375 control_change channel=7 control=11 value=57 time=3
147.6753909375 control_change channel=7 control=11 value=47 time=3
147.69088678125001 control_change channel=7 control=11 value=38 time=3
147.706382625 control_change channel=7 control=11 value=32 time=3
147.72187846875 control_change channel=7 control=11 value=29 time=3
147.74770487499998 note_off channel=3 note=69 velocity=0 time=5
147.74770487499998 note_on channel=3 note=64 velocity=96 time=0
147.75287015625 note_off channel=2 note=52 velocity=0 time=1
147.75287015625 note_on channel=7 note=76 velocity=102 time=0
147.7580354375 note_on channel=2 note=52 velocity=56 time=1
147.76320071875 note_on channel=1 note=36 velocity=105 time=1
147.76320071875 note_on channel=2 note=48 velocity=65 time=0
147.76320071875 note_on channel=6 note=48 velocity=98 time=0
147.76320071875 note_on channel=9 note=42 velocity=73 time=0
147.76836600000001 control_change channel=7 control=11 value=31 time=1
147.76836600000001 note_on channel=9 note=35 velocity=107 time=0
147.7786965625 note_off channel=2 note=59 velocity=0 time=2
147.78386184375 control_change channel=7 control=11 value=34 time=1
147.79419240625 note_off channel=9 note=42 velocity=0 time=2
147.7993576875 note_off channel=9 note=35 velocity=0 time=1
147.80452296875 control_change channel=7 control=11 value=39 time=1
147.82001881250002 control_change channel=7 control=11 value=43 time=3
147.83551465625 control_change channel=7 control=11 value=49 time=3
147.8510105 control_change channel=7 control=11 value=54 time=3
147.86650634375002 control_change channel=7 control=11 value=59 time=3
147.8820021875 control_change channel=7 control=11 value=65 time=3
147.89749803125002 control_change channel=7 control=11 value=70 time=3
147.912993875 control_change channel=7 control=11 value=74 time=3
147.92848971875 control_change channel=7 control=11 value=79 time=3
147.94398556250002 control_change channel=7 control=11 value=83 time=3
147.94915084375 note_off channel=0 note=76 velocity=0 time=1
147.95948140625 control_change channel=7 control=11 value=88 time=2
147.97497725000002 control_change channel=7 control=11 value=93 time=3
147.99047309375 control_change channel=7 control=11 value=98 time=3
148.0059689375 control_change channel=7 control=11 value=104 time=3
148.0162995 note_on channel=9 note=42 velocity=64 time=2
148.0266300625 control_change channel=7 control=11 value=109 time=2
148.03179534375 note_off channel=2 note=48 velocity=0 time=1
148.04212590625 note_off channel=2 note=52 velocity=0 time=2
148.04212590625 control_change channel=7 control=11 value=115 time=0
148.0472911875 note_on channel=2 note=52 velocity=68 time=1
148.0472911875 note_off channel=9 note=42 velocity=0 time=0
148.05762174999998 control_change channel=7 control=11 value=120 time=2
148.06278703125 note_off channel=0 note=71 velocity=0 time=1
148.0679523125 note_off channel=0 note=67 velocity=0 time=1
148.07311759375 control_change channel=7 control=11 value=125 time=1
148.078282875 note_off channel=2 note=55 velocity=0 time=1
148.0886134375 control_change channel=7 control=11 value=127 time=2
148.119605125 note_on channel=2 note=55 velocity=75 time=6
148.12477040625 note_on channel=2 note=48 velocity=67 time=1
148.13510096874998 note_on channel=0 note=67 velocity=47 time=2
148.14026625 note_on channel=2 note=59 velocity=76 time=1
148.1505968125 note_off channel=2 note=64 velocity=0 time=2
148.16609265625 note_on channel=2 note=64 velocity=69 time=3
148.1712579375 note_on channel=0 note=71 velocity=66 time=1
148.25906771875 note_on channel=9 note=42 velocity=73 time=17
148.25906771875 note_on channel=9 note=37 velocity=84 time=0
148.29005940624998 note_off channel=9 note=37 velocity=0 time=6
148.29005940624998 note_off channel=9 note=42 velocity=0 time=0
148.43985256250002 note_off channel=2 note=64 velocity=0 time=29
148.47084425 note_off channel=2 note=59 velocity=0 time=6
148.491505375 note_off channel=2 note=55 velocity=0 time=4
148.491505375 note_on channel=2 note=64 velocity=76 time=0
148.49667065625 note_on channel=2 note=59 velocity=78 time=1
148.5018359375 note_on channel=2 note=55 velocity=73 time=1
148.5018359375 note_on channel=9 note=46 velocity=68 time=0
148.50700121875 note_on channel=9 note=35 velocity=108 time=1
148.532827625 note_off channel=9 note=46 velocity=0 time=5
148.53799290625 note_off channel=9 note=35 velocity=0 time=1
148.6258026875 note_off channel=3 note=64 velocity=0 time=17
148.74976943750002 note_on channel=9 note=42 velocity=73 time=24
148.75493471874998 note_on channel=3 note=76 velocity=97 time=1
148.780761125 note_off channel=9 note=42 velocity=0 time=5
148.78592640624998 control_change channel=7 control=11 value=126 time=1
148.84790978125 control_change channel=7 control=11 value=123 time=12
148.86340562499998 control_change channel=7 control=11 value=121 time=3
148.87890146875 control_change channel=7 control=11 value=119 time=3
148.8943973125 note_off channel=3 note=76 velocity=0 time=3
148.8943973125 control_change channel=7 control=11 value=117 time=0
148.90989315624998 control_change channel=7 control=11 value=115 time=3
148.92022371875 control_change channel=7 control=11 value=113 time=2
148.94088484374998 control_change channel=7 control=11 value=111 time=4
148.9563806875 control_change channel=7 control=11 value=109 time=3
148.96671125 note_off channel=2 note=52 velocity=0 time=2
148.97187653125 control_change channel=7 control=11 value=108 time=1
148.9770418125 note_off channel=2 note=64 velocity=0 time=1
148.98220709375002 note_off channel=2 note=59 velocity=0 time=1
148.98220709375002 note_on channel=2 note=64 velocity=82 time=0
148.99253765625 note_off channel=2 note=55 velocity=0 time=2
148.99253765625 note_on channel=2 note=59 velocity=81 time=0
148.9977029375 note_on channel=2 note=55 velocity=67 time=1
148.9977029375 note_on channel=9 note=37 velocity=95 time=0
148.9977029375 note_on channel=9 note=42 velocity=65 time=0
149.00286821875 note_on channel=2 note=52 velocity=49 time=1
149.00286821875 note_on channel=3 note=76 velocity=99 time=0
149.028694625 note_off channel=9 note=42 velocity=0 time=5
149.028694625 note_off channel=9 note=37 velocity=0 time=0
149.09584328124998 note_off channel=1 note=36 velocity=0 time=13
149.1010085625 control_change channel=7 control=11 value=110 time=1
149.11650440625 note_off channel=3 note=76 velocity=0 time=3
149.11650440625 control_change channel=7 control=11 value=112 time=0
149.13200025 control_change channel=7 control=11 value=115 time=3
149.14749609375 control_change channel=7 control=11 value=118 time=3
149.1629919375 control_change channel=7 control=11 value=121 time=3
149.17848778125 control_change channel=7 control=11 value=124 time=3
149.193983625 control_change channel=7 control=11 value=126 time=3
149.23014059375 note_off channel=2 note=52 velocity=0 time=7
149.23014059375 note_off channel=2 note=64 velocity=0 time=0
149.235305875 note_off channel=2 note=48 velocity=0 time=1
149.235305875 note_off channel=2 note=59 velocity=0 time=0
149.24047115625 note_on channel=2 note=48 velocity=78 time=1
149.2456364375 note_on channel=1 note=31 velocity=104 time=1
149.2456364375 note_off channel=2 note=55 velocity=0 time=0
149.2456364375 note_on channel=2 note=52 velocity=58 time=0
149.2456364375 note_on channel=9 note=35 velocity=110 time=0
149.25080171874998 note_on channel=2 note=55 velocity=74 time=1
149.25080171874998 note_on channel=9 note=42 velocity=68 time=0
149.255967 note_on channel=2 note=59 velocity=72 time=1
149.26113228125 note_on channel=2 note=64 velocity=52 time=1
149.26113228125 note_on channel=3 note=76 velocity=106 time=0
149.276628125 note_off channel=9 note=35 velocity=0 time=3
149.28179340625 note_off channel=9 note=42 velocity=0 time=1
149.45741296875 note_off channel=2 note=64 velocity=0 time=34
149.48323937499998 note_off channel=2 note=59 velocity=0 time=5
149.48840465625 note_on channel=2 note=64 velocity=57 time=1
149.4935699375 note_on channel=2 note=59 velocity=56 time=1
149.49873521875 note_on channel=9 note=42 velocity=59 time=1
149.52972690625 note_off channel=9 note=42 velocity=0 time=6
149.71567703124998 note_off channel=2 note=48 velocity=0 time=36
149.72600759375 note_off channel=2 note=52 velocity=0 time=2
149.72600759375 note_off channel=2 note=55 velocity=0 time=0
149.731172875 note_on channel=2 note=48 velocity=74 time=1
149.73633815625 note_off channel=2 note=64 velocity=0 time=1
149.73633815625 note_on channel=2 note=52 velocity=62 time=0
149.73633815625 note_off channel=3 note=76 velocity=0 time=0
149.73633815625 note_on channel=3 note=74 velocity=98 time=0
149.7415034375 note_off channel=2 note=59 velocity=0 time=1
149.7415034375 note_on channel=2 note=55 velocity=79 time=0
149.74666871875 note_on channel=2 note=59 velocity=82 time=1
149.74666871875 note_on channel=9 note=37 velocity=89 time=0
149.74666871875 note_on channel=9 note=42 velocity=69 time=0
149.751834 note_on channel=2 note=64 velocity=75 time=1
149.75699928125002 note_off channel=7 note=76 velocity=0 time=1
149.77766040625 note_off channel=9 note=42 velocity=0 time=4
149.77766040625 note_off channel=9 note=37 velocity=0 time=0
149.95844525 note_off channel=2 note=64 velocity=0 time=35
149.98427165625 note_off channel=2 note=59 velocity=0 time=5
149.98427165625 note_on channel=2 note=64 velocity=66 time=0
149.98943693750002 note_on channel=2 note=59 velocity=67 time=1
149.99460221875 note_on channel=9 note=46 velocity=61 time=1
150.00493278125 note_on channel=9 note=35 velocity=105 time=2
150.02559390624998 note_off channel=9 note=46 velocity=0 time=4
150.03592446875 note_off channel=9 note=35 velocity=0 time=2
150.19088290625 note_off channel=3 note=74 velocity=0 time=30
150.20637875 note_off channel=2 note=48 velocity=0 time=3
150.21154403124999 note_off channel=2 note=52 velocity=0 time=1
150.22187459375002 note_on channel=2 note=48 velocity=66 time=2
150.227039875 note_off channel=2 note=55 velocity=0 time=1
150.227039875 note_off channel=2 note=64 velocity=0 time=0
150.227039875 note_on channel=2 note=52 velocity=57 time=0
150.227039875 note_on channel=3 note=72 velocity=87 time=0
150.23220515625 note_off channel=2 note=59 velocity=0 time=1
150.2373704375 note_on channel=2 note=55 velocity=76 time=1
150.2373704375 note_on channel=2 note=59 velocity=84 time=0
150.24253571875 note_on channel=2 note=64 velocity=68 time=1
150.24253571875 note_on channel=9 note=42 velocity=75 time=0
150.27352740625 note_off channel=9 note=42 velocity=0 time=6
150.34584134375 control_change channel=7 control=11 value=123 time=14
150.3613371875 control_change channel=7 control=11 value=121 time=3
150.3819983125 control_change channel=7 control=11 value=119 time=4
150.392328875 control_change channel=7 control=11 value=116 time=2
150.40782471875002 control_change channel=7 control=11 value=114 time=3
150.42848584375 control_change channel=7 control=11 value=110 time=4
150.44398168749998 note_off channel=2 note=64 velocity=0 time=3
150.44398168749998 control_change channel=7 control=11 value=107 time=0
150.45431225000002 control_change channel=7 control=11 value=105 time=2
150.46980809375 note_off channel=2 note=52 velocity=0 time=3
150.46980809375 control_change channel=7 control=11 value=102 time=0
150.474973375 note_on channel=2 note=64 velocity=56 time=1
150.48530393750002 note_on channel=9 note=37 velocity=96 time=2
150.49046921874998 control_change channel=7 control=11 value=99 time=1
150.49046921874998 note_on channel=9 note=42 velocity=68 time=0
150.5059650625 control_change channel=7 control=11 value=97 time=3
150.516295625 note_off channel=9 note=37 velocity=0 time=2
150.52146090624998 note_off channel=6 note=48 velocity=0 time=1
150.52146090624998 control_change channel=7 control=11 value=93 time=0
150.52146090624998 note_off channel=9 note=42 velocity=0 time=0
150.53695675 control_change channel=7 control=11 value=89 time=3
150.55245259375 control_change channel=7 control=11 value=84 time=3
150.56794843749998 control_change channel=7 control=11 value=78 time=3
150.578279 note_off channel=1 note=31 velocity=0 time=2
150.58344428125 control_change channel=7 control=11 value=72 time=1
150.59894012499998 note_off channel=2 note=48 velocity=0 time=3
150.59894012499998 control_change channel=7 control=11 value=66 time=0
150.61443596875 control_change channel=7 control=11 value=60 time=3
150.6299318125 control_change channel=7 control=11 value=52 time=3
150.6505929375 control_change channel=7 control=11 value=43 time=4
150.66608878125 control_change channel=7 control=11 value=34 time=3
150.681584625 control_change channel=7 control=11 value=28 time=3
150.6919151875 note_off channel=2 note=59 velocity=0 time=2
150.69708046875 control_change channel=7 control=11 value=25 time=1
150.70741103125 note_on channel=7 note=81 velocity=113 time=2
150.71774159375002 note_off channel=2 note=64 velocity=0 time=2
150.72807215625 note_on channel=2 note=49 velocity=76 time=2
150.7332374375 note_off channel=2 note=55 velocity=0 time=1
150.7332374375 note_on channel=2 note=52 velocity=76 time=0
150.7332374375 note_off channel=3 note=72 velocity=0 time=0
150.73840271875 note_off channel=0 note=71 velocity=0 time=1
150.73840271875 note_on channel=2 note=55 velocity=79 time=0
150.743568 note_on channel=1 note=37 velocity=103 time=1
150.743568 note_on channel=2 note=59 velocity=85 time=0
150.743568 control_change channel=7 control=11 value=30 time=0
150.743568 note_on channel=9 note=35 velocity=107 time=0
150.743568 note_on channel=9 note=42 velocity=72 time=0
150.74873328125 note_on channel=2 note=64 velocity=66 time=1
150.74873328125 note_on channel=3 note=69 velocity=102 time=0
150.74873328125 note_on channel=6 note=49 velocity=101 time=0
150.75389856249998 control_change channel=7 control=11 value=36 time=1
150.7745596875 control_change channel=7 control=11 value=43 time=4
150.7745596875 note_off channel=9 note=42 velocity=0 time=0
150.7745596875 note_off channel=9 note=35 velocity=0 time=0
150.79005553125 control_change channel=7 control=11 value=52 time=3
150.805551375 control_change channel=7 control=11 value=61 time=3
150.82104721875 control_change channel=7 control=11 value=70 time=3
150.8365430625 control_change channel=7 control=11 value=79 time=3
150.85203890625 control_change channel=7 control=11 value=89 time=3
150.87270003125002 control_change channel=7 control=11 value=97 time=4
150.88303059375 control_change channel=7 control=11 value=105 time=2
150.8985264375 control_change channel=7 control=11 value=112 time=3
150.91402228125 control_change channel=7 control=11 value=119 time=3
150.929518125 control_change channel=7 control=11 value=125 time=3
150.95017925000002 control_change channel=7 control=11 value=127 time=4
150.98633621874998 note_on channel=9 note=42 velocity=58 time=7
151.0018320625 note_off channel=0 note=62 velocity=0 time=3
151.01732790625 note_off channel=9 note=42 velocity=0 time=3
151.05865015625 note_off channel=0 note=67 velocity=0 time=8
151.1257988125 note_on channel=0 note=67 velocity=51 time=13
151.177451625 note_on channel=0 note=71 velocity=64 time=10
151.19294746875 note_off channel=2 note=52 velocity=0 time=3
151.20327803125 note_off channel=2 note=55 velocity=0 time=2
151.20327803125 note_off channel=2 note=64 velocity=0 time=0
151.21360859375002 note_off channel=2 note=59 velocity=0 time=2
151.21360859375002 note_on channel=2 note=52 velocity=45 time=0
151.22393915625 note_on channel=0 note=76 velocity=59 time=2
151.22393915625 note_on channel=2 note=55 velocity=62 time=0
151.22393915625 note_on channel=3 note=71 velocity=99 time=0
151.2291044375 note_on channel=2 note=59 velocity=80 time=1
151.23426971875 note_on channel=2 note=64 velocity=62 time=1
151.23426971875 note_off channel=3 note=69 velocity=0 time=0
151.23426971875 note_on channel=9 note=37 velocity=88 time=0
151.23426971875 note_on channel=9 note=42 velocity=63 time=0
151.26526140625 note_off channel=9 note=42 velocity=0 time=6
151.26526140625 note_off channel=9 note=37 velocity=0 time=0
151.46154209375 note_off channel=2 note=64 velocity=0 time=38
151.46154209375 note_off channel=2 note=52 velocity=0 time=0
151.4770379375 note_off channel=2 note=59 velocity=0 time=3
151.4770379375 note_on channel=2 note=64 velocity=90 time=0
151.48220321875 note_on channel=2 note=59 velocity=86 time=1
151.48220321875 note_on channel=9 note=46 velocity=54 time=0
151.49253378125002 note_on channel=9 note=35 velocity=107 time=2
151.4976990625 note_on channel=2 note=52 velocity=67 time=1
151.51319490625 note_off channel=9 note=46 velocity=0 time=3
151.52352546875002 note_off channel=9 note=35 velocity=0 time=2
151.72497143750002 note_off channel=3 note=71 velocity=0 time=39
151.72497143750002 note_on channel=3 note=74 velocity=96 time=0
151.735302 note_on channel=9 note=42 velocity=76 time=2
151.7662936875 note_off channel=9 note=42 velocity=0 time=6
151.77145896875 control_change channel=7 control=11 value=126 time=1
151.8179465 control_change channel=7 control=11 value=121 time=9
151.83344234375002 control_change channel=7 control=11 value=119 time=3
151.8489381875 control_change channel=7 control=11 value=116 time=3
151.86443403125 control_change channel=7 control=11 value=112 time=3
151.87992987500002 control_change channel=7 control=11 value=109 time=3
151.89542571875 control_change channel=7 control=11 value=105 time=3
151.91092156250002 control_change channel=7 control=11 value=101 time=3
151.92641740625 control_change channel=7 control=11 value=97 time=3
151.94191325 control_change channel=7 control=11 value=92 time=3
151.9522438125 note_off channel=2 note=64 velocity=0 time=2
151.95740909375002 note_off channel=3 note=74 velocity=0 time=1
151.95740909375002 control_change channel=7 control=11 value=88 time=0
151.96773965625 note_off channel=2 note=59 velocity=0 time=2
151.96773965625 note_on channel=2 note=64 velocity=72 time=0
151.9729049375 note_on channel=3 note=76 velocity=97 time=1
151.97807021875 note_off channel=2 note=55 velocity=0 time=1
151.97807021875 note_on channel=2 note=59 velocity=78 time=0
151.97807021875 control_change channel=7 control=11 value=83 time=0
151.9832355 note_off channel=2 note=52 velocity=0 time=1
151.98840078125002 note_on channel=2 note=55 velocity=69 time=1
151.98840078125002 control_change channel=7 control=11 value=79 time=0
151.98840078125002 note_on channel=9 note=37 velocity=97 time=0
151.98840078125002 note_on channel=9 note=42 velocity=65 time=0
151.99356606249998 note_on channel=2 note=52 velocity=41 time=1
152.00906190625 control_change channel=7 control=11 value=74 time=3
152.01939246875 control_change channel=7 control=11 value=69 time=2
152.01939246875 note_off channel=9 note=42 velocity=0 time=0
152.01939246875 note_off channel=9 note=37 velocity=0 time=0
152.04005359375 control_change channel=7 control=11 value=64 time=4
152.0555494375 control_change channel=7 control=11 value=59 time=3
152.07104528124998 note_off channel=1 note=37 velocity=0 time=3
152.07104528124998 control_change channel=7 control=11 value=54 time=0
152.086541125 control_change channel=7 control=11 value=50 time=3
152.0968716875 note_off channel=2 note=49 velocity=0 time=2
152.10203696874999 control_change channel=7 control=11 value=46 time=1
152.1175328125 note_off channel=6 note=49 velocity=0 time=3
152.1175328125 note_off channel=7 note=81 velocity=0 time=0
152.1175328125 control_change channel=7 control=11 value=43 time=0
152.13302865625 control_change channel=7 control=11 value=40 time=3
152.14852449999998 control_change channel=7 control=11 value=38 time=3
152.169185625 note_on channel=7 note=76 velocity=109 time=4
152.17951618749998 note_off channel=0 note=76 velocity=0 time=2
152.18984675000002 note_off channel=2 note=52 velocity=0 time=2
152.21567315625 note_off channel=2 note=64 velocity=0 time=5
152.21567315625 control_change channel=7 control=11 value=41 time=0
152.22083843750002 note_on channel=1 note=36 velocity=108 time=1
152.22083843750002 note_on channel=6 note=48 velocity=91 time=0
152.22600371874998 note_on channel=2 note=48 velocity=74 time=1
152.231169 note_off channel=2 note=55 velocity=0 time=1
152.231169 note_on channel=2 note=52 velocity=76 time=0
152.231169 control_change channel=7 control=11 value=43 time=0
152.23633428125 note_on channel=2 note=55 velocity=82 time=1
152.23633428125 note_on channel=9 note=42 velocity=72 time=0
152.23633428125 note_on channel=9 note=35 velocity=108 time=0
152.24666484375 note_on channel=2 note=64 velocity=62 time=2
152.24666484375 control_change channel=7 control=11 value=47 time=0
152.2621606875 control_change channel=7 control=11 value=50 time=3
152.26732596875001 note_off channel=9 note=35 velocity=0 time=1
152.26732596875001 note_off channel=9 note=42 velocity=0 time=0
152.27249125 control_change channel=7 control=11 value=54 time=1
152.293152375 control_change channel=7 control=11 value=58 time=4
152.30864821875 control_change channel=7 control=11 value=63 time=3
152.3241440625 control_change channel=7 control=11 value=69 time=3
152.33963990625 control_change channel=7 control=11 value=74 time=3
152.35513575 control_change channel=7 control=11 value=79 time=3
152.37063159375 control_change channel=7 control=11 value=85 time=3
152.3861274375 control_change channel=7 control=11 value=90 time=3
152.40162328125 control_change channel=7 control=11 value=95 time=3
152.417119125 control_change channel=7 control=11 value=100 time=3
152.43261496875 control_change channel=7 control=11 value=105 time=3
152.44294553125 note_off channel=2 note=64 velocity=0 time=2
152.4481108125 control_change channel=7 control=11 value=112 time=1
152.46360665625 control_change channel=7 control=11 value=119 time=3
152.47393721875 note_on channel=2 note=64 velocity=49 time=2
152.4791025 control_change channel=7 control=11 value=125 time=1
152.4791025 note_on channel=9 note=42 velocity=58 time=0
152.49459834375 control_change channel=7 control=11 value=127 time=3
152.50492890625 note_off channel=0 note=67 velocity=0 time=2
152.5100941875 note_off channel=9 note=42 velocity=0 time=1
152.53592059374998 note_off channel=0 note=71 velocity=0 time=5
152.5927386875 note_on channel=0 note=67 velocity=24 time=11
152.64439149999998 note_on channel=0 note=71 velocity=63 time=10
152.70120959375 note_on channel=0 note=76 velocity=57 time=11
152.706374875 note_off channel=2 note=48 velocity=0 time=1
152.71154015625 note_off channel=2 note=52 velocity=0 time=1
152.727036 note_on channel=2 note=52 velocity=30 time=3
152.727036 note_on channel=9 note=42 velocity=59 time=0
152.73220128125 note_on channel=9 note=37 velocity=90 time=1
152.7580276875 note_off channel=9 note=42 velocity=0 time=5
152.76319296875002 note_off channel=9 note=37 velocity=0 time=1
152.94914309375002 note_off channel=2 note=59 velocity=0 time=36
152.95947365625 note_off channel=2 note=64 velocity=0 time=2
152.9646389375 note_on channel=2 note=64 velocity=88 time=1
152.96980421875 note_on channel=9 note=46 velocity=58 time=1
152.97496950000001 note_off channel=2 note=55 velocity=0 time=1
152.97496950000001 note_on channel=2 note=59 velocity=88 time=0
152.97496950000001 note_on channel=9 note=35 velocity=108 time=0
152.98013478125 note_off channel=2 note=52 velocity=0 time=1
152.98013478125 note_on channel=2 note=55 velocity=78 time=0
152.9853000625 note_on channel=2 note=52 velocity=64 time=1
152.99563062500002 note_on channel=2 note=48 velocity=37 time=2
153.00079590625 note_off channel=9 note=46 velocity=0 time=1
153.0059611875 note_off channel=9 note=35 velocity=0 time=1
153.21773771875 note_on channel=9 note=42 velocity=70 time=41
153.222903 note_off channel=3 note=76 velocity=0 time=1
153.222903 note_on channel=3 note=79 velocity=103 time=0
153.24872940625 note_off channel=9 note=42 velocity=0 time=5
153.33137390625 note_off channel=1 note=36 velocity=0 time=16
153.40368784375 note_off channel=7 note=76 velocity=0 time=14
153.43467953125 note_off channel=2 note=64 velocity=0 time=6
153.44501009375 note_off channel=2 note=59 velocity=0 time=2
153.45534065625 note_on channel=2 note=64 velocity=65 time=2
153.46050593750002 note_on channel=2 note=59 velocity=68 time=1
153.46567121875 note_on channel=9 note=42 velocity=59 time=1
153.4708365 note_on channel=9 note=37 velocity=102 time=1
153.49666290624998 note_off channel=9 note=42 velocity=0 time=5
153.5018281875 note_off channel=9 note=37 velocity=0 time=1
153.62062965625 note_off channel=2 note=48 velocity=0 time=23
153.6361255 note_off channel=6 note=48 velocity=0 time=3
153.69294359375002 note_off channel=2 note=52 velocity=0 time=11
153.69294359375002 note_off channel=3 note=79 velocity=0 time=0
153.7084394375 note_on channel=1 note=35 velocity=110 time=3
153.7084394375 note_off channel=2 note=55 velocity=0 time=0
153.7084394375 note_on channel=9 note=42 velocity=65 time=0
153.71360471875 note_on channel=2 note=52 velocity=79 time=1
153.71360471875 note_on channel=6 note=47 velocity=106 time=0
153.71877 note_off channel=2 note=59 velocity=0 time=1
153.71877 note_on channel=2 note=55 velocity=84 time=0
153.71877 note_on channel=9 note=35 velocity=108 time=0
153.72393528125002 note_on channel=2 note=59 velocity=86 time=1
153.72393528125002 note_on channel=3 note=76 velocity=95 time=0
153.73426584375 note_on channel=2 note=47 velocity=74 time=2
153.739431125 note_off channel=9 note=42 velocity=0 time=1
153.74459640625 note_off channel=0 note=76 velocity=0 time=1
153.7497616875 note_off channel=9 note=35 velocity=0 time=1
153.96153821874998 note_on channel=9 note=42 velocity=63 time=41
153.99252990624998 note_off channel=9 note=42 velocity=0 time=6
154.11133137500002 note_off channel=0 note=67 velocity=0 time=23
154.15781890625001 note_off channel=0 note=71 velocity=0 time=9
154.19397587499998 note_on channel=0 note=71 velocity=42 time=7
154.2043064375 note_on channel=7 note=74 velocity=64 time=2
154.20947171875 note_off channel=2 note=59 velocity=0 time=1
154.20947171875 note_on channel=9 note=37 velocity=93 time=0
154.20947171875 note_on channel=9 note=42 velocity=66 time=0
154.21980228125 note_on channel=2 note=59 velocity=54 time=2
154.24046340625 note_off channel=9 note=42 velocity=0 time=4
154.24046340625 note_off channel=9 note=37 velocity=0 time=0
154.42124825000002 note_off channel=2 note=64 velocity=0 time=35
154.43674409375 note_off channel=2 note=59 velocity=0 time=3
154.44707465625 note_on channel=2 note=64 velocity=89 time=2
154.4522399375 note_off channel=2 note=55 velocity=0 time=1
154.4522399375 note_on channel=2 note=59 velocity=86 time=0
154.4522399375 note_off channel=7 note=74 velocity=0 time=0
154.4522399375 note_on channel=9 note=35 velocity=110 time=0
154.4522399375 note_on channel=9 note=46 velocity=57 time=0
154.45740521874998 note_off channel=2 note=47 velocity=0 time=1
154.4625705 note_on channel=2 note=55 velocity=77 time=1
154.4729010625 note_on channel=2 note=47 velocity=72 time=2
154.4729010625 note_on channel=7 note=76 velocity=67 time=0
154.483231625 note_off channel=9 note=46 velocity=0 time=2
154.483231625 note_off channel=9 note=35 velocity=0 time=0
154.7001734375 note_on channel=9 note=42 velocity=68 time=42
154.71050400000001 note_off channel=1 note=35 velocity=0 time=2
154.71566928125 note_on channel=7 note=69 velocity=59 time=1
154.73116512500002 note_off channel=9 note=42 velocity=0 time=3
154.7414956875 note_off channel=7 note=76 velocity=0 time=2
154.91711525000002 note_off channel=2 note=64 velocity=0 time=34
154.9274458125 note_off channel=2 note=59 velocity=0 time=2
154.93261109375 note_on channel=2 note=64 velocity=78 time=1
154.937776375 note_off channel=2 note=55 velocity=0 time=1
154.94294165625 note_on channel=2 note=59 velocity=81 time=1
154.9481069375 note_on channel=1 note=31 velocity=109 time=1
154.9481069375 note_on channel=2 note=55 velocity=68 time=0
154.9481069375 note_on channel=9 note=37 velocity=104 time=0
154.9481069375 note_on channel=9 note=42 velocity=61 time=0
154.96360278125002 note_off channel=7 note=69 velocity=0 time=3
154.9687680625 note_on channel=7 note=71 velocity=66 time=1
154.979098625 note_off channel=9 note=42 velocity=0 time=2
154.979098625 note_off channel=9 note=37 velocity=0 time=0
155.0100903125 note_off channel=6 note=47 velocity=0 time=6
155.06690840625 note_off channel=1 note=31 velocity=0 time=11
155.1133959375 note_off channel=0 note=71 velocity=0 time=9
155.1237265 note_off channel=3 note=76 velocity=0 time=2
155.144387625 note_off channel=2 note=59 velocity=0 time=4
155.15471818749998 note_off channel=2 note=47 velocity=0 time=2
155.17021403125 note_off channel=2 note=52 velocity=0 time=3
155.18054459375 note_off channel=2 note=64 velocity=0 time=2
155.19087515625 note_off channel=2 note=55 velocity=0 time=2
155.19087515625 note_on channel=2 note=47 velocity=68 time=0
155.19604043750002 note_on channel=2 note=52 velocity=64 time=1
155.19604043750002 note_on channel=9 note=42 velocity=66 time=0
155.20120571875 note_on channel=0 note=40 velocity=102 time=1
155.20120571875 note_on channel=2 note=55 velocity=81 time=0
155.20120571875 note_on channel=6 note=40 velocity=98 time=0
155.20120571875 note_on channel=9 note=35 velocity=110 time=0
155.206371 note_on channel=2 note=59 velocity=80 time=1
155.206371 note_on channel=2 note=64 velocity=78 time=0
155.2167015625 note_on channel=1 note=28 velocity=108 time=2
155.2167015625 note_on channel=7 note=67 velocity=57 time=0
155.22703212500002 note_off channel=9 note=42 velocity=0 time=2
155.23219740624998 note_off channel=9 note=35 velocity=0 time=1
155.268354375 note_off channel=7 note=71 velocity=0 time=7
155.42847809375002 note_off channel=0 note=40 velocity=0 time=31
155.4439739375 note_on channel=0 note=43 velocity=102 time=3
155.4439739375 note_on channel=9 note=42 velocity=62 time=0
155.44913921875 note_off channel=1 note=28 velocity=0 time=1
155.44913921875 note_on channel=1 note=31 velocity=102 time=0
155.44913921875 note_on channel=6 note=43 velocity=98 time=0
155.474965625 note_off channel=9 note=42 velocity=0 time=5
155.50079203125 note_off channel=6 note=40 velocity=0 time=5
155.55244484375 note_off channel=2 note=47 velocity=0 time=10
155.557610125 note_off channel=2 note=64 velocity=0 time=1
155.57827125 note_off channel=2 note=52 velocity=0 time=4
155.57827125 note_off channel=2 note=59 velocity=0 time=0
155.58343653125002 note_off channel=7 note=67 velocity=0 time=1
155.5886018125 note_off channel=2 note=55 velocity=0 time=1
155.6712463125 note_off channel=0 note=43 velocity=0 time=16
155.68674215625 note_on channel=0 note=45 velocity=102 time=3
155.68674215625 note_off channel=1 note=31 velocity=0 time=0
155.68674215625 note_on channel=1 note=33 velocity=107 time=0
155.69707271874998 note_on channel=9 note=42 velocity=59 time=2
155.702238 note_on channel=6 note=45 velocity=122 time=1
155.70740328125 note_off channel=6 note=43 velocity=0 time=1
155.72806440624998 note_off channel=9 note=42 velocity=0 time=4
155.8985186875 note_off channel=0 note=45 velocity=0 time=33
155.93467565625 note_on channel=0 note=47 velocity=102 time=7
155.9398409375 note_off channel=1 note=33 velocity=0 time=1
155.9398409375 note_on channel=1 note=35 velocity=108 time=0
155.94500621875 note_on channel=6 note=47 velocity=117 time=1
155.94500621875 note_on channel=9 note=46 velocity=59 time=0
155.97599790625 note_off channel=6 note=45 velocity=0 time=6
155.97599790625 note_off channel=9 note=46 velocity=0 time=0
156.14128690625 note_off channel=1 note=35 velocity=0 time=32
156.1671133125 note_off channel=0 note=47 velocity=0 time=5
156.18260915625 note_on channel=1 note=38 velocity=111 time=3
156.19293971874998 note_on channel=0 note=50 velocity=98 time=2
156.19293971874998 note_on channel=6 note=50 velocity=120 time=0
156.19293971874998 note_on channel=9 note=42 velocity=69 time=0
156.22393140625 note_off channel=9 note=42 velocity=0 time=6
156.23942724999998 note_off channel=6 note=47 velocity=0 time=3
156.4150468125 note_off channel=0 note=50 velocity=0 time=34
156.43054265625 note_on channel=0 note=52 velocity=95 time=3
156.43054265625 note_off channel=1 note=38 velocity=0 time=0
156.43054265625 note_on channel=1 note=40 velocity=110 time=0
156.43054265625 note_on channel=6 note=52 velocity=88 time=0
156.44087321875 note_on channel=9 note=42 velocity=70 time=2
156.46153434375 note_off channel=6 note=50 velocity=0 time=4
156.47186490625 note_off channel=9 note=42 velocity=0 time=2
156.57000525 pitchwheel channel=1 pitch=-118 time=19
156.58550109375 pitchwheel channel=1 pitch=-1054 time=3
156.59583165625 note_off channel=1 note=40 velocity=0 time=2
156.6009969375 pitchwheel channel=1 pitch=-1873 time=1
156.61649278125 pitchwheel channel=1 pitch=-2575 time=3
156.631988625 pitchwheel channel=1 pitch=-3043 time=3
156.6423191875 note_off channel=6 note=52 velocity=0 time=2
156.65264975000002 pitchwheel channel=1 pitch=-3394 time=2
156.6629803125 note_on channel=9 note=49 velocity=59 time=2
156.67847615625 note_on channel=4 note=83 velocity=97 time=3
156.6836414375 pitchwheel channel=1 pitch=-2809 time=1
156.6836414375 note_on channel=1 note=40 velocity=114 time=0
156.6836414375 note_on channel=3 note=76 velocity=102 time=0
156.6836414375 note_on channel=5 note=76 velocity=118 time=0
156.68880671875 note_on channel=9 note=35 velocity=110 time=1
156.693972 note_off channel=0 note=52 velocity=0 time=1
156.693972 pitchwheel channel=1 pitch=-1990 time=0
156.693972 note_on channel=5 note=80 velocity=117 time=0
156.693972 note_off channel=9 note=49 velocity=0 time=0
156.693972 note_on channel=9 note=62 velocity=80 time=0
156.7043025625 note_on channel=0 note=47 velocity=51 time=2
156.7043025625 note_on channel=0 note=52 velocity=56 time=0
156.70946784375 note_on channel=2 note=56 velocity=46 time=1
156.714633125 note_on channel=0 note=59 velocity=71 time=1
156.714633125 pitchwheel channel=1 pitch=-1054 time=0
156.714633125 note_on channel=2 note=59 velocity=78 time=0
156.71979840625 note_off channel=9 note=35 velocity=0 time=1
156.7249636875 note_on channel=2 note=64 velocity=80 time=1
156.7249636875 note_off channel=9 note=62 velocity=0 time=0
156.73012896875002 note_on channel=0 note=56 velocity=73 time=1
156.73012896875002 pitchwheel channel=1 pitch=0 time=0
156.8695915625 note_off channel=1 note=40 velocity=0 time=27
156.92640965625 note_on channel=1 note=40 velocity=103 time=11
156.93674021875 note_on channel=9 note=62 velocity=70 time=2
156.94707078125 note_off channel=0 note=52 velocity=0 time=2
156.9522360625 note_on channel=0 note=52 velocity=48 time=1
156.95740134375 note_off channel=0 note=59 velocity=0 time=1
156.95740134375 note_off channel=0 note=56 velocity=0 time=0
156.96256662500002 note_on channel=2 note=68 velocity=52 time=1
156.96773190624998 note_on channel=0 note=56 velocity=69 time=1
156.96773190624998 note_off channel=9 note=62 velocity=0 time=0
156.9728971875 note_on channel=0 note=59 velocity=77 time=1
156.98322775 note_on channel=0 note=64 velocity=60 time=2
157.06587225 note_on channel=9 note=62 velocity=75 time=16
157.08136809375 note_on channel=9 note=42 velocity=62 time=3
157.0968639375 note_off channel=1 note=40 velocity=0 time=3
157.0968639375 note_off channel=9 note=62 velocity=0 time=0
157.11235978125 note_off channel=9 note=42 velocity=0 time=3
157.169177875 note_on channel=1 note=40 velocity=97 time=11
157.17434315625 note_off channel=2 note=64 velocity=0 time=1
157.17434315625 note_off channel=2 note=59 velocity=0 time=0
157.17434315625 note_off channel=2 note=56 velocity=0 time=0
157.1795084375 note_on channel=9 note=62 velocity=76 time=1
157.18467371875 note_on channel=9 note=40 velocity=82 time=1
157.189839 note_off channel=2 note=68 velocity=0 time=1
157.189839 note_on channel=2 note=56 velocity=56 time=0
157.19500428125002 note_on channel=2 note=59 velocity=72 time=1
157.20016956249998 note_on channel=2 note=64 velocity=76 time=1
157.20533484375 note_on channel=2 note=68 velocity=81 time=1
157.210500125 note_off channel=9 note=62 velocity=0 time=1
157.21566540625 note_off channel=9 note=40 velocity=0 time=1
157.334466875 note_off channel=1 note=40 velocity=0 time=23
157.417111375 note_off channel=0 note=64 velocity=0 time=16
157.417111375 note_on channel=1 note=40 velocity=116 time=0
157.42227665625 note_on channel=0 note=64 velocity=83 time=1
157.42227665625 note_off channel=2 note=68 velocity=0 time=0
157.43260721874998 note_off channel=0 note=59 velocity=0 time=2
157.43260721874998 note_off channel=2 note=64 velocity=0 time=0
157.43260721874998 note_on channel=9 note=62 velocity=68 time=0
157.4377725 note_on channel=0 note=59 velocity=84 time=1
157.44293778125 note_off channel=2 note=59 velocity=0 time=1
157.44293778125 note_on channel=2 note=68 velocity=88 time=0
157.44293778125 note_on channel=2 note=64 velocity=79 time=0
157.4481030625 note_on channel=2 note=59 velocity=80 time=1
157.458433625 note_off channel=0 note=47 velocity=0 time=2
157.46359890624998 note_on channel=0 note=47 velocity=68 time=1
157.46359890624998 note_off channel=9 note=62 velocity=0 time=0
157.48426003125 note_on channel=0 note=40 velocity=51 time=4
157.55657396875 note_on channel=9 note=62 velocity=60 time=14
157.58756565624998 note_off channel=9 note=62 velocity=0 time=6
157.67021015625 note_off channel=2 note=56 velocity=0 time=16
157.6753754375 note_on channel=2 note=52 velocity=62 time=1
157.6753754375 note_on channel=9 note=40 velocity=88 time=0
157.6753754375 note_on channel=9 note=42 velocity=72 time=0
157.6753754375 note_on channel=9 note=62 velocity=81 time=0
157.68054071875 note_on channel=2 note=56 velocity=57 time=1
157.685706 note_off channel=2 note=64 velocity=0 time=1
157.69087128125 note_on channel=2 note=64 velocity=74 time=1
157.706367125 note_off channel=9 note=62 velocity=0 time=3
157.706367125 note_off channel=9 note=42 velocity=0 time=0
157.706367125 note_off channel=9 note=40 velocity=0 time=0
157.8613255625 note_off channel=2 note=59 velocity=0 time=30
157.89748253124998 note_off channel=1 note=40 velocity=0 time=7
157.9026478125 note_off channel=0 note=64 velocity=0 time=1
157.90781309375 note_on channel=0 note=64 velocity=76 time=1
157.90781309375 note_off channel=2 note=68 velocity=0 time=0
157.91814365625 note_off channel=0 note=59 velocity=0 time=2
157.91814365625 note_on channel=1 note=35 velocity=103 time=0
157.91814365625 note_off channel=2 note=64 velocity=0 time=0
157.9233089375 note_on channel=2 note=68 velocity=78 time=1
157.92847421874998 note_on channel=0 note=59 velocity=76 time=1
157.92847421874998 note_on channel=2 note=64 velocity=78 time=0
157.92847421874998 note_on channel=9 note=62 velocity=77 time=0
157.9336395 note_on channel=2 note=59 velocity=62 time=1
157.93880478125 note_on channel=9 note=35 velocity=105 time=1
157.95946590625 note_off channel=9 note=62 velocity=0 time=4
157.96979646875002 note_off channel=9 note=35 velocity=0 time=2
158.05244096875 note_on channel=9 note=62 velocity=62 time=16
158.06277153125 note_off channel=1 note=35 velocity=0 time=2
158.08343265624998 note_off channel=9 note=62 velocity=0 time=4
158.1299201875 note_off channel=0 note=40 velocity=0 time=9
158.1299201875 note_on channel=9 note=49 velocity=61 time=0
158.14025075 note_off channel=2 note=59 velocity=0 time=2
158.1505813125 note_off channel=0 note=47 velocity=0 time=2
158.1505813125 note_on channel=0 note=40 velocity=53 time=0
158.15574659375002 note_off channel=0 note=52 velocity=0 time=1
158.16091187499998 note_off channel=9 note=49 velocity=0 time=1
158.16607715625 note_on channel=1 note=40 velocity=112 time=1
158.16607715625 note_off channel=2 note=68 velocity=0 time=0
158.1712424375 note_on channel=0 note=52 velocity=56 time=1
158.1712424375 note_on channel=0 note=47 velocity=49 time=0
158.1712424375 note_off channel=2 note=56 velocity=0 time=0
158.1712424375 note_on channel=9 note=62 velocity=84 time=0
158.17640771875 note_on channel=2 note=56 velocity=52 time=1
158.17640771875 note_on channel=2 note=59 velocity=79 time=0
158.17640771875 note_on channel=7 note=68 velocity=96 time=0
158.18157300000001 note_on channel=9 note=35 velocity=110 time=1
158.18673828125 note_on channel=2 note=68 velocity=83 time=1
158.1919035625 note_off channel=0 note=59 velocity=0 time=1
158.19706884375 note_on channel=0 note=59 velocity=56 time=1
158.20223412500002 note_off channel=9 note=62 velocity=0 time=1
158.2125646875 note_off channel=9 note=35 velocity=0 time=2
158.3985148125 note_off channel=1 note=40 velocity=0 time=36
158.3985148125 note_off channel=2 note=68 velocity=0 time=0
158.41401065625 note_on channel=2 note=68 velocity=76 time=3
158.42434121875 note_on channel=9 note=62 velocity=76 time=2
158.44500234375 note_off channel=0 note=47 velocity=0 time=4
158.45533290625 note_off channel=9 note=62 velocity=0 time=2
158.48632459375 note_off channel=0 note=52 velocity=0 time=6
158.49665515625 note_on channel=0 note=47 velocity=47 time=2
158.5224815625 note_off channel=0 note=56 velocity=0 time=5
158.5224815625 note_on channel=0 note=52 velocity=43 time=0
158.532812125 note_on channel=0 note=56 velocity=62 time=2
158.53797740625 note_on channel=9 note=62 velocity=65 time=1
158.54314268750002 note_off channel=0 note=59 velocity=0 time=1
158.5638038125 note_on channel=0 note=59 velocity=71 time=4
158.56896909375 note_off channel=9 note=62 velocity=0 time=1
158.57929965625 note_off channel=0 note=64 velocity=0 time=2
158.6051260625 note_on channel=0 note=64 velocity=67 time=5
158.6464483125 note_off channel=2 note=56 velocity=0 time=8
158.656778875 note_on channel=1 note=42 velocity=116 time=2
158.656778875 note_off channel=2 note=59 velocity=0 time=0
158.66194415625 note_off channel=2 note=68 velocity=0 time=1
158.66194415625 note_on channel=2 note=56 velocity=55 time=0
158.66194415625 note_on channel=9 note=62 velocity=73 time=0
158.66710943750002 note_off channel=2 note=64 velocity=0 time=1
158.66710943750002 note_on channel=2 note=59 velocity=70 time=0
158.66710943750002 note_on channel=9 note=40 velocity=77 time=0
158.66710943750002 note_on channel=9 note=42 velocity=76 time=0
158.67227471875 note_on channel=2 note=64 velocity=76 time=1
158.67744 note_on channel=2 note=68 velocity=56 time=1
158.69293584375 note_off channel=9 note=62 velocity=0 time=3
158.69810112500002 note_off channel=9 note=40 velocity=0 time=1
158.69810112500002 note_off channel=9 note=42 velocity=0 time=0
158.87888596875 note_off channel=0 note=64 velocity=0 time=35
158.88405125 note_on channel=0 note=64 velocity=87 time=1
158.88921653124999 note_off channel=0 note=59 velocity=0 time=1
158.8943818125 note_on channel=0 note=59 velocity=84 time=1
158.89954709375002 note_off channel=0 note=56 velocity=0 time=1
158.89954709375002 note_off channel=2 note=68 velocity=0 time=0
158.904712375 note_off channel=0 note=52 velocity=0 time=1
158.904712375 note_off channel=1 note=42 velocity=0 time=0
158.90987765625 note_off channel=0 note=47 velocity=0 time=1
158.90987765625 note_on channel=0 note=56 velocity=72 time=0
158.90987765625 note_on channel=0 note=52 velocity=64 time=0
158.9150429375 note_off channel=2 note=64 velocity=0 time=1
158.9150429375 note_on channel=2 note=68 velocity=81 time=0
158.92020821875 note_on channel=2 note=64 velocity=79 time=1
158.92020821875 note_on channel=9 note=62 velocity=74 time=0
158.9253735 note_on channel=0 note=47 velocity=63 time=1
158.94086934375 note_off channel=0 note=40 velocity=0 time=3
158.95119990625 note_off channel=9 note=62 velocity=0 time=2
158.9563651875 note_on channel=0 note=40 velocity=36 time=1
159.0390096875 note_on channel=9 note=62 velocity=68 time=16
159.070001375 note_off channel=9 note=62 velocity=0 time=6
159.152645875 note_off channel=2 note=56 velocity=0 time=16
159.15781115625 note_off channel=2 note=59 velocity=0 time=1
159.15781115625 note_on channel=2 note=56 velocity=65 time=0
159.16297643750002 note_on channel=1 note=44 velocity=112 time=1
159.16297643750002 note_off channel=2 note=64 velocity=0 time=0
159.16297643750002 note_on channel=2 note=59 velocity=77 time=0
159.16297643750002 note_on channel=9 note=62 velocity=80 time=0
159.16814171874998 note_on channel=2 note=64 velocity=79 time=1
159.16814171874998 note_on channel=9 note=40 velocity=83 time=0
159.16814171874998 note_on channel=9 note=42 velocity=75 time=0
159.193968125 note_off channel=9 note=62 velocity=0 time=5
159.19913340624998 note_off channel=9 note=40 velocity=0 time=1
159.19913340624998 note_off channel=9 note=42 velocity=0 time=0
159.3695876875 note_off channel=1 note=44 velocity=0 time=33
159.3695876875 note_off channel=2 note=64 velocity=0 time=0
159.37991825 note_off channel=0 note=64 velocity=0 time=2
159.37991825 note_off channel=2 note=52 velocity=0 time=0
159.38508353125 note_on channel=0 note=64 velocity=70 time=1
159.39541409375002 note_off channel=0 note=59 velocity=0 time=2
159.40574465625 note_on channel=0 note=59 velocity=69 time=2
159.40574465625 note_off channel=2 note=68 velocity=0 time=0
159.41607521875 note_off channel=0 note=56 velocity=0 time=2
159.41607521875 note_on channel=9 note=62 velocity=70 time=0
159.4212405 note_on channel=0 note=56 velocity=51 time=1
159.4212405 note_on channel=9 note=35 velocity=99 time=0
159.44706690625 note_off channel=9 note=62 velocity=0 time=5
159.4522321875 note_off channel=2 note=59 velocity=0 time=1
159.4522321875 note_off channel=9 note=35 velocity=0 time=0
159.47289331250002 note_off channel=2 note=56 velocity=0 time=4
159.48838915625 note_off channel=0 note=47 velocity=0 time=3
159.4935544375 note_off channel=0 note=56 velocity=0 time=1
159.50905028124998 note_off channel=0 note=52 velocity=0 time=3
159.5348766875 note_on channel=9 note=62 velocity=62 time=5
159.565868375 note_off channel=9 note=62 velocity=0 time=6
159.5761989375 note_off channel=3 note=76 velocity=0 time=2
159.59169478125 note_off channel=5 note=76 velocity=0 time=3
159.60202534375 note_off channel=0 note=40 velocity=0 time=2
159.60202534375 note_off channel=0 note=59 velocity=0 time=0
159.64334759375 note_on channel=0 note=45 velocity=52 time=8
159.64334759375 note_on channel=9 note=49 velocity=58 time=0
159.648512875 note_on channel=2 note=52 velocity=18 time=1
159.65367815625 note_on channel=2 note=45 velocity=66 time=1
159.6588434375 note_on channel=2 note=57 velocity=59 time=1
159.6588434375 note_on channel=3 note=76 velocity=102 time=0
159.6588434375 note_on channel=5 note=76 velocity=100 time=0
159.6588434375 note_on channel=9 note=62 velocity=81 time=0
159.66400871874998 note_on channel=0 note=55 velocity=71 time=1
159.66400871874998 note_on channel=1 note=45 velocity=111 time=0
159.66400871874998 note_on channel=2 note=60 velocity=76 time=0
159.66400871874998 note_off channel=4 note=83 velocity=0 time=0
159.66400871874998 note_on channel=4 note=84 velocity=75 time=0
159.66400871874998 note_on channel=5 note=79 velocity=91 time=0
159.66400871874998 note_off channel=7 note=68 velocity=0 time=0
159.66400871874998 note_on channel=7 note=67 velocity=66 time=0
159.669174 note_on channel=0 note=52 velocity=62 time=1
159.669174 note_on channel=2 note=64 velocity=76 time=0
159.67433928125 note_on channel=0 note=60 velocity=71 time=1
159.67433928125 note_on channel=2 note=69 velocity=69 time=0
159.67433928125 note_off channel=5 note=80 velocity=0 time=0
159.67433928125 note_off channel=9 note=49 velocity=0 time=0
159.67433928125 note_on channel=9 note=35 velocity=110 time=0
159.689835125 note_off channel=9 note=62 velocity=0 time=3
159.70533096875002 note_off channel=9 note=35 velocity=0 time=3
159.8447935625 note_off channel=1 note=45 velocity=0 time=27
159.89128109375002 note_off channel=0 note=60 velocity=0 time=9
159.89128109375002 note_off channel=0 note=52 velocity=0 time=0
159.89128109375002 note_off channel=2 note=69 velocity=0 time=0
159.90161165625 note_off channel=0 note=55 velocity=0 time=2
159.9067769375 note_off channel=0 note=64 velocity=0 time=1
159.9067769375 note_on channel=0 note=52 velocity=46 time=0
159.9067769375 note_on channel=2 note=69 velocity=57 time=0
159.91194221875 note_on channel=0 note=55 velocity=80 time=1
159.91194221875 note_on channel=1 note=45 velocity=114 time=0
159.91194221875 note_on channel=9 note=62 velocity=75 time=0
159.92227278125 note_on channel=0 note=60 velocity=83 time=2
159.92227278125 note_on channel=0 note=64 velocity=87 time=0
159.94293390625 note_off channel=9 note=62 velocity=0 time=4
160.0307436875 note_on channel=9 note=62 velocity=69 time=17
160.061735375 note_off channel=9 note=62 velocity=0 time=6
160.10822290625 note_off channel=2 note=69 velocity=0 time=9
160.12888403124998 note_off channel=2 note=57 velocity=0 time=4
160.144379875 note_off channel=1 note=45 velocity=0 time=3
160.144379875 note_off channel=2 note=64 velocity=0 time=0
160.144379875 note_on channel=2 note=57 velocity=51 time=0
160.14954515625 note_on channel=9 note=42 velocity=76 time=1
160.14954515625 note_on channel=9 note=40 velocity=77 time=0
160.1547104375 note_on channel=9 note=62 velocity=80 time=1
160.15987571875 note_on channel=2 note=64 velocity=68 time=1
160.165041 note_on channel=2 note=69 velocity=34 time=1
160.18053684375 note_off channel=9 note=40 velocity=0 time=3
160.18053684375 note_off channel=9 note=42 velocity=0 time=0
160.185702125 note_off channel=9 note=62 velocity=0 time=1
160.36132168749998 note_off channel=2 note=64 velocity=0 time=34
160.3819828125 note_off channel=2 note=69 velocity=0 time=4
160.38714809375 note_off channel=2 note=52 velocity=0 time=1
160.392313375 note_off channel=0 note=64 velocity=0 time=1
160.392313375 note_off channel=2 note=57 velocity=0 time=0
160.39747865625 note_on channel=2 note=69 velocity=79 time=1
160.40264393750002 note_off channel=0 note=60 velocity=0 time=1
160.40264393750002 note_on channel=0 note=64 velocity=84 time=0
160.40264393750002 note_on channel=2 note=64 velocity=80 time=0
160.40780921875 note_on channel=0 note=60 velocity=82 time=1
160.40780921875 note_on channel=9 note=62 velocity=73 time=0
160.4129745 note_off channel=0 note=55 velocity=0 time=1
160.4129745 note_on channel=1 note=40 velocity=116 time=0
160.4129745 note_on channel=2 note=57 velocity=74 time=0
160.41813978125 note_on channel=0 note=55 velocity=77 time=1
160.41813978125 note_on channel=2 note=52 velocity=62 time=0
160.43880090624998 note_off channel=9 note=62 velocity=0 time=4
160.5266106875 note_on channel=9 note=62 velocity=68 time=17
160.53177596875 pitchwheel channel=1 pitch=-937 time=1
160.5472718125 pitchwheel channel=1 pitch=-1990 time=3
160.55760237500002 note_off channel=9 note=62 velocity=0 time=2
160.56276765625 pitchwheel channel=1 pitch=-3160 time=1
160.58342878125 pitchwheel channel=1 pitch=-4213 time=4
160.598924625 pitchwheel channel=1 pitch=-5266 time=3
160.61442046875 pitchwheel channel=1 pitch=-5968 time=3
160.6299163125 pitchwheel channel=1 pitch=-6319 time=3
160.640246875 note_off channel=5 note=76 velocity=0 time=2
160.6505774375 note_on channel=9 note=40 velocity=87 time=2
160.6505774375 note_on channel=9 note=42 velocity=78 time=0
160.6505774375 note_on channel=9 note=62 velocity=80 time=0
160.660908 pitchwheel channel=1 pitch=-5968 time=2
160.66607328125002 note_off channel=1 note=40 velocity=0 time=1
160.67640384375 pitchwheel channel=1 pitch=-4915 time=2
160.681569125 note_off channel=9 note=62 velocity=0 time=1
160.681569125 note_off channel=9 note=42 velocity=0 time=0
160.681569125 note_off channel=9 note=40 velocity=0 time=0
160.6918996875 pitchwheel channel=1 pitch=-3043 time=2
160.69706496875 note_off channel=5 note=79 velocity=0 time=1
160.71256081250002 pitchwheel channel=1 pitch=-586 time=3
160.71772609375 note_off channel=4 note=84 velocity=0 time=1
160.722891375 pitchwheel channel=1 pitch=0 time=1
160.78487475 note_off channel=7 note=67 velocity=0 time=12
160.85202340625 note_off channel=0 note=64 velocity=0 time=13
160.87268453125 note_off channel=2 note=52 velocity=0 time=4
160.888180375 note_off channel=0 note=60 velocity=0 time=3
160.888180375 note_on channel=0 note=64 velocity=91 time=0
160.89334565625 note_on channel=1 note=36 velocity=117 time=1
160.89851093750002 note_on channel=0 note=60 velocity=81 time=1
160.90367621874998 note_on channel=9 note=35 velocity=107 time=1
160.90367621874998 note_on channel=9 note=62 velocity=81 time=0
160.9088415 note_off channel=2 note=60 velocity=0 time=1
160.91400678125 pitchwheel channel=1 pitch=-352 time=1
160.91400678125 note_off channel=2 note=57 velocity=0 time=0
160.91400678125 note_on channel=2 note=60 velocity=75 time=0
160.9191720625 note_on channel=0 note=67 velocity=80 time=1
160.9191720625 note_on channel=2 note=57 velocity=62 time=0
160.92433734375 note_on channel=2 note=52 velocity=69 time=1
160.929502625 note_off channel=2 note=45 velocity=0 time=1
160.93466790624998 pitchwheel channel=1 pitch=-1873 time=1
160.93466790624998 note_on channel=2 note=45 velocity=63 time=0
160.93466790624998 note_off channel=9 note=62 velocity=0 time=0
160.93466790624998 note_off channel=9 note=35 velocity=0 time=0
160.95016375 pitchwheel channel=1 pitch=-3394 time=3
160.96565959375 pitchwheel channel=1 pitch=-4798 time=3
160.96565959375 note_off channel=3 note=76 velocity=0 time=0
160.98115543749998 pitchwheel channel=1 pitch=-5617 time=3
160.99665128125 pitchwheel channel=1 pitch=-6319 time=3
161.01731240625 pitchwheel channel=1 pitch=-6787 time=4
161.02764296875 note_on channel=9 note=62 velocity=70 time=2
161.04830409375 pitchwheel channel=1 pitch=-6319 time=4
161.05863465624998 note_off channel=9 note=62 velocity=0 time=2
161.0637999375 pitchwheel channel=1 pitch=-5032 time=1
161.07929578125 pitchwheel channel=1 pitch=-2809 time=3
161.08962634374998 note_off channel=1 note=36 velocity=0 time=2
161.094791625 pitchwheel channel=1 pitch=0 time=1
161.1051221875 note_off channel=0 note=52 velocity=0 time=2
161.11545275 note_off channel=0 note=55 velocity=0 time=2
161.1257833125 note_off channel=0 note=67 velocity=0 time=2
161.1257833125 note_off channel=2 note=52 velocity=0 time=0
161.13094859375002 note_off channel=0 note=60 velocity=0 time=1
161.13094859375002 note_on channel=0 note=67 velocity=89 time=0
161.13611387499998 note_on channel=0 note=52 velocity=53 time=1
161.13611387499998 note_on channel=0 note=55 velocity=78 time=0
161.13611387499998 note_on channel=9 note=49 velocity=61 time=0
161.14127915625 note_off channel=0 note=64 velocity=0 time=1
161.14127915625 note_on channel=0 note=60 velocity=83 time=0
161.14127915625 note_on channel=4 note=84 velocity=81 time=0
161.14127915625 note_on channel=5 note=76 velocity=98 time=0
161.14127915625 note_on channel=7 note=67 velocity=64 time=0
161.1464444375 note_on channel=0 note=64 velocity=91 time=1
161.1464444375 note_on channel=1 note=33 velocity=110 time=0
161.1464444375 note_off channel=2 note=69 velocity=0 time=0
161.1464444375 note_on channel=5 note=79 velocity=112 time=0
161.1464444375 note_on channel=9 note=62 velocity=84 time=0
161.15160971875 note_off channel=2 note=60 velocity=0 time=1
161.15160971875 note_on channel=2 note=52 velocity=65 time=0
161.16194028125 note_off channel=2 note=64 velocity=0 time=2
161.16194028125 note_on channel=2 note=60 velocity=78 time=0
161.16194028125 note_on channel=3 note=76 velocity=104 time=0
161.16194028125 note_on channel=9 note=35 velocity=108 time=0
161.16710556249998 note_on channel=2 note=64 velocity=76 time=1
161.16710556249998 note_on channel=2 note=69 velocity=79 time=0
161.16710556249998 note_off channel=9 note=49 velocity=0 time=0
161.177436125 note_off channel=9 note=62 velocity=0 time=2
161.19293196875 note_off channel=9 note=35 velocity=0 time=3
161.40987378125 note_off channel=0 note=60 velocity=0 time=42
161.4150390625 note_off channel=0 note=45 velocity=0 time=1
161.4150390625 note_off channel=0 note=64 velocity=0 time=0
161.425369625 note_off channel=2 note=45 velocity=0 time=2
161.43053490625 note_off channel=0 note=67 velocity=0 time=1
161.43053490625 note_off channel=0 note=55 velocity=0 time=0
161.44603074999998 note_off channel=0 note=52 velocity=0 time=3
161.44603074999998 note_off channel=1 note=33 velocity=0 time=0
161.4563613125 note_off channel=2 note=60 velocity=0 time=2
161.4563613125 note_off channel=2 note=69 velocity=0 time=0
161.46152659375 note_off channel=2 note=52 velocity=0 time=1
161.466691875 note_off channel=2 note=57 velocity=0 time=1
161.48218771875 note_off channel=2 note=64 velocity=0 time=3
161.61648503125 note_on channel=7 note=69 velocity=72 time=26
161.63198087499998 note_off channel=4 note=84 velocity=0 time=3
161.63198087499998 note_on channel=4 note=86 velocity=73 time=0
161.63198087499998 note_on channel=5 note=78 velocity=103 time=0
161.63714615625 note_on channel=3 note=78 velocity=104 time=1
161.6423114375 note_on channel=0 note=69 velocity=86 time=1
161.6423114375 note_on channel=5 note=81 velocity=107 time=0
161.6629725625 note_off channel=3 note=76 velocity=0 time=4
161.66813784375 note_off channel=7 note=67 velocity=0 time=1
161.67330312500002 note_off channel=5 note=79 velocity=0 time=1
161.6836336875 note_off channel=5 note=76 velocity=0 time=2
162.01421168750002 note_off channel=0 note=69 velocity=0 time=64
162.10718675 note_off channel=3 note=78 velocity=0 time=18
162.10718675 note_on channel=7 note=71 velocity=65 time=0
162.11235203125 note_on channel=0 note=71 velocity=82 time=1
162.13301315625 note_on channel=3 note=79 velocity=98 time=4
162.13817843750002 note_on channel=5 note=79 velocity=100 time=1
162.14334371875 note_off channel=4 note=86 velocity=0 time=1
162.14334371875 note_on channel=4 note=88 velocity=70 time=0
162.148509 note_on channel=5 note=83 velocity=107 time=1
162.16400484375 note_off channel=7 note=69 velocity=0 time=3
162.17433540624998 note_off channel=5 note=78 velocity=0 time=2
162.18466596875 note_off channel=5 note=81 velocity=0 time=2
162.46359115625 note_off channel=0 note=71 velocity=0 time=54
162.499748125 note_off channel=7 note=71 velocity=0 time=7
162.61854959375 note_on channel=0 note=54 velocity=35 time=23
162.623714875 note_off channel=4 note=88 velocity=0 time=1
162.623714875 note_on channel=4 note=81 velocity=63 time=0
162.62888015625 note_on channel=0 note=57 velocity=24 time=1
162.62888015625 note_off channel=3 note=79 velocity=0 time=0
162.62888015625 note_on channel=5 note=74 velocity=95 time=0
162.63404543750002 note_on channel=3 note=74 velocity=101 time=1
162.63404543750002 note_off channel=5 note=79 velocity=0 time=0
162.63404543750002 note_off channel=5 note=83 velocity=0 time=0
162.63404543750002 note_on channel=5 note=78 velocity=97 time=0
162.63921071874998 note_on channel=1 note=38 velocity=108 time=1
162.63921071874998 note_on channel=9 note=35 velocity=107 time=0
162.644376 note_on channel=9 note=42 velocity=69 time=1
162.67020240624998 note_off channel=9 note=35 velocity=0 time=5
162.6753676875 note_off channel=9 note=42 velocity=0 time=1
162.85615253125 note_off channel=0 note=54 velocity=0 time=35
162.86648309375002 note_off channel=0 note=57 velocity=0 time=2
162.87164837499998 note_on channel=0 note=54 velocity=24 time=1
162.87681365625 note_on channel=2 note=54 velocity=44 time=1
162.87681365625 note_on channel=2 note=57 velocity=38 time=0
162.8819789375 note_on channel=0 note=57 velocity=46 time=1
162.8923095 note_on channel=9 note=42 velocity=63 time=2
162.89747478125 note_on channel=0 note=62 velocity=43 time=1
162.90264006249998 note_on channel=2 note=62 velocity=33 time=1
162.9233011875 note_off channel=9 note=42 velocity=0 time=4
163.10408603124998 note_off channel=2 note=62 velocity=0 time=35
163.12474715625 note_off channel=0 note=54 velocity=0 time=4
163.12474715625 note_off channel=2 note=57 velocity=0 time=0
163.12474715625 note_on channel=7 note=66 velocity=47 time=0
163.1299124375 note_off channel=0 note=57 velocity=0 time=1
163.13507771874998 note_on channel=9 note=42 velocity=63 time=1
163.140243 note_on channel=9 note=37 velocity=90 time=1
163.14540828125 note_on channel=0 note=57 velocity=58 time=1
163.14540828125 note_on channel=0 note=54 velocity=26 time=0
163.14540828125 note_on channel=2 note=57 velocity=42 time=0
163.1505735625 note_off channel=0 note=62 velocity=0 time=1
163.1505735625 note_on channel=2 note=62 velocity=57 time=0
163.15573884375 note_on channel=0 note=62 velocity=62 time=1
163.16606940625 note_off channel=9 note=42 velocity=0 time=2
163.1712346875 note_off channel=3 note=74 velocity=0 time=1
163.1712346875 note_off channel=9 note=37 velocity=0 time=0
163.2745403125 note_off channel=7 note=66 velocity=0 time=20
163.30036671875 note_off channel=1 note=38 velocity=0 time=5
163.34168896875 note_off channel=5 note=78 velocity=0 time=8
163.36751537499998 note_off channel=0 note=54 velocity=0 time=5
163.37268065625 note_on channel=7 note=66 velocity=43 time=1
163.3778459375 note_off channel=0 note=57 velocity=0 time=1
163.3778459375 note_on channel=0 note=54 velocity=28 time=0
163.38301121875 note_off channel=2 note=57 velocity=0 time=1
163.38817650000001 note_on channel=1 note=38 velocity=102 time=1
163.38817650000001 note_off channel=2 note=62 velocity=0 time=0
163.38817650000001 note_on channel=2 note=57 velocity=51 time=0
163.38817650000001 note_on channel=9 note=46 velocity=58 time=0
163.39334178125 note_off channel=0 note=62 velocity=0 time=1
163.39334178125 note_on channel=2 note=62 velocity=63 time=0
163.39334178125 note_on channel=9 note=35 velocity=107 time=0
163.40367234375 note_on channel=0 note=62 velocity=69 time=2
163.41400290625 note_on channel=0 note=57 velocity=63 time=2
163.4191681875 note_off channel=4 note=81 velocity=0 time=1
163.4191681875 note_off channel=9 note=46 velocity=0 time=0
163.42433346875 note_off channel=9 note=35 velocity=0 time=1
163.43982931250002 note_off channel=5 note=74 velocity=0 time=3
163.5534655 note_off channel=1 note=38 velocity=0 time=22
163.615448875 note_off channel=0 note=57 velocity=0 time=12
163.62061415625 note_off channel=2 note=54 velocity=0 time=1
163.62061415625 note_on channel=3 note=74 velocity=96 time=0
163.62061415625 note_on channel=4 note=81 velocity=77 time=0
163.6257794375 note_off channel=0 note=54 velocity=0 time=1
163.6257794375 note_off channel=2 note=57 velocity=0 time=0
163.63094471875 note_on channel=0 note=54 velocity=29 time=1
163.63094471875 note_on channel=7 note=69 velocity=69 time=0
163.63611 note_off channel=2 note=62 velocity=0 time=1
163.63611 note_on channel=2 note=54 velocity=70 time=0
163.63611 note_on channel=5 note=78 velocity=111 time=0
163.63611 note_on channel=5 note=74 velocity=120 time=0
163.63611 note_on channel=9 note=42 velocity=66 time=0
163.64127528125002 note_off channel=0 note=62 velocity=0 time=1
163.64127528125002 note_on channel=2 note=57 velocity=80 time=0
163.6464405625 note_on channel=2 note=62 velocity=79 time=1
163.656771125 note_on channel=0 note=57 velocity=56 time=2
163.656771125 note_on channel=0 note=62 velocity=54 time=0
163.6671016875 note_off channel=9 note=42 velocity=0 time=2
163.74974618750002 note_off channel=7 note=66 velocity=0 time=16
163.78590315625 note_off channel=5 note=74 velocity=0 time=7
163.79623371875002 note_off channel=3 note=74 velocity=0 time=2
163.83755596875 note_off channel=5 note=78 velocity=0 time=8
163.8530518125 note_off channel=0 note=54 velocity=0 time=3
163.8530518125 note_off channel=0 note=57 velocity=0 time=0
163.86854765625 note_on channel=3 note=74 velocity=95 time=3
163.86854765625 note_off channel=4 note=81 velocity=0 time=0
163.87371293750002 note_on channel=4 note=81 velocity=66 time=1
163.87371293750002 note_on channel=5 note=74 velocity=75 time=0
163.87887821875 note_on channel=7 note=66 velocity=42 time=1
163.87887821875 note_on channel=9 note=37 velocity=97 time=0
163.87887821875 note_on channel=9 note=42 velocity=69 time=0
163.8840435 note_off channel=0 note=62 velocity=0 time=1
163.8840435 note_on channel=0 note=54 velocity=51 time=0
163.8840435 note_on channel=0 note=57 velocity=58 time=0
163.8840435 note_off channel=2 note=57 velocity=0 time=0
163.88920878125 note_off channel=2 note=62 velocity=0 time=1
163.88920878125 note_on channel=2 note=57 velocity=80 time=0
163.88920878125 note_on channel=5 note=78 velocity=81 time=0
163.8943740625 note_on channel=0 note=62 velocity=51 time=1
163.8943740625 note_on channel=2 note=62 velocity=83 time=0
163.90986990624998 note_off channel=9 note=42 velocity=0 time=3
163.90986990624998 note_off channel=9 note=37 velocity=0 time=0
163.97185328125 note_off channel=7 note=69 velocity=0 time=12
164.0390019375 note_off channel=5 note=74 velocity=0 time=13
164.0493325 note_off channel=2 note=57 velocity=0 time=2
164.0493325 note_off channel=3 note=74 velocity=0 time=0
164.05449778125 note_off channel=0 note=57 velocity=0 time=1
164.05449778125 note_off channel=2 note=62 velocity=0 time=0
164.05966306250002 note_off channel=5 note=78 velocity=0 time=1
164.09065475 note_off channel=7 note=66 velocity=0 time=6
164.1009853125 note_off channel=2 note=54 velocity=0 time=2
164.10615059375002 note_off channel=0 note=54 velocity=0 time=1
164.111315875 note_on channel=1 note=38 velocity=108 time=1
164.11648115625 note_on channel=3 note=74 velocity=102 time=1
164.12681171875 note_off channel=4 note=81 velocity=0 time=2
164.12681171875 note_on channel=4 note=82 velocity=57 time=0
164.12681171875 note_on channel=5 note=74 velocity=89 time=0
164.12681171875 note_on channel=9 note=42 velocity=69 time=0
164.131977 note_on channel=0 note=54 velocity=42 time=1
164.131977 note_on channel=5 note=78 velocity=99 time=0
164.131977 note_on channel=9 note=35 velocity=108 time=0
164.14230756249998 note_on channel=0 note=58 velocity=45 time=2
164.152638125 note_off channel=0 note=62 velocity=0 time=2
164.15780340625 note_off channel=9 note=42 velocity=0 time=1
164.1629686875 note_off channel=9 note=35 velocity=0 time=1
164.17329924999999 note_on channel=0 note=62 velocity=47 time=2
164.35408409375 note_off channel=0 note=58 velocity=0 time=35
164.37474521874998 note_off channel=0 note=62 velocity=0 time=4
164.37474521874998 note_on channel=9 note=42 velocity=52 time=0
164.38507578125 note_on channel=2 note=54 velocity=26 time=2
164.39540634375 note_on channel=0 note=58 velocity=54 time=2
164.39540634375 note_on channel=0 note=62 velocity=64 time=0
164.400571625 note_on channel=2 note=58 velocity=31 time=1
164.40573690624998 note_off channel=9 note=42 velocity=0 time=1
164.462555 note_off channel=2 note=58 velocity=0 time=11
164.52453837500002 note_off channel=2 note=54 velocity=0 time=12
164.59168703125 note_off channel=0 note=54 velocity=0 time=13
164.5968523125 note_off channel=0 note=58 velocity=0 time=1
164.61234815625 note_on channel=0 note=54 velocity=34 time=3
164.6175134375 note_off channel=0 note=62 velocity=0 time=1
164.6175134375 note_on channel=7 note=66 velocity=42 time=0
164.6175134375 note_on channel=9 note=42 velocity=64 time=0
164.62267871875 note_off channel=3 note=74 velocity=0 time=1
164.62267871875 note_on channel=9 note=37 velocity=94 time=0
164.63300928125 note_on channel=2 note=54 velocity=52 time=2
164.63300928125 note_off channel=5 note=78 velocity=0 time=0
164.63817456249998 note_on channel=0 note=58 velocity=58 time=1
164.64333984375 note_on channel=2 note=58 velocity=56 time=1
164.648505125 note_on channel=0 note=62 velocity=67 time=1
164.648505125 note_off channel=9 note=42 velocity=0 time=0
164.65367040625 note_off channel=9 note=37 velocity=0 time=1
164.66400096875 note_off channel=1 note=38 velocity=0 time=2
164.71565378124998 note_off channel=7 note=66 velocity=0 time=10
164.75181075 note_off channel=5 note=74 velocity=0 time=7
164.76730659375 note_off channel=2 note=58 velocity=0 time=3
164.7828024375 note_off channel=2 note=54 velocity=0 time=3
164.81895940625 note_off channel=4 note=82 velocity=0 time=7
164.83962053124998 note_off channel=0 note=58 velocity=0 time=4
164.83962053124998 note_on channel=7 note=66 velocity=47 time=0
164.84995109375 note_off channel=0 note=54 velocity=0 time=2
164.84995109375 note_off channel=0 note=62 velocity=0 time=0
164.855116375 note_on channel=0 note=54 velocity=42 time=1
164.87061221874998 note_on channel=1 note=38 velocity=108 time=3
164.87061221874998 note_on channel=9 note=46 velocity=70 time=0
164.8757775 note_on channel=2 note=54 velocity=74 time=1
164.88094278125 note_on channel=0 note=62 velocity=82 time=1
164.88094278125 note_on channel=9 note=35 velocity=99 time=0
164.8861080625 note_on channel=0 note=58 velocity=68 time=1
164.8861080625 note_on channel=2 note=58 velocity=80 time=0
164.896438625 note_on channel=2 note=62 velocity=69 time=2
164.90160390625 note_off channel=9 note=46 velocity=0 time=1
164.91193446875002 note_off channel=9 note=35 velocity=0 time=2
165.02040537500002 note_off channel=2 note=62 velocity=0 time=21
165.0307359375 note_off channel=2 note=58 velocity=0 time=2
165.03590121875 note_off channel=2 note=54 velocity=0 time=1
165.07722346875 note_off channel=1 note=38 velocity=0 time=8
165.08755403125 note_off channel=0 note=58 velocity=0 time=2
165.0927193125 note_on channel=7 note=70 velocity=71 time=1
165.09788459375002 note_off channel=0 note=54 velocity=0 time=1
165.10304987499998 note_on channel=0 note=54 velocity=56 time=1
165.10821515625 note_on channel=3 note=74 velocity=101 time=1
165.10821515625 note_on channel=4 note=82 velocity=79 time=0
165.10821515625 note_on channel=5 note=78 velocity=92 time=0
165.1133804375 note_on channel=0 note=58 velocity=74 time=1
165.1133804375 note_on channel=5 note=74 velocity=112 time=0
165.12371100000001 note_off channel=0 note=62 velocity=0 time=2
165.12371100000001 note_on channel=2 note=54 velocity=76 time=0
165.12887628125 note_on channel=0 note=62 velocity=82 time=1
165.12887628125 note_on channel=2 note=58 velocity=82 time=0
165.12887628125 note_on channel=9 note=42 velocity=78 time=0
165.14437212500002 note_on channel=2 note=62 velocity=31 time=3
165.15986796875 note_off channel=9 note=42 velocity=0 time=3
165.16503325 note_off channel=7 note=66 velocity=0 time=1
165.2373471875 note_off channel=2 note=62 velocity=0 time=14
165.25800831249998 note_off channel=3 note=74 velocity=0 time=4
165.27350415625 note_off channel=2 note=58 velocity=0 time=3
165.28383471875 note_off channel=2 note=54 velocity=0 time=2
165.30449584375 note_off channel=4 note=82 velocity=0 time=4
165.31482640625 note_off channel=5 note=74 velocity=0 time=2
165.31482640625 note_off channel=5 note=78 velocity=0 time=0
165.33548753124998 note_off channel=0 note=54 velocity=0 time=4
165.3406528125 note_on channel=7 note=66 velocity=59 time=1
165.350983375 note_off channel=0 note=58 velocity=0 time=2
165.350983375 note_off channel=0 note=62 velocity=0 time=0
165.350983375 note_on channel=0 note=54 velocity=61 time=0
165.35614865625 note_on channel=3 note=74 velocity=91 time=1
165.35614865625 note_on channel=4 note=82 velocity=64 time=0
165.3613139375 note_on channel=0 note=58 velocity=78 time=1
165.3613139375 note_on channel=2 note=54 velocity=68 time=0
165.36647921875 note_on channel=5 note=78 velocity=92 time=1
165.3716445 note_on channel=0 note=62 velocity=78 time=1
165.3716445 note_on channel=2 note=58 velocity=83 time=0
165.3716445 note_on channel=5 note=74 velocity=86 time=0
165.37680978125002 note_on channel=9 note=42 velocity=65 time=1
165.3819750625 note_on channel=2 note=62 velocity=77 time=1
165.3819750625 note_off channel=7 note=70 velocity=0 time=0
165.3819750625 note_on channel=9 note=37 velocity=98 time=0
165.40780146875002 note_off channel=9 note=42 velocity=0 time=5
165.41296674999998 note_off channel=9 note=37 velocity=0 time=1
165.51110709375 note_off channel=0 note=58 velocity=0 time=19
165.516272375 note_off channel=2 note=62 velocity=0 time=1
165.516272375 note_off channel=2 note=58 velocity=0 time=0
165.516272375 note_off channel=2 note=54 velocity=0 time=0
165.53176821875002 note_off channel=5 note=74 velocity=0 time=3
165.54209878125 note_off channel=5 note=78 velocity=0 time=2
165.55242934375 note_off channel=3 note=74 velocity=0 time=2
165.55242934375 note_off channel=7 note=66 velocity=0 time=0
165.59375159375 note_off channel=0 note=54 velocity=0 time=8
165.60408215625 note_on channel=0 note=54 velocity=57 time=2
165.60408215625 note_off channel=4 note=82 velocity=0 time=0
165.60408215625 note_on channel=4 note=83 velocity=81 time=0
165.60924743750002 note_on channel=1 note=38 velocity=108 time=1
165.60924743750002 note_on channel=3 note=74 velocity=105 time=0
165.61441271875 note_off channel=0 note=62 velocity=0 time=1
165.61441271875 note_on channel=0 note=59 velocity=75 time=0
165.61441271875 note_on channel=5 note=74 velocity=95 time=0
165.61441271875 note_on channel=5 note=78 velocity=103 time=0
165.619578 note_on channel=9 note=35 velocity=104 time=1
165.62474328125 note_on channel=9 note=42 velocity=66 time=1
165.63507384375 note_on channel=0 note=62 velocity=62 time=2
165.6505696875 note_off channel=9 note=35 velocity=0 time=3
165.65573496875 note_off channel=9 note=42 velocity=0 time=1
165.84168509375002 note_off channel=0 note=54 velocity=0 time=36
165.85201565625 note_off channel=0 note=59 velocity=0 time=2
165.8571809375 note_on channel=0 note=54 velocity=54 time=1
165.8571809375 note_on channel=2 note=54 velocity=51 time=0
165.86234621875 note_off channel=0 note=62 velocity=0 time=1
165.8675115 note_on channel=2 note=59 velocity=62 time=1
165.87267678125002 note_on channel=0 note=59 velocity=66 time=1
165.87267678125002 note_on channel=9 note=42 velocity=58 time=0
165.90366846875 note_off channel=9 note=42 velocity=0 time=6
165.98631296874998 note_off channel=2 note=59 velocity=0 time=16
165.99147825 note_off channel=2 note=54 velocity=0 time=1
166.094783875 note_off channel=0 note=54 velocity=0 time=20
166.10511443750002 note_on channel=0 note=54 velocity=56 time=2
166.10511443750002 note_on channel=2 note=54 velocity=66 time=0
166.115445 note_off channel=0 note=59 velocity=0 time=2
166.115445 note_on channel=9 note=42 velocity=63 time=0
166.12061028125 note_on channel=0 note=59 velocity=67 time=1
166.12061028125 note_on channel=2 note=59 velocity=61 time=0
166.12061028125 note_on channel=7 note=66 velocity=37 time=0
166.12061028125 note_on channel=9 note=37 velocity=97 time=0
166.1464366875 note_off channel=9 note=42 velocity=0 time=5
166.15160196875001 note_off channel=3 note=74 velocity=0 time=1
166.15160196875001 note_off channel=9 note=37 velocity=0 time=0
166.17226309375 note_off channel=1 note=38 velocity=0 time=4
166.18259365625002 note_off channel=4 note=83 velocity=0 time=2
166.19292421875 note_off channel=5 note=78 velocity=0 time=2
166.24457703125 note_off channel=7 note=66 velocity=0 time=10
166.2497423125 note_off channel=2 note=59 velocity=0 time=1
166.26007287500002 note_off channel=2 note=54 velocity=0 time=2
166.301395125 note_off channel=5 note=74 velocity=0 time=8
166.33755209375002 note_off channel=0 note=54 velocity=0 time=7
166.34788265625 note_off channel=0 note=59 velocity=0 time=2
166.34788265625 note_on channel=0 note=54 velocity=63 time=0
166.3530479375 note_on channel=0 note=59 velocity=72 time=1
166.3530479375 note_on channel=2 note=54 velocity=78 time=0
166.3530479375 note_on channel=7 note=66 velocity=48 time=0
166.3530479375 note_on channel=9 note=35 velocity=107 time=0
166.35821321875 note_on channel=1 note=38 velocity=113 time=1
166.35821321875 note_on channel=2 note=59 velocity=81 time=0
166.35821321875 note_on channel=9 note=46 velocity=61 time=0
166.37370906249998 note_on channel=2 note=62 velocity=84 time=3
166.384039625 note_off channel=9 note=35 velocity=0 time=2
166.38920490625 note_off channel=9 note=46 velocity=0 time=1
166.51317165625 note_off channel=2 note=59 velocity=0 time=24
166.51317165625 note_off channel=2 note=54 velocity=0 time=0
166.5183369375 note_off channel=1 note=38 velocity=0 time=1
166.5183369375 note_off channel=2 note=62 velocity=0 time=0
166.57515503124998 note_off channel=0 note=54 velocity=0 time=11
166.590650875 note_off channel=0 note=59 velocity=0 time=3
166.590650875 note_on channel=0 note=54 velocity=71 time=0
166.59581615625 note_on channel=3 note=74 velocity=100 time=1
166.59581615625 note_on channel=4 note=83 velocity=67 time=0
166.6009814375 note_on channel=0 note=59 velocity=80 time=1
166.6009814375 note_on channel=5 note=74 velocity=108 time=0
166.60614671874998 note_on channel=2 note=54 velocity=78 time=1
166.60614671874998 note_on channel=5 note=78 velocity=95 time=0
166.611312 note_on channel=0 note=62 velocity=84 time=1
166.611312 note_on channel=2 note=59 velocity=84 time=0
166.61647728125 note_on channel=9 note=42 velocity=78 time=1
166.6216425625 note_on channel=2 note=62 velocity=90 time=1
166.6216425625 note_on channel=7 note=71 velocity=80 time=0
166.64746896875002 note_off channel=9 note=42 velocity=0 time=5
166.6629648125 note_off channel=7 note=66 velocity=0 time=3
166.73527875 note_off channel=5 note=74 velocity=0 time=14
166.7456093125 note_off channel=5 note=78 velocity=0 time=2
166.7869315625 note_off channel=2 note=62 velocity=0 time=8
166.79209684375 note_off channel=2 note=59 velocity=0 time=1
166.82308853125 note_off channel=2 note=54 velocity=0 time=6
166.83341909375002 note_off channel=0 note=54 velocity=0 time=2
166.83858437499998 note_off channel=0 note=59 velocity=0 time=1
166.83858437499998 note_on channel=0 note=54 velocity=72 time=0
166.83858437499998 note_off channel=3 note=74 velocity=0 time=0
166.83858437499998 note_on channel=5 note=74 velocity=100 time=0
166.83858437499998 note_on channel=7 note=66 velocity=65 time=0
166.84374965625 note_off channel=0 note=62 velocity=0 time=1
166.84374965625 note_on channel=3 note=71 velocity=95 time=0
166.8489149375 note_on channel=0 note=59 velocity=82 time=1
166.8489149375 note_on channel=5 note=78 velocity=99 time=0
166.85408021875 note_on channel=9 note=37 velocity=104 time=1
166.86441078125 note_on channel=0 note=62 velocity=78 time=2
166.86441078125 note_on channel=9 note=42 velocity=78 time=0
166.87990662500002 note_off channel=7 note=71 velocity=0 time=3
166.88507190625 note_off channel=9 note=37 velocity=0 time=1
166.89540246875 note_off channel=9 note=42 velocity=0 time=2
166.921228875 note_off channel=7 note=66 velocity=0 time=5
166.92639415625 note_off channel=4 note=83 velocity=0 time=1
166.92639415625 note_on channel=4 note=78 velocity=64 time=0
166.96771640625 note_off channel=0 note=62 velocity=0 time=8
166.98837753125002 note_off channel=5 note=78 velocity=0 time=4
167.086517875 note_off channel=0 note=59 velocity=0 time=19
167.086517875 note_on channel=1 note=35 velocity=107 time=0
167.09168315625 note_off channel=4 note=78 velocity=0 time=1
167.09168315625 note_on channel=4 note=83 velocity=70 time=0
167.10201371875 note_off channel=3 note=71 velocity=0 time=2
167.10201371875 note_on channel=3 note=75 velocity=97 time=0
167.10201371875 note_on channel=5 note=78 velocity=123 time=0
167.10201371875 note_on channel=5 note=75 velocity=105 time=0
167.10201371875 note_on channel=9 note=40 velocity=73 time=0
167.107179 note_on channel=2 note=54 velocity=62 time=1
167.107179 note_on channel=2 note=57 velocity=82 time=0
167.11234428125002 note_on channel=2 note=63 velocity=80 time=1
167.11234428125002 note_on channel=9 note=35 velocity=90 time=0
167.1175095625 note_on channel=0 note=59 velocity=66 time=1
167.1175095625 note_on channel=0 note=47 velocity=56 time=0
167.1175095625 note_on channel=2 note=66 velocity=80 time=0
167.12267484375 note_on channel=7 note=71 velocity=66 time=1
167.13300540625 note_off channel=5 note=74 velocity=0 time=2
167.13300540625 note_off channel=9 note=40 velocity=0 time=0
167.14333596875002 note_off channel=9 note=35 velocity=0 time=2
167.334451375 note_off channel=2 note=66 velocity=0 time=37
167.33961665625 note_off channel=0 note=47 velocity=0 time=1
167.34478193750002 note_off channel=0 note=54 velocity=0 time=1
167.34994721875 note_on channel=2 note=66 velocity=74 time=1
167.3551125 note_on channel=0 note=47 velocity=47 time=1
167.3551125 note_on channel=9 note=35 velocity=81 time=0
167.3654430625 note_on channel=0 note=54 velocity=61 time=2
167.37060834375 note_off channel=0 note=59 velocity=0 time=1
167.37577362500002 note_on channel=0 note=59 velocity=69 time=1
167.3861041875 note_off channel=1 note=35 velocity=0 time=2
167.3861041875 note_off channel=9 note=35 velocity=0 time=0
167.56172375 note_off channel=2 note=54 velocity=0 time=34
167.5720543125 note_off channel=2 note=63 velocity=0 time=2
167.582384875 note_off channel=5 note=75 velocity=0 time=2
167.58755015625 note_off channel=0 note=47 velocity=0 time=1
167.58755015625 note_on channel=5 note=76 velocity=93 time=0
167.5927154375 note_off channel=2 note=57 velocity=0 time=1
167.5927154375 note_off channel=3 note=75 velocity=0 time=0
167.5927154375 note_off channel=4 note=83 velocity=0 time=0
167.5927154375 note_on channel=4 note=85 velocity=72 time=0
167.5927154375 note_on channel=9 note=40 velocity=75 time=0
167.59788071875 note_off channel=0 note=54 velocity=0 time=1
167.59788071875 note_on channel=0 note=47 velocity=59 time=0
167.59788071875 note_on channel=1 note=37 velocity=107 time=0
167.59788071875 note_off channel=2 note=66 velocity=0 time=0
167.59788071875 note_on channel=2 note=57 velocity=78 time=0
167.59788071875 note_on channel=5 note=79 velocity=108 time=0
167.603046 note_off channel=0 note=59 velocity=0 time=1
167.603046 note_on channel=2 note=66 velocity=38 time=0
167.603046 note_off channel=5 note=78 velocity=0 time=0
167.603046 note_on channel=9 note=35 velocity=97 time=0
167.60821128125002 note_on channel=0 note=54 velocity=74 time=1
167.60821128125002 note_on channel=2 note=52 velocity=44 time=0
167.60821128125002 note_on channel=3 note=76 velocity=97 time=0
167.61337656249998 note_on channel=2 note=61 velocity=78 time=1
167.61854184375 note_on channel=7 note=73 velocity=67 time=1
167.623707125 note_off channel=9 note=40 velocity=0 time=1
167.62887240625 note_on channel=0 note=59 velocity=75 time=1
167.6340376875 note_off channel=9 note=35 velocity=0 time=1
167.67019465625 note_off channel=7 note=71 velocity=0 time=7
167.8199878125 note_off channel=0 note=59 velocity=0 time=29
167.82515309375 note_off channel=2 note=66 velocity=0 time=1
167.830318375 note_off channel=0 note=47 velocity=0 time=1
167.84064893750002 note_off channel=0 note=54 velocity=0 time=2
167.84064893750002 note_off channel=2 note=61 velocity=0 time=0
167.84581421874998 note_on channel=0 note=47 velocity=84 time=1
167.84581421874998 note_on channel=0 note=54 velocity=81 time=0
167.84581421874998 note_off channel=1 note=37 velocity=0 time=0
167.84581421874998 note_on channel=2 note=66 velocity=82 time=0
167.8509795 note_on channel=2 note=61 velocity=78 time=1
167.8509795 note_on channel=9 note=35 velocity=110 time=0
167.8613100625 note_on channel=0 note=59 velocity=79 time=2
167.8819711875 note_off channel=9 note=35 velocity=0 time=4
168.04209490625001 note_off channel=2 note=52 velocity=0 time=31
168.0679213125 note_off channel=2 note=61 velocity=0 time=5
168.07308659375002 note_off channel=4 note=85 velocity=0 time=1
168.07308659375002 note_on channel=4 note=87 velocity=74 time=0
168.07825187499998 note_on channel=3 note=78 velocity=95 time=1
168.07825187499998 note_on channel=7 note=75 velocity=70 time=0
168.08341715625 note_off channel=0 note=54 velocity=0 time=1
168.08341715625 note_on channel=1 note=39 velocity=105 time=0
168.08341715625 note_off channel=2 note=57 velocity=0 time=0
168.08341715625 note_off channel=2 note=66 velocity=0 time=0
168.0885824375 note_on channel=2 note=54 velocity=66 time=1
168.09374771875 note_off channel=0 note=59 velocity=0 time=1
168.09374771875 note_on channel=0 note=54 velocity=81 time=0
168.09374771875 note_on channel=2 note=57 velocity=84 time=0
168.09374771875 note_on channel=5 note=81 velocity=114 time=0
168.09374771875 note_on channel=5 note=78 velocity=107 time=0
168.09374771875 note_on channel=9 note=40 velocity=83 time=0
168.098913 note_on channel=2 note=63 velocity=83 time=1
168.098913 note_off channel=3 note=76 velocity=0 time=0
168.098913 note_on channel=9 note=35 velocity=115 time=0
168.10407828125 note_on channel=0 note=59 velocity=80 time=1
168.10924356249998 note_on channel=2 note=66 velocity=83 time=1
168.10924356249998 note_off channel=5 note=79 velocity=0 time=0
168.12473940625 note_off channel=9 note=40 velocity=0 time=3
168.1299046875 note_off channel=7 note=73 velocity=0 time=1
168.1299046875 note_off channel=9 note=35 velocity=0 time=0
168.18672278124998 note_off channel=5 note=76 velocity=0 time=11
168.31068953124998 note_off channel=2 note=66 velocity=0 time=24
168.33135065625 note_off channel=0 note=59 velocity=0 time=4
168.3365159375 note_off channel=0 note=54 velocity=0 time=1
168.3365159375 note_on channel=2 note=66 velocity=82 time=0
168.34168121874998 note_on channel=0 note=54 velocity=72 time=1
168.34168121874998 note_on channel=0 note=59 velocity=35 time=0
168.34168121874998 note_off channel=2 note=57 velocity=0 time=0
168.34168121874998 note_on channel=9 note=35 velocity=121 time=0
168.3468465 note_on channel=2 note=57 velocity=49 time=1
168.37267290625 note_off channel=9 note=35 velocity=0 time=5
168.3778381875 note_off channel=1 note=39 velocity=0 time=1
168.39333403125 note_off channel=0 note=54 velocity=0 time=3
168.3984993125 note_off channel=0 note=47 velocity=0 time=1
168.40366459375 note_off channel=7 note=75 velocity=0 time=1
168.42432571875 note_off channel=0 note=59 velocity=0 time=4
168.4811438125 note_off channel=2 note=57 velocity=0 time=11
168.51730078125001 note_off channel=2 note=54 velocity=0 time=7
168.52763134375 note_off channel=2 note=63 velocity=0 time=2
168.52763134375 note_off channel=5 note=81 velocity=0 time=0
168.5431271875 note_off channel=2 note=66 velocity=0 time=3
168.5431271875 note_off channel=4 note=87 velocity=0 time=0
168.55862303125 note_off channel=5 note=78 velocity=0 time=3
168.5637883125 note_on channel=9 note=49 velocity=66 time=1
168.56895359375002 note_off channel=3 note=78 velocity=0 time=1
168.56895359375002 note_on channel=4 note=88 velocity=58 time=0
168.57928415625 note_on channel=0 note=40 velocity=37 time=2
168.57928415625 note_on channel=1 note=40 velocity=107 time=0
168.57928415625 note_on channel=3 note=79 velocity=98 time=0
168.5844494375 note_on channel=5 note=79 velocity=107 time=1
168.5844494375 note_on channel=5 note=83 velocity=114 time=0
168.59478000000001 note_on channel=0 note=47 velocity=65 time=2
168.59478000000001 note_off channel=9 note=49 velocity=0 time=0
168.59478000000001 note_on channel=9 note=35 velocity=119 time=0
168.59478000000001 note_on channel=9 note=62 velocity=81 time=0
168.59994528125 note_on channel=0 note=55 velocity=61 time=1
168.59994528125 note_on channel=2 note=55 velocity=77 time=0
168.59994528125 pitchwheel channel=7 pitch=0 time=0
168.6051105625 note_on channel=0 note=52 velocity=66 time=1
168.6051105625 note_on channel=2 note=59 velocity=85 time=0
168.6051105625 note_on channel=2 note=64 velocity=91 time=0
168.6051105625 note_on channel=7 note=70 velocity=95 time=0
168.6051105625 pitchwheel channel=7 pitch=-160 time=0
168.61027584375 note_on channel=0 note=59 velocity=76 time=1
168.62060640625 note_on channel=0 note=64 velocity=53 time=2
168.6257716875 note_off channel=9 note=62 velocity=0 time=1
168.6257716875 note_off channel=9 note=35 velocity=0 time=0
168.63610225 pitchwheel channel=7 pitch=160 time=2
168.656763375 pitchwheel channel=7 pitch=3488 time=4
168.6670939375 pitchwheel channel=7 pitch=3552 time=2
168.68258978125 pitchwheel channel=7 pitch=3616 time=3
168.698085625 pitchwheel channel=7 pitch=3712 time=3
168.71358146875 pitchwheel channel=7 pitch=3840 time=3
168.72907731249998 pitchwheel channel=7 pitch=3904 time=3
168.76523428125 pitchwheel channel=7 pitch=3936 time=7
168.780730125 pitchwheel channel=7 pitch=3904 time=3
168.7910606875 pitchwheel channel=7 pitch=3872 time=2
168.80139125000002 note_off channel=0 note=64 velocity=0 time=2
168.82721765625 note_off channel=1 note=40 velocity=0 time=5
168.82721765625 note_off channel=7 note=70 velocity=0 time=0
168.82721765625 pitchwheel channel=7 pitch=3936 time=0
168.8323829375 note_off channel=0 note=59 velocity=0 time=1
168.8323829375 note_on channel=0 note=64 velocity=68 time=0
168.83754821875 note_on channel=9 note=42 velocity=73 time=1
168.8427135 note_on channel=0 note=59 velocity=65 time=1
168.8427135 pitchwheel channel=7 pitch=3968 time=0
168.84787878125002 note_off channel=2 note=64 velocity=0 time=1
168.84787878125002 note_on channel=9 note=62 velocity=80 time=0
168.8530440625 note_on channel=2 note=64 velocity=58 time=1
168.863374625 note_on channel=1 note=40 velocity=106 time=2
168.86853990625 note_off channel=9 note=42 velocity=0 time=1
168.87887046875002 pitchwheel channel=7 pitch=0 time=2
168.87887046875002 note_off channel=9 note=62 velocity=0 time=0
168.88403574999998 note_on channel=7 note=69 velocity=80 time=1
168.96668025 note_on channel=9 note=62 velocity=71 time=16
168.9976719375 note_off channel=9 note=62 velocity=0 time=6
169.03899418749998 note_off channel=1 note=40 velocity=0 time=8
169.04932475 note_off channel=0 note=59 velocity=0 time=2
169.04932475 note_off channel=2 note=55 velocity=0 time=0
169.05449003125 note_off channel=2 note=59 velocity=0 time=1
169.05449003125 pitchwheel channel=7 pitch=-96 time=0
169.0596553125 note_off channel=7 note=69 velocity=0 time=1
169.069985875 note_off channel=0 note=47 velocity=0 time=2
169.08031643750002 note_on channel=9 note=62 velocity=84 time=2
169.08548171875 note_on channel=0 note=47 velocity=51 time=1
169.08548171875 note_on channel=6 note=47 velocity=102 time=0
169.08548171875 note_on channel=9 note=40 velocity=85 time=0
169.08548171875 note_on channel=9 note=42 velocity=68 time=0
169.090647 note_off channel=0 note=55 velocity=0 time=1
169.090647 note_on channel=2 note=59 velocity=78 time=0
169.090647 pitchwheel channel=7 pitch=0 time=0
169.09581228125 note_on channel=0 note=55 velocity=63 time=1
169.09581228125 note_on channel=2 note=52 velocity=48 time=0
169.09581228125 note_on channel=2 note=55 velocity=72 time=0
169.09581228125 note_on channel=7 note=67 velocity=89 time=0
169.09581228125 pitchwheel channel=7 pitch=384 time=0
169.1009775625 note_on channel=0 note=59 velocity=67 time=1
169.11130812500002 note_off channel=9 note=62 velocity=0 time=2
169.11647340624998 note_off channel=9 note=40 velocity=0 time=1
169.11647340624998 note_off channel=9 note=42 velocity=0 time=0
169.1629609375 pitchwheel channel=7 pitch=416 time=9
169.22494431249999 pitchwheel channel=7 pitch=384 time=12
169.24044015625 pitchwheel channel=7 pitch=256 time=3
169.255936 pitchwheel channel=7 pitch=0 time=3
169.27143184374998 note_off channel=7 note=67 velocity=0 time=3
169.27143184374998 pitchwheel channel=7 pitch=416 time=0
169.30242353124999 note_off channel=2 note=55 velocity=0 time=6
169.31275409375002 note_off channel=0 note=52 velocity=0 time=2
169.31275409375002 note_off channel=0 note=55 velocity=0 time=0
169.31275409375002 note_off channel=2 note=64 velocity=0 time=0
169.31275409375002 pitchwheel channel=7 pitch=0 time=0
169.317919375 note_off channel=0 note=47 velocity=0 time=1
169.317919375 note_off channel=0 note=59 velocity=0 time=0
169.317919375 note_off channel=2 note=59 velocity=0 time=0
169.32308465625 note_on channel=1 note=40 velocity=108 time=1
169.32308465625 note_on channel=7 note=66 velocity=90 time=0
169.32308465625 pitchwheel channel=7 pitch=352 time=0
169.3282499375 note_off channel=0 note=64 velocity=0 time=1
169.3282499375 note_on channel=0 note=47 velocity=72 time=0
169.3282499375 note_on channel=0 note=52 velocity=76 time=0
169.33341521875 note_on channel=2 note=64 velocity=87 time=1
169.33341521875 pitchwheel channel=7 pitch=320 time=0
169.33341521875 note_on channel=9 note=46 velocity=68 time=0
169.33341521875 note_on channel=9 note=62 velocity=80 time=0
169.3385805 note_on channel=0 note=55 velocity=77 time=1
169.34374578125002 note_on channel=0 note=59 velocity=84 time=1
169.34374578125002 note_on channel=2 note=59 velocity=84 time=0
169.34374578125002 note_on channel=9 note=35 velocity=108 time=0
169.34891106249998 note_on channel=0 note=64 velocity=84 time=1
169.34891106249998 note_on channel=2 note=55 velocity=83 time=0
169.359241625 note_on channel=2 note=47 velocity=26 time=2
169.36440690625 note_off channel=9 note=62 velocity=0 time=1
169.36440690625 note_off channel=9 note=46 velocity=0 time=0
169.37473746875 note_off channel=9 note=35 velocity=0 time=2
169.39023331250002 pitchwheel channel=7 pitch=288 time=3
169.40572915625 pitchwheel channel=7 pitch=256 time=3
169.42122500000002 pitchwheel channel=7 pitch=192 time=3
169.43672084375 pitchwheel channel=7 pitch=160 time=3
169.45738196874998 note_on channel=9 note=62 velocity=52 time=4
169.46254725 pitchwheel channel=7 pitch=64 time=1
169.483208375 pitchwheel channel=7 pitch=32 time=4
169.48837365625 note_off channel=9 note=62 velocity=0 time=1
169.49870421875002 pitchwheel channel=7 pitch=0 time=2
169.51936534375 pitchwheel channel=7 pitch=160 time=4
169.53486118749998 pitchwheel channel=7 pitch=320 time=3
169.55035703125 pitchwheel channel=7 pitch=480 time=3
169.565852875 note_off channel=0 note=64 velocity=0 time=3
169.565852875 note_off channel=7 note=66 velocity=0 time=0
169.565852875 note_on channel=7 note=64 velocity=77 time=0
169.565852875 pitchwheel channel=7 pitch=96 time=0
169.57618343750002 note_off channel=0 note=59 velocity=0 time=2
169.57618343750002 note_off channel=0 note=47 velocity=0 time=0
169.57618343750002 note_on channel=9 note=62 velocity=81 time=0
169.58134871874998 note_on channel=0 note=64 velocity=90 time=1
169.58134871874998 note_off channel=1 note=40 velocity=0 time=0
169.58134871874998 note_on channel=1 note=42 velocity=111 time=0
169.58134871874998 note_on channel=9 note=42 velocity=75 time=0
169.59167928125 note_on channel=0 note=59 velocity=88 time=2
169.60200984375 note_on channel=0 note=47 velocity=62 time=2
169.607175125 note_off channel=9 note=62 velocity=0 time=1
169.61234040624998 note_off channel=9 note=42 velocity=0 time=1
169.6381668125 pitchwheel channel=7 pitch=64 time=5
169.65366265625002 pitchwheel channel=7 pitch=0 time=3
169.751803 pitchwheel channel=7 pitch=-32 time=19
169.75696828125 note_off channel=7 note=64 velocity=0 time=1
169.77762940625 note_off channel=0 note=40 velocity=0 time=4
169.79829053125 note_off channel=2 note=64 velocity=0 time=4
169.79829053125 pitchwheel channel=7 pitch=0 time=0
169.8034558125 note_on channel=7 note=62 velocity=73 time=1
169.80862109375002 pitchwheel channel=7 pitch=192 time=1
169.81378637499998 note_off channel=0 note=47 velocity=0 time=1
169.81378637499998 note_off channel=2 note=59 velocity=0 time=0
169.8241169375 note_on channel=0 note=40 velocity=73 time=2
169.8241169375 note_on channel=0 note=47 velocity=75 time=0
169.8241169375 note_on channel=2 note=64 velocity=67 time=0
169.82928221875 note_off channel=1 note=42 velocity=0 time=1
169.82928221875 note_on channel=1 note=35 velocity=99 time=0
169.82928221875 note_on channel=2 note=59 velocity=75 time=0
169.82928221875 note_on channel=9 note=40 velocity=85 time=0
169.82928221875 note_on channel=9 note=42 velocity=62 time=0
169.82928221875 note_on channel=9 note=62 velocity=78 time=0
169.8344475 note_off channel=0 note=55 velocity=0 time=1
169.83961278125 note_on channel=0 note=55 velocity=65 time=1
169.86027390625 note_off channel=9 note=62 velocity=0 time=4
169.86027390625 note_off channel=9 note=42 velocity=0 time=0
169.86027390625 note_off channel=9 note=40 velocity=0 time=0
169.87060446875 pitchwheel channel=7 pitch=160 time=2
169.90159615625 pitchwheel channel=7 pitch=192 time=6
169.93258784375 pitchwheel channel=7 pitch=128 time=6
169.9480836875 note_off channel=7 note=62 velocity=0 time=3
169.9480836875 pitchwheel channel=7 pitch=192 time=0
169.95841425 note_on channel=9 note=62 velocity=70 time=2
169.9894059375 note_off channel=1 note=35 velocity=0 time=6
169.9894059375 note_off channel=9 note=62 velocity=0 time=0
170.0307281875 note_off channel=2 note=59 velocity=0 time=8
170.0513893125 note_off channel=2 note=52 velocity=0 time=4
170.05655459375 note_off channel=2 note=55 velocity=0 time=1
170.05655459375 pitchwheel channel=7 pitch=0 time=0
170.061719875 note_off channel=0 note=52 velocity=0 time=1
170.061719875 note_off channel=0 note=47 velocity=0 time=0
170.06688515625 note_off channel=0 note=55 velocity=0 time=1
170.06688515625 note_on channel=7 note=58 velocity=80 time=0
170.0720504375 note_off channel=0 note=64 velocity=0 time=1
170.0720504375 note_off channel=0 note=59 velocity=0 time=0
170.0720504375 note_on channel=0 note=52 velocity=76 time=0
170.0720504375 note_on channel=0 note=47 velocity=80 time=0
170.0720504375 note_on channel=2 note=52 velocity=52 time=0
170.0720504375 pitchwheel channel=7 pitch=-32 time=0
170.0720504375 note_on channel=9 note=49 velocity=59 time=0
170.0720504375 note_on channel=9 note=62 velocity=85 time=0
170.07721571874998 note_on channel=0 note=55 velocity=85 time=1
170.07721571874998 note_on channel=0 note=59 velocity=83 time=0
170.07721571874998 note_on channel=2 note=55 velocity=79 time=0
170.07721571874998 note_on channel=2 note=59 velocity=88 time=0
170.07721571874998 note_on channel=9 note=42 velocity=65 time=0
170.08754628125 note_on channel=0 note=64 velocity=88 time=2
170.08754628125 note_on channel=1 note=40 velocity=106 time=0
170.0927115625 note_on channel=9 note=35 velocity=108 time=1
170.103042125 note_off channel=9 note=62 velocity=0 time=2
170.103042125 note_off channel=9 note=49 velocity=0 time=0
170.10820740625 pitchwheel channel=7 pitch=448 time=1
170.10820740625 note_off channel=9 note=42 velocity=0 time=0
170.12370325 pitchwheel channel=7 pitch=3872 time=3
170.12370325 note_off channel=9 note=35 velocity=0 time=0
170.13919909375 pitchwheel channel=7 pitch=3904 time=3
170.17019078125 pitchwheel channel=7 pitch=3936 time=6
170.23217415624998 pitchwheel channel=7 pitch=3968 time=12
170.24767 pitchwheel channel=7 pitch=4032 time=3
170.26316584375 pitchwheel channel=7 pitch=4128 time=3
170.2786616875 pitchwheel channel=7 pitch=4192 time=3
170.28899225 note_off channel=2 note=64 velocity=0 time=2
170.28899225 note_off channel=7 note=58 velocity=0 time=0
170.2993228125 note_off channel=0 note=64 velocity=0 time=2
170.2993228125 note_off channel=1 note=40 velocity=0 time=0
170.31481865625 note_on channel=0 note=64 velocity=82 time=3
170.3199839375 note_on channel=9 note=62 velocity=67 time=1
170.32514921875 note_on channel=9 note=42 velocity=58 time=1
170.33031450000001 pitchwheel channel=7 pitch=0 time=1
170.33547978125 note_on channel=2 note=64 velocity=51 time=1
170.3406450625 note_on channel=7 note=57 velocity=62 time=1
170.3406450625 pitchwheel channel=7 pitch=256 time=0
170.34581034375 pitchwheel channel=7 pitch=224 time=1
170.35097562500002 note_off channel=9 note=62 velocity=0 time=1
170.35614090625 note_off channel=9 note=42 velocity=0 time=1
170.38713259374998 pitchwheel channel=7 pitch=192 time=6
170.4026284375 pitchwheel channel=7 pitch=160 time=3
170.41812428125 pitchwheel channel=7 pitch=96 time=3
170.433620125 pitchwheel channel=7 pitch=32 time=3
170.4439506875 note_on channel=9 note=62 velocity=67 time=2
170.44911596875 pitchwheel channel=7 pitch=0 time=1
170.46461181249998 pitchwheel channel=7 pitch=-64 time=3
170.474942375 note_off channel=9 note=62 velocity=0 time=2
170.48010765625 pitchwheel channel=7 pitch=-96 time=1
170.4956035 pitchwheel channel=7 pitch=-64 time=3
170.51109934375 pitchwheel channel=7 pitch=-192 time=3
170.52142990625 note_off channel=2 note=52 velocity=0 time=2
170.53176046875 pitchwheel channel=7 pitch=-288 time=2
170.54209103124998 note_off channel=0 note=47 velocity=0 time=2
170.54209103124998 note_off channel=7 note=57 velocity=0 time=0
170.54209103124998 pitchwheel channel=7 pitch=-64 time=0
170.5472563125 note_off channel=2 note=47 velocity=0 time=1
170.557586875 note_on channel=9 note=62 velocity=80 time=2
170.56275215625 note_on channel=0 note=47 velocity=66 time=1
170.5679174375 note_off channel=0 note=52 velocity=0 time=1
170.5679174375 pitchwheel channel=7 pitch=0 time=0
170.57308271875 note_on channel=0 note=52 velocity=38 time=1
170.57308271875 note_on channel=1 note=31 velocity=106 time=0
170.57308271875 note_off channel=2 note=59 velocity=0 time=0
170.57308271875 note_on channel=2 note=47 velocity=47 time=0
170.57308271875 note_on channel=2 note=52 velocity=69 time=0
170.57308271875 note_on channel=7 note=55 velocity=85 time=0
170.57308271875 pitchwheel channel=7 pitch=544 time=0
170.57308271875 note_on channel=9 note=42 velocity=59 time=0
170.58341328125002 note_on channel=9 note=40 velocity=80 time=2
170.5885785625 note_on channel=2 note=59 velocity=74 time=1
170.5885785625 pitchwheel channel=7 pitch=512 time=0
170.5885785625 note_off channel=9 note=62 velocity=0 time=0
170.60407440625 note_off channel=9 note=42 velocity=0 time=3
170.61440496875002 note_off channel=9 note=40 velocity=0 time=2
170.65572721875 pitchwheel channel=7 pitch=544 time=8
170.68671890625 pitchwheel channel=7 pitch=608 time=6
170.70221475 pitchwheel channel=7 pitch=640 time=3
170.71771059375 pitchwheel channel=7 pitch=576 time=3
170.74870228125 pitchwheel channel=7 pitch=448 time=6
170.764198125 pitchwheel channel=7 pitch=320 time=3
170.76936340625002 note_off channel=0 note=64 velocity=0 time=1
170.77969396875 note_off channel=0 note=52 velocity=0 time=2
170.78485925 note_off channel=0 note=55 velocity=0 time=1
170.78485925 note_off channel=7 note=55 velocity=0 time=0
170.78485925 pitchwheel channel=7 pitch=640 time=0
170.7951898125 note_off channel=0 note=59 velocity=0 time=2
170.7951898125 note_off channel=2 note=47 velocity=0 time=0
170.80035509375 note_on channel=0 note=52 velocity=74 time=1
170.805520375 note_on channel=0 note=55 velocity=84 time=1
170.805520375 pitchwheel channel=7 pitch=0 time=0
170.81068565625 note_on channel=0 note=59 velocity=90 time=1
170.81068565625 note_off channel=2 note=55 velocity=0 time=0
170.81068565625 note_off channel=2 note=52 velocity=0 time=0
170.81068565625 note_off channel=2 note=59 velocity=0 time=0
170.81585093750002 note_on channel=0 note=64 velocity=93 time=1
170.81585093750002 note_on channel=2 note=47 velocity=81 time=0
170.81585093750002 note_on channel=2 note=52 velocity=72 time=0
170.81585093750002 note_on channel=7 note=54 velocity=87 time=0
170.81585093750002 pitchwheel channel=7 pitch=224 time=0
170.82101621875 note_on channel=2 note=55 velocity=85 time=1
170.82101621875 pitchwheel channel=7 pitch=256 time=0
170.82101621875 note_on channel=9 note=46 velocity=70 time=0
170.82101621875 note_on channel=9 note=62 velocity=63 time=0
170.8261815 note_off channel=2 note=64 velocity=0 time=1
170.8261815 note_on channel=2 note=59 velocity=79 time=0
170.83134678125 note_off channel=1 note=31 velocity=0 time=1
170.83134678125 note_on channel=2 note=64 velocity=83 time=0
170.83134678125 note_on channel=9 note=35 velocity=110 time=0
170.85200790624998 note_off channel=9 note=62 velocity=0 time=4
170.85200790624998 note_off channel=9 note=46 velocity=0 time=0
170.86233846875 note_off channel=9 note=35 velocity=0 time=2
170.86750375 pitchwheel channel=7 pitch=320 time=1
170.88299959375 pitchwheel channel=7 pitch=384 time=3
170.89333015625002 note_off channel=2 note=64 velocity=0 time=2
170.89333015625002 pitchwheel channel=7 pitch=448 time=0
170.91399128125 pitchwheel channel=7 pitch=512 time=4
170.92432184375002 note_on channel=2 note=64 velocity=89 time=2
170.92948712499998 pitchwheel channel=7 pitch=416 time=1
170.9398176875 pitchwheel channel=7 pitch=352 time=2
170.9398176875 note_on channel=9 note=62 velocity=61 time=0
170.96047881249999 pitchwheel channel=7 pitch=320 time=4
170.97080937500002 note_off channel=9 note=62 velocity=0 time=2
170.99663578125 pitchwheel channel=7 pitch=96 time=5
171.00696634374998 note_off channel=2 note=64 velocity=0 time=2
171.012131625 note_off channel=7 note=54 velocity=0 time=1
171.012131625 pitchwheel channel=7 pitch=352 time=0
171.01729690625 note_off channel=0 note=64 velocity=0 time=1
171.02762746875 note_off channel=2 note=52 velocity=0 time=2
171.03279275 note_off channel=0 note=59 velocity=0 time=1
171.03279275 note_off channel=2 note=59 velocity=0 time=0
171.03795803124999 note_on channel=0 note=64 velocity=82 time=1
171.04828859375002 note_on channel=0 note=59 velocity=83 time=2
171.053453875 note_on channel=2 note=52 velocity=68 time=1
171.053453875 note_on channel=5 note=78 velocity=94 time=0
171.05861915625 note_on channel=2 note=59 velocity=89 time=1
171.05861915625 note_off channel=4 note=88 velocity=0 time=0
171.05861915625 note_on channel=4 note=86 velocity=72 time=0
171.05861915625 note_on channel=5 note=81 velocity=102 time=0
171.05861915625 pitchwheel channel=7 pitch=0 time=0
171.05861915625 note_on channel=9 note=62 velocity=80 time=0
171.0637844375 note_on channel=2 note=64 velocity=89 time=1
171.06894971875 note_on channel=1 note=35 velocity=109 time=1
171.074115 note_off channel=3 note=79 velocity=0 time=1
171.074115 note_on channel=3 note=78 velocity=95 time=0
171.074115 note_off channel=5 note=83 velocity=0 time=0
171.074115 note_on channel=7 note=52 velocity=86 time=0
171.074115 note_on channel=9 note=42 velocity=69 time=0
171.07928028125002 pitchwheel channel=7 pitch=352 time=1
171.08444556249998 pitchwheel channel=7 pitch=288 time=1
171.08961084375 note_off channel=9 note=62 velocity=0 time=1
171.09994140625 note_off channel=5 note=79 velocity=0 time=2
171.1051066875 note_off channel=9 note=42 velocity=0 time=1
171.12576781250002 pitchwheel channel=7 pitch=256 time=4
171.14126365625 pitchwheel channel=7 pitch=224 time=3
171.15675950000002 pitchwheel channel=7 pitch=192 time=3
171.17225534375 pitchwheel channel=7 pitch=160 time=3
171.1877511875 pitchwheel channel=7 pitch=128 time=3
171.20324703125002 pitchwheel channel=7 pitch=96 time=3
171.218742875 pitchwheel channel=7 pitch=64 time=3
171.23423871875002 pitchwheel channel=7 pitch=0 time=3
171.2497345625 pitchwheel channel=7 pitch=-64 time=3
171.260065125 note_off channel=7 note=52 velocity=0 time=2
171.260065125 pitchwheel channel=7 pitch=128 time=0
171.29622209375 note_off channel=1 note=35 velocity=0 time=7
171.301387375 note_off channel=2 note=59 velocity=0 time=1
171.301387375 note_off channel=2 note=52 velocity=0 time=0
171.31688321874998 note_on channel=9 note=40 velocity=87 time=3
171.31688321874998 note_on channel=9 note=42 velocity=59 time=0
171.31688321874998 note_on channel=9 note=62 velocity=76 time=0
171.3220485 note_on channel=2 note=59 velocity=85 time=1
171.3220485 note_off channel=5 note=81 velocity=0 time=0
171.32721378125 pitchwheel channel=7 pitch=0 time=1
171.3323790625 note_on channel=2 note=52 velocity=52 time=1
171.33754434375 note_off channel=0 note=47 velocity=0 time=1
171.33754434375 note_on channel=7 note=50 velocity=73 time=0
171.33754434375 pitchwheel channel=7 pitch=896 time=0
171.34787490624998 note_off channel=9 note=62 velocity=0 time=2
171.34787490624998 note_off channel=9 note=42 velocity=0 time=0
171.34787490624998 note_off channel=9 note=40 velocity=0 time=0
171.3530401875 pitchwheel channel=7 pitch=864 time=1
171.35820546875001 pitchwheel channel=7 pitch=832 time=1
171.36337075 note_off channel=0 note=52 velocity=0 time=1
171.38919715625002 pitchwheel channel=7 pitch=800 time=5
171.404693 pitchwheel channel=7 pitch=704 time=3
171.4150235625 note_off channel=5 note=78 velocity=0 time=2
171.42018884375 note_off channel=2 note=47 velocity=0 time=1
171.42018884375 note_off channel=3 note=78 velocity=0 time=0
171.42018884375 pitchwheel channel=7 pitch=576 time=0
171.43568468750001 pitchwheel channel=7 pitch=384 time=3
171.44084996875 note_on channel=9 note=62 velocity=69 time=1
171.45118053125 note_off channel=7 note=50 velocity=0 time=2
171.45118053125 pitchwheel channel=7 pitch=832 time=0
171.46151109375 note_off channel=6 note=47 velocity=0 time=2
171.47184165624998 note_off channel=9 note=62 velocity=0 time=2
171.4770069375 note_off channel=4 note=86 velocity=0 time=1
171.50283334374998 note_off channel=0 note=59 velocity=0 time=5
171.5183291875 note_off channel=2 note=59 velocity=0 time=3
171.52349446875 note_off channel=2 note=55 velocity=0 time=1
171.53382503125 note_off channel=0 note=64 velocity=0 time=2
171.53382503125 note_off channel=2 note=52 velocity=0 time=0
171.5389903125 note_off channel=0 note=40 velocity=0 time=1
171.54415559375002 note_off channel=0 note=55 velocity=0 time=1
171.54415559375002 note_on channel=0 note=48 velocity=66 time=0
171.54415559375002 note_on channel=0 note=52 velocity=67 time=0
171.54932087499998 note_on channel=0 note=55 velocity=79 time=1
171.54932087499998 note_on channel=4 note=86 velocity=72 time=0
171.55448615625 note_on channel=0 note=60 velocity=87 time=1
171.55448615625 note_on channel=5 note=78 velocity=105 time=0
171.55448615625 note_on channel=5 note=81 velocity=110 time=0
171.55448615625 note_on channel=7 note=48 velocity=91 time=0
171.5596514375 note_on channel=0 note=64 velocity=84 time=1
171.5596514375 note_on channel=1 note=36 velocity=104 time=0
171.5596514375 note_off channel=2 note=64 velocity=0 time=0
171.5596514375 note_on channel=9 note=62 velocity=82 time=0
171.56481671875 note_on channel=9 note=42 velocity=64 time=1
171.569982 note_on channel=2 note=55 velocity=83 time=1
171.569982 note_on channel=2 note=48 velocity=86 time=0
171.569982 note_on channel=9 note=49 velocity=59 time=0
171.569982 note_on channel=9 note=35 velocity=104 time=0
171.57514728125 note_on channel=2 note=60 velocity=82 time=1
171.57514728125 note_on channel=3 note=78 velocity=107 time=0
171.58031256249998 note_on channel=2 note=64 velocity=79 time=1
171.58031256249998 note_on channel=7 note=55 velocity=80 time=0
171.58547784375 note_on channel=2 note=52 velocity=57 time=1
171.590643125 note_off channel=9 note=62 velocity=0 time=1
171.59580840625 note_off channel=9 note=42 velocity=0 time=1
171.6009736875 note_off channel=9 note=49 velocity=0 time=1
171.6009736875 note_off channel=9 note=35 velocity=0 time=0
171.76109740625 note_off channel=0 note=64 velocity=0 time=31
171.77659325000002 note_off channel=0 note=60 velocity=0 time=3
171.77659325000002 note_off channel=1 note=36 velocity=0 time=0
171.78175853124998 note_on channel=0 note=64 velocity=78 time=1
171.79208909375 note_on channel=0 note=60 velocity=78 time=2
171.79208909375 note_off channel=2 note=64 velocity=0 time=0
171.797254375 note_off channel=0 note=52 velocity=0 time=1
171.80241965625 note_on channel=0 note=52 velocity=51 time=1
171.8075849375 note_off channel=2 note=60 velocity=0 time=1
171.8075849375 note_on channel=2 note=64 velocity=70 time=0
171.81275021874998 note_on channel=2 note=60 velocity=65 time=1
171.81275021874998 note_on channel=9 note=62 velocity=78 time=0
171.82308078125 note_on channel=1 note=36 velocity=108 time=2
171.82308078125 note_on channel=9 note=42 velocity=59 time=0
171.84374190625 note_off channel=9 note=62 velocity=0 time=4
171.85407246875002 note_off channel=9 note=42 velocity=0 time=2
171.93155168750002 note_on channel=9 note=62 velocity=66 time=15
171.96254337500002 note_off channel=9 note=62 velocity=0 time=6
172.0141961875 note_off channel=2 note=52 velocity=0 time=10
172.02969203125 note_off channel=0 note=48 velocity=0 time=3
172.0348573125 note_off channel=0 note=52 velocity=0 time=1
172.04002259375002 note_on channel=0 note=48 velocity=71 time=1
172.04518787499998 note_off channel=0 note=55 velocity=0 time=1
172.04518787499998 note_on channel=0 note=52 velocity=60 time=0
172.04518787499998 note_off channel=1 note=36 velocity=0 time=0
172.04518787499998 note_off channel=4 note=86 velocity=0 time=0
172.04518787499998 note_on channel=4 note=84 velocity=70 time=0
172.04518787499998 note_on channel=5 note=79 velocity=104 time=0
172.05035315625 note_on channel=2 note=52 velocity=44 time=1
172.05035315625 note_on channel=5 note=76 velocity=95 time=0
172.0555184375 note_on channel=0 note=55 velocity=66 time=1
172.0555184375 note_on channel=9 note=40 velocity=79 time=0
172.0555184375 note_on channel=9 note=62 velocity=76 time=0
172.06068371875 note_on channel=3 note=76 velocity=98 time=1
172.06068371875 note_off channel=5 note=78 velocity=0 time=0
172.06068371875 note_on channel=6 note=48 velocity=91 time=0
172.06584900000001 note_off channel=3 note=78 velocity=0 time=1
172.06584900000001 note_on channel=9 note=42 velocity=63 time=0
172.07101428125 note_off channel=0 note=60 velocity=0 time=1
172.08134484375 note_off channel=5 note=81 velocity=0 time=2
172.08651012500002 note_off channel=9 note=62 velocity=0 time=1
172.08651012500002 note_off channel=9 note=40 velocity=0 time=0
172.0968406875 note_off channel=9 note=42 velocity=0 time=2
172.27246025000002 note_off channel=7 note=48 velocity=0 time=34
172.27762553124998 note_off channel=0 note=64 velocity=0 time=1
172.2827908125 note_off channel=2 note=64 velocity=0 time=1
172.28795609375 note_off channel=0 note=52 velocity=0 time=1
172.293121375 note_off channel=0 note=55 velocity=0 time=1
172.293121375 note_on channel=0 note=52 velocity=62 time=0
172.293121375 note_off channel=2 note=60 velocity=0 time=0
172.293121375 note_off channel=2 note=52 velocity=0 time=0
172.29828665625 note_on channel=0 note=55 velocity=85 time=1
172.29828665625 note_off channel=2 note=55 velocity=0 time=0
172.29828665625 note_on channel=2 note=64 velocity=83 time=0
172.29828665625 note_on channel=7 note=48 velocity=99 time=0
172.3034519375 note_on channel=0 note=64 velocity=90 time=1
172.3034519375 note_off channel=7 note=55 velocity=0 time=0
172.3034519375 note_on channel=9 note=62 velocity=74 time=0
172.30861721875 note_on channel=1 note=40 velocity=110 time=1
172.30861721875 note_on channel=2 note=60 velocity=82 time=0
172.30861721875 note_on channel=9 note=46 velocity=58 time=0
172.30861721875 note_on channel=9 note=35 velocity=108 time=0
172.3137825 note_on channel=2 note=55 velocity=76 time=1
172.31894778125002 note_on channel=0 note=60 velocity=90 time=1
172.31894778125002 note_on channel=2 note=52 velocity=34 time=0
172.334443625 note_on channel=7 note=55 velocity=64 time=3
172.334443625 note_off channel=9 note=62 velocity=0 time=0
172.33960890625 note_off channel=9 note=46 velocity=0 time=1
172.33960890625 note_off channel=9 note=35 velocity=0 time=0
172.42741868750002 note_on channel=9 note=62 velocity=63 time=17
172.458410375 note_off channel=9 note=62 velocity=0 time=6
172.499732625 note_off channel=2 note=52 velocity=0 time=8
172.51522846875 note_off channel=0 note=64 velocity=0 time=3
172.52039375 note_off channel=2 note=55 velocity=0 time=1
172.53588959375 note_on channel=0 note=64 velocity=77 time=3
172.53588959375 note_on channel=2 note=52 velocity=53 time=0
172.541054875 note_on channel=2 note=55 velocity=75 time=1
172.55138543750002 note_on channel=9 note=62 velocity=77 time=2
172.55655071875 note_on channel=9 note=42 velocity=72 time=1
172.58237712500002 note_off channel=9 note=62 velocity=0 time=5
172.58754240624998 note_off channel=9 note=42 velocity=0 time=1
172.68568275 note_off channel=1 note=40 velocity=0 time=19
172.71150915625 note_on channel=1 note=43 velocity=104 time=5
172.74250084374998 note_off channel=7 note=55 velocity=0 time=6
172.76316196875 note_off channel=2 note=64 velocity=0 time=4
172.76832725 note_off channel=2 note=60 velocity=0 time=1
172.77349253124999 note_off channel=0 note=52 velocity=0 time=1
172.78382309375002 note_on channel=0 note=52 velocity=38 time=2
172.78382309375002 note_on channel=2 note=64 velocity=74 time=0
172.78382309375002 note_on channel=7 note=55 velocity=85 time=0
172.788988375 note_on channel=2 note=60 velocity=79 time=1
172.80448421875 note_on channel=9 note=40 velocity=86 time=3
172.80448421875 note_on channel=9 note=42 velocity=61 time=0
172.80448421875 note_on channel=9 note=62 velocity=69 time=0
172.83547590625 note_off channel=9 note=62 velocity=0 time=6
172.83547590625 note_off channel=9 note=42 velocity=0 time=0
172.83547590625 note_off channel=9 note=40 velocity=0 time=0
172.85097174999999 note_off channel=1 note=43 velocity=0 time=3
172.92845096874998 note_on channel=9 note=62 velocity=70 time=15
172.95944265625 note_off channel=9 note=62 velocity=0 time=6
172.9852690625 note_off channel=0 note=48 velocity=0 time=5
172.99043434375 note_off channel=0 note=64 velocity=0 time=1
172.995599625 note_off channel=0 note=55 velocity=0 time=1
173.01109546875 note_off channel=3 note=76 velocity=0 time=3
173.01626075000001 note_off channel=2 note=52 velocity=0 time=1
173.01626075000001 note_off channel=2 note=55 velocity=0 time=0
173.0265913125 note_off channel=0 note=60 velocity=0 time=2
173.0265913125 note_off channel=0 note=52 velocity=0 time=0
173.0265913125 note_on channel=2 note=52 velocity=69 time=0
173.03175659375 note_on channel=0 note=48 velocity=53 time=1
173.03175659375 note_off channel=2 note=64 velocity=0 time=0
173.03175659375 note_off channel=2 note=60 velocity=0 time=0
173.03175659375 note_on channel=2 note=55 velocity=83 time=0
173.03175659375 note_off channel=7 note=48 velocity=0 time=0
173.03175659375 note_on channel=9 note=49 velocity=53 time=0
173.036921875 note_on channel=0 note=52 velocity=62 time=1
173.036921875 note_on channel=0 note=55 velocity=76 time=0
173.036921875 note_on channel=0 note=60 velocity=82 time=0
173.036921875 note_on channel=2 note=60 velocity=82 time=0
173.036921875 note_on channel=2 note=64 velocity=86 time=0
173.036921875 note_on channel=7 note=48 velocity=101 time=0
173.04208715625 note_on channel=1 note=36 velocity=105 time=1
173.04725243750002 note_on channel=0 note=64 velocity=88 time=1
173.04725243750002 note_on channel=9 note=35 velocity=98 time=0
173.05241771874998 note_off channel=7 note=55 velocity=0 time=1
173.05241771874998 note_on channel=9 note=42 velocity=65 time=0
173.05241771874998 note_on channel=9 note=62 velocity=78 time=0
173.06274828125 note_off channel=5 note=76 velocity=0 time=2
173.06274828125 note_off channel=9 note=49 velocity=0 time=0
173.0679135625 note_on channel=7 note=55 velocity=73 time=1
173.078244125 note_off channel=9 note=35 velocity=0 time=2
173.08340940624998 note_off channel=9 note=42 velocity=0 time=1
173.08340940624998 note_off channel=9 note=62 velocity=0 time=0
173.1402275 note_off channel=5 note=79 velocity=0 time=11
173.243533125 note_off channel=2 note=48 velocity=0 time=20
173.26419425 note_off channel=0 note=64 velocity=0 time=4
173.2745248125 note_off channel=2 note=55 velocity=0 time=2
173.27969009375002 note_on channel=0 note=64 velocity=78 time=1
173.27969009375002 note_on channel=2 note=48 velocity=82 time=0
173.28485537499998 note_off channel=0 note=55 velocity=0 time=1
173.28485537499998 note_off channel=2 note=64 velocity=0 time=0
173.29002065625 note_on channel=2 note=55 velocity=83 time=1
173.2951859375 note_on channel=0 note=55 velocity=55 time=1
173.2951859375 note_on channel=2 note=64 velocity=84 time=0
173.30035121875 note_on channel=9 note=42 velocity=61 time=1
173.30035121875 note_on channel=9 note=62 velocity=70 time=0
173.3055165 note_off channel=1 note=36 velocity=0 time=1
173.33134290625 note_off channel=9 note=62 velocity=0 time=5
173.33134290625 note_off channel=9 note=42 velocity=0 time=0
173.36233459374998 note_off channel=4 note=84 velocity=0 time=6
173.3778304375 note_off channel=2 note=64 velocity=0 time=3
173.39332628124998 note_off channel=2 note=60 velocity=0 time=3
173.3984915625 note_on channel=2 note=64 velocity=88 time=1
173.408822125 note_on channel=2 note=60 velocity=78 time=2
173.42431796875 note_on channel=9 note=62 velocity=64 time=3
173.45530965625 note_off channel=9 note=62 velocity=0 time=6
173.5224583125 note_off channel=2 note=60 velocity=0 time=13
173.52762359375 note_off channel=0 note=55 velocity=0 time=1
173.52762359375 note_on channel=2 note=60 velocity=81 time=0
173.53795415625 note_on channel=0 note=55 velocity=41 time=2
173.53795415625 note_on channel=9 note=40 velocity=88 time=0
173.5431194375 note_on channel=9 note=62 velocity=77 time=1
173.54828471874998 note_on channel=1 note=40 velocity=106 time=1
173.54828471874998 note_on channel=9 note=42 velocity=64 time=0
173.56894584375 note_off channel=9 note=40 velocity=0 time=4
173.574111125 note_off channel=9 note=62 velocity=0 time=1
173.57927640625 note_off channel=9 note=42 velocity=0 time=1
173.76522653125 note_off channel=0 note=52 velocity=0 time=36
173.76522653125 note_off channel=0 note=48 velocity=0 time=0
173.76522653125 note_off channel=0 note=55 velocity=0 time=0
173.7703918125 note_off channel=0 note=60 velocity=0 time=1
173.7703918125 note_off channel=2 note=52 velocity=0 time=0
173.77555709375002 note_on channel=0 note=48 velocity=71 time=1
173.77555709375002 note_off channel=1 note=40 velocity=0 time=0
173.77555709375002 note_off channel=2 note=60 velocity=0 time=0
173.78072237499998 note_on channel=0 note=52 velocity=76 time=1
173.78072237499998 note_on channel=0 note=55 velocity=80 time=0
173.78588765625 note_off channel=0 note=64 velocity=0 time=1
173.78588765625 note_on channel=0 note=60 velocity=86 time=0
173.7910529375 note_on channel=0 note=64 velocity=93 time=1
173.7910529375 note_on channel=2 note=60 velocity=82 time=0
173.7910529375 note_on channel=9 note=46 velocity=61 time=0
173.79621821875 note_on channel=2 note=52 velocity=79 time=1
173.79621821875 note_on channel=9 note=35 velocity=107 time=0
173.79621821875 note_on channel=9 note=62 velocity=75 time=0
173.82204462500002 note_off channel=9 note=46 velocity=0 time=5
173.82720990625 note_off channel=9 note=35 velocity=0 time=1
173.82720990625 note_off channel=9 note=62 velocity=0 time=0
173.92018496875 note_on channel=9 note=62 velocity=64 time=18
173.95117665625 note_off channel=9 note=62 velocity=0 time=6
173.987333625 note_off channel=2 note=64 velocity=0 time=7
173.99249890625 note_off channel=0 note=64 velocity=0 time=1
174.0183253125 note_on channel=0 note=64 velocity=76 time=5
174.0183253125 note_off channel=2 note=52 velocity=0 time=0
174.03382115625 note_on channel=2 note=52 velocity=69 time=3
174.0389864375 note_on channel=1 note=43 velocity=107 time=1
174.0389864375 note_off channel=2 note=60 velocity=0 time=0
174.0389864375 note_on channel=9 note=42 velocity=72 time=0
174.0389864375 note_on channel=9 note=62 velocity=77 time=0
174.04415171875 note_on channel=2 note=60 velocity=82 time=1
174.04415171875 note_on channel=2 note=64 velocity=89 time=0
174.069978125 note_off channel=9 note=62 velocity=0 time=5
174.069978125 note_off channel=9 note=42 velocity=0 time=0
174.20944071875002 note_off channel=1 note=43 velocity=0 time=27
174.21977128125 note_off channel=0 note=64 velocity=0 time=2
174.2662588125 note_off channel=0 note=60 velocity=0 time=9
174.27142409375 note_off channel=2 note=64 velocity=0 time=1
174.27142409375 note_off channel=2 note=48 velocity=0 time=0
174.276589375 note_on channel=0 note=60 velocity=65 time=1
174.28175465625 note_on channel=0 note=64 velocity=66 time=1
174.28175465625 note_off channel=2 note=60 velocity=0 time=0
174.28691993750002 note_on channel=2 note=64 velocity=86 time=1
174.28691993750002 note_on channel=2 note=60 velocity=82 time=0
174.28691993750002 note_on channel=9 note=40 velocity=89 time=0
174.28691993750002 note_on channel=9 note=42 velocity=59 time=0
174.29208521875 note_on channel=9 note=62 velocity=71 time=1
174.30241578125 note_on channel=2 note=48 velocity=59 time=2
174.3075810625 note_off channel=6 note=48 velocity=0 time=1
174.31791162500002 control_change channel=7 control=11 value=125 time=2
174.31791162500002 note_off channel=9 note=42 velocity=0 time=0
174.31791162500002 note_off channel=9 note=40 velocity=0 time=0
174.32307690624998 note_off channel=9 note=62 velocity=0 time=1
174.33340746875 control_change channel=7 control=11 value=121 time=2
174.3489033125 control_change channel=7 control=11 value=116 time=3
174.36439915625002 note_off channel=0 note=48 velocity=0 time=3
174.3695644375 note_off channel=0 note=52 velocity=0 time=1
174.3695644375 control_change channel=7 control=11 value=109 time=0
174.38506028125 note_off channel=7 note=48 velocity=0 time=3
174.38506028125 control_change channel=7 control=11 value=102 time=0
174.3902255625 note_off channel=0 note=60 velocity=0 time=1
174.40055612499998 control_change channel=7 control=11 value=94 time=2
174.41605196875 control_change channel=7 control=11 value=85 time=3
174.41605196875 note_on channel=9 note=62 velocity=66 time=0
174.43154781249999 control_change channel=7 control=11 value=75 time=3
174.44704365625 note_off channel=7 note=55 velocity=0 time=3
174.44704365625 control_change channel=7 control=11 value=64 time=0
174.44704365625 note_off channel=9 note=62 velocity=0 time=0
174.45737421875 note_off channel=0 note=55 velocity=0 time=2
174.4625395 control_change channel=7 control=11 value=52 time=1
174.47803534374998 note_off channel=0 note=64 velocity=0 time=3
174.47803534374998 control_change channel=7 control=11 value=41 time=0
174.4935311875 note_off channel=2 note=55 velocity=0 time=3
174.4935311875 control_change channel=7 control=11 value=24 time=0
174.5141923125 note_on channel=7 note=69 velocity=109 time=4
174.524522875 note_on channel=2 note=49 velocity=77 time=2
174.524522875 control_change channel=7 control=11 value=15 time=0
174.52968815625 note_on channel=1 note=37 velocity=105 time=1
174.52968815625 note_off channel=2 note=52 velocity=0 time=0
174.52968815625 note_off channel=2 note=48 velocity=0 time=0
174.5348534375 note_on channel=2 note=52 velocity=69 time=1
174.5348534375 note_on channel=2 note=55 velocity=80 time=0
174.5348534375 note_on channel=9 note=42 velocity=59 time=0
174.5348534375 note_on channel=9 note=62 velocity=77 time=0
174.54001871875 note_on channel=3 note=69 velocity=101 time=1
174.54001871875 control_change channel=7 control=11 value=5 time=0
174.545184 note_on channel=2 note=59 velocity=85 time=1
174.55034928125002 note_on channel=9 note=35 velocity=103 time=1
174.55551456249998 note_off channel=2 note=60 velocity=0 time=1
174.55551456249998 note_on channel=6 note=49 velocity=99 time=0
174.55551456249998 control_change channel=7 control=11 value=1 time=0
174.565845125 note_off channel=9 note=62 velocity=0 time=2
174.565845125 note_off channel=9 note=42 velocity=0 time=0
174.58134096875 note_off channel=9 note=35 velocity=0 time=3
174.60200209375 control_change channel=7 control=11 value=6 time=4
174.6174979375 control_change channel=7 control=11 value=13 time=3
174.63299378124998 control_change channel=7 control=11 value=21 time=3
174.648489625 control_change channel=7 control=11 value=29 time=3
174.66398546874998 control_change channel=7 control=11 value=37 time=3
174.6794813125 control_change channel=7 control=11 value=44 time=3
174.7001424375 control_change channel=7 control=11 value=51 time=4
174.71563828125 control_change channel=7 control=11 value=58 time=3
174.731134125 control_change channel=7 control=11 value=64 time=3
174.74662996875 control_change channel=7 control=11 value=70 time=3
174.7621258125 control_change channel=7 control=11 value=76 time=3
174.77762165625 note_off channel=2 note=64 velocity=0 time=3
174.77762165625 control_change channel=7 control=11 value=81 time=0
174.78795221874998 note_on channel=9 note=62 velocity=73 time=2
174.7931175 note_on channel=2 note=64 velocity=49 time=1
174.7931175 control_change channel=7 control=11 value=86 time=0
174.7931175 note_on channel=9 note=42 velocity=53 time=0
174.80861334375 control_change channel=7 control=11 value=89 time=3
174.81894390624998 note_off channel=9 note=62 velocity=0 time=2
174.8241091875 control_change channel=7 control=11 value=93 time=1
174.8241091875 note_off channel=9 note=42 velocity=0 time=0
174.83960503125 note_on channel=0 note=67 velocity=35 time=3
174.83960503125 control_change channel=7 control=11 value=96 time=0
174.855100875 control_change channel=7 control=11 value=99 time=3
174.87059671875 control_change channel=7 control=11 value=102 time=3
174.88092728125 note_on channel=0 note=71 velocity=62 time=2
174.8860925625 control_change channel=7 control=11 value=106 time=1
174.90675368750001 control_change channel=7 control=11 value=110 time=4
174.91191896875 note_on channel=9 note=62 velocity=67 time=1
174.92224953125 control_change channel=7 control=11 value=114 time=2
174.93774537500002 control_change channel=7 control=11 value=120 time=3
174.94291065624998 note_off channel=9 note=62 velocity=0 time=1
174.95324121875 control_change channel=7 control=11 value=125 time=2
174.9687370625 control_change channel=7 control=11 value=127 time=3
174.97390234374998 note_on channel=0 note=76 velocity=64 time=1
174.99972875 note_off channel=2 note=59 velocity=0 time=5
175.02038987499998 note_off channel=3 note=69 velocity=0 time=4
175.02038987499998 note_on channel=3 note=71 velocity=100 time=0
175.03588571875 note_on channel=9 note=37 velocity=96 time=3
175.03588571875 note_on channel=9 note=62 velocity=78 time=0
175.04621628125 note_on channel=2 note=59 velocity=60 time=2
175.05654684375 note_off channel=1 note=37 velocity=0 time=2
175.06687740625 note_off channel=9 note=62 velocity=0 time=2
175.06687740625 note_off channel=9 note=37 velocity=0 time=0
175.26315809375 note_off channel=2 note=49 velocity=0 time=38
175.26315809375 note_off channel=2 note=64 velocity=0 time=0
175.26315809375 note_off channel=2 note=59 velocity=0 time=0
175.27348865625 note_on channel=1 note=40 velocity=108 time=2
175.2786539375 note_on channel=2 note=64 velocity=88 time=1
175.28381921874998 note_off channel=2 note=52 velocity=0 time=1
175.28381921874998 note_on channel=2 note=59 velocity=90 time=0
175.28381921874998 note_on channel=9 note=35 velocity=110 time=0
175.28381921874998 note_on channel=9 note=46 velocity=78 time=0
175.2889845 note_on channel=2 note=52 velocity=72 time=1
175.2889845 note_on channel=9 note=62 velocity=80 time=0
175.29414978125 note_on channel=2 note=49 velocity=58 time=1
175.31481090625 note_off channel=9 note=46 velocity=0 time=4
175.31481090625 note_off channel=9 note=35 velocity=0 time=0
175.3199761875 note_off channel=9 note=62 velocity=0 time=1
175.40778596875 note_on channel=9 note=62 velocity=65 time=17
175.43877765624998 note_off channel=9 note=62 velocity=0 time=6
175.5265874375 note_off channel=3 note=71 velocity=0 time=17
175.5265874375 note_on channel=3 note=74 velocity=95 time=0
175.53175271875 note_on channel=9 note=62 velocity=76 time=1
175.5472485625 note_on channel=9 note=42 velocity=86 time=3
175.56274440625 note_off channel=9 note=62 velocity=0 time=3
175.57307496875 note_off channel=1 note=40 velocity=0 time=2
175.57824025 note_off channel=9 note=42 velocity=0 time=1
175.68671115625 note_on channel=1 note=43 velocity=101 time=21
175.75902509375 note_off channel=3 note=74 velocity=0 time=14
175.764190375 note_off channel=2 note=64 velocity=0 time=1
175.764190375 note_off channel=2 note=59 velocity=0 time=0
175.76935565625 note_on channel=2 note=64 velocity=82 time=1
175.76935565625 note_on channel=3 note=76 velocity=98 time=0
175.76935565625 note_on channel=9 note=37 velocity=86 time=0
175.77968621875 note_on channel=2 note=59 velocity=83 time=2
175.77968621875 note_on channel=9 note=62 velocity=76 time=0
175.79001678125002 note_off channel=2 note=52 velocity=0 time=2
175.79001678125002 note_on channel=9 note=42 velocity=66 time=0
175.7951820625 note_on channel=2 note=52 velocity=47 time=1
175.80034734375 note_off channel=9 note=37 velocity=0 time=1
175.805512625 control_change channel=7 control=11 value=125 time=1
175.81067790625 note_off channel=9 note=62 velocity=0 time=1
175.82100846875002 control_change channel=7 control=11 value=122 time=2
175.82100846875002 note_off channel=9 note=42 velocity=0 time=0
175.8365043125 control_change channel=7 control=11 value=118 time=3
175.85200015625 control_change channel=7 control=11 value=115 time=3
175.86749600000002 control_change channel=7 control=11 value=110 time=3
175.88299184375 control_change channel=7 control=11 value=106 time=3
175.89332240625 note_off channel=1 note=43 velocity=0 time=2
175.89848768750002 control_change channel=7 control=11 value=100 time=1
175.90365296874998 note_on channel=9 note=62 velocity=58 time=1
175.91398353125 control_change channel=7 control=11 value=94 time=2
175.929479375 control_change channel=7 control=11 value=88 time=3
175.93464465625 note_off channel=2 note=49 velocity=0 time=1
175.93464465625 note_off channel=9 note=62 velocity=0 time=0
175.9501405 control_change channel=7 control=11 value=80 time=3
175.9604710625 control_change channel=7 control=11 value=70 time=2
175.970801625 note_off channel=7 note=69 velocity=0 time=2
175.98113218749998 note_off channel=6 note=49 velocity=0 time=2
175.98113218749998 control_change channel=7 control=11 value=59 time=0
175.99146275 control_change channel=7 control=11 value=46 time=2
176.0017933125 note_off channel=2 note=52 velocity=0 time=2
176.00695859375 note_on channel=7 note=67 velocity=104 time=1
176.00695859375 control_change channel=7 control=11 value=35 time=0
176.01728915625 note_on channel=1 note=36 velocity=104 time=2
176.01728915625 note_off channel=2 note=55 velocity=0 time=0
176.01728915625 note_off channel=2 note=64 velocity=0 time=0
176.02245443750002 note_on channel=2 note=52 velocity=76 time=1
176.02245443750002 control_change channel=7 control=11 value=28 time=0
176.02245443750002 note_on channel=9 note=35 velocity=103 time=0
176.02245443750002 note_on channel=9 note=62 velocity=84 time=0
176.02761971875 note_on channel=2 note=55 velocity=82 time=1
176.02761971875 note_on channel=6 note=48 velocity=100 time=0
176.032785 note_off channel=2 note=59 velocity=0 time=1
176.032785 note_on channel=2 note=48 velocity=76 time=0
176.032785 note_on channel=9 note=42 velocity=64 time=0
176.03795028125 note_off channel=0 note=71 velocity=0 time=1
176.03795028125 note_on channel=2 note=59 velocity=88 time=0
176.03795028125 control_change channel=7 control=11 value=25 time=0
176.0431155625 note_off channel=0 note=76 velocity=0 time=1
176.0431155625 note_on channel=2 note=64 velocity=78 time=0
176.05344612500002 note_off channel=9 note=62 velocity=0 time=2
176.05344612500002 note_off channel=9 note=35 velocity=0 time=0
176.0637766875 note_off channel=9 note=42 velocity=0 time=2
176.07410725 note_off channel=0 note=67 velocity=0 time=2
176.07410725 control_change channel=7 control=11 value=28 time=0
176.08960309375 control_change channel=7 control=11 value=33 time=3
176.1050989375 control_change channel=7 control=11 value=40 time=3
176.12059478125 control_change channel=7 control=11 value=48 time=3
176.13609062499998 control_change channel=7 control=11 value=56 time=3
176.15158646875 control_change channel=7 control=11 value=65 time=3
176.16708231249999 control_change channel=7 control=11 value=74 time=3
176.18257815625 control_change channel=7 control=11 value=82 time=3
176.198074 control_change channel=7 control=11 value=89 time=3
176.21356984374998 control_change channel=7 control=11 value=95 time=3
176.2290656875 control_change channel=7 control=11 value=101 time=3
176.24456153124999 control_change channel=7 control=11 value=105 time=3
176.26522265625 note_off channel=2 note=64 velocity=0 time=4
176.26522265625 control_change channel=7 control=11 value=108 time=0
176.2703879375 note_on channel=9 note=62 velocity=75 time=1
176.27555321875 note_on channel=2 note=64 velocity=45 time=1
176.27555321875 control_change channel=7 control=11 value=112 time=0
176.27555321875 note_on channel=9 note=42 velocity=59 time=0
176.29621434375 control_change channel=7 control=11 value=115 time=4
176.301379625 note_off channel=9 note=62 velocity=0 time=1
176.30654490625 note_off channel=9 note=42 velocity=0 time=1
176.3117101875 control_change channel=7 control=11 value=117 time=1
176.32720603125 control_change channel=7 control=11 value=120 time=3
176.342701875 control_change channel=7 control=11 value=124 time=3
176.35819771875 control_change channel=7 control=11 value=126 time=3
176.384024125 note_on channel=0 note=67 velocity=44 time=5
176.3943546875 note_on channel=9 note=62 velocity=70 time=2
176.425346375 note_off channel=9 note=62 velocity=0 time=6
176.44084221875002 note_on channel=0 note=71 velocity=63 time=3
176.507990875 note_off channel=2 note=59 velocity=0 time=13
176.507990875 note_off channel=2 note=55 velocity=0 time=0
176.51832143750002 note_on channel=0 note=76 velocity=56 time=2
176.51832143750002 note_on channel=2 note=55 velocity=53 time=0
176.51832143750002 note_on channel=9 note=37 velocity=90 time=0
176.51832143750002 note_on channel=9 note=62 velocity=78 time=0
176.52348671874998 note_off channel=2 note=64 velocity=0 time=1
176.52348671874998 note_on channel=9 note=42 velocity=61 time=0
176.528652 note_on channel=2 note=59 velocity=66 time=1
176.528652 note_on channel=2 note=64 velocity=31 time=0
176.549313125 note_off channel=9 note=62 velocity=0 time=4
176.549313125 note_off channel=9 note=37 velocity=0 time=0
176.55447840624998 note_off channel=9 note=42 velocity=0 time=1
176.58547009375 note_off channel=1 note=36 velocity=0 time=6
176.7455938125 note_off channel=2 note=64 velocity=0 time=31
176.75592437499998 note_off channel=2 note=59 velocity=0 time=2
176.76108965625 note_on channel=2 note=64 velocity=90 time=1
176.7662549375 note_off channel=2 note=55 velocity=0 time=1
176.7662549375 note_on channel=9 note=46 velocity=61 time=0
176.7662549375 note_on channel=9 note=62 velocity=78 time=0
176.77142021875 note_on channel=1 note=40 velocity=109 time=1
176.77142021875 note_on channel=2 note=59 velocity=86 time=0
176.77142021875 note_on channel=2 note=55 velocity=83 time=0
176.77142021875 note_on channel=9 note=35 velocity=110 time=0
176.7765855 note_off channel=2 note=52 velocity=0 time=1
176.78175078125 note_on channel=2 note=52 velocity=70 time=1
176.797246625 note_off channel=9 note=62 velocity=0 time=3
176.797246625 note_off channel=9 note=46 velocity=0 time=0
176.80241190625 note_off channel=9 note=35 velocity=0 time=1
176.8902216875 note_on channel=9 note=62 velocity=67 time=17
176.921213375 note_off channel=9 note=62 velocity=0 time=6
176.98836203124998 control_change channel=7 control=11 value=121 time=13
177.003857875 control_change channel=7 control=11 value=118 time=3
177.00902315625 note_off channel=3 note=76 velocity=0 time=1
177.00902315625 note_on channel=3 note=79 velocity=102 time=0
177.0141884375 note_on channel=9 note=62 velocity=81 time=1
177.01935371874998 note_off channel=1 note=40 velocity=0 time=1
177.01935371874998 control_change channel=7 control=11 value=116 time=0
177.01935371874998 note_on channel=9 note=42 velocity=73 time=0
177.04001484375001 control_change channel=7 control=11 value=114 time=4
177.045180125 note_off channel=9 note=62 velocity=0 time=1
177.05034540625 control_change channel=7 control=11 value=111 time=1
177.05034540625 note_off channel=9 note=42 velocity=0 time=0
177.06584125 control_change channel=7 control=11 value=109 time=3
177.08133709375 control_change channel=7 control=11 value=106 time=3
177.10199821875 control_change channel=7 control=11 value=104 time=4
177.11749406250001 control_change channel=7 control=11 value=102 time=3
177.13298990625 control_change channel=7 control=11 value=100 time=3
177.14332046875 control_change channel=7 control=11 value=98 time=2
177.16398159375 control_change channel=7 control=11 value=95 time=4
177.17431215624998 note_on channel=1 note=43 velocity=108 time=2
177.1794774375 control_change channel=7 control=11 value=93 time=1
177.19497328125001 control_change channel=7 control=11 value=90 time=3
177.210469125 control_change channel=7 control=11 value=87 time=3
177.2207996875 note_off channel=2 note=59 velocity=0 time=2
177.22596496875 control_change channel=7 control=11 value=85 time=1
177.23629553125 note_off channel=2 note=48 velocity=0 time=2
177.2414608125 note_off channel=2 note=52 velocity=0 time=1
177.2414608125 control_change channel=7 control=11 value=83 time=0
177.25695665625 control_change channel=7 control=11 value=81 time=3
177.2621219375 note_off channel=2 note=64 velocity=0 time=1
177.2621219375 note_on channel=9 note=42 velocity=63 time=0
177.2621219375 note_on channel=9 note=62 velocity=77 time=0
177.26728721875 note_on channel=2 note=64 velocity=78 time=1
177.26728721875 note_on channel=9 note=37 velocity=91 time=0
177.2724525 control_change channel=7 control=11 value=80 time=1
177.27761778125 note_on channel=2 note=59 velocity=73 time=1
177.29311362500002 note_off channel=9 note=62 velocity=0 time=3
177.29311362500002 note_off channel=9 note=42 velocity=0 time=0
177.29827890625 note_off channel=1 note=43 velocity=0 time=1
177.29827890625 note_off channel=9 note=37 velocity=0 time=0
177.31377475 note_off channel=7 note=67 velocity=0 time=3
177.32410531250002 control_change channel=7 control=11 value=77 time=2
177.355097 control_change channel=7 control=11 value=74 time=6
177.37059284375002 control_change channel=7 control=11 value=73 time=3
177.3860886875 control_change channel=7 control=11 value=71 time=3
177.3860886875 note_on channel=9 note=62 velocity=61 time=0
177.40158453125002 control_change channel=7 control=11 value=68 time=3
177.417080375 control_change channel=7 control=11 value=65 time=3
177.417080375 note_off channel=9 note=62 velocity=0 time=0
177.43257621875 control_change channel=7 control=11 value=63 time=3
177.44807206250002 control_change channel=7 control=11 value=62 time=3
177.45323734375 note_off channel=6 note=48 velocity=0 time=1
177.4687331875 note_on channel=7 note=64 velocity=110 time=3
177.50489015625 note_on channel=9 note=62 velocity=78 time=7
177.5100554375 note_off channel=2 note=64 velocity=0 time=1
177.5100554375 note_off channel=3 note=79 velocity=0 time=0
177.5100554375 note_on channel=9 note=35 velocity=104 time=0
177.5100554375 note_on channel=9 note=42 velocity=70 time=0
177.51522071875 note_on channel=1 note=40 velocity=110 time=1
177.51522071875 note_off channel=2 note=55 velocity=0 time=0
177.51522071875 note_on channel=6 note=47 velocity=98 time=0
177.520386 note_off channel=2 note=59 velocity=0 time=1
177.520386 note_on channel=2 note=55 velocity=80 time=0
177.520386 note_on channel=2 note=47 velocity=63 time=0
177.52555128125002 note_off channel=0 note=76 velocity=0 time=1
177.52555128125002 note_on channel=2 note=52 velocity=67 time=0
177.52555128125002 note_on channel=3 note=76 velocity=94 time=0
177.5307165625 note_on channel=2 note=59 velocity=87 time=1
177.53588184375 note_on channel=2 note=64 velocity=73 time=1
177.53588184375 note_off channel=9 note=62 velocity=0 time=0
177.541047125 control_change channel=7 control=11 value=65 time=1
177.541047125 note_off channel=9 note=35 velocity=0 time=0
177.541047125 note_off channel=9 note=42 velocity=0 time=0
177.55654296875002 control_change channel=7 control=11 value=67 time=3
177.5720388125 control_change channel=7 control=11 value=70 time=3
177.58753465625 control_change channel=7 control=11 value=72 time=3
177.60819578125 note_off channel=0 note=71 velocity=0 time=4
177.60819578125 control_change channel=7 control=11 value=75 time=0
177.623691625 control_change channel=7 control=11 value=78 time=3
177.63918746874998 control_change channel=7 control=11 value=81 time=3
177.6546833125 control_change channel=7 control=11 value=84 time=3
177.67017915625 control_change channel=7 control=11 value=87 time=3
177.685675 control_change channel=7 control=11 value=90 time=3
177.70117084375 control_change channel=7 control=11 value=93 time=3
177.706336125 note_off channel=0 note=67 velocity=0 time=1
177.71666668749998 control_change channel=7 control=11 value=96 time=2
177.73216253125 control_change channel=7 control=11 value=98 time=3
177.7373278125 note_off channel=1 note=40 velocity=0 time=1
177.747658375 control_change channel=7 control=11 value=101 time=2
177.75798893750002 note_on channel=9 note=42 velocity=65 time=2
177.76315421875 note_on channel=9 note=62 velocity=70 time=1
177.7683195 control_change channel=7 control=11 value=103 time=1
177.7786500625 control_change channel=7 control=11 value=104 time=2
177.78898062500002 note_off channel=9 note=42 velocity=0 time=2
177.79414590624998 control_change channel=7 control=11 value=106 time=1
177.79414590624998 note_off channel=9 note=62 velocity=0 time=0
177.84579871875 control_change channel=7 control=11 value=108 time=10
177.8819556875 note_on channel=9 note=62 velocity=70 time=7
177.91294737500002 note_off channel=9 note=62 velocity=0 time=6
177.9852613125 control_change channel=7 control=11 value=111 time=14
178.0059224375 note_on channel=1 note=35 velocity=110 time=4
178.0059224375 note_on channel=9 note=37 velocity=89 time=0
178.0059224375 note_on channel=9 note=42 velocity=65 time=0
178.0059224375 note_on channel=9 note=62 velocity=82 time=0
178.03174884375 control_change channel=7 control=11 value=115 time=5
178.036914125 note_off channel=9 note=62 velocity=0 time=1
178.036914125 note_off channel=9 note=42 velocity=0 time=0
178.036914125 note_off channel=9 note=37 velocity=0 time=0
178.078236375 control_change channel=7 control=11 value=119 time=8
178.09373221875 control_change channel=7 control=11 value=120 time=3
178.1092280625 control_change channel=7 control=11 value=123 time=3
178.12472390625 control_change channel=7 control=11 value=125 time=3
178.17637671875002 control_change channel=7 control=11 value=127 time=10
178.202203125 note_off channel=2 note=64 velocity=0 time=5
178.21769896875 note_off channel=2 note=59 velocity=0 time=3
178.243525375 note_off channel=2 note=52 velocity=0 time=5
178.243525375 note_off channel=2 note=55 velocity=0 time=0
178.243525375 note_on channel=2 note=64 velocity=80 time=0
178.24869065625 note_on channel=2 note=59 velocity=86 time=1
178.25385593750002 note_on channel=9 note=46 velocity=62 time=1
178.25902121874998 note_off channel=2 note=47 velocity=0 time=1
178.25902121874998 note_on channel=2 note=55 velocity=79 time=0
178.25902121874998 note_on channel=9 note=35 velocity=110 time=0
178.25902121874998 note_on channel=9 note=62 velocity=85 time=0
178.2641865 note_on channel=2 note=52 velocity=65 time=1
178.26935178125 note_on channel=2 note=47 velocity=77 time=1
178.284847625 note_off channel=1 note=35 velocity=0 time=3
178.284847625 note_off channel=9 note=46 velocity=0 time=0
178.29001290624998 note_off channel=9 note=35 velocity=0 time=1
178.29001290624998 note_off channel=9 note=62 velocity=0 time=0
178.39331853125 note_on channel=9 note=62 velocity=62 time=20
178.42431021875 note_off channel=9 note=62 velocity=0 time=6
178.5017894375 note_on channel=1 note=31 velocity=105 time=15
178.50695471875 note_on channel=9 note=42 velocity=82 time=1
178.50695471875 note_on channel=9 note=62 velocity=85 time=0
178.53794640625 note_off channel=9 note=62 velocity=0 time=6
178.53794640625 note_off channel=9 note=42 velocity=0 time=0
178.5844339375 control_change channel=7 control=11 value=125 time=9
178.65158259375 note_on channel=9 note=37 velocity=90 time=13
178.68257428125 note_off channel=9 note=37 velocity=0 time=6
178.73422709375 note_off channel=2 note=64 velocity=0 time=10
178.75488821874998 note_off channel=6 note=47 velocity=0 time=4
178.75488821874998 note_on channel=9 note=62 velocity=73 time=0
178.7600535 note_on channel=9 note=42 velocity=73 time=1
178.7703840625 note_off channel=1 note=31 velocity=0 time=2
178.77554934375001 note_on channel=2 note=64 velocity=95 time=1
178.78587990625 note_off channel=9 note=62 velocity=0 time=2
178.7910451875 note_off channel=9 note=42 velocity=0 time=1
178.80137575 note_off channel=2 note=59 velocity=0 time=2
178.8117063125 note_off channel=2 note=55 velocity=0 time=2
178.82720215625002 note_on channel=0 note=64 velocity=69 time=3
178.83753271875 note_off channel=2 note=52 velocity=0 time=2
178.85302856250001 note_on channel=2 note=59 velocity=94 time=3
178.85819384375 note_on channel=0 note=59 velocity=69 time=1
178.87368968750002 note_off channel=2 note=47 velocity=0 time=3
178.87368968750002 note_on channel=2 note=55 velocity=90 time=0
178.87368968750002 note_on channel=9 note=62 velocity=68 time=0
178.88402025 note_on channel=0 note=55 velocity=58 time=2
178.88918553125 note_on channel=2 note=52 velocity=86 time=1
178.90468137500002 note_on channel=2 note=47 velocity=90 time=3
178.90468137500002 note_off channel=9 note=62 velocity=0 time=0
178.9150119375 note_on channel=2 note=40 velocity=88 time=2
178.9253425 note_on channel=0 note=52 velocity=61 time=2
178.96149946875 note_on channel=0 note=47 velocity=78 time=7
178.9769953125 note_off channel=2 note=52 velocity=0 time=3
178.99249115625 note_off channel=0 note=52 velocity=0 time=3
178.99249115625 note_off channel=2 note=64 velocity=0 time=0
178.9976564375 note_off channel=2 note=59 velocity=0 time=1
178.9976564375 note_off channel=2 note=55 velocity=0 time=0
178.9976564375 note_on channel=2 note=52 velocity=87 time=0
179.00282171875 note_off channel=0 note=59 velocity=0 time=1
179.00282171875 note_on channel=0 note=52 velocity=67 time=0
179.00282171875 note_on channel=1 note=28 velocity=108 time=0
179.00282171875 note_on channel=2 note=59 velocity=102 time=0
179.00282171875 note_on channel=2 note=55 velocity=89 time=0
179.00282171875 note_on channel=6 note=40 velocity=117 time=0
179.00282171875 note_on channel=6 note=47 velocity=108 time=0
179.00282171875 note_on channel=9 note=62 velocity=94 time=0
179.01315228125 note_off channel=0 note=55 velocity=0 time=2
179.01315228125 note_on channel=2 note=64 velocity=93 time=0
179.01315228125 note_on channel=9 note=42 velocity=80 time=0
179.0183175625 note_off channel=0 note=64 velocity=0 time=1
179.0183175625 note_on channel=0 note=59 velocity=83 time=0
179.0183175625 note_on channel=0 note=55 velocity=72 time=0
179.0183175625 note_off channel=2 note=40 velocity=0 time=0
179.0183175625 note_on channel=9 note=35 velocity=97 time=0
179.03381340625 note_on channel=0 note=64 velocity=80 time=3
179.03381340625 note_off channel=9 note=62 velocity=0 time=0
179.04414396875 note_off channel=9 note=42 velocity=0 time=2
179.04930925 note_off channel=9 note=35 velocity=0 time=1
179.0803009375 note_off channel=7 note=64 velocity=0 time=6
179.1009620625 note_off channel=3 note=76 velocity=0 time=4
179.14744959375 note_off channel=2 note=64 velocity=0 time=9
179.15778015625 note_off channel=2 note=55 velocity=0 time=2
179.15778015625 note_off channel=6 note=47 velocity=0 time=0
179.15778015625 note_off channel=6 note=40 velocity=0 time=0
179.16811071875 note_off channel=2 note=47 velocity=0 time=2
179.173276 note_off channel=2 note=52 velocity=0 time=1
179.173276 note_off channel=2 note=59 velocity=0 time=0
179.19910240625 note_off channel=0 note=64 velocity=0 time=5
179.19910240625 note_off channel=0 note=59 velocity=0 time=0
179.20943296875 note_off channel=0 note=47 velocity=0 time=2
179.21976353124998 note_off channel=0 note=52 velocity=0 time=2
179.23009409375 note_off channel=0 note=55 velocity=0 time=2
179.2559205 note_off channel=1 note=28 velocity=0 time=5
179.49868871875 note_on channel=1 note=28 velocity=113 time=47
179.503854 note_on channel=9 note=35 velocity=110 time=1
179.5348456875 note_off channel=9 note=35 velocity=0 time=6
179.731126375 note_off channel=1 note=28 velocity=0 time=38
180.0100515625 note_on channel=3 note=67 velocity=91 time=54
180.25281978125 note_off channel=3 note=67 velocity=0 time=47
180.25281978125 note_on channel=3 note=69 velocity=94 time=0
180.44910046875 note_on channel=0 note=43 velocity=58 time=38
180.45943103125 note_on channel=0 note=47 velocity=62 time=2
180.46976159375 note_on channel=0 note=50 velocity=54 time=2
180.474926875 note_on channel=2 note=55 velocity=58 time=1
180.48009215625 note_on channel=2 note=59 velocity=71 time=1
180.4852574375 note_on channel=0 note=55 velocity=65 time=1
180.4852574375 note_on channel=2 note=62 velocity=82 time=0
180.4852574375 note_off channel=3 note=69 velocity=0 time=0
180.4852574375 note_on channel=3 note=71 velocity=100 time=0
180.4852574375 note_on channel=5 note=79 velocity=46 time=0
180.4852574375 note_on channel=5 note=71 velocity=41 time=0
180.49042271874998 note_on channel=0 note=59 velocity=80 time=1
180.49042271874998 note_on channel=2 note=67 velocity=77 time=0
180.49042271874998 note_on channel=4 note=67 velocity=101 time=0
180.49042271874998 note_on channel=9 note=42 velocity=57 time=0
180.495588 MetaMessage('time_signature', numerator=4, denominator=4, clocks_per_click=24, notated_32nd_notes_per_beat=8, time=1)
180.495588 note_on channel=1 note=31 velocity=104 time=0
180.495588 note_on channel=9 note=35 velocity=115 time=0
180.50075328125 note_on channel=0 note=67 velocity=79 time=1
180.52141440625 note_off channel=9 note=42 velocity=0 time=4
180.5265796875 note_off channel=9 note=35 velocity=0 time=1
180.681538125 note_off channel=3 note=71 velocity=0 time=30
180.68670340625002 note_off channel=2 note=59 velocity=0 time=1
180.69703396875 note_off channel=2 note=67 velocity=0 time=2
180.71769509375002 note_off channel=2 note=62 velocity=0 time=4
180.72802565625 note_on channel=2 note=62 velocity=71 time=2
180.72802565625 note_on channel=2 note=67 velocity=68 time=0
180.7331909375 note_on channel=2 note=59 velocity=50 time=1
180.7331909375 note_on channel=3 note=71 velocity=92 time=0
180.73835621875 note_off channel=0 note=59 velocity=0 time=1
180.73835621875 note_off channel=4 note=67 velocity=0 time=0
180.7435215 note_on channel=4 note=67 velocity=78 time=1
180.7435215 note_on channel=9 note=42 velocity=52 time=0
180.74868678125 note_off channel=0 note=67 velocity=0 time=1
180.7538520625 note_on channel=0 note=67 velocity=71 time=1
180.7538520625 note_on channel=0 note=59 velocity=76 time=0
180.7745131875 note_off channel=1 note=31 velocity=0 time=4
180.7745131875 note_off channel=9 note=42 velocity=0 time=0
180.92430634375 note_off channel=3 note=71 velocity=0 time=29
180.95013275000002 note_off channel=2 note=59 velocity=0 time=5
180.95013275000002 note_off channel=2 note=55 velocity=0 time=0
180.9604633125 note_off channel=2 note=62 velocity=0 time=2
180.96562859375 note_off channel=2 note=67 velocity=0 time=1
180.96562859375 note_on channel=2 note=55 velocity=41 time=0
180.96562859375 note_on channel=2 note=59 velocity=70 time=0
180.970793875 note_on channel=2 note=62 velocity=81 time=1
180.97595915625 note_on channel=2 note=67 velocity=66 time=1
180.98628971875 note_off channel=4 note=67 velocity=0 time=2
180.991455 note_on channel=4 note=67 velocity=93 time=1
180.991455 note_on channel=9 note=42 velocity=59 time=0
180.99662028125002 note_on channel=3 note=71 velocity=92 time=1
180.99662028125002 note_on channel=9 note=40 velocity=97 time=0
181.00695084375 note_off channel=0 note=47 velocity=0 time=2
181.0224466875 note_off channel=9 note=42 velocity=0 time=3
181.02761196875002 note_off channel=9 note=40 velocity=0 time=1
181.14124815625 note_off channel=3 note=71 velocity=0 time=22
181.1670745625 note_off channel=2 note=55 velocity=0 time=5
181.17223984375 note_off channel=2 note=59 velocity=0 time=1
181.2083968125 note_off channel=2 note=67 velocity=0 time=7
181.21356209375 note_off channel=0 note=50 velocity=0 time=1
181.21356209375 note_off channel=0 note=67 velocity=0 time=0
181.21356209375 note_off channel=2 note=62 velocity=0 time=0
181.218727375 note_off channel=0 note=59 velocity=0 time=1
181.218727375 note_on channel=2 note=62 velocity=82 time=0
181.22389265625 note_on channel=2 note=67 velocity=84 time=1
181.22389265625 note_on channel=2 note=59 velocity=69 time=0
181.22389265625 note_on channel=2 note=55 velocity=52 time=0
181.22905793750002 note_on channel=3 note=71 velocity=93 time=1
181.22905793750002 note_off channel=4 note=67 velocity=0 time=0
181.23422321875 note_off channel=0 note=43 velocity=0 time=1
181.23422321875 note_on channel=0 note=67 velocity=75 time=0
181.23422321875 note_on channel=0 note=59 velocity=74 time=0
181.23422321875 note_on channel=1 note=31 velocity=103 time=0
181.23422321875 note_on channel=4 note=67 velocity=85 time=0
181.2393885 note_on channel=9 note=42 velocity=58 time=1
181.2497190625 note_on channel=0 note=50 velocity=56 time=2
181.2497190625 note_on channel=9 note=35 velocity=111 time=0
181.25488434375 note_on channel=0 note=47 velocity=56 time=1
181.26004962500002 note_on channel=0 note=43 velocity=26 time=1
181.2703801875 note_off channel=9 note=42 velocity=0 time=2
181.28071075 note_off channel=9 note=35 velocity=0 time=2
181.3530246875 note_off channel=1 note=31 velocity=0 time=14
181.3943469375 note_off channel=3 note=71 velocity=0 time=8
181.4769914375 note_off channel=0 note=67 velocity=0 time=16
181.4769914375 note_on channel=3 note=71 velocity=93 time=0
181.48215671875 note_on channel=1 note=31 velocity=110 time=1
181.48215671875 note_off channel=4 note=67 velocity=0 time=0
181.48215671875 note_on channel=9 note=42 velocity=58 time=0
181.487322 note_on channel=4 note=67 velocity=86 time=1
181.49765256249998 note_on channel=0 note=67 velocity=60 time=2
181.51314840625 note_off channel=9 note=42 velocity=0 time=3
181.65777628125 note_off channel=0 note=67 velocity=0 time=28
181.6629415625 note_off channel=3 note=71 velocity=0 time=1
181.67843740625 note_off channel=2 note=55 velocity=0 time=3
181.69393325000001 note_off channel=0 note=59 velocity=0 time=3
181.714594375 note_off channel=2 note=59 velocity=0 time=4
181.714594375 note_off channel=2 note=67 velocity=0 time=0
181.714594375 note_off channel=2 note=62 velocity=0 time=0
181.73009021874998 note_on channel=0 note=67 velocity=65 time=3
181.73009021874998 note_on channel=3 note=71 velocity=92 time=0
181.73009021874998 note_on channel=9 note=42 velocity=55 time=0
181.7352555 note_off channel=0 note=55 velocity=0 time=1
181.7352555 note_off channel=4 note=67 velocity=0 time=0
181.74042078125 note_off channel=0 note=50 velocity=0 time=1
181.74042078125 note_on channel=0 note=59 velocity=74 time=0
181.74042078125 note_on channel=2 note=67 velocity=86 time=0
181.74042078125 note_on channel=2 note=62 velocity=81 time=0
181.74042078125 note_on channel=4 note=67 velocity=80 time=0
181.7455860625 note_off channel=0 note=47 velocity=0 time=1
181.7455860625 note_on channel=0 note=55 velocity=66 time=0
181.7455860625 note_on channel=2 note=59 velocity=74 time=0
181.7455860625 note_on channel=2 note=55 velocity=49 time=0
181.755916625 note_off channel=0 note=43 velocity=0 time=2
181.755916625 note_on channel=0 note=47 velocity=54 time=0
181.755916625 note_on channel=0 note=50 velocity=55 time=0
181.76108190624998 note_on channel=0 note=43 velocity=34 time=1
181.76108190624998 note_off channel=9 note=42 velocity=0 time=0
181.91604034374998 note_off channel=3 note=71 velocity=0 time=30
181.94186675 note_off channel=2 note=67 velocity=0 time=5
181.95736259375002 note_off channel=2 note=55 velocity=0 time=3
181.96769315625 note_off channel=2 note=59 velocity=0 time=2
181.97802371875 note_off channel=2 note=62 velocity=0 time=2
181.97802371875 note_on channel=2 note=55 velocity=36 time=0
181.983189 note_on channel=2 note=59 velocity=62 time=1
181.983189 note_on channel=2 note=62 velocity=80 time=0
181.983189 note_on channel=3 note=71 velocity=93 time=0
181.983189 note_off channel=4 note=67 velocity=0 time=0
181.983189 note_on channel=4 note=66 velocity=100 time=0
181.983189 note_on channel=9 note=40 velocity=95 time=0
181.983189 note_on channel=9 note=42 velocity=64 time=0
181.98835428125 note_on channel=2 note=67 velocity=76 time=1
182.0141806875 note_off channel=9 note=42 velocity=0 time=5
182.0141806875 note_off channel=9 note=40 velocity=0 time=0
182.11748631249998 note_off channel=1 note=31 velocity=0 time=20
182.12265159375 note_off channel=3 note=71 velocity=0 time=1
182.2001308125 note_off channel=0 note=43 velocity=0 time=15
182.20529609375 note_off channel=0 note=47 velocity=0 time=1
182.210461375 note_off channel=0 note=67 velocity=0 time=1
182.2207919375 note_off channel=0 note=59 velocity=0 time=2
182.2207919375 note_on channel=0 note=67 velocity=47 time=0
182.2207919375 note_off channel=2 note=67 velocity=0 time=0
182.22595721874998 note_on channel=0 note=59 velocity=56 time=1
182.22595721874998 note_off channel=2 note=62 velocity=0 time=0
182.22595721874998 note_off channel=4 note=66 velocity=0 time=0
182.22595721874998 note_on channel=4 note=64 velocity=90 time=0
182.2311225 note_off channel=2 note=59 velocity=0 time=1
182.2311225 note_on channel=2 note=67 velocity=84 time=0
182.2311225 note_on channel=2 note=62 velocity=80 time=0
182.2311225 note_on channel=3 note=71 velocity=89 time=0
182.2311225 note_on channel=9 note=42 velocity=58 time=0
182.23628778125 note_on channel=2 note=59 velocity=72 time=1
182.2621141875 note_off channel=9 note=42 velocity=0 time=5
182.33959340625 note_off channel=0 note=67 velocity=0 time=15
182.37575037500002 note_off channel=3 note=71 velocity=0 time=7
182.39124621875 note_off channel=0 note=55 velocity=0 time=3
182.4067420625 note_off channel=0 note=50 velocity=0 time=3
182.41190734375 note_off channel=0 note=59 velocity=0 time=1
182.4274031875 note_off channel=2 note=55 velocity=0 time=3
182.43256846875 note_off channel=2 note=67 velocity=0 time=1
182.43773375 note_off channel=2 note=62 velocity=0 time=1
182.43773375 note_off channel=2 note=59 velocity=0 time=0
182.46356015625 note_on channel=0 note=47 velocity=66 time=5
182.4687254375 note_on channel=0 note=51 velocity=64 time=1
182.4687254375 note_on channel=1 note=30 velocity=107 time=0
182.4687254375 note_on channel=2 note=54 velocity=53 time=0
182.4687254375 note_on channel=3 note=71 velocity=99 time=0
182.47389071875 note_on channel=0 note=57 velocity=76 time=1
182.47389071875 note_on channel=2 note=63 velocity=81 time=0
182.479056 note_on channel=0 note=42 velocity=18 time=1
182.479056 note_on channel=0 note=59 velocity=80 time=0
182.479056 note_on channel=2 note=57 velocity=65 time=0
182.479056 note_on channel=5 note=78 velocity=42 time=0
182.479056 note_on channel=9 note=35 velocity=103 time=0
182.479056 note_on channel=9 note=42 velocity=59 time=0
182.48422128125 note_off channel=4 note=64 velocity=0 time=1
182.48422128125 note_on channel=4 note=63 velocity=95 time=0
182.48422128125 note_on channel=5 note=75 velocity=39 time=0
182.4893865625 note_on channel=0 note=66 velocity=78 time=1
182.4893865625 note_on channel=2 note=66 velocity=78 time=0
182.5100476875 note_off channel=9 note=42 velocity=0 time=4
182.5100476875 note_off channel=9 note=35 velocity=0 time=0
182.541039375 note_off channel=5 note=79 velocity=0 time=6
182.57719634375002 note_off channel=5 note=71 velocity=0 time=7
182.65467556250002 note_off channel=3 note=71 velocity=0 time=15
182.6959978125 note_off channel=2 note=66 velocity=0 time=8
182.70116309375 note_off channel=2 note=63 velocity=0 time=1
182.70116309375 note_off channel=4 note=63 velocity=0 time=0
182.71149365625 note_off channel=0 note=66 velocity=0 time=2
182.71149365625 note_off channel=1 note=30 velocity=0 time=0
182.7166589375 note_off channel=0 note=57 velocity=0 time=1
182.7166589375 note_off channel=2 note=57 velocity=0 time=0
182.7166589375 note_on channel=3 note=71 velocity=92 time=0
182.72182421875 note_on channel=0 note=66 velocity=78 time=1
182.72182421875 note_on channel=4 note=64 velocity=83 time=0
182.7269895 note_off channel=0 note=59 velocity=0 time=1
182.7269895 note_on channel=9 note=42 velocity=54 time=0
182.73215478125002 note_on channel=0 note=59 velocity=82 time=1
182.73215478125002 note_on channel=2 note=63 velocity=82 time=0
182.73215478125002 note_on channel=2 note=66 velocity=87 time=0
182.7373200625 note_on channel=0 note=57 velocity=71 time=1
182.7373200625 note_on channel=2 note=57 velocity=66 time=0
182.7579811875 note_off channel=9 note=42 velocity=0 time=4
182.88711321875002 note_off channel=3 note=71 velocity=0 time=25
182.91810490625002 note_off channel=2 note=54 velocity=0 time=6
182.93876603125 note_off channel=2 note=66 velocity=0 time=4
182.95942715625 note_off channel=2 note=57 velocity=0 time=4
182.95942715625 note_off channel=4 note=64 velocity=0 time=0
182.95942715625 note_on channel=4 note=66 velocity=81 time=0
182.96459243750002 note_off channel=2 note=63 velocity=0 time=1
182.96459243750002 note_on channel=3 note=71 velocity=98 time=0
182.96975771875 note_on channel=2 note=54 velocity=47 time=1
182.96975771875 note_on channel=9 note=40 velocity=89 time=0
182.974923 note_on channel=2 note=57 velocity=52 time=1
182.974923 note_on channel=2 note=63 velocity=16 time=0
182.98008828125 note_on channel=9 note=42 velocity=59 time=1
182.9852535625 note_on channel=2 note=66 velocity=49 time=1
183.00074940624998 note_off channel=9 note=40 velocity=0 time=3
183.01107996875 note_off channel=9 note=42 velocity=0 time=2
183.1712036875 note_off channel=2 note=54 velocity=0 time=31
183.18153425 note_off channel=2 note=63 velocity=0 time=2
183.19703009375002 note_off channel=0 note=66 velocity=0 time=3
183.202195375 note_on channel=1 note=30 velocity=101 time=1
183.20736065625 note_off channel=0 note=59 velocity=0 time=1
183.20736065625 note_off channel=2 note=66 velocity=0 time=0
183.2125259375 note_off channel=0 note=57 velocity=0 time=1
183.2125259375 note_on channel=0 note=66 velocity=80 time=0
183.21769121875 note_on channel=0 note=59 velocity=82 time=1
183.21769121875 note_on channel=2 note=66 velocity=89 time=0
183.21769121875 note_on channel=9 note=35 velocity=107 time=0
183.21769121875 note_on channel=9 note=42 velocity=58 time=0
183.2228565 note_on channel=0 note=57 velocity=75 time=1
183.2228565 note_off channel=2 note=57 velocity=0 time=0
183.2228565 note_on channel=2 note=63 velocity=82 time=0
183.22802178125002 note_on channel=2 note=57 velocity=78 time=1
183.22802178125002 note_on channel=2 note=54 velocity=64 time=0
183.23835234375 note_off channel=0 note=42 velocity=0 time=2
183.243517625 note_off channel=3 note=71 velocity=0 time=1
183.24868290625 note_off channel=9 note=42 velocity=0 time=1
183.24868290625 note_off channel=9 note=35 velocity=0 time=0
183.3158315625 note_off channel=1 note=30 velocity=0 time=13
183.32099684375 note_off channel=4 note=66 velocity=0 time=1
183.45529415625 note_on channel=1 note=30 velocity=107 time=26
183.46562471874998 note_on channel=9 note=42 velocity=58 time=2
183.49661640624998 note_off channel=9 note=42 velocity=0 time=6
183.66190540625 note_off channel=0 note=66 velocity=0 time=32
183.68256653125 note_off channel=0 note=51 velocity=0 time=4
183.7083929375 note_off channel=0 note=59 velocity=0 time=5
183.7083929375 note_on channel=0 note=66 velocity=83 time=0
183.71355821875 note_off channel=0 note=57 velocity=0 time=1
183.71355821875 note_on channel=0 note=59 velocity=86 time=0
183.71355821875 note_off channel=2 note=66 velocity=0 time=0
183.71355821875 note_on channel=9 note=42 velocity=58 time=0
183.7187235 note_off channel=2 note=63 velocity=0 time=1
183.7187235 note_on channel=2 note=66 velocity=88 time=0
183.72388878125 note_on channel=0 note=57 velocity=75 time=1
183.72388878125 note_off channel=2 note=57 velocity=0 time=0
183.72388878125 note_on channel=2 note=63 velocity=82 time=0
183.72905406249998 note_on channel=0 note=51 velocity=62 time=1
183.739384625 note_on channel=2 note=57 velocity=60 time=2
183.74454990625 note_off channel=9 note=42 velocity=0 time=1
183.94083059375 note_off channel=2 note=57 velocity=0 time=38
183.945995875 note_off channel=0 note=51 velocity=0 time=1
183.95116115625 note_off channel=0 note=47 velocity=0 time=1
183.9563264375 note_off channel=0 note=66 velocity=0 time=1
183.9563264375 note_on channel=0 note=47 velocity=29 time=0
183.9563264375 note_on channel=9 note=40 velocity=89 time=0
183.96149171874998 note_off channel=0 note=57 velocity=0 time=1
183.96149171874998 note_on channel=0 note=51 velocity=44 time=0
183.96149171874998 note_off channel=2 note=63 velocity=0 time=0
183.96149171874998 note_on channel=9 note=42 velocity=65 time=0
183.966657 note_off channel=0 note=59 velocity=0 time=1
183.966657 note_on channel=0 note=57 velocity=72 time=0
183.966657 note_off channel=2 note=66 velocity=0 time=0
183.966657 note_on channel=2 note=57 velocity=60 time=0
183.97182228125 note_on channel=0 note=59 velocity=75 time=1
183.97182228125 note_on channel=2 note=66 velocity=87 time=0
183.9769875625 note_on channel=0 note=66 velocity=71 time=1
183.9769875625 note_on channel=2 note=63 velocity=80 time=0
183.987318125 note_off channel=9 note=40 velocity=0 time=2
183.99248340625 note_off channel=9 note=42 velocity=0 time=1
183.9976486875 note_off channel=1 note=30 velocity=0 time=1
184.1835988125 note_off channel=0 note=66 velocity=0 time=36
184.2042599375 note_on channel=0 note=66 velocity=66 time=4
184.2042599375 note_off channel=2 note=66 velocity=0 time=0
184.20942521875 note_off channel=2 note=57 velocity=0 time=1
184.20942521875 note_off channel=2 note=63 velocity=0 time=0
184.20942521875 note_on channel=9 note=42 velocity=63 time=0
184.2145905 note_on channel=2 note=66 velocity=88 time=1
184.21975578125 note_off channel=0 note=57 velocity=0 time=1
184.21975578125 note_off channel=2 note=54 velocity=0 time=0
184.21975578125 note_on channel=2 note=63 velocity=83 time=0
184.21975578125 note_on channel=2 note=57 velocity=62 time=0
184.2249210625 note_on channel=0 note=57 velocity=53 time=1
184.24041690625 note_off channel=9 note=42 velocity=0 time=3
184.30240028125 note_off channel=2 note=57 velocity=0 time=12
184.317896125 note_off channel=0 note=57 velocity=0 time=3
184.33339196875 note_off channel=2 note=66 velocity=0 time=3
184.33339196875 note_off channel=2 note=63 velocity=0 time=0
184.33855725 note_off channel=0 note=66 velocity=0 time=1
184.39021006250002 note_off channel=0 note=51 velocity=0 time=10
184.42120175000002 note_off channel=5 note=78 velocity=0 time=6
184.4315323125 note_off channel=0 note=47 velocity=0 time=2
184.441862875 note_on channel=0 note=47 velocity=68 time=2
184.441862875 note_on channel=5 note=79 velocity=41 time=0
184.44702815625 note_off channel=0 note=59 velocity=0 time=1
184.44702815625 note_on channel=0 note=52 velocity=67 time=0
184.44702815625 note_on channel=4 note=67 velocity=107 time=0
184.44702815625 note_on channel=5 note=76 velocity=38 time=0
184.4521934375 note_on channel=0 note=55 velocity=78 time=1
184.4521934375 note_on channel=2 note=52 velocity=72 time=0
184.4521934375 note_on channel=3 note=71 velocity=101 time=0
184.45735871875 note_on channel=0 note=59 velocity=84 time=1
184.45735871875 note_on channel=1 note=28 velocity=108 time=0
184.45735871875 note_on channel=2 note=55 velocity=74 time=0
184.45735871875 note_off channel=5 note=75 velocity=0 time=0
184.45735871875 note_on channel=9 note=42 velocity=64 time=0
184.462524 note_on channel=9 note=35 velocity=107 time=1
184.46768928125002 note_on channel=0 note=64 velocity=69 time=1
184.46768928125002 note_on channel=2 note=59 velocity=80 time=0
184.4728545625 note_on channel=2 note=64 velocity=74 time=1
184.48835040625 note_off channel=9 note=42 velocity=0 time=3
184.4935156875 note_off channel=9 note=35 velocity=0 time=1
184.64330884375 note_off channel=3 note=71 velocity=0 time=29
184.65880468749998 note_off channel=2 note=55 velocity=0 time=3
184.66913525 note_off channel=0 note=64 velocity=0 time=2
184.69496165625 note_off channel=0 note=59 velocity=0 time=5
184.69496165625 note_on channel=0 note=64 velocity=78 time=0
184.69496165625 note_off channel=4 note=67 velocity=0 time=0
184.70012693750002 note_on channel=0 note=59 velocity=77 time=1
184.70012693750002 note_off channel=2 note=64 velocity=0 time=0
184.70012693750002 note_on channel=3 note=71 velocity=93 time=0
184.70012693750002 note_on channel=4 note=67 velocity=80 time=0
184.70529221875 note_on channel=9 note=42 velocity=64 time=1
184.7104575 note_off channel=2 note=59 velocity=0 time=1
184.7104575 note_on channel=2 note=64 velocity=93 time=0
184.71562278125 note_off channel=1 note=28 velocity=0 time=1
184.71562278125 note_on channel=2 note=59 velocity=88 time=0
184.7207880625 note_on channel=2 note=55 velocity=72 time=1
184.73628390624998 note_off channel=9 note=42 velocity=0 time=3
184.86025065625 note_off channel=3 note=71 velocity=0 time=24
184.93256459375002 note_off channel=2 note=55 velocity=0 time=14
184.94289515625 note_off channel=2 note=59 velocity=0 time=2
184.94289515625 note_on channel=3 note=71 velocity=92 time=0
184.94289515625 note_off channel=4 note=67 velocity=0 time=0
184.9480604375 note_on channel=4 note=67 velocity=79 time=1
184.95322571875 note_off channel=2 note=64 velocity=0 time=1
184.95322571875 note_on channel=2 note=55 velocity=68 time=0
184.95322571875 note_on channel=2 note=59 velocity=82 time=0
184.95322571875 note_on channel=9 note=42 velocity=65 time=0
184.958391 note_on channel=2 note=64 velocity=78 time=1
184.958391 note_on channel=9 note=40 velocity=92 time=0
184.98421740625 note_off channel=9 note=42 velocity=0 time=5
184.9893826875 note_off channel=9 note=40 velocity=0 time=1
185.10818415625 note_off channel=3 note=71 velocity=0 time=23
185.18049809375 note_off channel=0 note=64 velocity=0 time=14
185.185663375 note_off channel=4 note=67 velocity=0 time=1
185.19082865625 note_off channel=2 note=52 velocity=0 time=1
185.19082865625 note_on channel=4 note=67 velocity=88 time=0
185.19599393750002 note_off channel=0 note=59 velocity=0 time=1
185.19599393750002 note_on channel=0 note=64 velocity=76 time=0
185.19599393750002 note_off channel=2 note=55 velocity=0 time=0
185.19599393750002 note_off channel=2 note=64 velocity=0 time=0
185.19599393750002 note_on channel=3 note=71 velocity=92 time=0
185.19599393750002 note_on channel=9 note=42 velocity=61 time=0
185.20115921874998 note_off channel=0 note=55 velocity=0 time=1
185.20115921874998 note_on channel=0 note=59 velocity=81 time=0
185.20115921874998 note_off channel=2 note=59 velocity=0 time=0
185.20115921874998 note_on channel=2 note=64 velocity=87 time=0
185.2063245 note_on channel=0 note=55 velocity=60 time=1
185.2063245 note_on channel=1 note=28 velocity=105 time=0
185.2063245 note_on channel=2 note=59 velocity=82 time=0
185.21148978125 note_on channel=2 note=55 velocity=56 time=1
185.21148978125 note_on channel=2 note=52 velocity=36 time=0
185.21148978125 note_on channel=9 note=35 velocity=105 time=0
185.226985625 note_off channel=9 note=42 velocity=0 time=3
185.24248146875001 note_off channel=9 note=35 velocity=0 time=3
185.30963012499998 note_off channel=1 note=28 velocity=0 time=13
185.3819440625 note_off channel=3 note=71 velocity=0 time=14
185.43876215625 note_off channel=0 note=64 velocity=0 time=11
185.4439274375 note_off channel=0 note=55 velocity=0 time=1
185.4439274375 note_on channel=3 note=71 velocity=94 time=0
185.44909271875 note_off channel=0 note=59 velocity=0 time=1
185.44909271875 note_on channel=0 note=55 velocity=55 time=0
185.44909271875 note_on channel=1 note=28 velocity=109 time=0
185.44909271875 note_off channel=4 note=67 velocity=0 time=0
185.44909271875 note_on channel=4 note=66 velocity=90 time=0
185.44909271875 note_on channel=9 note=42 velocity=61 time=0
185.454258 note_on channel=0 note=59 velocity=66 time=1
185.46458856249998 note_on channel=0 note=64 velocity=55 time=2
185.48008440625 note_off channel=9 note=42 velocity=0 time=3
185.60405115625 note_off channel=3 note=71 velocity=0 time=24
185.66086925000002 note_off channel=0 note=59 velocity=0 time=11
185.66603453125 note_off channel=2 note=55 velocity=0 time=1
185.67636509375 note_off channel=0 note=64 velocity=0 time=2
185.681530375 note_off channel=0 note=47 velocity=0 time=1
185.69186093750002 note_off channel=0 note=55 velocity=0 time=2
185.69186093750002 note_on channel=3 note=71 velocity=99 time=0
185.69702621874998 note_on channel=0 note=64 velocity=76 time=1
185.69702621874998 note_on channel=0 note=59 velocity=82 time=0
185.69702621874998 note_off channel=4 note=66 velocity=0 time=0
185.69702621874998 note_on channel=4 note=67 velocity=82 time=0
185.69702621874998 note_on channel=9 note=42 velocity=58 time=0
185.7021915 note_off channel=2 note=64 velocity=0 time=1
185.70735678125 note_off channel=2 note=59 velocity=0 time=1
185.70735678125 note_on channel=2 note=64 velocity=86 time=0
185.7125220625 note_on channel=0 note=55 velocity=70 time=1
185.7125220625 note_on channel=2 note=59 velocity=83 time=0
185.7125220625 note_on channel=2 note=55 velocity=65 time=0
185.71768734375001 note_on channel=0 note=47 velocity=71 time=1
185.72801790625 note_off channel=9 note=42 velocity=0 time=2
185.8778110625 note_off channel=3 note=71 velocity=0 time=29
185.8984721875 note_off channel=0 note=64 velocity=0 time=4
185.90880275 note_off channel=2 note=64 velocity=0 time=2
185.93462915625 note_off channel=2 note=55 velocity=0 time=5
185.93462915625 note_off channel=4 note=67 velocity=0 time=0
185.93462915625 note_on channel=4 note=64 velocity=90 time=0
185.9397944375 note_off channel=0 note=52 velocity=0 time=1
185.9397944375 note_on channel=3 note=69 velocity=106 time=0
185.94495971875 note_off channel=0 note=59 velocity=0 time=1
185.950125 note_on channel=0 note=52 velocity=59 time=1
185.950125 note_off channel=2 note=59 velocity=0 time=0
185.950125 note_on channel=2 note=55 velocity=60 time=0
185.950125 note_on channel=9 note=42 velocity=58 time=0
185.95529028125 note_on channel=2 note=59 velocity=84 time=1
185.95529028125 note_on channel=9 note=40 velocity=90 time=0
185.9604555625 note_on channel=0 note=59 velocity=77 time=1
185.9604555625 note_on channel=2 note=64 velocity=85 time=0
185.97078612500002 note_on channel=0 note=64 velocity=59 time=2
185.9811166875 note_off channel=9 note=42 velocity=0 time=2
185.98628196875 note_off channel=9 note=40 velocity=0 time=1
185.99144725 note_off channel=1 note=28 velocity=0 time=1
186.15673625000002 note_off channel=3 note=69 velocity=0 time=32
186.1670668125 note_off channel=0 note=47 velocity=0 time=2
186.17223209375 note_off channel=0 note=64 velocity=0 time=1
186.177397375 note_off channel=4 note=64 velocity=0 time=1
186.18256265625 note_on channel=3 note=71 velocity=99 time=1
186.18256265625 note_on channel=4 note=64 velocity=86 time=0
186.1877279375 note_off channel=0 note=59 velocity=0 time=1
186.19289321875 note_on channel=0 note=64 velocity=68 time=1
186.1980585 note_on channel=0 note=59 velocity=74 time=1
186.1980585 note_off channel=2 note=64 velocity=0 time=0
186.20322378125002 note_off channel=0 note=55 velocity=0 time=1
186.20322378125002 note_off channel=2 note=59 velocity=0 time=0
186.20322378125002 note_on channel=2 note=64 velocity=78 time=0
186.20322378125002 note_on channel=9 note=42 velocity=65 time=0
186.2083890625 note_on channel=0 note=55 velocity=60 time=1
186.2083890625 note_on channel=2 note=59 velocity=74 time=0
186.218719625 note_on channel=0 note=47 velocity=52 time=2
186.23421546875002 note_off channel=9 note=42 velocity=0 time=3
186.2703724375 note_off channel=0 note=47 velocity=0 time=7
186.29619884375 note_off channel=0 note=52 velocity=0 time=5
186.32719053125 note_off channel=5 note=79 velocity=0 time=6
186.3530169375 note_off channel=5 note=76 velocity=0 time=5
186.35818221875002 note_off channel=2 note=59 velocity=0 time=1
186.384008625 note_off channel=0 note=55 velocity=0 time=5
186.39433918749998 note_off channel=0 note=64 velocity=0 time=2
186.39433918749998 note_off channel=0 note=59 velocity=0 time=0
186.39433918749998 note_off channel=2 note=55 velocity=0 time=0
186.40983503125 note_off channel=2 note=64 velocity=0 time=3
186.425330875 note_on channel=0 note=45 velocity=54 time=3
186.43049615625 note_on channel=0 note=52 velocity=53 time=1
186.43049615625 note_off channel=3 note=71 velocity=0 time=0
186.43049615625 note_on channel=3 note=72 velocity=100 time=0
186.43566143750002 note_on channel=0 note=57 velocity=76 time=1
186.43566143750002 note_off channel=2 note=52 velocity=0 time=0
186.43566143750002 note_on channel=5 note=81 velocity=58 time=0
186.43566143750002 note_on channel=5 note=76 velocity=55 time=0
186.44082671875 note_on channel=0 note=60 velocity=80 time=1
186.44082671875 note_off channel=4 note=64 velocity=0 time=0
186.44082671875 note_on channel=4 note=69 velocity=86 time=0
186.44082671875 note_on channel=9 note=35 velocity=94 time=0
186.445992 note_on channel=1 note=33 velocity=108 time=1
186.445992 note_on channel=2 note=52 velocity=57 time=0
186.445992 note_on channel=9 note=42 velocity=66 time=0
186.45115728125 note_on channel=0 note=64 velocity=72 time=1
186.45115728125 note_on channel=2 note=57 velocity=72 time=0
186.45115728125 note_on channel=2 note=60 velocity=84 time=0
186.4563225625 note_on channel=2 note=64 velocity=78 time=1
186.47181840624998 note_off channel=9 note=35 velocity=0 time=3
186.4769836875 note_off channel=9 note=42 velocity=0 time=1
186.66809909375002 note_off channel=0 note=64 velocity=0 time=37
186.66809909375002 note_off channel=0 note=45 velocity=0 time=0
186.67842965625 note_off channel=0 note=60 velocity=0 time=2
186.6835949375 note_on channel=0 note=64 velocity=83 time=1
186.6835949375 note_off channel=1 note=33 velocity=0 time=0
186.6835949375 note_off channel=4 note=69 velocity=0 time=0
186.6835949375 note_on channel=4 note=71 velocity=80 time=0
186.68876021875 note_on channel=0 note=60 velocity=82 time=1
186.68876021875 note_off channel=2 note=64 velocity=0 time=0
186.68876021875 note_off channel=3 note=72 velocity=0 time=0
186.68876021875 note_on channel=3 note=74 velocity=97 time=0
186.6939255 note_off channel=2 note=60 velocity=0 time=1
186.6939255 note_off channel=2 note=57 velocity=0 time=0
186.6939255 note_on channel=9 note=42 velocity=62 time=0
186.69909078125002 note_on channel=2 note=64 velocity=88 time=1
186.69909078125002 note_on channel=2 note=60 velocity=84 time=0
186.70425606249998 note_on channel=2 note=57 velocity=72 time=1
186.70942134375 note_on channel=0 note=45 velocity=62 time=1
186.7249171875 note_off channel=9 note=42 velocity=0 time=3
186.90053675000001 note_off channel=2 note=64 velocity=0 time=34
186.90570203125 note_off channel=2 note=60 velocity=0 time=1
186.93152843750002 note_off channel=4 note=71 velocity=0 time=5
186.93152843750002 note_on channel=4 note=69 velocity=82 time=0
186.93669371874998 note_off channel=3 note=74 velocity=0 time=1
186.93669371874998 note_on channel=3 note=72 velocity=98 time=0
186.93669371874998 note_on channel=9 note=40 velocity=89 time=0
186.93669371874998 note_on channel=9 note=42 velocity=64 time=0
186.941859 note_off channel=2 note=57 velocity=0 time=1
186.94702428125 note_on channel=2 note=57 velocity=63 time=1
186.9521895625 note_on channel=2 note=60 velocity=73 time=1
186.95735484375 note_on channel=2 note=64 velocity=53 time=1
186.96768540624998 note_off channel=9 note=42 velocity=0 time=2
186.96768540624998 note_off channel=9 note=40 velocity=0 time=0
187.13297440625 note_off channel=0 note=64 velocity=0 time=32
187.15363553125 note_off channel=2 note=57 velocity=0 time=4
187.17429665625 note_off channel=4 note=69 velocity=0 time=4
187.17429665625 note_on channel=4 note=67 velocity=74 time=0
187.1794619375 note_off channel=0 note=60 velocity=0 time=1
187.1794619375 note_on channel=0 note=64 velocity=84 time=0
187.1794619375 note_on channel=1 note=33 velocity=103 time=0
187.1794619375 note_off channel=3 note=72 velocity=0 time=0
187.1794619375 note_on channel=3 note=71 velocity=99 time=0
187.1794619375 note_on channel=9 note=35 velocity=96 time=0
187.18462721875 note_on channel=0 note=60 velocity=83 time=1
187.18462721875 note_off channel=2 note=64 velocity=0 time=0
187.18462721875 note_on channel=9 note=42 velocity=59 time=0
187.1897925 note_off channel=0 note=57 velocity=0 time=1
187.19495778125 note_on channel=0 note=57 velocity=75 time=1
187.19495778125 note_off channel=2 note=60 velocity=0 time=0
187.19495778125 note_on channel=2 note=64 velocity=90 time=0
187.20012306249998 note_on channel=2 note=60 velocity=84 time=1
187.20012306249998 note_on channel=2 note=57 velocity=72 time=0
187.210453625 note_off channel=9 note=35 velocity=0 time=2
187.21561890625 note_off channel=9 note=42 velocity=0 time=1
187.27760228124998 note_off channel=5 note=81 velocity=0 time=12
187.27760228124998 pitchwheel channel=5 pitch=-118 time=0
187.28793284375 note_off channel=1 note=33 velocity=0 time=2
187.293098125 pitchwheel channel=5 pitch=-820 time=1
187.3034286875 pitchwheel channel=5 pitch=-1522 time=2
187.32408981249998 pitchwheel channel=5 pitch=-2458 time=4
187.33958565625 pitchwheel channel=5 pitch=-3277 time=3
187.35508149999998 pitchwheel channel=5 pitch=-3628 time=3
187.375742625 note_off channel=0 note=52 velocity=0 time=4
187.3860731875 note_off channel=0 note=64 velocity=0 time=2
187.3860731875 pitchwheel channel=5 pitch=-3277 time=0
187.40156903125 pitchwheel channel=5 pitch=-2458 time=3
187.417064875 note_on channel=5 note=72 velocity=53 time=3
187.417064875 pitchwheel channel=5 pitch=-1054 time=0
187.42223015625 note_off channel=3 note=71 velocity=0 time=1
187.42223015625 note_on channel=3 note=69 velocity=94 time=0
187.42223015625 note_off channel=4 note=67 velocity=0 time=0
187.42223015625 note_on channel=4 note=64 velocity=80 time=0
187.42739543750002 note_off channel=0 note=57 velocity=0 time=1
187.42739543750002 note_on channel=0 note=52 velocity=29 time=0
187.42739543750002 note_on channel=1 note=33 velocity=108 time=0
187.43256071874998 note_on channel=0 note=57 velocity=56 time=1
187.43256071874998 pitchwheel channel=5 pitch=0 time=0
187.437726 note_on channel=9 note=42 velocity=64 time=1
187.4480565625 note_on channel=0 note=64 velocity=38 time=2
187.4687176875 note_off channel=9 note=42 velocity=0 time=4
187.63917196875 note_off channel=0 note=57 velocity=0 time=33
187.63917196875 note_off channel=0 note=60 velocity=0 time=0
187.63917196875 note_off channel=2 note=52 velocity=0 time=0
187.64950253125 note_off channel=2 note=60 velocity=0 time=2
187.66499837499998 note_off channel=0 note=64 velocity=0 time=3
187.67016365625 note_off channel=3 note=69 velocity=0 time=1
187.67016365625 note_on channel=3 note=67 velocity=95 time=0
187.6753289375 note_off channel=4 note=64 velocity=0 time=1
187.6753289375 note_on channel=4 note=62 velocity=93 time=0
187.68049421875 note_on channel=0 note=64 velocity=78 time=1
187.68049421875 note_on channel=9 note=42 velocity=57 time=0
187.6856595 note_on channel=0 note=60 velocity=80 time=1
187.6856595 note_off channel=2 note=64 velocity=0 time=0
187.69082478125 note_on channel=2 note=64 velocity=94 time=1
187.6959900625 note_on channel=0 note=57 velocity=63 time=1
187.6959900625 note_off channel=2 note=57 velocity=0 time=0
187.6959900625 note_on channel=2 note=60 velocity=84 time=0
187.70115534375 note_on channel=2 note=57 velocity=81 time=1
187.70115534375 note_on channel=2 note=52 velocity=63 time=0
187.71148590625 note_off channel=9 note=42 velocity=0 time=2
187.912931875 note_off channel=3 note=67 velocity=0 time=39
187.91809715625 note_off channel=0 note=57 velocity=0 time=1
187.91809715625 note_off channel=2 note=52 velocity=0 time=0
187.9232624375 note_off channel=0 note=64 velocity=0 time=1
187.9232624375 note_on channel=9 note=40 velocity=94 time=0
187.92842771875 note_off channel=0 note=60 velocity=0 time=1
187.92842771875 note_on channel=0 note=57 velocity=70 time=0
187.92842771875 note_off channel=2 note=57 velocity=0 time=0
187.933593 note_on channel=0 note=60 velocity=75 time=1
187.933593 note_on channel=2 note=52 velocity=36 time=0
187.933593 note_on channel=9 note=42 velocity=59 time=0
187.93875828125002 note_off channel=2 note=64 velocity=0 time=1
187.93875828125002 note_off channel=2 note=60 velocity=0 time=0
187.93875828125002 note_on channel=2 note=57 velocity=54 time=0
187.9439235625 note_on channel=0 note=64 velocity=60 time=1
187.9439235625 note_on channel=2 note=60 velocity=68 time=0
187.94908884375 note_on channel=2 note=64 velocity=64 time=1
187.954254125 note_off channel=9 note=40 velocity=0 time=1
187.95941940625 note_off channel=1 note=33 velocity=0 time=1
187.9645846875 note_off channel=9 note=42 velocity=0 time=1
188.14536953125 note_off channel=2 note=57 velocity=0 time=35
188.14536953125 note_off channel=4 note=62 velocity=0 time=0
188.15570009375 note_off channel=0 note=64 velocity=0 time=2
188.16603065625 note_off channel=0 note=60 velocity=0 time=2
188.16603065625 note_on channel=4 note=60 velocity=94 time=0
188.17119593750002 note_on channel=0 note=64 velocity=82 time=1
188.17119593750002 note_off channel=2 note=64 velocity=0 time=0
188.17636121875 note_off channel=0 note=57 velocity=0 time=1
188.17636121875 note_on channel=0 note=60 velocity=79 time=0
188.17636121875 note_on channel=9 note=42 velocity=61 time=0
188.1815265 note_off channel=0 note=52 velocity=0 time=1
188.1815265 note_on channel=0 note=57 velocity=62 time=0
188.18669178125 note_on channel=0 note=52 velocity=51 time=1
188.18669178125 note_off channel=2 note=60 velocity=0 time=0
188.18669178125 note_on channel=2 note=64 velocity=84 time=0
188.18669178125 note_on channel=3 note=69 velocity=99 time=0
188.1918570625 note_on channel=2 note=60 velocity=82 time=1
188.19702234375 note_on channel=2 note=57 velocity=61 time=1
188.20735290624998 note_off channel=9 note=42 velocity=0 time=2
188.24867515625002 note_off channel=5 note=76 velocity=0 time=8
188.28483212499998 note_off channel=5 note=72 velocity=0 time=7
188.33131965625 note_on channel=1 note=33 velocity=104 time=9
188.38813775 note_off channel=0 note=57 velocity=0 time=11
188.39330303124999 note_off channel=2 note=64 velocity=0 time=1
188.3984683125 note_off channel=0 note=45 velocity=0 time=1
188.408798875 note_off channel=0 note=52 velocity=0 time=2
188.41396415625 note_off channel=0 note=64 velocity=0 time=1
188.4191294375 note_off channel=0 note=60 velocity=0 time=1
188.4191294375 note_on channel=0 note=45 velocity=55 time=0
188.4191294375 note_off channel=2 note=60 velocity=0 time=0
188.42429471875 note_on channel=0 note=52 velocity=65 time=1
188.42429471875 note_on channel=0 note=57 velocity=77 time=0
188.42429471875 note_off channel=2 note=52 velocity=0 time=0
188.42429471875 note_off channel=2 note=57 velocity=0 time=0
188.42429471875 note_on channel=9 note=35 velocity=104 time=0
188.42429471875 note_on channel=9 note=42 velocity=61 time=0
188.42946 note_on channel=2 note=52 velocity=61 time=1
188.43462528125002 note_on channel=0 note=60 velocity=80 time=1
188.43462528125002 note_on channel=2 note=60 velocity=36 time=0
188.43462528125002 note_on channel=2 note=57 velocity=68 time=0
188.43979056249998 note_on channel=0 note=64 velocity=73 time=1
188.43979056249998 note_on channel=2 note=64 velocity=75 time=0
188.45528640625 note_off channel=9 note=42 velocity=0 time=3
188.45528640625 note_off channel=9 note=35 velocity=0 time=0
188.55859203125001 note_off channel=4 note=60 velocity=0 time=20
188.5637573125 note_off channel=3 note=69 velocity=0 time=1
188.63607125000001 note_off channel=2 note=57 velocity=0 time=14
188.656732375 note_off channel=0 note=64 velocity=0 time=4
188.66189765625 note_off channel=2 note=64 velocity=0 time=1
188.66706293750002 note_off channel=0 note=60 velocity=0 time=1
188.67222821874998 note_on channel=0 note=64 velocity=81 time=1
188.67222821874998 note_on channel=0 note=60 velocity=83 time=0
188.67222821874998 note_on channel=3 note=69 velocity=94 time=0
188.6773935 note_off channel=0 note=57 velocity=0 time=1
188.6773935 note_off channel=2 note=60 velocity=0 time=0
188.6773935 note_on channel=2 note=64 velocity=82 time=0
188.6773935 note_on channel=4 note=76 velocity=61 time=0
188.6773935 note_on channel=4 note=72 velocity=55 time=0
188.6773935 note_on channel=4 note=60 velocity=88 time=0
188.6773935 note_on channel=9 note=42 velocity=55 time=0
188.68255878125 note_on channel=0 note=57 velocity=75 time=1
188.68255878125 note_on channel=2 note=60 velocity=78 time=0
188.6877240625 note_on channel=2 note=57 velocity=62 time=1
188.7083851875 note_off channel=9 note=42 velocity=0 time=4
188.90983115625 note_on channel=9 note=40 velocity=92 time=39
188.9149964375 note_off channel=3 note=69 velocity=0 time=1
188.9149964375 note_on channel=3 note=71 velocity=93 time=0
188.92016171875 note_off channel=2 note=57 velocity=0 time=1
188.92016171875 note_off channel=2 note=52 velocity=0 time=0
188.92016171875 note_off channel=4 note=60 velocity=0 time=0
188.92016171875 note_off channel=4 note=72 velocity=0 time=0
188.92016171875 note_off channel=4 note=76 velocity=0 time=0
188.925327 note_off channel=2 note=64 velocity=0 time=1
188.925327 note_off channel=2 note=60 velocity=0 time=0
188.925327 note_on channel=2 note=52 velocity=45 time=0
188.925327 note_on channel=4 note=62 velocity=82 time=0
188.925327 note_on channel=4 note=72 velocity=50 time=0
188.925327 note_on channel=4 note=76 velocity=61 time=0
188.93049228125 note_on channel=2 note=57 velocity=66 time=1
188.93049228125 note_on channel=2 note=60 velocity=80 time=0
188.93049228125 note_on channel=9 note=42 velocity=65 time=0
188.93565756249998 note_on channel=2 note=64 velocity=78 time=1
188.94082284375 note_off channel=9 note=40 velocity=0 time=1
188.96148396875 note_off channel=0 note=52 velocity=0 time=4
188.96148396875 note_off channel=9 note=42 velocity=0 time=0
188.96664925 note_off channel=0 note=57 velocity=0 time=1
189.04929375 note_off channel=2 note=57 velocity=0 time=16
189.05445903125002 note_off channel=2 note=52 velocity=0 time=1
189.07512015625 note_off channel=2 note=60 velocity=0 time=4
189.09061599999998 note_off channel=0 note=64 velocity=0 time=3
189.1216076875 note_off channel=1 note=33 velocity=0 time=6
189.13193825000002 note_off channel=2 note=64 velocity=0 time=2
189.16292993750002 note_off channel=0 note=45 velocity=0 time=6
189.16292993750002 note_off channel=0 note=60 velocity=0 time=0
189.16292993750002 note_on channel=0 note=66 velocity=83 time=0
189.16292993750002 note_off channel=3 note=71 velocity=0 time=0
189.16292993750002 note_on channel=3 note=72 velocity=97 time=0
189.16809521874998 note_on channel=0 note=60 velocity=83 time=1
189.16809521874998 note_on channel=1 note=38 velocity=108 time=0
189.16809521874998 note_off channel=4 note=76 velocity=0 time=0
189.16809521874998 note_off channel=4 note=72 velocity=0 time=0
189.16809521874998 note_off channel=4 note=62 velocity=0 time=0
189.1732605 note_on channel=4 note=64 velocity=86 time=1
189.1732605 note_on channel=4 note=76 velocity=65 time=0
189.1732605 note_on channel=4 note=72 velocity=55 time=0
189.1732605 note_on channel=9 note=35 velocity=107 time=0
189.17842578125 note_on channel=0 note=57 velocity=79 time=1
189.17842578125 note_on channel=2 note=50 velocity=61 time=0
189.17842578125 note_on channel=9 note=42 velocity=58 time=0
189.1835910625 note_on channel=0 note=50 velocity=66 time=1
189.18875634375001 note_on channel=2 note=57 velocity=78 time=1
189.18875634375001 note_on channel=2 note=60 velocity=90 time=0
189.193921625 note_on channel=0 note=45 velocity=60 time=1
189.193921625 note_on channel=2 note=66 velocity=87 time=0
189.2042521875 note_off channel=9 note=35 velocity=0 time=2
189.20941746875002 note_off channel=9 note=42 velocity=0 time=1
189.29206196875 note_off channel=1 note=38 velocity=0 time=16
189.29206196875 note_off channel=4 note=72 velocity=0 time=0
189.4108634375 note_off channel=3 note=72 velocity=0 time=23
189.41602871875 note_on channel=3 note=74 velocity=95 time=1
189.41602871875 note_off channel=4 note=76 velocity=0 time=0
189.41602871875 note_off channel=4 note=64 velocity=0 time=0
189.421194 note_on channel=4 note=78 velocity=49 time=1
189.421194 note_on channel=4 note=66 velocity=79 time=0
189.421194 note_on channel=4 note=74 velocity=60 time=0
189.421194 note_on channel=9 note=42 velocity=61 time=0
189.4521856875 note_off channel=9 note=42 velocity=0 time=6
189.61230940625 note_off channel=0 note=66 velocity=0 time=31
189.62780525000002 note_off channel=0 note=57 velocity=0 time=3
189.64330109375 note_off channel=2 note=66 velocity=0 time=3
189.648466375 note_on channel=1 note=40 velocity=107 time=1
189.65363165625 note_off channel=2 note=60 velocity=0 time=1
189.65363165625 note_off channel=3 note=74 velocity=0 time=0
189.65363165625 note_on channel=3 note=69 velocity=95 time=0
189.66396221875 note_off channel=2 note=57 velocity=0 time=2
189.66396221875 note_off channel=4 note=74 velocity=0 time=0
189.66396221875 note_off channel=4 note=66 velocity=0 time=0
189.66396221875 note_off channel=4 note=78 velocity=0 time=0
189.6691275 note_off channel=0 note=60 velocity=0 time=1
189.6691275 note_on channel=0 note=66 velocity=82 time=0
189.6691275 note_on channel=2 note=66 velocity=87 time=0
189.6691275 note_on channel=4 note=78 velocity=54 time=0
189.6691275 note_on channel=4 note=74 velocity=61 time=0
189.6691275 note_on channel=4 note=62 velocity=88 time=0
189.6691275 note_on channel=9 note=42 velocity=58 time=0
189.67429278125002 note_on channel=0 note=60 velocity=81 time=1
189.67429278125002 note_on channel=2 note=60 velocity=83 time=0
189.67429278125002 note_on channel=2 note=57 velocity=59 time=0
189.6794580625 note_on channel=0 note=57 velocity=69 time=1
189.68462334375 note_off channel=0 note=50 velocity=0 time=1
189.689788625 note_on channel=0 note=50 velocity=51 time=1
189.7001191875 note_off channel=9 note=42 velocity=0 time=2
189.87057346875 note_off channel=0 note=66 velocity=0 time=33
189.88090403125 note_off channel=0 note=60 velocity=0 time=2
189.8860693125 note_off channel=2 note=50 velocity=0 time=1
189.89123459375 note_off channel=2 note=57 velocity=0 time=1
189.90156515625 note_off channel=0 note=57 velocity=0 time=2
189.90156515625 note_off channel=1 note=40 velocity=0 time=0
189.90156515625 note_on channel=1 note=42 velocity=107 time=0
189.90673043750002 note_off channel=2 note=60 velocity=0 time=1
189.90673043750002 note_on channel=2 note=50 velocity=47 time=0
189.90673043750002 note_on channel=2 note=57 velocity=76 time=0
189.91189571875 note_off channel=2 note=66 velocity=0 time=1
189.91189571875 note_on channel=2 note=60 velocity=85 time=0
189.91189571875 note_on channel=9 note=40 velocity=94 time=0
189.91189571875 note_on channel=9 note=42 velocity=65 time=0
189.917061 note_on channel=0 note=57 velocity=74 time=1
189.917061 note_on channel=2 note=66 velocity=86 time=0
189.92222628125 note_on channel=0 note=60 velocity=78 time=1
189.9273915625 note_on channel=0 note=66 velocity=72 time=1
189.94288740624998 note_off channel=9 note=42 velocity=0 time=3
189.94288740624998 note_off channel=9 note=40 velocity=0 time=0
190.00487078125 note_off channel=3 note=69 velocity=0 time=12
190.12367225 note_off channel=0 note=60 velocity=0 time=23
190.1340028125 note_off channel=1 note=42 velocity=0 time=2
190.14949865625 note_off channel=0 note=66 velocity=0 time=3
190.14949865625 note_on channel=3 note=71 velocity=98 time=0
190.1546639375 note_off channel=2 note=66 velocity=0 time=1
190.15982921875 note_on channel=0 note=66 velocity=69 time=1
190.15982921875 note_off channel=2 note=60 velocity=0 time=0
190.15982921875 note_on channel=2 note=66 velocity=86 time=0
190.15982921875 note_off channel=4 note=62 velocity=0 time=0
190.15982921875 note_off channel=4 note=74 velocity=0 time=0
190.15982921875 note_off channel=4 note=78 velocity=0 time=0
190.15982921875 note_on channel=9 note=42 velocity=58 time=0
190.1649945 note_on channel=2 note=60 velocity=76 time=1
190.1649945 note_on channel=4 note=74 velocity=45 time=0
190.1649945 note_on channel=4 note=67 velocity=78 time=0
190.1649945 note_on channel=4 note=71 velocity=43 time=0
190.1649945 note_on channel=4 note=79 velocity=45 time=0
190.17532506249998 note_on channel=0 note=60 velocity=69 time=2
190.19082090625 note_off channel=9 note=42 velocity=0 time=3
190.24247371875 note_off channel=0 note=66 velocity=0 time=10
190.24763900000002 note_off channel=0 note=57 velocity=0 time=1
190.25280428124998 note_off channel=2 note=60 velocity=0 time=1
190.25280428124998 note_off channel=2 note=57 velocity=0 time=0
190.25280428124998 note_off channel=2 note=66 velocity=0 time=0
190.2579695625 note_off channel=0 note=60 velocity=0 time=1
190.37677103125 note_off channel=2 note=50 velocity=0 time=23
190.3819363125 note_off channel=0 note=45 velocity=0 time=1
190.3819363125 note_off channel=0 note=50 velocity=0 time=0
190.392266875 note_on channel=2 note=55 velocity=65 time=2
190.39743215625 note_on channel=2 note=59 velocity=79 time=1
190.40259743750002 note_on channel=0 note=43 velocity=35 time=1
190.40259743750002 note_on channel=2 note=62 velocity=82 time=0
190.40259743750002 note_on channel=2 note=67 velocity=86 time=0
190.40776271874998 note_on channel=0 note=47 velocity=62 time=1
190.40776271874998 note_on channel=9 note=42 velocity=59 time=0
190.40776271874998 note_on channel=9 note=35 velocity=104 time=0
190.412928 note_on channel=1 note=43 velocity=112 time=1
190.4232585625 note_on channel=0 note=55 velocity=65 time=2
190.4232585625 note_on channel=0 note=50 velocity=37 time=0
190.42842384375 note_on channel=0 note=59 velocity=69 time=1
190.42842384375 note_on channel=0 note=67 velocity=44 time=0
190.43875440624998 note_off channel=9 note=35 velocity=0 time=2
190.43875440624998 note_off channel=9 note=42 velocity=0 time=0
190.60404340625 note_off channel=2 note=62 velocity=0 time=32
190.62470453125 note_off channel=0 note=55 velocity=0 time=4
190.64020037499998 note_off channel=0 note=67 velocity=0 time=3
190.64020037499998 note_off channel=2 note=67 velocity=0 time=0
190.64536565625 note_on channel=2 note=67 velocity=84 time=1
190.6505309375 note_off channel=0 note=43 velocity=0 time=1
190.6505309375 note_on channel=2 note=62 velocity=81 time=0
190.6505309375 note_on channel=9 note=42 velocity=58 time=0
190.65569621875 note_off channel=0 note=47 velocity=0 time=1
190.65569621875 note_on channel=0 note=67 velocity=82 time=0
190.6608615 note_off channel=0 note=59 velocity=0 time=1
190.66602678125 note_on channel=0 note=59 velocity=84 time=1
190.67119206249998 note_on channel=0 note=55 velocity=74 time=1
190.681522625 note_off channel=0 note=50 velocity=0 time=2
190.681522625 note_off channel=9 note=42 velocity=0 time=0
190.68668790625 note_on channel=0 note=50 velocity=57 time=1
190.68668790625 note_on channel=0 note=47 velocity=72 time=0
190.68668790625 note_off channel=3 note=71 velocity=0 time=0
190.6918531875 note_on channel=0 note=43 velocity=51 time=1
190.85197690625 note_off channel=2 note=59 velocity=0 time=31
190.888133875 note_off channel=0 note=43 velocity=0 time=7
190.888133875 note_off channel=2 note=55 velocity=0 time=0
190.89329915625 note_on channel=2 note=55 velocity=65 time=1
190.89846443750002 note_on channel=2 note=59 velocity=71 time=1
190.89846443750002 note_on channel=9 note=40 velocity=93 time=0
190.90362971874998 note_on channel=9 note=42 velocity=61 time=1
190.91396028125 note_on channel=0 note=43 velocity=44 time=2
190.929456125 note_off channel=9 note=40 velocity=0 time=3
190.93462140625 note_off channel=9 note=42 velocity=0 time=1
191.02759646875 note_off channel=4 note=79 velocity=0 time=18
191.02759646875 note_off channel=4 note=71 velocity=0 time=0
191.02759646875 note_off channel=4 note=67 velocity=0 time=0
191.02759646875 note_off channel=4 note=74 velocity=0 time=0
191.11540625 note_off channel=1 note=43 velocity=0 time=17
191.12057153125 note_off channel=0 note=59 velocity=0 time=1
191.13606737499998 note_off channel=2 note=67 velocity=0 time=3
191.14123265625 note_off channel=2 note=62 velocity=0 time=1
191.14123265625 note_on channel=2 note=67 velocity=86 time=0
191.1463979375 note_on channel=1 note=31 velocity=108 time=1
191.1463979375 note_off channel=2 note=59 velocity=0 time=0
191.1463979375 note_on channel=2 note=62 velocity=80 time=0
191.1463979375 note_on channel=9 note=35 velocity=108 time=0
191.15156321875 note_on channel=2 note=59 velocity=72 time=1
191.15156321875 note_on channel=9 note=42 velocity=61 time=0
191.1567285 note_off channel=0 note=67 velocity=0 time=1
191.16189378125 note_off channel=0 note=43 velocity=0 time=1
191.16189378125 note_on channel=0 note=67 velocity=82 time=0
191.1670590625 note_off channel=0 note=55 velocity=0 time=1
191.1670590625 note_on channel=0 note=59 velocity=82 time=0
191.17222434375 note_off channel=0 note=50 velocity=0 time=1
191.17222434375 note_on channel=0 note=55 velocity=78 time=0
191.17738962500002 note_off channel=0 note=47 velocity=0 time=1
191.17738962500002 note_off channel=9 note=35 velocity=0 time=0
191.18255490625 note_on channel=0 note=50 velocity=62 time=1
191.18255490625 note_on channel=0 note=47 velocity=74 time=0
191.18255490625 note_off channel=9 note=42 velocity=0 time=0
191.19288546875 note_on channel=0 note=43 velocity=31 time=2
191.3943314375 note_on channel=9 note=42 velocity=58 time=39
191.425323125 note_off channel=9 note=42 velocity=0 time=6
191.63709965625 note_off channel=0 note=67 velocity=0 time=41
191.64226493750002 note_on channel=9 note=42 velocity=61 time=1
191.64743021875 note_on channel=0 note=67 velocity=82 time=1
191.64743021875 note_off channel=1 note=31 velocity=0 time=0
191.64743021875 note_on channel=1 note=33 velocity=108 time=0
191.6525955 note_off channel=0 note=59 velocity=0 time=1
191.65776078125 note_off channel=0 note=55 velocity=0 time=1
191.65776078125 note_on channel=0 note=59 velocity=84 time=0
191.66809134375 note_on channel=0 note=55 velocity=72 time=2
191.67325662500002 note_off channel=0 note=50 velocity=0 time=1
191.67325662500002 note_off channel=9 note=42 velocity=0 time=0
191.67842190624998 note_on channel=0 note=50 velocity=42 time=1
191.84371090625 note_off channel=2 note=67 velocity=0 time=32
191.86437203124999 note_off channel=0 note=59 velocity=0 time=4
191.8695373125 note_off channel=0 note=47 velocity=0 time=1
191.88503315625 note_off channel=0 note=50 velocity=0 time=3
191.8901984375 note_on channel=9 note=40 velocity=96 time=1
191.89536371875 note_off channel=0 note=67 velocity=0 time=1
191.89536371875 note_off channel=1 note=33 velocity=0 time=0
191.89536371875 note_on channel=1 note=35 velocity=111 time=0
191.89536371875 note_off channel=2 note=59 velocity=0 time=0
191.89536371875 note_on channel=9 note=42 velocity=61 time=0
191.900529 note_on channel=0 note=50 velocity=43 time=1
191.900529 note_off channel=2 note=62 velocity=0 time=0
191.91602484375 note_on channel=0 note=59 velocity=65 time=3
191.91602484375 note_off channel=2 note=55 velocity=0 time=0
191.921190125 note_on channel=0 note=67 velocity=53 time=1
191.921190125 note_off channel=9 note=40 velocity=0 time=0
191.92635540625 note_off channel=9 note=42 velocity=0 time=1
192.07098328125 note_off channel=0 note=43 velocity=0 time=28
192.11230553125 note_off channel=1 note=35 velocity=0 time=8
192.127801375 note_off channel=0 note=67 velocity=0 time=3
192.14329721874998 note_on channel=9 note=42 velocity=61 time=3
192.1484625 note_off channel=0 note=59 velocity=0 time=1
192.1484625 note_on channel=0 note=67 velocity=56 time=0
192.1587930625 note_on channel=0 note=59 velocity=58 time=2
192.16395834375 note_off channel=0 note=55 velocity=0 time=1
192.169123625 note_on channel=0 note=55 velocity=38 time=1
192.17428890624998 note_off channel=9 note=42 velocity=0 time=1
192.210445875 note_off channel=0 note=67 velocity=0 time=7
192.3034209375 note_on channel=2 note=48 velocity=66 time=18
192.3137515 note_off channel=0 note=59 velocity=0 time=2
192.31891678125 note_off channel=0 note=50 velocity=0 time=1
192.35507375 note_on channel=0 note=48 velocity=69 time=7
192.36023903125 note_on channel=0 note=42 velocity=33 time=1
192.3654043125 note_on channel=0 note=52 velocity=61 time=1
192.37056959375002 note_on channel=2 note=52 velocity=64 time=1
192.37573487499998 note_on channel=2 note=55 velocity=79 time=1
192.38090015625 note_on channel=4 note=76 velocity=92 time=1
192.3860654375 note_on channel=0 note=60 velocity=78 time=1
192.3860654375 note_on channel=2 note=60 velocity=86 time=0
192.3860654375 note_on channel=9 note=42 velocity=62 time=0
192.39123071875 note_on channel=2 note=67 velocity=86 time=1
192.396396 note_on channel=0 note=67 velocity=78 time=1
192.396396 note_on channel=3 note=72 velocity=101 time=0
192.396396 note_on channel=9 note=35 velocity=108 time=0
192.40156128125 note_on channel=1 note=36 velocity=108 time=1
192.417057125 note_off channel=9 note=42 velocity=0 time=3
192.4273876875 note_off channel=9 note=35 velocity=0 time=2
192.50486690625 note_off channel=4 note=76 velocity=0 time=15
192.5100321875 note_on channel=4 note=76 velocity=81 time=1
192.51519746875 note_off channel=3 note=72 velocity=0 time=1
192.52036275 note_on channel=3 note=72 velocity=112 time=1
192.60817253125 note_off channel=3 note=72 velocity=0 time=17
192.6133378125 note_off channel=2 note=52 velocity=0 time=1
192.61850309375 note_off channel=2 note=55 velocity=0 time=1
192.61850309375 note_off channel=2 note=67 velocity=0 time=0
192.623668375 note_off channel=4 note=76 velocity=0 time=1
192.62883365625 note_on channel=4 note=76 velocity=83 time=1
192.63399893750002 note_off channel=0 note=60 velocity=0 time=1
192.63399893750002 note_off channel=2 note=60 velocity=0 time=0
192.63399893750002 note_on channel=2 note=67 velocity=86 time=0
192.63399893750002 note_on channel=9 note=42 velocity=52 time=0
192.63916421874998 note_on channel=2 note=60 velocity=84 time=1
192.6443295 note_off channel=0 note=67 velocity=0 time=1
192.6443295 note_on channel=2 note=55 velocity=63 time=0
192.6443295 note_on channel=3 note=72 velocity=110 time=0
192.64949478125 note_on channel=0 note=67 velocity=82 time=1
192.64949478125 note_on channel=2 note=52 velocity=31 time=0
192.6546600625 note_on channel=0 note=60 velocity=81 time=1
192.664990625 note_off channel=9 note=42 velocity=0 time=2
192.8406101875 note_off channel=2 note=60 velocity=0 time=34
192.85610603125 note_off channel=2 note=52 velocity=0 time=3
192.86643659375002 note_off channel=3 note=72 velocity=0 time=2
192.86643659375002 note_on channel=3 note=71 velocity=101 time=0
192.87160187499998 note_off channel=2 note=55 velocity=0 time=1
192.87676715625 note_on channel=2 note=52 velocity=49 time=1
192.87676715625 note_off channel=4 note=76 velocity=0 time=0
192.87676715625 note_on channel=4 note=74 velocity=69 time=0
192.8819324375 note_on channel=2 note=55 velocity=58 time=1
192.8819324375 note_on channel=2 note=60 velocity=76 time=0
192.8819324375 note_on channel=9 note=40 velocity=96 time=0
192.88709771875 note_off channel=2 note=67 velocity=0 time=1
192.892263 note_on channel=9 note=42 velocity=64 time=1
192.89742828125 note_on channel=2 note=67 velocity=49 time=1
192.9025935625 note_off channel=0 note=60 velocity=0 time=1
192.91292412500002 note_off channel=9 note=40 velocity=0 time=2
192.9232546875 note_off channel=9 note=42 velocity=0 time=2
192.92841996875 note_on channel=0 note=60 velocity=48 time=1
192.995568625 note_off channel=0 note=52 velocity=0 time=13
193.00073390625 note_off channel=0 note=48 velocity=0 time=1
193.01622975 note_off channel=0 note=42 velocity=0 time=3
193.078213125 note_off channel=2 note=48 velocity=0 time=12
193.08337840625 note_off channel=0 note=60 velocity=0 time=1
193.0885436875 note_off channel=2 note=60 velocity=0 time=1
193.09887425000002 note_off channel=2 note=52 velocity=0 time=2
193.119535375 note_off channel=0 note=55 velocity=0 time=4
193.119535375 note_off channel=0 note=67 velocity=0 time=0
193.119535375 note_off channel=3 note=71 velocity=0 time=0
193.119535375 note_on channel=3 note=72 velocity=97 time=0
193.12470065625 note_off channel=2 note=55 velocity=0 time=1
193.12470065625 note_off channel=4 note=74 velocity=0 time=0
193.12470065625 note_on channel=4 note=76 velocity=66 time=0
193.1298659375 note_on channel=0 note=67 velocity=82 time=1
193.1298659375 note_off channel=2 note=67 velocity=0 time=0
193.13503121875 note_on channel=0 note=59 velocity=84 time=1
193.13503121875 note_off channel=1 note=36 velocity=0 time=0
193.13503121875 note_on channel=2 note=67 velocity=87 time=0
193.13503121875 note_on channel=9 note=42 velocity=59 time=0
193.1401965 note_on channel=2 note=59 velocity=86 time=1
193.14536178125002 note_on channel=0 note=55 velocity=70 time=1
193.14536178125002 note_on channel=1 note=43 velocity=110 time=0
193.14536178125002 note_on channel=2 note=55 velocity=72 time=0
193.14536178125002 note_on channel=2 note=50 velocity=33 time=0
193.1505270625 note_on channel=0 note=50 velocity=53 time=1
193.1505270625 note_on channel=9 note=35 velocity=104 time=0
193.16602290625 note_off channel=9 note=42 velocity=0 time=3
193.1711881875 note_on channel=0 note=47 velocity=53 time=1
193.17635346875002 note_on channel=0 note=43 velocity=51 time=1
193.18151874999998 note_off channel=9 note=35 velocity=0 time=1
193.35197303125 note_off channel=0 note=55 velocity=0 time=33
193.37779943750002 note_off channel=0 note=67 velocity=0 time=5
193.38296471875 note_off channel=0 note=59 velocity=0 time=1
193.38296471875 note_on channel=9 note=42 velocity=59 time=0
193.39329528125 note_off channel=0 note=50 velocity=0 time=2
193.39329528125 note_on channel=3 note=71 velocity=95 time=0
193.3984605625 note_on channel=0 note=50 velocity=56 time=1
193.40879112500002 note_on channel=0 note=55 velocity=58 time=2
193.41395640624998 note_on channel=0 note=59 velocity=69 time=1
193.41395640624998 note_off channel=9 note=42 velocity=0 time=0
193.4191216875 note_on channel=0 note=67 velocity=55 time=1
193.61023709375002 note_off channel=4 note=76 velocity=0 time=37
193.61023709375002 note_on channel=4 note=74 velocity=60 time=0
193.62056765625 note_off channel=2 note=59 velocity=0 time=2
193.62056765625 note_off channel=2 note=67 velocity=0 time=0
193.62056765625 note_off channel=3 note=72 velocity=0 time=0
193.6257329375 note_off channel=0 note=67 velocity=0 time=1
193.6257329375 note_off channel=2 note=55 velocity=0 time=0
193.63089821875 note_on channel=2 note=67 velocity=87 time=1
193.6360635 note_on channel=2 note=59 velocity=84 time=1
193.64122878125002 note_off channel=0 note=59 velocity=0 time=1
193.64122878125002 note_on channel=2 note=55 velocity=63 time=0
193.64122878125002 note_off channel=3 note=71 velocity=0 time=0
193.64122878125002 note_on channel=9 note=42 velocity=58 time=0
193.64639406249998 note_on channel=0 note=67 velocity=78 time=1
193.65155934375 note_on channel=0 note=59 velocity=76 time=1
193.67222046875 note_off channel=9 note=42 velocity=0 time=4
193.863335875 note_off channel=0 note=47 velocity=0 time=37
193.863335875 note_off channel=2 note=50 velocity=0 time=0
193.86850115625 note_off channel=1 note=43 velocity=0 time=1
193.87366643750002 note_off channel=2 note=55 velocity=0 time=1
193.87883171874998 note_off channel=2 note=59 velocity=0 time=1
193.87883171874998 note_on channel=2 note=50 velocity=60 time=0
193.87883171874998 note_on channel=2 note=55 velocity=83 time=0
193.87883171874998 note_on channel=9 note=40 velocity=93 time=0
193.883997 note_off channel=2 note=67 velocity=0 time=1
193.883997 note_on channel=2 note=59 velocity=83 time=0
193.883997 note_on channel=9 note=42 velocity=69 time=0
193.88916228125 note_on channel=2 note=67 velocity=85 time=1
193.8943275625 note_off channel=0 note=50 velocity=0 time=1
193.8943275625 note_off channel=0 note=55 velocity=0 time=0
193.8943275625 note_on channel=0 note=47 velocity=65 time=0
193.89949284375 note_off channel=0 note=59 velocity=0 time=1
193.89949284375 note_on channel=0 note=55 velocity=75 time=0
193.904658125 note_on channel=0 note=50 velocity=51 time=1
193.904658125 note_on channel=0 note=59 velocity=76 time=0
193.90982340624998 note_off channel=9 note=40 velocity=0 time=1
193.9149886875 note_off channel=9 note=42 velocity=0 time=1
194.07511240625 note_off channel=0 note=43 velocity=0 time=31
194.08544296875 note_off channel=0 note=47 velocity=0 time=2
194.11126937499998 note_off channel=0 note=67 velocity=0 time=5
194.1215999375 note_off channel=2 note=67 velocity=0 time=2
194.1319305 note_on channel=0 note=67 velocity=53 time=2
194.1319305 note_off channel=2 note=59 velocity=0 time=0
194.1319305 note_on channel=2 note=67 velocity=72 time=0
194.1319305 note_on channel=9 note=42 velocity=57 time=0
194.13709578125 note_on channel=2 note=59 velocity=71 time=1
194.1629221875 note_off channel=9 note=42 velocity=0 time=5
194.24040140625 note_off channel=4 note=74 velocity=0 time=15
194.31271534375 note_off channel=0 note=50 velocity=0 time=14
194.31271534375 note_off channel=0 note=59 velocity=0 time=0
194.31788062500002 note_off channel=2 note=50 velocity=0 time=1
194.35403759375 note_off channel=2 note=59 velocity=0 time=7
194.359202875 note_off channel=0 note=55 velocity=0 time=1
194.359202875 note_off channel=2 note=55 velocity=0 time=0
194.36436815625 note_on channel=4 note=76 velocity=89 time=1
194.36953343750002 note_on channel=0 note=48 velocity=69 time=1
194.36953343750002 note_on channel=1 note=36 velocity=110 time=0
194.36953343750002 note_off channel=2 note=67 velocity=0 time=0
194.36953343750002 note_on channel=2 note=48 velocity=75 time=0
194.36953343750002 note_on channel=2 note=55 velocity=73 time=0
194.36953343750002 note_on channel=2 note=52 velocity=64 time=0
194.36953343750002 note_on channel=3 note=72 velocity=106 time=0
194.37469871874998 note_on channel=0 note=52 velocity=59 time=1
194.37469871874998 note_on channel=2 note=60 velocity=82 time=0
194.379864 note_off channel=0 note=67 velocity=0 time=1
194.379864 note_on channel=0 note=55 velocity=78 time=0
194.379864 note_on channel=2 note=67 velocity=78 time=0
194.379864 note_on channel=9 note=35 velocity=105 time=0
194.379864 note_on channel=9 note=42 velocity=63 time=0
194.38502928125 note_on channel=0 note=60 velocity=80 time=1
194.3901945625 note_on channel=0 note=67 velocity=75 time=1
194.4108556875 note_off channel=9 note=42 velocity=0 time=4
194.4108556875 note_off channel=9 note=35 velocity=0 time=0
194.47283906250001 note_off channel=3 note=72 velocity=0 time=12
194.49350018750002 note_on channel=3 note=72 velocity=98 time=4
194.49350018750002 note_off channel=4 note=76 velocity=0 time=0
194.49866546875 note_on channel=4 note=76 velocity=81 time=1
194.565814125 note_off channel=3 note=72 velocity=0 time=13
194.57097940625002 note_off channel=0 note=48 velocity=0 time=1
194.5761446875 note_off channel=2 note=60 velocity=0 time=1
194.60197109375002 note_on channel=3 note=72 velocity=98 time=5
194.60713637499998 note_off channel=0 note=67 velocity=0 time=1
194.61230165625 note_off channel=0 note=60 velocity=0 time=1
194.61230165625 note_off channel=2 note=55 velocity=0 time=0
194.61230165625 note_off channel=4 note=76 velocity=0 time=0
194.6174669375 note_on channel=0 note=67 velocity=80 time=1
194.6174669375 note_off channel=2 note=67 velocity=0 time=0
194.6174669375 note_on channel=4 note=76 velocity=81 time=0
194.62263221875 note_on channel=0 note=60 velocity=72 time=1
194.62263221875 note_on channel=2 note=67 velocity=83 time=0
194.6277975 note_off channel=1 note=36 velocity=0 time=1
194.6277975 note_on channel=1 note=38 velocity=114 time=0
194.6277975 note_on channel=2 note=60 velocity=83 time=0
194.6277975 note_on channel=9 note=42 velocity=58 time=0
194.63296278125 note_on channel=2 note=55 velocity=59 time=1
194.6381280625 note_on channel=0 note=48 velocity=62 time=1
194.6587891875 note_off channel=9 note=42 velocity=0 time=4
194.83440875000002 note_off channel=1 note=38 velocity=0 time=34
194.83957403124998 note_off channel=3 note=72 velocity=0 time=1
194.855069875 note_off channel=0 note=48 velocity=0 time=3
194.86023515625 note_off channel=2 note=55 velocity=0 time=1
194.86023515625 note_off channel=2 note=48 velocity=0 time=0
194.8654004375 note_off channel=0 note=52 velocity=0 time=1
194.8654004375 note_off channel=2 note=52 velocity=0 time=0
194.8654004375 note_on channel=2 note=48 velocity=58 time=0
194.8654004375 note_on channel=3 note=71 velocity=97 time=0
194.8654004375 note_on channel=9 note=40 velocity=93 time=0
194.87056571875 note_off channel=0 note=60 velocity=0 time=1
194.87056571875 note_off channel=2 note=60 velocity=0 time=0
194.87056571875 note_on channel=2 note=52 velocity=69 time=0
194.87056571875 note_on channel=2 note=55 velocity=84 time=0
194.87056571875 note_on channel=9 note=42 velocity=69 time=0
194.875731 note_on channel=2 note=60 velocity=84 time=1
194.875731 note_off channel=4 note=76 velocity=0 time=0
194.875731 note_on channel=4 note=74 velocity=72 time=0
194.896392125 note_off channel=9 note=40 velocity=0 time=4
194.90155740625 note_off channel=9 note=42 velocity=0 time=1
195.08750753125 note_off channel=2 note=60 velocity=0 time=36
195.0926728125 note_off channel=0 note=67 velocity=0 time=1
195.09783809375 note_off channel=2 note=52 velocity=0 time=1
195.103003375 note_off channel=2 note=48 velocity=0 time=1
195.103003375 note_off channel=3 note=71 velocity=0 time=0
195.103003375 note_on channel=3 note=72 velocity=97 time=0
195.10816865625 note_off channel=0 note=55 velocity=0 time=1
195.10816865625 note_on channel=0 note=67 velocity=79 time=0
195.11333393750002 note_on channel=0 note=59 velocity=83 time=1
195.11849921875 note_on channel=0 note=55 velocity=72 time=1
195.11849921875 note_off channel=2 note=55 velocity=0 time=0
195.11849921875 note_on channel=9 note=42 velocity=58 time=0
195.1236645 note_on channel=1 note=31 velocity=108 time=1
195.1236645 note_off channel=2 note=67 velocity=0 time=0
195.12882978125 note_on channel=2 note=67 velocity=86 time=1
195.12882978125 note_on channel=2 note=59 velocity=83 time=0
195.12882978125 note_off channel=4 note=74 velocity=0 time=0
195.12882978125 note_on channel=4 note=76 velocity=65 time=0
195.12882978125 note_on channel=9 note=35 velocity=110 time=0
195.1339950625 note_on channel=0 note=47 velocity=66 time=1
195.1339950625 note_on channel=0 note=50 velocity=49 time=0
195.1339950625 note_on channel=2 note=55 velocity=57 time=0
195.1339950625 note_on channel=2 note=50 velocity=34 time=0
195.13916034375 note_on channel=0 note=43 velocity=58 time=1
195.14949090624998 note_off channel=9 note=42 velocity=0 time=2
195.15982146875 note_off channel=9 note=35 velocity=0 time=2
195.371598 note_on channel=9 note=42 velocity=59 time=41
195.4025896875 note_off channel=9 note=42 velocity=0 time=6
195.56271340625 note_off channel=0 note=67 velocity=0 time=31
195.57820925000001 note_off channel=2 note=67 velocity=0 time=3
195.58337453125 note_off channel=2 note=59 velocity=0 time=1
195.60403565625 note_off channel=3 note=72 velocity=0 time=4
195.60403565625 note_on channel=3 note=71 velocity=73 time=0
195.60920093750002 note_off channel=0 note=59 velocity=0 time=1
195.60920093750002 note_on channel=0 note=67 velocity=82 time=0
195.61436621874998 note_off channel=0 note=55 velocity=0 time=1
195.61436621874998 note_on channel=0 note=59 velocity=78 time=0
195.61436621874998 note_off channel=4 note=76 velocity=0 time=0
195.61436621874998 note_on channel=4 note=74 velocity=67 time=0
195.61436621874998 note_on channel=9 note=42 velocity=58 time=0
195.6195315 note_off channel=0 note=50 velocity=0 time=1
195.6195315 note_on channel=0 note=55 velocity=64 time=0
195.62469678125 note_on channel=2 note=67 velocity=86 time=1
195.6298620625 note_on channel=0 note=50 velocity=41 time=1
195.6298620625 note_on channel=2 note=59 velocity=81 time=0
195.63502734375 note_off channel=2 note=55 velocity=0 time=1
195.640192625 note_on channel=2 note=55 velocity=53 time=1
195.64535790624998 note_off channel=9 note=42 velocity=0 time=1
195.78998578125 note_off channel=3 note=71 velocity=0 time=28
195.82614275 note_off channel=0 note=43 velocity=0 time=7
195.82614275 note_off channel=0 note=55 velocity=0 time=0
195.83130803125 note_off channel=2 note=67 velocity=0 time=1
195.84680387499998 note_off channel=0 note=50 velocity=0 time=3
195.84680387499998 note_off channel=1 note=31 velocity=0 time=0
195.85196915625 note_off channel=0 note=67 velocity=0 time=1
195.8571344375 note_on channel=0 note=43 velocity=46 time=1
195.8571344375 note_off channel=2 note=50 velocity=0 time=0
195.8571344375 note_on channel=9 note=40 velocity=89 time=0
195.86229971875 note_off channel=0 note=59 velocity=0 time=1
195.86229971875 note_on channel=0 note=50 velocity=53 time=0
195.86229971875 note_off channel=2 note=55 velocity=0 time=0
195.86229971875 note_on channel=9 note=42 velocity=59 time=0
195.867465 note_on channel=0 note=55 velocity=61 time=1
195.867465 note_on channel=0 note=59 velocity=74 time=0
195.867465 note_on channel=2 note=50 velocity=53 time=0
195.87263028125 note_off channel=2 note=59 velocity=0 time=1
195.87263028125 note_on channel=2 note=55 velocity=78 time=0
195.87779556249998 note_on channel=0 note=67 velocity=69 time=1
195.87779556249998 note_on channel=2 note=59 velocity=89 time=0
195.87779556249998 note_on channel=2 note=67 velocity=87 time=0
195.888126125 note_off channel=9 note=40 velocity=0 time=2
195.89329140625 note_off channel=9 note=42 velocity=0 time=1
196.07407625000002 note_off channel=0 note=59 velocity=0 time=35
196.10506793750002 note_off channel=0 note=67 velocity=0 time=6
196.10506793750002 note_off channel=2 note=67 velocity=0 time=0
196.11023321874998 note_on channel=0 note=67 velocity=57 time=1
196.11023321874998 note_on channel=9 note=42 velocity=59 time=0
196.12056378125 note_off channel=0 note=43 velocity=0 time=2
196.12056378125 note_on channel=0 note=59 velocity=65 time=0
196.12056378125 note_off channel=2 note=59 velocity=0 time=0
196.1257290625 note_off channel=0 note=47 velocity=0 time=1
196.1257290625 note_on channel=2 note=67 velocity=63 time=0
196.1257290625 note_on channel=2 note=59 velocity=65 time=0
196.14122490625 note_off channel=9 note=42 velocity=0 time=3
196.15155546875002 note_off channel=4 note=74 velocity=0 time=2
196.32200975 note_off channel=2 note=59 velocity=0 time=33
196.32717503125 note_off channel=0 note=50 velocity=0 time=1
196.32717503125 note_off channel=0 note=59 velocity=0 time=0
196.3323403125 note_off channel=2 note=50 velocity=0 time=1
196.34783615625 note_on channel=1 note=36 velocity=106 time=3
196.3530014375 note_off channel=0 note=55 velocity=0 time=1
196.3530014375 note_on channel=0 note=48 velocity=67 time=0
196.3530014375 note_on channel=3 note=72 velocity=108 time=0
196.35816671875 note_off channel=0 note=67 velocity=0 time=1
196.35816671875 note_on channel=0 note=52 velocity=62 time=0
196.35816671875 note_on channel=0 note=55 velocity=80 time=0
196.35816671875 note_off channel=2 note=55 velocity=0 time=0
196.35816671875 note_on channel=9 note=42 velocity=68 time=0
196.363332 note_on channel=2 note=48 velocity=64 time=1
196.363332 note_on channel=9 note=35 velocity=101 time=0
196.36849728125 note_on channel=0 note=60 velocity=83 time=1
196.36849728125 note_off channel=2 note=67 velocity=0 time=0
196.36849728125 note_on channel=2 note=55 velocity=82 time=0
196.36849728125 note_on channel=2 note=52 velocity=65 time=0
196.36849728125 note_on channel=2 note=60 velocity=84 time=0
196.36849728125 note_on channel=4 note=76 velocity=92 time=0
196.3736625625 note_on channel=0 note=67 velocity=76 time=1
196.3736625625 note_on channel=2 note=67 velocity=84 time=0
196.38915840625 note_off channel=9 note=42 velocity=0 time=3
196.3943236875 note_off channel=9 note=35 velocity=0 time=1
196.4459765 note_off channel=3 note=72 velocity=0 time=10
196.48729875 note_on channel=3 note=72 velocity=97 time=8
196.48729875 note_off channel=4 note=76 velocity=0 time=0
196.49246403125002 note_on channel=4 note=76 velocity=81 time=1
196.55444740625 note_off channel=3 note=72 velocity=0 time=12
196.590604375 note_off channel=0 note=67 velocity=0 time=7
196.590604375 note_off channel=2 note=67 velocity=0 time=0
196.59576965625 note_on channel=3 note=72 velocity=101 time=1
196.6009349375 note_on channel=0 note=67 velocity=79 time=1
196.6009349375 note_off channel=4 note=76 velocity=0 time=0
196.60610021875 note_off channel=0 note=60 velocity=0 time=1
196.60610021875 note_off channel=2 note=60 velocity=0 time=0
196.60610021875 note_off channel=2 note=48 velocity=0 time=0
196.60610021875 note_on channel=4 note=76 velocity=79 time=0
196.60610021875 note_on channel=9 note=42 velocity=56 time=0
196.6112655 note_on channel=0 note=60 velocity=75 time=1
196.6112655 note_on channel=2 note=60 velocity=78 time=0
196.6112655 note_on channel=2 note=67 velocity=77 time=0
196.6215960625 note_on channel=2 note=48 velocity=54 time=2
196.63709190625 note_off channel=9 note=42 velocity=0 time=3
196.8282073125 note_off channel=2 note=52 velocity=0 time=37
196.83337259375 note_off channel=2 note=55 velocity=0 time=1
196.838537875 note_off channel=2 note=60 velocity=0 time=1
196.838537875 note_off channel=3 note=72 velocity=0 time=0
196.84370315625 note_off channel=2 note=67 velocity=0 time=1
196.84370315625 note_on channel=2 note=52 velocity=38 time=0
196.84370315625 note_on channel=3 note=71 velocity=101 time=0
196.84886843750002 note_on channel=2 note=55 velocity=83 time=1
196.84886843750002 note_on channel=2 note=60 velocity=85 time=0
196.85403371875 note_on channel=2 note=67 velocity=85 time=1
196.85403371875 note_off channel=4 note=76 velocity=0 time=0
196.85403371875 note_on channel=4 note=74 velocity=79 time=0
196.85403371875 note_on channel=9 note=42 velocity=65 time=0
196.8695295625 note_on channel=9 note=40 velocity=93 time=3
196.87469484375 note_off channel=0 note=55 velocity=0 time=1
196.87469484375 note_off channel=0 note=52 velocity=0 time=0
196.87986012500002 note_on channel=0 note=59 velocity=35 time=1
196.88502540624998 note_off channel=9 note=42 velocity=0 time=1
196.89535596875 note_off channel=0 note=67 velocity=0 time=2
196.89535596875 note_off channel=0 note=60 velocity=0 time=0
196.90052125 note_off channel=0 note=48 velocity=0 time=1
196.90052125 note_off channel=9 note=40 velocity=0 time=0
197.03998384374998 note_off channel=2 note=48 velocity=0 time=27
197.05031440625 note_off channel=2 note=55 velocity=0 time=2
197.0554796875 note_off channel=2 note=60 velocity=0 time=1
197.06581025 note_off channel=2 note=52 velocity=0 time=2
197.0761408125 note_off channel=0 note=59 velocity=0 time=2
197.0968019375 note_on channel=0 note=59 velocity=82 time=4
197.0968019375 note_off channel=2 note=67 velocity=0 time=0
197.0968019375 note_off channel=3 note=71 velocity=0 time=0
197.0968019375 note_on channel=3 note=72 velocity=103 time=0
197.0968019375 note_off channel=4 note=74 velocity=0 time=0
197.0968019375 note_on channel=4 note=76 velocity=75 time=0
197.10196721875 note_on channel=0 note=67 velocity=83 time=1
197.10196721875 note_on channel=2 note=67 velocity=85 time=0
197.10196721875 note_on channel=2 note=59 velocity=85 time=0
197.10196721875 note_on channel=9 note=42 velocity=63 time=0
197.1071325 note_on channel=0 note=55 velocity=82 time=1
197.1071325 note_on channel=2 note=55 velocity=74 time=0
197.11229778125002 note_on channel=0 note=50 velocity=69 time=1
197.11229778125002 note_off channel=1 note=36 velocity=0 time=0
197.11229778125002 note_on channel=1 note=43 velocity=110 time=0
197.11229778125002 note_on channel=2 note=50 velocity=41 time=0
197.11229778125002 note_on channel=9 note=35 velocity=103 time=0
197.127793625 note_on channel=0 note=43 velocity=63 time=3
197.13295890625 note_on channel=0 note=47 velocity=69 time=1
197.13295890625 note_off channel=9 note=42 velocity=0 time=0
197.14328946875 note_off channel=9 note=35 velocity=0 time=2
197.25692565625 note_off channel=1 note=43 velocity=0 time=22
197.33957015625 note_on channel=3 note=71 velocity=93 time=16
197.34990071874998 note_on channel=9 note=42 velocity=63 time=2
197.38089240624998 note_off channel=9 note=42 velocity=0 time=6
197.5100244375 note_off channel=2 note=67 velocity=0 time=25
197.56167725 note_off channel=2 note=50 velocity=0 time=10
197.58233837499998 note_off channel=0 note=67 velocity=0 time=4
197.58750365625 note_on channel=1 note=42 velocity=107 time=1
197.58750365625 note_off channel=3 note=71 velocity=0 time=0
197.58750365625 note_off channel=4 note=76 velocity=0 time=0
197.58750365625 note_on channel=4 note=74 velocity=69 time=0
197.5926689375 note_off channel=0 note=59 velocity=0 time=1
197.5926689375 note_off channel=0 note=47 velocity=0 time=0
197.5926689375 note_on channel=0 note=67 velocity=69 time=0
197.5926689375 note_off channel=3 note=72 velocity=0 time=0
197.59783421875 note_off channel=0 note=55 velocity=0 time=1
197.59783421875 note_on channel=0 note=59 velocity=76 time=0
197.59783421875 note_on channel=2 note=67 velocity=86 time=0
197.59783421875 note_on channel=9 note=42 velocity=61 time=0
197.6029995 note_off channel=2 note=59 velocity=0 time=1
197.60816478125 note_on channel=0 note=55 velocity=68 time=1
197.60816478125 note_on channel=2 note=59 velocity=86 time=0
197.61333006249998 note_on channel=0 note=47 velocity=56 time=1
197.61333006249998 note_on channel=2 note=50 velocity=42 time=0
197.623660625 note_off channel=0 note=43 velocity=0 time=2
197.623660625 note_on channel=3 note=69 velocity=95 time=0
197.62882590625 note_on channel=0 note=43 velocity=46 time=1
197.62882590625 note_off channel=9 note=42 velocity=0 time=0
197.80444546875 note_off channel=2 note=67 velocity=0 time=34
197.80961075000002 note_off channel=2 note=59 velocity=0 time=1
197.830271875 note_off channel=0 note=47 velocity=0 time=4
197.830271875 note_off channel=2 note=50 velocity=0 time=0
197.83543715625 note_off channel=0 note=67 velocity=0 time=1
197.83543715625 note_off channel=1 note=42 velocity=0 time=0
197.83543715625 note_on channel=1 note=43 velocity=111 time=0
197.83543715625 note_off channel=4 note=74 velocity=0 time=0
197.83543715625 note_on channel=4 note=72 velocity=75 time=0
197.84060243750002 note_off channel=2 note=55 velocity=0 time=1
197.84576771874998 note_off channel=0 note=55 velocity=0 time=1
197.84576771874998 note_on channel=0 note=47 velocity=50 time=0
197.84576771874998 note_on channel=2 note=50 velocity=58 time=0
197.850933 note_on channel=0 note=55 velocity=70 time=1
197.850933 note_on channel=2 note=55 velocity=82 time=0
197.850933 note_on channel=9 note=40 velocity=89 time=0
197.850933 note_on channel=9 note=42 velocity=62 time=0
197.85609828125 note_off channel=0 note=59 velocity=0 time=1
197.85609828125 note_on channel=2 note=59 velocity=88 time=0
197.8612635625 note_on channel=0 note=59 velocity=73 time=1
197.8612635625 note_on channel=0 note=67 velocity=69 time=0
197.8612635625 note_on channel=2 note=67 velocity=82 time=0
197.86642884375001 note_off channel=3 note=69 velocity=0 time=1
197.871594125 note_on channel=3 note=67 velocity=91 time=1
197.8819246875 note_off channel=9 note=42 velocity=0 time=2
197.8819246875 note_off channel=9 note=40 velocity=0 time=0
198.00072615624998 note_off channel=1 note=43 velocity=0 time=23
198.05754425 note_off channel=0 note=55 velocity=0 time=11
198.06270953125 note_off channel=0 note=50 velocity=0 time=1
198.0678748125 note_off channel=0 note=67 velocity=0 time=1
198.0678748125 note_off channel=2 note=67 velocity=0 time=0
198.07304009375002 note_off channel=4 note=72 velocity=0 time=1
198.07304009375002 note_on channel=4 note=71 velocity=69 time=0
198.0885359375 note_off channel=0 note=47 velocity=0 time=3
198.0885359375 note_off channel=0 note=59 velocity=0 time=0
198.0885359375 note_on channel=0 note=67 velocity=56 time=0
198.0885359375 note_off channel=2 note=59 velocity=0 time=0
198.09370121875 note_on channel=0 note=59 velocity=65 time=1
198.09370121875 note_on channel=2 note=67 velocity=75 time=0
198.0988665 note_off channel=2 note=55 velocity=0 time=1
198.0988665 note_on channel=2 note=59 velocity=76 time=0
198.10403178125 note_on channel=0 note=55 velocity=52 time=1
198.10403178125 note_on channel=2 note=55 velocity=60 time=0
198.10403178125 note_on channel=9 note=42 velocity=62 time=0
198.1091970625 note_on channel=0 note=50 velocity=26 time=1
198.11952762500002 note_on channel=0 note=47 velocity=54 time=2
198.12469290625 note_off channel=3 note=67 velocity=0 time=1
198.13502346875 note_off channel=9 note=42 velocity=0 time=2
198.1918415625 note_off channel=2 note=67 velocity=0 time=11
198.1918415625 note_on channel=3 note=71 velocity=95 time=0
198.2125026875 note_off channel=2 note=55 velocity=0 time=4
198.21766796875 note_off channel=0 note=47 velocity=0 time=1
198.23316381249998 note_off channel=0 note=43 velocity=0 time=3
198.243494375 note_off channel=2 note=50 velocity=0 time=2
198.284816625 note_off channel=2 note=59 velocity=0 time=8
198.3158083125 note_off channel=0 note=67 velocity=0 time=6
198.3364694375 note_on channel=1 note=45 velocity=111 time=4
198.3364694375 note_off channel=4 note=71 velocity=0 time=0
198.3364694375 note_on channel=4 note=74 velocity=65 time=0
198.34163471875 note_on channel=2 note=45 velocity=80 time=1
198.34163471875 note_on channel=9 note=35 velocity=103 time=0
198.367461125 note_off channel=0 note=55 velocity=0 time=5
198.367461125 note_on channel=2 note=57 velocity=52 time=0
198.367461125 note_on channel=2 note=52 velocity=75 time=0
198.37262640625 note_off channel=9 note=35 velocity=0 time=1
198.3777916875 note_off channel=0 note=59 velocity=0 time=1
198.3984528125 note_off channel=0 note=50 velocity=0 time=4
198.4397750625 note_off channel=3 note=71 velocity=0 time=8
198.55857653125 note_off channel=2 note=57 velocity=0 time=23
198.56890709375 note_off channel=2 note=45 velocity=0 time=2
198.56890709375 note_off channel=2 note=52 velocity=0 time=0
198.57923765625 note_on channel=0 note=45 velocity=43 time=2
198.58440293750002 note_on channel=2 note=45 velocity=68 time=1
198.58440293750002 note_on channel=3 note=69 velocity=88 time=0
198.5947335 note_on channel=2 note=52 velocity=69 time=2
198.59989878125 note_on channel=0 note=52 velocity=24 time=1
198.6050640625 note_on channel=2 note=57 velocity=65 time=1
198.61022934375 note_on channel=0 note=57 velocity=33 time=1
198.61022934375 note_off channel=4 note=74 velocity=0 time=0
198.61022934375 note_on channel=4 note=73 velocity=38 time=0
198.81684059375002 note_off channel=2 note=45 velocity=0 time=40
198.82717115625 note_off channel=2 note=52 velocity=0 time=2
198.8323364375 note_off channel=0 note=57 velocity=0 time=1
198.8323364375 note_off channel=0 note=52 velocity=0 time=0
198.8323364375 note_off channel=2 note=57 velocity=0 time=0
198.8323364375 note_on channel=2 note=45 velocity=76 time=0
198.83750171875 note_on channel=0 note=52 velocity=38 time=1
198.83750171875 note_on channel=2 note=52 velocity=78 time=0
198.842667 note_on channel=2 note=57 velocity=81 time=1
198.84783228125002 note_on channel=0 note=57 velocity=43 time=1
199.0596088125 note_off channel=2 note=45 velocity=0 time=41
199.069939375 note_off channel=0 note=45 velocity=0 time=2
199.069939375 note_off channel=2 note=57 velocity=0 time=0
199.07510465625 note_off channel=0 note=57 velocity=0 time=1
199.07510465625 note_on channel=0 note=45 velocity=46 time=0
199.07510465625 note_off channel=2 note=52 velocity=0 time=0
199.07510465625 note_on channel=2 note=45 velocity=80 time=0
199.08026993750002 note_on channel=2 note=52 velocity=83 time=1
199.08543521874998 note_on channel=0 note=57 velocity=58 time=1
199.09576578125 note_on channel=2 note=57 velocity=80 time=2
199.1009310625 note_on channel=0 note=61 velocity=45 time=1
199.29721175 note_off channel=0 note=45 velocity=0 time=38
199.30237703125 note_off channel=2 note=57 velocity=0 time=1
199.3075423125 note_off channel=0 note=52 velocity=0 time=1
199.31270759375002 note_off channel=2 note=45 velocity=0 time=1
199.31787287499998 note_off channel=0 note=57 velocity=0 time=1
199.32303815625 note_off channel=0 note=61 velocity=0 time=1
199.32303815625 note_on channel=0 note=52 velocity=41 time=0
199.32303815625 note_off channel=2 note=52 velocity=0 time=0
199.32303815625 note_on channel=2 note=45 velocity=92 time=0
199.3282034375 note_on channel=0 note=57 velocity=65 time=1
199.3282034375 note_on channel=2 note=52 velocity=82 time=0
199.33336871875 note_on channel=0 note=61 velocity=75 time=1
199.33336871875 note_on channel=2 note=57 velocity=86 time=0
199.52448412500001 note_off channel=0 note=52 velocity=0 time=37
199.56064109375 note_off channel=2 note=57 velocity=0 time=7
199.565806375 note_off channel=2 note=52 velocity=0 time=1
199.565806375 note_off channel=2 note=45 velocity=0 time=0
199.57097165625 note_off channel=0 note=57 velocity=0 time=1
199.57097165625 note_on channel=0 note=52 velocity=45 time=0
199.57097165625 note_on channel=2 note=45 velocity=87 time=0
199.57613693750002 note_off channel=0 note=61 velocity=0 time=1
199.57613693750002 note_on channel=0 note=57 velocity=57 time=0
199.57613693750002 note_on channel=2 note=52 velocity=88 time=0
199.58130221874998 note_on channel=0 note=61 velocity=43 time=1
199.58130221874998 note_on channel=2 note=57 velocity=88 time=0
199.65361615625002 note_off channel=3 note=69 velocity=0 time=14
199.772417625 note_off channel=0 note=52 velocity=0 time=23
199.78791346875 note_off channel=0 note=61 velocity=0 time=3
199.8034093125 note_off channel=2 note=57 velocity=0 time=3
199.80857459375002 note_off channel=2 note=45 velocity=0 time=1
199.81373987499998 note_off channel=2 note=52 velocity=0 time=1
199.81373987499998 note_on channel=2 note=45 velocity=100 time=0
199.81890515625 note_on channel=0 note=45 velocity=46 time=1
199.81890515625 note_on channel=0 note=52 velocity=55 time=0
199.81890515625 note_on channel=2 note=52 velocity=95 time=0
199.8240704375 note_off channel=0 note=57 velocity=0 time=1
199.82923571875 note_on channel=0 note=57 velocity=56 time=1
199.82923571875 note_on channel=2 note=57 velocity=92 time=0
199.834401 note_on channel=0 note=61 velocity=38 time=1
199.8447315625 note_off channel=1 note=45 velocity=0 time=2
199.93254134375002 note_off channel=4 note=73 velocity=0 time=17
200.05650809375 note_off channel=2 note=45 velocity=0 time=24
200.061673375 note_off channel=2 note=52 velocity=0 time=1
200.061673375 note_on channel=2 note=45 velocity=101 time=0
200.06683865625 note_off channel=0 note=52 velocity=0 time=1
200.06683865625 note_off channel=2 note=57 velocity=0 time=0
200.06683865625 note_on channel=2 note=52 velocity=92 time=0
200.0720039375 note_off channel=0 note=57 velocity=0 time=1
200.0720039375 note_on channel=0 note=52 velocity=51 time=0
200.0720039375 note_on channel=2 note=57 velocity=88 time=0
200.07716921875 note_off channel=0 note=61 velocity=0 time=1
200.07716921875 note_on channel=0 note=57 velocity=58 time=0
200.08749978125002 note_on channel=0 note=61 velocity=51 time=2
200.28378046875 note_off channel=0 note=45 velocity=0 time=38
200.2992763125 note_off channel=2 note=45 velocity=0 time=3
200.30444159375 note_off channel=0 note=57 velocity=0 time=1
200.30444159375 note_off channel=2 note=52 velocity=0 time=0
200.30444159375 note_off channel=2 note=57 velocity=0 time=0
200.309606875 note_on channel=0 note=45 velocity=42 time=1
200.309606875 note_on channel=1 note=45 velocity=100 time=0
200.309606875 note_on channel=2 note=45 velocity=102 time=0
200.309606875 note_on channel=2 note=52 velocity=98 time=0
200.309606875 note_on channel=6 note=57 velocity=67 time=0
200.31477215625 note_off channel=0 note=61 velocity=0 time=1
200.31993743750002 note_on channel=0 note=57 velocity=64 time=1
200.32510271875 note_on channel=0 note=61 velocity=67 time=1
200.32510271875 note_on channel=2 note=57 velocity=102 time=0
200.32510271875 note_on channel=9 note=40 velocity=60 time=0
200.35609440624998 note_off channel=9 note=40 velocity=0 time=6
200.4439041875 note_off channel=6 note=57 velocity=0 time=17
200.5265486875 note_off channel=0 note=57 velocity=0 time=16
200.53171396875 note_off channel=2 note=52 velocity=0 time=1
200.5472098125 note_on channel=6 note=57 velocity=56 time=3
200.55237509375002 note_off channel=0 note=45 velocity=0 time=1
200.557540375 note_off channel=1 note=45 velocity=0 time=1
200.557540375 note_off channel=2 note=45 velocity=0 time=0
200.56270565625 note_on channel=1 note=45 velocity=97 time=1
200.56270565625 note_on channel=2 note=45 velocity=94 time=0
200.56270565625 note_on channel=2 note=52 velocity=88 time=0
200.5678709375 note_off channel=2 note=57 velocity=0 time=1
200.57303621875 note_on channel=0 note=57 velocity=46 time=1
200.57303621875 note_on channel=0 note=45 velocity=58 time=0
200.5782015 note_on channel=2 note=57 velocity=89 time=1
200.5782015 note_on channel=9 note=40 velocity=64 time=0
200.6091931875 note_off channel=9 note=40 velocity=0 time=6
200.67634184375 note_off channel=6 note=57 velocity=0 time=13
200.7951433125 note_off channel=0 note=45 velocity=0 time=23
200.7951433125 note_on channel=6 note=57 velocity=59 time=0
200.80030859375 note_off channel=2 note=45 velocity=0 time=1
200.80030859375 note_off channel=2 note=52 velocity=0 time=0
200.805473875 note_off channel=0 note=52 velocity=0 time=1
200.805473875 note_off channel=2 note=57 velocity=0 time=0
200.81063915625 note_off channel=0 note=57 velocity=0 time=1
200.81063915625 note_on channel=0 note=45 velocity=58 time=0
200.81063915625 note_on channel=0 note=52 velocity=69 time=0
200.81063915625 note_off channel=1 note=45 velocity=0 time=0
200.81580443750002 note_on channel=0 note=57 velocity=72 time=1
200.81580443750002 note_on channel=1 note=45 velocity=102 time=0
200.81580443750002 note_on channel=2 note=45 velocity=95 time=0
200.82096971874998 note_off channel=0 note=61 velocity=0 time=1
200.82096971874998 note_on channel=2 note=52 velocity=90 time=0
200.826135 note_on channel=2 note=57 velocity=92 time=1
200.83130028125 note_on channel=9 note=40 velocity=69 time=1
200.84163084375 note_on channel=0 note=61 velocity=51 time=2
200.86229196875001 note_off channel=9 note=40 velocity=0 time=4
200.94493646875 note_off channel=6 note=57 velocity=0 time=16
201.0224156875 note_off channel=2 note=52 velocity=0 time=15
201.05340737499998 note_off channel=0 note=52 velocity=0 time=6
201.0637379375 note_off channel=0 note=57 velocity=0 time=2
201.0637379375 note_off channel=1 note=45 velocity=0 time=0
201.0637379375 note_off channel=2 note=45 velocity=0 time=0
201.0637379375 note_on channel=6 note=57 velocity=76 time=0
201.06890321875 note_on channel=1 note=45 velocity=111 time=1
201.06890321875 note_on channel=2 note=45 velocity=79 time=0
201.0740685 note_off channel=2 note=57 velocity=0 time=1
201.0740685 note_on channel=2 note=52 velocity=78 time=0
201.0740685 note_on channel=9 note=40 velocity=79 time=0
201.07923378125 note_on channel=0 note=52 velocity=45 time=1
201.07923378125 note_on channel=2 note=57 velocity=82 time=0
201.08439906249998 note_on channel=0 note=57 velocity=62 time=1
201.1050601875 note_off channel=9 note=40 velocity=0 time=4
201.177374125 note_off channel=6 note=57 velocity=0 time=14
201.26001862500001 note_off channel=0 note=45 velocity=0 time=16
201.27551446875 note_off channel=2 note=52 velocity=0 time=3
201.31167143750002 note_off channel=1 note=45 velocity=0 time=7
201.31683671874998 note_off channel=0 note=52 velocity=0 time=1
201.31683671874998 note_off channel=0 note=57 velocity=0 time=0
201.31683671874998 note_on channel=0 note=45 velocity=55 time=0
201.31683671874998 note_on channel=1 note=45 velocity=113 time=0
201.31683671874998 note_on channel=6 note=57 velocity=102 time=0
201.322002 note_on channel=0 note=52 velocity=62 time=1
201.322002 note_off channel=2 note=57 velocity=0 time=0
201.322002 note_on channel=9 note=40 velocity=79 time=0
201.32716728125 note_on channel=0 note=57 velocity=58 time=1
201.32716728125 note_on channel=2 note=52 velocity=76 time=0
201.33749784375001 note_on channel=2 note=57 velocity=84 time=2
201.3529936875 note_off channel=9 note=40 velocity=0 time=3
201.5182826875 note_off channel=2 note=52 velocity=0 time=32
201.52344796875 note_off channel=0 note=61 velocity=0 time=1
201.52861325 note_on channel=3 note=64 velocity=98 time=1
201.54927437499998 note_off channel=2 note=57 velocity=0 time=4
201.55443965625 note_off channel=1 note=45 velocity=0 time=1
201.55443965625 note_on channel=1 note=43 velocity=115 time=0
201.5596049375 note_on channel=0 note=61 velocity=76 time=1
201.56477021875 note_off channel=0 note=45 velocity=0 time=1
201.56477021875 note_off channel=0 note=57 velocity=0 time=0
201.56477021875 note_off channel=2 note=45 velocity=0 time=0
201.56477021875 note_on channel=9 note=40 velocity=89 time=0
201.5699355 note_on channel=0 note=57 velocity=72 time=1
201.5699355 note_on channel=6 note=55 velocity=108 time=0
201.57510078125 note_off channel=0 note=52 velocity=0 time=1
201.57510078125 note_on channel=2 note=55 velocity=83 time=0
201.5802660625 note_on channel=0 note=52 velocity=57 time=1
201.58543134375 note_on channel=0 note=45 velocity=74 time=1
201.59576190625 note_off channel=9 note=40 velocity=0 time=2
201.62158831250002 note_off channel=6 note=57 velocity=0 time=5
201.77138146875 note_off channel=2 note=55 velocity=0 time=29
201.80237315625 note_off channel=0 note=45 velocity=0 time=6
201.80237315625 note_off channel=1 note=43 velocity=0 time=0
201.80237315625 note_on channel=1 note=42 velocity=109 time=0
201.80237315625 note_off channel=3 note=64 velocity=0 time=0
201.80237315625 note_on channel=3 note=67 velocity=92 time=0
201.8075384375 note_off channel=0 note=61 velocity=0 time=1
201.8075384375 note_off channel=0 note=52 velocity=0 time=0
201.8075384375 note_on channel=6 note=54 velocity=97 time=0
201.817869 note_off channel=0 note=57 velocity=0 time=2
201.817869 note_on channel=0 note=52 velocity=49 time=0
201.817869 note_on channel=2 note=54 velocity=90 time=0
201.817869 note_on channel=9 note=40 velocity=93 time=0
201.82303428125002 note_on channel=0 note=45 velocity=55 time=1
201.8281995625 note_on channel=0 note=57 velocity=70 time=1
201.8281995625 note_on channel=0 note=61 velocity=62 time=0
201.8488606875 note_off channel=9 note=40 velocity=0 time=4
201.85919124999998 note_off channel=6 note=55 velocity=0 time=2
202.02448025 note_off channel=0 note=61 velocity=0 time=32
202.045141375 note_off channel=1 note=42 velocity=0 time=4
202.045141375 note_on channel=1 note=40 velocity=115 time=0
202.05030665625 note_on channel=6 note=52 velocity=95 time=1
202.05547193750002 note_off channel=3 note=67 velocity=0 time=1
202.05547193750002 note_on channel=3 note=66 velocity=93 time=0
202.06063721875 note_off channel=0 note=57 velocity=0 time=1
202.06063721875 note_on channel=0 note=61 velocity=74 time=0
202.06063721875 note_off channel=2 note=54 velocity=0 time=0
202.06063721875 note_on channel=9 note=40 velocity=94 time=0
202.0658025 note_off channel=0 note=52 velocity=0 time=1
202.07096778125 note_on channel=0 note=57 velocity=66 time=1
202.07096778125 note_on channel=2 note=52 velocity=94 time=0
202.0761330625 note_on channel=0 note=52 velocity=54 time=1
202.0761330625 note_off channel=6 note=54 velocity=0 time=0
202.08129834375 note_off channel=0 note=45 velocity=0 time=1
202.09162890624998 note_off channel=9 note=40 velocity=0 time=2
202.1587775625 note_off channel=0 note=52 velocity=0 time=13
202.19493453125 note_off channel=2 note=52 velocity=0 time=7
202.20526509375 note_off channel=0 note=57 velocity=0 time=2
202.2207609375 note_off channel=0 note=61 velocity=0 time=3
202.23625678125 note_off channel=3 note=66 velocity=0 time=3
202.26724846875 note_off channel=1 note=40 velocity=0 time=6
202.3034054375 note_on channel=6 note=50 velocity=92 time=7
202.3034054375 note_on channel=9 note=42 velocity=69 time=0
202.30857071875 note_off channel=6 note=52 velocity=0 time=1
202.313736 note_on channel=1 note=38 velocity=111 time=1
202.313736 note_on channel=2 note=60 velocity=80 time=0
202.313736 note_on channel=2 note=50 velocity=51 time=0
202.313736 note_on channel=9 note=35 velocity=107 time=0
202.32406656249998 note_on channel=0 note=50 velocity=51 time=2
202.32406656249998 note_on channel=0 note=57 velocity=60 time=0
202.32923184375 note_on channel=2 note=57 velocity=72 time=1
202.334397125 note_on channel=0 note=60 velocity=56 time=1
202.334397125 note_off channel=9 note=42 velocity=0 time=0
202.3447276875 note_on channel=2 note=66 velocity=61 time=2
202.3447276875 note_off channel=9 note=35 velocity=0 time=0
202.52551253125 note_off channel=0 note=50 velocity=0 time=35
202.5306778125 note_off channel=2 note=57 velocity=0 time=1
202.53584309375 note_off channel=2 note=66 velocity=0 time=1
202.541008375 note_off channel=2 note=60 velocity=0 time=1
202.55133893750002 note_off channel=0 note=60 velocity=0 time=2
202.55133893750002 note_on channel=9 note=42 velocity=57 time=0
202.55650421874998 note_on channel=3 note=69 velocity=101 time=1
202.55650421874998 note_on channel=4 note=76 velocity=60 time=0
202.55650421874998 note_on channel=4 note=72 velocity=55 time=0
202.5616695 note_on channel=0 note=66 velocity=79 time=1
202.56683478125 note_off channel=0 note=57 velocity=0 time=1
202.56683478125 note_on channel=0 note=60 velocity=82 time=0
202.56683478125 note_on channel=2 note=66 velocity=86 time=0
202.5720000625 note_on channel=0 note=57 velocity=56 time=1
202.57716534375 note_on channel=2 note=57 velocity=60 time=1
202.57716534375 note_on channel=2 note=60 velocity=82 time=0
202.582330625 note_on channel=0 note=50 velocity=47 time=1
202.582330625 note_off channel=9 note=42 velocity=0 time=0
202.7579501875 note_off channel=4 note=76 velocity=0 time=34
202.76828075 note_off channel=2 note=66 velocity=0 time=2
202.7786113125 note_off channel=4 note=72 velocity=0 time=2
202.79410715625 note_on channel=4 note=72 velocity=43 time=3
202.79410715625 note_on channel=4 note=76 velocity=53 time=0
202.7992724375 note_off channel=2 note=57 velocity=0 time=1
202.80443771875 note_off channel=3 note=69 velocity=0 time=1
202.80443771875 note_on channel=3 note=71 velocity=100 time=0
202.80443771875 note_on channel=9 note=42 velocity=66 time=0
202.80443771875 note_on channel=9 note=40 velocity=86 time=0
202.809603 note_off channel=0 note=60 velocity=0 time=1
202.809603 note_off channel=2 note=50 velocity=0 time=0
202.809603 note_off channel=2 note=60 velocity=0 time=0
202.81476828125 note_on channel=0 note=60 velocity=58 time=1
202.81476828125 note_on channel=2 note=50 velocity=55 time=0
202.81993356249998 note_on channel=2 note=60 velocity=81 time=1
202.81993356249998 note_on channel=2 note=57 velocity=74 time=0
202.82509884375 note_on channel=2 note=66 velocity=63 time=1
202.83542940625 note_off channel=9 note=40 velocity=0 time=2
202.83542940625 note_off channel=9 note=42 velocity=0 time=0
202.97489199999998 note_off channel=4 note=76 velocity=0 time=27
202.97489199999998 note_off channel=4 note=72 velocity=0 time=0
203.04204065625 note_off channel=0 note=66 velocity=0 time=13
203.04204065625 note_off channel=1 note=38 velocity=0 time=0
203.04204065625 note_on channel=4 note=76 velocity=55 time=0
203.04204065625 note_on channel=4 note=72 velocity=48 time=0
203.04720593750002 note_off channel=0 note=60 velocity=0 time=1
203.04720593750002 note_off channel=2 note=66 velocity=0 time=0
203.04720593750002 note_off channel=3 note=71 velocity=0 time=0
203.04720593750002 note_on channel=3 note=72 velocity=96 time=0
203.04720593750002 note_on channel=9 note=46 velocity=54 time=0
203.05237121874998 note_off channel=0 note=57 velocity=0 time=1
203.05237121874998 note_on channel=0 note=66 velocity=84 time=0
203.05237121874998 note_on channel=9 note=35 velocity=105 time=0
203.0575365 note_off channel=0 note=50 velocity=0 time=1
203.0575365 note_on channel=0 note=60 velocity=82 time=0
203.0575365 note_off channel=2 note=60 velocity=0 time=0
203.06270178125 note_on channel=0 note=57 velocity=74 time=1
203.06270178125 note_on channel=1 note=36 velocity=109 time=0
203.06270178125 note_on channel=2 note=60 velocity=80 time=0
203.0678670625 note_on channel=2 note=66 velocity=86 time=1
203.07303234375001 note_on channel=0 note=50 velocity=53 time=1
203.078197625 note_on channel=0 note=45 velocity=58 time=1
203.078197625 note_off channel=9 note=46 velocity=0 time=0
203.08336290625 note_off channel=9 note=35 velocity=0 time=1
203.27964359375002 note_off channel=3 note=72 velocity=0 time=38
203.28480887499998 note_off channel=4 note=72 velocity=0 time=1
203.28480887499998 note_off channel=4 note=76 velocity=0 time=0
203.28997415625 note_on channel=3 note=74 velocity=95 time=1
203.28997415625 note_on channel=4 note=78 velocity=53 time=0
203.2951394375 note_on channel=4 note=74 velocity=59 time=1
203.30030471875 note_on channel=9 note=42 velocity=70 time=1
203.32096584375 note_off channel=1 note=36 velocity=0 time=4
203.33129640625 note_off channel=9 note=42 velocity=0 time=2
203.47592428125 note_off channel=4 note=74 velocity=0 time=28
203.51208125000002 note_off channel=2 note=50 velocity=0 time=7
203.51208125000002 note_off channel=4 note=78 velocity=0 time=0
203.53790765625 note_on channel=1 note=35 velocity=107 time=5
203.53790765625 note_off channel=3 note=74 velocity=0 time=0
203.53790765625 note_on channel=3 note=69 velocity=97 time=0
203.53790765625 note_on channel=4 note=74 velocity=67 time=0
203.53790765625 note_on channel=4 note=78 velocity=56 time=0
203.5430729375 note_off channel=0 note=66 velocity=0 time=1
203.5430729375 note_off channel=2 note=66 velocity=0 time=0
203.54823821875 note_off channel=0 note=60 velocity=0 time=1
203.54823821875 note_on channel=0 note=66 velocity=84 time=0
203.54823821875 note_off channel=2 note=57 velocity=0 time=0
203.54823821875 note_off channel=2 note=60 velocity=0 time=0
203.54823821875 note_on channel=9 note=42 velocity=59 time=0
203.5534035 note_off channel=0 note=57 velocity=0 time=1
203.5534035 note_on channel=0 note=60 velocity=82 time=0
203.5534035 note_on channel=2 note=66 velocity=86 time=0
203.55856878125002 note_off channel=0 note=50 velocity=0 time=1
203.55856878125002 note_on channel=0 note=57 velocity=78 time=0
203.55856878125002 note_on channel=2 note=60 velocity=82 time=0
203.55856878125002 note_on channel=2 note=57 velocity=68 time=0
203.5637340625 note_on channel=2 note=50 velocity=29 time=1
203.56889934375 note_on channel=0 note=50 velocity=58 time=1
203.57922990625 note_off channel=9 note=42 velocity=0 time=2
203.74968418749998 note_off channel=6 note=50 velocity=0 time=33
203.75484946875 note_off channel=0 note=45 velocity=0 time=1
203.77551059375 note_off channel=0 note=50 velocity=0 time=4
203.780675875 note_off channel=2 note=57 velocity=0 time=1
203.78584115625 note_off channel=1 note=35 velocity=0 time=1
203.79100643750002 note_off channel=0 note=66 velocity=0 time=1
203.79100643750002 note_off channel=0 note=57 velocity=0 time=0
203.79100643750002 note_off channel=2 note=60 velocity=0 time=0
203.79617171875 note_on channel=0 note=50 velocity=57 time=1
203.79617171875 note_on channel=1 note=33 velocity=109 time=0
203.79617171875 note_on channel=2 note=57 velocity=62 time=0
203.79617171875 note_on channel=2 note=60 velocity=83 time=0
203.79617171875 note_on channel=9 note=40 velocity=89 time=0
203.79617171875 note_on channel=9 note=42 velocity=61 time=0
203.801337 note_off channel=0 note=60 velocity=0 time=1
203.801337 note_on channel=0 note=57 velocity=71 time=0
203.801337 note_off channel=2 note=66 velocity=0 time=0
203.80650228125 note_on channel=0 note=60 velocity=79 time=1
203.80650228125 note_on channel=2 note=66 velocity=86 time=0
203.8116675625 note_on channel=0 note=66 velocity=75 time=1
203.82716340624998 note_off channel=9 note=42 velocity=0 time=3
203.82716340624998 note_off channel=9 note=40 velocity=0 time=0
203.8323286875 note_off channel=3 note=69 velocity=0 time=1
204.00278296875 note_off channel=0 note=57 velocity=0 time=33
204.01311353124999 note_off channel=1 note=33 velocity=0 time=2
204.02344409375002 note_off channel=2 note=66 velocity=0 time=2
204.028609375 note_off channel=0 note=66 velocity=0 time=1
204.028609375 note_off channel=4 note=78 velocity=0 time=0
204.028609375 note_off channel=4 note=74 velocity=0 time=0
204.03377465625 note_off channel=2 note=60 velocity=0 time=1
204.03377465625 note_on channel=4 note=74 velocity=48 time=0
204.0389399375 note_on channel=2 note=66 velocity=84 time=1
204.0389399375 note_on channel=4 note=71 velocity=43 time=0
204.0389399375 note_on channel=4 note=79 velocity=54 time=0
204.04410521875 note_on channel=0 note=66 velocity=47 time=1
204.04410521875 note_on channel=2 note=60 velocity=79 time=0
204.04410521875 note_on channel=3 note=71 velocity=100 time=0
204.04410521875 note_on channel=9 note=42 velocity=58 time=0
204.05960106249998 note_on channel=0 note=57 velocity=24 time=3
204.07509690625 note_off channel=9 note=42 velocity=0 time=3
204.10092331250002 note_off channel=0 note=57 velocity=0 time=5
204.111253875 note_off channel=0 note=60 velocity=0 time=2
204.13708028124998 note_off channel=0 note=66 velocity=0 time=5
204.2042289375 note_off channel=2 note=57 velocity=0 time=13
204.2248900625 note_off channel=2 note=50 velocity=0 time=4
204.24038590625 note_off channel=2 note=66 velocity=0 time=3
204.24555118749998 note_off channel=0 note=50 velocity=0 time=1
204.24555118749998 note_off channel=2 note=60 velocity=0 time=0
204.28687343750002 note_on channel=0 note=47 velocity=74 time=8
204.28687343750002 note_on channel=9 note=42 velocity=64 time=0
204.29203871874998 note_on channel=0 note=43 velocity=61 time=1
204.297204 note_on channel=1 note=31 velocity=107 time=1
204.297204 note_on channel=2 note=50 velocity=74 time=0
204.30236928125 note_on channel=0 note=55 velocity=69 time=1
204.30236928125 pitchwheel channel=7 pitch=0 time=0
204.3075345625 note_on channel=0 note=50 velocity=37 time=1
204.3075345625 note_on channel=0 note=67 velocity=66 time=0
204.3075345625 note_on channel=2 note=55 velocity=83 time=0
204.3075345625 note_on channel=6 note=73 velocity=78 time=0
204.3075345625 pitchwheel channel=6 pitch=704 time=0
204.3075345625 note_on channel=7 note=70 velocity=58 time=0
204.3075345625 note_on channel=9 note=35 velocity=104 time=0
204.31269984375 note_on channel=0 note=59 velocity=69 time=1
204.31269984375 note_on channel=2 note=59 velocity=88 time=0
204.31269984375 pitchwheel channel=6 pitch=96 time=0
204.31269984375 pitchwheel channel=7 pitch=32 time=0
204.317865125 note_on channel=2 note=67 velocity=80 time=1
204.317865125 pitchwheel channel=7 pitch=128 time=0
204.317865125 note_off channel=9 note=42 velocity=0 time=0
204.32303040624998 pitchwheel channel=6 pitch=0 time=1
204.33852625 pitchwheel channel=7 pitch=96 time=3
204.33852625 note_off channel=9 note=35 velocity=0 time=0
204.3488568125 pitchwheel channel=6 pitch=-32 time=2
204.36435265625002 pitchwheel channel=6 pitch=-192 time=3
204.36951793749998 pitchwheel channel=7 pitch=64 time=1
204.38501378125 pitchwheel channel=6 pitch=-320 time=3
204.38501378125 pitchwheel channel=7 pitch=0 time=0
204.40050962499998 pitchwheel channel=6 pitch=-256 time=3
204.40050962499998 pitchwheel channel=7 pitch=4128 time=0
204.41600546875 pitchwheel channel=6 pitch=3392 time=3
204.4315013125 pitchwheel channel=6 pitch=3520 time=3
204.44699715624998 pitchwheel channel=6 pitch=3648 time=3
204.462493 pitchwheel channel=6 pitch=3808 time=3
204.46765828125 pitchwheel channel=7 pitch=4096 time=1
204.47798884374998 pitchwheel channel=6 pitch=3968 time=2
204.47798884374998 pitchwheel channel=7 pitch=4032 time=0
204.49864996875 pitchwheel channel=6 pitch=4000 time=4
204.49864996875 pitchwheel channel=7 pitch=3968 time=0
204.50898053125 note_off channel=0 note=55 velocity=0 time=2
204.50898053125 pitchwheel channel=7 pitch=3936 time=0
204.52447637499998 note_off channel=0 note=67 velocity=0 time=3
204.52447637499998 pitchwheel channel=6 pitch=3872 time=0
204.52964165625 pitchwheel channel=7 pitch=3904 time=1
204.5348069375 note_on channel=9 note=42 velocity=61 time=1
204.53997221875 note_off channel=0 note=50 velocity=0 time=1
204.53997221875 note_off channel=0 note=59 velocity=0 time=0
204.53997221875 note_on channel=0 note=67 velocity=82 time=0
204.53997221875 note_off channel=2 note=67 velocity=0 time=0
204.53997221875 note_off channel=6 note=73 velocity=0 time=0
204.53997221875 pitchwheel channel=7 pitch=3936 time=0
204.5451375 note_off channel=0 note=43 velocity=0 time=1
204.5451375 note_off channel=0 note=47 velocity=0 time=0
204.55030278125 note_on channel=0 note=59 velocity=76 time=1
204.55546806249998 note_on channel=0 note=55 velocity=67 time=1
204.55546806249998 note_off channel=2 note=59 velocity=0 time=0
204.55546806249998 note_on channel=2 note=67 velocity=82 time=0
204.56063334375 note_on channel=2 note=59 velocity=80 time=1
204.56063334375 pitchwheel channel=7 pitch=3968 time=0
204.565798625 note_off channel=9 note=42 velocity=0 time=1
204.57096390625 note_on channel=0 note=50 velocity=57 time=1
204.57096390625 note_on channel=0 note=47 velocity=72 time=0
204.57096390625 note_off channel=7 note=70 velocity=0 time=0
204.57096390625 pitchwheel channel=7 pitch=0 time=0
204.57096390625 note_on channel=7 note=74 velocity=63 time=0
204.5761291875 note_on channel=0 note=43 velocity=51 time=1
204.5761291875 pitchwheel channel=6 pitch=0 time=0
204.58645975 note_on channel=6 note=76 velocity=63 time=2
204.58645975 pitchwheel channel=6 pitch=-128 time=0
204.59162503125 pitchwheel channel=6 pitch=0 time=1
204.62261671875 note_off channel=3 note=71 velocity=0 time=6
204.627782 pitchwheel channel=7 pitch=128 time=1
204.6381125625 pitchwheel channel=6 pitch=64 time=2
204.64327784375 pitchwheel channel=7 pitch=160 time=1
204.648443125 pitchwheel channel=6 pitch=32 time=1
204.6587736875 pitchwheel channel=7 pitch=192 time=2
204.6794348125 pitchwheel channel=6 pitch=0 time=4
204.689765375 pitchwheel channel=7 pitch=256 time=2
204.69493065625 pitchwheel channel=6 pitch=-64 time=1
204.70526121875002 pitchwheel channel=7 pitch=192 time=2
204.71042649999998 pitchwheel channel=6 pitch=-96 time=1
204.72592234375 pitchwheel channel=6 pitch=-128 time=3
204.7414181875 pitchwheel channel=6 pitch=-64 time=3
204.7414181875 pitchwheel channel=7 pitch=96 time=0
204.75174875000002 note_off channel=2 note=50 velocity=0 time=2
204.75174875000002 pitchwheel channel=7 pitch=64 time=0
204.75691403125 note_off channel=2 note=67 velocity=0 time=1
204.76724459375 pitchwheel channel=7 pitch=128 time=2
204.772409875 note_off channel=0 note=43 velocity=0 time=1
204.77757515625 note_off channel=7 note=74 velocity=0 time=1
204.78274043750002 note_off channel=0 note=67 velocity=0 time=1
204.78274043750002 note_off channel=2 note=55 velocity=0 time=0
204.78790571874998 pitchwheel channel=6 pitch=-448 time=1
204.78790571874998 note_on channel=9 note=42 velocity=59 time=0
204.793071 note_off channel=2 note=59 velocity=0 time=1
204.793071 note_on channel=2 note=50 velocity=38 time=0
204.793071 note_off channel=4 note=71 velocity=0 time=0
204.793071 note_on channel=9 note=40 velocity=86 time=0
204.79823628125 note_off channel=0 note=59 velocity=0 time=1
204.79823628125 note_on channel=0 note=43 velocity=44 time=0
204.79823628125 note_on channel=2 note=55 velocity=59 time=0
204.8034015625 note_on channel=0 note=59 velocity=49 time=1
204.8034015625 note_on channel=2 note=59 velocity=78 time=0
204.8034015625 note_on channel=2 note=67 velocity=76 time=0
204.8034015625 pitchwheel channel=6 pitch=-864 time=0
204.8034015625 pitchwheel channel=7 pitch=0 time=0
204.80856684375001 note_on channel=0 note=67 velocity=42 time=1
204.813732125 note_off channel=4 note=74 velocity=0 time=1
204.813732125 note_off channel=4 note=79 velocity=0 time=0
204.813732125 pitchwheel channel=6 pitch=0 time=0
204.813732125 note_on channel=6 note=79 velocity=78 time=0
204.81889740625 note_off channel=6 note=76 velocity=0 time=1
204.81889740625 pitchwheel channel=6 pitch=160 time=0
204.81889740625 note_on channel=7 note=76 velocity=63 time=0
204.81889740625 note_off channel=9 note=42 velocity=0 time=0
204.8240626875 pitchwheel channel=6 pitch=128 time=1
204.8240626875 note_off channel=9 note=40 velocity=0 time=0
204.82922796875002 pitchwheel channel=6 pitch=96 time=1
204.82922796875002 pitchwheel channel=7 pitch=128 time=0
204.8447238125 pitchwheel channel=6 pitch=32 time=3
204.86021965625002 pitchwheel channel=6 pitch=64 time=3
204.86021965625002 pitchwheel channel=7 pitch=160 time=0
204.88088078125 pitchwheel channel=7 pitch=128 time=4
204.896376625 pitchwheel channel=7 pitch=96 time=3
204.91187246875 note_off channel=1 note=31 velocity=0 time=3
204.91187246875 pitchwheel channel=7 pitch=64 time=0
204.92220303125 pitchwheel channel=6 pitch=32 time=2
204.9273683125 pitchwheel channel=7 pitch=0 time=1
204.93769887500002 pitchwheel channel=6 pitch=0 time=2
204.94286415624998 pitchwheel channel=7 pitch=-64 time=1
204.9893516875 pitchwheel channel=6 pitch=-64 time=9
204.9893516875 pitchwheel channel=7 pitch=0 time=0
204.99968225 note_off channel=0 note=67 velocity=0 time=2
205.00484753125 note_off channel=0 note=59 velocity=0 time=1
205.00484753125 pitchwheel channel=6 pitch=-96 time=0
205.02034337499998 pitchwheel channel=6 pitch=-448 time=3
205.0306739375 note_on channel=1 note=31 velocity=108 time=2
205.03583921875 pitchwheel channel=6 pitch=-800 time=1
205.03583921875 note_off channel=7 note=76 velocity=0 time=0
205.03583921875 note_on channel=9 note=42 velocity=59 time=0
205.0410045 note_off channel=2 note=67 velocity=0 time=1
205.04616978125 note_off channel=0 note=47 velocity=0 time=1
205.04616978125 note_off channel=0 note=43 velocity=0 time=0
205.04616978125 note_on channel=0 note=67 velocity=82 time=0
205.04616978125 note_off channel=2 note=59 velocity=0 time=0
205.04616978125 note_off channel=2 note=55 velocity=0 time=0
205.04616978125 note_off channel=6 note=79 velocity=0 time=0
205.04616978125 note_on channel=6 note=83 velocity=84 time=0
205.04616978125 pitchwheel channel=6 pitch=-192 time=0
205.04616978125 note_on channel=7 note=79 velocity=70 time=0
205.04616978125 pitchwheel channel=7 pitch=-160 time=0
205.04616978125 note_on channel=9 note=35 velocity=105 time=0
205.0513350625 note_off channel=0 note=55 velocity=0 time=1
205.0513350625 note_on channel=0 note=59 velocity=82 time=0
205.0513350625 note_on channel=2 note=67 velocity=87 time=0
205.0513350625 note_on channel=2 note=59 velocity=86 time=0
205.0513350625 pitchwheel channel=6 pitch=-224 time=0
205.05650034375 note_off channel=0 note=50 velocity=0 time=1
205.05650034375 note_on channel=0 note=55 velocity=78 time=0
205.05650034375 note_on channel=2 note=55 velocity=62 time=0
205.06166562500002 pitchwheel channel=7 pitch=-288 time=1
205.06683090625 note_on channel=0 note=50 velocity=62 time=1
205.06683090625 note_on channel=0 note=47 velocity=74 time=0
205.06683090625 note_off channel=9 note=42 velocity=0 time=0
205.07716146875 note_on channel=0 note=43 velocity=31 time=2
205.07716146875 note_off channel=9 note=35 velocity=0 time=0
205.09782259374998 pitchwheel channel=6 pitch=-288 time=4
205.102987875 pitchwheel channel=7 pitch=-320 time=1
205.12881428125 pitchwheel channel=6 pitch=-224 time=5
205.1339795625 pitchwheel channel=7 pitch=-384 time=1
205.1546406875 pitchwheel channel=7 pitch=-320 time=4
205.17013653125002 pitchwheel channel=7 pitch=-256 time=3
205.18046709375 pitchwheel channel=6 pitch=-288 time=2
205.185632375 pitchwheel channel=7 pitch=-192 time=1
205.1959629375 note_off channel=1 note=31 velocity=0 time=2
205.1959629375 pitchwheel channel=6 pitch=-320 time=0
205.21662406250002 pitchwheel channel=7 pitch=-160 time=4
205.226954625 pitchwheel channel=6 pitch=-352 time=2
205.24245046875 pitchwheel channel=6 pitch=-480 time=3
205.24245046875 pitchwheel channel=7 pitch=-256 time=0
205.25278103124998 note_off channel=6 note=83 velocity=0 time=2
205.26311159375 note_off channel=7 note=79 velocity=0 time=2
205.28377271875 note_on channel=9 note=42 velocity=61 time=4
205.31476440625 note_off channel=9 note=42 velocity=0 time=6
205.43873115625 note_off channel=0 note=55 velocity=0 time=24
205.4438964375 note_off channel=0 note=50 velocity=0 time=1
205.44906171875002 note_off channel=0 note=47 velocity=0 time=1
205.45939228125 note_off channel=0 note=59 velocity=0 time=2
205.4645575625 note_off channel=0 note=43 velocity=0 time=1
205.49038396875 note_off channel=0 note=67 velocity=0 time=5
205.5058798125 note_off channel=2 note=67 velocity=0 time=3
205.51104509375 note_off channel=2 note=59 velocity=0 time=1
205.51621037499999 note_off channel=2 note=55 velocity=0 time=1
205.52654093750002 note_on channel=1 note=33 velocity=106 time=2
205.52654093750002 note_on channel=2 note=67 velocity=88 time=0
205.53170621875 note_on channel=0 note=67 velocity=82 time=1
205.53170621875 note_on channel=2 note=59 velocity=88 time=0
205.53170621875 note_on channel=9 note=42 velocity=58 time=0
205.5368715 note_off channel=2 note=50 velocity=0 time=1
205.5368715 note_on channel=2 note=55 velocity=65 time=0
205.54203678125 note_on channel=0 note=59 velocity=84 time=1
205.54203678125 note_on channel=2 note=50 velocity=41 time=0
205.55236734375 note_on channel=0 note=55 velocity=72 time=2
205.56269790624998 note_on channel=0 note=50 velocity=42 time=2
205.56269790624998 note_off channel=9 note=42 velocity=0 time=0
205.74864803124999 note_off channel=0 note=59 velocity=0 time=36
205.7538133125 note_off channel=2 note=55 velocity=0 time=1
205.76930915625 note_off channel=0 note=50 velocity=0 time=3
205.7744744375 note_off channel=1 note=33 velocity=0 time=1
205.7744744375 note_on channel=1 note=35 velocity=111 time=0
205.7744744375 note_off channel=2 note=59 velocity=0 time=0
205.7744744375 note_on channel=2 note=55 velocity=76 time=0
205.77963971875 note_off channel=0 note=67 velocity=0 time=1
205.77963971875 note_on channel=2 note=59 velocity=86 time=0
205.77963971875 note_on channel=9 note=42 velocity=61 time=0
205.784805 note_on channel=0 note=50 velocity=43 time=1
205.784805 note_off channel=2 note=67 velocity=0 time=0
205.78997028125002 note_on channel=2 note=67 velocity=87 time=1
205.78997028125002 note_on channel=9 note=40 velocity=89 time=0
205.80030084375 note_on channel=0 note=59 velocity=65 time=2
205.805466125 note_on channel=0 note=67 velocity=53 time=1
205.81063140625 note_off channel=9 note=42 velocity=0 time=1
205.82096196875 note_off channel=9 note=40 velocity=0 time=2
205.96558984375 note_off channel=1 note=35 velocity=0 time=28
206.012077375 note_off channel=0 note=67 velocity=0 time=9
206.02757321874998 note_on channel=9 note=42 velocity=61 time=3
206.0327385 note_off channel=0 note=59 velocity=0 time=1
206.0327385 note_on channel=0 note=67 velocity=56 time=0
206.0430690625 note_on channel=0 note=59 velocity=58 time=2
206.04823434375 note_off channel=0 note=55 velocity=0 time=1
206.053399625 note_on channel=0 note=55 velocity=38 time=1
206.05856490624998 note_off channel=9 note=42 velocity=0 time=1
206.094721875 note_off channel=0 note=67 velocity=0 time=7
206.1980275 note_off channel=0 note=59 velocity=0 time=20
206.20319278125 note_off channel=0 note=50 velocity=0 time=1
206.20319278125 note_off channel=2 note=67 velocity=0 time=0
206.22385390625 note_off channel=2 note=50 velocity=0 time=4
206.23418446875 note_off channel=2 note=59 velocity=0 time=2
206.26517615625 note_off channel=0 note=55 velocity=0 time=6
206.2703414375 note_on channel=0 note=48 velocity=62 time=1
206.27550671875 note_on channel=2 note=48 velocity=76 time=1
206.27550671875 note_on channel=9 note=42 velocity=62 time=0
206.280672 note_on channel=0 note=52 velocity=54 time=1
206.280672 note_on channel=0 note=55 velocity=63 time=0
206.280672 note_on channel=1 note=36 velocity=108 time=0
206.280672 note_on channel=2 note=60 velocity=84 time=0
206.280672 note_on channel=9 note=35 velocity=104 time=0
206.28583728125 note_on channel=2 note=52 velocity=59 time=1
206.28583728125 note_on channel=2 note=64 velocity=79 time=0
206.29100256249998 note_on channel=0 note=60 velocity=65 time=1
206.29616784375 note_on channel=0 note=64 velocity=43 time=1
206.30649840625 note_off channel=9 note=42 velocity=0 time=2
206.3116636875 note_off channel=9 note=35 velocity=0 time=1
206.4976138125 note_off channel=0 note=64 velocity=0 time=36
206.51310965625 note_off channel=1 note=36 velocity=0 time=3
206.51310965625 note_on channel=1 note=38 velocity=108 time=0
206.51827493750002 note_off channel=2 note=64 velocity=0 time=1
206.52344021874998 note_off channel=0 note=60 velocity=0 time=1
206.52344021874998 note_on channel=0 note=64 velocity=83 time=0
206.52344021874998 note_off channel=2 note=55 velocity=0 time=0
206.52344021874998 note_on channel=3 note=67 velocity=103 time=0
206.52344021874998 note_on channel=9 note=42 velocity=58 time=0
206.5286055 note_on channel=0 note=60 velocity=82 time=1
206.5286055 note_off channel=2 note=60 velocity=0 time=0
206.5286055 note_on channel=2 note=64 velocity=80 time=0
206.53377078125 note_off channel=0 note=55 velocity=0 time=1
206.53377078125 note_on channel=2 note=60 velocity=80 time=0
206.5389360625 note_on channel=0 note=55 velocity=67 time=1
206.5389360625 note_on channel=2 note=55 velocity=62 time=0
206.55443190625 note_off channel=9 note=42 velocity=0 time=3
206.56992775 note_off channel=2 note=48 velocity=0 time=3
206.65257225 note_off channel=3 note=67 velocity=0 time=16
206.7455473125 note_off channel=2 note=52 velocity=0 time=18
206.7455473125 note_off channel=2 note=55 velocity=0 time=0
206.76104315625 note_off channel=2 note=60 velocity=0 time=3
206.76104315625 note_on channel=2 note=52 velocity=47 time=0
206.76104315625 note_on channel=3 note=69 velocity=95 time=0
206.7662084375 note_off channel=1 note=38 velocity=0 time=1
206.7662084375 note_on channel=1 note=40 velocity=104 time=0
206.7662084375 note_on channel=2 note=55 velocity=61 time=0
206.77137371875 note_off channel=2 note=64 velocity=0 time=1
206.77137371875 note_on channel=2 note=60 velocity=76 time=0
206.77137371875 note_on channel=9 note=42 velocity=63 time=0
206.776539 note_on channel=2 note=64 velocity=63 time=1
206.78170428125 note_on channel=9 note=40 velocity=89 time=1
206.80236540625 note_off channel=9 note=42 velocity=0 time=4
206.81269596875 note_off channel=9 note=40 velocity=0 time=2
206.90567103125002 note_off channel=3 note=69 velocity=0 time=18
206.9728196875 note_off channel=2 note=60 velocity=0 time=13
206.97798496875 note_off channel=0 note=52 velocity=0 time=1
207.003811375 note_off channel=0 note=64 velocity=0 time=5
207.00897665625 note_off channel=0 note=48 velocity=0 time=1
207.00897665625 note_off channel=2 note=52 velocity=0 time=0
207.00897665625 note_off channel=2 note=64 velocity=0 time=0
207.00897665625 note_on channel=3 note=71 velocity=101 time=0
207.0141419375 note_off channel=0 note=60 velocity=0 time=1
207.0141419375 note_on channel=0 note=64 velocity=80 time=0
207.01930721875 note_off channel=0 note=55 velocity=0 time=1
207.01930721875 note_on channel=0 note=60 velocity=83 time=0
207.01930721875 note_off channel=1 note=40 velocity=0 time=0
207.01930721875 note_on channel=1 note=43 velocity=110 time=0
207.01930721875 note_on channel=2 note=64 velocity=86 time=0
207.01930721875 note_on channel=9 note=35 velocity=105 time=0
207.01930721875 note_on channel=9 note=42 velocity=59 time=0
207.01930721875 note_on channel=9 note=62 velocity=82 time=0
207.0244725 note_on channel=2 note=60 velocity=84 time=1
207.02963778125002 note_on channel=0 note=55 velocity=71 time=1
207.02963778125002 note_on channel=2 note=52 velocity=40 time=0
207.0348030625 note_on channel=0 note=52 velocity=49 time=1
207.03996834375 note_on channel=0 note=48 velocity=51 time=1
207.05029890625 note_off channel=9 note=62 velocity=0 time=2
207.05029890625 note_off channel=9 note=42 velocity=0 time=0
207.05029890625 note_off channel=9 note=35 velocity=0 time=0
207.14327396874998 note_on channel=9 note=62 velocity=70 time=18
207.16393509375 note_off channel=3 note=71 velocity=0 time=4
207.17426565625 note_off channel=9 note=62 velocity=0 time=2
207.210422625 note_off channel=1 note=43 velocity=0 time=7
207.25691015625 note_off channel=2 note=55 velocity=0 time=9
207.26207543750002 note_on channel=3 note=72 velocity=99 time=1
207.26207543750002 note_on channel=9 note=62 velocity=80 time=0
207.26724071875 note_on channel=1 note=36 velocity=107 time=1
207.26724071875 note_on channel=2 note=55 velocity=41 time=0
207.272406 note_off channel=2 note=60 velocity=0 time=1
207.272406 note_on channel=9 note=42 velocity=61 time=0
207.29306712500002 note_off channel=9 note=62 velocity=0 time=4
207.3033976875 note_off channel=9 note=42 velocity=0 time=2
207.40670331249999 note_off channel=3 note=72 velocity=0 time=20
207.4686866875 note_off channel=0 note=64 velocity=0 time=12
207.4686866875 note_off channel=2 note=64 velocity=0 time=0
207.50484365625 note_off channel=1 note=36 velocity=0 time=7
207.50484365625 note_on channel=1 note=38 velocity=104 time=0
207.5100089375 note_off channel=0 note=60 velocity=0 time=1
207.5100089375 note_on channel=0 note=64 velocity=84 time=0
207.5100089375 note_on channel=3 note=71 velocity=101 time=0
207.51517421875 note_on channel=0 note=60 velocity=80 time=1
207.51517421875 note_on channel=2 note=64 velocity=90 time=0
207.51517421875 note_on channel=9 note=42 velocity=63 time=0
207.51517421875 note_on channel=9 note=62 velocity=69 time=0
207.5203395 note_off channel=2 note=52 velocity=0 time=1
207.5203395 note_on channel=2 note=60 velocity=86 time=0
207.52550478125002 note_off channel=0 note=55 velocity=0 time=1
207.52550478125002 note_on channel=2 note=52 velocity=57 time=0
207.53067006249998 note_off channel=0 note=52 velocity=0 time=1
207.53067006249998 note_on channel=0 note=55 velocity=74 time=0
207.53583534375 note_on channel=0 note=52 velocity=51 time=1
207.53583534375 note_on channel=2 note=48 velocity=43 time=0
207.54616590625 note_off channel=9 note=62 velocity=0 time=2
207.54616590625 note_off channel=9 note=42 velocity=0 time=0
207.6339756875 note_on channel=9 note=62 velocity=65 time=17
207.664967375 note_off channel=9 note=62 velocity=0 time=6
207.7372813125 note_off channel=0 note=48 velocity=0 time=14
207.74244659375 note_off channel=0 note=52 velocity=0 time=1
207.747611875 note_off channel=2 note=55 velocity=0 time=1
207.75277715625 note_off channel=2 note=60 velocity=0 time=1
207.75277715625 note_on channel=9 note=62 velocity=78 time=0
207.75794243750002 note_on channel=0 note=48 velocity=62 time=1
207.75794243750002 note_off channel=1 note=38 velocity=0 time=0
207.75794243750002 note_on channel=1 note=35 velocity=109 time=0
207.75794243750002 note_off channel=2 note=64 velocity=0 time=0
207.75794243750002 note_on channel=2 note=55 velocity=74 time=0
207.75794243750002 note_on channel=9 note=40 velocity=89 time=0
207.76310771874998 note_off channel=0 note=55 velocity=0 time=1
207.76310771874998 note_on channel=0 note=52 velocity=62 time=0
207.76310771874998 note_on channel=2 note=60 velocity=84 time=0
207.768273 note_off channel=0 note=60 velocity=0 time=1
207.768273 note_on channel=0 note=55 velocity=78 time=0
207.768273 note_on channel=2 note=64 velocity=90 time=0
207.768273 note_on channel=9 note=42 velocity=63 time=0
207.77343828125 note_on channel=0 note=60 velocity=81 time=1
207.78376884375 note_off channel=9 note=62 velocity=0 time=2
207.788934125 note_off channel=9 note=40 velocity=0 time=1
207.7992646875 note_off channel=9 note=42 velocity=0 time=2
207.84058693749998 note_off channel=3 note=71 velocity=0 time=8
207.954223125 note_off channel=0 note=48 velocity=0 time=22
207.99038009375002 note_off channel=2 note=64 velocity=0 time=7
207.99554537499998 note_off channel=0 note=64 velocity=0 time=1
208.00071065625 note_on channel=3 note=69 velocity=103 time=1
208.0058759375 note_off channel=1 note=35 velocity=0 time=1
208.0058759375 note_on channel=1 note=36 velocity=108 time=0
208.0058759375 note_off channel=2 note=60 velocity=0 time=0
208.0058759375 note_on channel=2 note=64 velocity=76 time=0
208.0058759375 note_on channel=9 note=62 velocity=80 time=0
208.01104121875 note_on channel=0 note=64 velocity=80 time=1
208.01104121875 note_off channel=2 note=52 velocity=0 time=0
208.01104121875 note_off channel=2 note=55 velocity=0 time=0
208.01104121875 note_on channel=2 note=60 velocity=78 time=0
208.01104121875 note_on channel=9 note=42 velocity=58 time=0
208.0162065 note_off channel=0 note=55 velocity=0 time=1
208.0162065 note_off channel=0 note=60 velocity=0 time=0
208.0162065 note_on channel=2 note=55 velocity=60 time=0
208.0162065 note_on channel=2 note=52 velocity=38 time=0
208.02137178125 note_on channel=0 note=60 velocity=82 time=1
208.02653706249998 note_on channel=0 note=55 velocity=60 time=1
208.036867625 note_off channel=9 note=62 velocity=0 time=2
208.04203290625 note_off channel=9 note=42 velocity=0 time=1
208.11434684375 note_off channel=2 note=48 velocity=0 time=14
208.12467740625002 note_off channel=2 note=52 velocity=0 time=2
208.1298426875 note_on channel=9 note=62 velocity=74 time=1
208.13500796875 note_off channel=0 note=52 velocity=0 time=1
208.160834375 note_off channel=9 note=62 velocity=0 time=5
208.19699134375 note_off channel=0 note=55 velocity=0 time=7
208.20732190625 note_off channel=2 note=60 velocity=0 time=2
208.20732190625 note_off channel=2 note=55 velocity=0 time=0
208.2124871875 note_off channel=0 note=64 velocity=0 time=1
208.2331483125 note_off channel=1 note=36 velocity=0 time=4
208.24864415625 note_on channel=0 note=45 velocity=60 time=3
208.24864415625 note_on channel=2 note=45 velocity=62 time=0
208.24864415625 note_on channel=9 note=62 velocity=78 time=0
208.25380943750002 note_off channel=0 note=60 velocity=0 time=1
208.25897471874998 note_on channel=0 note=60 velocity=78 time=1
208.25897471874998 note_on channel=2 note=52 velocity=76 time=0
208.25897471874998 note_on channel=9 note=42 velocity=65 time=0
208.26414 note_on channel=0 note=64 velocity=72 time=1
208.26414 note_on channel=1 note=33 velocity=109 time=0
208.26414 note_on channel=2 note=57 velocity=78 time=0
208.26414 note_on channel=9 note=35 velocity=104 time=0
208.26930528125 note_on channel=0 note=52 velocity=61 time=1
208.26930528125 note_on channel=2 note=60 velocity=82 time=0
208.2744705625 note_on channel=0 note=57 velocity=76 time=1
208.27963584375001 note_off channel=9 note=62 velocity=0 time=1
208.28996640625 note_off channel=9 note=42 velocity=0 time=2
208.2951316875 note_off channel=9 note=35 velocity=0 time=1
208.30546225 note_off channel=3 note=69 velocity=0 time=2
208.46558596875 note_off channel=0 note=60 velocity=0 time=31
208.49141237499998 note_off channel=1 note=33 velocity=0 time=5
208.49141237499998 note_on channel=1 note=35 velocity=107 time=0
208.49141237499998 note_off channel=2 note=64 velocity=0 time=0
208.49657765625 note_off channel=0 note=64 velocity=0 time=1
208.49657765625 note_on channel=3 note=69 velocity=107 time=0
208.49657765625 note_on channel=9 note=62 velocity=66 time=0
208.5017429375 note_off channel=2 note=60 velocity=0 time=1
208.5017429375 note_on channel=2 note=64 velocity=86 time=0
208.5017429375 note_on channel=4 note=72 velocity=36 time=0
208.5017429375 note_on channel=4 note=76 velocity=45 time=0
208.5017429375 note_on channel=9 note=42 velocity=56 time=0
208.50690821875 note_on channel=2 note=60 velocity=84 time=1
208.5120735 note_on channel=0 note=64 velocity=84 time=1
208.5120735 note_off channel=2 note=57 velocity=0 time=0
208.51723878125 note_on channel=2 note=57 velocity=67 time=1
208.5224040625 note_on channel=0 note=60 velocity=82 time=1
208.52756934375 note_off channel=9 note=62 velocity=0 time=1
208.53273462500002 note_off channel=9 note=42 velocity=0 time=1
208.63087496875 note_on channel=9 note=62 velocity=70 time=19
208.66186665625 note_off channel=9 note=62 velocity=0 time=6
208.71868475000002 note_off channel=3 note=69 velocity=0 time=11
208.71868475000002 note_off channel=4 note=76 velocity=0 time=0
208.71868475000002 note_off channel=4 note=72 velocity=0 time=0
208.74451115625 note_off channel=2 note=52 velocity=0 time=5
208.74451115625 note_off channel=2 note=57 velocity=0 time=0
208.74451115625 note_on channel=3 note=71 velocity=99 time=0
208.74451115625 note_on channel=4 note=76 velocity=45 time=0
208.74451115625 note_on channel=9 note=62 velocity=77 time=0
208.7496764375 note_off channel=1 note=35 velocity=0 time=1
208.7496764375 note_on channel=1 note=36 velocity=107 time=0
208.7496764375 note_off channel=2 note=60 velocity=0 time=0
208.7496764375 note_on channel=2 note=52 velocity=41 time=0
208.7496764375 note_on channel=4 note=72 velocity=31 time=0
208.7496764375 note_on channel=9 note=42 velocity=58 time=0
208.75484171875 note_on channel=2 note=57 velocity=68 time=1
208.75484171875 note_on channel=2 note=60 velocity=83 time=0
208.75484171875 note_on channel=9 note=40 velocity=89 time=0
208.77550284375 note_off channel=9 note=62 velocity=0 time=4
208.780668125 note_off channel=9 note=42 velocity=0 time=1
208.78583340625 note_off channel=9 note=40 velocity=0 time=1
208.80132924999998 note_off channel=0 note=57 velocity=0 time=3
208.8323209375 note_off channel=0 note=52 velocity=0 time=6
208.93046128125 note_off channel=2 note=57 velocity=0 time=19
208.94079184375 note_off channel=2 note=52 velocity=0 time=2
208.945957125 note_off channel=0 note=64 velocity=0 time=1
208.95112240625002 note_off channel=2 note=64 velocity=0 time=1
208.96661825 note_off channel=4 note=76 velocity=0 time=3
208.97178353125 note_off channel=4 note=72 velocity=0 time=1
208.98727937499999 note_off channel=3 note=71 velocity=0 time=3
208.98727937499999 note_on channel=3 note=72 velocity=101 time=0
208.99244465625 note_off channel=1 note=36 velocity=0 time=1
208.99244465625 note_on channel=1 note=37 velocity=102 time=0
208.99244465625 note_on channel=4 note=72 velocity=41 time=0
208.99244465625 note_on channel=4 note=76 velocity=45 time=0
208.99244465625 note_on channel=9 note=42 velocity=61 time=0
208.99760993750002 note_off channel=0 note=60 velocity=0 time=1
209.00277521875 note_on channel=2 note=50 velocity=62 time=1
209.00277521875 note_on channel=9 note=62 velocity=60 time=0
209.0079405 note_on channel=0 note=66 velocity=84 time=1
209.0079405 note_on channel=9 note=35 velocity=107 time=0
209.01310578125 note_on channel=0 note=60 velocity=82 time=1
209.01310578125 note_off channel=2 note=60 velocity=0 time=0
209.0182710625 note_on channel=2 note=57 velocity=79 time=1
209.0182710625 note_on channel=2 note=60 velocity=81 time=0
209.02343634375 note_on channel=0 note=50 velocity=53 time=1
209.02343634375 note_off channel=9 note=42 velocity=0 time=0
209.02860162500002 note_on channel=0 note=57 velocity=76 time=1
209.02860162500002 note_on channel=2 note=66 velocity=86 time=0
209.03376690624998 note_off channel=9 note=62 velocity=0 time=1
209.0389321875 note_off channel=9 note=35 velocity=0 time=1
209.1215766875 note_on channel=9 note=62 velocity=69 time=16
209.12674196875 note_off channel=1 note=37 velocity=0 time=1
209.12674196875 note_on channel=1 note=38 velocity=111 time=0
209.15256837500002 note_off channel=9 note=62 velocity=0 time=5
209.21455175 note_off channel=0 note=60 velocity=0 time=12
209.21455175 note_off channel=0 note=66 velocity=0 time=0
209.21971703124998 note_off channel=4 note=76 velocity=0 time=1
209.2248823125 note_off channel=0 note=50 velocity=0 time=1
209.2248823125 note_off channel=4 note=72 velocity=0 time=0
209.23004759375002 note_off channel=0 note=57 velocity=0 time=1
209.235212875 note_off channel=3 note=72 velocity=0 time=1
209.24037815625 note_on channel=3 note=74 velocity=96 time=1
209.24037815625 note_on channel=4 note=78 velocity=45 time=0
209.2455434375 note_on channel=0 note=50 velocity=49 time=1
209.2455434375 note_off channel=1 note=38 velocity=0 time=0
209.2455434375 note_on channel=4 note=74 velocity=51 time=0
209.2455434375 note_on channel=9 note=42 velocity=58 time=0
209.2455434375 note_on channel=9 note=62 velocity=70 time=0
209.25070871875 note_on channel=0 note=57 velocity=71 time=1
209.255874 note_on channel=0 note=60 velocity=82 time=1
209.26620456249998 note_on channel=0 note=66 velocity=78 time=2
209.276535125 note_off channel=9 note=62 velocity=0 time=2
209.276535125 note_off channel=9 note=42 velocity=0 time=0
209.3695101875 note_on channel=1 note=38 velocity=108 time=18
209.45215468749998 note_off channel=0 note=57 velocity=0 time=16
209.45731996875 note_off channel=2 note=66 velocity=0 time=1
209.46248525000001 note_off channel=4 note=78 velocity=0 time=1
209.4728158125 note_off channel=4 note=74 velocity=0 time=2
209.47798109375 note_off channel=2 note=60 velocity=0 time=1
209.483146375 note_off channel=3 note=74 velocity=0 time=1
209.483146375 note_on channel=3 note=69 velocity=98 time=0
209.48831165625 note_on channel=4 note=78 velocity=45 time=1
209.48831165625 note_on channel=4 note=74 velocity=53 time=0
209.49347693750002 note_off channel=2 note=57 velocity=0 time=1
209.49864221874998 note_off channel=0 note=60 velocity=0 time=1
209.49864221874998 note_off channel=0 note=66 velocity=0 time=0
209.49864221874998 note_off channel=1 note=38 velocity=0 time=0
209.49864221874998 note_on channel=1 note=36 velocity=104 time=0
209.49864221874998 note_on channel=2 note=66 velocity=88 time=0
209.49864221874998 note_on channel=2 note=60 velocity=85 time=0
209.49864221874998 note_on channel=9 note=42 velocity=64 time=0
209.49864221874998 note_on channel=9 note=62 velocity=76 time=0
209.5038075 note_off channel=2 note=50 velocity=0 time=1
209.5038075 note_on channel=2 note=57 velocity=72 time=0
209.50897278125 note_on channel=0 note=66 velocity=83 time=1
209.50897278125 note_on channel=2 note=50 velocity=53 time=0
209.5141380625 note_on channel=0 note=60 velocity=82 time=1
209.51930334375 note_on channel=0 note=57 velocity=69 time=1
209.52963390624998 note_off channel=9 note=62 velocity=0 time=2
209.52963390624998 note_off channel=9 note=42 velocity=0 time=0
209.62260896875 note_on channel=9 note=62 velocity=68 time=18
209.65360065624998 note_off channel=9 note=62 velocity=0 time=6
209.7000881875 note_off channel=2 note=66 velocity=0 time=9
209.7207493125 note_off channel=2 note=50 velocity=0 time=4
209.72591459375002 note_off channel=2 note=45 velocity=0 time=1
209.73107987499998 note_off channel=2 note=57 velocity=0 time=1
209.73107987499998 note_on channel=2 note=45 velocity=49 time=0
209.73624515625 note_on channel=2 note=50 velocity=62 time=1
209.7414104375 note_off channel=2 note=60 velocity=0 time=1
209.7414104375 note_on channel=2 note=57 velocity=77 time=0
209.7414104375 note_on channel=9 note=40 velocity=93 time=0
209.7414104375 note_on channel=9 note=62 velocity=73 time=0
209.74657571875 note_on channel=2 note=60 velocity=83 time=1
209.751741 note_off channel=1 note=36 velocity=0 time=1
209.751741 note_on channel=1 note=35 velocity=110 time=0
209.751741 note_on channel=2 note=66 velocity=88 time=0
209.751741 note_on channel=9 note=42 velocity=58 time=0
209.772402125 note_off channel=9 note=62 velocity=0 time=4
209.772402125 note_off channel=9 note=40 velocity=0 time=0
209.7827326875 note_off channel=9 note=42 velocity=0 time=2
209.896368875 note_off channel=3 note=69 velocity=0 time=22
209.9480216875 note_off channel=2 note=57 velocity=0 time=10
209.95318696875 note_off channel=2 note=60 velocity=0 time=1
209.9686828125 note_off channel=0 note=60 velocity=0 time=3
209.97384809375 note_off channel=0 note=57 velocity=0 time=1
209.979013375 note_off channel=4 note=74 velocity=0 time=1
209.98417865625 note_off channel=0 note=45 velocity=0 time=1
209.98417865625 note_off channel=0 note=66 velocity=0 time=0
209.98417865625 note_on channel=3 note=71 velocity=101 time=0
209.98417865625 note_off channel=4 note=78 velocity=0 time=0
209.98934393750002 note_on channel=4 note=74 velocity=48 time=1
209.98934393750002 note_on channel=4 note=79 velocity=52 time=0
209.98934393750002 note_on channel=4 note=71 velocity=43 time=0
209.99450921874998 note_off channel=2 note=66 velocity=0 time=1
209.99450921874998 note_on channel=9 note=42 velocity=58 time=0
209.99450921874998 note_on channel=9 note=62 velocity=76 time=0
209.9996745 note_off channel=1 note=35 velocity=0 time=1
209.9996745 note_on channel=1 note=33 velocity=110 time=0
209.9996745 note_on channel=2 note=66 velocity=86 time=0
210.00483978125 note_on channel=0 note=59 velocity=77 time=1
210.00483978125 note_on channel=2 note=60 velocity=84 time=0
210.0100050625 note_off channel=0 note=50 velocity=0 time=1
210.0100050625 note_on channel=0 note=55 velocity=57 time=0
210.0100050625 note_on channel=2 note=57 velocity=63 time=0
210.020335625 note_on channel=0 note=50 velocity=42 time=2
210.02550090625 note_on channel=0 note=45 velocity=36 time=1
210.02550090625 note_off channel=9 note=62 velocity=0 time=0
210.02550090625 note_off channel=9 note=42 velocity=0 time=0
210.11331068750002 note_on channel=9 note=62 velocity=70 time=17
210.14430237500002 note_off channel=9 note=62 velocity=0 time=6
210.1546329375 note_off channel=0 note=45 velocity=0 time=2
210.15979821875 note_off channel=2 note=57 velocity=0 time=1
210.15979821875 note_off channel=2 note=60 velocity=0 time=0
210.15979821875 note_off channel=2 note=66 velocity=0 time=0
210.19078990625002 note_off channel=2 note=50 velocity=0 time=6
210.21145103125 note_off channel=1 note=33 velocity=0 time=4
210.22178159375002 note_off channel=0 note=50 velocity=0 time=2
210.22694687499998 note_off channel=2 note=45 velocity=0 time=1
210.23211215625 note_off channel=0 note=55 velocity=0 time=1
210.23211215625 note_on channel=0 note=43 velocity=56 time=0
210.23211215625 note_on channel=2 note=45 velocity=41 time=0
210.2372774375 note_on channel=2 note=50 velocity=63 time=1
210.24244271875 note_on channel=0 note=50 velocity=56 time=1
210.24244271875 note_on channel=0 note=55 velocity=72 time=0
210.24244271875 note_on channel=2 note=55 velocity=83 time=0
210.24244271875 note_on channel=9 note=42 velocity=64 time=0
210.24244271875 note_on channel=9 note=62 velocity=75 time=0
210.247608 note_off channel=0 note=59 velocity=0 time=1
210.247608 note_on channel=0 note=47 velocity=55 time=0
210.247608 note_on channel=1 note=31 velocity=104 time=0
210.247608 note_on channel=2 note=59 velocity=86 time=0
210.247608 note_on channel=9 note=35 velocity=107 time=0
210.25277328125 note_on channel=0 note=59 velocity=80 time=1
210.2579385625 note_on channel=0 note=67 velocity=71 time=1
210.2579385625 note_on channel=2 note=67 velocity=86 time=0
210.26310384375 note_off channel=3 note=71 velocity=0 time=1
210.27343440625 note_off channel=9 note=62 velocity=0 time=2
210.27343440625 note_off channel=9 note=42 velocity=0 time=0
210.2785996875 note_off channel=9 note=35 velocity=0 time=1
210.45421925000002 note_off channel=2 note=59 velocity=0 time=34
210.48004565625 note_off channel=2 note=67 velocity=0 time=5
210.4852109375 note_off channel=0 note=67 velocity=0 time=1
210.4852109375 note_off channel=0 note=50 velocity=0 time=0
210.4852109375 note_off channel=2 note=50 velocity=0 time=0
210.4852109375 note_on channel=3 note=71 velocity=104 time=0
210.49037621875 note_off channel=0 note=55 velocity=0 time=1
210.49037621875 note_off channel=0 note=47 velocity=0 time=0
210.49037621875 note_on channel=0 note=67 velocity=82 time=0
210.49037621875 note_off channel=2 note=55 velocity=0 time=0
210.49037621875 note_off channel=4 note=71 velocity=0 time=0
210.49037621875 note_off channel=4 note=79 velocity=0 time=0
210.49037621875 note_on channel=9 note=42 velocity=58 time=0
210.49037621875 note_on channel=9 note=62 velocity=81 time=0
210.4955415 note_off channel=0 note=59 velocity=0 time=1
210.4955415 note_off channel=1 note=31 velocity=0 time=0
210.4955415 note_on channel=1 note=35 velocity=107 time=0
210.50070678125002 note_on channel=0 note=59 velocity=83 time=1
210.50070678125002 note_on channel=2 note=67 velocity=82 time=0
210.50070678125002 note_on channel=2 note=59 velocity=80 time=0
210.5058720625 note_on channel=2 note=55 velocity=60 time=1
210.5058720625 note_off channel=4 note=74 velocity=0 time=0
210.51103734375 note_on channel=0 note=55 velocity=80 time=1
210.51103734375 note_on channel=2 note=50 velocity=47 time=0
210.516202625 note_on channel=0 note=50 velocity=69 time=1
210.52136790625 note_on channel=0 note=47 velocity=71 time=1
210.52136790625 note_off channel=9 note=62 velocity=0 time=0
210.52136790625 note_off channel=9 note=42 velocity=0 time=0
210.61434296874998 note_on channel=9 note=62 velocity=68 time=18
210.640169375 note_off channel=3 note=71 velocity=0 time=5
210.64533465625 note_off channel=9 note=62 velocity=0 time=1
210.70215275 note_off channel=2 note=67 velocity=0 time=11
210.70731803125 note_off channel=2 note=59 velocity=0 time=1
210.72281387499999 note_off channel=2 note=50 velocity=0 time=3
210.72797915625 note_off channel=0 note=47 velocity=0 time=1
210.73314443750002 note_on channel=3 note=72 velocity=99 time=1
210.73314443750002 note_on channel=9 note=42 velocity=57 time=0
210.73830971875 note_off channel=1 note=35 velocity=0 time=1
210.73830971875 note_on channel=1 note=38 velocity=109 time=0
210.73830971875 note_off channel=2 note=55 velocity=0 time=0
210.73830971875 note_on channel=9 note=40 velocity=93 time=0
210.73830971875 note_on channel=9 note=62 velocity=78 time=0
210.743475 note_on channel=2 note=50 velocity=63 time=1
210.74864028125 note_on channel=2 note=55 velocity=80 time=1
210.74864028125 note_on channel=2 note=59 velocity=91 time=0
210.7538055625 note_on channel=2 note=67 velocity=84 time=1
210.76413612500002 note_off channel=9 note=42 velocity=0 time=2
210.76930140624998 note_off channel=9 note=40 velocity=0 time=1
210.76930140624998 note_off channel=9 note=62 velocity=0 time=0
210.8364500625 note_off channel=2 note=67 velocity=0 time=13
210.86744175 note_off channel=0 note=43 velocity=0 time=6
210.88293759375 note_off channel=3 note=72 velocity=0 time=3
210.8984334375 note_off channel=1 note=38 velocity=0 time=3
210.929425125 note_off channel=0 note=67 velocity=0 time=6
210.9397556875 note_off channel=2 note=59 velocity=0 time=2
210.95008625 note_off channel=2 note=45 velocity=0 time=2
210.9604168125 note_off channel=0 note=50 velocity=0 time=2
210.96558209375002 note_off channel=0 note=59 velocity=0 time=1
210.96558209375002 note_off channel=0 note=55 velocity=0 time=0
210.9810779375 note_on channel=1 note=38 velocity=108 time=3
210.9810779375 note_on channel=9 note=42 velocity=53 time=0
210.98624321875 note_off channel=2 note=50 velocity=0 time=1
210.98624321875 note_on channel=2 note=64 velocity=84 time=0
210.98624321875 note_on channel=9 note=35 velocity=105 time=0
210.98624321875 note_on channel=9 note=62 velocity=77 time=0
210.9914085 note_on channel=0 note=64 velocity=78 time=1
210.9914085 note_off channel=2 note=55 velocity=0 time=0
210.9914085 note_on channel=2 note=59 velocity=86 time=0
210.99657378125002 note_on channel=2 note=56 velocity=72 time=1
210.99657378125002 note_on channel=3 note=74 velocity=98 time=0
211.00173906249998 note_on channel=2 note=52 velocity=57 time=1
211.00690434375 note_on channel=2 note=47 velocity=54 time=1
211.012069625 note_on channel=0 note=56 velocity=58 time=1
211.012069625 note_on channel=0 note=52 velocity=51 time=0
211.012069625 note_off channel=9 note=42 velocity=0 time=0
211.01723490625 note_on channel=0 note=47 velocity=56 time=1
211.01723490625 note_off channel=9 note=35 velocity=0 time=0
211.01723490625 note_off channel=9 note=62 velocity=0 time=0
211.11020996874998 note_off channel=1 note=38 velocity=0 time=18
211.11020996874998 note_on channel=1 note=40 velocity=111 time=0
211.11020996874998 note_on channel=9 note=62 velocity=71 time=0
211.14120165625 note_off channel=9 note=62 velocity=0 time=6
211.1463669375 note_off channel=3 note=74 velocity=0 time=1
211.22384615625 note_on channel=3 note=76 velocity=97 time=15
211.22384615625 note_on channel=9 note=42 velocity=56 time=0
211.23417671874998 note_on channel=9 note=62 velocity=75 time=2
211.2496725625 note_off channel=0 note=56 velocity=0 time=3
211.25483784375 note_on channel=0 note=56 velocity=46 time=1
211.25483784375 note_off channel=9 note=42 velocity=0 time=0
211.260003125 note_on channel=0 note=59 velocity=51 time=1
211.26516840624998 note_off channel=9 note=62 velocity=0 time=1
211.2703336875 note_off channel=1 note=40 velocity=0 time=1
211.34264762499998 note_on channel=1 note=40 velocity=105 time=14
211.38913515624998 note_off channel=3 note=76 velocity=0 time=9
211.44595325 note_off channel=0 note=64 velocity=0 time=11
211.46144909375002 note_off channel=2 note=64 velocity=0 time=3
211.46144909375002 note_off channel=2 note=59 velocity=0 time=0
211.46661437499998 note_off channel=0 note=59 velocity=0 time=1
211.46661437499998 note_off channel=2 note=56 velocity=0 time=0
211.47177965625 note_off channel=1 note=40 velocity=0 time=1
211.47177965625 note_on channel=1 note=44 velocity=111 time=0
211.47177965625 note_off channel=2 note=52 velocity=0 time=0
211.47177965625 note_on channel=2 note=64 velocity=78 time=0
211.4769449375 note_off channel=0 note=56 velocity=0 time=1
211.4769449375 note_on channel=0 note=64 velocity=84 time=0
211.4769449375 note_off channel=2 note=47 velocity=0 time=0
211.4769449375 note_on channel=2 note=59 velocity=78 time=0
211.4769449375 note_on channel=9 note=42 velocity=58 time=0
211.48211021875 note_off channel=0 note=52 velocity=0 time=1
211.48211021875 note_on channel=2 note=56 velocity=61 time=0
211.48211021875 note_on channel=9 note=62 velocity=74 time=0
211.4872755 note_on channel=0 note=59 velocity=82 time=1
211.4872755 note_on channel=2 note=52 velocity=47 time=0
211.49244078125 note_on channel=0 note=56 velocity=69 time=1
211.49244078125 note_on channel=2 note=47 velocity=47 time=0
211.49244078125 note_on channel=3 note=74 velocity=102 time=0
211.49760606249998 note_on channel=0 note=52 velocity=58 time=1
211.507936625 note_off channel=9 note=42 velocity=0 time=2
211.51310190625 note_off channel=9 note=62 velocity=0 time=1
211.61640753125002 note_on channel=9 note=62 velocity=64 time=20
211.64739921875002 note_off channel=9 note=62 velocity=0 time=6
211.65772978125 note_off channel=1 note=44 velocity=0 time=2
211.67839090625 note_off channel=2 note=59 velocity=0 time=4
211.6835561875 note_off channel=0 note=64 velocity=0 time=1
211.6835561875 note_off channel=2 note=56 velocity=0 time=0
211.68872146875 note_off channel=0 note=47 velocity=0 time=1
211.69905203125 note_off channel=2 note=52 velocity=0 time=2
211.70938259375 note_off channel=0 note=52 velocity=0 time=2
211.714547875 note_off channel=2 note=64 velocity=0 time=1
211.71971315625 note_on channel=2 note=52 velocity=43 time=1
211.72487843750002 note_off channel=0 note=56 velocity=0 time=1
211.72487843750002 note_on channel=0 note=47 velocity=55 time=0
211.72487843750002 note_on channel=2 note=56 velocity=69 time=0
211.72487843750002 note_on channel=2 note=59 velocity=84 time=0
211.72487843750002 note_on channel=9 note=42 velocity=59 time=0
211.72487843750002 note_on channel=9 note=62 velocity=73 time=0
211.73004371874998 note_on channel=0 note=52 velocity=56 time=1
211.73004371874998 note_on channel=0 note=56 velocity=76 time=0
211.73004371874998 note_on channel=1 note=47 velocity=114 time=0
211.73004371874998 note_on channel=2 note=64 velocity=84 time=0
211.73004371874998 note_on channel=9 note=40 velocity=94 time=0
211.735209 note_off channel=0 note=59 velocity=0 time=1
211.74037428125 note_on channel=0 note=59 velocity=75 time=1
211.7455395625 note_on channel=0 note=64 velocity=54 time=1
211.755870125 note_off channel=9 note=62 velocity=0 time=2
211.755870125 note_off channel=9 note=42 velocity=0 time=0
211.76103540625 note_off channel=9 note=40 velocity=0 time=1
211.88500215624998 note_off channel=3 note=74 velocity=0 time=24
211.96248137499998 note_off channel=1 note=47 velocity=0 time=15
211.96248137499998 note_on channel=1 note=44 velocity=107 time=0
211.96764665625 note_off channel=0 note=64 velocity=0 time=1
211.96764665625 note_off channel=2 note=64 velocity=0 time=0
211.96764665625 note_off channel=2 note=56 velocity=0 time=0
211.9728119375 note_on channel=3 note=72 velocity=106 time=1
211.97797721875 note_on channel=0 note=64 velocity=74 time=1
211.97797721875 note_on channel=2 note=64 velocity=72 time=0
211.97797721875 note_on channel=9 note=42 velocity=58 time=0
211.97797721875 note_on channel=9 note=62 velocity=71 time=0
211.9831425 note_off channel=0 note=59 velocity=0 time=1
211.98830778125 note_on channel=0 note=59 velocity=77 time=1
211.98830778125 note_on channel=2 note=56 velocity=56 time=0
212.00896890625 note_off channel=9 note=62 velocity=0 time=4
212.00896890625 note_off channel=9 note=42 velocity=0 time=0
212.065787 note_off channel=0 note=52 velocity=0 time=11
212.07095228125 note_off channel=0 note=47 velocity=0 time=1
212.09161340625 note_off channel=1 note=44 velocity=0 time=4
212.09161340625 note_on channel=1 note=40 velocity=105 time=0
212.0967786875 note_off channel=0 note=56 velocity=0 time=1
212.10194396875 note_on channel=9 note=62 velocity=68 time=1
212.11743981249998 note_off channel=2 note=56 velocity=0 time=3
212.12260509375 note_off channel=2 note=47 velocity=0 time=1
212.13293565625 note_off channel=9 note=62 velocity=0 time=2
212.1381009375 note_off channel=0 note=59 velocity=0 time=1
212.1484315 note_off channel=2 note=52 velocity=0 time=2
212.169092625 note_off channel=2 note=59 velocity=0 time=4
212.21558015625 note_on channel=2 note=45 velocity=56 time=9
212.22591071875 note_off channel=0 note=64 velocity=0 time=2
212.22591071875 note_on channel=2 note=52 velocity=74 time=0
212.22591071875 note_on channel=9 note=42 velocity=63 time=0
212.22591071875 note_on channel=9 note=62 velocity=70 time=0
212.231076 note_on channel=0 note=52 velocity=58 time=1
212.231076 note_off channel=1 note=40 velocity=0 time=0
212.231076 note_on channel=1 note=45 velocity=115 time=0
212.231076 note_off channel=2 note=64 velocity=0 time=0
212.231076 note_on channel=2 note=60 velocity=86 time=0
212.231076 note_on channel=2 note=57 velocity=80 time=0
212.231076 note_on channel=9 note=35 velocity=104 time=0
212.23624128125002 note_on channel=2 note=64 velocity=85 time=1
212.2414065625 note_on channel=0 note=60 velocity=79 time=1
212.2414065625 note_on channel=0 note=64 velocity=61 time=0
212.2414065625 note_on channel=0 note=57 velocity=76 time=0
212.25690240625 note_off channel=9 note=62 velocity=0 time=3
212.25690240625 note_off channel=9 note=42 velocity=0 time=0
212.2620676875 note_off channel=9 note=35 velocity=0 time=1
212.27239824999998 note_off channel=3 note=72 velocity=0 time=2
212.3240510625 note_off channel=1 note=45 velocity=0 time=10
212.45834837499999 note_off channel=2 note=64 velocity=0 time=26
212.46351365625 note_on channel=3 note=72 velocity=104 time=1
212.46867893750002 note_off channel=2 note=52 velocity=0 time=1
212.46867893750002 note_on channel=4 note=72 velocity=43 time=0
212.46867893750002 note_on channel=4 note=76 velocity=53 time=0
212.47384421875 note_off channel=0 note=64 velocity=0 time=1
212.47384421875 note_on channel=1 note=43 velocity=115 time=0
212.47384421875 note_off channel=2 note=60 velocity=0 time=0
212.47384421875 note_on channel=2 note=64 velocity=87 time=0
212.47384421875 note_on channel=9 note=42 velocity=61 time=0
212.47384421875 note_on channel=9 note=62 velocity=70 time=0
212.4790095 note_off channel=0 note=52 velocity=0 time=1
212.4790095 note_off channel=2 note=57 velocity=0 time=0
212.4790095 note_on channel=2 note=60 velocity=84 time=0
212.48417478125 note_off channel=0 note=60 velocity=0 time=1
212.48417478125 note_on channel=0 note=64 velocity=82 time=0
212.48417478125 note_on channel=2 note=57 velocity=62 time=0
212.4893400625 note_on channel=0 note=60 velocity=80 time=1
212.4893400625 note_on channel=2 note=52 velocity=26 time=0
212.49450534375 note_off channel=0 note=57 velocity=0 time=1
212.49967062500002 note_on channel=0 note=57 velocity=69 time=1
212.50483590624998 note_on channel=0 note=52 velocity=45 time=1
212.50483590624998 note_off channel=9 note=62 velocity=0 time=0
212.50483590624998 note_off channel=9 note=42 velocity=0 time=0
212.5926456875 note_on channel=9 note=62 velocity=69 time=17
212.62363737500002 note_off channel=1 note=43 velocity=0 time=6
212.62363737500002 note_off channel=9 note=62 velocity=0 time=0
212.6752901875 note_off channel=2 note=64 velocity=0 time=10
212.68562075 note_off channel=2 note=52 velocity=0 time=2
212.68562075 note_off channel=3 note=72 velocity=0 time=0
212.70111659375002 note_off channel=2 note=57 velocity=0 time=3
212.706281875 note_off channel=2 note=45 velocity=0 time=1
212.706281875 note_off channel=4 note=76 velocity=0 time=0
212.706281875 note_off channel=4 note=72 velocity=0 time=0
212.71144715625 note_off channel=2 note=60 velocity=0 time=1
212.71144715625 note_on channel=2 note=52 velocity=46 time=0
212.7166124375 note_on channel=1 note=42 velocity=110 time=1
212.7166124375 note_on channel=2 note=57 velocity=65 time=0
212.7166124375 note_on channel=9 note=62 velocity=70 time=0
212.72177771875 note_on channel=2 note=60 velocity=81 time=1
212.72177771875 note_on channel=2 note=64 velocity=74 time=0
212.72177771875 note_on channel=4 note=76 velocity=48 time=0
212.72177771875 note_on channel=4 note=72 velocity=33 time=0
212.72177771875 note_on channel=9 note=42 velocity=59 time=0
212.72177771875 note_on channel=9 note=40 velocity=90 time=0
212.73210828125002 note_on channel=3 note=74 velocity=97 time=2
212.747604125 note_off channel=9 note=62 velocity=0 time=3
212.75276940625 note_off channel=9 note=42 velocity=0 time=1
212.75276940625 note_off channel=9 note=40 velocity=0 time=0
212.76826524999998 note_off channel=0 note=52 velocity=0 time=3
212.77859581250001 note_off channel=0 note=57 velocity=0 time=2
212.79409165625 note_off channel=0 note=60 velocity=0 time=3
212.8199180625 note_off channel=1 note=42 velocity=0 time=5
212.83541390625 note_off channel=2 note=64 velocity=0 time=3
212.86640559375 note_off channel=2 note=57 velocity=0 time=6
212.86640559375 note_off channel=2 note=52 velocity=0 time=0
212.87673615625 note_off channel=2 note=60 velocity=0 time=2
212.88706671875002 note_off channel=0 note=64 velocity=0 time=2
212.954215375 note_off channel=4 note=72 velocity=0 time=13
212.954215375 note_off channel=4 note=76 velocity=0 time=0
212.96454593750002 note_on channel=0 note=66 velocity=83 time=2
212.96454593750002 note_on channel=4 note=76 velocity=55 time=0
212.96454593750002 note_on channel=4 note=72 velocity=48 time=0
212.96971121874998 note_on channel=0 note=60 velocity=82 time=1
212.96971121874998 note_on channel=1 note=40 velocity=111 time=0
212.96971121874998 note_on channel=2 note=50 velocity=68 time=0
212.96971121874998 note_on channel=9 note=42 velocity=59 time=0
212.96971121874998 note_on channel=9 note=62 velocity=74 time=0
212.9748765 note_on channel=3 note=76 velocity=94 time=1
212.98004178125 note_on channel=2 note=57 velocity=80 time=1
212.98004178125 note_on channel=9 note=35 velocity=107 time=0
212.9852070625 note_on channel=0 note=57 velocity=76 time=1
212.9852070625 note_on channel=2 note=60 velocity=86 time=0
212.99037234375 note_on channel=0 note=50 velocity=55 time=1
212.99037234375 note_on channel=2 note=66 velocity=87 time=0
212.995537625 note_on channel=0 note=45 velocity=45 time=1
212.995537625 note_off channel=3 note=74 velocity=0 time=0
213.00070290624998 note_off channel=9 note=62 velocity=0 time=1
213.00070290624998 note_off channel=9 note=42 velocity=0 time=0
213.01103346875 note_off channel=9 note=35 velocity=0 time=2
213.09367796875 note_off channel=1 note=40 velocity=0 time=16
213.09367796875 note_on channel=9 note=62 velocity=68 time=0
213.12466965624998 note_off channel=9 note=62 velocity=0 time=6
213.18148775 note_off channel=4 note=76 velocity=0 time=11
213.1918183125 note_off channel=4 note=72 velocity=0 time=2
213.20214887499998 note_off channel=3 note=76 velocity=0 time=2
213.20214887499998 note_on channel=3 note=78 velocity=94 time=0
213.20731415625 note_on channel=4 note=74 velocity=52 time=1
213.20731415625 note_on channel=4 note=78 velocity=46 time=0
213.21764471875 note_on channel=9 note=42 velocity=58 time=2
213.21764471875 note_on channel=9 note=62 velocity=69 time=0
213.22281 note_on channel=1 note=38 velocity=113 time=1
213.24863640625 note_off channel=9 note=62 velocity=0 time=5
213.24863640625 note_off channel=9 note=42 velocity=0 time=0
213.35194203125002 note_off channel=1 note=38 velocity=0 time=20
213.4190906875 note_off channel=2 note=66 velocity=0 time=13
213.42942125000002 note_off channel=4 note=74 velocity=0 time=2
213.43458653125 note_off channel=4 note=78 velocity=0 time=1
213.4397518125 note_off channel=2 note=60 velocity=0 time=1
213.44491709375 note_off channel=2 note=57 velocity=0 time=1
213.44491709375 note_off channel=3 note=78 velocity=0 time=0
213.450082375 note_on channel=3 note=74 velocity=101 time=1
213.45524765625 note_off channel=0 note=66 velocity=0 time=1
213.45524765625 note_on channel=4 note=78 velocity=47 time=0
213.45524765625 note_on channel=9 note=42 velocity=63 time=0
213.46041293750002 note_off channel=0 note=60 velocity=0 time=1
213.46041293750002 note_on channel=0 note=66 velocity=82 time=0
213.46041293750002 note_on channel=2 note=66 velocity=88 time=0
213.46041293750002 note_on channel=2 note=60 velocity=85 time=0
213.46041293750002 note_on channel=2 note=57 velocity=67 time=0
213.46041293750002 note_on channel=4 note=74 velocity=55 time=0
213.46557821874998 note_on channel=0 note=60 velocity=84 time=1
213.46557821874998 note_on channel=1 note=36 velocity=108 time=0
213.4707435 note_off channel=0 note=57 velocity=0 time=1
213.4707435 note_on channel=9 note=62 velocity=71 time=0
213.47590878125 note_off channel=0 note=50 velocity=0 time=1
213.47590878125 note_on channel=0 note=57 velocity=68 time=0
213.48623934375001 note_off channel=9 note=42 velocity=0 time=2
213.491404625 note_on channel=0 note=50 velocity=37 time=1
213.5017351875 note_off channel=9 note=62 velocity=0 time=2
213.58954496875 note_off channel=1 note=36 velocity=0 time=17
213.58954496875 note_on channel=9 note=62 velocity=70 time=0
213.62053665624998 note_off channel=9 note=62 velocity=0 time=6
213.67218946875 note_off channel=2 note=50 velocity=0 time=10
213.6876853125 note_off channel=2 note=57 velocity=0 time=3
213.69285059375002 note_on channel=2 note=50 velocity=54 time=1
213.70318115625 note_off channel=2 note=60 velocity=0 time=2
213.70318115625 note_on channel=2 note=57 velocity=78 time=0
213.7083464375 note_off channel=0 note=66 velocity=0 time=1
213.7083464375 note_off channel=0 note=57 velocity=0 time=0
213.7083464375 note_off channel=2 note=66 velocity=0 time=0
213.7083464375 note_on channel=2 note=60 velocity=84 time=0
213.71351171875 note_on channel=0 note=57 velocity=62 time=1
213.71351171875 note_on channel=1 note=35 velocity=112 time=0
213.71351171875 note_on channel=2 note=66 velocity=87 time=0
213.71351171875 note_on channel=9 note=42 velocity=64 time=0
213.71351171875 note_on channel=9 note=62 velocity=78 time=0
213.718677 note_off channel=0 note=60 velocity=0 time=1
213.718677 note_on channel=9 note=40 velocity=92 time=0
213.72384228125 note_on channel=0 note=60 velocity=75 time=1
213.7290075625 note_on channel=0 note=66 velocity=47 time=1
213.74450340625 note_off channel=9 note=62 velocity=0 time=3
213.74450340625 note_off channel=9 note=42 velocity=0 time=0
213.7496686875 note_off channel=9 note=40 velocity=0 time=1
213.84780903125002 note_off channel=1 note=35 velocity=0 time=19
213.863304875 note_off channel=3 note=74 velocity=0 time=3
213.904627125 note_off channel=4 note=78 velocity=0 time=8
213.93045353124998 note_off channel=4 note=74 velocity=0 time=5
213.9356188125 note_off channel=0 note=66 velocity=0 time=1
213.95111465625 note_off channel=0 note=57 velocity=0 time=3
213.95111465625 note_off channel=2 note=60 velocity=0 time=0
213.9562799375 note_off channel=2 note=66 velocity=0 time=1
213.9562799375 note_on channel=4 note=74 velocity=54 time=0
213.9562799375 note_on channel=4 note=79 velocity=48 time=0
213.9562799375 note_on channel=4 note=71 velocity=48 time=0
213.96144521875 note_off channel=0 note=60 velocity=0 time=1
213.96144521875 note_on channel=1 note=33 velocity=109 time=0
213.96144521875 note_on channel=2 note=66 velocity=84 time=0
213.96144521875 note_on channel=9 note=42 velocity=58 time=0
213.96144521875 note_on channel=9 note=62 velocity=76 time=0
213.9666105 note_on channel=0 note=60 velocity=47 time=1
213.9666105 note_on channel=0 note=66 velocity=41 time=0
213.9666105 note_on channel=2 note=60 velocity=80 time=0
213.9666105 note_on channel=3 note=79 velocity=97 time=0
213.9769410625 note_on channel=0 note=57 velocity=28 time=2
213.99243690625 note_off channel=9 note=62 velocity=0 time=3
213.99243690625 note_off channel=9 note=42 velocity=0 time=0
214.06475084375 note_off channel=2 note=60 velocity=0 time=14
214.069916125 note_off channel=2 note=66 velocity=0 time=1
214.07508140625 note_off channel=2 note=57 velocity=0 time=1
214.08541196874998 note_on channel=9 note=62 velocity=70 time=2
214.09574253125 note_off channel=1 note=33 velocity=0 time=2
214.11640365625 note_off channel=9 note=62 velocity=0 time=4
214.1318995 note_off channel=0 note=66 velocity=0 time=3
214.13706478125 note_off channel=0 note=45 velocity=0 time=1
214.18871759375 note_off channel=0 note=50 velocity=0 time=10
214.19388287499999 note_off channel=0 note=60 velocity=0 time=1
214.20421343750002 note_on channel=2 note=43 velocity=26 time=2
214.20421343750002 note_on channel=9 note=62 velocity=75 time=0
214.20937871875 note_on channel=0 note=43 velocity=60 time=1
214.20937871875 note_on channel=2 note=47 velocity=78 time=0
214.20937871875 note_on channel=9 note=35 velocity=104 time=0
214.20937871875 note_on channel=9 note=42 velocity=65 time=0
214.214544 note_on channel=0 note=50 velocity=36 time=1
214.214544 note_on channel=1 note=31 velocity=104 time=0
214.214544 note_on channel=2 note=55 velocity=79 time=0
214.214544 note_on channel=6 note=73 velocity=73 time=0
214.214544 pitchwheel channel=6 pitch=-128 time=0
214.214544 pitchwheel channel=7 pitch=0 time=0
214.21970928125 note_off channel=0 note=57 velocity=0 time=1
214.21970928125 note_on channel=0 note=47 velocity=57 time=0
214.21970928125 note_on channel=2 note=59 velocity=84 time=0
214.2248745625 note_on channel=0 note=55 velocity=40 time=1
214.2248745625 note_on channel=2 note=67 velocity=76 time=0
214.23520512500002 note_on channel=7 note=70 velocity=54 time=2
214.23520512500002 pitchwheel channel=7 pitch=-320 time=0
214.23520512500002 note_off channel=9 note=62 velocity=0 time=0
214.24037040624998 note_off channel=9 note=35 velocity=0 time=1
214.24037040624998 note_off channel=9 note=42 velocity=0 time=0
214.2455356875 pitchwheel channel=7 pitch=-352 time=1
214.25070096875 pitchwheel channel=7 pitch=-384 time=1
214.25586625 pitchwheel channel=6 pitch=-32 time=1
214.2661968125 pitchwheel channel=6 pitch=3680 time=2
214.28169265625002 pitchwheel channel=6 pitch=3744 time=3
214.30235378125 pitchwheel channel=6 pitch=3840 time=4
214.31268434375002 pitchwheel channel=6 pitch=3904 time=2
214.31784962499998 pitchwheel channel=7 pitch=-320 time=1
214.33334546875 pitchwheel channel=6 pitch=4032 time=3
214.33334546875 pitchwheel channel=7 pitch=-192 time=0
214.34884131249999 pitchwheel channel=7 pitch=3456 time=3
214.35917187500002 pitchwheel channel=6 pitch=4000 time=2
214.36433715625 pitchwheel channel=7 pitch=3520 time=1
214.37466771875 pitchwheel channel=6 pitch=3968 time=2
214.379833 pitchwheel channel=7 pitch=3456 time=1
214.39532884374998 pitchwheel channel=6 pitch=3936 time=3
214.39532884374998 pitchwheel channel=7 pitch=3488 time=0
214.400494125 note_off channel=1 note=31 velocity=0 time=1
214.4108246875 pitchwheel channel=6 pitch=3904 time=2
214.4108246875 pitchwheel channel=7 pitch=3584 time=0
214.42632053124998 note_off channel=0 note=47 velocity=0 time=3
214.42632053124998 pitchwheel channel=7 pitch=3616 time=0
214.441816375 note_off channel=2 note=67 velocity=0 time=3
214.441816375 pitchwheel channel=6 pitch=3936 time=0
214.441816375 pitchwheel channel=7 pitch=3872 time=0
214.4521469375 note_on channel=9 note=42 velocity=61 time=2
214.45731221875 note_on channel=0 note=67 velocity=82 time=1
214.45731221875 note_on channel=0 note=59 velocity=83 time=0
214.45731221875 pitchwheel channel=7 pitch=4000 time=0
214.45731221875 note_on channel=9 note=62 velocity=70 time=0
214.4624775 note_off channel=0 note=50 velocity=0 time=1
214.4624775 note_on channel=1 note=31 velocity=107 time=0
214.4624775 note_off channel=2 note=59 velocity=0 time=0
214.4624775 note_on channel=2 note=67 velocity=86 time=0
214.4624775 note_off channel=6 note=73 velocity=0 time=0
214.4624775 pitchwheel channel=6 pitch=4000 time=0
214.46764278125002 note_off channel=0 note=55 velocity=0 time=1
214.46764278125002 note_on channel=2 note=59 velocity=84 time=0
214.47280806249998 note_on channel=0 note=55 velocity=74 time=1
214.47280806249998 pitchwheel channel=7 pitch=4032 time=0
214.483138625 note_on channel=0 note=50 velocity=52 time=2
214.483138625 note_off channel=9 note=42 velocity=0 time=0
214.48830390625 note_on channel=0 note=47 velocity=67 time=1
214.48830390625 note_off channel=9 note=62 velocity=0 time=0
214.4934691875 pitchwheel channel=6 pitch=0 time=1
214.49863446875 note_on channel=6 note=76 velocity=57 time=1
214.50379974999998 pitchwheel channel=6 pitch=-64 time=1
214.50379974999998 pitchwheel channel=7 pitch=3904 time=0
214.50896503125 note_off channel=7 note=70 velocity=0 time=1
214.50896503125 pitchwheel channel=7 pitch=0 time=0
214.51929559375 note_on channel=7 note=74 velocity=58 time=2
214.524460875 pitchwheel channel=7 pitch=256 time=1
214.56061784375 pitchwheel channel=6 pitch=-32 time=7
214.565783125 pitchwheel channel=7 pitch=224 time=1
214.58127896874998 note_on channel=9 note=62 velocity=63 time=3
214.5967748125 pitchwheel channel=7 pitch=192 time=3
214.607105375 pitchwheel channel=6 pitch=-64 time=2
214.61227065625 pitchwheel channel=7 pitch=128 time=1
214.61227065625 note_off channel=9 note=62 velocity=0 time=0
214.62260121875002 pitchwheel channel=6 pitch=-96 time=2
214.64326234375 pitchwheel channel=6 pitch=-128 time=4
214.64326234375 pitchwheel channel=7 pitch=192 time=0
214.68458459375 note_off channel=2 note=50 velocity=0 time=8
214.689749875 note_off channel=2 note=55 velocity=0 time=1
214.69491515625 note_off channel=7 note=74 velocity=0 time=1
214.69491515625 pitchwheel channel=7 pitch=288 time=0
214.70008043750002 note_off channel=2 note=59 velocity=0 time=1
214.70008043750002 note_on channel=2 note=50 velocity=49 time=0
214.70008043750002 note_on channel=9 note=40 velocity=96 time=0
214.70008043750002 note_on channel=9 note=62 velocity=77 time=0
214.70524571874998 note_on channel=2 note=55 velocity=62 time=1
214.70524571874998 note_on channel=2 note=59 velocity=63 time=0
214.70524571874998 note_on channel=9 note=42 velocity=63 time=0
214.710411 pitchwheel channel=6 pitch=-160 time=1
214.71557628125 note_off channel=6 note=76 velocity=0 time=1
214.71557628125 pitchwheel channel=6 pitch=0 time=0
214.71557628125 note_on channel=6 note=79 velocity=77 time=0
214.7207415625 pitchwheel channel=6 pitch=256 time=1
214.7207415625 pitchwheel channel=7 pitch=0 time=0
214.72590684375 pitchwheel channel=6 pitch=224 time=1
214.72590684375 note_on channel=7 note=76 velocity=53 time=0
214.731072125 pitchwheel channel=6 pitch=160 time=1
214.731072125 pitchwheel channel=7 pitch=480 time=0
214.731072125 note_off channel=9 note=62 velocity=0 time=0
214.731072125 note_off channel=9 note=40 velocity=0 time=0
214.73623740624998 note_off channel=9 note=42 velocity=0 time=1
214.7414026875 note_off channel=0 note=55 velocity=0 time=1
214.7414026875 pitchwheel channel=7 pitch=512 time=0
214.74656796875 note_on channel=0 note=55 velocity=21 time=1
214.75173325 pitchwheel channel=6 pitch=192 time=1
214.7620638125 pitchwheel channel=6 pitch=224 time=2
214.76722909375 note_off channel=0 note=50 velocity=0 time=1
214.77755965625002 pitchwheel channel=6 pitch=256 time=2
214.7930555 note_off channel=1 note=31 velocity=0 time=3
214.80855134375 pitchwheel channel=7 pitch=480 time=3
214.81371662499998 pitchwheel channel=6 pitch=224 time=1
214.85503887500002 note_off channel=0 note=47 velocity=0 time=8
214.85503887500002 pitchwheel channel=6 pitch=192 time=0
214.87053471875 pitchwheel channel=6 pitch=96 time=3
214.8860305625 pitchwheel channel=7 pitch=416 time=3
214.90152640625 note_off channel=2 note=50 velocity=0 time=3
214.9066916875 note_off channel=2 note=55 velocity=0 time=1
214.91702225 pitchwheel channel=7 pitch=384 time=2
214.93251809375002 note_off channel=2 note=67 velocity=0 time=3
214.93251809375002 pitchwheel channel=6 pitch=-32 time=0
214.93251809375002 note_off channel=7 note=76 velocity=0 time=0
214.93251809375002 pitchwheel channel=7 pitch=512 time=0
214.94284865625 note_off channel=2 note=43 velocity=0 time=2
214.94284865625 note_off channel=2 note=59 velocity=0 time=0
214.9480139375 note_on channel=2 note=67 velocity=86 time=1
214.95317921875 note_off channel=0 note=43 velocity=0 time=1
214.95317921875 note_off channel=0 note=59 velocity=0 time=0
214.95317921875 note_on channel=1 note=43 velocity=108 time=0
214.95317921875 note_on channel=2 note=59 velocity=88 time=0
214.95317921875 note_on channel=2 note=55 velocity=79 time=0
214.95317921875 note_off channel=6 note=79 velocity=0 time=0
214.95317921875 note_on channel=6 note=83 velocity=80 time=0
214.95317921875 pitchwheel channel=6 pitch=-128 time=0
214.95317921875 pitchwheel channel=7 pitch=0 time=0
214.95317921875 note_on channel=9 note=42 velocity=59 time=0
214.95317921875 note_on channel=9 note=35 velocity=105 time=0
214.95317921875 note_on channel=9 note=62 velocity=76 time=0
214.9583445 note_off channel=2 note=47 velocity=0 time=1
214.9583445 note_on channel=2 note=50 velocity=69 time=0
214.9583445 pitchwheel channel=6 pitch=-96 time=0
214.9583445 note_on channel=7 note=79 velocity=60 time=0
214.9583445 pitchwheel channel=7 pitch=192 time=0
214.96350978125 note_off channel=0 note=55 velocity=0 time=1
214.96350978125 note_on channel=0 note=62 velocity=84 time=0
214.96350978125 note_on channel=2 note=47 velocity=74 time=0
214.96350978125 note_on channel=2 note=43 velocity=57 time=0
214.96350978125 pitchwheel channel=7 pitch=64 time=0
214.96867506249998 note_on channel=0 note=59 velocity=78 time=1
214.96867506249998 note_on channel=0 note=50 velocity=78 time=0
214.98417090625 note_on channel=0 note=43 velocity=60 time=3
214.98417090625 note_off channel=9 note=62 velocity=0 time=0
214.98417090625 note_off channel=9 note=35 velocity=0 time=0
214.98417090625 note_off channel=9 note=42 velocity=0 time=0
215.01516259375 pitchwheel channel=6 pitch=-64 time=6
215.0306584375 pitchwheel channel=6 pitch=-32 time=3
215.04615428124998 pitchwheel channel=7 pitch=0 time=3
215.05648484375 pitchwheel channel=7 pitch=64 time=2
215.061650125 pitchwheel channel=6 pitch=0 time=1
215.07714596875 note_on channel=9 note=62 velocity=60 time=3
215.08747653125002 pitchwheel channel=7 pitch=0 time=2
215.10813765625 pitchwheel channel=6 pitch=-32 time=4
215.10813765625 note_off channel=9 note=62 velocity=0 time=0
215.13912934375 pitchwheel channel=6 pitch=-64 time=6
215.13912934375 pitchwheel channel=7 pitch=-64 time=0
215.14945990625 pitchwheel channel=7 pitch=-128 time=2
215.1546251875 pitchwheel channel=6 pitch=-128 time=1
215.1752863125 note_off channel=6 note=83 velocity=0 time=4
215.1752863125 pitchwheel channel=6 pitch=-32 time=0
215.19594743750002 note_on channel=9 note=42 velocity=63 time=4
215.19594743750002 note_on channel=9 note=62 velocity=66 time=0
215.20111271874998 pitchwheel channel=7 pitch=-288 time=1
215.21144328125 note_off channel=7 note=79 velocity=0 time=2
215.21144328125 pitchwheel channel=7 pitch=0 time=0
215.226939125 note_off channel=9 note=62 velocity=0 time=3
215.226939125 note_off channel=9 note=42 velocity=0 time=0
215.38706284375 note_off channel=1 note=43 velocity=0 time=31
215.43355037499998 note_off channel=0 note=67 velocity=0 time=9
215.43871565625 note_off channel=0 note=62 velocity=0 time=1
215.43871565625 note_on channel=0 note=67 velocity=90 time=0
215.4438809375 note_off channel=0 note=59 velocity=0 time=1
215.4438809375 note_on channel=0 note=62 velocity=86 time=0
215.4438809375 note_off channel=2 note=59 velocity=0 time=0
215.4438809375 note_on channel=9 note=42 velocity=63 time=0
215.44904621875 note_on channel=1 note=33 velocity=107 time=1
215.44904621875 note_off channel=2 note=55 velocity=0 time=0
215.44904621875 note_off channel=2 note=50 velocity=0 time=0
215.44904621875 note_on channel=2 note=59 velocity=80 time=0
215.44904621875 note_on channel=9 note=62 velocity=63 time=0
215.4542115 note_on channel=0 note=59 velocity=81 time=1
215.4542115 note_off channel=2 note=47 velocity=0 time=0
215.45937678125 note_off channel=0 note=50 velocity=0 time=1
215.4645420625 note_on channel=0 note=50 velocity=72 time=1
215.4645420625 note_on channel=2 note=55 velocity=57 time=0
215.47487262500002 note_off channel=9 note=42 velocity=0 time=2
215.48003790625 note_off channel=9 note=62 velocity=0 time=1
215.56268240625 note_on channel=9 note=62 velocity=56 time=16
215.59367409375 note_off channel=9 note=62 velocity=0 time=6
215.6918144375 note_on channel=9 note=40 velocity=94 time=19
215.6918144375 note_on channel=9 note=62 velocity=70 time=0
215.69697971875 note_off channel=1 note=33 velocity=0 time=1
215.69697971875 note_on channel=1 note=35 velocity=104 time=0
215.69697971875 note_on channel=9 note=42 velocity=63 time=0
215.722806125 note_off channel=9 note=62 velocity=0 time=5
215.722806125 note_off channel=9 note=40 velocity=0 time=0
215.72797140625 note_off channel=0 note=43 velocity=0 time=1
215.72797140625 note_off channel=9 note=42 velocity=0 time=0
215.7744589375 pitchwheel channel=6 pitch=0 time=9
215.89842568749998 note_off channel=0 note=50 velocity=0 time=24
215.90875625 note_off channel=0 note=67 velocity=0 time=2
215.92425209375 note_off channel=1 note=35 velocity=0 time=3
215.92941737499999 note_off channel=0 note=62 velocity=0 time=1
215.93458265625 note_on channel=1 note=36 velocity=110 time=1
215.94491321875 note_on channel=9 note=62 velocity=73 time=2
215.9500785 note_off channel=2 note=67 velocity=0 time=1
215.9500785 note_on channel=9 note=42 velocity=69 time=0
215.9500785 note_on channel=9 note=35 velocity=103 time=0
215.95524378125 note_off channel=2 note=59 velocity=0 time=1
215.95524378125 note_on channel=2 note=67 velocity=90 time=0
215.96557434375 note_off channel=2 note=55 velocity=0 time=2
215.96557434375 note_on channel=2 note=59 velocity=84 time=0
215.97073962500002 note_off channel=0 note=59 velocity=0 time=1
215.97073962500002 note_on channel=2 note=55 velocity=64 time=0
215.97590490624998 note_off channel=9 note=62 velocity=0 time=1
215.9810701875 note_off channel=9 note=42 velocity=0 time=1
215.9810701875 note_off channel=9 note=35 velocity=0 time=0
216.012061875 note_off channel=2 note=43 velocity=0 time=6
216.06887996875 note_on channel=9 note=62 velocity=66 time=11
216.08954109375 note_off channel=2 note=67 velocity=0 time=4
216.09987165625 note_off channel=9 note=62 velocity=0 time=2
216.13086334374998 note_off channel=1 note=36 velocity=0 time=6
216.1670203125 note_off channel=4 note=79 velocity=0 time=7
216.17218559375002 note_on channel=0 note=48 velocity=78 time=1
216.17218559375002 note_on channel=0 note=41 velocity=34 time=0
216.177350875 note_off channel=2 note=55 velocity=0 time=1
216.177350875 note_off channel=4 note=74 velocity=0 time=0
216.177350875 note_off channel=4 note=71 velocity=0 time=0
216.18251615625 note_on channel=0 note=53 velocity=72 time=1
216.18251615625 note_on channel=0 note=57 velocity=80 time=0
216.18251615625 note_off channel=2 note=59 velocity=0 time=0
216.1876814375 note_on channel=0 note=60 velocity=84 time=1
216.1876814375 note_on channel=0 note=65 velocity=82 time=0
216.1876814375 note_on channel=2 note=57 velocity=53 time=0
216.1876814375 note_on channel=2 note=60 velocity=88 time=0
216.1876814375 note_on channel=6 note=71 velocity=76 time=0
216.1876814375 pitchwheel channel=6 pitch=-64 time=0
216.1876814375 note_on channel=7 note=68 velocity=53 time=0
216.1876814375 pitchwheel channel=7 pitch=-544 time=0
216.1876814375 note_on channel=9 note=62 velocity=69 time=0
216.19284671875 note_on channel=4 note=79 velocity=36 time=1
216.19284671875 note_on channel=4 note=72 velocity=59 time=0
216.19284671875 note_on channel=4 note=69 velocity=33 time=0
216.19284671875 pitchwheel channel=6 pitch=-32 time=0
216.19284671875 pitchwheel channel=7 pitch=-512 time=0
216.198012 note_on channel=1 note=41 velocity=114 time=1
216.20317728125002 note_on channel=9 note=35 velocity=105 time=1
216.21350784375 note_on channel=9 note=49 velocity=70 time=2
216.218673125 note_off channel=9 note=62 velocity=0 time=1
216.22383840625 pitchwheel channel=7 pitch=-448 time=1
216.2290036875 note_on channel=2 note=65 velocity=90 time=1
216.23416896875 pitchwheel channel=6 pitch=160 time=1
216.23416896875 note_off channel=9 note=35 velocity=0 time=0
216.23933424999998 pitchwheel channel=7 pitch=-288 time=1
216.24449953125 note_off channel=9 note=49 velocity=0 time=1
216.24966481250001 pitchwheel channel=6 pitch=4032 time=1
216.25483009375 pitchwheel channel=7 pitch=3328 time=1
216.259995375 pitchwheel channel=6 pitch=4064 time=1
216.2703259375 pitchwheel channel=7 pitch=3392 time=2
216.27549121875 pitchwheel channel=6 pitch=4096 time=1
216.28582178124998 pitchwheel channel=7 pitch=3456 time=2
216.301317625 pitchwheel channel=7 pitch=3488 time=3
216.31681346874998 pitchwheel channel=7 pitch=3520 time=3
216.3323093125 pitchwheel channel=7 pitch=3488 time=3
216.35813571875002 pitchwheel channel=6 pitch=4064 time=5
216.3736315625 pitchwheel channel=6 pitch=4032 time=3
216.37879684375 pitchwheel channel=7 pitch=3552 time=1
216.383962125 pitchwheel channel=6 pitch=4000 time=1
216.39429268749998 pitchwheel channel=7 pitch=3648 time=2
216.40462325000001 pitchwheel channel=6 pitch=3968 time=2
216.40978853125 pitchwheel channel=7 pitch=3712 time=1
216.425284375 note_off channel=6 note=71 velocity=0 time=3
216.425284375 pitchwheel channel=6 pitch=4096 time=0
216.425284375 pitchwheel channel=7 pitch=3840 time=0
216.43044965625 note_off channel=0 note=65 velocity=0 time=1
216.43044965625 note_off channel=1 note=41 velocity=0 time=0
216.43561493750002 note_on channel=0 note=65 velocity=80 time=1
216.44078021874998 note_on channel=1 note=33 velocity=108 time=1
216.44078021874998 note_on channel=9 note=42 velocity=61 time=0
216.44078021874998 note_on channel=9 note=62 velocity=69 time=0
216.4459455 note_off channel=7 note=68 velocity=0 time=1
216.4459455 pitchwheel channel=7 pitch=0 time=0
216.45111078125 note_off channel=2 note=65 velocity=0 time=1
216.4562760625 note_on channel=2 note=65 velocity=82 time=1
216.4562760625 note_on channel=6 note=74 velocity=54 time=0
216.4562760625 pitchwheel channel=6 pitch=576 time=0
216.4562760625 note_on channel=7 note=72 velocity=55 time=0
216.4562760625 pitchwheel channel=7 pitch=160 time=0
216.466606625 pitchwheel channel=6 pitch=32 time=2
216.466606625 pitchwheel channel=7 pitch=128 time=0
216.47177190624998 pitchwheel channel=6 pitch=0 time=1
216.47177190624998 pitchwheel channel=7 pitch=160 time=0
216.47177190624998 note_off channel=9 note=62 velocity=0 time=0
216.47177190624998 note_off channel=9 note=42 velocity=0 time=0
216.48726775 pitchwheel channel=7 pitch=224 time=3
216.50276359375 pitchwheel channel=7 pitch=256 time=3
216.51825943749998 pitchwheel channel=7 pitch=224 time=3
216.54925112499998 pitchwheel channel=7 pitch=160 time=6
216.56474696875 pitchwheel channel=6 pitch=-32 time=3
216.56474696875 pitchwheel channel=7 pitch=128 time=0
216.56474696875 note_on channel=9 note=62 velocity=62 time=0
216.5802428125 pitchwheel channel=7 pitch=96 time=3
216.59573865624998 note_off channel=9 note=62 velocity=0 time=3
216.6112345 pitchwheel channel=6 pitch=-96 time=3
216.6112345 pitchwheel channel=7 pitch=64 time=0
216.6422261875 pitchwheel channel=6 pitch=-64 time=6
216.65255675 note_off channel=7 note=72 velocity=0 time=2
216.65255675 pitchwheel channel=7 pitch=224 time=0
216.65772203125 pitchwheel channel=6 pitch=-96 time=1
216.67321787499998 pitchwheel channel=6 pitch=-128 time=3
216.67838315625 note_off channel=6 note=74 velocity=0 time=1
216.67838315625 pitchwheel channel=6 pitch=-32 time=0
216.6835484375 pitchwheel channel=7 pitch=0 time=1
216.6835484375 note_on channel=9 note=62 velocity=70 time=0
216.68871371875 note_on channel=6 note=77 velocity=68 time=1
216.68871371875 pitchwheel channel=6 pitch=0 time=0
216.68871371875 note_on channel=7 note=74 velocity=52 time=0
216.68871371875 pitchwheel channel=7 pitch=192 time=0
216.68871371875 note_on channel=9 note=42 velocity=59 time=0
216.693879 pitchwheel channel=6 pitch=32 time=1
216.70420956249998 pitchwheel channel=6 pitch=0 time=2
216.70420956249998 pitchwheel channel=7 pitch=224 time=0
216.714540125 pitchwheel channel=7 pitch=192 time=2
216.714540125 note_off channel=9 note=62 velocity=0 time=0
216.71970540625 pitchwheel channel=6 pitch=32 time=1
216.71970540625 note_off channel=9 note=42 velocity=0 time=0
216.75069709375 pitchwheel channel=6 pitch=64 time=6
216.76102765625 pitchwheel channel=7 pitch=224 time=2
216.7661929375 pitchwheel channel=6 pitch=32 time=1
216.78168878124998 pitchwheel channel=6 pitch=64 time=3
216.797184625 pitchwheel channel=6 pitch=96 time=3
216.8075151875 pitchwheel channel=7 pitch=192 time=2
216.81268046875 pitchwheel channel=6 pitch=64 time=1
216.8281763125 pitchwheel channel=6 pitch=96 time=3
216.84367215625 pitchwheel channel=6 pitch=64 time=3
216.8694985625 note_off channel=1 note=33 velocity=0 time=5
216.8694985625 pitchwheel channel=7 pitch=224 time=0
216.87466384375 pitchwheel channel=6 pitch=96 time=1
216.88499440625 pitchwheel channel=7 pitch=192 time=2
216.90049025000002 note_off channel=7 note=74 velocity=0 time=3
216.90565553125 pitchwheel channel=6 pitch=-96 time=1
216.921151375 note_off channel=0 note=65 velocity=0 time=3
216.92631665625 note_on channel=0 note=65 velocity=90 time=1
216.92631665625 note_off channel=6 note=77 velocity=0 time=0
216.92631665625 pitchwheel channel=6 pitch=96 time=0
216.93148193750002 note_off channel=0 note=60 velocity=0 time=1
216.93148193750002 note_on channel=1 note=34 velocity=105 time=0
216.93148193750002 note_on channel=7 note=77 velocity=60 time=0
216.93148193750002 pitchwheel channel=7 pitch=32 time=0
216.93148193750002 note_on channel=9 note=42 velocity=63 time=0
216.93664721874998 note_off channel=0 note=57 velocity=0 time=1
216.93664721874998 note_on channel=0 note=60 velocity=90 time=0
216.93664721874998 note_on channel=9 note=62 velocity=73 time=0
216.9418125 note_off channel=0 note=53 velocity=0 time=1
216.9418125 pitchwheel channel=6 pitch=0 time=0
216.9418125 pitchwheel channel=7 pitch=0 time=0
216.94697778125 note_off channel=0 note=48 velocity=0 time=1
216.94697778125 note_on channel=0 note=57 velocity=74 time=0
216.94697778125 note_on channel=0 note=53 velocity=52 time=0
216.94697778125 note_off channel=2 note=65 velocity=0 time=0
216.94697778125 note_on channel=6 note=81 velocity=77 time=0
216.94697778125 pitchwheel channel=6 pitch=-128 time=0
216.94697778125 note_on channel=9 note=35 velocity=104 time=0
216.9521430625 note_off channel=2 note=60 velocity=0 time=1
216.9521430625 note_on channel=2 note=65 velocity=91 time=0
216.9521430625 pitchwheel channel=6 pitch=-256 time=0
216.95730834375001 note_on channel=0 note=48 velocity=72 time=1
216.95730834375001 note_off channel=2 note=57 velocity=0 time=0
216.95730834375001 note_on channel=2 note=60 velocity=84 time=0
216.95730834375001 pitchwheel channel=6 pitch=-384 time=0
216.962473625 note_off channel=9 note=42 velocity=0 time=1
216.96763890625 note_off channel=9 note=62 velocity=0 time=1
216.9728041875 note_on channel=2 note=57 velocity=66 time=1
216.97796946875002 note_off channel=0 note=41 velocity=0 time=1
216.97796946875002 pitchwheel channel=6 pitch=-352 time=0
216.97796946875002 note_off channel=9 note=35 velocity=0 time=0
216.98313475 note_on channel=0 note=41 velocity=55 time=1
216.9934653125 pitchwheel channel=6 pitch=-288 time=2
217.00896115625002 pitchwheel channel=6 pitch=-224 time=3
217.024457 pitchwheel channel=6 pitch=-64 time=3
217.02962228125 pitchwheel channel=7 pitch=32 time=1
217.03995284375 pitchwheel channel=6 pitch=-32 time=2
217.05544868750002 note_on channel=9 note=62 velocity=69 time=3
217.0761098125 pitchwheel channel=7 pitch=0 time=4
217.08644037500002 pitchwheel channel=6 pitch=-64 time=2
217.08644037500002 note_off channel=9 note=62 velocity=0 time=0
217.09160565624998 pitchwheel channel=7 pitch=-32 time=1
217.10193621875 pitchwheel channel=6 pitch=-96 time=2
217.1071015 pitchwheel channel=7 pitch=-96 time=1
217.12259734375 pitchwheel channel=7 pitch=-128 time=3
217.13292790625002 pitchwheel channel=6 pitch=-160 time=2
217.1380931875 pitchwheel channel=7 pitch=-224 time=1
217.14325846875 note_off channel=6 note=81 velocity=0 time=1
217.14325846875 pitchwheel channel=6 pitch=-64 time=0
217.15358903125 pitchwheel channel=7 pitch=-32 time=2
217.1587543125 note_off channel=0 note=41 velocity=0 time=1
217.1587543125 note_off channel=7 note=77 velocity=0 time=0
217.17425015625 note_off channel=0 note=53 velocity=0 time=3
217.1794154375 note_on channel=9 note=42 velocity=62 time=1
217.1794154375 note_on channel=9 note=62 velocity=71 time=0
217.18458071875 note_off channel=0 note=57 velocity=0 time=1
217.18458071875 note_on channel=0 note=53 velocity=58 time=0
217.18458071875 note_on channel=9 note=40 velocity=95 time=0
217.189746 note_on channel=0 note=41 velocity=70 time=1
217.19491128125 note_off channel=0 note=60 velocity=0 time=1
217.19491128125 note_on channel=0 note=57 velocity=51 time=0
217.2000765625 note_on channel=0 note=60 velocity=71 time=1
217.21040712500002 note_off channel=9 note=62 velocity=0 time=2
217.21040712500002 note_off channel=9 note=42 velocity=0 time=0
217.21557240625 note_off channel=9 note=40 velocity=0 time=1
217.39119196875 note_off channel=1 note=34 velocity=0 time=34
217.42218365625 note_on channel=1 note=35 velocity=107 time=6
217.42218365625 note_off channel=2 note=65 velocity=0 time=0
217.43251421875 note_off channel=0 note=65 velocity=0 time=2
217.43251421875 note_on channel=2 note=65 velocity=90 time=0
217.43251421875 note_on channel=9 note=42 velocity=59 time=0
217.4376795 note_on channel=0 note=65 velocity=89 time=1
217.4376795 note_on channel=9 note=62 velocity=70 time=0
217.44284478125002 note_off channel=0 note=57 velocity=0 time=1
217.44284478125002 note_off channel=0 note=60 velocity=0 time=0
217.44284478125002 note_off channel=2 note=57 velocity=0 time=0
217.4480100625 note_on channel=2 note=57 velocity=75 time=1
217.45317534375 note_on channel=0 note=60 velocity=84 time=1
217.458340625 note_on channel=0 note=57 velocity=82 time=1
217.46350590625 note_off channel=9 note=42 velocity=0 time=1
217.4686711875 note_off channel=9 note=62 velocity=0 time=1
217.55648096874998 note_on channel=9 note=62 velocity=66 time=17
217.58747265625 note_off channel=9 note=62 velocity=0 time=6
217.68044771875 note_off channel=2 note=60 velocity=0 time=18
217.68044771875 note_on channel=9 note=42 velocity=58 time=0
217.68044771875 note_on channel=9 note=62 velocity=80 time=0
217.685613 note_on channel=2 note=60 velocity=86 time=1
217.69077828125 note_off channel=2 note=65 velocity=0 time=1
217.6959435625 note_on channel=2 note=65 velocity=89 time=1
217.71143940624998 note_off channel=9 note=62 velocity=0 time=3
217.71143940624998 note_off channel=9 note=42 velocity=0 time=0
217.89738953124998 note_off channel=1 note=35 velocity=0 time=36
217.91805065625 note_off channel=0 note=65 velocity=0 time=4
217.9232159375 note_on channel=0 note=65 velocity=82 time=1
217.9232159375 note_on channel=1 note=36 velocity=107 time=0
217.9232159375 note_off channel=2 note=65 velocity=0 time=0
217.92838121875 note_off channel=0 note=60 velocity=0 time=1
217.92838121875 note_on channel=9 note=42 velocity=57 time=0
217.92838121875 note_on channel=9 note=35 velocity=105 time=0
217.92838121875 note_on channel=9 note=62 velocity=80 time=0
217.93871178125002 note_off channel=0 note=57 velocity=0 time=2
217.93871178125002 note_on channel=0 note=60 velocity=74 time=0
217.94387706249998 note_on channel=0 note=57 velocity=78 time=1
217.94904234375 note_off channel=0 note=41 velocity=0 time=1
217.95937290625 note_off channel=9 note=62 velocity=0 time=2
217.95937290625 note_off channel=9 note=35 velocity=0 time=0
217.95937290625 note_off channel=9 note=42 velocity=0 time=0
217.96970346875 note_off channel=2 note=60 velocity=0 time=2
217.97486874999998 note_off channel=2 note=57 velocity=0 time=1
218.0058604375 note_off channel=0 note=60 velocity=0 time=6
218.0265215625 note_off channel=0 note=53 velocity=0 time=4
218.036852125 note_off channel=0 note=57 velocity=0 time=2
218.04201740625 note_off channel=1 note=36 velocity=0 time=1
218.0471826875 note_off channel=0 note=65 velocity=0 time=1
218.0471826875 note_on channel=9 note=62 velocity=58 time=0
218.078174375 note_off channel=9 note=62 velocity=0 time=6
218.15565359375 note_on channel=2 note=52 velocity=51 time=15
218.15565359375 note_off channel=4 note=72 velocity=0 time=0
218.160818875 note_off channel=4 note=69 velocity=0 time=1
218.160818875 note_on channel=4 note=72 velocity=33 time=0
218.16598415625 note_on channel=1 note=36 velocity=111 time=1
218.16598415625 note_on channel=4 note=76 velocity=45 time=0
218.16598415625 note_on channel=9 note=62 velocity=74 time=0
218.17114943750002 note_on channel=2 note=55 velocity=75 time=1
218.17114943750002 note_on channel=2 note=60 velocity=86 time=0
218.17631471874998 note_on channel=9 note=42 velocity=61 time=1
218.18148 note_on channel=2 note=64 velocity=71 time=1
218.18664528125 note_on channel=9 note=35 velocity=107 time=1
218.19697584375 note_on channel=0 note=55 velocity=72 time=2
218.19697584375 note_on channel=0 note=60 velocity=83 time=0
218.19697584375 note_off channel=9 note=62 velocity=0 time=0
218.20730640624998 note_off channel=9 note=42 velocity=0 time=2
218.2124716875 note_on channel=0 note=52 velocity=73 time=1
218.21763696875 note_off channel=9 note=35 velocity=0 time=1
218.41391765625 note_off channel=2 note=64 velocity=0 time=38
218.4190829375 note_on channel=2 note=64 velocity=83 time=1
218.4190829375 note_on channel=9 note=42 velocity=62 time=0
218.4190829375 note_on channel=9 note=62 velocity=67 time=0
218.42424821875 note_off channel=1 note=36 velocity=0 time=1
218.42424821875 note_on channel=1 note=28 velocity=107 time=0
218.4294135 note_on channel=0 note=64 velocity=84 time=1
218.43457878125 note_off channel=0 note=60 velocity=0 time=1
218.43974406249998 note_on channel=0 note=60 velocity=80 time=1
218.450074625 note_off channel=9 note=62 velocity=0 time=2
218.450074625 note_off channel=9 note=42 velocity=0 time=0
218.45523990625 note_off channel=0 note=48 velocity=0 time=1
218.4604051875 note_off channel=0 note=52 velocity=0 time=1
218.4604051875 note_on channel=0 note=48 velocity=69 time=0
218.5430496875 note_on channel=9 note=62 velocity=59 time=16
218.574041375 note_off channel=9 note=62 velocity=0 time=6
218.65152059375 note_off channel=2 note=52 velocity=0 time=15
218.656685875 note_on channel=2 note=52 velocity=56 time=1
218.66185115625 note_off channel=2 note=55 velocity=0 time=1
218.66185115625 note_on channel=9 note=62 velocity=78 time=0
218.66701643750002 note_on channel=9 note=42 velocity=58 time=1
218.67218171874998 note_off channel=2 note=60 velocity=0 time=1
218.67218171874998 note_on channel=2 note=55 velocity=62 time=0
218.677347 note_off channel=2 note=64 velocity=0 time=1
218.677347 note_on channel=2 note=60 velocity=79 time=0
218.6876775625 note_on channel=2 note=64 velocity=72 time=2
218.69284284375001 note_off channel=9 note=62 velocity=0 time=1
218.698008125 note_off channel=9 note=42 velocity=0 time=1
218.8736276875 note_off channel=1 note=28 velocity=0 time=34
218.90461937499998 note_off channel=0 note=64 velocity=0 time=6
218.90978465625 note_on channel=0 note=64 velocity=82 time=1
218.9149499375 note_on channel=9 note=42 velocity=62 time=1
218.92011521875 note_on channel=1 note=29 velocity=111 time=1
218.92011521875 note_on channel=9 note=62 velocity=78 time=0
218.9252805 note_off channel=0 note=55 velocity=0 time=1
218.9252805 note_off channel=2 note=64 velocity=0 time=0
218.93044578125 note_on channel=0 note=55 velocity=77 time=1
218.9356110625 note_off channel=2 note=60 velocity=0 time=1
218.9356110625 note_on channel=2 note=64 velocity=95 time=0
218.9356110625 note_on channel=9 note=35 velocity=105 time=0
218.94077634375 note_off channel=2 note=52 velocity=0 time=1
218.94077634375 note_off channel=2 note=55 velocity=0 time=0
218.94077634375 note_on channel=2 note=60 velocity=90 time=0
218.94594162500002 note_off channel=9 note=42 velocity=0 time=1
218.95110690625 note_on channel=2 note=55 velocity=78 time=1
218.95110690625 note_off channel=9 note=62 velocity=0 time=0
218.9562721875 note_on channel=2 note=52 velocity=69 time=1
218.96660275 note_off channel=9 note=35 velocity=0 time=2
219.0389166875 note_on channel=9 note=62 velocity=66 time=14
219.069908375 note_off channel=9 note=62 velocity=0 time=6
219.152552875 note_off channel=0 note=48 velocity=0 time=16
219.1628834375 note_on channel=0 note=48 velocity=54 time=2
219.1628834375 note_on channel=9 note=62 velocity=75 time=0
219.16804871875 note_on channel=0 note=52 velocity=54 time=1
219.16804871875 note_on channel=9 note=42 velocity=69 time=0
219.17837928125002 note_on channel=9 note=40 velocity=100 time=2
219.193875125 note_off channel=9 note=62 velocity=0 time=3
219.19904040625 note_off channel=9 note=42 velocity=0 time=1
219.20937096875002 note_off channel=1 note=29 velocity=0 time=2
219.20937096875002 note_off channel=9 note=40 velocity=0 time=0
219.40048637499999 note_off channel=0 note=64 velocity=0 time=37
219.40048637499999 note_off channel=2 note=64 velocity=0 time=0
219.40565165625 note_on channel=0 note=64 velocity=84 time=1
219.40565165625 note_on channel=2 note=64 velocity=98 time=0
219.41081693750002 note_on channel=1 note=29 velocity=111 time=1
219.41081693750002 note_off channel=2 note=60 velocity=0 time=0
219.41598221875 note_off channel=2 note=55 velocity=0 time=1
219.41598221875 note_on channel=9 note=42 velocity=68 time=0
219.4211475 note_off channel=0 note=55 velocity=0 time=1
219.4211475 note_off channel=2 note=52 velocity=0 time=0
219.4211475 note_on channel=2 note=60 velocity=84 time=0
219.4211475 note_on channel=2 note=55 velocity=84 time=0
219.4211475 note_on channel=9 note=62 velocity=73 time=0
219.42631278125 note_on channel=0 note=55 velocity=65 time=1
219.4314780625 note_on channel=2 note=52 velocity=78 time=1
219.44697390624998 note_off channel=9 note=42 velocity=0 time=3
219.4521391875 note_off channel=9 note=62 velocity=0 time=1
219.54511425 note_on channel=9 note=62 velocity=68 time=18
219.5761059375 note_off channel=9 note=62 velocity=0 time=6
219.66391571875 note_on channel=9 note=46 velocity=65 time=17
219.669081 note_on channel=9 note=35 velocity=108 time=1
219.669081 note_on channel=9 note=62 velocity=78 time=0
219.69490740625 note_off channel=9 note=46 velocity=0 time=5
219.7000726875 note_off channel=9 note=35 velocity=0 time=1
219.7000726875 note_off channel=9 note=62 velocity=0 time=0
219.772386625 note_off channel=1 note=29 velocity=0 time=14
219.89118809375 note_off channel=2 note=60 velocity=0 time=23
219.90151865625 note_off channel=2 note=52 velocity=0 time=2
219.91184921874998 note_on channel=1 note=28 velocity=115 time=2
219.91184921874998 note_off channel=2 note=64 velocity=0 time=0
219.9170145 note_on channel=2 note=64 velocity=74 time=1
219.9170145 note_on channel=9 note=62 velocity=82 time=0
219.92217978125 note_off channel=0 note=64 velocity=0 time=1
219.9273450625 note_on channel=2 note=59 velocity=72 time=1
219.93251034375 note_off channel=0 note=48 velocity=0 time=1
219.93251034375 note_on channel=0 note=64 velocity=53 time=0
219.9480061875 note_off channel=0 note=60 velocity=0 time=3
219.9480061875 note_on channel=0 note=59 velocity=51 time=0
219.9480061875 note_off channel=9 note=62 velocity=0 time=0
219.96350203125 note_off channel=0 note=52 velocity=0 time=3
219.96350203125 note_on channel=0 note=50 velocity=31 time=0
220.04614653125 note_off channel=2 note=64 velocity=0 time=16
220.09779934374998 note_off channel=0 note=64 velocity=0 time=10
220.09779934374998 pitchwheel channel=6 pitch=0 time=0
220.102964625 note_on channel=6 note=55 velocity=67 time=1
220.10812990625 pitchwheel channel=6 pitch=288 time=1
220.12362575 note_off channel=4 note=76 velocity=0 time=3
220.12879103125 note_off channel=4 note=72 velocity=0 time=1
220.12879103125 pitchwheel channel=6 pitch=0 time=0
220.12879103125 note_on channel=6 note=59 velocity=75 time=0
220.14428687499998 note_on channel=4 note=71 velocity=36 time=3
220.14428687499998 note_on channel=6 note=64 velocity=78 time=0
220.1546174375 note_off channel=2 note=55 velocity=0 time=2
220.1546174375 note_on channel=4 note=74 velocity=32 time=0
220.1546174375 pitchwheel channel=7 pitch=0 time=0
220.1546174375 note_on channel=9 note=49 velocity=64 time=0
220.15978271875 note_off channel=1 note=28 velocity=0 time=1
220.15978271875 note_off channel=2 note=59 velocity=0 time=0
220.164948 note_off channel=0 note=55 velocity=0 time=1
220.164948 note_off channel=0 note=59 velocity=0 time=0
220.164948 note_off channel=0 note=50 velocity=0 time=0
220.164948 note_on channel=0 note=43 velocity=74 time=0
220.164948 note_on channel=1 note=31 velocity=102 time=0
220.164948 note_on channel=2 note=55 velocity=88 time=0
220.164948 note_on channel=2 note=59 velocity=89 time=0
220.164948 note_on channel=2 note=47 velocity=68 time=0
220.164948 note_on channel=6 note=67 velocity=80 time=0
220.164948 note_on channel=7 note=67 velocity=51 time=0
220.164948 note_on channel=9 note=62 velocity=88 time=0
220.17011328125 note_on channel=0 note=50 velocity=78 time=1
220.17011328125 note_on channel=0 note=55 velocity=79 time=0
220.17011328125 note_on channel=0 note=59 velocity=84 time=0
220.17011328125 note_on channel=2 note=50 velocity=58 time=0
220.17011328125 note_on channel=7 note=59 velocity=44 time=0
220.17011328125 note_on channel=9 note=35 velocity=108 time=0
220.185609125 note_on channel=2 note=43 velocity=69 time=3
220.185609125 note_off channel=9 note=49 velocity=0 time=0
220.19077440625 note_on channel=0 note=67 velocity=85 time=1
220.19077440625 note_on channel=2 note=67 velocity=85 time=0
220.1959396875 note_off channel=9 note=62 velocity=0 time=1
220.20110496875 note_off channel=9 note=35 velocity=0 time=1
220.52651768750002 note_off channel=6 note=67 velocity=0 time=63
220.52651768750002 note_on channel=6 note=68 velocity=58 time=0
220.53684825 note_off channel=3 note=79 velocity=0 time=2
220.5471788125 note_off channel=6 note=59 velocity=0 time=2
220.5471788125 note_on channel=6 note=60 velocity=62 time=0
220.55234409375 note_off channel=6 note=64 velocity=0 time=1
220.55234409375 note_on channel=6 note=65 velocity=65 time=0
220.5678399375 note_off channel=6 note=55 velocity=0 time=3
220.5678399375 note_on channel=6 note=56 velocity=48 time=0
220.6091621875 note_off channel=6 note=68 velocity=0 time=8
220.61432746875 note_on channel=6 note=69 velocity=55 time=1
220.61949275 note_off channel=6 note=60 velocity=0 time=1
220.61949275 note_off channel=6 note=65 velocity=0 time=0
220.61949275 note_on channel=6 note=61 velocity=57 time=0
220.61949275 note_on channel=6 note=66 velocity=64 time=0
220.63498859375002 note_off channel=6 note=56 velocity=0 time=3
220.63498859375002 note_on channel=6 note=57 velocity=47 time=0
220.67631084375 note_off channel=6 note=69 velocity=0 time=8
220.67631084375 note_on channel=6 note=70 velocity=54 time=0
220.68147612500002 note_off channel=6 note=61 velocity=0 time=1
220.68147612500002 note_on channel=6 note=62 velocity=60 time=0
220.70213725 note_off channel=6 note=57 velocity=0 time=4
220.70213725 note_on channel=6 note=58 velocity=47 time=0
220.70730253125 note_off channel=6 note=66 velocity=0 time=1
220.70730253125 note_on channel=6 note=67 velocity=62 time=0
220.7537900625 note_off channel=6 note=70 velocity=0 time=9
220.7537900625 note_off channel=6 note=62 velocity=0 time=0
220.7537900625 note_off channel=6 note=58 velocity=0 time=0
220.7537900625 note_off channel=6 note=67 velocity=0 time=0
220.7537900625 note_on channel=6 note=71 velocity=51 time=0
220.7537900625 note_on channel=6 note=63 velocity=60 time=0
220.7537900625 note_on channel=6 note=59 velocity=48 time=0
220.7537900625 note_on channel=6 note=68 velocity=62 time=0
220.7537900625 pitchwheel channel=7 pitch=-64 time=0
220.7744511875 pitchwheel channel=7 pitch=-96 time=4
220.78478175 pitchwheel channel=7 pitch=-160 time=2
220.80027759375 note_off channel=6 note=71 velocity=0 time=3
220.80027759375 note_on channel=6 note=72 velocity=45 time=0
220.805442875 note_off channel=6 note=63 velocity=0 time=1
220.805442875 note_off channel=6 note=68 velocity=0 time=0
220.805442875 note_on channel=6 note=64 velocity=58 time=0
220.805442875 note_on channel=6 note=69 velocity=60 time=0
220.805442875 pitchwheel channel=7 pitch=-224 time=0
220.82093871875 note_off channel=6 note=59 velocity=0 time=3
220.82093871875 note_on channel=6 note=60 velocity=51 time=0
220.82093871875 pitchwheel channel=7 pitch=-288 time=0
220.83643456250002 pitchwheel channel=7 pitch=-320 time=3
220.85193040625 pitchwheel channel=7 pitch=-352 time=3
220.86742625000002 note_off channel=6 note=72 velocity=0 time=3
220.86742625000002 note_on channel=6 note=73 velocity=37 time=0
220.86742625000002 pitchwheel channel=7 pitch=-320 time=0
220.87259153124998 note_off channel=6 note=64 velocity=0 time=1
220.87259153124998 note_off channel=6 note=60 velocity=0 time=0
220.87259153124998 note_on channel=6 note=65 velocity=55 time=0
220.8777568125 note_off channel=6 note=69 velocity=0 time=1
220.8777568125 note_on channel=6 note=61 velocity=54 time=0
220.8777568125 note_on channel=6 note=70 velocity=56 time=0
220.8777568125 pitchwheel channel=7 pitch=3584 time=0
220.8984179375 pitchwheel channel=7 pitch=3616 time=4
220.9087485 note_off channel=0 note=67 velocity=0 time=2
220.91391378125002 pitchwheel channel=7 pitch=3680 time=1
220.9190790625 note_off channel=6 note=73 velocity=0 time=1
220.9190790625 note_on channel=6 note=74 velocity=27 time=0
220.92424434375 note_off channel=6 note=65 velocity=0 time=1
220.92424434375 note_off channel=6 note=70 velocity=0 time=0
220.92424434375 note_on channel=6 note=66 velocity=51 time=0
220.92424434375 note_on channel=6 note=71 velocity=50 time=0
220.92424434375 pitchwheel channel=7 pitch=3648 time=0
220.9397401875 note_on channel=0 note=67 velocity=66 time=3
220.94490546875002 note_off channel=6 note=61 velocity=0 time=1
220.94490546875002 note_on channel=6 note=62 velocity=55 time=0
220.94490546875002 pitchwheel channel=7 pitch=3584 time=0
220.95007074999998 note_off channel=0 note=59 velocity=0 time=1
220.9604013125 note_on channel=0 note=59 velocity=71 time=2
220.9604013125 pitchwheel channel=7 pitch=3488 time=0
220.970731875 note_off channel=6 note=74 velocity=0 time=2
220.970731875 note_on channel=6 note=75 velocity=24 time=0
220.97589715625 note_off channel=0 note=55 velocity=0 time=1
220.97589715625 note_off channel=6 note=66 velocity=0 time=0
220.97589715625 note_off channel=6 note=71 velocity=0 time=0
220.97589715625 note_off channel=6 note=62 velocity=0 time=0
220.97589715625 note_on channel=6 note=67 velocity=42 time=0
220.97589715625 note_on channel=6 note=63 velocity=55 time=0
220.97589715625 note_on channel=6 note=72 velocity=42 time=0
220.97589715625 pitchwheel channel=7 pitch=3424 time=0
220.98622771875 note_on channel=0 note=55 velocity=56 time=2
220.99139300000002 pitchwheel channel=7 pitch=7392 time=1
221.00688884375 note_off channel=0 note=50 velocity=0 time=3
221.00688884375 pitchwheel channel=7 pitch=7424 time=0
221.012054125 note_on channel=0 note=50 velocity=53 time=1
221.012054125 note_off channel=6 note=72 velocity=0 time=0
221.012054125 note_on channel=6 note=73 velocity=40 time=0
221.02238468750002 note_off channel=6 note=75 velocity=0 time=2
221.02238468750002 note_on channel=6 note=76 velocity=17 time=0
221.02238468750002 pitchwheel channel=7 pitch=7520 time=0
221.02754996874998 note_off channel=6 note=67 velocity=0 time=1
221.02754996874998 note_off channel=6 note=63 velocity=0 time=0
221.02754996874998 note_on channel=6 note=68 velocity=34 time=0
221.03271525 note_on channel=6 note=64 velocity=54 time=1
221.03271525 note_off channel=7 note=67 velocity=0 time=0
221.03788053125 note_on channel=0 note=47 velocity=66 time=1
221.0430458125 pitchwheel channel=7 pitch=7456 time=1
221.04821109375 note_off channel=6 note=73 velocity=0 time=1
221.053376375 note_off channel=0 note=43 velocity=0 time=1
221.053376375 note_off channel=2 note=47 velocity=0 time=0
221.053376375 note_off channel=6 note=76 velocity=0 time=0
221.0637069375 note_off channel=6 note=68 velocity=0 time=2
221.0637069375 note_off channel=6 note=64 velocity=0 time=0
221.0637069375 note_on channel=6 note=69 velocity=30 time=0
221.0637069375 note_on channel=6 note=65 velocity=51 time=0
221.0740375 note_off channel=7 note=59 velocity=0 time=2
221.0740375 note_on channel=7 note=61 velocity=28 time=0
221.0740375 pitchwheel channel=7 pitch=3264 time=0
221.07920278125 pitchwheel channel=7 pitch=3360 time=1
221.0843680625 pitchwheel channel=7 pitch=3456 time=1
221.094698625 pitchwheel channel=7 pitch=3488 time=2
221.10502918749998 note_on channel=0 note=43 velocity=71 time=2
221.10502918749998 note_on channel=2 note=47 velocity=60 time=0
221.10502918749998 pitchwheel channel=7 pitch=3520 time=0
221.11019446875 note_off channel=2 note=50 velocity=0 time=1
221.11019446875 note_off channel=6 note=65 velocity=0 time=0
221.11019446875 note_off channel=6 note=69 velocity=0 time=0
221.11019446875 note_on channel=6 note=70 velocity=28 time=0
221.11019446875 note_on channel=6 note=66 velocity=51 time=0
221.12052503125 note_on channel=2 note=50 velocity=54 time=2
221.12052503125 pitchwheel channel=7 pitch=3584 time=0
221.13602087499999 note_off channel=2 note=55 velocity=0 time=3
221.14118615625 pitchwheel channel=7 pitch=3616 time=1
221.15151671875 note_off channel=7 note=61 velocity=0 time=2
221.17734312500002 note_on channel=2 note=55 velocity=47 time=5
221.17734312500002 note_off channel=6 note=70 velocity=0 time=0
221.17734312500002 note_on channel=6 note=71 velocity=24 time=0
221.18250840624998 note_off channel=6 note=66 velocity=0 time=1
221.18250840624998 note_on channel=6 note=67 velocity=47 time=0
221.1876736875 note_off channel=2 note=59 velocity=0 time=1
221.2083348125 note_off channel=6 note=71 velocity=0 time=4
221.2083348125 pitchwheel channel=7 pitch=0 time=0
221.218665375 note_on channel=7 note=71 velocity=56 time=2
221.218665375 pitchwheel channel=7 pitch=-96 time=0
221.22383065625002 note_off channel=0 note=59 velocity=0 time=1
221.2289959375 note_on channel=0 note=59 velocity=81 time=1
221.2289959375 pitchwheel channel=7 pitch=0 time=0
221.2289959375 note_on channel=7 note=62 velocity=23 time=0
221.23416121875 note_off channel=0 note=67 velocity=0 time=1
221.2393265 note_on channel=2 note=59 velocity=64 time=1
221.24449178125 note_on channel=0 note=67 velocity=77 time=1
221.2496570625 note_off channel=2 note=67 velocity=0 time=1
221.2496570625 pitchwheel channel=6 pitch=-800 time=0
221.25482234375002 pitchwheel channel=6 pitch=0 time=1
221.25482234375002 note_on channel=6 note=71 velocity=53 time=0
221.2703181875 note_on channel=6 note=76 velocity=68 time=3
221.31680571875 note_on channel=6 note=79 velocity=69 time=9
221.32713628125 note_on channel=2 note=67 velocity=46 time=2
222.3860189375 note_off channel=4 note=79 velocity=0 time=205
222.39118421875 note_off channel=4 note=74 velocity=0 time=1
222.3963495 note_off channel=4 note=71 velocity=0 time=1
222.478994 note_off channel=1 note=31 velocity=0 time=16
222.79407615625 note_off channel=6 note=76 velocity=0 time=61
222.92837346875 note_off channel=6 note=79 velocity=0 time=26
222.954199875 note_off channel=6 note=71 velocity=0 time=5
222.96969571875 pitchwheel channel=6 pitch=64 time=3
222.9851915625 pitchwheel channel=6 pitch=-3904 time=3
223.00068740625 note_off channel=6 note=67 velocity=0 time=3
223.00068740625 pitchwheel channel=6 pitch=0 time=0
223.04200965625 note_off channel=0 note=67 velocity=0 time=8
223.11432359375002 note_off channel=0 note=47 velocity=0 time=14
223.1298194375 note_off channel=0 note=43 velocity=0 time=3
223.15048056249998 note_off channel=0 note=59 velocity=0 time=4
223.15564584375 note_off channel=2 note=47 velocity=0 time=1
223.16597640625 note_off channel=0 note=55 velocity=0 time=2
223.18147224999998 note_off channel=0 note=50 velocity=0 time=3
223.21762921875 note_off channel=7 note=71 velocity=0 time=7
223.22795978124998 pitchwheel channel=7 pitch=-2560 time=2
223.25895146874998 note_off channel=2 note=43 velocity=0 time=6
223.25895146874998 pitchwheel channel=7 pitch=-2176 time=0
223.2744473125 pitchwheel channel=7 pitch=-4512 time=3
223.27961259375 note_off channel=7 note=62 velocity=0 time=1
223.27961259375 pitchwheel channel=7 pitch=0 time=0
223.3984140625 note_off channel=2 note=67 velocity=0 time=23
223.66184340625 note_off channel=2 note=50 velocity=0 time=51
223.66184340625 note_off channel=2 note=59 velocity=0 time=0
223.67733925 note_off channel=2 note=55 velocity=0 time=3
223.67733925 MetaMessage('end_of_track', time=0)
